<?xml version="1.0" encoding="UTF-8" standalone="no"?>
<!-- Created with Inkscape (http://www.inkscape.org/) -->

<svg
   version="1.1"
   id="svg4725"
   width="3464"
   height="3464"
   viewBox="0 0 3464 3464"
   sodipodi:docname="14 0000000.svg"
   inkscape:version="1.2.2 (732a01da63, 2022-12-09)"
   xmlns:inkscape="http://www.inkscape.org/namespaces/inkscape"
   xmlns:sodipodi="http://sodipodi.sourceforge.net/DTD/sodipodi-0.dtd"
   xmlns="http://www.w3.org/2000/svg"
   xmlns:svg="http://www.w3.org/2000/svg">
  <defs
     id="defs4729" />
  <sodipodi:namedview
     id="namedview4727"
     pagecolor="#ffffff"
     bordercolor="#000000"
     borderopacity="0.25"
     inkscape:showpageshadow="2"
     inkscape:pageopacity="0.0"
     inkscape:pagecheckerboard="0"
     inkscape:deskcolor="#d1d1d1"
     showgrid="false"
     inkscape:zoom="0.2289261"
     inkscape:cx="1729.8159"
     inkscape:cy="1736.3682"
     inkscape:window-width="1920"
     inkscape:window-height="986"
     inkscape:window-x="-11"
     inkscape:window-y="-11"
     inkscape:window-maximized="1"
     inkscape:current-layer="g4731" />
  <g
     inkscape:groupmode="layer"
     inkscape:label="Image"
     id="g4731">
    <path
       style="fill:#000000;stroke-width:1.47593"
       d="m 1127.6429,2763.898 c -0.3397,-0.6521 -0.783,-13.9905 -0.9852,-29.6407 -0.4222,-32.6747 2.0562,-80.967 6.8962,-134.3717 4.0278,-44.4424 5.9058,-68.4793 6.9417,-88.8509 0.6279,-12.3505 1.5831,-23.2748 2.1226,-24.2762 0.5397,-1.0015 0.9276,-9.2987 0.8623,-18.4382 -0.066,-9.1396 0.761,-21.4162 1.8364,-27.2813 1.0871,-5.9285 1.9396,-19.1726 1.9197,-29.8255 -0.02,-10.5388 0.4141,-19.9966 0.9637,-21.0169 0.5497,-1.02 1.5092,-11.8791 2.1326,-24.1313 2.0022,-39.3667 3.6405,-64.6097 5.1386,-79.1868 0.8044,-7.8253 2.4576,-27.0323 3.6739,-42.6828 1.2164,-15.6503 3.0903,-38.7701 4.1642,-51.3775 1.0737,-12.607 2.3168,-30.7474 2.7622,-40.3112 0.4454,-9.5643 1.3695,-20.2349 2.0536,-23.7129 0.6841,-3.4778 1.2591,-13.8401 1.2777,-23.0271 0.018,-9.1871 0.7159,-20.9247 1.5496,-26.0839 0.8337,-5.1591 1.6949,-16.1383 1.9138,-24.3982 0.6688,-25.2545 3.3825,-68.3592 4.777,-75.8804 0.7255,-3.9127 1.3496,-12.4492 1.3869,-18.9701 0.037,-6.521 0.6999,-16.1246 1.4721,-21.3414 0.7722,-5.2169 1.9762,-19.0889 2.6756,-30.8266 0.6995,-11.7376 1.9393,-29.1664 2.7553,-38.7306 0.8159,-9.5642 2.1439,-25.2143 2.9512,-34.7785 0.8072,-9.5642 1.9666,-27.4721 2.5763,-39.7959 0.61,-12.3235 1.5874,-23.2945 2.1722,-24.38 0.5847,-1.0855 1.5712,-13.0554 2.1919,-26.5997 0.6209,-13.5443 1.7492,-34.9409 2.5072,-47.5483 0.7582,-12.6072 1.9356,-33.7042 2.6164,-46.8825 0.6808,-13.1782 1.6861,-24.7925 2.234,-25.8092 0.5477,-1.0169 1.4916,-11.9316 2.0971,-24.2553 0.6057,-12.3238 1.795,-30.2319 2.6429,-39.7959 0.8479,-9.5642 2.4315,-28.4157 3.5189,-41.8924 1.0876,-13.4767 2.6938,-33.0396 3.5692,-43.4731 0.8756,-10.4337 2.1067,-28.5737 2.7358,-40.3116 3.1011,-57.8564 3.9334,-71.2204 4.504,-72.3178 0.3407,-0.6552 1.0342,-10.7507 1.5408,-22.434 0.5066,-11.6835 1.2813,-21.9112 1.7214,-22.7279 0.4401,-0.817 1.2876,-11.8881 1.8832,-24.6021 1.2587,-26.8626 5.1596,-82.0069 6.05,-85.5229 0.3356,-1.3244 0.9801,-9.5218 1.4324,-18.2164 0.8965,-17.231 1.4448,-23.917 3.4364,-41.8922 0.7225,-6.5212 1.3597,-16.836 1.4162,-22.9225 0.056,-6.0861 0.6933,-14.2672 1.4154,-18.1796 0.7222,-3.9125 1.9702,-18.8516 2.7734,-33.1976 0.8032,-14.3463 2.0654,-35.6876 2.8049,-47.4255 0.7394,-11.7377 1.7936,-31.65629 2.3424,-44.2636 0.5487,-12.60705 1.4768,-23.7762 2.062,-24.81964 0.5854,-1.04355 1.666,-13.13725 2.4013,-26.87445 3.5657,-66.59846 4.2433,-72.33091 10.493,-88.75797 1.7686,-4.64879 5.712,-11.87265 8.7631,-16.05354 6.7514,-9.25072 23.1031,-21.21888 36.0466,-26.38282 13.0675,-5.21361 41.6211,-6.96896 83.8357,-5.15384 29.5362,1.26998 82.2414,2.43166 180.5148,3.97862 110.0076,1.73212 133.676,2.18827 155.0223,2.98857 12.8841,0.48333 66.2117,1.58578 118.5059,2.44979 90.76,1.49983 148.0223,2.99367 149.5104,3.90021 0.3788,0.23101 7.5099,-0.0804 15.8467,-0.69277 9.1115,-0.66902 26.9753,-0.24927 44.7842,1.05187 23.1575,1.69227 33.3218,1.77489 46.5502,0.37863 9.3081,-0.98227 17.8273,-1.38823 18.9315,-0.90233 1.1043,0.48615 17.0519,1.63851 35.4393,2.56115 46.997,2.3576 62.8422,6.43071 79.6401,20.47208 8.6614,7.24021 23.4442,27.72112 26.9434,37.32887 3.8174,10.48123 5.7895,35.18236 8.7646,109.78506 0.7107,17.8241 1.939,40.94391 2.7293,51.37751 1.3877,18.3205 2.7855,50.5565 5.5868,128.8388 0.7311,20.4323 1.9476,46.042 2.7033,56.9102 1.9843,28.54 4.7351,88.0487 5.0056,108.2878 0.3826,28.6111 3.334,103.247 4.7197,119.3537 1.758,20.4354 4.394,86.9964 5.3838,135.9525 0.4482,22.1715 1.3074,41.1833 1.909,42.2488 0.6016,1.0657 1.3412,20.6286 1.6433,43.4732 0.302,22.8448 1.1779,44.7372 1.9463,48.6497 0.7686,3.9128 1.4243,22.1337 1.4573,40.491 0.033,18.3573 0.7514,37.2089 1.5963,41.8925 0.9084,5.0352 1.434,22.5456 1.286,42.8473 -0.1857,25.4643 0.3428,38.671 2.046,51.1314 1.2629,9.2399 2.0052,19.0442 1.6496,21.7879 -0.3557,2.7437 0.2479,30.5981 1.3411,61.8986 1.0934,31.3008 2.2592,73.9835 2.5907,94.8507 0.3315,20.8672 0.9709,39.363 1.4211,41.102 0.45,1.739 1.3966,23.0802 2.1037,47.4252 0.707,24.3449 1.9009,64.538 2.6529,89.3176 1.8288,60.2574 3.4005,118.9287 5.2301,195.2344 0.834,34.7786 2.0823,69.6361 2.7741,77.4613 0.6919,7.8251 0.9807,28.0787 0.6419,45.008 -0.3572,17.8434 0,35.1186 0.8432,41.1019 0.8026,5.6768 1.8031,24.9048 2.2231,42.7288 0.42,17.8239 1.2014,49.4804 1.7365,70.3474 0.5352,20.8672 0.7343,39.5486 0.4426,41.5141 -0.309,2.0824 -1.7559,3.8727 -3.4672,4.2893 -3.6323,0.8848 -822.5931,4.0311 -1043.5718,4.0092 -88.8175,-0.015 -161.7641,-0.5495 -162.1035,-1.2016 z m 1034.7338,-107.9398 3.7328,-1.6282 -0.8426,-31.9648 c -0.4634,-17.5806 -1.1825,-43.3469 -1.598,-57.2583 -0.4153,-13.9113 -0.9649,-41.6552 -1.2211,-61.6529 -0.6527,-50.9224 -3.1009,-129.0105 -4.1633,-132.7908 -0.4886,-1.7388 -1.1841,-23.0803 -1.5454,-47.4253 -0.3613,-24.3449 -0.9747,-53.8671 -1.3633,-65.6051 -2.9473,-89.0684 -3.7854,-119.5358 -4.2406,-154.132 -0.286,-21.7368 -0.931,-40.944 -1.4336,-42.6829 -0.9303,-3.2198 -2.3951,-48.275 -4.291,-132.0004 -0.581,-25.6494 -1.5328,-47.4777 -2.1154,-48.5077 -0.5825,-1.03 -1.2667,-15.9691 -1.5204,-33.1977 -0.6948,-47.1931 -4.868,-169.8643 -6.39,-187.8283 -0.7365,-8.6949 -1.6776,-32.2776 -2.0911,-52.4064 -0.4137,-20.1291 -1.3462,-40.759 -2.0721,-45.8446 -0.726,-5.0855 -1.3344,-22.7627 -1.3521,-39.2827 -0.021,-19.261 -0.7776,-35.1396 -2.1103,-44.2636 -1.4714,-10.0726 -2.0106,-24.153 -1.8464,-48.2156 0.1501,-21.9815 -0.3543,-36.7803 -1.4276,-41.8923 -0.9809,-4.6716 -1.8591,-24.068 -2.1473,-47.4255 -0.2681,-21.7365 -1.1329,-42.7222 -1.9218,-46.6346 -0.7887,-3.9128 -1.472,-21.3415 -1.5182,-38.7307 -0.058,-21.5706 -0.733,-35.133 -2.127,-42.6821 -1.4483,-7.8439 -2.057,-21.421 -2.0913,-46.6351 -0.033,-24.8088 -0.6445,-38.678 -2.0186,-45.845 -1.3106,-6.8357 -2.0015,-20.5949 -2.0637,-41.102 -0.051,-16.9545 -0.7147,-35.8061 -1.4741,-41.8922 -0.7595,-6.0862 -1.841,-21.1663 -2.4036,-33.5111 -1.1597,-25.44521 -2.2081,-28.03867 -13.7384,-33.98566 -6.2809,-3.23949 -17.0689,-3.73037 -116.7398,-5.30989 -95.0009,-1.50609 -166.3297,-2.92407 -276.9731,-5.50693 -35.6207,-0.83133 -92.9789,-1.82802 -127.4627,-2.21471 -34.4839,-0.38654 -73.2395,-1.46522 -86.1235,-2.39692 -24.1106,-1.74336 -46.7469,-0.28963 -57.0544,3.6641 -9.8114,3.76382 -10.4896,7.11377 -13.9672,68.98551 -0.7087,12.6073 -1.8409,26.8349 -2.5159,31.617 -0.6751,4.7818 -0.9132,13.7014 -0.529,19.8208 0.4585,7.3046 -0.074,15.0138 -1.5453,22.4438 -1.2342,6.2248 -2.2438,17.5468 -2.2438,25.1603 0,7.6136 -0.6048,21.3449 -1.3439,30.5144 -0.739,9.1694 -2.0008,24.8526 -2.8038,34.8516 -0.803,9.9986 -1.7712,23.8706 -2.1515,30.8262 -0.3803,6.9558 -1.2984,18.338 -2.0405,25.2935 -2.0447,19.1681 -5.5157,63.7953 -6.824,87.7368 -0.6415,11.7379 -1.8981,27.2494 -2.7924,34.4702 -0.8944,7.2211 -1.3206,15.4019 -0.9471,18.18 0.3735,2.7777 -0.1704,11.0973 -1.2087,18.4878 -1.0382,7.3905 -1.8984,20.6319 -1.9117,29.4251 -0.014,8.7933 -0.7199,19.8198 -1.5705,24.503 -0.8504,4.6836 -1.6839,15.9848 -1.8522,25.1141 -0.1683,9.1293 -1.0145,24.7797 -1.8808,34.7786 -0.8662,9.9989 -2.195,26.3606 -2.9527,36.3595 -2.7384,36.1357 -5.5579,70.8254 -7.7091,94.8504 -2.4036,26.8437 -4.2133,55.521 -5.8908,93.3489 -0.5996,13.5203 -1.5978,25.5244 -2.2182,26.6759 -0.6205,1.1518 -1.6889,13.5654 -2.3742,27.5857 -2.177,44.5357 -5.7241,100.0973 -7.8907,123.6009 -3.5426,38.4327 -7.6819,93.1234 -9.7846,129.2798 -0.7503,12.9029 -1.7608,24.1959 -2.2454,25.0955 -0.4846,0.8994 -1.4476,13.818 -2.1402,28.7078 -0.6925,14.89 -1.8172,36.3203 -2.4995,47.6236 -0.682,11.3029 -1.8509,31.2215 -2.5972,44.2636 -0.7465,13.0417 -2.0176,27.5442 -2.8249,32.2277 -0.8075,4.6836 -1.4804,13.5755 -1.4958,19.7605 -0.015,6.1851 -0.649,15.8695 -1.4087,21.5209 -0.7595,5.6516 -1.9466,19.1678 -2.6382,30.0361 -1.3281,20.8745 -3.3341,46.8096 -5.7468,74.2996 -0.8013,9.1293 -1.9533,26.9139 -2.5602,39.5211 -0.6068,12.6071 -1.8381,28.5618 -2.736,35.4547 -0.8982,6.8929 -1.2786,14.7182 -0.8456,17.3894 0.4329,2.671 0.1364,9.1249 -0.6602,14.3416 -0.796,5.2169 -2.0221,19.8002 -2.7245,32.4072 -3.1789,57.0532 -4.0248,69.3682 -5.3756,78.2518 -0.7931,5.2167 -1.4676,14.8206 -1.4989,21.3415 -0.032,6.5211 -0.9068,18.2588 -1.9457,26.084 -1.3028,9.8131 -1.449,14.8405 -0.4714,16.2036 1.8585,2.5909 857.1797,2.9355 863.1124,0.3479 z"
       id="path4735" />
  </g>
</svg>
