<?xml version="1.0" encoding="UTF-8" standalone="no"?>
<!-- Created with Inkscape (http://www.inkscape.org/) -->

<svg
   version="1.1"
   id="svg5000"
   width="3267"
   height="3267"
   viewBox="0 0 3267 3267"
   sodipodi:docname="24 00000000000.svg"
   inkscape:version="1.2.2 (732a01da63, 2022-12-09)"
   xmlns:inkscape="http://www.inkscape.org/namespaces/inkscape"
   xmlns:sodipodi="http://sodipodi.sourceforge.net/DTD/sodipodi-0.dtd"
   xmlns="http://www.w3.org/2000/svg"
   xmlns:svg="http://www.w3.org/2000/svg">
  <defs
     id="defs5004" />
  <sodipodi:namedview
     id="namedview5002"
     pagecolor="#ffffff"
     bordercolor="#000000"
     borderopacity="0.25"
     inkscape:showpageshadow="2"
     inkscape:pageopacity="0.0"
     inkscape:pagecheckerboard="0"
     inkscape:deskcolor="#d1d1d1"
     showgrid="false"
     inkscape:zoom="0.24273033"
     inkscape:cx="1631.4401"
     inkscape:cy="1633.5"
     inkscape:window-width="1920"
     inkscape:window-height="986"
     inkscape:window-x="-11"
     inkscape:window-y="-11"
     inkscape:window-maximized="1"
     inkscape:current-layer="g5006" />
  <g
     inkscape:groupmode="layer"
     inkscape:label="Image"
     id="g5006">
    <g
       id="g5010"
       transform="matrix(1.7434504,0,0,1.6084058,-1224.1028,-1045.0863)"
       style="fill:#000000">
      <path
         style="fill:#000000;fill-opacity:1"
         d="m 1910.5,2122.5056 c -6.497,-2.8831 -6.3381,-2.606 -42.9972,-75.0056 -10.3041,-20.35 -20.5592,-40.4875 -22.7891,-44.75 l -4.0544,-7.75 -222.5796,0.013 -222.5797,0.013 -6.8259,10.7369 c -18.4238,28.98 -55.3311,86.0563 -61.1471,94.5626 -3.5769,5.2315 -12.0656,9.1637 -17.8019,8.2464 -6.9273,-1.1077 -9.7396,-3.1062 -24.2251,-17.2155 -39.7394,-38.7072 -76.4699,-74.4677 -81.5091,-79.3565 -5.272,-5.1148 -62.3645,-60.8076 -82.0106,-80 -32.1652,-31.4226 -40.935,-39.6072 -51.9676,-48.5 -24.3434,-19.622 -45.0005,-39.7828 -64.0378,-62.4993 -5.7612,-6.8747 -14.66182,-16.9997 -19.77917,-22.5 -24.44007,-26.2693 -37.96956,-55.069 -42.1776,-89.7816 -0.54799,-4.5205 -2.13867,-15.6441 -3.53485,-24.7191 -1.95331,-12.6964 -2.66936,-22.0325 -3.10618,-40.5 -0.7946,-33.5937 1.42415,-259.6268 2.67978,-273 2.24966,-23.96 8.8798,-51.6753 16.62601,-69.5 0.83657,-1.925 1.88193,-4.4 2.32304,-5.5 2.8616,-7.1361 12.43552,-25.627 17.86287,-34.5 13.43265,-21.9608 27.0998,-39.446 47.2499,-60.4494 30.8197,-32.125 73.9071,-64.0903 122.3813,-90.791 20.0155,-11.0251 81.7258,-39.7596 85.3876,-39.7596 0.4222,0 3.6577,-1.1843 7.19,-2.6317 11.5473,-4.7318 36.7094,-13.4636 52.9224,-18.3654 4.125,-1.2471 9.525,-2.9169 12,-3.7107 4.8568,-1.5576 11.4534,-3.3962 22.5,-6.2713 3.85,-1.002 9.475,-2.521 12.5,-3.3756 6.0795,-1.7174 8.5734,-2.3448 14.5,-3.6481 2.2,-0.4837 7.7575,-1.8403 12.35,-3.0144 4.5926,-1.1742 10.4426,-2.4953 13,-2.9357 2.5575,-0.4405 10.275,-1.9465 17.15,-3.3469 16.3839,-3.3371 32.3227,-6.2021 48,-8.6281 26.6029,-4.1167 33.4902,-4.9786 72.25,-9.0418 10.1494,-1.0639 29.2875,-2.4844 54.75,-4.0637 21.3362,-1.32341 115.4818,-1.32943 137.5,-0.01 29.7378,1.7836 45.1677,2.892 55.7259,4.0031 35.3149,3.7163 57.241,6.5025 75.7741,9.6287 4.675,0.7886 11.2,1.8629 14.5,2.3872 13.4604,2.1387 25.6603,4.4195 40.5,7.5714 4.125,0.8761 9.525,2.0175 12,2.5363 6.195,1.2986 55.3437,13.5582 61.5,15.3405 79.6173,23.0495 143.5364,50.227 202.4476,86.0781 72.3707,44.0419 128.0837,99.8983 157.0926,157.4969 4.4273,8.7907 9.9598,20.8023 9.9598,21.6239 0,0.3156 0.6494,1.9918 1.4431,3.725 2.5472,5.5618 7.3305,20.8396 9.9726,31.8521 4.4891,18.7107 5.6645,29.1115 6.2493,55.299 0.7638,34.2006 -1.4361,259.1242 -2.6798,273.9893 -0.9118,10.8978 -2.5793,21.1265 -4.974,30.5107 -0.4912,1.925 -1.4226,5.75 -2.0696,8.5 -2.2068,9.3785 -7.9266,26.7623 -11.8451,36 -1.2549,2.9582 -5.9986,15.2004 -8.3311,21.5 -3.7524,10.1345 -19.8168,32.9077 -36.1122,51.1935 -9.642,10.8196 -14.5339,14.9587 -18.1484,15.3554 -3.3378,0.3664 -11.7746,7.3294 -154.5048,127.5142 -34.375,28.9452 -67.225,56.5978 -73,61.4503 -5.775,4.8524 -13.65,11.5727 -17.5,14.934 -3.85,3.3613 -9.475,8.1127 -12.5,10.5585 -3.025,2.4459 -8.425,6.9637 -12,10.0397 -15.6445,13.4605 -34.8398,29.6932 -38.3775,32.4544 -4.9103,3.8323 -10.1504,8.2387 -14.0516,11.8157 -9.5947,8.7974 -19.7603,16.8655 -22.9062,18.1799 -4.3585,1.8211 -12.0726,1.8259 -16.1647,0.01 z m 64.4968,-125.909 c 31.6268,-28.5892 62.4698,-56.5065 68.5401,-62.0385 6.0703,-5.5319 29.0203,-26.3046 51,-46.1615 21.9797,-19.8569 68.9881,-62.3243 104.4631,-94.3721 35.475,-32.0478 68.8622,-62.2744 74.1939,-67.1703 l 9.6938,-8.9016 2.9934,-9.7263 c 5.119,-16.6332 7.797,-30.3013 8.5673,-43.7263 1.0517,-18.3312 1.6507,-102.5 0.7295,-102.5 -0.5093,0 -4.3371,3.9375 -8.5062,8.75 -16.8619,19.4642 -32.2516,34.4034 -52.1463,50.6197 -71.1278,57.9766 -169.5888,104.1833 -280.5254,131.6474 -10.5381,2.6089 -44.0803,10.1727 -50,11.2751 -1.375,0.2561 -9.475,1.8638 -18,3.5728 -33.0103,6.6175 -71.2408,12.3387 -98.25,14.7033 -4.7963,0.4199 -6.75,0.9914 -6.75,1.9745 0,0.761 5.6804,12.5377 12.6231,26.1704 6.9428,13.6328 18.5872,36.4868 25.8765,50.7868 7.2893,14.3 21.029,41.3 30.5325,60 24.917,49.0287 25.4202,49.9882 27.8011,53.015 1.1917,1.5151 2.1668,3.4069 2.1668,4.2041 0,2.7749 35.3453,71.1855 36.432,70.5139 0.5839,-0.3608 26.938,-24.0472 58.5648,-52.6364 z m -644.8667,25.8684 c 5.1534,-7.9942 11.7765,-18.2317 14.7178,-22.75 2.9414,-4.5182 9.6569,-14.965 14.9235,-23.215 5.2666,-8.25 13.6928,-21.3 18.7249,-29 5.0322,-7.7 11.4627,-17.6 14.29,-22 20.8067,-32.3801 37.1335,-57.7132 43.5029,-67.5 4.1164,-6.325 10.3746,-16 13.907,-21.5 9.8405,-15.3215 21.7987,-33.8416 29.6407,-45.9055 3.8989,-5.998 6.8801,-11.2433 6.6249,-11.6563 -0.2552,-0.413 -2.826,-1.046 -5.7129,-1.4068 -9.38,-1.1722 -26.1052,-3.5615 -32.2489,-4.6069 -3.3,-0.5615 -8.7,-1.482 -12,-2.0455 -12.6195,-2.1547 -37.5114,-7.0786 -50,-9.8906 -2.2,-0.4954 -7.15,-1.6035 -11,-2.4624 -3.85,-0.859 -8.575,-1.99 -10.5,-2.5133 -1.925,-0.5233 -7.1,-1.8365 -11.5,-2.9182 -15.5052,-3.8119 -34.3709,-8.9759 -42,-11.4965 -2.2,-0.7269 -8.05,-2.5661 -13,-4.0872 -4.95,-1.5211 -12.825,-4.0953 -17.5,-5.7205 -4.675,-1.6251 -11.0254,-3.7792 -14.112,-4.7869 -24.1959,-7.8987 -62.2069,-24.1278 -95.361,-40.715 -67.8048,-33.923 -126.8276,-78.5196 -165.027,-124.6912 l -9,-10.8784 -0.6193,7.3906 c -1.09014,13.0097 -0.95039,98.5321 0.17355,106.199 1.77185,12.0867 4.82285,26.1992 7.48765,34.635 l 2.5346,8.0234 99.1333,105.7666 c 54.5233,58.1716 105.2712,112.2916 112.7732,120.2666 41.8286,44.4659 73.2929,78.2714 81.4169,87.4747 3.2449,3.676 9.053,8.8981 12.9068,11.6045 3.8538,2.7064 7.1074,4.9208 7.2302,4.9208 0.1228,0 4.4397,-6.5407 9.5932,-14.535 z M 1828,1970.8959 c 0,-0.6073 -7.4979,-15.7948 -16.6621,-33.75 -26.6007,-52.1187 -47.4806,-93.0868 -58.5552,-114.8902 l -10.2827,-20.2442 -111.0619,-0.01 -111.062,-0.01 -2.188,2.9595 c -1.2035,1.6277 -2.1881,3.1659 -2.1881,3.4181 0,0.2522 -3.0618,5.1079 -6.8041,10.7905 -9.0595,13.7567 -17.2578,26.3936 -28.1121,43.3319 -15.8241,24.6938 -31.8778,49.5692 -42.5939,66 -5.7393,8.8 -10.7467,16.6305 -11.1275,17.4012 -0.3808,0.7707 -3.9932,6.3867 -8.0274,12.4802 -4.0343,6.0934 -7.335,11.6504 -7.335,12.3488 0,1.0223 40.5336,1.2698 208,1.2698 151.0772,0 208,-0.3022 208,-1.1041 z m -217.4431,-11.9428 c -5.34,-2.6642 -7.7733,-5.1145 -11.1758,-11.2543 -2.546,-4.5942 -2.8795,-6.1873 -2.8671,-13.6988 0.012,-7.271 0.4025,-9.2403 2.7009,-13.6197 5.0358,-9.5958 12.3001,-13.8029 22.8078,-13.2092 5.6478,0.3192 7.3179,0.8859 11.5404,3.9164 12.467,8.9475 14.7347,28.478 4.8164,41.4816 -5.8251,7.6371 -19.1723,10.6997 -27.8226,6.384 z m -0.3053,-83.0576 c -4.7168,-2.3348 -8.2435,-6.0881 -11.5374,-12.279 -1.7596,-3.3073 -2.1898,-5.7875 -2.1882,-12.6165 0,-7.2849 0.3861,-9.2319 2.6889,-13.6197 4.7252,-9.0039 11.7225,-13.3803 21.3935,-13.3803 12.9991,0 22.4818,9.8479 24.0361,24.9618 0.6578,6.3969 -1.9102,15.0756 -6.0776,20.5394 -5.9156,7.7558 -19.4089,10.8029 -28.3153,6.3943 z M 1725,1728.4834 c 29.45,-1.7852 49.5307,-3.5003 75.5,-6.4484 17.7412,-2.014 24.4385,-2.9946 61.25,-8.9681 40.2,-6.5232 97.0601,-20.6915 139.25,-34.698 19.4579,-6.4597 43.6822,-15.4137 52.6951,-19.4774 2.3074,-1.0403 4.4336,-1.8915 4.725,-1.8915 0.2914,0 3.4774,-1.35 7.0799,-3 3.6025,-1.65 6.779,-3 7.0588,-3 1.2303,0 40.0329,-19.2179 49.4908,-24.5116 41.8042,-23.3978 72.6204,-45.5307 98.7004,-70.889 3.9875,-3.8771 7.25,-7.7754 7.25,-8.6627 0,-3.2461 -27.9396,-28.9072 -48.5622,-44.6019 -17.0156,-12.9496 -42.2302,-29.5507 -58.9378,-38.8042 -3.85,-2.1323 -8.575,-4.7583 -10.5,-5.8356 -4.7259,-2.6447 -35.3813,-17.9433 -41,-20.4611 -2.475,-1.109 -9,-3.9106 -14.5,-6.2256 -5.5,-2.315 -11.35,-4.8174 -13,-5.5607 -13.1909,-5.9427 -51.1234,-19.402 -74.6231,-26.4779 -21.9572,-6.6115 -57.8644,-16.0096 -75.8769,-19.8595 -20.6033,-4.4037 -37.8871,-7.8337 -46,-9.1287 -3.025,-0.4829 -9.55,-1.5557 -14.5,-2.384 -15.791,-2.6425 -42.1985,-6.3247 -55,-7.6692 -33.094,-3.4757 -42.9943,-4.2024 -94.5,-6.9361 -46.1554,-2.4498 -109.6201,-0.1913 -171.5,6.103 -29.9767,3.0492 -65.7327,8.4203 -93.5,14.0453 -5.775,1.1698 -12.3,2.4675 -14.5,2.8837 -7.4014,1.4002 -14.167,2.8584 -23.1092,4.981 -16.3133,3.8721 -20.826,4.9998 -30.3908,7.5944 -13.611,3.6922 -14.8933,4.0498 -21,5.8558 -3.025,0.8946 -6.85,2.0093 -8.5,2.4771 -7.0967,2.0121 -33.1303,10.5399 -44,14.413 -60.6686,21.6176 -121.2499,52.9462 -163.4942,84.5482 -17.6783,13.2248 -47.0208,39.2856 -47.0106,41.7529 0.01,1.6305 23.7133,24.2063 35.0048,33.3352 30.5617,24.7082 61.7401,44.5051 100.7701,63.9843 13.4341,6.7048 28.9831,14.0339 29.7733,14.0339 0.2185,0 2.7732,1.0792 5.677,2.3983 19.7305,8.9627 75.9608,29.4659 92.2796,33.6479 1.65,0.4228 7.7368,2.1308 13.5262,3.7955 30.8502,8.8707 77.3923,19.4676 105.9738,24.1286 4.125,0.6727 10.875,1.8078 15,2.5226 7.3873,1.2799 12.7605,2.0478 34.5,4.9307 30.3248,4.0212 39.1237,4.9082 65.5,6.6028 9.075,0.583 20.55,1.4279 25.5,1.8774 16.3452,1.4844 110.8442,1.1955 137.5,-0.4204 z M 2274.381,1486 c 10.1393,-19.466 15.766,-34.9825 19.7634,-54.5 1.891,-9.2328 2.2612,-14.2935 2.3043,-31.5 0.048,-19.2974 -0.6238,-26.7586 -3.5129,-39 -7.5019,-31.786 -21.4048,-59.297 -45.0417,-89.1281 -16.1136,-20.3365 -48.3312,-50.2954 -73.4807,-68.3293 -14.1271,-10.1302 -49.1543,-32.5426 -50.8591,-32.5426 -0.2064,0 -3.453,-1.7407 -7.2148,-3.8682 -17.1064,-9.675 -49.5644,-25.3919 -64.337,-31.1536 -3.0236,-1.1793 -5.9486,-2.4886 -6.5,-2.9096 -2.8993,-2.2139 -50.3869,-19.3149 -76.0025,-27.3697 -26.555,-8.3502 -71.2043,-19.7333 -97,-24.7297 -28.4068,-5.5021 -29.9593,-5.7755 -57,-10.0399 -9.5315,-1.5031 -28.2866,-4.0007 -37,-4.9271 -51.5822,-5.4845 -75.4145,-6.988 -122,-7.6968 -51.9929,-0.791 -94.3118,1.1696 -146.5,6.7872 -10.5931,1.1403 -16.8639,1.9645 -38,4.9947 -25.5807,3.6674 -34.2109,5.1134 -50.5,8.4612 -7.15,1.4695 -15.025,3.033 -17.5,3.4745 -2.475,0.4415 -9.675,2.0233 -16,3.5153 -6.325,1.4919 -13.3,3.0996 -15.5,3.5727 -2.2,0.473 -5.575,1.2748 -7.5,1.7817 -30.1442,7.9377 -47.1303,12.9797 -71.5,21.2234 -51.9142,17.5613 -99.6589,39.305 -141,64.2136 -34.0071,20.4898 -63.0032,43.0887 -87.0025,67.8078 -35.8181,36.8925 -57.324,75.3427 -65.0837,116.3625 -2.46605,13.0361 -3.00643,41.1855 -1.02861,53.5815 4.29411,26.9131 13.75521,53.9237 25.28641,72.1904 l 2.4279,3.8459 6.9997,-6.3089 c 38.2957,-34.5161 69.7653,-56.8384 114.2292,-81.0259 11.9312,-6.4903 48.932,-24.783 50.1288,-24.783 0.271,0 3.5415,-1.3979 7.2678,-3.1064 3.7262,-1.7085 10.15,-4.4221 14.275,-6.0302 4.125,-1.608 8.4,-3.3183 9.5,-3.8006 16.5906,-7.2736 69.9307,-24.8504 97.5,-32.1286 1.925,-0.5082 7.55,-1.9986 12.5,-3.312 9.4414,-2.5052 30.7475,-7.5091 45,-10.5685 2.2,-0.4723 6.25,-1.3412 9,-1.931 5.9856,-1.2838 30.5763,-5.772 39,-7.1182 3.3,-0.5274 8.7,-1.3985 12,-1.9358 6.4637,-1.0525 40.9257,-5.5681 54,-7.0757 19.3734,-2.234 50.2984,-4.5889 80,-6.092 27.1953,-1.3762 117.3948,-0.7284 140,1.0054 46.4358,3.5618 82.8669,7.6261 113.5,12.6621 4.675,0.7686 11.65,1.8921 15.5,2.4967 14.7767,2.3206 36.1068,6.5909 60,12.012 7.7,1.7471 15.575,3.5072 17.5,3.9114 6.3181,1.3266 34.2555,8.8758 46.5,12.5651 6.6,1.9887 13.35,3.9763 15,4.417 15.2443,4.0718 73.609,25.4674 89.775,32.9101 3.7263,1.7156 6.9622,3.1192 7.1908,3.1192 0.6266,0 15.411,6.9239 30.0342,14.0656 55.219,26.9683 104.3258,60.1978 142.2223,96.2387 5.8379,5.5521 10.8183,9.5485 11.2951,9.0634 0.469,-0.4772 3.7826,-6.4927 7.3636,-13.3677 z"
         id="path5024" />
      <path
         style="fill:#000000;fill-opacity:1"
         d="m 1910.3594,2121.9488 c -6.6486,-3.291 -4.4478,0.442 -33.8681,-57.4488 -28.47,-56.0207 -34.6059,-67.9221 -35.7033,-69.25 -0.8207,-0.9932 -46.461,-1.2469 -222.1604,-1.2347 -125.5289,0.01 -221.7282,0.3957 -222.5169,0.8951 -1.2265,0.7767 -6.7825,9.1991 -28.755,43.5896 -3.1626,4.95 -9.5534,14.85 -14.2017,22 -4.6484,7.15 -10.9145,16.825 -13.9247,21.5 -8.4515,13.1255 -11.3277,17.262 -14.1374,20.3319 -6.7334,7.357 -19.6624,7.6179 -27.2667,0.5502 -1.4097,-1.3101 -16.6397,-16.1071 -33.8446,-32.8821 -17.2048,-16.775 -35.2173,-34.325 -40.0277,-39 -10.1711,-9.8848 -66.2259,-64.5893 -79.5296,-77.6138 -17.7773,-17.4043 -59.014,-57.1129 -64.4233,-62.0361 -3.025,-2.7531 -8.875,-7.6636 -13,-10.9122 -20.3314,-16.0118 -39.5499,-34.8683 -61.2983,-60.144 -7.94763,-9.2366 -17.92556,-20.6189 -22.17315,-25.2939 -9.72973,-10.7088 -19.17558,-24.8755 -25.45357,-38.1749 -8.26371,-17.506 -10.94298,-27.1214 -14.02271,-50.3251 -1.09499,-8.25 -2.46447,-17.925 -3.0433,-21.5 -3.83013,-23.6559 -4.0439,-35.2689 -3.00962,-163.5 1.14028,-141.3732 1.91199,-161.3952 6.99566,-181.5 3.25588,-12.8763 4.62722,-17.6725 7.71987,-27 1.91479,-5.775 3.88726,-10.9275 4.38328,-11.45 0.49601,-0.5225 0.90184,-1.6173 0.90184,-2.433 0,-2.4368 11.78937,-25.6799 19.27151,-37.9942 41.05839,-67.5753 113.15509,-126.4291 210.22849,-171.6135 5.5,-2.5601 11.35,-5.2446 13,-5.9656 1.65,-0.721 5.25,-2.3194 8,-3.5519 20.9081,-9.3706 75.0837,-28.7193 98,-35.0004 1.65,-0.4522 6.15,-1.7293 10,-2.838 31.3845,-9.0375 68.5259,-17.5166 103.5,-23.6282 5.225,-0.913 11.525,-2.0517 14,-2.5303 2.475,-0.4787 8.325,-1.3663 13,-1.9726 4.675,-0.6063 10.975,-1.5422 14,-2.0798 21.0433,-3.7399 78.3911,-9.0224 120,-11.0535 27.8393,-1.35895 119.5679,-0.7017 140,1.0031 6.875,0.5736 18.8,1.5471 26.5,2.1633 22.8326,1.8272 32.3017,2.7464 45.5,4.4171 6.875,0.8703 15.875,2.0007 20,2.5121 4.125,0.5114 12,1.6496 17.5,2.5293 5.5,0.8798 12.925,2.0011 16.5,2.4918 3.575,0.4907 8.75,1.329 11.5,1.863 2.75,0.5339 7.7,1.4599 11,2.0578 22.6377,4.1011 61.2751,12.611 77.5,17.0692 60.8015,16.7068 99.9839,30.3422 147,51.1558 12.8211,5.6758 48.8502,24.1674 63,32.3341 100.4524,57.9773 167.6908,133.9006 189.9758,214.5144 7.9309,28.6892 9.4572,47.555 8.6565,107 -0.3445,25.575 -0.8715,82.95 -1.1711,127.5 -0.5782,85.955 -1.4177,108.2379 -4.6527,123.5 -1.1075,5.225 -2.3879,11.3 -2.8454,13.5 -1.3766,6.6206 -8.6325,29.4884 -11.8987,37.5 -1.6816,4.125 -3.0591,7.8242 -3.061,8.2204 0,0.3962 -1.0845,3.0962 -2.4058,6 -1.3214,2.9038 -3.5346,8.0792 -4.9183,11.5009 -6.8047,16.8268 -36.2228,54.48 -46.7212,59.7999 -6.2878,3.1863 -14.2037,9.7515 -169.8549,140.8742 -33.8817,28.5425 -84.1032,70.817 -111.6032,93.9434 -27.5,23.1264 -53.6,45.1701 -58,48.9859 -12.4475,10.795 -19.4312,12.9353 -28.1406,8.6241 z m 20.8254,-85.4897 c 7.8734,-7.1726 35.4652,-32.1547 61.3152,-55.516 54.8238,-49.5456 125.6396,-113.5697 214,-193.4762 34.65,-31.3348 65.774,-59.3999 69.1645,-62.3669 6.5567,-5.7376 7.8344,-7.9753 11.762,-20.6 4.0434,-12.9964 6.6368,-28.0066 7.6024,-44 1.1245,-18.6274 1.2632,-99.5 0.1705,-99.5 -0.4403,0 -3.3964,3.1555 -6.5692,7.0121 -27.1952,33.0573 -71.9389,70.0654 -118.1302,97.7071 -32.2104,19.2751 -80.4457,42.5613 -112.6697,54.3925 -33.305,12.2281 -43.4436,15.6435 -67.8303,22.8503 -52.8514,15.6188 -138.0853,32.6258 -190.5,38.0112 -16.7825,1.7243 -19.5,2.1021 -19.5,2.7108 0,0.8609 10.3633,21.3729 58.2614,115.316 31.4927,61.7671 37.1375,72.6382 38.8844,74.8849 1.0198,1.3116 1.8542,2.9834 1.8542,3.7149 0,1.1508 9.5605,20.3326 30.7463,61.6881 3.0396,5.9333 5.8858,10.6583 6.3249,10.5 0.4392,-0.1584 7.2403,-6.1563 15.1136,-13.3288 z M 1330.9656,2021.75 c 5.4775,-8.3875 13.9972,-21.55 18.9327,-29.25 9.7102,-15.1495 22.4532,-34.9285 38.4589,-59.6939 13.9627,-21.6044 33.828,-52.4011 35.6428,-55.2561 0.825,-1.2979 5.2349,-8.1401 9.7998,-15.2049 4.5649,-7.0648 14.1041,-21.8451 21.1982,-32.8451 7.0941,-11 16.6342,-25.747 21.2002,-32.7711 11.0725,-17.0333 11.3506,-17.5134 10.5886,-18.2754 -0.363,-0.363 -3.951,-1.055 -7.9734,-1.5379 -4.0224,-0.4828 -11.8134,-1.5758 -17.3134,-2.4289 -5.5,-0.853 -12.7,-1.9581 -16,-2.4558 -3.3,-0.4976 -9.825,-1.6285 -14.5,-2.5131 -4.675,-0.8846 -10.75,-2.0111 -13.5,-2.5034 -5.5715,-0.9973 -22.0571,-4.4932 -39.5,-8.376 -15.9117,-3.5421 -41.7774,-10.2446 -58.5,-15.159 -4.95,-1.4547 -10.35,-2.9973 -12,-3.4281 -15.3998,-4.0203 -70.6286,-24.0436 -87.2773,-31.6426 -2.9026,-1.3248 -5.4872,-2.4087 -5.7438,-2.4087 -0.8953,0 -21.0843,-9.2537 -34.4789,-15.8035 -45.4279,-22.2137 -85.2993,-47.6079 -121,-77.0652 -13.975,-11.5311 -46.2589,-43.7365 -54.5015,-54.3691 -3.2992,-4.2558 -6.561,-7.7433 -7.2485,-7.75 -0.98481,-0.01 -1.25,11.5154 -1.25,54.3249 0,57.1436 0.36574,63.2818 4.8424,81.2685 4.6142,18.5394 4.884,19.1243 12.5787,27.2669 3.9644,4.1951 41.1145,43.8525 82.5558,88.1275 41.4413,44.275 78.9903,84.325 83.4421,89 4.4519,4.675 14.1897,15.025 21.6396,23 7.4499,7.975 24.2941,25.975 37.4316,40 13.1374,14.025 26.164,27.9788 28.948,31.0085 2.784,3.0297 10.4382,11.2543 17.0095,18.2769 6.5712,7.0226 12.6462,13.7915 13.5,15.0421 2.9118,4.2648 19.9434,18.4885 22.3055,18.628 0.4142,0.024 5.2348,-6.818 10.7124,-15.2055 z M 1829,1971.5577 c 0,-0.2433 -4.2084,-8.6808 -9.352,-18.75 -5.1436,-10.0692 -16.6755,-32.7077 -25.6265,-50.3077 -8.951,-17.6 -21.1084,-41.45 -27.0165,-53 -5.9081,-11.55 -13.7557,-26.9625 -17.4392,-34.25 L 1742.8687,1802 H 1631.4423 1520.016 l -10.758,16.4645 c -13.1224,20.0832 -20.1137,30.8905 -22.758,35.1799 -4.3635,7.0781 -21.0485,33.1192 -23.9345,37.3556 -1.686,2.475 -3.5155,5.2646 -4.0655,6.1991 -1.1474,1.9494 -22.1341,34.3686 -37.25,57.5418 -5.6375,8.6425 -10.25,16.0613 -10.25,16.4863 0,0.4251 94.05,0.7728 209,0.7728 114.95,0 209,-0.199 209,-0.4423 z m -218.8952,-13.1928 c -11.276,-5.619 -16.5924,-19.6251 -12.5792,-33.1393 4.554,-15.3349 19.5981,-22.4532 33.165,-15.6925 12.0287,5.9942 17.3571,23.355 11.1925,36.4669 -6.4115,13.637 -19.2225,18.6217 -31.7783,12.3649 z m 0,-83 c -11.276,-5.619 -16.5924,-19.6251 -12.5792,-33.1393 4.554,-15.3349 19.5981,-22.4532 33.165,-15.6925 12.0351,5.9974 17.3004,23.2088 11.1557,36.4669 -6.3084,13.6113 -19.1791,18.6251 -31.7415,12.3649 z m 97.6116,-145.3465 c 45.3219,-2.5016 67.7203,-4.4535 104.7836,-9.1313 25.9357,-3.2733 64.3917,-9.7725 85,-14.3653 3.85,-0.858 9.1867,-1.9991 11.8594,-2.5358 7.1036,-1.4264 40.9848,-9.8645 48.6013,-12.1041 3.5966,-1.0576 8.1143,-2.3595 10.0393,-2.8932 16.3457,-4.5312 55.7856,-17.7637 72,-24.1569 72.0244,-28.3983 127.6717,-61.0313 172.9333,-101.4124 7.7362,-6.9021 14.5382,-13.4318 15.1155,-14.5107 1.5209,-2.8416 -0.6759,-5.4809 -16.7219,-20.0905 -21.5799,-19.6482 -32.7659,-28.4368 -56.3269,-44.2551 -23.6375,-15.8695 -37.0796,-23.514 -69.5,-39.5244 -56.2321,-27.7694 -119.159,-49.3316 -191,-65.4471 -6.6,-1.4805 -13.8,-3.1098 -16,-3.6207 -3.7326,-0.8668 -21.473,-4.1898 -40,-7.4924 -4.4,-0.7844 -16.1,-2.5622 -26,-3.9508 -9.9,-1.3885 -21.15,-2.9688 -25,-3.5116 -19.1112,-2.6949 -52.8883,-5.6095 -88.5,-7.6365 -22.2544,-1.2668 -38.3615,-1.4921 -73.5,-1.0282 -42.321,0.5587 -53.1472,1.0136 -86.5,3.6352 -30.1529,2.3701 -76.5309,8.0743 -97.5,11.992 -2.75,0.5138 -7.7,1.4053 -11,1.9812 -27.0069,4.7126 -80.4021,16.8069 -92.5,20.9517 -1.375,0.4711 -4.3,1.3515 -6.5,1.9564 -30.1621,8.2937 -80.9647,26.1009 -102.5,35.9281 -2.475,1.1294 -10.575,4.8275 -18,8.2179 -41.5448,18.9701 -82.6253,43.9813 -114,69.407 -14.354,11.6323 -33,29.4676 -33,31.5651 0,2.9963 28.8239,29.2397 48.5,44.1579 8.8873,6.7383 32.8457,22.9355 42,28.3944 22.8622,13.6331 56.8493,31.2684 74,38.3974 4.4,1.8289 10.3583,4.4028 13.2406,5.7198 14.2676,6.5191 53.1319,20.5742 80.7594,29.2062 12.9585,4.0489 16.8404,5.1494 32,9.0726 4.4,1.1387 9.575,2.5249 11.5,3.0805 11.7524,3.3922 59.0214,13.7187 73,15.9478 3.025,0.4824 9.5205,1.5923 14.4345,2.4666 14.3419,2.5515 26.0872,4.2304 57.0655,8.1573 53.9618,6.8404 145.4631,10.2885 197.2164,7.4319 z m 561.6731,-233.8434 c 3.6181,-5.7314 11.255,-21.2255 14.5048,-29.4279 9.8562,-24.8771 13.3359,-42.7955 13.2533,-68.2466 -0.098,-30.1289 -4.9788,-50.3133 -19.9506,-82.5005 -6.5398,-14.0598 -22.7553,-37.696 -36.6721,-53.4545 -36.4606,-41.2855 -80.4666,-73.5704 -147.5249,-108.2315 -9.1304,-4.7193 -36.3555,-17.314 -37.4266,-17.314 -0.2853,0 -3.1185,-1.1716 -6.2961,-2.6035 -3.1775,-1.4319 -6.6773,-3.0005 -7.7773,-3.4857 -17.8846,-7.8894 -73.7187,-26.8279 -97,-32.9017 -4.4,-1.1479 -9.4478,-2.5496 -11.2174,-3.1149 -1.7695,-0.5653 -9.6445,-2.6016 -17.5,-4.5252 -41.9713,-10.2778 -77.8332,-16.9665 -125.2826,-23.3669 -71.2166,-9.6063 -172.7956,-11.8619 -246.5,-5.4735 -28.3824,2.4601 -38.5556,3.533 -60.5,6.3807 -6.2259,0.8079 -15.209,2.1828 -33.75,5.1657 -3.1625,0.5087 -8.3375,1.3339 -11.5,1.8337 -4.9076,0.7756 -34.263,6.6586 -45.25,9.0684 -14.2485,3.1252 -47.6676,11.434 -52,12.9285 -1.375,0.4744 -4.3,1.3605 -6.5,1.9692 -13.2588,3.6684 -49.5214,15.5476 -65.5,21.4569 -36.3597,13.4469 -83.8125,35.8996 -113.5,53.7035 -87.0971,52.2334 -140.1924,114.8638 -154.6855,182.4648 -2.69093,12.5516 -3.69548,44.3893 -1.81423,57.5 3.15043,21.9559 10.63813,45.184 20.53133,63.692 5.587,10.4519 6.76,12.308 7.7785,12.308 0.456,0 5.8603,-4.6154 12.0095,-10.2564 28.8589,-26.4738 59.4781,-48.5457 96.7899,-69.771 13.9101,-7.913 45.0889,-23.7601 58.3905,-29.6778 3.85,-1.7128 9.7,-4.3333 13,-5.8232 17.7956,-8.0347 53.7409,-21.203 84,-30.7728 27.1675,-8.5921 61.1959,-17.4492 93,-24.2066 12.5451,-2.6654 13.3801,-2.8272 36,-6.9741 37.2424,-6.8276 88.3021,-13.0257 127.5,-15.4772 40.1692,-2.5123 55.5504,-3.0441 87,-3.0084 72.4044,0.082 128.3446,4.3458 198.5,15.1292 6.1246,0.9414 12.5338,2.0399 34,5.8274 7.0513,1.2441 36.2721,7.4404 47,9.9664 16.3305,3.8451 29.9329,7.2001 34.5,8.5092 2.475,0.7095 6.3,1.7774 8.5,2.3732 3.7537,1.0166 9.4204,2.6929 27.5,8.135 26.3781,7.94 65.2711,22.1064 90,32.7816 21.1419,9.1268 24.4042,10.6476 43.5,20.2794 54.2706,27.3734 98.0016,56.9641 133.9809,90.6584 7.1605,6.7057 13.351,12.2182 13.7566,12.25 0.4056,0.032 1.824,-1.6636 3.152,-3.7673 z"
         id="path5022" />
      <path
         style="fill:#000000;fill-opacity:1"
         d="m 1912.6373,2122.5352 c -8.0825,-2.8813 -5.3142,1.932 -54.6577,-95.0352 -8.9561,-17.6 -16.7778,-32.3312 -17.3817,-32.736 -0.6038,-0.4047 -100.9807,-0.6297 -223.0597,-0.5 l -221.9617,0.236 -3.0383,4.4448 c -1.671,2.4446 -8.5357,13.0196 -15.255,23.5 -13.3283,20.789 -24.64,38.3518 -40.612,63.0552 -11.4785,17.7535 -15.2154,21.3562 -23.07,22.2415 -9.6434,1.0869 -9.0634,1.5398 -52.8238,-41.2415 -24.3246,-23.7805 -78.7732,-76.8144 -86.1415,-83.9034 -3.3747,-3.2469 -22.3359,-21.7598 -42.1359,-41.1398 -45.6446,-44.6764 -45.5816,-44.6169 -60.5,-57.1034 -23.3719,-19.562 -28.4907,-24.1918 -42.0437,-38.0273 -7.4491,-7.6044 -18.0673,-19.2261 -23.596,-25.8261 -5.5287,-6.6 -12.98431,-15.15 -16.56805,-19 -9.80752,-10.5362 -14.43289,-16.0757 -18.647,-22.3325 -16.31242,-24.2193 -23.16227,-43.0935 -27.17979,-74.8916 -1.09626,-8.6767 -2.42394,-18.4759 -2.9504,-21.7759 -2.95536,-18.525 -3.18225,-31.6858 -2.55151,-148 0.85387,-157.4609 1.51069,-173.0713 8.45729,-201 26.3497,-105.9386 127.46706,-199.8386 281.01776,-260.9597 55.0513,-21.9132 126.5505,-42.3248 182.0614,-51.9749 4.675,-0.8127 12.325,-2.1683 17,-3.0125 4.675,-0.8441 13.225,-2.2094 19,-3.0339 5.775,-0.8245 13.875,-1.9807 18,-2.5693 4.125,-0.5886 8.8555,-1.2684 10.5123,-1.5107 25.2419,-3.6908 73.3566,-7.7035 114.4877,-9.5482 31.7853,-1.42552 102.1079,-0.592 134.5,1.5942 32.6721,2.2051 41.8052,3.071 80,7.5853 9.5075,1.1238 24.9825,3.3352 35,5.0016 6.6329,1.1034 27.1934,4.565 35,5.8926 6.2915,1.0699 16.6248,3.207 32,6.6181 6.6,1.4642 13.125,2.8923 14.5,3.1735 1.375,0.2812 9.2881,2.229 17.5848,4.3284 68.1453,17.2437 121.4276,36.3097 175.9152,62.9479 65.2717,31.9105 113.9627,65.9162 155.5,108.6012 44.4978,45.7272 71.4829,93.9986 81.8231,146.3664 0.5973,3.025 1.6128,8.2 2.2566,11.5 0.6953,3.5643 1.3593,20.6143 1.6355,42 0.6112,47.317 -1.4918,258.4133 -2.691,270.1165 -2.2117,21.5856 -13.3493,60.7579 -23.6982,83.3495 -1.3943,3.0437 -3.2547,7.3284 -4.1342,9.5216 -3.5433,8.8358 -16.8736,28.8733 -28.1043,42.2453 -3.1026,3.694 -10.5789,10.5215 -16.6142,15.1722 -6.0353,4.6506 -24.9233,20.172 -41.9733,34.4919 -53.5389,44.966 -270.1172,227.2523 -289.7997,243.9141 -22.161,18.76 -25.7748,20.5352 -35.063,17.2241 z m 74.1042,-136.1534 c 38.3672,-34.7151 84.8335,-76.7402 103.2585,-93.3892 18.425,-16.6491 42.05,-38.0072 52.5,-47.4627 59.7564,-54.0692 98.1376,-88.7343 114.5,-103.414 27.493,-24.6657 26.3929,-23.3812 29.8269,-34.8257 8.1494,-27.1594 8.2977,-28.6186 9.1725,-90.2902 0.4849,-34.1796 0.4188,-54.8729 -0.1771,-55.5 -0.6206,-0.6531 -2.1797,0.3875 -4.4946,3 -28.2933,31.9307 -44.3226,46.9525 -74.8277,70.1242 -13.6247,10.3494 -42.375,29.0609 -58.6749,38.1873 -12.4982,6.9979 -17.3228,9.5302 -33.8251,17.7543 -15.8725,7.9103 -52.8861,24.3125 -64,28.3611 -1.925,0.7012 -4.4,1.6434 -5.5,2.0938 -1.1,0.4504 -5.2625,1.98 -9.25,3.3991 -3.9875,1.4191 -10.2875,3.6802 -14,5.0246 -25.7434,9.3226 -60.586,19.2237 -95.25,27.0669 -6.325,1.4311 -13.3,3.0131 -15.5,3.5155 -4.7804,1.0918 -26.9524,5.6806 -34,7.0369 -23.8342,4.5866 -26.8813,5.1204 -51,8.934 -3.3,0.5217 -11.625,1.6526 -18.5,2.513 -6.875,0.8603 -15.7809,1.9974 -19.7908,2.5268 -4.01,0.5294 -9.3116,0.9625 -11.7814,0.9625 -3.0009,0 -4.6752,0.4811 -5.0472,1.4504 -0.4866,1.2683 13.1992,28.8826 46.1161,93.0496 5.0786,9.9 17.9066,35.1 28.5066,56 10.6001,20.9 20.059,38.9 21.0199,40 0.9608,1.1 2.078,3.125 2.4827,4.5 0.72,2.4461 22.1282,45.6453 29.4865,59.5 2.0447,3.85 4.4843,8.4912 5.4213,10.3138 0.937,1.8226 2.1234,3.1726 2.6365,3 0.5131,-0.1726 32.3242,-28.717 70.6913,-63.432 z M 1331.324,2021.75 c 18.4772,-28.7919 20.0817,-31.2749 26.8707,-41.5819 3.7429,-5.6826 6.8053,-10.5028 6.8053,-10.7117 0,-0.2089 5.1163,-8.1595 11.3695,-17.6681 6.2533,-9.5086 16.1292,-24.7133 21.9465,-33.7883 16.0923,-25.1041 32.7205,-50.912 43.1685,-67 5.1791,-7.975 13.1353,-20.35 17.6803,-27.5 4.545,-7.15 12.936,-20.1464 18.6467,-28.8808 10.8138,-16.5397 11.1148,-17.5613 5.1885,-17.6085 -3.4445,-0.027 -38.2941,-5.1774 -47,-6.9455 -2.475,-0.5026 -7.2,-1.3988 -10.5,-1.9916 -10.7219,-1.9257 -31.8992,-6.0908 -36,-7.0804 -2.2,-0.5308 -8.95,-2.1144 -15,-3.5191 -21.1039,-4.8997 -24.1403,-5.6793 -45.5,-11.6836 -142.093,-39.9429 -255.6309,-105.0452 -321.8599,-184.5538 -5.148,-6.1802 -9.6883,-11.2367 -10.08956,-11.2367 -0.87016,0 -2.0552,43.6019 -2.02481,74.5 0.0344,35.0181 1.98719,51.8059 8.51837,73.2323 2.1201,6.9553 3.3973,9.2192 8.2327,14.5934 3.1477,3.4986 59.9482,64.1672 126.2232,134.8191 151.9019,161.9338 156.4654,166.8285 159.8935,171.4952 1.5595,2.123 3.9089,4.8226 5.221,5.999 4.444,3.9849 16.1651,12.361 17.2973,12.361 0.619,0 5.5295,-6.8625 10.9122,-15.25 z M 1829,1971.3434 c 0,-0.3611 -9.3119,-18.9236 -20.6931,-41.25 -32.3021,-63.3669 -55.8539,-109.7849 -60.5291,-119.2963 l -4.2778,-8.703 -112.0567,-0.047 -112.0566,-0.047 -8.7789,13.75 c -4.8283,7.5625 -14.5887,22.75 -21.6896,33.75 -7.1009,11 -17.6815,27.425 -23.5125,36.5 -5.8309,9.075 -15.7156,24.375 -21.966,34 -16.7818,25.8423 -32.4397,50.6332 -32.4397,51.3612 0,0.3514 94.05,0.6388 209,0.6388 114.95,0 209,-0.2955 209,-0.6566 z m -217.5222,-12.2145 c -14.9586,-6.7952 -19.7988,-26.972 -10.0161,-41.7528 5.8603,-8.8544 17.763,-12.816 26.96,-8.9733 13.2602,5.5405 19.7579,23.3375 13.6324,37.3388 -2.4972,5.708 -8.3364,11.6428 -13.6324,13.8556 -4.6167,1.929 -12.1234,1.7215 -16.9439,-0.4683 z m 0,-83 c -19.4033,-8.8143 -20.3466,-39.5404 -1.5158,-49.3777 12.4464,-6.5021 25.9589,-1.1472 32.1706,12.7488 6.0945,13.6338 -0.5442,31.5957 -13.7109,37.0972 -4.6167,1.929 -12.1234,1.7215 -16.9439,-0.4683 z m 103.4954,-146.1193 c 46.7109,-2.7991 77.1682,-5.754 115.0268,-11.1598 16.486,-2.354 52.5061,-8.6027 62.5,-10.8424 2.2,-0.493 7.375,-1.6297 11.5,-2.5258 13.0966,-2.8454 44.1168,-10.5519 55,-13.6641 5.775,-1.6514 11.85,-3.3619 13.5,-3.8012 15.3358,-4.0824 50.8698,-16.2555 72,-24.6653 72.7883,-28.9699 131.7029,-64.4747 174.75,-105.3129 5.3625,-5.0874 9.75,-10.0597 9.75,-11.0498 0,-1.0024 -5.8711,-7.4397 -13.25,-14.5277 -78.6806,-75.579 -209.7922,-134.046 -362.25,-161.5391 -3.3,-0.5951 -8.25,-1.5159 -11,-2.0462 -19.4229,-3.7454 -63.94,-9.4948 -99,-12.7861 -49.9712,-4.6909 -130.2829,-5.6055 -183,-2.0838 -46.7081,3.1202 -88.3213,8.1605 -131.5,15.9274 -16.4984,2.9677 -24.8292,4.6642 -45.5,9.2652 -4.95,1.1019 -10.575,2.3512 -12.5,2.7763 -1.925,0.4251 -9.575,2.3585 -17,4.2964 -99.9056,26.0757 -183.7255,63.98 -245.9333,111.2138 -19.3591,14.6992 -45.0667,37.5876 -45.0667,40.1245 0,0.6096 5.5125,6.4676 12.25,13.0179 22.8624,22.2272 52.1523,44.2146 83.75,62.8698 3.575,2.1107 8.1486,4.8681 10.1636,6.1275 8.393,5.2458 48.5395,25.153 63.3344,31.4052 2.7489,1.1617 6.3489,2.7049 8,3.4293 25.2133,11.0625 58.0414,22.5648 101.002,35.3891 9.9229,2.9621 32.4039,8.6339 48.3762,12.2049 7.4931,1.6753 16.3238,3.6707 19.6238,4.4342 7.763,1.7961 37.1867,7.277 50.5,9.407 25.9683,4.1545 46.2439,6.7462 78.5,10.034 13.9497,1.4219 52.9925,4.0532 65,4.3807 27.7727,0.7576 96.937,0.5721 111.4732,-0.299 z M 2271.7706,1492.75 c 11.1583,-19.601 19.0002,-40.7608 23.4255,-63.2088 2.7851,-14.1282 3.0211,-44.8848 0.4514,-58.8447 -8.4339,-45.8178 -30.2544,-84.3677 -70.609,-124.7439 -28.1109,-28.1259 -61.3739,-53.1561 -98.0385,-73.7733 -2.475,-1.3917 -7.2,-4.0486 -10.5,-5.9042 -7.4872,-4.2099 -42.9269,-21.8771 -51,-25.4242 -16.2747,-7.1506 -44.6848,-18.6614 -51.5,-20.866 -1.375,-0.4448 -8.125,-2.816 -15,-5.2692 -6.875,-2.4533 -21.725,-7.229 -33,-10.6127 -11.275,-3.3837 -21.85,-6.5735 -23.5,-7.0884 -3.5552,-1.1095 -38.9717,-10.0211 -49,-12.3296 -14.8224,-3.412 -49.1445,-9.9185 -66.5,-12.6066 -3.575,-0.5537 -10.775,-1.669 -16,-2.4785 -100.7093,-15.6028 -224.795,-16.2446 -329.5,-1.7042 -3.85,0.5347 -10.375,1.4361 -14.5,2.0032 -10.6849,1.4688 -33.7775,5.5411 -52,9.1699 -29.0091,5.7769 -73.886,16.8062 -89,21.8733 -1.375,0.461 -6.55,2.0857 -11.5,3.6105 -53.1625,16.3758 -102.3807,37.1849 -146.2074,61.8155 -15.6583,8.7999 -16.6024,9.3698 -31.7926,19.1891 -43.1221,27.875 -82.9126,65.3303 -104.6635,98.521 -17.0509,26.0188 -25.7265,46.3569 -31.5328,73.9218 -2.34385,11.1273 -2.63148,14.6964 -2.61921,32.5 0.0182,26.4818 3.10041,43.0896 12.40881,66.8639 5.2041,13.2915 15.0073,32.0698 16.9067,32.3851 0.825,0.137 4.2,-2.246 7.5,-5.2955 39.2305,-36.2526 81.2655,-64.9264 133.0581,-90.7644 19.4222,-9.6893 21.1385,-10.5012 37.4419,-17.7112 44.9653,-19.8856 114.1304,-42.0931 165,-52.9781 2.475,-0.5296 9.9,-2.1246 16.5,-3.5444 13.1324,-2.8251 14.1371,-3.0189 36,-6.9416 19.1808,-3.4416 24.248,-4.2188 49,-7.5161 64.552,-8.5992 134.5622,-12.1569 199,-10.1127 62.2995,1.9764 93.569,4.5793 146.5,12.1949 20.5553,2.9574 24.3675,3.5538 34.5,5.3969 4.95,0.9005 11.25,2.0341 14,2.5192 2.75,0.4851 9.725,1.8222 15.5,2.9714 9.4165,1.8737 13.2575,2.713 27.5,6.0089 81.1599,18.781 147.663,42.0516 210.5,73.6574 53.1888,26.753 100.4293,58.9061 134,91.2041 6.325,6.0852 12.2072,11.0861 13.0717,11.1131 0.9301,0.029 3.2564,-2.9104 5.6989,-7.2009 z"
         id="path5020" />
      <path
         style="fill:#000000;fill-opacity:1"
         d="m 1914.1697,2122.9679 c -5.961,-1.3392 -9.969,-5.7517 -16.3205,-17.9679 -3.2885,-6.325 -15.8643,-30.9516 -27.9462,-54.7258 -12.0819,-23.7743 -23.4638,-46.0493 -25.2932,-49.5 l -3.3262,-6.2742 -222.3918,-0.236 c -122.3155,-0.1297 -222.8888,0.095 -223.4963,0.5 -0.6075,0.4048 -4.1139,5.461 -7.7921,11.236 -7.9745,12.5205 -11.2462,17.5892 -36.1463,56 -10.518,16.225 -20.7347,32.0353 -22.7038,35.1341 -4.694,7.3868 -12.2725,11.4778 -19.4423,10.495 -2.5464,-0.349 -5.8644,-1.4208 -7.3735,-2.3818 -1.509,-0.961 -15.2748,-13.959 -30.5906,-28.8845 -15.3158,-14.9254 -30.7719,-29.9649 -34.3469,-33.4211 -13.8012,-13.3426 -39.9916,-38.8663 -75.5172,-73.5947 -20.3405,-19.8841 -39.9078,-38.9592 -43.4828,-42.3891 -3.575,-3.4298 -12.8,-12.3657 -20.5,-19.8575 -7.7,-7.4917 -22.325,-20.5846 -32.5,-29.0953 -22.1375,-18.5165 -39.0684,-35.2657 -60.1536,-59.5078 -8.60948,-9.8985 -16.8522,-19.2478 -18.31716,-20.7761 -8.68712,-9.0629 -19.76129,-24.5875 -25.83771,-36.2212 -8.95726,-17.1493 -13.32321,-32.6326 -16.63662,-59 -1.23699,-9.8436 -2.2528,-16.7773 -4.24861,-29 -1.49714,-9.1687 -1.40112,-138.3536 0.1821,-245 0.79808,-53.7592 1.1446,-62.4244 2.91924,-73 1.10751,-6.6 2.2432,-12.9 2.52374,-14 0.28055,-1.1 1.2461,-5.15 2.14566,-9 5.87495,-25.1439 19.86189,-55.8754 37.36167,-82.0895 38.73459,-58.0232 99.59919,-108.3052 181.08789,-149.6019 24.6913,-12.5131 33.3512,-16.4209 60.4734,-27.289 55.4756,-22.2296 107.9818,-37.4625 178,-51.6407 2.75,-0.5568 7.475,-1.4025 10.5,-1.8793 3.025,-0.4768 10.675,-1.7722 17,-2.8787 66.8457,-11.6935 153.0464,-18.003 227.5,-16.6519 87.1634,1.5817 160.5527,9.5596 239.5,26.035 19.9068,4.1543 31.9957,7.0395 58,13.8424 23.2274,6.0764 62.9749,18.8637 88,28.3107 32.6329,12.3189 78.7713,33.5938 102.3935,47.2148 4.8914,2.8204 9.0309,5.1281 9.1987,5.1281 1.0583,0 37.3697,23.2826 46.7872,29.9997 55.8861,39.8604 96.8103,84.1977 122.1022,132.2855 6.0379,11.4799 15.7022,34.2906 18.309,43.2148 4.9864,17.0709 6.331,22.9577 9.3644,41 1.5455,9.1926 1.4469,148.0807 -0.1786,251.5 -0.8018,51.0135 -1.1677,59.8437 -2.8597,69 -1.0671,5.775 -2.1661,11.175 -2.4422,12 -0.2761,0.825 -1.3004,5.1 -2.2761,9.5 -2.3127,10.4287 -11.8544,38.0751 -17.0724,49.466 -1.3943,3.0437 -3.248,7.334 -4.1193,9.534 -4.7989,12.1162 -24.9796,40.667 -34.7843,49.2112 -3.2573,2.8385 -15.3724,13.0206 -26.9224,22.6267 -11.55,9.6062 -28.65,23.8984 -38,31.7606 -34.7976,29.2604 -251.796,211.9392 -272.8036,229.658 -24.9194,21.0184 -28.7495,23.1833 -37.5267,21.2114 z m 41.8489,-108.6218 c 21.7148,-19.6097 62.2064,-56.2162 89.9814,-81.3478 27.775,-25.1316 70.075,-63.371 94,-84.9764 23.925,-21.6054 50.496,-45.6364 59.0468,-53.4022 8.5507,-7.7658 29.0257,-26.2498 45.5,-41.0755 40.8199,-36.7351 39.3675,-35.1778 42.6943,-45.7786 1.5075,-4.8039 3.8798,-14.3586 5.2716,-21.2327 3.0515,-15.0705 4.4456,-44.4709 4.4709,-94.2829 0.014,-26.4447 -0.2271,-32.25 -1.3361,-32.25 -0.7438,0 -3.5563,2.8061 -6.25,6.2358 -10.8201,13.7768 -35.3173,37.5654 -59.0284,57.321 -16.0819,13.3991 -46.7245,33.9257 -73.4185,49.181 -24.3707,13.9276 -45.4774,24.2446 -78.9506,38.591 -24.4504,10.4793 -70.1176,26.3628 -95.5,33.2159 -45.9662,12.4104 -107.1444,25.3378 -146.5,30.9564 -25.9848,3.7097 -48.7455,6.4989 -53.0327,6.4989 -1.5671,0 -3.1219,0.4411 -3.4551,0.9803 -0.3333,0.5392 4.3025,10.5517 10.3017,22.25 5.9992,11.6983 18.0062,35.2197 26.6823,52.2697 8.676,17.05 20.1534,39.55 25.5053,50 5.3519,10.45 14.369,28.225 20.038,39.5 5.669,11.275 11.5176,22.3 12.9969,24.5 1.4793,2.2 3.0253,5.125 3.4357,6.5 1.4007,4.6938 36.0248,71.9734 37.0465,71.9867 0.5602,0.01 18.7852,-16.031 40.5,-35.6406 z M 1324.56,2032.75 c 1.5542,-2.3375 8.8863,-13.7 16.2936,-25.25 22.0391,-34.3649 34.7171,-54.0625 45.6978,-71 8.6734,-13.3785 23.5319,-36.4451 34.4486,-53.4788 1.375,-2.1454 5.875,-9.0813 10,-15.4129 4.125,-6.3317 11.7536,-18.1713 16.9525,-26.3102 8.8669,-13.8813 16.2158,-25.2287 32.5254,-50.2226 3.7414,-5.7335 6.8519,-11.102 6.9123,-11.93 0.086,-1.1748 -2.5249,-1.8884 -11.8902,-3.2502 -30.2513,-4.3985 -36.2606,-5.4205 -64.5338,-10.975 -44.5564,-8.7534 -84.7715,-19.2961 -127.4662,-33.4161 -89.6786,-29.6586 -167.5564,-71.2251 -226.5,-120.8921 -14.505,-12.2222 -37.1113,-34.7497 -48.2804,-48.1121 -11.03345,-13.2002 -11.81909,-13.9414 -12.92789,-12.1972 -1.11778,1.7583 -0.94433,102.727 0.1936,112.6972 1.43937,12.6113 3.87316,24.3611 7.20189,34.769 2.9316,9.1663 3.0835,9.3935 13.6979,20.5 5.9033,6.1771 38.1174,40.481 71.5868,76.231 33.4694,35.75 64.4927,68.8376 68.9408,73.5281 12.9856,13.6934 34.9567,37.0964 36.5873,38.9719 0.825,0.9489 7.575,8.1839 15,16.0778 69.2645,73.6389 86.0214,91.6569 88.9939,95.6915 4.8161,6.5371 18.8117,18.0281 22.1232,18.1642 0.8894,0.037 2.8887,-1.846 4.4429,-4.1835 z M 1829,1970.9654 c 0,-0.9417 -6.7918,-14.4011 -47.6685,-94.4654 -7.3008,-14.3 -18.7996,-36.9104 -25.5529,-50.2454 L 1743.5,1802.0092 h -112.0869 -112.087 l -5.0524,7.75 c -5.6302,8.6363 -25.2148,39.0057 -26.7737,41.5173 -0.55,0.8862 -4.825,7.5208 -9.5,14.7437 -4.675,7.2228 -9.625,14.8994 -11,17.0592 -1.375,2.1597 -5.7768,8.9899 -9.7817,15.1783 -4.0049,6.1883 -11.3287,17.5515 -16.275,25.2515 -4.9464,7.7 -12.945,20.075 -17.7748,27.5 -4.8297,7.425 -9.8052,15.1875 -11.0565,17.25 l -2.2751,3.75 h 209.5815 c 143.7315,0 209.5816,-0.3251 209.5816,-1.0346 z m -216.3845,-11.4377 c -9.3766,-3.342 -15.9467,-14.1089 -15.8824,-26.0277 0.044,-8.2279 1.7876,-12.8534 7.0396,-18.6786 8.787,-9.7459 21.6306,-10.5 31.4606,-1.8472 6.0554,5.3301 8.9432,12.1841 8.9432,21.2258 0,18.3516 -15.7259,30.9716 -31.561,25.3277 z m 0,-83 c -8.9316,-3.1834 -15.8023,-13.971 -15.9163,-24.99 -0.088,-8.4617 1.6362,-13.5011 6.513,-19.0414 9.1683,-10.4158 21.913,-11.4196 32.0211,-2.5221 6.0554,5.3301 8.9432,12.1841 8.9432,21.2258 0,18.3516 -15.7259,30.9716 -31.561,25.3277 z M 1719,1729.9733 c 33.1992,-1.7173 72.5102,-5.3162 98,-8.9719 3.575,-0.5128 10.1,-1.4485 14.5,-2.0796 19.732,-2.8298 60.6232,-10.1593 72,-12.9056 2.2,-0.5311 7.15,-1.6764 11,-2.5451 11.9482,-2.6961 23.803,-5.5877 28.5,-6.9515 2.475,-0.7187 9,-2.5124 14.5,-3.9861 36.0627,-9.6628 86.4824,-27.419 114.775,-40.4202 3.7263,-1.7123 7.0178,-3.1133 7.3144,-3.1133 0.7489,0 33.472,-16.4016 41.4106,-20.756 22.3911,-12.2816 46.0157,-27.4057 64.5,-41.2918 17.9329,-13.4719 44.5,-37.1688 44.5,-39.6925 0,-2.8712 -28.5124,-29.1917 -47.9629,-44.2757 -64.65,-50.1365 -161.1878,-93.5072 -263.5371,-118.3971 -6.05,-1.4712 -12.6458,-3.1107 -14.6573,-3.6433 -16.4166,-4.3465 -66.4732,-13.7286 -92.8427,-17.4015 -22.446,-3.1264 -25.6476,-3.5353 -39,-4.981 -37.9568,-4.1097 -53.0609,-5.0953 -102.5,-6.6888 -47.6815,-1.5368 -88.3903,-0.3136 -140,4.2066 -12.8337,1.124 -33.2591,3.3688 -45.5,5.0006 -18.1157,2.4149 -22.8255,3.0773 -28,3.9381 -3.025,0.5032 -9.775,1.6181 -15,2.4775 -5.225,0.8595 -11.525,1.9729 -14,2.4742 -2.475,0.5014 -8.55,1.649 -13.5,2.5504 -13.2657,2.4155 -38.7602,8.1074 -54,12.056 -17.9859,4.6601 -20.1805,5.2546 -31,8.3975 -30.7505,8.9328 -71.227,22.9393 -91,31.4896 -44.5049,19.2451 -74.211,34.9683 -106,56.1052 -24.5231,16.3057 -48.3883,35.4684 -63.9269,51.3305 -4.4366,4.5289 -4.818,5.2687 -3.8319,7.4329 1.4247,3.1269 27.8445,27.3228 41.1056,37.6455 57.178,44.5086 128.1529,79.6807 215.6532,106.8683 17.3234,5.3826 48.6273,13.9264 63,17.1946 2.2,0.5003 6.925,1.576 10.5,2.3905 27.1346,6.182 71.0536,14.2069 90.5,16.5361 3.85,0.4611 14.425,1.7557 23.5,2.8768 19.8426,2.4514 42.8348,4.66 64.5,6.1956 36.6896,2.6007 105.7709,3.0413 146.5,0.9345 z M 2268.2234,1499.25 c 3.9832,-4.5457 16.3521,-30.8922 20.7742,-44.25 6.9361,-20.9521 8.4065,-30.5141 8.4576,-55 0.044,-21.2052 -0.4739,-26.4778 -4.1269,-42 -13.8268,-58.7524 -60.9025,-117.1815 -133.5811,-165.7975 -23.9518,-16.0218 -43.5775,-27.2084 -72.2472,-41.1808 -95.8028,-46.6901 -208.7071,-76.5571 -336.5,-89.0154 -42.7316,-4.1658 -121.5899,-6.1985 -161,-4.1501 -37.4357,1.9459 -81.6125,5.8166 -104.5,9.1563 -3.85,0.5618 -10.375,1.4952 -14.5,2.0743 -22.5349,3.1636 -66.5036,11.1318 -76.5,13.8636 -1.65,0.4509 -5.7,1.3939 -9,2.0955 -45.2769,9.6259 -115.6666,32.4156 -156.5,50.6692 -54.4107,24.323 -94.0003,47.7634 -131.8175,78.0472 -48.6025,38.9206 -82.6357,86.6333 -94.681,132.7377 -4.35689,16.6761 -4.93482,21.8293 -4.93465,44 2.1e-4,25.3302 1.39415,34.448 8.71395,56.9981 4.2061,12.9576 18.139,42.5258 20.374,43.2374 0.6352,0.2023 6.8492,-4.83 13.8089,-11.1828 23.3083,-21.2759 46.2269,-38.4578 76.6053,-57.4306 9.7946,-6.1172 18.0032,-11.1221 18.2414,-11.1221 0.2383,0 4.7783,-2.4607 10.0889,-5.4683 44.1147,-24.9831 105.0115,-49.4789 170.1007,-68.4233 11.2861,-3.2848 50.2208,-13.0423 60,-15.0367 45.0648,-9.1906 65.2424,-12.7692 90.5,-16.0504 34.0865,-4.4283 44.1333,-5.436 90.5,-9.0775 7.7,-0.6047 38.075,-1.3411 67.5,-1.6364 63.5651,-0.6378 90.3212,0.502 146,6.2198 19.7256,2.0257 39.0354,4.5422 65,8.4711 17.0167,2.575 55.8785,10.0954 73,14.1268 83.0298,19.5501 144.665,40.9864 207,71.9933 57.4567,28.5803 103.276,59.6346 140.5,95.2248 5.5,5.2586 10.2678,9.5826 10.595,9.6089 0.3273,0.026 1.2851,-0.7396 2.1284,-1.7021 z"
         id="path5018" />
      <path
         style="fill:#000000;fill-opacity:1"
         d="m 1908.7106,2119.9317 c -2.5477,-1.6875 -5.244,-4.275 -5.9918,-5.75 -38.6863,-76.3096 -59.7952,-117.4965 -60.9542,-118.9317 -0.8021,-0.9932 -46.7964,-1.25 -223.9191,-1.25 h -222.9096 l -6.7179,10.5233 c -3.6949,5.7878 -11.218,17.4811 -16.718,25.985 -5.5,8.5039 -16.525,25.6242 -24.5,38.0452 -18.4598,28.7508 -22.6006,34.3307 -27.2461,36.7155 -4.5588,2.3402 -12.4268,2.4686 -16.6745,0.2721 -3.4549,-1.7867 -2.8158,-1.1952 -29.0992,-26.9293 -16.3837,-16.0413 -48.7049,-47.5158 -90.0979,-87.7379 -4.7398,-4.6056 -22.8891,-22.3239 -40.3318,-39.3739 -55.0569,-53.8172 -63.9987,-62.2078 -81.0505,-76.0543 -15.0621,-12.2308 -37.3307,-34.1211 -51.8829,-51.0014 -6.6644,-7.7307 -17.2921,-19.7994 -23.6171,-26.8194 -18.09655,-20.0851 -28.38219,-37.1351 -35.36627,-58.6249 -3.72806,-11.4711 -5.12281,-19.1358 -9.64447,-53 -3.70543,-27.7511 -3.81711,-35.3786 -2.672,-182.5 1.00954,-129.705 1.36534,-138.1577 6.88206,-163.5 15.45965,-71.0172 65.70478,-138.6559 143.62738,-193.3474 43.518,-30.544 93.1158,-56.3598 150.0717,-78.1127 16.2631,-6.2113 47.6631,-17.107 53.6016,-18.5996 1.65,-0.4147 6.825,-1.9534 11.5,-3.4193 4.675,-1.4659 12.55,-3.731 17.5,-5.0336 4.95,-1.3026 12.6,-3.3414 17,-4.5306 4.4,-1.1892 9.575,-2.5193 11.5,-2.9558 1.925,-0.4365 8.675,-2.0256 15,-3.5313 6.325,-1.5058 13.3,-3.0754 15.5,-3.488 2.2,-0.4126 9.85,-1.9644 17,-3.4484 7.15,-1.484 15.475,-3.0812 18.5,-3.5495 3.025,-0.4682 9.325,-1.5271 14,-2.3531 33.5032,-5.9193 76.1935,-10.8948 122,-14.219 29.307,-2.1269 121.048,-3.0659 147,-1.5047 57.1236,3.4364 62.6839,3.9104 101,8.6107 16.6379,2.0409 25.1355,3.2519 39.5,5.6289 6.6,1.0922 14.9201,2.4194 18.4891,2.9494 6.3312,0.9401 21.9887,3.8783 31.0109,5.8192 2.475,0.5325 8.1,1.7305 12.5,2.6623 8.67,1.8362 58.2367,14.0999 68,16.8246 18.2178,5.084 50.1216,15.6051 71.5,23.5791 115.3327,43.018 205.07,104.317 259.1428,177.0188 23.5108,31.6107 41.8163,71.7371 48.7953,106.9611 4.8597,24.5271 4.848,23.9687 3.7473,180.0389 -1.0155,143.9732 -1.1812,147.4102 -8.5341,177 -9.5884,38.5862 -26.7265,74.6216 -46.8457,98.5 -7.0412,8.3567 2.6524,0.095 -208.8056,177.968 -7.15,6.0144 -24.475,20.6167 -38.5,32.4496 -53.253,44.9296 -75.7436,63.7799 -83,69.5658 -4.125,3.2891 -14.25,11.7959 -22.5,18.9039 -8.25,7.1081 -16.8,13.7439 -19,14.7463 -6.2435,2.8447 -12.2977,2.4357 -17.7894,-1.2019 z m 34.7894,-93.9708 c 14.3,-12.9892 42.65,-38.6681 63,-57.0643 20.35,-18.3962 79.3,-71.6982 131,-118.4489 51.7,-46.7506 105.3401,-95.2312 119.2003,-107.7345 13.8602,-12.5033 25.911,-23.7413 26.7795,-24.9732 4.4259,-6.2779 10.3707,-31.7116 12.4441,-53.24 0.7868,-8.1687 1.4543,-71.392 1.0955,-103.75 -0.034,-3.0575 -1.6814,-1.9363 -8.0815,5.5 -32.0018,37.1827 -66.9017,66.4261 -113.9379,95.471 -7.975,4.9246 -17.875,10.8334 -22,13.1307 -11.6304,6.4772 -43.2974,22.2176 -55.5,27.5868 -6.05,2.6621 -13.25,5.843 -16,7.0687 -19.3665,8.6321 -63.3499,24.2306 -92.5,32.8045 -7.851,2.3093 -39.8935,10.5084 -49.75,12.7303 -2.3375,0.5269 -6.1625,1.389 -8.5,1.9159 -17.4683,3.937 -24.6849,5.456 -42.75,8.9982 -27.0995,5.3136 -28.935,5.6434 -47,8.4449 -16.652,2.5824 -33.1794,4.6778 -56.25,7.1314 -3.4103,0.3627 -5.7456,1.0909 -5.7391,1.7896 0.011,1.2266 1.8725,4.9687 25.4537,51.178 7.8588,15.4 20.6984,40.6 28.5326,56 34.4665,67.7525 41.345,81.0885 42.5521,82.5 0.7056,0.825 2.0871,3.525 3.07,6 1.9026,4.7907 33.0233,66.4301 35.7288,70.7663 0.4346,0.6965 1.3215,0.9389 1.971,0.5388 0.6495,-0.4001 12.8809,-11.355 27.1809,-24.3442 z m -612.1857,-3.2104 c 4.7357,-7.2878 13.0812,-20.2255 18.5455,-28.7505 10.1478,-15.8319 21.2322,-33.0427 44.1166,-68.5 7.0994,-11 17.0857,-26.525 22.1917,-34.5 5.106,-7.975 14.5696,-22.6 21.0304,-32.5 6.4607,-9.9 14.3228,-22.05 17.4713,-27 6.3119,-9.9232 19.3606,-30.0791 28.4548,-43.9533 3.2279,-4.9243 5.5107,-9.3114 5.073,-9.7491 -0.4376,-0.4376 -4.3737,-1.2801 -8.7467,-1.872 -4.373,-0.5919 -10.8759,-1.4681 -14.4509,-1.947 -3.575,-0.4789 -10.775,-1.5869 -16,-2.4623 -5.225,-0.8753 -11.975,-1.9837 -15,-2.4631 -10.0736,-1.5964 -36.9843,-7.0547 -54.5,-11.0543 -7.9108,-1.8063 -37.0741,-8.9979 -40.5,-9.9871 -1.925,-0.5558 -11.375,-3.2865 -21,-6.0681 -39.8447,-11.5152 -87.8643,-29.2286 -120.5,-44.4498 -84.5885,-39.452 -147.1667,-84.9573 -192.8609,-140.2439 -3.7502,-4.5375 -7.38032,-8.25 -8.06689,-8.25 -1.72855,0 -3.00681,85.9401 -1.56176,105 1.82468,24.0669 6.88695,46.2593 12.24555,53.6826 1.8514,2.5647 149.159,160.013 174.7853,186.8174 4.2066,4.4 14.552,15.425 22.9899,24.5 8.4379,9.075 18.9703,20.3376 23.4052,25.0281 4.435,4.6905 14.1386,15.0256 21.5636,22.9671 7.425,7.9414 20.3739,21.7145 28.7753,30.6068 8.4014,8.8922 16.5607,17.907 18.1318,20.0329 6.444,8.7195 22.3441,21.2315 24.6007,19.3586 0.6578,-0.5459 5.0707,-6.9553 9.8065,-14.243 z M 1830,1971.6805 c 0,-0.3256 -2.5637,-5.386 -29.4752,-58.1805 -20.7513,-40.7096 -40.7696,-80.0519 -49.483,-97.25 l -7.2197,-14.25 h -112.4335 -112.4335 l -5.6379,8.75 c -3.1008,4.8125 -9.0532,14.0192 -13.2275,20.4593 -4.1743,6.4401 -12.0897,18.7174 -17.5897,27.283 -12.6031,19.6278 -21.873,33.9854 -30.9959,48.0077 -3.9361,6.05 -9.8223,15.1595 -13.0803,20.2433 -3.2581,5.0838 -10.9808,17.0088 -17.1615,26.5 -6.1808,9.4912 -11.2433,17.5942 -11.25,18.0067 -0.01,0.4125 94.4877,0.75 209.9877,0.75 115.5,0 210,-0.1438 210,-0.3195 z m -216.8629,-12.0496 c -5.2068,-1.8843 -10.6677,-7.048 -13.5317,-12.7952 -3.5718,-7.1677 -3.6707,-18.006 -0.2317,-25.3913 4.0235,-8.6406 12.7898,-14.4605 21.7423,-14.4346 4.9581,0.014 13.0647,4.173 16.677,8.5552 8.3131,10.0853 8.3131,26.7847 0,36.87 -5.8634,7.1132 -16.3926,10.1862 -24.6559,7.1959 z m 0,-83 c -5.2896,-1.9142 -11.1582,-7.4802 -13.7454,-13.0365 -3.3216,-7.1334 -3.3294,-18.0387 -0.018,-25.15 4.0343,-8.6637 12.7639,-14.4444 21.813,-14.4444 8.3316,0 19.324,8.9762 21.7677,17.7753 1.4982,5.3945 1.2792,14.1829 -0.4823,19.3526 -4.2673,12.5239 -17.8019,19.6766 -29.335,15.503 z M 1726.5,1730.0408 c 50.924,-3.5021 75.1339,-6.1355 120.25,-13.0798 13.0758,-2.0126 38.7579,-6.7377 48.75,-8.9693 2.2,-0.4913 9.4,-2.0892 16,-3.5509 11.524,-2.5522 30.5217,-7.346 51.5,-12.9953 23.6701,-6.3741 51.6425,-15.8024 82,-27.6386 71.9749,-28.0625 134.4202,-66.0769 177.75,-108.2075 3.9875,-3.8771 7.25,-7.7876 7.25,-8.6899 0,-2.1063 -19.2239,-20.7358 -34.5886,-33.5191 -20.2938,-16.8844 -47.5378,-35.7671 -69.9114,-48.4553 -6.05,-3.431 -12.575,-7.1309 -14.5,-8.2221 -8.5995,-4.8745 -47.1025,-23.713 -48.4658,-23.713 -0.2287,0 -4.1593,-1.7374 -8.7346,-3.8609 -19.6288,-9.1103 -68.2299,-26.3932 -99.2131,-35.2811 -14.1766,-4.0667 -49.22,-13.1194 -57.5865,-14.8762 -2.475,-0.5197 -9.9,-2.105 -16.5,-3.523 -6.6,-1.418 -14.25,-2.9809 -17,-3.4732 -2.75,-0.4923 -8.825,-1.615 -13.5,-2.4949 -4.675,-0.8799 -10.975,-1.9915 -14,-2.4703 -17.8244,-2.821 -27.2923,-4.2331 -33.5,-4.9963 -3.85,-0.4734 -10.375,-1.3151 -14.5,-1.8706 -17.5672,-2.3657 -44.5448,-4.9031 -76.5,-7.1952 -24.4464,-1.7535 -98.7496,-2.3953 -124.8144,-1.078 -45.2815,2.2884 -86.131,6.0946 -119.4399,11.1289 -3.4399,0.5199 -9.5149,1.4337 -13.5,2.0307 -13.2234,1.9809 -31.7825,5.2489 -39.2457,6.9107 -2.2,0.4898 -6.7,1.404 -10,2.0314 -11.7914,2.242 -49.3706,10.9905 -58,13.5026 -2.75,0.8006 -12.2,3.5229 -21,6.0497 -93.5198,26.853 -179.0914,69.4204 -234.9053,116.8533 -11.8981,10.1115 -26.6898,23.9216 -27.7563,25.9143 -0.8011,1.4969 0.4675,3.2841 7.3466,10.3499 25.3957,26.0847 62.546,53.2153 107.315,78.3715 5.1776,2.9093 35.6551,18.1751 41.5,20.7868 44.652,19.9519 79.5493,32.5459 128,46.1938 15.2941,4.3081 31.778,8.3874 56.5,13.9819 18.825,4.26 57.9803,11.0947 85.5,14.9242 33.2857,4.6319 79.1653,8.6782 114.5,10.0981 25.8351,1.0383 102.6184,0.4344 123,-0.9673 z M 2270.8194,1495.75 c 7.8422,-13.88 15.3071,-30.3647 18.9063,-41.75 13.4781,-42.6359 11.5212,-83.7556 -5.9962,-126 -17.3116,-41.7479 -55.0616,-85.9715 -104.7295,-122.6889 -10.9526,-8.0968 -34.8643,-23.9151 -47.0933,-31.1536 -48.5101,-28.7137 -119.3875,-58.2739 -180.4067,-75.2403 -3.85,-1.0705 -9.475,-2.645 -12.5,-3.4988 -12.9869,-3.6656 -42.9374,-11.0355 -50.5,-12.4266 -2.2,-0.4047 -8.275,-1.6487 -13.5,-2.7646 -20.9422,-4.4724 -56.7536,-10.6609 -73.5,-12.7013 -2.75,-0.335 -11.75,-1.453 -20,-2.4842 -14.315,-1.7895 -34.0212,-3.6882 -63.5,-6.1184 -20.8661,-1.7202 -111.8886,-2.4132 -136,-1.0354 -39.4006,2.2514 -75.363,5.652 -103,9.7396 -5.775,0.8541 -13.425,1.9443 -17,2.4227 -33.6149,4.4982 -99.3168,19.0162 -134,29.6097 -36.9094,11.2735 -73.1055,24.1886 -93.5,33.3618 -2.2,0.9895 -8.275,3.6671 -13.5,5.9501 -16.3044,7.1242 -43.3736,21.1072 -66,34.0934 -8.8393,5.0732 -35.5532,23.105 -46.5,31.3874 -55.8475,42.2545 -93.1165,91.9064 -106.1142,141.3716 -9.83971,37.4467 -7.37946,75.2288 7.3045,112.1758 5.4875,13.8073 14.1805,30.8851 16.4499,32.3167 1.337,0.8433 4.0955,-1.1735 14.9991,-10.9664 29.6594,-26.6383 57.5484,-46.6957 94.3607,-67.8631 16.8434,-9.6851 66.4385,-34.4872 68.9618,-34.4872 0.2659,0 2.8583,-1.0979 5.7609,-2.4397 15.5311,-7.1799 56.5883,-22.2904 80.2773,-29.5448 41.4022,-12.6789 65.3604,-18.7258 107,-27.0062 30.5123,-6.0676 36.2885,-7.0475 70.5,-11.959 3.575,-0.5133 11,-1.4308 16.5,-2.0389 5.5,-0.6081 13.6,-1.5201 18,-2.0266 72.1767,-8.3087 168.9967,-9.0933 249.5,-2.0219 11.2168,0.9853 15.1672,1.421 41,4.5219 27.844,3.3423 66.6973,9.6467 90,14.6036 17.7203,3.7694 42.651,9.3816 48.5,10.9179 20.5356,5.3938 27.5987,7.3553 44.5,12.3582 17.1667,5.0814 51.9092,16.464 56.5,18.511 1.1,0.4904 9.2,3.6747 18,7.0762 8.8,3.4015 17.9686,7.0826 20.3748,8.1802 2.4061,1.0976 6.4561,2.8247 9,3.838 6.6575,2.6518 22.2781,10.0301 40.1252,18.953 51.973,25.9844 99.0565,58.1484 133.6282,91.2851 6.1926,5.9356 11.9266,10.792 12.7422,10.792 0.8155,0 2.8176,-2.3625 4.449,-5.25 z"
         id="path5016" />
      <path
         style="fill:#000000;fill-opacity:1"
         d="m 1911.5,2121.11 c -2.2,-1.0154 -4.9661,-2.918 -6.1468,-4.2281 -1.1808,-1.31 -9.9296,-17.6819 -19.4418,-36.3819 -9.5123,-18.7 -23.259,-45.7 -30.5483,-60 l -13.2532,-26 -223.305,-0.236 c -122.8177,-0.1297 -223.7806,0.095 -224.3619,0.5 -0.8236,0.5734 -22.9631,34.6056 -27.9765,43.0045 -0.5685,0.9523 -3.2342,5.1065 -5.924,9.2315 -2.6897,4.125 -10.2798,15.825 -16.867,26 -6.5871,10.175 -13.5348,20.8734 -15.4394,23.7743 -4.4552,6.7858 -10.1627,10.2406 -16.824,10.1838 -8.3311,-0.071 -7.3637,0.734 -54.4693,-45.3324 -15.9745,-15.622 -47.7508,-46.5625 -87.939,-85.6257 -3.1121,-3.025 -21.3054,-20.8 -40.4295,-39.5 -43.0848,-42.1293 -42.316,-41.4125 -63.5743,-59.2796 -20.4871,-17.219 -39.5441,-36.0148 -57,-56.2188 -6.875,-7.9573 -15.875,-18.1411 -20,-22.6307 -14.9231,-16.242 -21.87335,-26.3392 -29.50936,-42.8709 -7.86008,-17.0168 -10.70022,-27.9056 -14.02166,-53.7579 -6.25506,-48.6858 -5.83874,-31.7103 -4.49396,-183.2421 1.38467,-156.0275 1.45713,-157.8024 7.45221,-182.5415 11.97073,-49.3979 40.0294,-96.7319 82.07557,-138.4585 48.1057,-47.74 106.8717,-85.1802 187.9972,-119.7741 33.6441,-14.3467 91.0096,-33.0728 130.5,-42.5999 55.6186,-13.418 97.007,-20.6159 155.5,-27.0433 24.7465,-2.7192 55.28,-4.8416 89,-6.1866 32.4201,-1.2931 97.2076,-0.7546 122,1.0141 27.097,1.933 53.5686,4.0975 63,5.1513 25.0225,2.7958 41.5542,4.9488 57,7.4233 5.5,0.8812 12.925,2.052 16.5,2.6018 11.4391,1.7594 31.5404,5.5587 44.5,8.411 3.85,0.8473 9.0741,1.9584 11.6092,2.4689 10.2187,2.0581 51.4859,12.1973 56.8908,13.9779 1.375,0.453 4.525,1.3724 7,2.043 2.475,0.6707 6.3,1.795 8.5,2.4984 2.2,0.7035 7.375,2.2901 11.5,3.5258 59.3713,17.7857 123.2051,45.563 173,75.2811 90.6326,54.0903 151.0947,120.4244 176.9319,194.115 5.6929,16.2369 8.9644,30.4132 11.6751,50.5923 1.5538,11.5667 1.5906,23.0717 0.4927,154.0825 -1.1054,131.9084 -1.553,150.3549 -4.002,164.9175 -2.6633,15.8374 -9.6437,39.8504 -16.1335,55.5 -6.5392,15.7689 -9.6411,22.8964 -11.962,27.4864 -4.0788,8.0666 -15.8456,25.4701 -22.6165,33.4507 -6.1891,7.2947 -28.0961,26.6812 -69.9641,61.9142 -116.6711,98.182 -253.5256,213.1965 -274.6822,230.847 -29.9137,24.9564 -32.6109,26.3555 -42.2394,21.9117 z m 45.2936,-106.9694 c 22.3885,-20.2727 67.4814,-61.0659 100.2064,-90.6516 32.725,-29.5857 82.45,-74.5605 110.5,-99.9438 68.4804,-61.9702 101.7555,-91.9521 109.2307,-98.4202 6.0722,-5.2541 9.6335,-10.7477 11.3041,-17.4373 0.4378,-1.7532 1.672,-6.3377 2.7426,-10.1877 2.0437,-7.3494 3.5253,-15.6643 5.1676,-29 0.5419,-4.4 1.2922,-30.8375 1.6674,-58.75 0.6716,-49.9619 0.6517,-50.75 -1.2769,-50.75 -1.2605,0 -5.2681,3.9007 -11.2386,10.9389 -57.8592,68.2057 -156.5061,127.5953 -274.5969,165.319 -24.402,7.7952 -46.0546,13.672 -70.5,19.1347 -4.125,0.9218 -9.525,2.1421 -12,2.7117 -2.475,0.5696 -6.3,1.4408 -8.5,1.9359 -5.6451,1.2704 -28.0279,5.8787 -34,7.0002 -2.75,0.5164 -8.6,1.6314 -13,2.4779 -12.6782,2.4389 -17.5164,3.2971 -25,4.4347 -3.85,0.5852 -11.05,1.703 -16,2.4839 -4.95,0.7809 -12.825,1.8762 -17.5,2.4341 -4.675,0.5578 -12.3484,1.49 -17.0519,2.0716 -4.7035,0.5816 -10.3859,1.0574 -12.6276,1.0574 -5.468,0 -6.6126,1.5549 -4.4168,6 2.2462,4.5471 31.7064,62.3122 43.605,85.5 5.0801,9.9 18.3542,36 29.4978,58 11.1437,22 21.0493,40.9 22.0125,42 0.9631,1.1 2.0749,3.125 2.4707,4.5 1.1879,4.1274 36.8312,74 37.7488,74 0.4668,0 19.1666,-16.5867 41.5551,-36.8594 z m -625.1899,8.6094 c 5.3699,-8.3875 13.1186,-20.425 17.2194,-26.75 4.1008,-6.325 9.3413,-14.425 11.6455,-18 2.3043,-3.575 11.6259,-17.975 20.7148,-32 9.0889,-14.025 19.5265,-30.225 23.1947,-36 3.6682,-5.775 12.0635,-18.825 18.6564,-29 12.9227,-19.9442 29.5378,-45.6968 31.9655,-49.5449 4.2721,-6.7716 16.4774,-25.6031 24.7884,-38.2458 5.4341,-8.2665 9.1583,-14.9059 8.8343,-15.75 -0.3511,-0.9152 -1.9394,-1.4593 -4.2594,-1.4593 -2.0347,0 -6.6613,-0.4584 -10.2814,-1.0187 -3.62,-0.5603 -11.0819,-1.7001 -16.5819,-2.5328 -14.5682,-2.2059 -34.7238,-5.6704 -43.5,-7.4773 -75.866,-15.6192 -130.7758,-31.8855 -189,-55.9889 -23.2773,-9.6363 -56.9988,-25.6756 -73.5,-34.9597 -53.6415,-30.1803 -90.0954,-57.311 -124.5,-92.6586 -7.975,-8.1936 -17.8513,-19.0524 -21.9473,-24.1307 -4.096,-5.0783 -7.97466,-9.2333 -8.61917,-9.2333 -2.10566,0 -2.41138,6.8804 -2.42169,54.5 -0.011,50.7146 0.68718,62.8577 4.59588,79.9373 1.39248,6.0845 2.76728,12.2376 3.05508,13.6735 1.4563,7.2654 6.8611,13.8567 41.8837,51.0788 54.2601,57.6681 218.1901,232.5828 224.3354,239.3681 2.96,3.2683 10.0014,10.72 15.6475,16.5594 5.6461,5.8395 11.5492,12.3676 13.1181,14.5071 4.902,6.6846 20.9573,20.2861 24.0227,20.351 0.6436,0.014 5.5637,-6.8377 10.9335,-15.2252 z M 1830,1971.3821 c 0,-0.3398 -7.2553,-14.8523 -16.1228,-32.25 -8.8676,-17.3977 -25.959,-51.0158 -37.981,-74.7069 -12.022,-23.6912 -24.0485,-47.3162 -26.7257,-52.5 l -4.8674,-9.4252 -112.9969,-0.2543 -112.9968,-0.2542 -8.7304,13.7542 c -4.8018,7.5649 -14.5344,22.7543 -21.628,33.7543 -7.0937,11 -18.1193,28.1 -24.5013,38 -6.3821,9.9 -16.1816,25.0788 -21.7767,33.7308 -21.0081,32.4854 -30.7589,47.8295 -31.3142,49.2767 -0.5067,1.3204 23.6506,1.4925 209.5342,1.4925 115.5589,0 210.107,-0.2781 210.107,-0.6179 z m -216.2409,-11.805 c -10.7353,-3.8315 -16.6305,-12.6786 -16.7096,-25.0771 -0.076,-11.8673 4.474,-19.9764 13.8867,-24.75 11.627,-5.8967 24.1615,-1.0643 30.1671,11.6303 9.9261,20.9818 -7.4744,45.2884 -27.3442,38.1968 z m -2.8229,-84.3271 c -9.242,-4.6871 -13.925,-12.8425 -13.925,-24.25 0,-11.4075 4.683,-19.5629 13.925,-24.25 11.627,-5.8967 24.1615,-1.0643 30.1671,11.6303 8.5205,18.0106 -2.8972,39.3511 -21.174,39.5758 -1.9918,0.024 -5.9683,-1.1721 -8.9931,-2.7061 z m 111.1174,-144.7327 c 48.5954,-2.707 103.694,-8.8656 138.4464,-15.4747 2.75,-0.523 7.925,-1.4626 11.5,-2.0879 7.2945,-1.2759 28.3842,-5.5218 34.5,-6.9456 2.2,-0.5122 8.05,-1.8703 13,-3.018 16.4965,-3.8247 21.9217,-5.1889 32.5,-8.172 5.775,-1.6285 12.975,-3.6223 16,-4.4307 19.1789,-5.1251 48.5064,-15.127 78,-26.6012 52.0777,-20.2603 103.2568,-48.247 141,-77.1042 22.5473,-17.239 43,-35.9578 43,-39.3547 0,-4.203 -25.3473,-27.9013 -50,-46.747 -30.3817,-23.2253 -74.2361,-48.8642 -113,-66.064 -4.675,-2.0743 -10.975,-4.8877 -14,-6.252 -19.9308,-8.9889 -66.1468,-25.2904 -97,-34.2141 -23.81,-6.8866 -26.2403,-7.5535 -36,-9.8787 -4.675,-1.1139 -10.525,-2.5399 -13,-3.169 -21.0765,-5.3575 -60.8031,-13.045 -88.2192,-17.0712 -16.2145,-2.3812 -28.6979,-4.0704 -36.2808,-4.9092 -23.8157,-2.6345 -39.5576,-4.1243 -53,-5.0159 -8.25,-0.5472 -21.525,-1.441 -29.5,-1.9862 -18.7516,-1.282 -102.0056,-1.3097 -122.5948,-0.041 -34.5634,2.1302 -46.4257,3.1002 -74.4052,6.0845 -28.9008,3.0825 -58.0569,7.5909 -93.5,14.4581 -13.6363,2.642 -14.3846,2.8051 -32,6.9734 -131.4303,31.0997 -236.6653,81.59 -304.25,145.9746 -6.1875,5.8946 -11.25,11.1912 -11.25,11.7703 0,3.1897 21.8157,23.9276 42,39.925 26.0259,20.6272 59.8829,41.8296 94,58.8661 13.4828,6.7326 28.7883,13.9678 29.548,13.9678 0.221,0 3.2257,1.2924 6.677,2.872 22.3671,10.237 70.3363,27.5749 97.275,35.1589 21.1622,5.9577 48.2169,13.0174 57.5,15.004 2.475,0.5297 7.425,1.632 11,2.4497 25.5666,5.8473 65.9431,12.964 91,16.0395 6.875,0.8439 15.875,1.9684 20,2.499 23.099,2.9713 59.8196,5.9808 84.5852,6.9324 34.6869,1.3329 98.6536,1.1113 126.4684,-0.4382 z m 553.7306,-243.3166 c 6.1791,-12.0147 12.081,-25.6288 14.1762,-32.7007 3.127,-10.5549 4.1674,-14.5276 5.5001,-21 6.4678,-31.4144 3.6187,-65.9417 -8.0134,-97.1081 -23.3637,-62.5996 -81.2376,-121.0523 -167.9471,-169.6268 -13.5989,-7.6181 -56.2831,-28.7651 -58.061,-28.7651 -0.2139,0 -3.3365,-1.35 -6.939,-3 -3.6025,-1.65 -6.7885,-3 -7.0799,-3 -0.2914,0 -2.4176,-0.8575 -4.725,-1.9055 -6.435,-2.9229 -30.1293,-11.9074 -40.1951,-15.2414 -4.95,-1.6395 -11.925,-4.016 -15.5,-5.2811 -3.575,-1.2651 -10.55,-3.5357 -15.5,-5.0459 -4.95,-1.5102 -10.125,-3.132 -11.5,-3.604 -1.375,-0.472 -10.6,-3.0532 -20.5,-5.7361 -19.4803,-5.2791 -34.7491,-9.0099 -55.5,-13.5609 -10.9648,-2.4048 -29.6265,-6.0318 -39.5,-7.6772 -3.85,-0.6415 -10.375,-1.7488 -14.5,-2.4605 -10.0182,-1.7285 -19.1519,-3.0882 -33,-4.9127 -35.996,-4.7423 -40.5779,-5.1733 -92,-8.6543 -21.4724,-1.4536 -109.7821,-1.4761 -131,-0.033 -30.6587,2.0846 -47.9202,3.6031 -70.5,6.2018 -13.8458,1.5936 -31.4561,3.9073 -37,4.8614 -2.75,0.4732 -8.375,1.3812 -12.5,2.0178 -14.5335,2.2427 -36.0116,6.1684 -46.5,8.4991 -3.3,0.7334 -8.7,1.8894 -12,2.5689 -42.2526,8.7009 -114.1553,30.5363 -145,44.0337 -1.1,0.4813 -4.475,1.8227 -7.5,2.9807 -5.8424,2.2367 -7.0872,2.7779 -19.2719,8.3777 -4.2746,1.9646 -8.0061,3.5719 -8.2923,3.5719 -2.2333,0 -44.0468,21.9986 -60.4358,31.796 -80.5113,48.1301 -132.2946,105.3409 -151.3498,167.2129 -10.17116,33.0258 -9.8623,70.3462 0.8689,104.9911 5.2174,16.844 18.7331,45.1153 22.2052,46.4477 0.8005,0.3072 4.8411,-2.7425 9.7096,-7.3284 36.5183,-34.3979 82.3662,-65.3296 136.0661,-91.798 15.4057,-7.5934 22.117,-10.6968 37.75,-17.456 3.9875,-1.724 8.6368,-3.7342 10.3317,-4.467 14.6807,-6.3473 67.1119,-24.7552 80.9183,-28.4092 1.65,-0.4367 9.3,-2.5912 17,-4.7877 24.5083,-6.9914 57.3704,-14.7753 85,-20.1335 19.17,-3.7176 28.8473,-5.3677 47,-8.0139 3.85,-0.5612 9.925,-1.457 13.5,-1.9908 6.1589,-0.9194 22.1889,-2.8811 41,-5.0174 56.2877,-6.3922 138.1831,-8.4822 198.5,-5.0657 48.312,2.7365 108.4333,9.2243 139,14.9997 2.75,0.5196 9.275,1.6698 14.5,2.5559 9.8068,1.6633 11.6277,2.021 28.5,5.5994 5.5,1.1665 11.8,2.4508 14,2.8539 3.9835,0.7299 8.9308,1.9049 36.5,8.6686 33.4223,8.1997 86.0678,25.0395 116.062,37.1249 4.0909,1.6484 9.238,3.6982 11.438,4.5552 3.693,1.4385 16.7311,7.0598 27.5,11.8565 13.7281,6.1148 41.6356,20.3336 59.5,30.3153 38.9356,21.7551 75.6548,48.8285 108.2775,79.8339 6.9209,6.5777 7.3685,6.8344 9.1333,5.2373 1.0206,-0.9236 4.5636,-6.9447 7.8734,-13.38 z"
         id="path5014" />
      <path
         style="fill:#000000;fill-opacity:1"
         d="m 1914.3431,2122.0034 c -6.0059,-1.3559 -9.3187,-5.1894 -16.5374,-19.1369 -3.805,-7.3516 -16.2991,-31.8165 -27.7647,-54.3665 -11.4657,-22.55 -22.4016,-43.925 -24.302,-47.5 l -3.4554,-6.5 -224.0073,-0.2522 -224.0074,-0.2522 -11.8845,18.5059 c -6.5364,10.1782 -14.8663,23.1167 -18.5108,28.7522 -11.5821,17.9094 -35.033,54.1237 -37.2433,57.5134 -2.3439,3.5946 -10.5673,8.2361 -14.5766,8.2273 -1.4046,0 -4.2799,-0.4849 -6.3897,-1.0707 -3.7776,-1.049 -7.7081,-4.6355 -42.6578,-38.9237 -4.7652,-4.675 -20.0534,-19.525 -33.9739,-33 -13.9205,-13.475 -30.5896,-29.675 -37.0426,-36 -11.6073,-11.3771 -54.4008,-53.1383 -82.8036,-80.8061 -8.0774,-7.8683 -16.7111,-16.1911 -19.1861,-18.495 -13.9408,-12.9774 -20.1625,-18.4672 -28.8297,-25.4383 -13.7269,-11.0406 -34.3269,-31.3278 -49.5123,-48.7606 -7.1865,-8.25 -13.34199,-15.225 -13.67892,-15.5 -1.3729,-1.1205 -17.9294,-19.8902 -22.16873,-25.1321 -9.13589,-11.2964 -17.91811,-28.0874 -23.46276,-44.859 -4.15633,-12.5722 -5.3523,-19.394 -10.43293,-59.5089 -2.50664,-19.7915 -2.74162,-36.7616 -1.88318,-136 1.25221,-144.7603 1.73338,-175.1802 2.87092,-181.5 0.54449,-3.025 1.72777,-9.775 2.62952,-15 0.90174,-5.225 2.0271,-10.85 2.50079,-12.5 2.62249,-9.1349 9.39208,-30.1434 9.98918,-31 0.38338,-0.55 1.52974,-3.25 2.54747,-6 4.74801,-12.8296 19.33726,-38.7778 30.84334,-54.8576 49.7618,-69.5422 134.4845,-129.0763 244.5873,-171.8697 14.9162,-5.7975 44.2819,-16.143 50.5,-17.7912 1.65,-0.4374 6.825,-2.004 11.5,-3.4815 4.675,-1.4775 9.85,-3.067 11.5,-3.5323 11.7644,-3.3177 24.2296,-6.6091 38,-10.0337 8.8,-2.1886 17.575,-4.4089 19.5,-4.9341 4.0051,-1.0927 29.4155,-6.3771 43,-8.9425 16.8076,-3.174 27.8752,-5.0119 42.5,-7.0574 4.4,-0.6154 10.7,-1.5316 14,-2.036 3.3,-0.5044 12.075,-1.6076 19.5,-2.4516 7.425,-0.8439 15.075,-1.7715 17,-2.0612 1.925,-0.2896 8.9,-0.9884 15.5,-1.5527 75.6886,-6.4714 152.8855,-7.09731 219.5,-1.7797 7.425,0.5927 18.225,1.4551 24,1.9164 5.775,0.4613 16.575,1.5652 24,2.4531 7.425,0.8878 17.1,2.031 21.5,2.5404 4.4,0.5095 12.5,1.6349 18,2.5011 5.5,0.8662 12.925,1.9771 16.5,2.4688 3.575,0.4917 10.325,1.6231 15,2.5142 4.675,0.8911 10.975,2.0209 14,2.5105 6.2719,1.0151 39.3163,7.9191 48,10.0287 1.925,0.4676 5.525,1.2995 8,1.8487 33.5275,7.4392 98.0789,27.3991 123.5,38.1875 1.1,0.4668 6.5,2.6231 12,4.7917 9.4146,3.7122 20.5911,8.4 31.9969,13.4206 8.1375,3.5819 46.99,23.312 54.2748,27.5618 3.7006,2.1588 8.9783,5.2222 11.7283,6.8076 9.8012,5.6504 11.8714,6.9497 26.8452,16.8488 80.7448,53.3795 134.1774,117.3439 155.4372,186.0749 5.5052,17.7977 6.9361,24.3551 9.144,41.9064 1.9869,15.7949 2.0301,27.9126 0.593,166.5 -1.3519,130.3692 -1.5951,141.2571 -3.3725,151 -1.9657,10.775 -5.5638,26.5548 -7.0686,31 -0.4655,1.375 -1.4341,4.525 -2.1525,7 -2.2104,7.6152 -11.8438,31.9224 -16.836,42.4807 -5.2934,11.1956 -15.5054,27.1472 -22.7856,35.5923 -10.3742,12.0343 -38.9154,37.5033 -91.8042,81.9219 -19.25,16.1671 -40.4,33.9469 -47,39.5105 -6.6,5.5637 -29.1,24.4762 -50,42.0279 -20.9,17.5517 -59.4027,49.9244 -85.5615,71.9394 -26.1589,22.015 -53.0942,44.5273 -59.8564,50.0273 -6.7621,5.5 -13.0344,10.7153 -13.9384,11.5895 -5.8818,5.6879 -23.0643,19.3896 -25.5952,20.4101 -4.4598,1.7983 -8.6268,2.3117 -12.2054,1.5038 z m 5.5836,-74.2534 c 2.0595,-1.7875 22.3811,-20.1408 45.159,-40.785 43.6495,-39.5609 138.6174,-125.4561 214.9019,-194.3715 25.0181,-22.6014 50.4431,-45.5992 56.5,-51.1061 6.0568,-5.5069 17.3124,-15.6227 25.0124,-22.4796 23.2721,-20.724 23.635,-21.1506 26.8071,-31.5078 8.5369,-27.8731 9.6484,-39.5072 9.6734,-101.25 0.02,-49.2048 -0.036,-49.9638 -3.51,-47.4847 -0.5662,0.4041 -4.4625,4.7847 -8.6586,9.7347 -47.4422,55.9667 -119.8886,105.1137 -210.3119,142.6738 -11.9083,4.9465 -26.8585,10.6102 -35.5,13.4488 -2.475,0.813 -5.4,1.9121 -6.5,2.4424 -3.339,1.6099 -37.1498,12.4747 -48.5,15.5851 -13.8476,3.7948 -20.838,5.6259 -25,6.5487 -2.475,0.5488 -6.1875,1.4036 -8.25,1.8995 -12.9002,3.1019 -34.3621,7.9559 -40.25,9.1033 -11.4108,2.2236 -13.4157,2.6313 -22.5,4.5756 -5.225,1.1183 -12.425,2.5586 -16,3.2007 -3.575,0.6422 -9.65,1.7656 -13.5,2.4966 -10.634,2.019 -26.6345,4.4493 -45.5,6.9108 -21.6455,2.8243 -28.6062,3.6147 -31.8333,3.6147 -1.8675,0 -3.4593,0.5989 -3.7745,1.4202 -0.2997,0.7811 5.0597,12.3686 11.9098,25.75 15.2581,29.8062 33.3336,65.3292 58.6843,115.3298 10.5964,20.9 20.7294,40.7 22.5176,44 1.7882,3.3 11.9035,23.1 22.4783,44 10.5749,20.9 19.4315,38.3375 19.6814,38.75 0.8558,1.4124 2.5212,0.7477 6.2631,-2.5 z m -595.7448,-12.9743 c 2.1188,-2.9471 8.9702,-13.584 35.7532,-55.5071 8.7725,-13.7315 23.5263,-36.4592 31.9585,-49.2309 1.9835,-3.0043 4.0564,-6.2469 4.6064,-7.2059 1.8652,-3.2519 21.8148,-34.2413 34.3327,-53.3318 11.6215,-17.7236 24.363,-37.4731 26.6673,-41.335 0.55,-0.9218 3.5875,-5.5874 6.75,-10.368 3.1625,-4.7807 5.75,-8.9597 5.75,-9.2867 0,-0.3271 0.4783,-1.1382 1.0628,-1.8025 0.5846,-0.6643 3.4168,-4.8078 6.2938,-9.2078 2.8771,-4.4 6.9127,-10.4332 8.9682,-13.4072 2.0554,-2.9739 3.5743,-5.8989 3.3754,-6.5 -0.199,-0.601 -2.8004,-1.387 -5.781,-1.7466 -2.9805,-0.3596 -10.3692,-1.4034 -16.4192,-2.3195 -6.05,-0.916 -13.7,-2.0506 -17,-2.5211 -3.3,-0.4706 -9.825,-1.5831 -14.5,-2.4724 -4.675,-0.8893 -10.75,-1.9888 -13.5,-2.4433 -16.778,-2.7729 -66.4743,-13.9482 -82.5,-18.5518 -2.475,-0.711 -6.525,-1.8501 -9,-2.5314 -2.475,-0.6813 -5.625,-1.6005 -7,-2.0427 -1.375,-0.4422 -5.2,-1.5785 -8.5,-2.525 -8.914,-2.5569 -21.0342,-6.3267 -29.5,-9.1755 -15.7691,-5.3065 -27.6317,-9.4201 -31,-10.7498 -1.925,-0.76 -8.9,-3.4803 -15.5,-6.0452 -6.6,-2.5649 -14.3748,-5.7446 -17.2773,-7.066 -2.9026,-1.3214 -5.4872,-2.4025 -5.7438,-2.4025 -0.9701,0 -21.1563,-9.3244 -36.7574,-16.9789 -42.5362,-20.8701 -79.0726,-43.6658 -111.2215,-69.3932 -5.5,-4.4014 -10.5007,-8.4808 -11.1127,-9.0652 -0.612,-0.5845 -5.7336,-5.1127 -11.3814,-10.0627 -11.067,-9.6996 -33.6477,-33.5275 -42.219,-44.5508 -5.34234,-6.8706 -7.52922,-8.6597 -8.84001,-7.232 -0.39527,0.4305 -0.94273,21.9328 -1.21656,47.7828 -0.64442,60.8325 0.92219,80.1679 8.30487,102.5 2.7048,8.1819 4.4661,10.529 19.8993,26.5179 14.412,14.9309 9.5214,9.739 78.6363,83.4821 98.5782,105.1795 158.7716,169.4771 163.8293,175 2.7702,3.025 10.8294,11.6357 17.9092,19.1348 7.0798,7.4992 13.6765,14.9242 14.6592,16.5 0.9827,1.5759 3.3043,4.2813 5.1591,6.0122 5.3469,4.9895 16.8447,13.353 18.3573,13.353 0.7584,0 2.4221,-1.4509 3.697,-3.2243 z m 491.9877,-92.0257 c -33.2674,-65.2184 -46.0966,-90.4492 -58.4767,-115.0042 l -12.9847,-25.7543 -113.5327,0.2543 -113.5328,0.2542 -11.2263,17.5 c -24.6077,38.3595 -38.0353,59.3103 -40.4164,63.061 -3.5333,5.5655 -27.3007,42.2143 -34.6415,53.4163 -3.3779,5.1545 -6.3039,9.7433 -6.5022,10.1973 -0.1984,0.454 -2.8589,4.6504 -5.9123,9.3254 -3.0533,4.675 -6.5766,10.1875 -7.8293,12.25 l -2.2778,3.75 h 211.1265 211.1264 z m -202.4216,16.8232 c -9.9095,-3.5363 -15.5901,-11.4466 -16.4577,-22.9172 -1.2614,-16.6796 8.7234,-29.2029 23.2097,-29.1105 9.5403,0.061 16.6509,5.1739 21.2913,15.3099 2.0917,4.5687 2.388,6.43 1.9911,12.5061 -0.5641,8.6372 -2.9323,13.6784 -9.0934,19.3575 -6.473,5.9666 -13.3542,7.5617 -20.941,4.8542 z m 1.016,-82.5132 c -11.083,-3.5629 -17.8233,-13.8212 -17.7201,-26.9689 0.077,-9.8261 4.5596,-18.0165 12.3626,-22.589 11.2878,-6.6146 24.3774,-2.5406 31.157,9.6973 2.6069,4.7056 2.9352,6.2547 2.9245,13.8006 -0.01,6.8214 -0.4463,9.3165 -2.2114,12.6345 -2.5981,4.8839 -7.3244,9.8218 -11.4365,11.9482 -3.6521,1.8886 -11.4269,2.6504 -15.0761,1.4773 z M 1725,1730.9597 c 31.678,-2.0981 63.3246,-5.0207 75.6153,-6.9832 3.3634,-0.5371 7.7166,-0.9765 9.6737,-0.9765 1.9571,0 5.7303,-0.4297 8.3847,-0.9548 2.6545,-0.5252 8.8763,-1.4777 13.8263,-2.1168 11.0903,-1.4318 30.242,-4.7514 57.5,-9.9667 2.475,-0.4735 7.65,-1.5672 11.5,-2.4304 3.85,-0.8632 9.025,-1.9802 11.5,-2.4822 4.7745,-0.9685 44.0632,-11.0462 52.5,-13.4665 29.7348,-8.5303 71.6855,-23.0198 90,-31.0855 1.65,-0.7266 7.05,-2.9996 12,-5.0511 38.0053,-15.751 86.392,-43.3019 119,-67.7573 18.6222,-13.9663 44.5,-37.6174 44.5,-40.671 0,-1.9694 -19.4783,-21.2044 -32.5,-32.0941 -42.8778,-35.8574 -95.5033,-66.6852 -155.5,-91.0911 -5.225,-2.1254 -10.4,-4.2672 -11.5,-4.7594 -5.5991,-2.5054 -39.1121,-14.4632 -45,-16.0565 -1.65,-0.4465 -6.6,-2.0359 -11,-3.532 -4.4,-1.4961 -9.35,-3.0859 -11,-3.533 -1.65,-0.447 -5.475,-1.5405 -8.5,-2.4299 -3.025,-0.8894 -7.975,-2.2794 -11,-3.0889 -3.025,-0.8094 -7.75,-2.1323 -10.5,-2.9397 -5.6667,-1.6637 -42.8831,-10.588 -52,-12.4694 -18.1255,-3.7404 -25.4843,-5.1621 -36,-6.955 -18.4006,-3.1373 -24.0154,-4.0369 -34,-5.4469 -6.05,-0.8545 -12.8,-1.8303 -15,-2.1687 -2.2,-0.3383 -7.6,-0.9867 -12,-1.4409 -4.4,-0.4542 -11.6,-1.2752 -16,-1.8245 -43.992,-5.4922 -135.0492,-8.6574 -181,-6.2916 -36.0247,1.8547 -66.068,4.2637 -88.5,7.0961 -4.125,0.5208 -11.55,1.4306 -16.5,2.0217 -9.7673,1.1663 -15.3792,1.9916 -34.5,5.0741 -6.875,1.1083 -14.075,2.2432 -16,2.5221 -1.925,0.2789 -5.3,0.9079 -7.5,1.3979 -2.2,0.4899 -8.05,1.6275 -13,2.528 -4.95,0.9004 -12.6,2.4516 -17,3.4471 -4.4,0.9954 -10.7,2.3796 -14,3.0759 -3.3,0.6963 -9.375,2.1391 -13.5,3.2062 -4.125,1.0671 -9.075,2.3005 -11,2.7409 -15.3481,3.5113 -62.3911,17.6895 -77.9394,23.49 -1.9583,0.7306 -6.9356,2.5289 -11.0606,3.9963 -4.125,1.4674 -8.4,3.0361 -9.5,3.4859 -1.1,0.4499 -8.975,3.6347 -17.5,7.0772 -49.2186,19.8755 -94.1766,44.6495 -131.5,72.4629 -21.9309,16.3429 -47.5,39.3991 -47.5,42.8318 0,2.3405 15.3216,18.0513 29.003,29.7398 33.9128,28.9729 83.1929,59.4998 128.997,79.9081 6.325,2.8182 13.0334,5.8262 14.9076,6.6846 15.8871,7.2764 40.3926,16.4634 69.0924,25.9025 10.725,3.5274 21.075,6.9351 23,7.5726 1.925,0.6376 4.9625,1.5379 6.75,2.0007 3.398,0.8798 5.8192,1.5519 15.75,4.3721 3.3,0.9371 7.575,2.0655 9.5,2.5075 1.925,0.442 8,1.9818 13.5,3.422 5.5,1.4401 11.8,3.011 14,3.4908 2.2,0.4799 7.15,1.5882 11,2.463 3.85,0.8748 11.5,2.4872 17,3.5831 5.5,1.096 12.025,2.4082 14.5,2.9161 2.475,0.5079 7.2,1.3971 10.5,1.9761 3.3,0.579 9.6449,1.7408 14.0998,2.5818 4.4549,0.8409 9.4881,1.529 11.1849,1.529 1.6968,0 4.1889,0.4197 5.5379,0.9326 1.3491,0.5129 6.8909,1.4556 12.3151,2.0948 5.4243,0.6393 13.0123,1.5354 16.8623,1.9914 3.85,0.456 11.05,1.3081 16,1.8936 24.9182,2.9472 55.2212,5.2924 90.5,7.004 22.2572,1.0798 97.3687,0.476 119,-0.9567 z M 2271.3173,1496.25 c 6.511,-10.8136 16.6063,-32.7108 18.787,-40.75 0.4476,-1.65 1.5409,-5.475 2.4297,-8.5 2.7547,-9.3762 4.2729,-17.3597 5.9735,-31.4128 3.5683,-29.4865 -2.6347,-63.9807 -16.9196,-94.0872 -30.1932,-63.6343 -94.3789,-121.7465 -184.3786,-166.932 -13.0738,-6.5639 -34.0864,-16.568 -34.7994,-16.568 -0.2208,0 -3.8112,-1.575 -7.9787,-3.5 -4.1675,-1.925 -7.9102,-3.5 -8.3171,-3.5 -0.4069,0 -3.0718,-1.125 -5.922,-2.5 -2.8503,-1.375 -5.522,-2.5009 -5.9372,-2.502 -0.4152,0 -6.4236,-2.2132 -13.352,-4.9159 -6.9285,-2.7026 -14.8035,-5.588 -17.5,-6.4121 -2.6966,-0.824 -8.7279,-2.8232 -13.4029,-4.4425 -11.0799,-3.838 -22.3386,-7.4243 -33.5,-10.6712 -4.95,-1.4399 -10.35,-3.0365 -12,-3.548 -3.0556,-0.9472 -39.9471,-10.3002 -44.5,-11.282 -1.375,-0.2965 -5.65,-1.271 -9.5,-2.1655 -3.85,-0.8945 -9.025,-2.0279 -11.5,-2.5188 -2.475,-0.4909 -8.1,-1.6104 -12.5,-2.4879 -4.4,-0.8775 -10.475,-2.019 -13.5,-2.5366 -3.025,-0.5176 -9.55,-1.6667 -14.5,-2.5536 -4.95,-0.8868 -11.7,-1.9988 -15,-2.4711 -3.3,-0.4723 -10.725,-1.5785 -16.5,-2.4583 -19.5244,-2.9744 -48.4994,-6.1687 -68,-7.4967 -7.975,-0.543 -19.1645,-1.443 -24.8655,-2 -17.4807,-1.7077 -103.9704,-2.5002 -127.6345,-1.1695 -33.7263,1.8966 -46.873,2.96 -76,6.1478 -24.3414,2.6641 -35.6556,4.1443 -49.5,6.4761 -5.225,0.88 -12.2,2.003 -15.5,2.4954 -8.9807,1.3402 -24.1125,4.1524 -35.5,6.5974 -4.125,0.8857 -9.3,1.9671 -11.5,2.4031 -2.2,0.4361 -6.25,1.264 -9,1.8398 -6.0041,1.2573 -47.7462,11.8422 -52,13.186 -1.65,0.5213 -8.4,2.5831 -15,4.5818 -15.8185,4.7903 -39.4967,12.6295 -49.767,16.4763 -21.3485,7.9962 -18.9378,7.0393 -37.733,14.9785 -104.066,43.9585 -181.8127,105.6219 -216.7982,171.9495 -8.5685,16.2446 -15.8282,35.5326 -18.25474,48.5 -0.5146,2.75 -1.34813,7.025 -1.8523,9.5 -0.50417,2.475 -1.41861,10.35 -2.03209,17.5 -1.46087,17.0262 0.62425,38.4083 5.46093,56 0.9074,3.3 1.9953,7.35 2.4178,9 1.5344,5.9929 9.4516,25.0439 14.2996,34.4088 5.2152,10.0741 7.3514,13.1167 9.164,13.0522 0.6022,-0.021 3.795,-2.5147 7.095,-5.5407 10.6278,-9.7452 25.8112,-22.8788 33,-28.5449 38.0605,-29.9987 90.2979,-60.3076 140.5,-81.5203 5.775,-2.4402 11.4,-4.8225 12.5,-5.294 1.1,-0.4714 3.575,-1.5333 5.5,-2.3596 11.8576,-5.0899 58.0169,-21.1277 76.5,-26.5794 19.3462,-5.7064 24.4712,-7.0967 44.5,-12.0719 4.675,-1.1613 10.075,-2.5192 12,-3.0177 7.3806,-1.911 28.719,-6.5835 37.25,-8.1566 2.6125,-0.4817 6.8875,-1.2794 9.5,-1.7726 33.9037,-6.4004 45.9044,-8.22 89.75,-13.6087 46.6693,-5.7358 127.7698,-9.2847 171.5,-7.5048 44.0156,1.7916 62.9272,2.7801 75,3.9206 6.325,0.5975 16.675,1.5718 23,2.165 6.325,0.5933 14.425,1.4785 18,1.9672 3.575,0.4886 10.325,1.3518 15,1.9181 4.675,0.5663 13.225,1.7247 19,2.5744 5.775,0.8496 13.425,1.9664 17,2.4816 3.575,0.5153 10.325,1.6384 15,2.4957 4.675,0.8574 10.975,1.9739 14,2.4812 4.8796,0.8183 12.4704,2.3132 31,6.1051 3.025,0.619 7.75,1.69 10.5,2.3801 2.75,0.69 7.7,1.8377 11,2.5504 10.8084,2.3342 37.9551,9.435 51.5,13.4708 3.025,0.9013 6.85,2.0233 8.5,2.4933 8.446,2.4058 12.4951,3.6882 30,9.5018 10.45,3.4706 22.15,7.5119 26,8.9806 3.85,1.4688 8.125,3.0364 9.5,3.4837 3.9664,1.2903 13.8543,5.1792 20,7.866 1.375,0.6011 7.225,3.0954 13,5.5429 72.2906,30.6369 134.8444,69.9148 179.4763,112.6941 6.2762,6.0157 12.0789,10.9376 12.8951,10.9376 0.8161,0 3.0418,-2.5875 4.9459,-5.75 z"
         id="path5012" />
    </g>
  </g>
</svg>
