<?xml version="1.0" encoding="UTF-8" standalone="no"?>
<!-- Created with Inkscape (http://www.inkscape.org/) -->

<svg
   version="1.1"
   id="svg16"
   width="499"
   height="499"
   viewBox="0 0 499 499"
   sodipodi:docname="new svg uuu.svg"
   inkscape:version="1.2.2 (732a01da63, 2022-12-09)"
   xmlns:inkscape="http://www.inkscape.org/namespaces/inkscape"
   xmlns:sodipodi="http://sodipodi.sourceforge.net/DTD/sodipodi-0.dtd"
   xmlns="http://www.w3.org/2000/svg"
   xmlns:svg="http://www.w3.org/2000/svg">
  <defs
     id="defs20" />
  <sodipodi:namedview
     id="namedview18"
     pagecolor="#ffffff"
     bordercolor="#000000"
     borderopacity="0.25"
     inkscape:showpageshadow="2"
     inkscape:pageopacity="0.0"
     inkscape:pagecheckerboard="0"
     inkscape:deskcolor="#d1d1d1"
     showgrid="false"
     inkscape:zoom="1.511022"
     inkscape:cx="129.71353"
     inkscape:cy="249.83091"
     inkscape:window-width="1920"
     inkscape:window-height="986"
     inkscape:window-x="-11"
     inkscape:window-y="-11"
     inkscape:window-maximized="1"
     inkscape:current-layer="g22" />
  <g
     inkscape:groupmode="layer"
     inkscape:label="Image"
     id="g22">
    <g
       id="g184"
       transform="matrix(4.8384412,0,0,2.1806046,-1030.7314,-159.33403)"
       style="fill:#000000">
      <path
         style="fill:#000000;fill-opacity:1"
         d="m 254.61804,288.35121 -9.5,-6.54488 -5.25,-3.92097 -5.25,-3.92097 V 186.56821 99.172038 l 1.57143,-1.57143 1.57143,-1.57143 h 27.22857 27.22857 l 1.2,1.2 1.2,1.2 v 88.675232 88.67524 l -14.85827,9.62476 -14.85826,9.62477 -0.39174,-0.0666 -0.39173,-0.0665 -9.5,-6.54488 z m 23.75,-10.89118 11.25,-7.57998 v -8.42543 -8.42544 h -2 -2 v 6.35582 6.35582 l -9.02525,6.64418 -9.02525,6.64418 h -1.05661 -1.0566 l -9.88467,-5.75 -9.88466,-5.75 -0.0335,-7.25 -0.0335,-7.25 h -2.5 -2.5 l 0.0128,8.25 0.0127,8.25 12.23725,7.68029 12.23725,7.68029 1,0.0751 1,0.0751 11.25,-7.57997 z m -3.33848,-7.61081 8.08848,-6.17996 0.22552,-0.1289 0.22553,-0.12889 -0.61482,-5.19115 -0.61481,-5.19114 h -16.86071 -16.86071 v 6.27395 6.27396 l 8.69472,5.22604 8.69472,5.22605 h 0.46679 0.4668 z m -29.41152,-95.32004 v -69.5 h -2.5 -2.5 v 69.5 69.5 h 2.5 2.5 z m 38,0 v -69.5 h -17.5 -17.5 v 69.5 69.5 h 17.5 17.5 z m -20,55.78056 -1.5,-0.54154 -1.75,-1.5245 -1.75,-1.5245 v -3.19002 -3.19002 l 2.01291,-1.82166 2.0129,-1.82165 h 3.14293 3.14292 l 1.84417,2.27745 1.84417,2.27745 v 2.27843 2.27843 l -1.75,2.02389 -1.75,2.02389 -2,0.49794 -2,0.49795 z m -1.98339,-27.5737 -2.4834,-1.24937 -0.98358,-2.79682 -0.98359,-2.79682 1.49882,-2.68192 1.49883,-2.68193 4.12439,-0.30292 4.12438,-0.30291 1.59377,2.27542 1.59377,2.27542 v 2.16671 2.16671 l -1.75,2.02389 -1.75,2.02389 -2,0.56501 -2,0.56501 z m -1.8423,-27.02131 -2.17431,-2.31445 v -2.68555 -2.68555 l 2,-2 2,-2 h 2.82569 2.82568 l 2.17432,2.31445 2.17431,2.31445 v 2.51124 2.51123 l -2.31445,2.17432 -2.31445,2.17431 h -2.51124 -2.51123 z m 0,-28 -2.17431,-2.31445 v -2.51124 -2.51123 l 2.31445,-2.17432 2.31445,-2.17431 h 2.51124 2.51123 l 2.17432,2.31445 2.17431,2.31445 v 2.51124 2.51123 l -2.31445,2.17432 -2.31445,2.17431 h -2.51124 -2.51123 z m 1.46055,-22.75813 -2.63486,-2.07258 v -2.92742 -2.92742 l 2,-2 2,-2 h 2.92742 2.92742 l 2.07258,2.63486 2.07258,2.63486 v 1.91059 1.9106 l -2.45455,2.45454 -2.45454,2.45455 h -1.9106 -1.91059 z m 28.36514,49.57258 v -69.5 h -2 -2 v 69.5 69.5 h 2 2 z"
         id="path198" />
      <path
         style="fill:#000000;fill-opacity:1"
         d="m 251.53796,285.93802 -13.3851,-9.01985 -1.76741,-1.59948 -1.76741,-1.59949 V 186.44562 99.172038 l 1.57143,-1.57143 1.57143,-1.57143 h 26.49431 26.49431 l 1.93426,1.03518 1.93426,1.03519 v 88.853122 88.85313 l -13.66584,8.86169 -13.66585,8.86169 -1.18164,0.71434 -1.18165,0.71434 z m 27.00004,-8.53145 11.08004,-7.62262 v -8.37738 -8.37739 h -2 -2 v 6.35582 6.35582 l -9.02525,6.64418 -9.02525,6.64418 h -1.01078 -1.01078 l -9.92265,-5.75 -9.92266,-5.75 -0.0413,-7.25 -0.0413,-7.25 h -2.5 -2.5 l 0.003,8.25 0.003,8.25 12.24732,7.7192 12.24731,7.71921 1.16996,0.0308 1.16996,0.0308 11.08004,-7.62261 z m -4.79742,-6.48605 6.37746,-5.10867 1.85514,-1.30913 1.85515,-1.30913 -0.69898,-5.08221 -0.69899,-5.0822 h -17.45388 -17.45387 l 0.29771,6.18241 0.29772,6.18242 8.5,5.24255 8.5,5.24256 1.12254,0.075 1.12254,0.075 6.37746,-5.10866 z m -28.12254,-96.39134 v -69.5 h -2.5 -2.5 v 69.5 69.5 h 2.5 2.5 z m 38,0 v -69.5 h -17.5 -17.5 v 69.5 69.5 h 17.5 17.5 z m -23.34501,53.67126 -1.65499,-1.82874 v -2.44875 -2.44876 l 1.5567,-2.2225 1.55671,-2.22251 h 3.37187 3.37186 l 1.56993,1.56993 1.56993,1.56992 0.61174,2.43736 0.61173,2.43736 -1.63329,2.49272 -1.63329,2.49271 h -3.82196 -3.82195 z m 1.66038,-25.18756 -2.18463,-0.87089 -1.06537,-1.99066 -1.06537,-1.99067 v -2.06574 -2.06574 l 2,-2 2,-2 h 3 3 l 2,2 2,2 v 2.38922 2.38921 l -1.75,2.02389 -1.75,2.02389 -2,0.51419 -2,0.51419 z m -1.68051,-27.05628 -2.63486,-2.07258 v -2.75311 -2.7531 l 2.31445,-2.17432 2.31445,-2.17431 h 2.61297 2.61297 l 2.07258,2.63486 2.07258,2.63486 v 1.91059 1.9106 l -2.45455,2.45454 -2.45454,2.45455 h -1.9106 -1.91059 z m 0,-28 -2.63486,-2.07258 v -2.85484 -2.85484 l 2.63486,-2.07258 2.63486,-2.07258 h 1.91059 1.9106 l 2.45454,2.45455 2.45455,2.45454 v 2.09091 2.09091 l -2.45455,2.45454 -2.45454,2.45455 h -1.9106 -1.91059 z m 1,-23 -2.63486,-2.07258 v -2.92742 -2.92742 l 2,-2 2,-2 h 2.92742 2.92742 l 2.07258,2.63486 2.07258,2.63486 v 1.91059 1.9106 l -2.45455,2.45454 -2.45454,2.45455 h -1.9106 -1.91059 z m 28.36514,49.57258 v -69.5 h -2 -2 v 69.5 69.5 h 2 2 z"
         id="path196" />
      <path
         style="fill:#000000;fill-opacity:1"
         d="m 251.53796,285.93802 -13.3851,-9.01985 -1.76741,-1.59948 -1.76741,-1.59949 0.0153,-87.09501 0.0153,-87.095012 0.80336,-1.26563 0.80337,-1.26564 28.93132,0.26564 28.93135,0.26563 0.25535,89.104512 0.25535,89.10452 -13.67635,8.89548 -13.67635,8.89549 -1.17649,0.71434 -1.17649,0.71434 z m 27.05472,-8.4802 11.02536,-7.57136 v -8.42864 -8.42864 h -2 -2 v 6.40283 6.40283 l -8.64649,6.18477 -8.64648,6.18476 -1.2333,0.47326 -1.23329,0.47326 -9.87022,-5.84619 -9.87022,-5.84619 -0.29381,-7.21466 -0.29381,-7.21467 h -2.45619 -2.45619 v 8.34964 8.34965 l 12.25,7.60849 12.25,7.60848 1.22464,0.0419 1.22463,0.0419 11.02537,-7.57136 z m -2.72882,-8.0197 7.74582,-5.90894 -0.009,-3 -0.009,-3 -0.60298,-2.25 -0.60297,-2.25 h -17.43109 -17.43108 l 0.29771,6.18241 0.29772,6.18242 8.5,5.26844 8.5,5.26844 1.5,-0.29192 1.5,-0.29191 7.74582,-5.90894 z m -30.24582,-94.90894 v -69.5 h -2.5 -2.5 v 69.5 69.5 h 2.5 2.5 z m 38,0 v -69.5 h -18 -18 v 69.5 69.5 h 18 18 z m -23.4433,53.27749 -1.5567,-2.2225 v -2.05499 -2.05499 l 1.5567,-2.2225 1.55671,-2.22251 3.19329,0.0153 3.1933,0.0153 1.1003,0.73468 1.10029,0.73469 1.20511,2.28777 1.2051,2.28778 -0.62091,1.9563 -0.62091,1.95631 -1.50592,1.50592 -1.50592,1.50592 h -3.37186 -3.37187 l -1.55671,-2.22251 z m -1,-27 -1.5567,-2.2225 v -2.2775 -2.27749 l 2,-2 2,-2 h 3 3 l 2,2 2,2 v 2.27749 2.2775 l -1.5567,2.2225 -1.55671,2.22251 h -3.88659 -3.88659 z m 0.89785,-25.23204 -2.45455,-2.45454 v -1.9106 -1.91059 l 2.07258,-2.63486 2.07258,-2.63486 h 2.47287 2.47288 l 2.45454,2.45455 2.45455,2.45454 v 2.09091 2.09091 l -2.45455,2.45454 -2.45454,2.45455 h -2.09091 -2.09091 z m 0,-28 -2.45455,-2.45454 v -2.09091 -2.09091 l 2.45455,-2.45454 2.45454,-2.45455 h 2.09091 2.09091 l 2.45454,2.45455 2.45455,2.45454 v 2.09091 2.09091 l -2.45455,2.45454 -2.45454,2.45455 h -2.09091 -2.09091 z m 1.18031,-22.61803 -2.63486,-2.07258 v -2.92742 -2.92742 l 2,-2 2,-2 h 2.92742 2.92742 l 2.07258,2.63486 2.07258,2.63486 v 1.91059 1.9106 l -2.45455,2.45454 -2.45454,2.45455 h -1.9106 -1.91059 z m 28.36514,49.57258 v -69.5 h -2 -2 v 69.5 69.5 h 2 2 z"
         id="path194" />
      <path
         style="fill:#000000;fill-opacity:1"
         d="m 253.49084,287.22835 -11.37808,-7.69917 -3.74736,-2.86869 -3.74736,-2.86869 0.0137,-86.13131 0.0137,-86.13131 0.60688,-2.264912 0.60687,-2.26492 29.12947,0.26492 29.12938,0.26491 0.25535,89.092282 0.25534,89.09228 -9.75534,6.21895 -9.75535,6.21895 -5.12456,3.38794 -5.12455,3.38794 z m 25.21595,-9.76067 10.91125,-7.56151 v -8.27183 -8.27183 l -0.59777,-0.59776 -0.59776,-0.59777 -1.40224,0.53809 -1.40223,0.53809 v 6.29584 6.29584 l -8.64649,6.18477 -8.64648,6.18476 -1.26308,0.48469 -1.26307,0.48469 -9.84044,-5.98617 -9.84044,-5.98616 -0.29381,-7.08612 -0.29381,-7.08612 h -2.45619 -2.45619 v 8.40196 8.40195 l 12.25,7.56808 12.25,7.56809 1.33875,0.03 1.33875,0.03 10.91125,-7.5615 z m -2.84293,-8.02956 7.74582,-5.90894 0.004,-5.25 0.004,-5.25 h -18.04772 -18.04771 l 0.29771,6.20995 0.29772,6.20995 8.5,5.27958 8.5,5.27958 1.5,-0.33059 1.5,-0.33059 7.74582,-5.90894 z m 13.75418,-94.96796 v -69.44098 h -2 -2 v 69.41667 69.41666 l 1.25,0.44839 1.25,0.44839 0.75,-0.42407 0.75,-0.42407 z m -44,0.059 v -69.5 h -2.5 -2.5 v 69.5 69.5 h 2.5 2.5 z m 38,0 v -69.5 h -18 -18 v 69.5 69.5 h 18 18 z m -23.4433,53.27749 -1.5567,-2.2225 v -2.2775 -2.27749 l 2,-2 2,-2 2.75,0.0153 2.75,0.0153 1.1003,0.73468 1.10029,0.73469 1.20511,2.28777 1.2051,2.28778 -0.62091,1.9563 -0.62091,1.95631 -1.50592,1.50592 -1.50592,1.50592 h -3.37186 -3.37187 l -1.55671,-2.22251 z m -1,-27 -1.5567,-2.2225 v -2.2775 -2.27749 l 2,-2 2,-2 h 2.80887 2.80887 l 1.89113,1.38283 1.89113,1.38283 v 3.52372 3.52372 l -1.32244,1.59345 -1.32245,1.59345 h -3.82085 -3.82085 z m 0.89785,-25.23202 -2.45455,-2.45454 v -2.09091 -2.09091 l 2.45455,-2.45454 2.45454,-2.45455 h 2.09091 2.09091 l 2.45454,2.45455 2.45455,2.45454 v 2.09091 2.09091 l -2.45455,2.45454 -2.45454,2.45455 h -2.09091 -2.09091 z m 0,-28 -2.45455,-2.45454 v -2.09091 -2.09091 l 2.45455,-2.45454 2.45454,-2.45455 h 2.09091 2.09091 l 2.45454,2.45455 2.45455,2.45454 v 2.09091 2.09091 l -2.45455,2.45454 -2.45454,2.45455 h -2.09091 -2.09091 z m 3.54545,-21.26489 -1.5,-0.54154 -1.75,-1.5245 -1.75,-1.5245 v -2.84501 -2.84501 l 2,-2 2,-2 h 2.54545 2.54546 l 2.55032,2.55032 2.55033,2.55033 -0.66159,2.69967 -0.66158,2.69968 -1.18419,1.14268 -1.1842,1.14267 -2,0.51838 -2,0.51837 z"
         id="path192" />
      <path
         style="fill:#000000;fill-opacity:1"
         d="m 249.75246,284.63415 -13.36558,-9.36096 -0.86911,-1.372 -0.8691,-1.37201 -0.002,-85.5 -0.002,-85.5 0.60298,-2.250002 0.60297,-2.25 h 28.77638 28.77638 l 0.60699,1.58179 0.60699,1.581782 -0.0318,87.66822 -0.0318,87.66821 -13.62848,8.91931 -13.62848,8.91932 -2.08971,0.31365 -2.08971,0.31365 -13.36558,-9.36096 z m 24.73838,-4.10497 7.30896,-5 3.94755,-2.78411 3.94756,-2.78412 -0.28843,-8.71588 -0.28844,-8.71589 h -1.5 -1.5 l -0.5,6.74309 -0.5,6.74309 -8.94221,6.50691 -8.94221,6.50691 h -0.76128 -0.76128 l -10.04651,-6.06912 -10.04651,-6.06912 v -6.93088 -6.93088 h -3.13592 -3.13593 l 0.63593,4.63957 0.63592,4.63957 v 3.76787 3.76787 l 12.75,7.99663 12.75,7.99663 0.53192,-0.15407 0.53192,-0.15407 z m 1.13055,-10.74832 7.99665,-6.24832 v -5.25168 -5.25168 h -18.04772 -18.04771 l 0.29771,6.20995 0.29772,6.20995 8.5,5.25219 8.5,5.2522 1.25335,0.0378 1.25335,0.0379 7.99665,-6.24832 z m 13.99665,-94.75168 v -70 h -2 -2 v 69.41667 69.41666 l 1.25,0.50439 1.25,0.50439 0.75,0.0789 0.75,0.0789 v -70 z m -44,-0.5 v -69.5 h -2.5 -2.5 v 69.5 69.5 h 2.5 2.5 z m 38,0 v -69.5 h -18 -18 v 69.5 69.5 h 18 18 z m -23.4433,53.27749 -1.5567,-2.2225 v -2.2775 -2.27749 l 2,-2 2,-2 2.75,0.0153 2.75,0.0153 1.1003,0.73468 1.10029,0.73469 1.20511,2.28777 1.2051,2.28778 -0.62091,1.9563 -0.62091,1.95631 -1.50592,1.50592 -1.50592,1.50592 h -3.37186 -3.37187 l -1.55671,-2.22251 z m -0.31187,-26.02749 -1.00005,-1.25 -0.64786,-2.11792 -0.64785,-2.11792 0.99009,-2.60415 0.9901,-2.60415 2.53537,-0.63634 2.53537,-0.63634 2.37341,0.59569 2.37341,0.59569 1.21033,2.92199 1.21033,2.92199 -1.23344,2.34073 -1.23345,2.34073 -1.10029,0.73469 -1.1003,0.73468 -3.12756,0.0153 -3.12755,0.0153 -1.00006,-1.25 z m 0.20972,-26.20455 -2.45455,-2.45454 v -2.09091 -2.09091 l 2.45455,-2.45454 2.45454,-2.45455 h 2.09091 2.09091 l 2.45454,2.45455 2.45455,2.45454 v 2.09091 2.09091 l -2.45455,2.45454 -2.45454,2.45455 h -2.09091 -2.09091 z m 0,-28 -2.45455,-2.45454 v -2.09091 -2.09091 l 2.45455,-2.45454 2.45454,-2.45455 h 2.09091 2.09091 l 2.45454,2.45455 2.45455,2.45454 v 2.09091 2.09091 l -2.45455,2.45454 -2.45454,2.45455 h -2.09091 -2.09091 z m 2.86082,-21.56175 -2.18463,-0.87089 -1.06537,-1.99066 -1.06537,-1.99067 v -1.87718 -1.87718 l 2.03896,-2.18856 2.03895,-2.18856 h 2.35026 2.35026 l 2.27745,1.84417 2.27745,1.84417 v 3.20345 3.20345 l -1.41666,1.34506 -1.41667,1.34505 -2,0.53462 -2,0.53462 z"
         id="path190" />
      <path
         style="fill:#000000;fill-opacity:1"
         d="m 251.61804,285.90679 -11.5,-7.99762 -2.68285,-2.38788 -2.68286,-2.38788 -0.0947,-85.41445 -0.0947,-85.41444 1.00284,-2.637672 1.00284,-2.63767 h 28.41776 28.41776 l 0.60699,1.58179 0.60699,1.581782 -0.0158,87.66822 -0.0158,87.66821 -14.34655,9.25 -14.34654,9.25 -1.38762,-0.0624 -1.38762,-0.0624 -11.5,-7.99762 z m 26.1607,-7.63885 11.3393,-7.76123 0.28859,-9.31952 0.2886,-9.31952 -1.7886,0.33995 -1.78859,0.33995 -0.5,6.68455 -0.5,6.68455 -9.25882,6.66121 -9.25882,6.66122 -10.24118,-5.97301 -10.24118,-5.97301 -0.29381,-7.13195 -0.29381,-7.13195 h -2.95619 -2.95619 v 8.02102 8.02101 l 8.22488,5.22899 8.22488,5.22898 5.02512,3.14825 5.02512,3.14826 0.1607,0.10174 0.16069,0.10175 z m -2.19736,-8.39335 8.03666,-6.1546 v -5.3454 -5.34541 h -18 -18 l 0.0314,6.25 0.0314,6.25 8.71857,5.23948 8.71858,5.23949 1.21334,0.0105 1.21333,0.0105 8.03667,-6.15459 z m 14.03666,-94.67874 v -69.83334 l -0.59777,-0.59776 -0.59776,-0.59777 -1.40224,0.53809 -1.40223,0.53809 v 69.22634 69.22635 l 0.66667,0.66666 0.66666,0.66667 h 1.33334 1.33333 z m -44,-0.66667 v -69.5 h -3 -3 v 69.5 69.5 h 3 3 z m 38,0 v -69.5 h -18 -18 v 69.5 69.5 h 18 18 z m -23,53.5 -2,-2 v -2.5 -2.5 l 2,-2 2,-2 h 2.84501 2.84501 l 1.53671,1.75 1.53671,1.75 0.6358,2.09287 0.63579,2.09287 -2.09009,2.65713 -2.0901,2.65713 h -2.92742 -2.92742 z m -0.36306,-26.50592 -1.50592,-1.50592 -0.62091,-1.95631 -0.62091,-1.9563 1.2051,-2.28778 1.20511,-2.28777 1.10029,-0.73469 1.1003,-0.73468 2.67742,-0.0153 2.67742,-0.0153 2.07258,2.63486 2.07258,2.63486 v 1.23028 1.23028 l -2.07258,2.63486 -2.07258,2.63486 h -2.85599 -2.85599 l -1.50592,-1.50592 z m 1.60493,-24.52825 -2.25812,-0.90739 -1.15239,-2.52922 -1.15239,-2.52922 1.14579,-2.51473 1.14578,-2.51473 2.51473,-1.14578 2.51473,-1.14579 2.52008,1.14822 2.52008,1.14823 0.95517,2.51229 0.95517,2.51229 -0.95732,2.51793 -0.95731,2.51794 -2.58304,0.98206 -2.58303,0.98207 -0.1849,-0.0634 -0.1849,-0.0634 -2.25813,-0.9074 z m 0,-28 -2.25812,-0.90739 -1.15239,-2.52922 -1.15239,-2.52922 1.14579,-2.51473 1.14578,-2.51473 2.51473,-1.14578 2.51473,-1.14579 2.52008,1.14822 2.52008,1.14823 0.95517,2.51229 0.95517,2.51229 -0.95732,2.51793 -0.95731,2.51794 -2.58304,0.98206 -2.58303,0.98207 -0.1849,-0.0634 -0.1849,-0.0634 -2.25813,-0.9074 z m -1.68517,-25.18834 -1.5567,-2.2225 v -2.10318 -2.10318 l 2.31445,-2.17432 2.31445,-2.17431 h 1.75129 1.75129 l 1.98213,1.0608 1.98213,1.0608 0.95227,2.50468 0.95228,2.50467 -1.14985,2.18452 -1.14985,2.18453 -1.10029,0.73469 -1.1003,0.73468 -3.1933,0.0153 -3.19329,0.0153 -1.55671,-2.22251 z"
         id="path188" />
      <path
         style="fill:#000000;fill-opacity:1"
         d="m 251.57254,285.53744 -12.4545,-8.49174 -1.75546,-1.37249 -1.75546,-1.3725 0.25546,-88.38576 0.25546,-88.385772 28.43117,-0.26588 28.43117,-0.26588 0.80352,1.26588 0.80351,1.26588 -0.0294,88.000002 -0.0294,88 -14.30015,9.25 -14.30015,9.25 h -0.9506 -0.95059 l -12.45449,-8.49174 z m 26.5455,-7.34504 11,-7.7418 0.28753,-9.21071 0.28752,-9.21071 h -2.03752 -2.03753 l -8.3e-4,6.75 -8.3e-4,6.75 -9.5294,6.79034 -9.52939,6.79033 -0.71978,-0.38163 -0.71977,-0.38163 -9.75,-5.75601 -9.75,-5.75601 v -6.90269 -6.9027 h -3.04044 -3.04044 l 0.29044,8.25 0.29044,8.25 13,8.20192 13,8.20193 0.5,5.8e-4 0.5,5.9e-4 z m -2.44923,-8.32499 7.94923,-6.16178 v -5.33822 -5.33823 h -18 -18 l 0.0203,6.25 0.0203,6.25 8.72847,5.25 8.72846,5.25 h 1.30199 1.30199 l 7.94924,-6.16177 z m -29.81423,-94.43419 0.26346,-69.59597 -0.61309,-0.99153 -0.61309,-0.99152 -2.38691,0.33749 -2.38691,0.33749 -0.25887,69 -0.25887,69 0.47748,1.25 0.47749,1.25 h 2.51793 2.51792 z m 37.26346,-0.90404 v -70 h -17.5 -17.5 l -0.25887,69 -0.25887,69 0.48658,1.27371 0.48659,1.27371 17.27228,-0.27371 17.27229,-0.27371 z m -22.5,53.5 -2,-2 v -2.31144 -2.31144 l 2.03896,-2.18856 2.03895,-2.18856 h 2.80606 2.80605 l 1.77999,1.96686 1.77999,1.96687 v 2.56627 2.56627 l -1.77999,1.96687 -1.77999,1.96686 h -2.84501 -2.84501 z m -0.92742,-27.63486 -2.07258,-2.63486 v -1.23028 -1.23028 l 2.07258,-2.63486 2.07258,-2.63486 h 2.77243 2.77243 l 1.53671,1.75 1.53671,1.75 0.6358,2.09287 0.63579,2.09287 -2.09009,2.65713 -2.0901,2.65713 h -2.85484 -2.85484 z m 2.16929,-23.39931 -2.25812,-0.90739 -1.15239,-2.52922 -1.15239,-2.52922 1.14579,-2.51473 1.14578,-2.51473 2.51473,-1.14578 2.51473,-1.14579 2.52008,1.14822 2.52008,1.14823 0.95517,2.51229 0.95517,2.51229 -0.95732,2.51793 -0.95731,2.51794 -2.58304,0.98206 -2.58303,0.98207 -0.1849,-0.0634 -0.1849,-0.0634 -2.25813,-0.9074 z m 0,-28 -2.25812,-0.90739 -1.15239,-2.52922 -1.15239,-2.52922 1.14579,-2.51473 1.14578,-2.51473 2.29308,-1.04479 2.29307,-1.04479 2.73959,1.04158 2.73959,1.04159 0.95731,2.51794 0.95732,2.51793 -0.95732,2.51793 -0.95731,2.51794 -2.58304,0.98206 -2.58303,0.98207 -0.1849,-0.0634 -0.1849,-0.0634 -2.25813,-0.9074 z m -1.79594,-25.40801 -1.60018,-2.44219 0.32712,-2.20749 0.32713,-2.20749 2.74799,-2.04407 2.74799,-2.04408 2.74968,0.96701 2.74969,0.96702 1.29773,2.70763 1.29774,2.70763 -1.19512,2.2691 -1.19511,2.26911 -1.10029,0.73469 -1.1003,0.73468 -3.22695,0.0153 -3.22694,0.0153 -1.60018,-2.44218 z m 29.31082,51.2058 -0.25675,-70.23637 -1.75,-0.33695 -1.75,-0.33695 v 70.57333 70.57332 h 2.00675 2.00676 z"
         id="path186" />
    </g>
  </g>
</svg>
