<?xml version="1.0" encoding="UTF-8" standalone="no"?>
<!-- Created with Inkscape (http://www.inkscape.org/) -->

<svg
   version="1.1"
   id="svg5038"
   width="3464"
   height="3464"
   viewBox="0 0 3464 3464"
   sodipodi:docname="25 00000000.svg"
   inkscape:version="1.2.2 (732a01da63, 2022-12-09)"
   xmlns:inkscape="http://www.inkscape.org/namespaces/inkscape"
   xmlns:sodipodi="http://sodipodi.sourceforge.net/DTD/sodipodi-0.dtd"
   xmlns="http://www.w3.org/2000/svg"
   xmlns:svg="http://www.w3.org/2000/svg">
  <defs
     id="defs5042" />
  <sodipodi:namedview
     id="namedview5040"
     pagecolor="#ffffff"
     bordercolor="#000000"
     borderopacity="0.25"
     inkscape:showpageshadow="2"
     inkscape:pageopacity="0.0"
     inkscape:pagecheckerboard="0"
     inkscape:deskcolor="#d1d1d1"
     showgrid="false"
     inkscape:zoom="0.2289261"
     inkscape:cx="1729.8159"
     inkscape:cy="1736.3682"
     inkscape:window-width="1920"
     inkscape:window-height="986"
     inkscape:window-x="-11"
     inkscape:window-y="-11"
     inkscape:window-maximized="1"
     inkscape:current-layer="g5044" />
  <g
     inkscape:groupmode="layer"
     inkscape:label="Image"
     id="g5044">
    <g
       id="g5048"
       transform="matrix(1.6771462,0,0,1.2800942,-1178.2926,-905.86497)"
       style="fill:#000000">
      <path
         style="fill:#000000;fill-opacity:1"
         d="m 1662.7237,2967.75 c -0.9122,-0.6875 -2.4607,-3.05 -3.4411,-5.25 -1.6951,-3.8036 -1.8071,-20.1725 -2.2826,-333.4516 l -0.5,-329.4516 -13,-1.723 c -59.1344,-7.8375 -122.7975,-26.0182 -178,-50.8326 -22.8226,-10.2592 -56.8425,-28.3591 -78.2801,-41.6482 -10.7506,-6.6642 -39.9357,-27.0421 -51.0756,-35.6624 -75.44,-58.3773 -136.8595,-132.808 -177.6065,-215.2306 -9.8051,-19.8336 -20.0649,-42.9692 -25.2773,-57 -2.9125,-7.8398 -11.5313,-33.0515 -12.3068,-36 -0.434,-1.65 -2.1799,-7.725 -3.8798,-13.5 -1.6998,-5.775 -3.7863,-13.425 -4.6365,-17 -4.0139,-16.8776 -5.3696,-22.9862 -6.436,-29 -0.634,-3.575 -1.5346,-8.525 -2.0014,-11 -2.1653,-11.4808 -3.0499,-17.5373 -5.9153,-40.5 -1.9916,-15.9602 -2.5652,-30.6708 -2.5735,-66 -0.01,-31.2224 1.3076,-62.6805 2.8215,-67.5 0.2591,-0.825 1.0115,-6.225 1.6719,-12 0.6605,-5.775 1.8505,-14.1 2.6446,-18.5 0.7941,-4.4 2.1006,-11.825 2.9034,-16.5 1.3009,-7.5761 3.818,-18.8848 6.4547,-29 0.5018,-1.925 1.5738,-6.2 2.3822,-9.5 13.5618,-55.3595 45.328,-126.3043 80.2681,-179.2657 55.0283,-83.411 131.6492,-154.4157 219.798,-203.6872 44.2687,-24.7443 95.7871,-45.9613 142.0444,-58.4986 6.6,-1.7888 13.125,-3.6384 14.5,-4.1101 1.375,-0.4717 6.1,-1.605 10.5,-2.5185 4.4,-0.9134 9.575,-2.0123 11.5,-2.442 1.925,-0.4297 5.75,-1.2823 8.5,-1.8947 11.941,-2.6592 39.9397,-6.9962 58.5,-9.0617 5.775,-0.6427 12.075,-1.3565 14,-1.5863 10.6116,-1.2666 57.6417,-2.4534 77.5,-1.9557 31.8822,0.7991 64.0647,3.6022 86,7.4908 2.75,0.4875 8.15,1.4237 12,2.0804 18.8055,3.2076 45.3343,9.3137 65.25,15.0184 1.7875,0.512 4.7125,1.3333 6.5,1.825 10.3751,2.8544 41.5476,13.7851 57.25,20.0749 36.4023,14.5813 84.5757,39.6209 111.5,57.9556 38.295,26.0779 55.0285,39.1892 84.5,66.2089 11.6969,10.7238 35.4081,34.6623 42.7172,43.1268 1.0638,1.2318 3.1975,3.6324 4.7416,5.3347 24.7806,27.3177 57.1276,73.6537 76.026,108.905 2.3589,4.4 5.766,10.7 7.5714,14 4.1321,7.5529 15.7037,32.5951 19.6385,42.5 1.6387,4.125 4.0652,9.8758 5.3923,12.7796 1.3272,2.9038 2.413,5.7224 2.413,6.2636 0,0.5412 0.4364,1.7653 0.9698,2.7204 1.7819,3.1904 9.2474,25.5229 15.0386,44.9864 3.3955,11.4118 3.9195,13.3923 6.5483,24.75 4.5638,19.7173 5.2573,22.9122 6.4038,29.5 0.6221,3.575 1.5463,8.75 2.0536,11.5 9.403,50.9662 10.8821,117.2861 3.9141,175.5 -0.8632,7.2118 -3.3161,22.7158 -7.0403,44.5 -0.4701,2.75 -1.2902,6.8 -1.8224,9 -0.5323,2.2 -1.484,6.25 -2.1149,9 -0.631,2.75 -1.5095,6.575 -1.9523,8.5 -1.5681,6.8169 -4.3079,16.5195 -10.1654,36 -2.9225,9.7194 -12.5172,36.3481 -15.3133,42.5 -0.75,1.65 -2.3263,5.475 -3.5031,8.5 -4.0118,10.3132 -16.3441,36.4698 -24.0976,51.1106 -13.5192,25.5282 -30.2826,52.2511 -47.2316,75.293 -7.5538,10.2693 -10.2031,13.6683 -21.184,27.179 -7.4519,9.1685 -26.9686,30.8535 -34.1127,37.9026 -38.7983,38.2821 -61.7937,57.7701 -96.3906,81.688 -28.8294,19.9307 -73.1857,44.7685 -102,57.1159 -1.925,0.8249 -5.525,2.4052 -8,3.5118 -2.475,1.1066 -9.9,4.1199 -16.5,6.6962 -6.6,2.5763 -12.9,5.0515 -14,5.5005 -14.766,6.0272 -59.411,19.6598 -77.314,23.6082 -16.4617,3.6305 -40.1823,8.2922 -45.4242,8.9269 l -5.7383,0.6948 -0.2617,330.1363 c -0.2487,313.593 -0.3508,330.3592 -2.0381,334.5866 -3.5439,8.8785 5.3315,8.0496 -86.1876,8.0496 -63.3718,0 -81.5173,-0.2739 -82.8124,-1.25 z m 154.0279,-354 -0.2516,-314.25 -3.5,0.1103 c -1.925,0.061 -11.375,0.8589 -21,1.7738 -25.0965,2.3858 -67.1308,3.1416 -93.3716,1.6789 -12.0293,-0.6705 -22.4918,-1.4571 -23.25,-1.748 -1.1694,-0.4488 -1.3784,47.0187 -1.3784,313.078 V 2928 h 71.5016 71.5015 z M 1788,2259.5235 c 9.075,-0.8893 19.2,-1.9334 22.5,-2.3202 l 6,-0.7033 0.2624,-37.4376 c 0.1443,-20.5907 -0.081,-37.7282 -0.5,-38.0834 -0.4193,-0.3551 -5.4874,-0.079 -11.2624,0.6134 -29.6107,3.5505 -82.9732,4.2245 -108.5,1.3703 -4.95,-0.5535 -12.0375,-1.2868 -15.75,-1.6295 l -6.75,-0.6233 v 39.0286 39.0285 l 6.75,0.7405 c 17.3751,1.906 29.0659,2.2998 58.75,1.9789 19.2808,-0.2084 38.5583,-0.9886 48.5,-1.9629 z m -131,-41.9406 v -39.4172 l -5.0492,-1.0828 c -2.7771,-0.5956 -6.0849,-1.0829 -7.3508,-1.0829 -1.2659,0 -3.6062,-0.4116 -5.2008,-0.9146 -1.5945,-0.5031 -6.4992,-1.6987 -10.8992,-2.6568 -7.4282,-1.6177 -18.1742,-4.2852 -26.5,-6.5782 -1.925,-0.5302 -5.3,-1.3965 -7.5,-1.9251 -2.2,-0.5286 -4.9,-1.3546 -6,-1.8356 -1.1,-0.481 -6.05,-2.1318 -11,-3.6684 -9.4098,-2.921 -38.0384,-13.8828 -47.5,-18.1875 -50.7335,-23.082 -90.2863,-48.0761 -130,-82.1495 -6.7921,-5.8274 -34.0379,-32.0997 -39.3994,-37.9917 -10.3675,-11.3931 -13.1119,-14.5145 -20.303,-23.0926 -12.2041,-14.5578 -42.2976,-56.8145 -42.2976,-59.3934 0,-0.3123 -1.568,-3.0189 -3.4845,-6.0148 -7.5952,-11.8734 -23.808,-44.3281 -29.5193,-59.0918 -1.7021,-4.4 -3.9174,-9.8 -4.9229,-12 -1.9976,-4.3705 -10.8368,-30.4113 -13.5776,-40 -0.9432,-3.3 -2.2944,-8.025 -3.0026,-10.5 -3.1485,-11.0037 -6.9405,-28.7291 -10.3755,-48.5 -3.2803,-18.8805 -6.1275,-54.9515 -6.1173,-77.5 0.01,-15.3537 2.6329,-55.4702 4.0254,-61.4956 0.509,-2.2024 0.9364,-5.8497 0.9499,-8.1052 0.013,-2.2554 0.4192,-5.4054 0.9018,-7 0.4825,-1.5945 1.6652,-7.3992 2.6282,-12.8992 1.6404,-9.3688 8.3949,-38.3324 10.4944,-45 0.5195,-1.65 1.6712,-5.475 2.5593,-8.5 2.9054,-9.8967 14.3445,-41.0075 15.6084,-42.45 0.4578,-0.5225 0.8323,-1.5021 0.8323,-2.177 0,-2.4731 15.9243,-35.6315 23.18,-48.2665 2.651,-4.6164 4.82,-8.542 4.82,-8.7234 0,-1.7959 25.1213,-39.7652 32.6729,-49.3831 0.6478,-0.825 4.0032,-5.1 7.4564,-9.5 49.3411,-62.8684 119.9117,-117.95 191.8707,-149.7584 1.925,-0.851 5.525,-2.4687 8,-3.5951 2.475,-1.1264 8.1,-3.4337 12.5,-5.1274 4.4,-1.6937 8.9,-3.462 10,-3.9295 13.2981,-5.6526 45.2611,-15.5641 64.5,-20.0011 13.3924,-3.0887 18.3222,-4.1237 26.5,-5.5636 4.95,-0.8715 11.25,-2.0082 14,-2.5259 5.6769,-1.0687 26.4078,-3.4319 43.5586,-4.9655 14.902,-1.3325 64.9402,-1.3349 79.8828,0 15.3687,1.369 36.2453,3.7664 43.0586,4.9449 18.0927,3.1292 23.9238,4.1971 27.5,5.0363 2.2,0.5162 7.15,1.6415 11,2.5006 11.2564,2.5117 22.17,5.4891 33,9.003 3.85,1.2491 10.825,3.4584 15.5,4.9095 7.5717,2.3503 11.8934,3.9028 18.5,6.646 1.1,0.4567 6.95,2.8272 13,5.2677 26.7635,10.7961 58.0135,26.7892 78.586,40.2185 3.7441,2.4442 7.0282,4.4439 7.2978,4.4439 0.7975,0 20.2848,13.826 31.6162,22.4313 25.0754,19.0429 50.2733,42.3459 72,66.5856 4.675,5.2157 8.725,9.7081 9,9.9831 4.8187,4.8187 28.891,37.1387 36.5967,49.1356 17.3827,27.0628 34.4695,59.343 42.5391,80.3644 2.1605,5.6282 3.0912,7.889 4.734,11.5 1.4574,3.2036 8.0805,21.5676 9.1967,25.5 0.4684,1.65 1.5119,5.25 2.319,8 7.0059,23.8717 11.6751,42.6443 13.0578,52.5 0.3473,2.475 1.0388,6.3 1.5368,8.5 0.498,2.2 1.5842,9.625 2.4138,16.5 0.8296,6.875 2.0203,16.6656 2.6461,21.7569 1.5191,12.3608 1.4913,73.1662 -0.04,86.9767 -3.9425,35.5593 -8.337,59.7862 -15.4665,85.2664 -1.462,5.225 -3.0299,10.85 -3.4842,12.5 -0.4544,1.65 -2.2635,7.05 -4.0203,12 -1.7568,4.95 -3.4267,9.9 -3.711,11 -0.2843,1.1 -1.0883,3.35 -1.7867,5 -0.6984,1.65 -2.535,6.375 -4.0813,10.5 -1.5463,4.125 -3.1801,7.9275 -3.6308,8.45 -0.4506,0.5225 -0.8193,1.5866 -0.8193,2.3647 0,2.6714 -21.3317,44.6914 -30.2997,59.6853 -7.5074,12.5521 -21.3957,33.7697 -24.8031,37.8926 -0.5034,0.6091 -2.796,3.5824 -5.0948,6.6074 -16.0837,21.1646 -31.5934,38.6313 -51.9457,58.5 -17.1274,16.7206 -18.5678,17.9928 -38.3567,33.8778 -41.7884,33.5447 -87.5178,59.5554 -139.5,79.347 -3.575,1.3611 -7.175,2.7983 -8,3.1937 -0.825,0.3954 -6.225,2.1935 -12,3.9958 -5.775,1.8023 -11.4,3.6455 -12.5,4.096 -1.1,0.4504 -3.8,1.2665 -6,1.8135 -2.2,0.5469 -8.5,2.2208 -14,3.7197 -5.5,1.4989 -11.575,3.0748 -13.5,3.502 -9.9998,2.219 -19.1311,4.0924 -24.5,5.0266 -3.3,0.5741 -6.343,1.3833 -6.7622,1.7981 -0.4192,0.4148 -0.6442,17.6362 -0.5,38.2698 l 0.2622,37.5155 10,-1.7592 c 5.5,-0.9676 14.5,-2.7463 20,-3.9527 5.5,-1.2064 11.575,-2.5285 13.5,-2.9381 3.6612,-0.7789 13.3001,-3.3824 26,-7.0227 4.125,-1.1824 8.743,-2.3891 10.2622,-2.6816 1.5193,-0.2925 3.0083,-0.9299 3.3091,-1.4165 0.3007,-0.4866 1.5552,-0.8847 2.7877,-0.8847 1.2326,0 2.6685,-0.3794 3.191,-0.8432 0.5225,-0.4637 3.65,-1.657 6.95,-2.6517 25.821,-7.7833 69.3508,-26.8814 98.9251,-43.4022 6.0087,-3.3566 11.0544,-6.1029 11.2126,-6.1029 0.1581,0 6.4919,-3.8814 14.0749,-8.6254 25.7626,-16.1171 45.8162,-30.5287 67.2671,-48.3418 34.6867,-28.8042 71.2571,-67.3806 97.7352,-103.0964 37.3114,-50.3285 69.3395,-113.751 86.3223,-170.9364 1.2251,-4.125 2.795,-9.3 3.4887,-11.5 1.1292,-3.581 3.6294,-13.5604 8.0961,-32.3153 0.8273,-3.4735 1.9257,-8.761 2.4411,-11.75 0.5153,-2.9891 1.4132,-8.0222 1.9954,-11.1847 8.9227,-48.4705 10.6494,-119.7865 4.0617,-167.75 -0.5288,-3.85 -1.2391,-9.25 -1.5785,-12 -0.3395,-2.75 -1.0502,-7.3625 -1.5794,-10.25 -0.5293,-2.8875 -1.3853,-7.6125 -1.9023,-10.5 -15.6983,-87.6741 -58.6779,-180.507 -116.2201,-251.0269 -55.8024,-68.3877 -122.9292,-121.9032 -200.8507,-160.1244 -16.4863,-8.0866 -18.993,-9.2256 -34.9892,-15.8984 -48.4875,-20.2263 -106.4319,-35.6863 -156,-41.6218 -5.225,-0.6257 -13.1,-1.5635 -17.5,-2.0841 -29.6029,-3.5023 -94.5275,-3.4868 -124.25,0.03 -25.5061,3.0175 -25.6199,3.0333 -43.75,6.0752 -32.5502,5.4612 -74.7973,16.8584 -106.5,28.731 -19.2808,7.2206 -20.7496,7.8105 -31.2796,12.5619 -3.1788,1.4343 -5.987,2.6079 -6.2403,2.6079 -0.2534,0 -7.7775,3.5329 -16.7204,7.8509 -104.3748,50.3966 -192.0477,130.3363 -250.7683,228.6491 -8.153,13.6501 -24.6659,45.463 -30.3653,58.5 -1.5629,3.575 -3.4313,7.85 -4.1519,9.5 -13.5198,30.9541 -27.3016,75.6398 -33.9256,110 -0.8483,4.4 -1.9763,10.25 -2.5067,13 -2.2053,11.434 -2.3597,12.529 -5.0769,36 -2.6101,22.5469 -3.609,59.8516 -2.3095,86.25 0.6972,14.1625 1.7365,29.8 2.3095,34.75 2.0263,17.5028 2.8999,24.0637 3.9615,29.75 0.5904,3.1625 1.4968,8.1125 2.0142,11 0.5174,2.8875 1.2302,6.825 1.584,8.75 4.7017,25.5821 17.7259,69.1058 29.4285,98.3426 13.584,33.9373 34.6417,74.1123 54.0698,103.1574 61.9844,92.667 152.8157,168.8768 253.6394,212.81 9.2607,4.0353 19.5376,8.3602 22.8376,9.6109 3.3,1.2508 6.9,2.6384 8,3.0836 8.1284,3.29 37.516,13.3314 44,15.0343 1.65,0.4333 5.475,1.4682 8.5,2.2997 18.1325,4.984 40.1036,10.0305 54.75,12.5755 3.4375,0.5973 8.8375,1.5483 12,2.1133 9.431,1.6848 16.5783,2.7316 19.5,2.8558 l 2.75,0.1169 v -39.4171 z m 131.5,-68.4226 c 14.3208,-1.2963 27.7463,-2.9295 34,-4.136 2.75,-0.5305 9.05,-1.6794 14,-2.553 8.584,-1.5149 26.0289,-5.3788 33.5,-7.4198 16.5466,-4.5205 38.9386,-11.5371 43.8618,-13.7443 1.849,-0.8289 6.4411,-2.583 10.2048,-3.8979 3.7637,-1.315 9.9009,-3.7937 13.6382,-5.5083 3.7374,-1.7146 8.986,-3.9832 11.6637,-5.0413 9.6909,-3.8296 38.0118,-18.8113 52.0064,-27.5113 29.1453,-18.1186 49.7485,-33.5933 73.0001,-54.8294 20.2616,-18.5051 33.2994,-32.3899 54.48,-58.019 4.3686,-5.2861 20.4439,-28.0417 25.7847,-36.5 19.8931,-31.5047 30.4164,-52.9251 46.4252,-94.5 4.1685,-10.8254 11.3965,-36.243 14.9296,-52.5 3.559,-16.3764 3.9049,-18.2281 5.5109,-29.5 0.862,-6.05 1.9876,-13.7 2.5013,-17 0.9165,-5.888 1.8607,-21.6802 2.4213,-40.5 0.4145,-13.9139 -1.1996,-55.228 -2.52,-64.5 -1.0834,-7.6082 -3.8275,-24.9972 -5.9966,-38 -0.5505,-3.3 -1.4228,-7.35 -1.9384,-9 -0.5157,-1.65 -1.8063,-6.6 -2.8681,-11 -4.5417,-18.8203 -13.2929,-45.4675 -20.0331,-61 -0.4773,-1.1 -1.5499,-3.575 -2.3835,-5.5 -15.3118,-35.3596 -34.9753,-69.7824 -53.4106,-93.5005 -0.4277,-0.5503 -2.7813,-3.6892 -5.2301,-6.9752 -2.4489,-3.2861 -5.2159,-6.8859 -6.1489,-7.9995 -0.9331,-1.1136 -4.3179,-5.1748 -7.5218,-9.0248 -20.1637,-24.2302 -51.3945,-53.714 -78.3769,-73.9926 -11.6785,-8.777 -33.9164,-23.7836 -41.2835,-27.859 -2.6309,-1.4554 -5.7809,-3.2973 -7,-4.0932 -12.5637,-8.2023 -51.5058,-26.4825 -74.2165,-34.8387 -20.0808,-7.3886 -24.6805,-8.8908 -39,-12.7373 -1.65,-0.4433 -5.7,-1.5491 -9,-2.4574 -3.3,-0.9083 -7.8,-2.0481 -10,-2.5329 -2.2,-0.4848 -7.375,-1.6281 -11.5,-2.5407 -33.1202,-7.3272 -63.1541,-10.3059 -104,-10.3144 -51.5847,-0.011 -89.2495,5.0468 -136,18.2619 -3.025,0.8551 -6.625,1.8284 -8,2.163 -1.375,0.3345 -3.4,0.9825 -4.5,1.4399 -1.1,0.4574 -4.475,1.6121 -7.5,2.5661 -28.3188,8.931 -69.5625,27.5094 -94.5,42.5679 -1.65,0.9964 -4.35,2.5616 -6,3.4783 -1.65,0.9167 -9.075,5.7114 -16.5,10.6548 -56.6954,37.7472 -105.9891,88.1886 -140.4523,143.7227 -4.1512,6.6893 -7.5477,12.2889 -7.5477,12.4435 0,0.1546 -2.1679,4.0582 -4.8176,8.6746 -4.2506,7.4057 -14.0546,26.9667 -18.4911,36.8935 -9.343,20.9057 -21.9638,58.0053 -25.7719,75.7581 -0.5594,2.608 -1.4457,6.5419 -1.9695,8.7419 -8.2911,34.8264 -12.2819,82.6278 -10.0814,120.7546 0.6744,11.685 1.6126,24.6204 2.085,28.7454 1.5858,13.8499 3.0756,24.4671 4.0693,29 0.5426,2.475 1.8687,8.775 2.9469,14 2.9424,14.2582 4.4956,20.8699 6.4604,27.5 3.6347,12.2656 9.6813,31.1276 11.22,35 0.8741,2.2 1.9252,4.9 2.3358,6 0.4106,1.1 1.2443,3.125 1.8527,4.5 0.6084,1.375 2.0561,4.975 3.2171,8 2.1688,5.6507 7.1958,16.6637 11.6397,25.5 7.9128,15.7338 10.2554,20.0977 16.606,30.9355 20.7923,35.4839 43.2684,63.9882 75.9099,96.2696 22.3557,22.1091 44.1677,39.9501 68.7887,56.2654 6.875,4.5557 13.7193,9.1261 15.2095,10.1563 1.4902,1.0303 2.9958,1.8732 3.3456,1.8732 0.3499,0 1.8306,0.8477 3.2905,1.8839 1.4599,1.0361 5.8044,3.58 9.6544,5.653 10.255,5.5219 10.9516,5.9139 11.5,6.4714 0.4652,0.4729 27.0513,13.153 31.5,15.0238 1.1,0.4625 5.0689,2.2195 8.8198,3.9044 3.7508,1.6849 7.2444,3.0635 7.7635,3.0635 0.5191,0 1.7252,0.4038 2.6803,0.8973 6.8211,3.5251 32.1031,11.8343 55.2364,18.1542 7.4208,2.0273 24.8964,5.9017 33.5,7.4271 4.95,0.8776 11.475,2.034 14.5,2.5698 9.0988,1.6115 20.7469,2.9348 34.9123,3.9662 7.3767,0.5372 13.6723,1.2367 13.9902,1.5545 0.8777,0.8778 61.0653,-0.2743 73.5975,-1.4088 z"
         id="path5062" />
      <path
         style="fill:#000000;fill-opacity:1"
         d="m 1662.2409,2966.75 c -5.0082,-5.3464 -4.707,14.0622 -5.2409,-337.7406 l -0.5,-329.4906 -5.5,-0.784 c -49.9435,-7.1185 -82.2882,-14.5084 -123.5,-28.2165 -21.8108,-7.2547 -40.2802,-14.2069 -53,-19.9499 -2.75,-1.2416 -7.025,-3.1107 -9.5,-4.1535 -15.9826,-6.734 -50.9781,-25.1764 -72,-37.9436 -104.3824,-63.3943 -193.5727,-162.881 -242.0304,-269.9713 -1.2444,-2.75 -3.5865,-7.925 -5.2047,-11.5 -12.2889,-27.1493 -27.9209,-73.185 -34.2958,-101 -5.1349,-22.4046 -8.7909,-41.6368 -10.4554,-55 -0.5138,-4.125 -1.4126,-11.1 -1.9975,-15.5 -1.9324,-14.5387 -4.0097,-51.6872 -3.9982,-71.5 0.011,-19.6373 2.0268,-54.6723 3.998,-69.5 0.585,-4.4 1.4819,-11.375 1.9932,-15.5 0.5113,-4.125 1.3934,-10.0875 1.9602,-13.25 0.5668,-3.1625 1.4547,-8.1125 1.9731,-11 3.0147,-16.7925 7.0154,-33.59 13.1592,-55.25 6.7819,-23.91 18.8805,-57.5024 27.372,-76 1.2625,-2.75 3.7251,-8.15 5.4726,-12 52.5794,-115.8423 149.1212,-219.1169 265.0537,-283.5384 9.56,-5.3123 36.6328,-18.9776 45,-22.7142 44.4303,-19.8415 85.7287,-33.7312 128.75,-43.3019 2.3375,-0.52 6.1625,-1.3726 8.5,-1.8946 6.5093,-1.4535 13.502,-2.7619 21.75,-4.0696 4.125,-0.6539 8.1657,-1.3927 8.9792,-1.6417 2.8185,-0.8627 32.604,-4.3767 50.5208,-5.9605 21.8909,-1.935 80.0309,-2.2432 102,-0.5407 28.0794,2.1761 73.5278,8.4817 87.4549,12.1337 1.9498,0.5113 7.8201,1.8632 13.0451,3.0043 5.225,1.141 11.075,2.5071 13,3.0358 20.4224,5.6086 27.5262,7.677 40,11.6467 78.8943,25.1076 151.795,65.4218 217.5,120.278 20.564,17.1687 65.2883,61.8679 76.7582,76.7152 1.21,1.5663 4.6266,5.7309 7.5925,9.2546 11.8559,14.0862 36.7498,49.2189 46.389,65.4689 17.8021,30.0112 30.7602,55.6022 43.1031,85.1244 6.4793,15.4972 9.7625,24.3049 17.1474,46 0.7489,2.2 2.7741,8.95 4.5004,15 1.7264,6.05 3.5516,12.35 4.0561,14 0.8639,2.8254 4.4139,17.6128 7.4421,31 0.7465,3.3 1.5962,7.575 1.8883,9.5 0.2922,1.925 1.0243,6.2 1.627,9.5 4.6341,25.3732 6.4738,42.6849 8.3781,78.8379 1.6728,31.7587 0.4663,66.1877 -3.4573,98.6621 -1.5409,12.7539 -2.9725,22.9716 -3.923,28 -0.4678,2.475 -1.3647,7.425 -1.9931,11 -1.4706,8.3671 -3.4396,17.4267 -7.0635,32.5 -2.3761,9.8832 -9.2979,34.6799 -11.4448,41 -5.5025,16.1984 -11.8796,33.4984 -15.3711,41.699 -2.2712,5.3345 -4.1294,9.982 -4.1294,10.3279 0,1.0961 -11.1234,24.3878 -19.3287,40.4731 -35.7651,70.1123 -86.5991,133.6927 -151.1713,189.0771 -29.9296,25.671 -66.0637,50.5816 -103.5,71.3523 -23.337,12.9479 -35.6137,18.8688 -66.5,32.0716 -29.0614,12.4228 -72.6232,26.0878 -108.2165,33.9466 -10.2098,2.2543 -38.608,7.5524 -40.4815,7.5524 -0.4281,0 -0.9076,148.3875 -1.0654,329.75 -0.3086,354.5423 0,335.01 -5.3053,340.7297 l -2.3358,2.5203 h -80.8734 -80.8735 z M 1817,2613.3564 v -314.6436 l -7.25,0.7221 c -19.9829,1.9904 -28.4945,2.6109 -42.25,3.08 -8.25,0.2813 -18.825,0.6916 -23.5,0.9119 -9.8324,0.4632 -56.9867,-1.0084 -64.75,-2.0208 l -5.25,-0.6846 V 2614.3607 2928 h 71.5 71.5 z m -31,-353.1823 c 15.3821,-1.431 29.1483,-3.1477 30.1363,-3.7583 0.475,-0.2936 0.8637,-17.6348 0.8637,-38.5361 v -38.0022 l -4.25,0.5793 c -29.1452,3.9732 -84.858,4.9756 -117.25,2.1097 -9.9,-0.8759 -18.7926,-1.7709 -19.7614,-1.9889 -1.6623,-0.374 -1.7467,1.8351 -1.5,39.263 l 0.2614,39.6594 10.5,0.7316 c 5.775,0.4024 11.4,0.9219 12.5,1.1545 3.7255,0.7875 77.929,-0.2287 88.5,-1.212 z m -129,-42.6067 c 0,-36.6865 -0.1219,-39.4695 -1.75,-39.9621 -0.9625,-0.2912 -4.45,-0.9827 -7.75,-1.5367 -3.3,-0.5539 -9.15,-1.7125 -13,-2.5747 -3.85,-0.8621 -9.025,-1.9953 -11.5,-2.5181 -19.6987,-4.161 -58.976,-16.4898 -76.5,-24.0125 -1.1,-0.4723 -6.95,-2.9694 -13,-5.5492 -12.2439,-5.2211 -36.5959,-17.189 -46.3461,-22.777 -3.4903,-2.0004 -6.5337,-3.6371 -6.7631,-3.6371 -0.2295,0 -7.0487,-4.151 -15.154,-9.2243 -45.3364,-28.3779 -83.039,-60.7523 -119.7475,-102.825 -14.481,-16.597 -31.9772,-40.7364 -45.9891,-63.4507 -10.3464,-16.7722 -27.7951,-50.6704 -33.9727,-66 -1.9947,-4.95 -4.0184,-9.9 -4.497,-11 -0.9241,-2.124 -4.722,-12.6972 -7.5431,-21 -0.9344,-2.75 -2.067,-5.9 -2.5168,-7 -0.4498,-1.1 -1.5734,-4.7 -2.4968,-8 -0.9235,-3.3 -2.0741,-7.125 -2.5571,-8.5 -0.9171,-2.6112 -4.7273,-17.843 -7.2544,-29 -1.4703,-6.4913 -3.9491,-19.6083 -5.6692,-30 -2.9665,-17.9208 -6.0019,-55.8515 -6.0019,-75 0,-18.9349 3.0805,-56.9669 5.9938,-74 5.1041,-29.8417 8.3239,-43.8557 15.7386,-68.5 2.2968,-7.6336 10.2876,-30.6182 11.8205,-34 0.7479,-1.65 2.692,-6.375 4.3201,-10.5 3.3104,-8.3869 11.8228,-26.8652 15.8932,-34.5 13.6912,-25.6804 15.6814,-29.0917 26.7483,-45.8493 19.5858,-29.6572 33,-46.4015 58.9943,-73.6398 45.9512,-48.1504 104.7167,-89.1192 164.5,-114.6824 1.925,-0.8232 4.3333,-1.9412 5.3518,-2.4846 6.2725,-3.3465 46.2382,-17.5582 60.1848,-21.4015 55.787,-15.3734 103.794,-21.4602 158.4634,-20.0916 33.1799,0.8306 54.0768,2.6483 76.5,6.6542 3.3,0.5896 9.6,1.7196 14,2.5112 6.9603,1.2522 16.2795,3.3255 33.5,7.453 2.475,0.5932 5.625,1.4656 7,1.9387 1.375,0.4731 4.525,1.4243 7,2.1139 7.1014,1.9784 34.1631,10.9705 37.4894,12.4569 1.6558,0.74 5.4856,2.2376 8.5106,3.328 3.025,1.0904 8.5488,3.38 12.275,5.0879 3.7263,1.708 7.0028,3.1054 7.2812,3.1054 1.2492,0 29.1042,13.7834 39.9438,19.7654 53.4944,29.5213 94.0712,61.9972 139.002,111.2513 7.3637,8.0723 24.9552,30.2006 31.7858,39.9833 21.6363,30.9874 37.7644,59.881 53.3071,95.5 7.0721,16.207 17.6493,47.4552 22.3405,66 7.3984,29.2469 10.2658,45.8049 13.5943,78.5 3.4715,34.1008 1.2497,95.7201 -4.4893,124.5 -0.5484,2.75 -1.6871,8.825 -2.5305,13.5 -0.8434,4.675 -1.9668,10.3 -2.4964,12.5 -0.5296,2.2 -1.6799,7.15 -2.5564,11 -0.8764,3.85 -1.9768,8.125 -2.4453,9.5 -0.4685,1.375 -1.6222,5.2 -2.5637,8.5 -17.3675,60.8692 -48.9922,121.6507 -89.4481,171.9157 -24.3733,30.283 -57.9728,62.8619 -90,87.2662 -16.7589,12.7701 -40.1632,28.3503 -54.789,36.4731 -3.1411,1.7444 -7.286,4.0629 -9.211,5.1522 -6.8213,3.86 -30.8443,15.6691 -40.1055,19.7148 -18.8854,8.2501 -54.0665,21.0489 -65.6783,23.8935 -2.0439,0.5007 -6.4162,1.6657 -9.7162,2.5889 -7.4149,2.0744 -14.7396,3.8621 -24.5,5.9795 -4.125,0.8949 -9.3,2.0353 -11.5,2.5343 -2.2,0.4989 -5.9125,1.1885 -8.25,1.5324 l -4.25,0.6252 v 38.4121 c 0,21.1267 0.1463,38.4121 0.3251,38.4121 3.903,0 43.5036,-8.4289 56.6749,-12.0632 4.125,-1.1381 10.65,-2.9308 14.5,-3.9836 16.8876,-4.6181 53.9417,-18.0175 72.5,-26.2173 3.025,-1.3365 7.5093,-3.2864 9.9652,-4.333 7.3769,-3.1437 35.7459,-17.6796 48.0348,-24.6122 30.2162,-17.0461 61.2862,-38.5642 87,-60.2534 20.6675,-17.4328 46.326,-41.7761 56.4296,-53.5373 2.1262,-2.475 6.1824,-6.975 9.0138,-10 12.7103,-13.5794 34.1951,-41.5479 48.011,-62.5 35.2498,-53.4569 60.112,-108.8574 75.8425,-169 9.0398,-34.562 12.6392,-55.6463 16.7959,-98.3845 1.4422,-14.8288 1.4261,-74.2125 -0.024,-89.6155 -1.7319,-18.3932 -4.3996,-39.7313 -6.0634,-48.5 -0.4696,-2.475 -1.3679,-7.425 -1.9963,-11 -0.6283,-3.575 -1.5468,-8.3 -2.0409,-10.5 -2.1961,-9.7767 -7.1674,-30.2702 -8.0052,-33 -0.5063,-1.65 -1.8897,-6.375 -3.074,-10.5 -14.5138,-50.5518 -41.5769,-108.2522 -72.2243,-153.9874 C 2188.4871,1301.6099 2121.7481,1238.2539 2048.5,1194.3357 2030.1977,1183.362 1987.3247,1161 1984.5879,1161 c -0.2958,0 -3.5866,-1.4127 -7.3129,-3.1394 -16.0913,-7.4563 -58.0548,-22.3495 -77.275,-27.4255 -5.225,-1.3799 -10.8682,-2.946 -12.5404,-3.4804 -1.6722,-0.5343 -6.1722,-1.6539 -10,-2.4881 -27.3427,-5.9584 -26.864,-5.8643 -44.9596,-8.8414 -33.2648,-5.4726 -61.2666,-7.6311 -99,-7.6311 -32.6,0 -47.0477,0.9008 -82,5.1126 -13.3992,1.6146 -34.1887,5.2838 -50.5,8.9129 -1.925,0.4283 -5.75,1.255 -8.5,1.8372 -2.75,0.5822 -7.475,1.7203 -10.5,2.5292 -3.025,0.8088 -9.1,2.4359 -13.5,3.6157 -39.5642,10.6089 -93.1703,32.5049 -130.5,53.3043 -50.4627,28.1169 -88.6983,56.6891 -129.3506,96.6596 -19.3502,19.0257 -31.818,32.6307 -46.7686,51.0344 -46.0485,56.6841 -82.4056,126.0982 -102.8721,196.4065 -4.3794,15.0446 -9.5037,35.8073 -11.8696,48.0935 -2.9343,15.2377 -3.7171,20.0574 -6.0905,37.5 -6.9465,51.0528 -5.3167,121.8744 3.9122,170 0.4747,2.475 1.3684,7.2 1.9862,10.5 5.8574,31.2896 21.1638,81.4672 32.808,107.5516 1.0922,2.4466 4.1565,9.3984 6.8095,15.4484 17.6911,40.3431 45.0019,84.7252 75.3992,122.5297 27.4136,34.0937 66.3559,72.076 101.0363,98.5454 39.4726,30.1271 82.0495,55.0871 127,74.4516 20.8144,8.9668 56.2699,21.7636 72.5,26.1672 28.0266,7.6042 49.0822,12.3508 70,15.7801 17.1455,2.8109 16.6401,2.7406 20.75,2.8898 L 1657,2257 Z m 124.5,-67.6046 c 29.1956,-2.7606 49.1404,-5.7131 70.6612,-10.4601 12.4716,-2.7509 16.6814,-3.8138 29.8388,-7.5336 33.0043,-9.3307 73.548,-26.208 102.8395,-42.8093 4.0368,-2.2879 7.4782,-4.1598 7.6477,-4.1598 0.1695,0 5.1955,-3.0375 11.1689,-6.75 47.3145,-29.4061 88.832,-66.1348 122.4314,-108.3095 11.3196,-14.2085 14.1031,-17.8043 16.143,-20.8537 17.3942,-26.0023 25.088,-38.802 34.9154,-58.0868 8.2571,-16.2034 11.1448,-22.5259 17.5839,-38.5 9.6455,-23.9282 19.5899,-57.4461 23.7352,-80 0.9098,-4.95 2.0521,-11.025 2.5385,-13.5 1.5031,-7.6481 3.8803,-28.7933 4.9633,-44.1483 2.4,-34.0263 0.091,-77.3539 -5.8549,-109.8517 -0.5534,-3.025 -1.4857,-8.2 -2.0718,-11.5 -0.586,-3.3 -1.496,-7.575 -2.0222,-9.5 -0.5262,-1.925 -1.8508,-7.1 -2.9437,-11.5 -1.0929,-4.4 -2.7129,-10.475 -3.6,-13.5 -0.8871,-3.025 -1.9737,-6.85 -2.4147,-8.5 -0.4409,-1.65 -2.0186,-6.375 -3.506,-10.5 -1.4874,-4.125 -3.2757,-9.3 -3.9739,-11.5 -1.2828,-4.0417 -4.2545,-11.4665 -7.7003,-19.2391 -1.0336,-2.3315 -1.8793,-4.4848 -1.8793,-4.785 0,-0.3003 -3.2983,-7.3927 -7.3296,-15.7609 -17.132,-35.5631 -35.4915,-64.3486 -61.0147,-95.6642 -11.5302,-14.147 -45.2068,-48.4946 -57.1992,-58.339 -46.6911,-38.3279 -79.5222,-58.1942 -134.9565,-81.6632 -1.1,-0.4657 -3.575,-1.4097 -5.5,-2.0977 -1.925,-0.688 -4.85,-1.8363 -6.5,-2.5519 -12.031,-5.2172 -49.0514,-15.9094 -71.5,-20.6506 -39.0404,-8.2453 -83.6693,-11.7625 -124.2146,-9.7893 -43.0863,2.097 -71.0339,6.5856 -115.2854,18.5161 -8.0362,2.1666 -31.4214,9.9674 -39.5,13.1764 -3.575,1.4201 -7.4,2.9381 -8.5,3.3734 -20.9725,8.2992 -53.3849,24.5857 -73,36.6809 -11.3096,6.9739 -25.918,16.5648 -29,19.0395 -0.55,0.4417 -5.95,4.57 -12,9.1742 -39.2163,29.8442 -78.4579,71.291 -105.1702,111.0804 -15.8813,23.656 -35.2043,59.6727 -44.2613,82.5 -1.7457,4.4 -3.5642,8.9 -4.0411,10 -0.8461,1.9517 -4.2784,11.469 -7.3931,20.5 -3.2732,9.4906 -9.3921,31.9802 -12.6516,46.5 -2.6566,11.8343 -5.9012,32.5354 -8.1503,52 -1.9663,17.0167 -1.6238,74.3197 0.5528,92.5 3.7924,31.6769 8.047,52.8155 16.2024,80.5 3.8249,12.9841 12.775,37.8246 16.9887,47.1511 0.783,1.7332 1.4237,3.3652 1.4237,3.6268 0,0.2616 3.088,6.9436 6.8622,14.8489 6.1627,12.908 8.6956,17.7187 18.6242,35.3732 7.8826,14.0165 27.4963,42.4563 38.7307,56.1594 13.5361,16.5107 30.0936,34.4012 42.8879,46.3406 7.3673,6.875 13.62,12.725 13.895,13 1.7768,1.7768 19.5448,16.3954 24.5,20.1573 14.5219,11.025 50.0251,34.8427 51.9371,34.8427 0.2593,0 4.2045,2.1434 8.7672,4.7631 7.6038,4.3658 28.3595,14.8196 36.7957,18.5325 9.6721,4.2569 14.3688,6.1917 24,9.8866 10.2263,3.9231 31.4704,11.2305 37.5,12.8988 2.9869,0.8265 11.8356,3.208 18.5,4.979 7.4401,1.9772 30.8104,6.9621 37,7.8921 13.8115,2.0753 36.9202,5.026 46,5.8737 13.6332,1.2727 64.5371,1.3627 77.5,0.137 z"
         id="path5060" />
      <path
         style="fill:#000000;fill-opacity:1"
         d="m 1661.678,2966.0292 c -1.3749,-1.6339 -2.9899,-5.2561 -3.5889,-8.0492 C 1657.3162,2954.376 1657,2857.9794 1657,2625.9508 1657,2446.1279 1656.798,2299 1656.5512,2299 c -1.7913,0 -25.6794,-3.3756 -32.5512,-4.5998 -4.675,-0.8328 -10.75,-1.9046 -13.5,-2.3818 -7.7122,-1.3383 -31.9253,-6.8303 -42.5,-9.6399 -21.3544,-5.6737 -20.955,-5.5555 -42.5,-12.568 -6.6,-2.1481 -12.9,-4.2914 -14,-4.7628 -1.1,-0.4714 -5.825,-2.2929 -10.5,-4.0477 -4.675,-1.7548 -9.4,-3.5745 -10.5,-4.0437 -1.1,-0.4692 -8.3,-3.5376 -16,-6.8187 -64.7289,-27.5819 -125.2605,-66.5063 -178,-114.4616 -97.145,-88.3325 -164.6644,-206.5564 -189.4251,-331.676 -3.3919,-17.1395 -3.9229,-20.1155 -5.085,-28.5 -0.6098,-4.4 -1.5065,-10.7 -1.9926,-14 -2.5874,-17.5661 -5.0136,-55.0668 -5.0044,-77.3517 0.01,-21.6126 2.3532,-56.7838 5.109,-76.6483 1.9842,-14.3021 3.019,-21.1183 3.8714,-25.5 0.4815,-2.475 1.3979,-7.425 2.0364,-11 0.6386,-3.575 1.7745,-9.2 2.5243,-12.5 8.9753,-39.5023 16.3117,-63.2428 30.4387,-98.5 34.011,-84.8822 86.8962,-160.767 156.5273,-224.6005 75.568,-69.2761 165.1458,-118.5727 265,-145.8352 42.54,-11.6145 73.6865,-16.9183 126.5586,-21.5514 15.0984,-1.3231 76.8042,-1.3132 93.4414,0.015 20.1647,1.6098 47.6829,4.8239 60,7.0081 3.3,0.5852 8.475,1.4479 11.5,1.9171 3.025,0.4693 6.625,1.1041 8,1.4108 1.375,0.3066 6.775,1.5107 12,2.6756 35.9821,8.0222 62.3645,15.8118 94.4922,27.8997 80.5933,30.3226 156.0055,78.253 218.9073,139.1329 88.092,85.2602 147.0845,191.1563 173.49,311.4279 1.8088,8.2388 2.6387,12.5821 5.1589,27 1.0272,5.8763 2.4523,16.4426 3.9113,29 6.0147,51.7675 5.0059,108.7863 -2.8485,161 -1.0769,7.1589 -4.8034,27.9666 -5.6414,31.5 -0.3261,1.375 -0.9907,4.3 -1.4769,6.5 -22.875,103.5196 -72.2447,198.4109 -145.1571,279 -64.9797,71.8212 -148.6862,129.2356 -241.3358,165.5328 -19.5588,7.6625 -42.2672,15.1577 -63.5,20.959 -4.125,1.1271 -9.075,2.5014 -11,3.054 -7.4879,2.1497 -39.0282,8.8392 -49,10.3926 -5.775,0.8997 -11.2815,1.8725 -12.2368,2.1619 -1.6437,0.4979 -1.7514,18.1873 -2.0102,330.2129 -0.2939,354.2464 0.031,333.7251 -5.3803,340.1557 L 1825.8222,2969 H 1745 1664.1778 Z m 153.072,-37.6532 2.25,-0.6093 v -314.3243 c 0,-172.8784 -0.3375,-314.5237 -0.75,-314.7673 -0.4125,-0.2436 -3.5206,-0.057 -6.9068,0.4143 -26.9018,3.7455 -91.049,5.3482 -118.8432,2.9693 -6.6,-0.5649 -13.0125,-1.0342 -14.25,-1.0429 L 1674,2301 v 313.3333 c 0,172.3334 0.2883,313.6217 0.6407,313.9741 0.8177,0.8176 137.0969,0.8844 140.1093,0.069 z M 1777,2260.9499 c 12.8336,-0.8815 20.4813,-1.6393 35.75,-3.5427 l 4.25,-0.5297 v -38.5765 -38.5764 l -5.75,0.6838 c -24.2699,2.8859 -38.4271,3.6671 -66.75,3.6834 -28.1288,0.016 -55.3934,-1.4804 -67.1484,-3.6856 L 1674,2179.7774 v 39.9789 39.9788 l 15.75,1.1722 c 26.1005,1.9425 59.3518,1.9587 87.25,0.043 z m -120.5,-43.4885 v -39.8719 l -3.5,-0.6442 c -1.925,-0.3544 -6.65,-1.2061 -10.5,-1.8927 -3.85,-0.6867 -8.575,-1.6529 -10.5,-2.1471 -1.925,-0.4942 -7.55,-1.8321 -12.5,-2.9732 -25.8559,-5.9602 -65.6912,-19.3277 -88.5,-29.6979 -59.551,-27.0753 -101.9514,-55.2244 -147.9103,-98.1958 -49.9615,-46.7137 -93.357,-109.3971 -118.0633,-170.5386 -1.7779,-4.4 -3.8134,-9.35 -4.5233,-11 -1.3261,-3.0827 -7.0661,-19.1642 -9.9695,-27.9317 -2.5267,-7.6295 -8.0356,-27.8924 -10.8936,-40.0683 -2.3814,-10.1455 -3.4442,-15.5863 -5.6649,-29 -10.2452,-61.8849 -7.6128,-133.7213 7.0858,-193.3677 25.7478,-104.4833 83.07,-195.7265 166.9391,-265.7268 42.4799,-35.4554 98.0613,-67.9596 145.5,-85.089 3.85,-1.3901 8.35,-3.1184 10,-3.8405 4.4845,-1.9627 26.6843,-9.0526 37.5,-11.9764 5.225,-1.4124 11.075,-2.9946 13,-3.5159 1.925,-0.5214 6.65,-1.6457 10.5,-2.4986 3.85,-0.8529 8.5848,-1.9733 10.5217,-2.4897 1.9369,-0.5164 6.6619,-1.4379 10.5,-2.0479 3.8381,-0.6099 9.4533,-1.5192 12.4783,-2.0206 32.8224,-5.4404 73.3228,-7.5986 111.7223,-5.9535 14.1777,0.6074 28.2527,1.5077 31.2777,2.0006 3.025,0.493 8.425,1.1879 12,1.5443 10.3774,1.0347 35.2051,5.4408 50,8.8733 19.9371,4.6256 52.9441,14.2373 60.5,17.6179 1.1,0.4921 8.4857,3.4309 16.4127,6.5306 7.927,3.0997 16.927,6.7788 20,8.1757 9.7129,4.4152 31.3524,15.1183 37.5873,18.5911 3.3,1.8381 8.025,4.4757 10.5,5.8614 8.0895,4.529 27.3087,16.7322 36.5,23.1755 82.4631,57.8084 145.7614,136.9075 180.9794,226.1562 5.7191,14.4933 10.8619,28.6926 12.8576,35.5 4.0829,13.9268 6.5977,23.0491 8.1325,29.5 0.916,3.85 2.0643,8.575 2.5517,10.5 1.3714,5.4161 4.965,25.4059 6.5617,36.5 5.0046,34.7722 5.9507,79.2444 2.4678,116 -14.4793,152.8019 -102.0611,291.5769 -236.5507,374.8189 -15.8634,9.8186 -23.8294,14.1856 -43,23.5727 -21.5495,10.5521 -23.5244,11.4216 -47.5,20.9138 -12.8884,5.1026 -35.7354,12.258 -56.5,17.6952 -6.1106,1.6 -29.9453,6.7464 -36.75,7.935 l -3.75,0.655 v 38.4547 c 0,36.3029 0.1003,38.4547 1.7923,38.4547 5.6309,0 39.3574,-7.4183 61.1449,-13.4492 121.9239,-33.7487 227.4412,-102.236 306.6743,-199.0508 48.265,-58.9749 86.3852,-131.9878 106.2479,-203.5 4.1218,-14.84 9.1851,-36.2364 11.1221,-47 0.6434,-3.575 1.5688,-8.525 2.0564,-11 0.4876,-2.475 1.3535,-7.9875 1.9243,-12.25 0.5708,-4.2625 1.4796,-11.0125 2.0195,-15 2.6677,-19.7021 3.4894,-35.6557 3.4894,-67.75 0,-44.9085 -2.0955,-67.1779 -10.4685,-111.25 -0.9748,-5.1309 -1.6735,-8.3523 -3.9043,-18 -0.6041,-2.6125 -1.5145,-6.6625 -2.0233,-9 -0.5087,-2.3375 -1.6372,-6.5 -2.5078,-9.25 -1.583,-5.0005 -2.1913,-7.0671 -4.5619,-15.5 -0.6957,-2.475 -2.3585,-7.65 -3.6951,-11.5 -1.3366,-3.85 -3.5548,-10.375 -4.9294,-14.5 -1.3745,-4.125 -3.103,-8.85 -3.8411,-10.5 -0.7381,-1.65 -3.6852,-8.85 -6.5491,-16 -18.1211,-45.2403 -50.6508,-99.7954 -83.5816,-140.1732 -100.2748,-122.9511 -244.3979,-200.9065 -403.409,-218.2019 -25.8319,-2.8097 -39.8446,-3.332 -75.5,-2.8145 -34.784,0.5049 -46.9958,1.1636 -67.5,3.6409 -117.0199,14.1382 -229.3554,63.2475 -319.5,139.6745 -38.4952,32.6373 -77.951,76.8582 -106.5106,119.3742 -25.1995,37.5138 -50.3369,87.8457 -64.6766,129.5 -11.5813,33.6415 -18.7337,62.1567 -24.205,96.5 -4.3694,27.4268 -7.1022,61.0416 -7.1178,87.5522 -0.018,30.9804 3.5956,70.9921 8.982,99.4478 0.4685,2.475 1.3572,7.2 1.975,10.5 0.6178,3.3 1.5399,7.8 2.0492,10 4.0714,17.5866 5.6774,23.85 9.4873,37 58.0006,200.1887 224.6215,355.456 434.5165,404.9086 20.6808,4.8726 59.3013,11.7438 62.5,11.1198 0.6467,-0.1261 1,-14.2824 1,-40.067 z m 125.5,-67.4451 c 5.225,-0.5243 12.65,-1.2198 16.5,-1.5456 29.7957,-2.5208 66.5077,-10.5379 104.5,-22.8205 6.4635,-2.0896 34.5973,-12.9639 40.5,-15.6541 25.4603,-11.6037 44.2925,-21.5645 63,-33.3221 64.9428,-40.8163 119.9497,-97.1246 157.9372,-161.674 6.1099,-10.382 26.5628,-50.7472 26.5628,-52.4234 0,-0.3775 0.8375,-2.5741 1.8612,-4.8815 1.0237,-2.3073 3.1019,-7.5701 4.6184,-11.6951 1.5164,-4.125 3.1152,-8.4 3.5528,-9.5 1.5011,-3.773 5.7914,-17.0019 7.4592,-23 0.9176,-3.3 2.0704,-7.125 2.5618,-8.5 2.7787,-7.7751 8.7093,-36.301 11.5386,-55.5 5.6533,-38.3612 5.8226,-89.0552 0.4273,-128 -3.376,-24.3696 -10.5738,-55.183 -18.337,-78.5 -4.6877,-14.0794 -9.9957,-28.2598 -11.6925,-31.2364 -0.5444,-0.9551 -0.9898,-2.1597 -0.9898,-2.677 0,-1.9546 -18.0635,-39.1541 -22.8645,-47.0866 -1.1651,-1.925 -2.4383,-4.175 -2.8294,-5 -0.3911,-0.825 -3.9953,-6.7926 -8.0093,-13.2612 -55.1385,-88.857 -140.4641,-158.1384 -240.7968,-195.5185 -38.5077,-14.3465 -74.8388,-22.9395 -119,-28.1456 -33.1332,-3.9061 -74.7776,-3.9024 -109,0.01 -76.6882,8.7664 -146.2616,32.9786 -209.5,72.908 -33.8399,21.3668 -53.3001,37.1505 -85.0046,68.9449 -19.7022,19.7581 -33.1389,35.3282 -47.0866,54.5627 -7.0588,9.7345 -21.9088,32.053 -21.9088,32.9275 0,0.2955 -1.8741,3.5827 -4.1646,7.3049 -3.6684,5.9612 -17.8433,33.6682 -22.1357,43.2676 -11.67,26.0987 -21.164,55.039 -28.7046,87.5 -11.9396,51.3976 -13.3942,115.9974 -3.8974,173.0871 4.7861,28.7718 15.9236,68.8062 24.4991,88.064 0.7718,1.7332 1.4032,3.4005 1.4032,3.7053 0,0.3048 2.0642,5.3869 4.5871,11.2936 30.6887,71.8494 80.6253,135.8549 145.1077,185.9897 53.4495,41.5567 121.8114,73.9406 187.8052,88.9655 15.4032,3.5068 22.2371,4.7479 46,8.3537 27.8243,4.2221 79.0896,5.7078 105.5,3.0574 z"
         id="path5058" />
      <path
         style="fill:#000000;fill-opacity:1"
         d="m 1663.3418,2967.5269 c -1.1567,-0.8102 -2.9443,-3.3977 -3.9725,-5.75 -1.8099,-4.1411 -1.8852,-14.7408 -2.3693,-333.7243 l -0.5,-329.4473 -13,-1.7292 c -7.15,-0.9511 -15.7,-2.1906 -19,-2.7545 -3.3,-0.5639 -8.925,-1.5231 -12.5,-2.1315 -29.7975,-5.0714 -80.4604,-19.2031 -107.5,-29.9858 -4.4,-1.7546 -10.025,-3.8793 -12.5,-4.7216 -11.1782,-3.8042 -53.9549,-23.7611 -68.8064,-32.1006 -4.7815,-2.6849 -11.3936,-6.3602 -14.6936,-8.1674 -16.1715,-8.8559 -49.3518,-30.8417 -68,-45.0579 -48.291,-36.814 -94.4162,-83.8784 -129.9104,-132.5556 -14.3566,-19.6889 -32.193,-48.3892 -44.063,-70.9012 -3.77,-7.15 -7.2269,-13.675 -7.6819,-14.5 -2.4631,-4.4655 -12.5627,-26.852 -16.0157,-35.5 -2.1961,-5.5 -4.6844,-11.575 -5.5296,-13.5 -3.4762,-7.9174 -4.3203,-10.1949 -9.6372,-26 -13.8807,-41.2624 -21.7899,-75.2448 -27.1148,-116.5 -3.5344,-27.3834 -4.6787,-46.3276 -4.6814,-77.5 0,-48.7717 3.986,-85.8292 14.2668,-132.5 5.2914,-24.0213 19.6091,-70.7679 26.4073,-86.2184 0.9151,-2.0799 2.0221,-4.6816 2.4599,-5.7816 0.4378,-1.1 1.4819,-3.575 2.32,-5.5 0.8382,-1.925 2.4095,-5.75 3.4919,-8.5 3.7871,-9.6224 13.9342,-30.6054 22.9704,-47.5 55.4029,-103.5849 145.2916,-193.9273 250.2177,-251.4808 83.2684,-45.674 171.377,-71.6702 268,-79.0727 32.031,-2.454 92.3001,-1.4391 118.637,1.9978 2.1247,0.2773 7.913,0.9906 12.863,1.585 56.5778,6.795 127.2695,26.086 174.2796,47.5591 2.9038,1.3264 5.4801,2.4116 5.725,2.4116 0.7614,0 12.3871,5.4523 26.9954,12.6606 74.0928,36.5598 140.2016,87.5106 197.0444,151.8642 44.0488,49.8692 81.6855,111.4002 107.6386,175.9752 12.506,31.1166 27.3553,81.6509 31.7355,108 0.5485,3.3 1.492,8.7 2.0964,12 0.6045,3.3 1.5086,8.925 2.0091,12.5 0.5005,3.575 1.4124,10.1 2.0264,14.5 3.358,24.064 4.9793,66.1892 3.791,98.5 -0.8214,22.3364 -2.187,42.5486 -3.2431,48 -0.2664,1.375 -0.9926,6.775 -1.6138,12 -0.6212,5.225 -1.5128,11.525 -1.9814,14 -0.4685,2.475 -1.3699,7.425 -2.0031,11 -7.3785,41.6577 -18.8898,80.1821 -37.4999,125.5 -20.5488,50.0385 -51.536,101.8521 -87.9136,147 -29.5649,36.6928 -73.265,78.8213 -112.0865,108.0556 -20.0195,15.0756 -47.774,33.5048 -64,42.4965 -2.75,1.5239 -7.925,4.3993 -11.5,6.3896 -33.2197,18.4951 -72.5834,35.5591 -111.5,48.3349 -15.3127,5.0269 -17.4097,5.661 -30.5,9.2234 -4.125,1.1226 -9.075,2.4987 -11,3.0581 -1.925,0.5594 -6.425,1.6326 -10,2.3849 -3.575,0.7524 -11,2.3846 -16.5,3.6271 -5.5,1.2426 -15.625,3.1976 -22.5,4.3446 l -12.5,2.0853 -0.5,329.5 c -0.4735,312.0227 -0.594,329.7756 -2.2724,334.6951 -0.9787,2.8685 -2.9424,6.1153 -4.3849,7.25 -2.586,2.0341 -3.4168,2.0549 -82.2551,2.0549 -68.529,0 -79.9361,-0.2056 -81.7458,-1.4731 z m 153.4098,-354.3907 0.2515,-315.3638 -4.2515,0.6164 c -30.1737,4.374 -96.3679,5.7958 -130.5016,2.8032 l -8.25,-0.7233 v 314.2723 314.2723 l 71.25,-0.2566 71.25,-0.2567 z M 1780.5,2260.9572 c 7.15,-0.5587 17.05,-1.4619 22,-2.0071 4.95,-0.5452 10.125,-1.0945 11.5,-1.2207 l 2.5,-0.2294 0.2619,-38.89 0.2618,-38.8899 -6.2618,0.6377 c -47.6947,4.8571 -92.5198,5.0696 -126.5527,0.5998 -4.01,-0.5267 -7.9475,-0.9576 -8.75,-0.9576 -1.2545,0 -1.4592,5.5912 -1.4592,39.8575 v 39.8576 l 6.25,0.7773 c 17.2326,2.1433 75.3239,2.4127 100.25,0.4648 z M 1657,2217.7353 v -40.2647 l -11.75,-2.2126 c -30.459,-5.7357 -70.289,-16.9518 -89.75,-25.2736 -1.1,-0.4704 -8.525,-3.5339 -16.5,-6.8077 -102.7512,-42.1814 -190.515,-119.1536 -246.4441,-216.141 C 1285.7128,1915.169 1268,1880.1085 1268,1878.43 c 0,-0.3452 -0.6434,-2.0457 -1.4298,-3.7789 -8.4863,-18.7034 -20.3249,-54.4467 -25.5533,-77.1511 -1.14,-4.95 -2.4723,-10.575 -2.9609,-12.5 -0.4886,-1.925 -1.183,-5.525 -1.5432,-8 -0.3602,-2.475 -1.2678,-7.65 -2.0169,-11.5 -0.749,-3.85 -2.3938,-15.1 -3.655,-25 -2.0517,-16.1054 -2.2893,-22.1049 -2.2574,-57 0.034,-36.739 0.1931,-40.1595 2.7516,-59 3.6787,-27.0909 7.7899,-47.9684 13.3903,-68 3.0102,-10.7666 13.7964,-43.5626 15.9511,-48.5 2.227,-5.1031 2.8755,-6.657 6.459,-15.478 4.8395,-11.9128 19.162,-40.407 27.1541,-54.022 33.3485,-56.8116 78.2108,-107.2631 131.7104,-148.1194 49.1257,-37.516 112.7603,-69.457 170,-85.3303 10.7694,-2.9865 25.1901,-6.69 30.5,-7.8329 20.7008,-4.4558 27.0005,-5.5969 42,-7.608 25.1804,-3.3762 27.6155,-3.5748 63,-5.138 14.2948,-0.6315 53.5591,0.8784 68.5,2.6342 16.6253,1.9538 44.8451,6.2545 51.5,7.8486 2.2,0.5269 7.15,1.6669 11,2.5331 47.2292,10.6268 100.7273,31.2809 140.8935,54.3949 4.8914,2.8148 9.0721,5.1178 9.2905,5.1178 0.2183,0 1.6163,0.8394 3.1065,1.8653 1.4902,1.0259 5.4095,3.559 8.7095,5.6291 32.2253,20.2148 60.8967,43.039 88.5681,70.5056 15.819,15.7019 26.2358,27.0098 34.0843,37 2.3765,3.025 4.8813,6.0865 5.5661,6.8033 2.6398,2.7629 18.2781,24.2023 25.212,34.5645 22.8798,34.192 43.6212,76.3571 56.6345,115.1322 8.0298,23.926 11.2204,35.9425 16.3293,61.5 4.2496,21.2589 4.5463,23.2759 7.3545,50 1.5985,15.2121 1.5792,74.0543 -0.029,89 -2.4961,23.1949 -6.6571,50.2084 -9.2421,60 -0.5082,1.925 -1.838,7.325 -2.9551,12 -4.0484,16.9414 -12.3283,43.3417 -18.1122,57.75 -7.3692,18.3576 -9.1153,22.4459 -13.9877,32.75 -24.2939,51.3768 -54.5266,94.6459 -94.9226,135.8532 -31.475,32.1071 -59.4597,54.8673 -94,76.4509 -26.6478,16.6517 -49.6126,28.5584 -75.771,39.2852 -8.101,3.3219 -15.629,6.4247 -16.729,6.8951 -18.5383,7.9273 -60.0081,19.6983 -87.8321,24.9309 -5.4077,1.0169 -10.1327,2.2395 -10.5,2.7168 -0.3674,0.4774 -0.5349,17.8554 -0.3724,38.6179 l 0.2955,37.75 h 2.8782 c 3.1226,0 4.4416,-0.2516 29.0308,-5.5372 36.6527,-7.8788 82.5402,-22.7685 112.775,-36.5935 3.4513,-1.5781 6.5466,-2.8693 6.8784,-2.8693 1.4072,0 30.2664,-14.4461 43.4901,-21.77 48.55,-26.8891 88.4927,-56.519 127.7013,-94.73 54.1703,-52.792 91.2204,-104.812 123.1226,-172.8694 3.3179,-7.0782 6.0326,-13.4007 6.0326,-14.05 0,-0.6493 0.3912,-1.6081 0.8694,-2.1306 2.2642,-2.4743 17.8371,-45.7554 22.2517,-61.8432 1.0726,-3.9088 2.6403,-9.5818 3.4838,-12.6068 2.7681,-9.927 6.3899,-26.2338 9.354,-42.1152 13.7384,-73.6088 12.0633,-155.6214 -4.6239,-226.3848 -1.4267,-6.05 -2.9558,-12.575 -3.398,-14.5 -1.2007,-5.2267 -3.6325,-13.8155 -6.937,-24.5 -1.1907,-3.85 -2.5376,-8.35 -2.9931,-10 -4.3999,-15.938 -18.1145,-49.0077 -31.5186,-76 -28.2844,-56.9571 -56.6468,-97.2078 -101.4883,-144.0278 -67.7814,-70.772 -151.629,-123.1638 -247,-154.3367 -8.525,-2.7865 -17.975,-5.7263 -21,-6.5329 -3.025,-0.8066 -9.1,-2.4459 -13.5,-3.6429 -9.8856,-2.6893 -29.2254,-7.0273 -40,-8.9722 -43.755,-7.8981 -69.7875,-10.1991 -115.5,-10.2088 -46.534,-0.01 -69.5477,2.0004 -116.5,10.177 -17.072,2.9731 -52.6487,12.035 -71.5,18.2122 -96.1278,31.4991 -177.9116,81.7985 -245.5,150.9895 -8.25,8.4456 -18.4013,19.1777 -22.5584,23.8491 -60.3163,67.7779 -105.9778,155.5974 -126.8639,243.9935 -9.9625,42.1642 -15.0486,86.1016 -15.0486,130 0,19.4686 1.9385,52.3698 3.9769,67.5 0.5928,4.4 1.4823,11.15 1.9766,15 3.7216,28.9884 13.7062,69.3376 25.3739,102.5399 5.0077,14.2504 15.602,41.0909 17.7058,44.8576 0.4923,0.8814 4.0388,8.1275 7.8811,16.1025 28.6322,59.4285 62.7977,106.9601 112.4914,156.5 20.858,20.7935 33.293,31.7968 55.5652,49.1681 67.8157,52.8929 152.449,92.4079 239.5,111.8216 12.9494,2.888 49.258,9.2439 53.75,9.4091 l 2.75,0.1012 v -40.2647 z m 138,-68.8591 c 10.725,-1.0814 21.975,-2.3706 25,-2.8647 11.2967,-1.8455 22.7137,-3.9776 29.5,-5.5091 3.85,-0.8688 8.8,-1.9834 11,-2.4768 2.2,-0.4933 5.575,-1.3232 7.5,-1.844 16.1372,-4.3666 20.6778,-5.6733 29,-8.3463 63.1282,-20.2761 125.5348,-55.8839 173.9863,-99.2728 3.0326,-2.7157 13.3994,-12.8407 23.0375,-22.5 14.7059,-14.7384 21.4061,-22.1714 34.3755,-38.1354 2.5141,-3.0946 15.3084,-20.5469 19.7402,-26.9271 16.898,-24.3268 32.1916,-52.7928 45.4772,-84.6467 3.6863,-8.8385 11.8098,-31.1753 13.4028,-36.8533 0.463,-1.65 1.5719,-5.475 2.4643,-8.5 17.3293,-58.7425 22.0852,-123.0192 13.8732,-187.5 -2.3007,-18.0657 -9.1523,-51.7775 -12.296,-60.5 -0.4955,-1.375 -1.6643,-5.2 -2.5973,-8.5 -8.7068,-30.7978 -27.5074,-73.6447 -45.2359,-103.0937 -7.1553,-11.8859 -22.4456,-34.9663 -26.4437,-39.9163 -0.884,-1.0945 -5.6874,-7.1015 -10.6743,-13.349 -33.6577,-42.166 -77.0067,-80.2807 -124.1098,-109.1236 -16.2466,-9.9484 -41.6922,-23.3533 -54.5,-28.7109 -3.3,-1.3805 -8.3828,-3.5923 -11.2951,-4.9153 -6.4412,-2.926 -11.8678,-4.9395 -33.2049,-12.3207 -49.9799,-17.2895 -103.7234,-26.0662 -159.6573,-26.0732 -20.5006,0 -27.314,0.3803 -54.8427,3.0824 -22.4601,2.2045 -51.7193,7.8333 -79.5,15.2939 -12.9789,3.4855 -47.0823,15.4193 -57.2049,20.0176 -2.9123,1.323 -8.2201,3.6252 -11.7951,5.1161 -11.1915,4.6672 -42.9393,21.3182 -52.8379,27.7123 -1.4642,0.9458 -4.0121,2.4695 -5.6621,3.3862 -9.9816,5.545 -37.5578,25.761 -55.5,40.6868 -11.004,9.1539 -37.8132,35.291 -49.0259,47.7968 -32.1869,35.8984 -62.8651,84.3403 -80.3726,126.9106 -2.6012,6.325 -5.1146,12.4 -5.5853,13.5 -0.4707,1.1 -2.0564,5.375 -3.5238,9.5 -1.4674,4.125 -3.3165,9.2292 -4.1092,11.3426 -3.3376,8.8992 -10.423,35.616 -13.8324,52.1574 -7.5466,36.6147 -10.9796,84.2929 -8.4244,117 1.24,15.8719 3.8341,40.1856 4.908,46 11.6589,63.1268 28.6564,109.7665 58.3109,160 20.4938,34.7155 41.4941,61.5408 72.0649,92.0537 33.8946,33.8305 64.377,57.1571 104.155,79.7044 39.544,22.4146 91.2475,42.3135 132.9348,51.1621 4.4,0.934 9.8,2.1192 12,2.6339 6.312,1.4768 33.9136,5.6803 46,7.0054 27.8641,3.055 72.163,2.9766 103.5,-0.1833 z"
         id="path5056" />
      <path
         style="fill:#000000;fill-opacity:1"
         d="m 1664.1998,2967.9503 c -1.3171,-0.5285 -3.2404,-2.959 -4.5,-5.6866 l -2.1998,-4.7637 -0.5,-329.4483 -0.5,-329.4483 -9.5,-1.3132 c -18.6474,-2.5777 -38.0988,-5.9944 -53,-9.3098 -1.925,-0.4283 -5.75,-1.2628 -8.5,-1.8545 -5.1764,-1.1138 -15.7676,-3.8067 -25.75,-6.5473 -3.1625,-0.8682 -8.1125,-2.212 -11,-2.9861 -15.3851,-4.1246 -52.9128,-17.6682 -72.6171,-26.2072 -16.2829,-7.0563 -18.6142,-8.1377 -33.3802,-15.4833 -82.349,-40.9661 -152.5031,-97.0667 -211.3147,-168.9834 -18.0164,-22.0312 -40.5682,-54.8236 -54.9611,-79.9186 -8.3231,-14.5119 -23.2156,-43.797 -28.4778,-56 -1.7788,-4.125 -4.0413,-9.3 -5.0277,-11.5 -10.5756,-23.5864 -24.4118,-66.2314 -31.7962,-98 -12.0735,-51.9414 -17.0058,-106.7298 -14.5617,-161.75 0.6414,-14.4375 1.4403,-28.5 1.7753,-31.25 0.335,-2.75 1.302,-10.85 2.1487,-18 6.294,-53.1444 24.368,-118.9912 45.1529,-164.5 1.3816,-3.025 4.6714,-10.225 7.3106,-16 10.3765,-22.7051 24.6033,-48.2557 40.3686,-72.5 72.1332,-110.9285 178.756,-197.2537 302.6304,-245.0191 5.225,-2.0147 10.4,-4.0658 11.5,-4.558 1.1,-0.4922 9.65,-3.4178 19,-6.5014 54.4655,-17.9625 103.9766,-27.5074 168,-32.3878 17.7403,-1.3523 61.1517,-1.3714 77.5,-0.034 47.0267,3.8469 70.2988,7.1146 104.5,14.673 15.871,3.5075 48.822,12.245 53.5423,14.1977 1.3517,0.5592 6.9577,2.409 12.4577,4.1107 5.5,1.7017 10.9,3.4849 12,3.9626 1.1,0.4777 6.95,2.7603 13,5.0724 82.1301,31.3872 154.2763,77.3677 217.4017,138.5552 32.9247,31.9139 59.7932,64.0785 84.9452,101.689 16.7136,24.9923 34.2906,56.1083 44.1966,78.2398 1.2309,2.75 3.7143,8.15 5.5187,12 3.2773,6.9926 12.9683,30.7735 14.4667,35.5 0.4359,1.375 2.1997,6.325 3.9196,11 6.0352,16.4049 13.5897,42.8768 19.5484,68.5 1.2696,5.4593 1.8676,8.4288 4.5311,22.5 3.0627,16.1794 6.0874,40.1687 8.0493,63.8388 1.3606,16.4165 1.3502,73.9229 -0.015,84.1612 -0.5501,4.125 -1.0141,10.1481 -1.0311,13.3847 -0.017,3.2366 -0.4641,8.6366 -0.9935,12 -0.5294,3.3634 -1.4792,10.1653 -2.1106,15.1153 -4.3305,33.9517 -14.3002,76.3583 -26.096,111 -5.169,15.1803 -13.8205,37.7032 -14.9614,38.95 -0.4782,0.5225 -0.8694,1.4958 -0.8694,2.1629 0,1.8198 -15.6818,35.3181 -22.4178,47.8871 -30.8834,57.6269 -64.6236,102.9307 -110.9685,149 -72.6363,72.2043 -156.6065,123.5674 -253.6137,155.1311 -16.9891,5.5278 -18.2981,5.9228 -31,9.3537 -4.125,1.1142 -8.85,2.4463 -10.5,2.9603 -1.65,0.5139 -6.6,1.6907 -11,2.6151 -4.4,0.9244 -9.575,2.0223 -11.5,2.4398 -11.8396,2.5679 -24.6862,5.0086 -34.4977,6.5539 -2.1987,0.3463 -4.3294,1.1509 -4.7347,1.7879 -0.4053,0.637 -0.7439,148.8964 -0.7523,329.4654 -0.011,240.015 -0.3181,329.5098 -1.1414,332.7792 -0.6193,2.4596 -2.3748,5.8089 -3.9012,7.4428 l -2.7751,2.9708 -79.3488,-0.063 c -45.9904,-0.037 -80.3158,-0.4514 -81.649,-0.9863 z M 1817,2613.3611 v -315.6389 l -6.25,0.6776 c -30.2095,3.275 -68.5945,4.5789 -102.25,3.4732 -13.75,-0.4517 -27.1375,-1.1165 -29.75,-1.4772 l -4.75,-0.6559 v 314.63 V 2929 h 71.5 71.5 z m -27.5,-352.8417 c 8.25,-0.8545 17.7,-1.8834 21,-2.2865 l 6,-0.7329 0.2616,-39.2273 0.2616,-39.2273 -2.7616,0.4333 c -22.5237,3.5344 -47.6628,4.8519 -79.7616,4.1802 -26.3418,-0.5512 -35.1247,-1.0744 -54.25,-3.2317 l -6.25,-0.705 v 40.0936 40.0936 l 3.25,0.5831 c 15.0701,2.7039 86.2387,2.721 112.25,0.027 z M 1657,2217.5 c 0,-22.275 -0.3375,-40.5068 -0.75,-40.5152 -4.1274,-0.084 -36.6521,-7.1476 -52.25,-11.3481 -19.86,-5.3483 -55.6331,-17.9229 -71.5,-25.1329 -51.7128,-23.4984 -90.569,-47.8145 -130,-81.3534 -13.3116,-11.3225 -47.9624,-46.1498 -58.3531,-58.6504 -17.5542,-21.1186 -32.3582,-41.9045 -47.3625,-66.5 -9.9479,-16.3071 -25.091,-46.4091 -30.9381,-61.5 -1.0655,-2.75 -2.6121,-6.4609 -3.437,-8.2464 -7.6461,-16.5513 -22.0927,-65.8838 -25.9906,-88.7536 -6.5239,-38.2767 -7.8176,-53.329 -7.8208,-91 0,-34.2236 0.5371,-42.6994 4.4911,-70.5 2.854,-20.0663 8.682,-48.4566 11.9063,-58 0.4646,-1.375 1.6104,-5.2 2.5463,-8.5 14.3695,-50.6682 41.3708,-105.2478 75.4439,-152.5 14.4835,-20.0855 43.0209,-52.0374 63.0145,-70.554 4.125,-3.8203 7.725,-7.1875 8,-7.4827 0.275,-0.2951 5,-4.3809 10.5,-9.0794 39.8518,-34.0444 90.371,-64.7332 138,-83.8306 17.6837,-7.0905 20.5644,-8.1502 35,-12.8762 17.0896,-5.5949 26.3511,-8.2917 38.5,-11.2106 13.5569,-3.2572 16.0361,-3.8097 24.5,-5.4598 14.6925,-2.8643 17.932,-3.4045 29.5,-4.9187 6.325,-0.828 15.55,-2.0865 20.5,-2.7967 6.279,-0.9009 22.4539,-1.2913 53.5,-1.2913 31.0461,0 47.221,0.3904 53.5,1.2913 4.95,0.7102 14.175,1.9662 20.5,2.791 6.325,0.8248 13.525,1.9018 16,2.3932 2.475,0.4915 7.425,1.3973 11,2.0129 26.3959,4.545 69.7944,17.3072 95.5,28.0836 1.1,0.4612 4.925,2.0302 8.5,3.4868 23.288,9.4884 48.031,22.2074 71.5,36.7541 12.601,7.8105 34.4847,22.4052 35.5,23.6758 0.275,0.3442 4.1,3.3497 8.5,6.6791 14.9028,11.2763 46.0159,38.5904 52.5362,46.1213 1.3949,1.6111 7.5264,8.2801 13.6256,14.8201 25.1514,26.9692 56.0777,70.0674 69.5266,96.8908 1.3788,2.75 4.5066,8.825 6.9507,13.5 11.735,22.4464 25.5454,56.8599 32.3052,80.5 0.9436,3.3 2.0775,7.125 2.5197,8.5 3.236,10.0619 7.6236,29.3902 11.1232,49 6.0419,33.8552 8.2667,81.392 5.476,117 -1.6844,21.4918 -3.676,38.739 -5.5427,48 -0.6097,3.025 -1.7569,9.1 -2.5493,13.5 -1.4353,7.9694 -6.8725,30.0403 -9.9774,40.5 -0.8979,3.025 -2.0045,6.85 -2.4591,8.5 -2.511,9.1138 -15.4083,42.6121 -21.6955,56.3498 -6.8462,14.959 -16.7043,33.9522 -21.9968,42.3803 -1.2883,2.0516 -2.3424,3.9285 -2.3424,4.1708 0,1.5447 -17.9223,28.795 -27.3593,41.5991 -16.6732,22.622 -27.8181,35.3807 -51.5497,59.0138 -53.1073,52.8869 -110.9181,90.1328 -182.091,117.316 -10.1096,3.8612 -35.9956,12.3468 -43,14.0956 -1.375,0.3433 -4.975,1.3316 -8,2.1963 -8.2829,2.3675 -25.379,6.2324 -35.5,8.0255 -4.95,0.877 -9.5625,2.0452 -10.25,2.5961 -0.9592,0.7686 -1.25,9.5616 -1.25,37.7974 0,20.2376 0.2423,37.4271 0.5384,38.1987 0.3551,0.9254 1.6314,1.2708 3.75,1.0146 4.1804,-0.5056 23.0033,-3.9845 28.4616,-5.2605 2.3375,-0.5464 6.3875,-1.4727 9,-2.0584 40.0148,-8.9711 91.2681,-27.5339 133.25,-48.2601 79.8358,-39.4145 157.6809,-103.9458 208.9262,-173.1938 2.4344,-3.2897 5.6207,-7.5562 7.0806,-9.4812 13.0085,-17.1528 33.663,-51.0665 45.9819,-75.5 8.024,-15.915 9.7346,-19.5376 16.5277,-35 7.4006,-16.8451 14.7976,-37.6331 23.4848,-66 3.6213,-11.8247 9.9625,-39.4165 12.8831,-56.0572 6.2434,-35.5715 8.3167,-60.1028 8.3203,-98.4428 0,-29.7207 -0.9465,-45.7378 -4.2858,-72.3204 -3.3262,-26.478 -10.1352,-60.106 -15.9309,-78.6796 -0.429,-1.375 -1.7752,-5.875 -2.9915,-10 -4.7833,-16.2224 -13.5536,-41.2013 -18.428,-52.485 -0.7164,-1.6582 -3.2409,-7.515 -5.6102,-13.015 -6.2817,-14.5826 -23.5794,-48.2131 -31.6323,-61.5 -26.5879,-43.8688 -53.1535,-77.8719 -88.3027,-113.0246 -17.5985,-17.6003 -23.347,-22.9038 -39.426,-36.3745 -51.7047,-43.3167 -109.996,-77.2294 -174.9319,-101.7717 -55.3157,-20.9063 -114.0346,-33.5322 -175.8527,-37.8123 -31.3967,-2.1738 -82.4922,-0.8052 -113.8126,3.0484 -9.5777,1.1785 -46.0835,7.1958 -53.5,8.8186 -2.2,0.4814 -7.6,1.6374 -12,2.569 -19.0031,4.0234 -53.3194,14.4949 -78,23.8015 -64.292,24.2431 -122.7792,58.4507 -175.5,102.6453 -16.6238,13.9354 -58.9382,56.3488 -72.4306,72.6003 -25.5586,30.785 -47.4599,62.9345 -64.0357,94 -2.6412,4.95 -6.0516,11.25 -7.5788,14 -3.5547,6.4012 -15.4039,32.6289 -21.4596,47.5 -13.0102,31.9497 -23.8705,69.5593 -30.32,105 -7.4255,40.8038 -9.6092,68.0724 -8.8488,110.5 0.7118,39.7153 2.5655,61.3198 7.615,88.75 0.5822,3.1625 1.4691,8.1125 1.9709,11 4.3256,24.8884 20.3793,80.1662 28.4519,97.9684 0.8184,1.8049 4.0387,9.3475 7.1562,16.7613 12.2539,29.1413 29.346,60.8256 48.2919,89.5203 50.5924,76.6256 124.7933,145.1271 205.1876,189.427 8.8697,4.8875 40.7715,20.8445 46.5,23.2589 2.2,0.9272 8.05,3.4538 13,5.6146 18.5572,8.1007 48.8199,18.7692 71,25.0296 25.1269,7.092 41.9172,10.8294 68,15.1364 3.85,0.6357 9.025,1.529 11.5,1.9851 2.475,0.4561 6.1875,0.8786 8.25,0.9388 L 1657,2258 Z m 137,-67.955 c 15.7304,-1.6992 21.6874,-2.5608 38.5,-5.5687 19.7772,-3.5384 27.351,-5.2702 49.504,-11.3197 12.1089,-3.3067 40.535,-13.2693 50.7351,-17.7814 2.3315,-1.0314 4.4376,-1.8752 4.6802,-1.8752 1.5945,0 35.1273,-16.2746 46.0807,-22.3646 13.7713,-7.6566 16.2701,-9.1211 21.8207,-12.789 3.2014,-2.1155 6.0169,-3.8464 6.2568,-3.8464 2.3675,0 44.7287,-31.9096 56.9225,-42.8784 65.2991,-58.7387 109.7902,-125.3065 135.758,-203.1216 11.306,-33.8797 17.6108,-63.3801 21.265,-99.5 3.0684,-30.3295 1.8323,-83.6272 -2.5627,-110.5 -1.9341,-11.8256 -4.0197,-23.4432 -4.9367,-27.5 -9.4329,-41.7271 -21.0156,-74.5488 -38.9952,-110.5 -11.2792,-22.5535 -28.8489,-51.2313 -41.3544,-67.5 -49.0699,-63.8363 -102.2812,-108.524 -170.1878,-142.9268 -25.6205,-12.9798 -59.9807,-26.4641 -84.9862,-33.3518 -2.2,-0.606 -6.25,-1.7629 -9,-2.5708 -7.9977,-2.3496 -32.2452,-7.7575 -41.5,-9.2558 -9.0041,-1.4576 -34.8181,-4.6557 -51.5,-6.3803 -12.9369,-1.3374 -59.957,-1.3276 -73.5,0.015 -40.1541,3.9817 -70.0902,9.0372 -92.5,15.6208 -2.75,0.8079 -6.8,1.9648 -9,2.5708 -7.6909,2.1184 -33.0684,10.6029 -41,13.7075 -8.844,3.4618 -9.4935,3.7346 -17.7773,7.4676 -3.1776,1.4319 -6.0344,2.6035 -6.3485,2.6035 -0.827,0 -32.9637,16.1004 -38.8742,19.4758 -71.6535,40.9207 -129.8977,96.3747 -171.9285,163.6925 -21.9265,35.1181 -39.6609,74.3576 -50.5425,111.8317 -1.1978,4.125 -2.5577,8.625 -3.0219,10 -2.0464,6.0604 -6.8289,28.5114 -10.0121,47 -3.2508,18.8816 -5.9936,52.0592 -5.9979,72.5522 0,19.6075 2.9,54.7593 5.9855,72.4478 5.1365,29.4473 9.4254,46.4318 18.6861,74 34.3819,102.3509 107.4445,192.1591 203.7432,250.4402 11.4457,6.9271 44.1594,24.0366 52.1224,27.2605 4.6631,1.8878 12.6747,5.3092 15.9637,6.8174 5.6063,2.5708 40.5927,14.7058 49.3048,17.1014 10.7784,2.9637 24.7101,6.453 31.6972,7.9388 21.8863,4.654 58.8958,9.703 79.5,10.8457 14.5003,0.8042 63.2378,-0.3725 77,-1.859 z"
         id="path5054" />
      <path
         style="fill:#000000;fill-opacity:1"
         d="m 1740.4185,2968.2438 -76.0815,-0.2562 -2.1192,-2.2558 C 1656.6949,2959.853 1657,2979.7796 1657,2624.9349 V 2298.29 l -9.25,-1.1952 c -10.8415,-1.4008 -20.0911,-2.8954 -38.75,-6.2614 -10.6808,-1.9268 -36.4492,-7.8115 -43.5,-9.9342 -1.65,-0.4967 -7.95,-2.2909 -14,-3.9871 -74.4051,-20.8606 -151.0453,-59.5695 -214.0644,-108.1179 -53.4747,-41.1957 -106.2249,-97.6408 -140.9232,-150.7942 -52.078,-79.7767 -83.9677,-165.5228 -95.5435,-256.8998 -3.5621,-28.1186 -4.3776,-42.2964 -4.3776,-76.1002 0,-56.3723 4.8398,-95.4057 18.785,-151.5 0.8204,-3.3 2.9084,-10.725 4.64,-16.5 1.7316,-5.775 3.5202,-11.85 3.9747,-13.5 1.7,-6.1709 9.3439,-27.3111 14.9742,-41.4129 36.7763,-92.1102 94.0783,-171.839 172.2249,-239.6305 18.9257,-16.4179 53.6706,-42.3307 70.9457,-52.9115 2.4003,-1.4701 6.8392,-4.2216 9.8642,-6.1145 39.6793,-24.8285 88.2204,-47.352 135.5,-62.8733 19.5163,-6.4069 21.6647,-7.0643 34.5,-10.5573 13.2605,-3.6087 15.9121,-4.2607 28.75,-7.07 2.3375,-0.5115 6.1625,-1.3806 8.5,-1.9314 7.4492,-1.7552 32.8362,-5.9772 45.25,-7.5253 6.6,-0.823 15.375,-1.9236 19.5,-2.4456 35.4252,-4.4831 104.3478,-4.5072 139,-0.049 4.125,0.5308 11.55,1.4502 16.5,2.0432 15.7759,1.89 36.5809,5.4555 52.5,8.9973 1.925,0.4283 5.975,1.3195 9,1.9804 9.3545,2.0439 12.2932,2.7503 18.5,4.4471 3.3,0.9021 7.8,2.116 10,2.6975 5.6457,1.4923 34.7232,10.6521 42.5,13.3881 96.6542,34.0042 183.7361,90.8834 253.5,165.5782 9.35,10.0108 17.675,18.9308 18.5,19.8222 5.1488,5.5629 23.3461,28.8481 32.4718,41.551 25.2732,35.1798 42.0467,64.0508 61.0121,105.0159 3.6959,7.9832 15.0447,35.7625 16.5455,40.5 0.4357,1.375 2.2086,6.325 3.9398,11 4.3185,11.6613 11.2969,34.9494 14.9828,50 5.7895,23.6398 10.8383,49.7987 13.0279,67.5 0.6123,4.95 1.5153,11.925 2.0067,15.5 1.8517,13.4716 2.5129,30.5584 2.4957,64.5 -0.017,34.4808 -0.7089,52.2077 -2.4966,64 -0.5003,3.3 -1.4072,10.05 -2.0153,15 -9.0405,73.5879 -36.8045,154.5647 -76.4587,223 -45.4124,78.373 -107.7402,145.6383 -185.5117,200.2079 -55.148,38.6954 -130.4548,74.0979 -192,90.2613 -4.675,1.2278 -9.625,2.6013 -11,3.0522 -2.4061,0.7891 -16.203,4.1472 -24.5,5.9631 -2.2,0.4815 -6.025,1.359 -8.5,1.9499 -4.8726,1.1633 -19.2613,3.7377 -27.8456,4.9819 -2.94,0.4262 -5.7456,1.4069 -6.2346,2.1793 -0.5141,0.812 -0.8956,139.7808 -0.9045,329.4729 -0.014,289.566 -0.1924,328.6649 -1.5245,333.1506 -2.1573,7.2643 -4.0235,9.0271 -9.9908,9.4372 -2.75,0.189 -39.2367,0.2284 -81.0815,0.088 z M 1817,2613.3872 v -315.6129 l -6.75,0.5514 c -3.7125,0.3033 -12.15,1.0397 -18.75,1.6365 -28.9103,2.6143 -84.9976,2.8637 -109.75,0.4881 l -7.75,-0.7438 V 2614.3533 2929 h 71.5 71.5 z m -56.5,-350.9299 c 26.4591,-1.3577 33.2254,-1.8957 50.75,-4.0351 l 5.75,-0.702 v -39.3945 -39.3946 l -5.25,0.5834 c -2.8875,0.3209 -7.95,0.9886 -11.25,1.4837 -25.9484,3.8935 -85.7248,3.4984 -120.25,-0.7947 -4.1446,-0.5154 -6.2575,-0.4279 -6.2722,0.2597 -0.3901,18.2156 0.306,79.2206 0.9109,79.8255 0.4644,0.4644 12.9419,1.4283 27.7278,2.142 14.7859,0.7137 27.3335,1.3464 27.8835,1.4061 0.55,0.06 14.05,-0.5611 30,-1.3795 z M 1657,2217.5997 v -40.4002 l -4.75,-1.0534 c -2.6125,-0.5794 -6.775,-1.3307 -9.25,-1.6696 -2.475,-0.339 -5.85,-0.9857 -7.5,-1.4373 -1.65,-0.4515 -6.6,-1.5963 -11,-2.5439 -8.8917,-1.9149 -41.8699,-10.9984 -45,-12.3948 -1.1,-0.4907 -6.275,-2.3229 -11.5,-4.0716 -5.225,-1.7486 -10.4,-3.5544 -11.5,-4.013 -1.1,-0.4585 -7.175,-2.9463 -13.5,-5.5284 -46.2146,-18.8661 -83.5765,-40.6588 -125.5065,-73.2062 -23.911,-18.5605 -59.455,-53.7539 -80.071,-79.2813 -29.4265,-36.4368 -54.162,-78.0207 -71.6773,-120.5 -5.8184,-14.111 -13.2287,-34.2163 -15.8487,-43 -5.0354,-16.8811 -10.0885,-36.9793 -12.8225,-51 -0.6435,-3.3 -1.5806,-8.025 -2.0824,-10.5 -0.8741,-4.3111 -2.2657,-14.919 -4.0666,-31 -0.4619,-4.125 -1.392,-17.5658 -2.0667,-29.8684 -1.5328,-27.9458 -0.2698,-56.1871 4.0308,-90.1316 0.5923,-4.675 1.5084,-10.75 2.0357,-13.5 0.5273,-2.75 1.4674,-7.7 2.0892,-11 5.2244,-27.7305 17.5181,-68.9507 26.6118,-89.229 0.7965,-1.7759 2.0595,-4.9259 2.8069,-7 1.533,-4.2547 9.404,-21.4467 12.9433,-28.271 11.8045,-22.7613 15.1903,-28.6603 29.0753,-50.6564 17.2665,-27.3532 50.2229,-66.4342 76.5329,-90.7558 3.5837,-3.3129 8.3158,-7.6773 10.5158,-9.6988 20.8989,-19.2031 60.6896,-47.8259 86.1253,-61.9529 3.2311,-1.7945 7.4497,-4.1625 9.3747,-5.2622 5.4873,-3.1347 34.9735,-17.6739 35.8436,-17.6739 0.4294,0 2.5528,-0.8408 4.7186,-1.8684 8.3244,-3.9497 11.304,-5.2075 22.8197,-9.633 11.9229,-4.582 16.287,-6.0981 31.1181,-10.8109 11.586,-3.6816 26.3088,-7.5907 46,-12.2138 13.1536,-3.0882 31.6437,-5.9961 58.5,-9.2002 11.4496,-1.366 22.8098,-1.73 54,-1.73 40.3851,0 48.9485,0.5448 79,5.0255 19.0243,2.8366 22.1222,3.4099 40.5,7.4957 25.0816,5.5762 65.301,18.5953 85.5,27.6766 3.025,1.36 7.5943,3.3009 10.1541,4.3132 5.9378,2.3482 32.3833,15.5464 40.692,20.3082 3.4903,2.0004 6.5206,3.6371 6.7339,3.6371 0.8751,0 27.5297,16.8352 35.42,22.3715 36.7916,25.815 65.8276,51.5385 94.5103,83.7284 12.9106,14.4893 29.1291,35.4906 40.3047,52.1904 6.0407,9.0268 15.185,23.6653 15.185,24.3088 0,0.2423 1.1645,2.2854 2.5878,4.54 2.4228,3.8379 7.6814,13.4854 13.006,23.8609 11.6732,22.7463 26.8764,61.2833 32.9415,83.5 0.9009,3.3 2.0778,7.575 2.6153,9.5 1.5176,5.4347 3.4211,13.5803 5.7251,24.5 1.1605,5.5 2.5463,12.025 3.0796,14.5 0.5333,2.475 1.6581,9.45 2.4995,15.5 0.8414,6.05 2.0003,14.375 2.5752,18.5 2.7905,20.0222 2.8371,88.2989 0.072,106 -0.5584,3.575 -1.5264,10.55 -2.1511,15.5 -2.024,16.0372 -9.7221,53.264 -12.9244,62.5 -0.4767,1.375 -1.6496,5.2 -2.6063,8.5 -4.4599,15.3832 -11.3461,34.8121 -16.0486,45.2796 -1.3046,2.9038 -2.3719,5.5296 -2.3719,5.8351 0,1.1007 -7.601,17.1896 -15.1644,32.0982 -36.6098,72.1633 -91.9128,134.9987 -162.3356,184.4462 -21.4317,15.0483 -40.4556,26.193 -67,39.2504 -11.354,5.5851 -22.2255,10.5905 -23.0023,10.5905 -0.2437,0 -2.8178,1.0647 -5.7204,2.3659 -7.6901,3.4476 -11.8921,5.0612 -25.2773,9.7067 -6.6,2.2907 -12.9,4.5423 -14,5.0037 -2.0644,0.8658 -14.1044,4.3652 -25.5,7.4113 -3.575,0.9557 -7.625,2.0991 -9,2.5409 -1.375,0.4419 -6.1,1.5654 -10.5,2.4966 -4.4,0.9312 -9.35,2.0659 -11,2.5214 -1.65,0.4556 -6.3739,1.3279 -10.4975,1.9384 -4.1236,0.6105 -7.8415,1.4541 -8.262,1.8746 -0.4206,0.4206 -0.6467,18.0617 -0.5026,39.2026 l 0.2621,38.4379 4,-0.2466 c 5.638,-0.3475 13.5663,-1.7904 29.25,-5.3234 2.6125,-0.5885 6.775,-1.5179 9.25,-2.0653 66.1238,-14.6251 146.4959,-50.1571 204,-90.187 10.4554,-7.2782 35.7887,-26.2211 37,-27.6666 0.275,-0.3282 3.2,-2.7608 6.5,-5.4058 24.0863,-19.3056 56.8916,-52.5283 81.5,-82.537 34.1341,-41.6249 62.6846,-89.5972 84.2537,-141.5683 19.6226,-47.2811 33.7049,-101.1301 38.704,-148 0.6453,-6.05 1.3456,-12.575 1.5563,-14.5 2.7725,-25.3345 3.0524,-74.5418 0.5633,-99 -3.7087,-36.4406 -6.5129,-54.1529 -12.7448,-80.5 -20.3586,-86.0712 -60.2337,-166.2485 -115.9266,-233.0946 -29.4196,-35.3113 -60.6097,-65.3774 -96.1199,-92.6562 -61.1851,-47.0021 -133.1288,-82.7507 -207.786,-103.2483 -37.5742,-10.3163 -75.2105,-16.7652 -119.5,-20.4764 -15.8844,-1.331 -75.6684,-1.3434 -89.2142,-0.018 -34.4742,3.3718 -44.6766,4.6458 -63.7858,7.9648 -32.6798,5.6761 -76.0681,17.4069 -102.4908,27.7104 -4.945,1.9283 -11.02,4.1948 -13.5,5.0366 -6.546,2.2221 -27.2972,11.3928 -44.0092,19.4494 -55.9257,26.9607 -105.1564,61.1548 -151.4293,105.1779 -39.0585,37.1594 -71.9751,78.3134 -99.3039,124.1548 -9.8716,16.5585 -29.444,55.6421 -35.3052,70.5 -2.2782,5.775 -4.9592,12.3 -5.9577,14.5 -2.2281,4.9089 -11.959,33.7341 -15.5287,46 -2.8101,9.6558 -3.9604,14.1164 -7.865,30.5 -2.4097,10.1107 -3.015,13.1067 -6.1357,30.3678 -8.6558,47.8766 -10.191,113.1125 -3.8744,164.6322 12.8426,104.748 56.3451,206.154 123.7645,288.5 47.595,58.1324 106.3585,107.3077 172.1354,144.0488 35.7481,19.9679 89.8258,42.5446 126,52.6032 18.8344,5.2371 23.7868,6.5072 34.5,8.848 3.025,0.6609 7.3,1.6075 9.5,2.1034 7.8954,1.7799 18.7795,3.7241 32.9394,5.8837 3.8167,0.5821 7.1542,1.2732 7.4167,1.5357 0.2625,0.2624 2.8772,0.4772 5.8106,0.4772 h 5.3333 v -40.4003 z m 143.3223,-68.5544 c 14.7101,-1.7802 35.2815,-5.0569 44.1777,-7.0368 2.2,-0.4896 7.6,-1.6404 12,-2.5574 4.4,-0.917 10.025,-2.2384 12.5,-2.9365 2.475,-0.6981 6.3,-1.7652 8.5,-2.3714 18.6144,-5.1291 48.747,-15.8312 65.5,-23.2635 9.4975,-4.2134 38.4487,-18.6951 47,-23.5099 13.9163,-7.8354 50.7316,-32.3117 53,-35.2365 0.275,-0.3546 2.3,-1.9633 4.5,-3.575 5.0327,-3.6868 21.2525,-17.364 28.4797,-24.0153 26.1674,-24.0819 47.266,-47.8132 65.8287,-74.043 5.06,-7.15 9.6482,-13.5435 10.1958,-14.2078 0.5477,-0.6643 0.9958,-1.504 0.9958,-1.866 0,-0.362 1.5154,-2.7435 3.3677,-5.2922 1.8522,-2.5487 5.3969,-8.234 7.8772,-12.634 2.4803,-4.4 5.5333,-9.8 6.7845,-12 11.6149,-20.4224 24.3381,-49.5104 34.3363,-78.5 5.1125,-14.8235 12.0666,-42.4342 15.1119,-60 0.9059,-5.225 1.8631,-10.4 2.1272,-11.5 0.8297,-3.4552 3.4266,-28.4223 4.4205,-42.5 2.6483,-37.5082 -1.0194,-87.4539 -8.9956,-122.5 -3.522,-15.4748 -6.1574,-25.8427 -8.0071,-31.5 -0.4496,-1.375 -1.5729,-5.2 -2.4964,-8.5 -0.9234,-3.3 -2.0585,-6.9 -2.5224,-8 -0.4639,-1.1 -2.057,-5.375 -3.5403,-9.5 -8.8117,-24.5053 -19.7498,-48.9727 -29.7287,-66.5 -2.192,-3.85 -5.1265,-9.025 -6.5212,-11.5 -16.0965,-28.5646 -41.2233,-61.5553 -67.7063,-88.8964 -44.0598,-45.4876 -93.261,-79.7291 -153.5073,-106.8333 -9.8612,-4.4364 -35.8204,-14.4078 -41,-15.7488 -1.375,-0.3559 -3.4,-1.0385 -4.5,-1.5167 -3.1977,-1.3903 -17.6733,-5.7409 -21.5,-6.4619 -1.925,-0.3627 -4.4,-1.0543 -5.5,-1.537 -1.9112,-0.8387 -10.2593,-2.881 -21,-5.1376 -2.75,-0.5777 -6.575,-1.4559 -8.5,-1.9514 -1.925,-0.4955 -6.875,-1.3848 -11,-1.9763 -4.125,-0.5916 -12,-1.7325 -17.5,-2.5354 -5.5,-0.803 -14.725,-1.9695 -20.5,-2.5924 -13.2192,-1.4256 -79.6408,-1.931 -91,-0.6923 -22.9618,2.5039 -49.7165,6.2555 -56,7.8523 -1.925,0.4892 -7.1,1.6475 -11.5,2.574 -12.302,2.5905 -40.1838,10.314 -45,12.4655 -1.1,0.4914 -3.575,1.3275 -5.5,1.8582 -3.7085,1.0222 -14.1443,4.627 -17.5,6.045 -1.1,0.4648 -4.025,1.6343 -6.5,2.5989 -2.475,0.9646 -6.8748,2.8184 -9.7773,4.1197 -2.9026,1.3012 -5.4905,2.3659 -5.751,2.3659 -0.8867,0 -34.9417,16.8714 -42.4717,21.0412 -16.1155,8.9241 -44.391,27.407 -56.3594,36.8404 -17.5113,13.8025 -31.7694,26.2101 -45.5272,39.6184 -67.0384,65.3356 -111.2642,145.605 -131.1302,238 -0.4731,2.2 -1.5382,8.275 -2.367,13.5 -0.8289,5.225 -1.9697,12.425 -2.5352,16 -4.7104,29.7765 -4.7816,94.5023 -0.1342,122 0.5113,3.025 1.6601,10 2.553,15.5 1.7341,10.6822 1.9657,11.8155 6.0296,29.5 4.412,19.1988 13.6793,48.5596 19.4117,61.5 0.4873,1.1 2.3325,5.5946 4.1004,9.988 3.7007,9.1962 13.8967,30.3402 20.259,42.012 30.2344,55.4661 75.9079,108.2422 128.6995,148.7134 14.5309,11.1398 38.6178,27.1014 52.5,34.7902 3.3,1.8277 7.575,4.2272 9.5,5.3321 4.2693,2.4507 28.7503,14.6643 29.3931,14.6643 0.2535,0 3.9812,1.6296 8.2839,3.6213 14.2352,6.5896 45.1488,17.8735 60.323,22.0187 11.8963,3.2498 27.7704,7.2268 33,8.2676 3.025,0.602 7.75,1.5725 10.5,2.1566 19.537,4.1499 51.7133,7.6858 79.5,8.7364 18.9078,0.7148 55.0149,-0.6607 72.3223,-2.7553 z"
         id="path5052" />
      <path
         style="fill:#000000;fill-opacity:1"
         d="m 1662.6931,2966.2134 c -0.8892,-0.9826 -2.4215,-3.5701 -3.405,-5.75 -1.7041,-3.7773 -1.8003,-19.4205 -2.047,-333.0771 l -0.2589,-329.1138 -5.6579,-1.1362 c -3.1118,-0.625 -7.1835,-1.1363 -9.0483,-1.1363 -1.8647,0 -5.2771,-0.4093 -7.5832,-0.9097 -2.306,-0.5003 -7.3428,-1.4325 -11.1928,-2.0716 -39.8053,-6.6077 -84.6058,-18.8369 -124.2077,-33.9048 -7.2642,-2.7639 -15.3642,-5.9957 -18,-7.1816 -2.6357,-1.1859 -7.1681,-3.2309 -10.0719,-4.5443 -2.9038,-1.3134 -5.5392,-2.388 -5.8564,-2.388 -0.3172,0 -8.2913,-3.753 -17.7203,-8.3401 -112.043,-54.5071 -206.5383,-141.5147 -268.2496,-246.994 C 1157.153,1951.6506 1133.036,1897.0541 1123,1862 c -0.7086,-2.475 -1.9078,-6.4557 -2.6649,-8.8459 -3.0956,-9.7733 -10.8572,-42.1786 -13.3301,-55.6541 -0.6056,-3.3 -1.4935,-8.025 -1.9732,-10.5 -0.8319,-4.292 -1.716,-10.3161 -3.9624,-27 -5.6942,-42.2903 -5.7047,-104.9014 -0.025,-149.5 1.8578,-14.5882 3.0759,-22.9538 3.9314,-27 0.4651,-2.2 1.3657,-7.15 2.0011,-11 1.3664,-8.278 2.9713,-16.0245 4.0403,-19.5 0.4228,-1.375 1.3281,-5.2 2.0116,-8.5 1.0678,-5.1551 7.1668,-27.6983 10.0103,-37 2.2658,-7.4121 5.1663,-16.1704 5.961,-18 0.4778,-1.1 1.8584,-4.925 3.068,-8.5 8.9441,-26.4344 30.0675,-71.1911 48.6121,-103 19.7109,-33.8093 45.2009,-68.2113 74.7459,-100.8787 21.6646,-23.9543 55.1911,-55.0641 79.074,-73.374 15.9564,-12.233 19.191,-14.6041 30.5,-22.3583 51.0183,-34.9811 104.0842,-61.1518 165.5,-81.6202 8.25,-2.7495 16.35,-5.3662 18,-5.8149 1.65,-0.4487 6.6,-1.7779 11,-2.9539 4.4,-1.176 9.575,-2.587 11.5,-3.1356 5.6263,-1.6033 17.4274,-4.3083 25.5,-5.8449 2.2,-0.4188 7.375,-1.4451 11.5,-2.2807 4.125,-0.8357 10.875,-2.0571 15,-2.7143 4.125,-0.6572 9.525,-1.5706 12,-2.0299 2.475,-0.4592 9.225,-1.3462 15,-1.971 5.775,-0.6248 13.875,-1.5444 18,-2.0434 34.8127,-4.212 99.857,-3.7692 140,0.953 12.9888,1.528 22.8618,2.8612 29.75,4.0176 3.4375,0.5771 8.8375,1.4767 12,1.9992 7.2708,1.2013 15.5974,2.785 20.75,3.9466 2.2,0.4959 6.475,1.4425 9.5,2.1034 7.5073,1.6403 11.8611,2.6877 16,3.8493 1.925,0.5402 8,2.1579 13.5,3.5948 10.5017,2.7437 15.673,4.2842 19,5.6601 1.1,0.455 5.15,1.7906 9,2.9681 12.0413,3.6829 14.566,4.5827 31.5,11.2265 69.0201,27.079 124.037,59.3482 180,105.5757 27.9849,23.1166 62.7432,58.2337 85.7403,86.6255 47.9806,59.2359 83.7456,125.062 106.7635,196.5 6.6297,20.5761 9.3007,29.7532 11.4962,39.5 0.6195,2.75 1.5314,6.575 2.0265,8.5 5.463,21.2409 10.6705,53.8424 13.5771,85 2.1955,23.5346 2.1879,79.7348 -0.014,103.5 -1.4349,15.4867 -4.882,43.0848 -5.9954,48 -0.2492,1.1 -0.9329,4.7 -1.5193,8 -1.2748,7.1739 -3.99,20.6274 -5.1464,25.5 -0.4569,1.925 -1.347,5.75 -1.9779,8.5 -0.631,2.75 -1.5113,6.575 -1.9564,8.5 -0.4451,1.925 -1.7782,6.65 -2.9625,10.5 -1.1843,3.85 -2.8224,9.475 -3.6403,12.5 -2.5303,9.3586 -10.3615,31.7892 -16.5837,47.5 -26.4504,66.787 -63.9035,127.7997 -111.1084,181 -7.4676,8.4161 -43.0093,44.2206 -50.6993,51.0742 -36.6491,32.6631 -78.72,62.4516 -119.8113,84.8329 -12.5734,6.8485 -38.134,19.571 -46.2034,22.9974 -2.4669,1.0475 -7.1853,3.1083 -10.4853,4.5795 -3.3,1.4713 -9.825,4.1447 -14.5,5.9408 -4.675,1.7962 -9.4,3.6402 -10.5,4.0977 -29.5692,12.3006 -95.5074,29.8716 -126.5,33.7093 -2.475,0.3065 -4.8306,1.0547 -5.2347,1.6627 -0.4041,0.608 -0.7416,148.5709 -0.75,328.8063 -0.011,232.5156 -0.3317,329.1759 -1.1044,332.7792 -0.599,2.7931 -2.214,6.4153 -3.5889,8.0492 l -2.4998,2.9708 h -80.7561 c -76.2708,0 -80.8459,-0.099 -82.373,-1.7866 z M 1817,2612.9882 v -316.0118 l -3.75,0.4649 c -11.4364,1.4181 -22.9431,2.5874 -32.25,3.2772 -11.2678,0.8351 -77.0291,1.0007 -96,0.2416 l -11.5,-0.4601 -0.256,313 c -0.1408,172.15 -0.042,313.5625 0.2186,314.25 0.3736,0.9839 15.7007,1.25 72.006,1.25 H 1817 Z m -61.5,-350.0006 c 25.1885,-0.994 39.4901,-2.0919 53.75,-4.1264 l 7.75,-1.1057 v -37.1777 c 0,-24.4596 0.3566,-37.5344 1.0424,-38.2202 0.7232,-0.7232 0.615,-1.3971 -0.3533,-2.2007 -1.0397,-0.8628 -3.6652,-0.8892 -10.2924,-0.1032 -34.4481,4.0854 -91.2445,4.1223 -125.8967,0.082 -3.85,-0.4489 -7.3375,-0.6365 -7.75,-0.4168 -0.996,0.5305 -0.9413,78.4321 0.056,80.0021 0.7836,1.2332 22.6586,3.0325 43.6938,3.5938 5.5,0.1468 10.675,0.3553 11.5,0.4633 0.825,0.108 12.75,-0.2476 26.5,-0.7902 z m -98.5,-45.4491 v -40.4614 l -3.75,-0.9472 c -2.0625,-0.5209 -6,-1.2375 -8.75,-1.5923 -2.75,-0.3548 -6.35,-1.0218 -8,-1.4823 -1.65,-0.4604 -6.6,-1.6184 -11,-2.5733 -4.4,-0.9548 -10.475,-2.3992 -13.5,-3.2095 -3.025,-0.8104 -7.75,-2.0594 -10.5,-2.7755 -6.7856,-1.767 -18.5499,-5.3931 -21,-6.4728 -1.1,-0.4848 -4.475,-1.6125 -7.5,-2.5061 -3.025,-0.8937 -6.2814,-2.0508 -7.2364,-2.5715 -0.9551,-0.5206 -2.2371,-0.9466 -2.8489,-0.9466 -0.6118,0 -2.5304,-0.6222 -4.2636,-1.3828 -1.7331,-0.7605 -4.7261,-1.953 -6.6511,-2.65 -4.8188,-1.7447 -8.517,-3.2812 -15.2773,-6.3471 -3.1776,-1.441 -5.9909,-2.6201 -6.2519,-2.6201 -1.0556,0 -30.2741,-14.1697 -36.4708,-17.6868 -1.925,-1.0926 -6.2,-3.4775 -9.5,-5.2998 -3.3,-1.8223 -8.3712,-4.8208 -11.2694,-6.6633 -2.8982,-1.8426 -5.5039,-3.3501 -5.7905,-3.3501 -0.2866,0 -1.7404,-0.833 -3.2306,-1.8511 -1.4902,-1.0181 -5.4041,-3.6056 -8.6976,-5.75 -7.3533,-4.7878 -26.8262,-18.4421 -27.5119,-19.2911 -0.275,-0.3406 -3.2,-2.6159 -6.5,-5.0564 -25.4469,-18.8192 -61.7736,-54.5263 -84.5,-83.0586 -1.925,-2.4168 -4.6498,-5.7664 -6.0551,-7.4435 -6.1051,-7.2858 -30.9449,-43.415 -30.9449,-45.0089 0,-0.2778 -1.8655,-3.5506 -4.1455,-7.2728 -8.9671,-14.639 -18.6054,-33.6564 -27.7571,-54.7676 -1.1922,-2.75 -2.6018,-5.7814 -3.1325,-6.7364 -0.5307,-0.9551 -0.9649,-2.1803 -0.9649,-2.7227 0,-0.5424 -1.081,-3.361 -2.4022,-6.2636 -1.3212,-2.9025 -2.6344,-6.1773 -2.9182,-7.2773 -0.2837,-1.1 -2.3995,-7.3697 -4.7017,-13.9327 -2.3021,-6.5629 -4.8324,-14.2129 -5.6228,-17 -0.7904,-2.787 -1.8974,-6.6423 -2.4601,-8.5673 -0.9414,-3.2208 -2.7424,-10.2761 -4.85,-19 -0.4651,-1.925 -1.7985,-8.45 -2.9632,-14.5 -1.1647,-6.05 -2.5631,-13.025 -3.1077,-15.5 -1.0454,-4.7507 -2.087,-13.2738 -4.5221,-37 -2.0368,-19.8452 -2.0231,-66.5108 0.026,-87.5 2.694,-27.5993 5.7404,-46.7883 10.5575,-66.5 2.3846,-9.7575 3.9334,-15.8369 4.8407,-19 0.5522,-1.925 1.5194,-5.525 2.1494,-8 0.63,-2.475 1.4955,-5.4 1.9234,-6.5 0.4279,-1.1 1.5527,-4.475 2.4996,-7.5 0.9468,-3.025 2.0984,-6.4 2.5589,-7.5 0.4606,-1.1 1.6022,-4.25 2.5369,-7 0.9347,-2.75 2.3197,-6.418 3.0777,-8.1511 0.758,-1.7332 1.3782,-3.4073 1.3782,-3.7204 0,-0.3131 1.125,-3.0287 2.5,-6.0348 1.375,-3.006 2.5,-5.706 2.5,-6 0,-1.0144 5.1702,-12.1435 12.8192,-27.5937 18.5943,-37.5588 43.9827,-75.3805 71.4898,-106.5 11.6773,-13.2109 39.3639,-40.3223 52.691,-51.5964 10.8874,-9.2102 37.3204,-29.5149 42.1835,-32.4036 0.9259,-0.55 6.1171,-3.925 11.536,-7.5 20.522,-13.539 46.585,-27.7393 70.2805,-38.292 1.925,-0.8573 6.1008,-2.7173 9.2796,-4.1334 3.1788,-1.416 6.0358,-2.5746 6.3489,-2.5746 0.3131,0 1.9872,-0.6222 3.7204,-1.3828 1.7331,-0.7605 4.7261,-1.953 6.6511,-2.65 1.925,-0.697 4.85,-1.8518 6.5,-2.5662 4.797,-2.0772 32.6597,-11.126 36.5,-11.854 1.925,-0.3649 4.4,-1.0506 5.5,-1.5238 1.1,-0.4732 5.15,-1.6042 9,-2.5134 3.85,-0.9092 8.575,-2.0491 10.5,-2.533 13.5436,-3.4046 35.947,-7.6252 48,-9.0427 36.8059,-4.3288 53.4939,-5.2615 83,-4.6391 26.1694,0.5521 44.3313,1.7045 57,3.617 3.575,0.5397 10.1,1.5119 14.5,2.1604 10.6752,1.5735 17.071,2.6339 22.5,3.7304 2.475,0.4999 7.425,1.4807 11,2.1796 3.575,0.699 7.175,1.5166 8,1.8169 0.825,0.3004 3.975,1.1547 7,1.8984 3.025,0.7438 7.075,1.7594 9,2.2571 1.925,0.4976 5.525,1.4248 8,2.0604 2.475,0.6355 5.4,1.5056 6.5,1.9335 1.1,0.4279 4.475,1.5527 7.5,2.4996 3.025,0.9468 6.4,2.0703 7.5,2.4965 1.1,0.4263 4.7,1.5953 8,2.5979 3.3,1.0026 6.45,2.1132 7,2.4679 0.55,0.3548 3.25,1.4399 6,2.4115 2.75,0.9716 6.418,2.3991 8.1511,3.1722 1.7332,0.7732 3.4073,1.4057 3.7204,1.4057 0.3131,0 3.1701,1.1586 6.3489,2.5746 3.1788,1.4161 7.3546,3.2731 9.2796,4.1267 13.9834,6.2008 46.061,22.979 58.4778,30.5869 20.3439,12.4649 47.3765,32.0117 65.0222,47.0164 14.0488,11.9462 37.1711,34.5456 49.8222,48.6954 12.7284,14.2363 15.3629,17.4475 26.9408,32.8389 3.1696,4.2136 6.3196,8.3399 7,9.1695 2.0103,2.4514 19.737,29.0127 19.737,29.5735 0,0.2828 1.6073,3.0268 3.5717,6.0977 8.7038,13.6062 26.0639,48.3261 32.4104,64.8204 1.693,4.4 3.5146,9.0125 4.0481,10.25 2.1194,4.917 2.9258,7.112 5.9698,16.25 1.7405,5.225 3.5279,10.4 3.9719,11.5 0.444,1.1 1.5816,4.925 2.5281,8.5 0.9465,3.575 2.0949,7.4 2.5521,8.5 0.4572,1.1 1.3331,4.25 1.9463,7 0.6133,2.75 1.5054,6.575 1.9823,8.5 0.9075,3.6625 4.3022,19.9268 5.9486,28.5 0.5281,2.75 1.6831,10.175 2.5665,16.5 0.8835,6.325 2.1459,14.65 2.8053,18.5 0.8076,4.7157 1.1989,21.3587 1.1989,51 0,29.6413 -0.3913,46.2843 -1.1989,51 -0.6594,3.85 -1.9192,12.175 -2.7996,18.5 -0.8804,6.325 -2.0067,13.525 -2.5031,16 -0.4963,2.475 -1.4271,7.2 -2.0685,10.5 -2.5552,13.147 -4.0229,19.2649 -8.3966,35 -2.1084,7.5854 -8.351,27.3543 -9.4733,30 -0.4667,1.1 -1.606,4.25 -2.5319,7 -0.9259,2.75 -2.0761,5.9 -2.5561,7 -0.48,1.1 -2.5129,6.05 -4.5177,11 -5.4111,13.3607 -15.3425,34.2681 -21.6134,45.5 -1.3818,2.475 -4.0049,7.2 -5.8291,10.5 -1.8242,3.3 -4.3731,7.567 -5.6643,9.4821 -1.2911,1.9152 -2.3475,4.0152 -2.3475,4.6667 0,0.6515 -0.3523,1.3345 -0.7828,1.5179 -0.4306,0.1833 -2.7586,3.4833 -5.1734,7.3333 -4.4697,7.1264 -22.8774,32.9558 -26.7249,37.5 -1.1642,1.375 -4.7236,5.65 -7.9097,9.5 -16.1455,19.5095 -40.3186,44.2946 -56.9092,58.3501 -4.95,4.1936 -10.125,8.6691 -11.5,9.9457 -1.375,1.2765 -5.875,4.8594 -10,7.9619 -4.125,3.1025 -7.725,5.9445 -8,6.3156 -0.4341,0.5857 -16.8292,12.2495 -21,14.9398 -0.825,0.5321 -4.1075,2.7719 -7.2944,4.9772 -3.1869,2.2053 -6.0043,4.0097 -6.2609,4.0097 -0.2566,0 -3.9492,2.1781 -8.2056,4.8402 -4.2565,2.6621 -10.4391,6.3356 -13.7391,8.1634 -3.3,1.8277 -7.575,4.2172 -9.5,5.31 -4.1368,2.3484 -20.5933,10.5541 -27,13.4631 -7.8347,3.5573 -27.3612,11.8626 -31,13.1854 -1.925,0.6998 -4.918,1.8946 -6.6511,2.6551 -1.7332,0.7606 -3.7957,1.3828 -4.5834,1.3828 -0.7877,0 -1.7056,0.2735 -2.0399,0.6077 -1.1976,1.1976 -31.5507,10.9358 -37.2256,11.9431 -2.2,0.3905 -4.45,1.0448 -5,1.454 -0.55,0.4091 -2.35,0.9937 -4,1.299 -1.65,0.3053 -5.925,1.2631 -9.5,2.1285 -11.9154,2.8843 -15.4423,3.623 -23.5864,4.9399 -4.4475,0.7192 -8.61,1.6312 -9.25,2.0267 -0.8516,0.5263 -1.1636,10.8692 -1.1636,38.5783 0,20.8226 0.2472,38.5035 0.5494,39.291 0.4281,1.1155 1.4771,1.2525 4.75,0.62 2.3103,-0.4464 9.1506,-1.7599 15.2006,-2.9188 15.0862,-2.8897 31.8551,-6.8301 47,-11.0441 5.0942,-1.4174 35.8825,-11.0915 38,-11.9401 5.2682,-2.1112 16.7472,-6.5029 23.5,-8.9906 4.125,-1.5197 10.425,-4.1217 14,-5.7821 3.575,-1.6605 9.3277,-4.1997 12.7837,-5.6427 7.938,-3.3142 28.6898,-13.6654 37.2163,-18.5638 3.575,-2.0538 9.2,-5.2035 12.5,-6.9995 38.7725,-21.1009 90.121,-60.2306 123.3617,-94.0065 40.1609,-40.8076 65.2015,-72.6856 91.1194,-116 31.2703,-52.2591 56.4499,-117.2135 68.0329,-175.5 2.2499,-11.3215 5.2445,-28.8573 6.0624,-35.5 2.557,-20.766 3.0414,-26.4619 4.3374,-51 1.2101,-22.911 1.2037,-30.089 -0.048,-53 -0.796,-14.575 -1.658,-28.3 -1.9156,-30.5 -2.8828,-24.6228 -4.1495,-33.1332 -7.4419,-50 -12.4538,-63.8008 -37.1119,-127.6817 -70.8313,-183.5 -25.3282,-41.9278 -49.4073,-72.5618 -86.8569,-110.5013 -37.9834,-38.4804 -83.783,-73.4128 -130.3205,-99.3985 -8.4083,-4.695 -42.1824,-21.5705 -49.045,-24.5056 -2.4502,-1.048 -6.705,-2.9214 -9.455,-4.163 -23.5897,-10.6508 -73.1722,-27.1613 -97.5,-32.4666 -11.2727,-2.4583 -14.9066,-3.2593 -18.5,-4.0779 -2.2,-0.5011 -6.475,-1.3332 -9.5,-1.8491 -3.025,-0.516 -8.2,-1.4283 -11.5,-2.0275 -9.5907,-1.7413 -24.1282,-3.7471 -36,-4.9669 -6.05,-0.6216 -15.275,-1.6145 -20.5,-2.2064 -10.9448,-1.2398 -76.1191,-1.5624 -89.5,-0.443 -28.5685,2.3899 -42.701,4.0089 -58,6.6445 -6.6,1.137 -14.475,2.488 -17.5,3.0022 -3.025,0.5143 -7.3,1.3451 -9.5,1.8462 -2.2,0.5012 -6.25,1.3789 -9,1.9506 -19.6673,4.0885 -60.7071,16.2879 -78.1989,23.2453 -4.2906,1.7066 -9.8206,3.7902 -12.2889,4.6303 -2.4684,0.8401 -7.3171,2.8233 -10.7751,4.4071 -3.4579,1.5838 -6.5058,2.8796 -6.773,2.8796 -1.8554,0 -44.3438,20.8566 -54.793,26.8966 -4.8558,2.8069 -9.0292,5.1034 -9.2741,5.1034 -2.2081,0 -48.2622,30.523 -59.397,39.3662 -3.575,2.8392 -8.3,6.4834 -10.5,8.0982 -24.0541,17.6556 -70.1996,63.0217 -94.6342,93.0356 -33.1361,40.7025 -66.0424,96.0343 -83.8647,141.0183 -1.7392,4.3899 -3.7654,9.3317 -4.5026,10.9817 -3.1487,7.048 -11.7379,32.1681 -15.8995,46.5 -6.2131,21.3973 -10.3604,38.8301 -13.6793,57.5 -1.8392,10.3457 -2.3719,13.9202 -4.9556,33.25 -2.0066,15.0125 -3.935,47.9686 -3.935,67.25 0,17.1456 1.9918,54.0664 3.3718,62.5 0.2699,1.65 1.0107,7.275 1.646,12.5 3.8989,32.0641 13.8421,74.1885 25.4926,108 3.9916,11.5843 16.8574,44.0582 19.017,48 0.7534,1.375 4.296,8.575 7.8727,16 31.0669,64.4945 73.3003,120.9043 129.1903,172.5553 32.7679,30.2826 72.493,59.343 107.8805,78.9187 3.85,2.1298 8.575,4.7696 10.5,5.8663 14.4787,8.2486 54.214,26.5625 73,33.6455 4.675,1.7626 9.4,3.5956 10.5,4.0734 2.453,1.0653 28.8515,9.8699 33,11.0062 1.65,0.452 4.575,1.2661 6.5,1.8091 23.4238,6.6077 47.746,12.0198 70.5,15.6877 5.5,0.8866 10.1875,1.7978 10.4167,2.0249 0.2291,0.2271 3.2666,0.4129 6.75,0.4129 h 6.3333 v -40.4615 z m 120.4398,-66.5929 c 10.9669,-0.5614 21.7669,-1.4429 24,-1.9588 2.2331,-0.5158 6.0852,-0.9514 8.5602,-0.9679 2.475,-0.017 6.075,-0.4619 8,-0.9898 1.925,-0.5278 6.65,-1.4023 10.5,-1.9432 9.6513,-1.3559 18.3462,-3.1476 36.5,-7.5212 14.8926,-3.5879 39.6465,-11.114 46.6511,-14.1837 1.7332,-0.7596 3.7807,-1.381 4.55,-1.381 0.7694,0 1.8264,-0.3581 2.3489,-0.7959 0.5225,-0.4377 2.75,-1.3895 4.95,-2.1151 4.0565,-1.3378 5.4575,-1.9162 15.7796,-6.5144 3.1788,-1.416 6.0357,-2.5746 6.3485,-2.5746 1.2569,0 28.6227,-13.7471 39.8719,-20.0295 15.3894,-8.5945 41.4884,-25.1336 47.1053,-29.8508 0.6079,-0.5105 4.6907,-3.5588 9.0727,-6.774 4.3821,-3.2151 10.3736,-7.8707 13.3144,-10.3457 2.9409,-2.475 8.5332,-7.193 12.4273,-10.4844 8.7341,-7.3822 37.8521,-36.3571 46.7454,-46.5156 8.4592,-9.6627 18.576,-22.4183 27.1021,-34.1715 7.7679,-10.7079 7.8213,-10.7834 9.4565,-13.3831 14.3059,-22.7432 18.5592,-29.8941 24.0562,-40.4454 1.8625,-3.575 4.441,-8.525 5.7299,-11 3.068,-5.891 8.673,-18.086 11.4904,-25 1.2327,-3.025 3.0193,-7.3 3.9703,-9.5 0.951,-2.2 3.1757,-8.275 4.9438,-13.5 1.7681,-5.225 3.6223,-10.2599 4.1204,-11.1887 0.4981,-0.9287 1.783,-4.9787 2.8553,-9 1.0723,-4.0212 2.8384,-10.2363 3.9246,-13.8113 1.7022,-5.6023 4.119,-15.642 8.1845,-34 3.1941,-14.4226 6.239,-41.536 7.8978,-70.3247 1.3265,-23.0211 -1.1095,-60.7602 -5.9175,-91.6753 -1.0393,-6.6825 -3.6088,-19.6737 -4.3754,-22.122 -0.2374,-0.7579 -1.1909,-4.978 -2.1189,-9.378 -0.928,-4.4 -2.0558,-9.125 -2.5062,-10.5 -0.4504,-1.375 -1.5846,-5.2 -2.5205,-8.5 -5.1977,-18.3275 -15.2183,-45.5187 -22.48,-61 -1.5479,-3.3 -4.1827,-8.925 -5.8551,-12.5 -4.0304,-8.6157 -12.8022,-24.8574 -17.9672,-33.2676 -2.2858,-3.7222 -4.1561,-7.2097 -4.1561,-7.75 0,-0.5403 -0.45,-0.9824 -1,-0.9824 -0.55,0 -1,-0.4018 -1,-0.8929 0,-1.7594 -22.0672,-33.5409 -28.9237,-41.6564 -1.417,-1.6771 -4.1513,-5.0453 -6.0763,-7.4849 -5.7331,-7.2657 -20.0566,-22.7526 -35.0419,-37.8883 -6.7665,-6.8344 -27.9528,-25.6563 -34.9581,-31.0567 -2.475,-1.908 -4.725,-3.7081 -5,-4.0002 -2.9295,-3.1118 -37.5032,-26.9409 -44.25,-30.4982 -2.0625,-1.0875 -3.75,-2.3249 -3.75,-2.7498 0,-0.4249 -0.3932,-0.7726 -0.8738,-0.7726 -0.4805,0 -5.768,-2.8153 -11.75,-6.2562 -5.9819,-3.4409 -14.7012,-8.1328 -19.3762,-10.4265 -16.86,-8.2719 -23.344,-11.3173 -24.0955,-11.3173 -0.4207,0 -3.6089,-1.3087 -7.0847,-2.9082 -6.6206,-3.0467 -28.5216,-11.4276 -32.8198,-12.5593 -1.375,-0.362 -3.4,-1.0334 -4.5,-1.4919 -9.9416,-4.1444 -46.0301,-13.3239 -65.5,-16.6606 -16.7202,-2.8656 -19.6306,-3.2922 -29.5,-4.3243 -5.5,-0.5752 -14.5,-1.5689 -20,-2.2084 -12.8264,-1.4913 -70.2717,-1.4931 -81.5,0 -4.675,0.6206 -13.225,1.608 -19,2.1943 -5.775,0.5862 -12.75,1.4556 -15.5,1.9319 -2.75,0.4763 -9.05,1.5361 -14,2.3551 -30.6047,5.064 -77.2008,18.8545 -102.2796,30.2706 -2.9038,1.3218 -5.5202,2.4033 -5.8141,2.4033 -1.3763,0 -28.2509,12.9953 -38.9063,18.8133 -5.9675,3.2583 -17.9342,10.1898 -24.9927,14.4765 -11.2349,6.8231 -46.4591,31.9977 -51.6139,36.8883 -0.7664,0.727 -4.3184,3.7715 -7.8934,6.7655 -14.9833,12.5481 -46.5875,45.0287 -60.8696,62.5574 -15.8116,19.4058 -34.0764,46.5104 -45.1484,66.999 -7.247,13.4104 -17.5526,34.5503 -20.9623,43 -1.7756,4.4 -4.0226,9.8 -4.9935,12 -0.9709,2.2 -2.0773,5.125 -2.4586,6.5 -0.3813,1.375 -1.1039,3.4 -1.6057,4.5 -1.3128,2.8778 -8.3639,24.8464 -10.4313,32.5 -0.9656,3.575 -2.1096,7.625 -2.542,9 -0.4325,1.375 -1.5303,6.1 -2.4397,10.5 -0.9093,4.4 -2.0566,9.575 -2.5494,11.5 -0.8153,3.1843 -2.4291,12.3936 -4.9942,28.5 -0.5255,3.3 -1.185,8.925 -1.4655,12.5 -0.2805,3.575 -0.8542,9.875 -1.2749,14 -2.0218,19.8246 -0.3036,82.4039 2.7044,98.5 0.5139,2.75 1.6487,9.725 2.5217,15.5 0.8731,5.775 1.9873,12.075 2.4762,14 0.4889,1.925 2.067,8.675 3.5068,15 1.4399,6.325 3.2199,13.3 3.9557,15.5 0.7358,2.2 2.1096,6.7 3.0529,10 1.9864,6.9492 6.2917,20.0862 7.5375,23 0.4703,1.1 2.5123,6.275 4.5378,11.5 2.0255,5.225 4.5881,11.525 5.6948,14 4.3562,9.7421 7.9609,17.6162 9.156,20 3.0105,6.0051 12.9126,24.5905 13.586,25.5 0.4073,0.55 2.1961,3.646 3.9753,6.88 5.3449,9.7155 30.3978,46.1307 34.6899,50.4227 0.7537,0.7537 2.6011,3.016 4.1052,5.0273 6.675,8.9255 24.9612,28.7395 39.4447,42.7404 28.9483,27.9836 63.0889,53.5778 97.2902,72.9355 7.9347,4.4911 34.4629,17.8527 40.5,20.399 3.025,1.2759 7.525,3.1938 10,4.262 6.0663,2.6183 7.741,3.3032 13,5.316 2.475,0.9473 5.2814,2.1262 6.2364,2.6198 0.9551,0.4935 2.2371,0.8973 2.8489,0.8973 0.6118,0 2.5304,0.6067 4.2636,1.3482 1.7331,0.7415 5.6261,2.1297 8.6511,3.0849 3.025,0.9552 6.4,2.1109 7.5,2.5683 1.1,0.4574 2.9,1.064 4,1.3479 1.1,0.2839 4.475,1.2494 7.5,2.1456 9.3182,2.7606 24.2695,6.6541 29,7.552 2.475,0.4697 7.875,1.5908 12,2.4911 8.9045,1.9436 23.4016,4.27 34.5,5.5362 4.4,0.502 8.5319,1.1148 9.1821,1.3618 0.6501,0.247 6.5001,0.744 13,1.1043 6.4998,0.3604 17.6679,1.0168 24.8179,1.4586 13.1684,0.8137 15.3561,0.7684 50.9398,-1.0533 z"
         id="path5050" />
    </g>
  </g>
</svg>
