<?xml version="1.0" encoding="UTF-8" standalone="no"?>
<!-- Created with Inkscape (http://www.inkscape.org/) -->

<svg
   version="1.1"
   id="svg5086"
   width="3464"
   height="3464"
   viewBox="0 0 3464 3464"
   sodipodi:docname="26 00000.svg"
   inkscape:version="1.2.2 (732a01da63, 2022-12-09)"
   xmlns:inkscape="http://www.inkscape.org/namespaces/inkscape"
   xmlns:sodipodi="http://sodipodi.sourceforge.net/DTD/sodipodi-0.dtd"
   xmlns="http://www.w3.org/2000/svg"
   xmlns:svg="http://www.w3.org/2000/svg">
  <defs
     id="defs5090" />
  <sodipodi:namedview
     id="namedview5088"
     pagecolor="#ffffff"
     bordercolor="#000000"
     borderopacity="0.25"
     inkscape:showpageshadow="2"
     inkscape:pageopacity="0.0"
     inkscape:pagecheckerboard="0"
     inkscape:deskcolor="#d1d1d1"
     showgrid="false"
     inkscape:zoom="0.2289261"
     inkscape:cx="1729.8159"
     inkscape:cy="1736.3682"
     inkscape:window-width="1920"
     inkscape:window-height="986"
     inkscape:window-x="-11"
     inkscape:window-y="-11"
     inkscape:window-maximized="1"
     inkscape:current-layer="g5092" />
  <g
     inkscape:groupmode="layer"
     inkscape:label="Image"
     id="g5092">
    <path
       style="fill:#000000;stroke-width:1.40046"
       d="m 1608.2208,2436.23 v -398.3973 l -8.0732,-0.8435 c -21.0368,-2.1975 -61.8849,-8.1476 -84.1935,-12.2642 -2.9602,-0.5463 -8.8423,-1.6105 -13.071,-2.3652 -45.3612,-8.0949 -105.8022,-24.2366 -156.8537,-41.8902 -114.0238,-39.4303 -213.6809,-93.2741 -301.2786,-162.7784 -67.51044,-53.5662 -115.89684,-103.6269 -162.90974,-168.5459 -17.05579,-23.552 -47.17438,-72.8168 -56.99828,-93.232 -6.61666,-13.7503 -9.22734,-18.9708 -13.32955,-26.6552 -0.74899,-1.403 -5.15704,-11.7337 -9.79581,-22.9573 -34.92738,-84.5072 -50.24576,-161.0948 -50.25388,-251.2532 0,-75.9284 11.31984,-142.5684 36.39015,-214.1004 7.34398,-20.9537 20.55044,-53.04729 25.38574,-61.6906 1.66358,-2.9735 3.02459,-6.15879 3.02459,-7.0784 0,-0.9195 0.58608,-2.21713 1.30224,-2.88352 0.71615,-0.66638 3.57739,-6.09 6.35853,-12.05243 7.91923,-16.97898 39.96461,-70.0894 55.02216,-91.191 40.04291,-56.11621 81.87531,-101.65225 136.41005,-148.48649 22.7318,-19.52187 21.0573,-18.15643 40.1215,-32.71918 116.9023,-89.30001 254.1759,-152.27226 409.7288,-187.95738 92.8176,-21.29313 181.3292,-30.39029 282.1829,-29.00253 79.9605,1.10015 136.7258,6.52277 209.1379,19.97783 33.5653,6.23695 89.7659,19.90627 118.4093,28.80013 16.3507,5.07684 45.955,14.76821 52.2844,17.11597 3.3831,1.25486 11.3413,4.14529 17.6844,6.42341 31.2102,11.20806 84.0763,34.52959 116.8715,51.55653 105.3372,54.6907 196.6512,124.5394 269.3812,206.05794 43.2635,48.49151 83.423,107.02333 108.5081,158.14929 2.9254,5.96254 6.6824,13.3342 8.3486,16.38149 9.232,16.88484 31.4413,74.06404 38.7172,99.67974 7.6427,26.9062 8.9189,32.0864 14.9244,60.5814 2.7676,13.1322 6.3352,37.8018 9.262,64.0484 2.156,19.3343 2.1568,103.6611 0,115.7827 -0.8733,4.9102 -1.6013,12.1997 -1.6182,16.1985 -0.017,3.9989 -0.658,10.0251 -1.4251,13.3917 -0.767,3.3665 -2.1941,11.8601 -3.1713,18.8749 -0.9773,7.0146 -2.384,15.3366 -3.1265,18.4932 -0.7422,3.1567 -2.1858,9.7568 -3.208,14.6671 -3.7247,17.8935 -15.3142,57.904 -22.7199,78.437 -40.9225,113.4613 -107.9114,212.5948 -202.5329,299.7184 -73.1292,67.3345 -160.4481,125.08 -254.3988,168.2385 -31.7528,14.5864 -89.3215,37.0944 -116.8712,45.6938 -4.6518,1.4522 -13.3018,4.1879 -19.2223,6.0795 -11.838,3.7825 -42.0157,12.2306 -57.6666,16.1435 -17.0876,4.272 -52.3628,12.1052 -61.9672,13.7605 -3.5554,0.6125 -16.8442,2.892 -29.5308,5.0655 -12.6867,2.1734 -24.6238,4.2434 -26.5266,4.6001 l -3.4601,0.6483 v 401.0883 401.0881 h -147.6269 -147.6271 z m -0.3671,-501.6571 -0.4016,-51.9153 -13.8402,-2.1418 c -16.0813,-2.4882 -31.556,-5.3287 -44.5955,-8.1853 -32.4432,-7.1078 -39.391,-8.7415 -52.0452,-12.2389 -16.3518,-4.5191 -34.2698,-9.7927 -38.6838,-11.3851 -1.6916,-0.6102 -10.6876,-3.6563 -19.9911,-6.7689 -175.8824,-58.8436 -324.8537,-173.3805 -406.7915,-312.7623 -32.22844,-54.8226 -53.17814,-107.7787 -66.06414,-166.9944 -8.3908,-38.5591 -9.841,-54.4668 -9.8247,-107.7711 0.016,-47.615 0.244,-51.7725 4.1788,-75.7978 9.5672,-58.4184 22.8582,-100.9987 48.19754,-154.4114 9.8489,-20.7603 36.1516,-65.48885 49.8752,-84.81403 66.3525,-93.43559 164.2665,-174.21901 278.9352,-230.13395 21.694,-10.57853 61.6695,-27.69234 77.658,-33.24593 5.4974,-1.90965 12.7636,-4.53441 16.1466,-5.8329 35.5994,-13.66371 106.9024,-31.86452 156.8537,-40.03856 26.5271,-4.34081 39.3393,-5.9533 75.351,-9.48296 43.0662,-4.22118 128.2514,-4.22972 170.6938,-0.0179 41.8694,4.15577 50.1602,5.26204 86.1157,11.49121 51.332,8.89309 107.4062,23.78769 154.5469,41.0511 21.8028,7.98449 57.4123,22.71509 72.7813,30.10742 7.4673,3.59164 13.9145,6.53028 14.3271,6.53028 0.4127,0 3.0185,1.43482 5.7905,3.1885 2.7722,1.75367 5.522,3.1885 6.111,3.1885 0.5886,0 2.9454,1.07745 5.237,2.3944 2.2917,1.31685 12.8166,7.14696 23.3888,12.95575 19.694,10.82035 49.0542,29.2293 70.3099,44.08387 29.6522,20.72278 74.9099,58.91404 96.5741,81.49573 3.3639,3.50631 6.9687,7.12398 8.0108,8.03909 4.9759,4.37091 29.0112,31.98255 40.7422,46.80467 19.7998,25.01713 30.638,40.80134 47.2905,68.87152 24.7889,41.78499 43.3199,83.77259 55.4446,125.62679 1.7271,5.9624 3.8229,13.1365 4.657,15.9424 5.4302,18.2688 10.9131,48.9861 14.4555,80.9878 2.4298,21.9478 2.1053,88.4005 -0.5352,109.6841 -4.64,37.398 -12.1127,72.0394 -21.7347,100.7564 -29.5946,88.3248 -75.4257,163.3973 -141.3189,231.4847 -17.9726,18.5709 -26.665,26.5626 -53.8932,49.5489 -70.1722,59.2394 -145.1409,102.7539 -237.6039,137.9138 -29.5045,11.2195 -83.6587,27.732 -110.7591,33.7725 -27.0675,6.0329 -46.6914,10.0205 -66.5088,13.5141 l -3.4601,0.6101 v 49.7405 49.7405 l 3.4601,-0.6118 c 57.475,-10.1638 89.8782,-17.2061 125.7134,-27.3221 137.4792,-38.809 251.0435,-96.2761 351.9363,-178.0913 83.4442,-67.666 141.7134,-136.0671 190.1332,-223.1947 11.0702,-19.9194 32.4117,-66.1907 37.7949,-81.9442 2.2039,-6.4491 4.3571,-12.6873 5.9433,-17.2179 33.3481,-95.2603 41.4816,-201.857 23.1852,-303.8636 -5.6745,-31.6364 -15.2177,-67.4813 -24.6178,-92.4662 -0.6598,-1.7537 -2.0716,-5.7711 -3.1375,-8.9277 -2.7386,-8.1112 -5.0813,-13.9574 -12.0097,-29.9719 -49.4981,-114.40875 -128.6888,-212.95439 -237.8491,-295.98201 -97.9911,-74.53193 -212.2106,-129.57732 -339.916,-163.8141 -25.3382,-6.79289 -56.31,-14.15358 -69.8897,-16.60962 -16.289,-2.94618 -22.9058,-4.15206 -28.449,-5.18487 -26.955,-5.02226 -76.6131,-10.79726 -120.7156,-14.03857 -26.6886,-1.96142 -117.4132,-1.97635 -145.3203,-0.0243 -39.7624,2.7819 -93.7612,8.80089 -115.3335,12.85575 -8.6967,1.63468 -19.6624,3.68207 -27.2956,5.0965 -30.3702,5.62744 -80.5106,18.12938 -111.8733,27.89434 -30.3366,9.44534 -27.7814,8.58572 -53.0535,17.84855 -103.9269,38.09103 -192.8547,87.70233 -271.2255,151.31175 -75.9456,61.64099 -128.59534,120.87938 -174.68724,196.54779 -38.67223,63.48775 -65.15285,128.46059 -79.23939,194.42029 -0.97371,4.5596 -2.36349,10.8728 -3.08856,14.0294 -0.72496,3.1567 -1.74086,8.6089 -2.25767,12.1162 -0.51681,3.5074 -1.61835,10.9684 -2.44789,16.5802 -5.95973,40.3136 -7.44574,93.8628 -3.787,136.4676 1.88402,21.9403 6.96244,59.4961 9.14057,67.5961 0.37715,1.403 1.47902,6.2813 2.44834,10.8409 15.25565,71.7517 47.0605,146.1102 91.9196,214.9044 40.7694,62.5219 88.56354,114.932 154.73994,169.6843 61.5057,50.8877 125.5531,91.003 200.8269,125.7851 16.7274,7.7294 68.0057,29.1193 69.8078,29.1193 0.4614,0 4.8082,1.5058 9.6599,3.3464 31.745,12.043 89.2296,28.8509 129.6704,37.9148 37.6346,8.4348 64.1257,13.059 110.7201,19.3269 6.3434,0.8533 12.0599,1.6314 12.7039,1.7289 0.6438,0.097 0.9899,-23.1844 0.7689,-51.7377 z m 212.581,-86.5517 c 13.9553,-1.0158 29.5253,-2.3922 34.6,-3.0587 24.024,-3.1554 39.6486,-5.4861 53.0534,-7.9137 8.0349,-1.455 16.3389,-2.9298 18.4533,-3.2771 2.1146,-0.3472 12.4945,-2.6109 23.0668,-5.0301 84.5941,-19.3575 161.1996,-48.9352 232.2048,-89.6562 37.412,-21.4555 62.5108,-39.0733 100.8353,-70.7804 25.9621,-21.4793 36.0943,-30.742 56.5348,-51.6822 39.354,-40.3166 76.5135,-93.3898 102.2455,-146.033 6.1979,-12.6798 16.3114,-36.0523 18.7637,-43.3636 0.7058,-2.1044 2.4131,-6.9828 3.7937,-10.8409 8.7659,-24.492 17.9132,-60.5909 21.3299,-84.1762 5.0176,-34.6382 5.8852,-46.1545 5.8706,-77.9112 -0.043,-91.5744 -23.0665,-173.4905 -71.8415,-255.60534 -45.42,-76.46684 -103.9006,-137.77491 -187.5542,-196.62239 -45.9064,-32.29358 -117.9792,-69.43941 -171.4623,-88.37024 -6.3435,-2.24534 -14.3933,-5.15721 -17.8889,-6.47073 -7.1554,-2.68893 -15.0031,-5.11167 -45.9291,-14.17911 -32.908,-9.64851 -73.7857,-18.66429 -106.1069,-23.40239 -7.6119,-1.11586 -17.3,-2.54786 -21.5289,-3.18225 -42.8297,-6.4247 -129.0001,-9.63487 -172.3486,-6.42074 -65.0203,4.82101 -90.1265,8.2795 -149.0474,20.53187 -9.6469,2.00594 -31.9712,7.54818 -35.369,8.78059 -1.6916,0.61347 -9.3036,2.86735 -16.9156,5.00836 -19.5839,5.50856 -32.4725,9.56625 -42.5748,13.40367 -4.8093,1.82662 -9.1461,3.32126 -9.6379,3.32126 -3.5578,0 -70.2358,28.39621 -87.686,37.34299 -95.1855,48.80169 -169.2505,107.03149 -230.714,181.38765 -31.6401,38.27711 -64.1395,92.5772 -82.8222,138.3807 -13.1315,32.1934 -18.3605,49.5749 -28.5848,95.0171 -4.0301,17.9118 -9.3032,69.9185 -9.311,91.8287 0,20.9913 5.4778,74.8877 9.3457,91.8286 0.8007,3.5074 2.8262,12.4032 4.5011,19.7687 18.135,79.7518 60.906,160.9151 121.3147,230.2092 28.4623,32.6486 82.6395,81.0875 118.9709,106.3697 35.8371,24.9382 77.4009,48.9068 116.4826,67.1718 13.1751,6.1577 57.5803,24.7829 59.0857,24.7829 0.4458,0 5.499,1.7905 11.2294,3.9788 29.0788,11.1054 97.8992,30.1655 124.9829,34.6144 2.1145,0.3473 10.4185,1.8221 18.4535,3.2771 13.6014,2.4631 30.8842,5.0338 53.0533,7.8909 45.9307,5.9196 122.1484,7.2306 179.1515,3.0815 z"
       id="path5096" />
  </g>
</svg>
