<?xml version="1.0" encoding="UTF-8" standalone="no"?>
<!-- Created with Inkscape (http://www.inkscape.org/) -->

<svg
   version="1.1"
   id="svg437"
   width="3464"
   height="3464"
   viewBox="0 0 3464 3464"
   sodipodi:docname="4000000.svg"
   inkscape:version="1.2.2 (732a01da63, 2022-12-09)"
   xmlns:inkscape="http://www.inkscape.org/namespaces/inkscape"
   xmlns:sodipodi="http://sodipodi.sourceforge.net/DTD/sodipodi-0.dtd"
   xmlns="http://www.w3.org/2000/svg"
   xmlns:svg="http://www.w3.org/2000/svg">
  <defs
     id="defs441" />
  <sodipodi:namedview
     id="namedview439"
     pagecolor="#ffffff"
     bordercolor="#000000"
     borderopacity="0.25"
     inkscape:showpageshadow="2"
     inkscape:pageopacity="0.0"
     inkscape:pagecheckerboard="0"
     inkscape:deskcolor="#d1d1d1"
     showgrid="false"
     inkscape:zoom="0.2289261"
     inkscape:cx="939.16772"
     inkscape:cy="1736.3682"
     inkscape:window-width="1920"
     inkscape:window-height="986"
     inkscape:window-x="-11"
     inkscape:window-y="-11"
     inkscape:window-maximized="1"
     inkscape:current-layer="g443" />
  <g
     inkscape:groupmode="layer"
     inkscape:label="Image"
     id="g443">
    <g
       id="g447"
       style="fill:#000000"
       transform="matrix(1.6988681,0,0,1.556125,-1169.2349,-930.44688)">
      <path
         style="fill:#000000;fill-opacity:1"
         d="m 1029,1732 v -703 h 702.9818 702.9817 l 0.2683,50.25 c 0.1475,27.6375 0.1516,343.9875 0.01,703 l -0.259,652.75 h -702.991 -702.991 v -703 z m 552,240.06 v -399.94 l -5.25,-3.6122 c -2.8875,-1.9867 -23.925,-15.9438 -46.75,-31.0157 -22.825,-15.072 -43.525,-28.8041 -46,-30.5158 -2.475,-1.7117 -25.65,-17.1067 -51.5,-34.2111 -25.85,-17.1044 -70.4,-46.6614 -99,-65.6821 -28.6,-19.0207 -52.45,-34.8081 -53,-35.0831 -1.2122,-0.6061 -6.6116,-4.1732 -8,-5.2852 -0.55,-0.4405 -19.225,-12.8539 -41.5,-27.5853 -22.275,-14.7314 -61.2,-40.4975 -86.5,-57.2581 -25.3,-16.7605 -47.2375,-31.2485 -48.75,-32.1956 l -2.75,-1.7219 V 1809.9769 2372 h 244.5 244.5 z m 141.7514,45.3506 -0.2514,-354.5895 -5.9896,-2.5258 c -5.0014,-2.1091 -35.0272,-21.3592 -67.5104,-43.2822 -32.1734,-21.7139 -41.8897,-27.743 -42.4321,-26.3296 -0.8069,2.103 -0.7086,779.8425 0.099,780.6498 0.3666,0.3667 26.6923,0.6667 58.5014,0.6667 h 57.8347 l -0.2514,-354.5894 z M 1871,1976.393 c 0,-368.43 -0.1142,-395.5632 -1.6625,-394.969 -0.9144,0.3509 -15.4269,9.7741 -32.25,20.9405 -71.2603,47.2992 -83.9925,55.6605 -85.7426,56.3075 -1.0147,0.3752 -2.1755,1.1649 -2.5796,1.7551 -0.4041,0.5901 -0.7416,160.9354 -0.75,356.3229 L 1748,2372 h 61.5 61.5 z m 501,-166.4055 v -562.0126 l -4.25,2.671 c -5.4272,3.4108 -23.3236,15.2453 -27.25,18.0199 -1.65,1.1659 -21.225,14.1659 -43.5,28.8888 -34.5816,22.8572 -67.1417,44.3961 -122.976,81.35 -6.3117,4.1775 -11.9367,7.9497 -12.5,8.3827 -0.5632,0.433 -4.624,3.1432 -9.024,6.0227 -4.4,2.8795 -9.35,6.1806 -11,7.3358 -2.7342,1.9142 -49.6507,32.976 -126.5,83.7514 -16.225,10.72 -31.525,20.8893 -34,22.5984 -2.475,1.7091 -21.15,14.11 -41.5,27.5576 -20.35,13.4477 -37.7875,25.3993 -38.75,26.5593 -1.6603,2.001 -1.75,22.8358 -1.75,406.4983 V 2372 h 236.5 236.5 z m -618.749,-257.8168 c 10.5869,-7.0561 39.049,-25.9318 63.249,-41.946 24.2,-16.0141 46.025,-30.5091 48.5,-32.211 2.475,-1.7019 22.05,-14.7034 43.5,-28.8922 21.45,-14.1888 58.575,-38.7688 82.5,-54.6222 23.925,-15.8534 65.1,-43.1193 91.5,-60.5908 26.4,-17.4715 50.025,-33.1589 52.5,-34.8608 2.475,-1.7019 22.05,-14.7155 43.5,-28.919 21.45,-14.2036 59.7,-39.5408 85,-56.3049 48.593,-32.1985 68.4174,-45.2612 93.2049,-61.4149 l 15.205,-9.9089 0.045,-25.2508 0.045,-25.2508 -639.75,0.2508 -639.75,0.2508 -0.2673,24.6897 -0.2674,24.6898 38.7674,25.8637 c 21.322,14.225 43.4923,29.0373 49.2673,32.9162 14.4631,9.7143 40.2839,26.7212 41.5023,27.3353 0.5512,0.2779 6.4012,4.0728 13,8.433 70.3011,46.453 90.6603,59.936 94.4977,62.5817 6.1737,4.2566 81.0055,53.8055 81.8339,54.1852 0.3663,0.168 24.0661,15.8722 52.6661,34.8982 28.6,19.0261 69.775,46.3455 91.5,60.7097 21.725,14.3642 41.525,27.5145 44,29.2229 2.475,1.7083 22.95,15.2943 45.5,30.1911 22.55,14.8967 50.9,33.7356 63,41.8641 12.1,8.1284 23.0129,14.8106 24.251,14.8492 1.3005,0.041 10.378,-5.3464 21.5,-12.7591 z"
         id="path467" />
      <path
         style="fill:#000000;fill-opacity:1"
         d="m 1029,1732 v -703 h 703 703 v 703 703 h -703 -703 z m 552,239.7128 v -400.2872 l -38.2399,-25.4628 c -21.032,-14.0045 -38.6945,-25.6878 -39.25,-25.9628 -0.5556,-0.275 -19.9101,-13.1 -43.0101,-28.5 -23.1,-15.4 -42.45,-28.225 -43,-28.5 -1.2247,-0.6124 -89.6088,-59.2509 -94.5,-62.6961 -1.925,-1.356 -6.3937,-4.3415 -9.9304,-6.6346 -8.369,-5.4261 -77.3403,-51.1074 -87.0696,-57.668 C 1190.0672,1311.7708 1093.3828,1248 1092.5793,1248 1092.2607,1248 1092,1500.9 1092,1810 v 562 h 244.5 244.5 z m 141.9986,45.5372 V 1662.5 l -5.65,-2.3023 c -3.1076,-1.2663 -10.8694,-5.7525 -17.2486,-9.9692 -6.3792,-4.2168 -12.3742,-8.1308 -13.322,-8.6977 -0.9479,-0.5669 -4.4496,-2.9433 -7.7814,-5.2808 -3.3319,-2.3375 -6.2126,-4.25 -6.4016,-4.25 -0.189,0 -14.8666,-9.675 -32.6168,-21.5 -17.7502,-11.825 -32.6564,-21.5 -33.1249,-21.5 -0.4686,0 -0.8519,176.175 -0.8519,391.5 V 2372 h 58.5 58.5 v -354.75 z m 148.2527,-40 c -0.1369,-217.1125 -0.2494,-395.3283 -0.25,-396.0352 -10e-4,-1.015 -0.4743,-1.0376 -2.2513,-0.1075 -2.0504,1.0731 -77.1704,50.6519 -86.0294,56.7788 -2.0787,1.4377 -4.5537,3.0778 -5.5,3.6447 -0.9463,0.5669 -6.8956,4.4395 -13.2206,8.6057 -6.325,4.1662 -12.5125,8.1057 -13.75,8.7544 l -2.25,1.1795 V 2016.0352 2372 h 61.75 61.75 z M 2372,1809.5631 v -562.4368 l -20.25,13.3879 c -11.1375,7.3633 -22.275,14.79 -24.75,16.5037 -2.475,1.7138 -21.825,14.5456 -43,28.5151 -21.175,13.9696 -41.875,27.6753 -46,30.4571 -8.0434,5.4243 -82.6908,54.8429 -85.3588,56.5099 -0.8803,0.55 -4.6472,3.0804 -8.3709,5.6231 -8.3743,5.7185 -96.1198,63.941 -98.4909,65.3526 -0.9463,0.5634 -3.4213,2.2014 -5.5,3.6402 -2.0787,1.4387 -21.1044,14.0778 -42.2794,28.0868 -21.175,14.0091 -51.8305,34.2964 -68.1234,45.083 -16.2928,10.7865 -29.9053,20.3467 -30.25,21.2449 -0.3446,0.8981 -0.6266,183.6212 -0.6266,406.0512 V 2372 h 236.5 236.5 z m -611.1505,-261.9013 c 15.2078,-10.086 29.6273,-19.6485 32.0435,-21.25 2.4161,-1.6015 5.1161,-3.3687 6,-3.9271 0.8838,-0.5583 17.132,-11.3583 36.107,-24 18.975,-12.6416 34.9331,-23.1666 35.4624,-23.3888 0.5293,-0.2223 3.9212,-2.5154 7.5376,-5.0959 3.6164,-2.5805 7.0083,-4.8736 7.5376,-5.0959 0.5293,-0.2222 20.5374,-13.4094 44.4624,-29.3048 23.925,-15.8954 61.725,-40.9641 84,-55.7082 22.275,-14.744 43.875,-29.0969 48,-31.8952 4.125,-2.7984 20.5905,-13.7297 36.59,-24.2919 15.9995,-10.5622 31.4515,-20.779 34.3379,-22.704 2.8864,-1.925 5.9959,-3.9592 6.91,-4.5203 0.9142,-0.5612 7.6608,-5.0612 14.9926,-10 7.3318,-4.9389 14.082,-9.4297 15.0004,-9.9797 2.5613,-1.5339 60.7731,-40.149 68.4119,-45.3814 3.7085,-2.5402 7.5349,-5.0686 8.5031,-5.6186 0.9682,-0.55 17.734,-11.6163 37.2572,-24.5918 19.5233,-12.9754 42.2469,-28.0005 50.4969,-33.389 8.25,-5.3885 19.6561,-12.8847 25.3468,-16.6582 5.6908,-3.7736 10.7533,-6.861 11.25,-6.861 0.5144,0 0.9032,-11.1912 0.9032,-26 v -26 h -640 -640 l 0.015,24.75 c 0.01,13.6125 0.3459,25.2214 0.75,25.7976 0.4041,0.5761 18.7347,13.0387 40.7347,27.6946 22,14.6558 41.575,27.7625 43.5,29.126 1.925,1.3634 11.6,7.754 21.5,14.2013 33.8904,22.071 38.0744,24.827 81,53.354 23.65,15.7171 43.45,28.8015 44,29.0765 1.2813,0.6406 67.8111,44.7431 76.7428,50.8727 3.7085,2.545 7.5335,5.0788 8.5,5.6306 1.6485,0.9412 33.6703,22.1858 128.7362,85.4089 21.9884,14.6233 40.4215,26.7697 40.9624,26.9919 0.5408,0.2223 3.9422,2.5154 7.5586,5.0959 3.6164,2.5805 7.0083,4.8736 7.5376,5.0959 0.5293,0.2222 16.4874,10.7472 35.4624,23.3888 18.975,12.6417 35.2742,23.4417 36.2205,24 0.9463,0.5584 5.2213,3.3779 9.5,6.2656 30.1553,20.3515 55.9885,37.1779 57.129,37.2108 0.7423,0.021 13.7923,-8.2133 29,-18.2993 z"
         id="path465" />
      <path
         style="fill:#000000;fill-opacity:1"
         d="m 1029,1732 v -703 h 703 703 v 703 703 h -703 -703 z m 551.7512,239.2907 -0.2512,-400.7093 -20.5,-13.6143 c -11.275,-7.4879 -37.6,-24.9307 -58.5,-38.7617 -20.9,-13.831 -41.375,-27.4217 -45.5,-30.2016 -12.4481,-8.389 -99.1791,-65.8906 -99.8635,-66.2083 -0.8181,-0.3798 -84.9814,-56.2676 -95.9023,-63.683 -4.5462,-3.0869 -9.0553,-6.0625 -10.0202,-6.6125 -0.9649,-0.55 -25.8203,-17.0181 -55.2342,-36.5957 -49.707,-33.0846 -98.8153,-65.5651 -101.7298,-67.2848 -0.9994,-0.5897 -1.25,112.0476 -1.25,561.8215 V 2372 h 244.5012 244.5013 z M 1723,2017.0469 v -354.9531 l -3.75,-1.6065 c -8.7692,-3.7567 -15.2618,-7.9308 -100.4181,-64.5586 -6.4175,-4.2675 -11.93,-7.4973 -12.25,-7.1773 -0.3201,0.3201 -0.5819,176.6819 -0.5819,391.9153 V 2372 h 58.5 58.5 z m 149,-40.9879 c 0,-217.7675 -0.3455,-396.1545 -0.7679,-396.4155 -0.4223,-0.261 -8.4098,4.5982 -17.75,10.7983 -65.587,43.5372 -97.5599,64.5934 -101.2244,66.6626 l -4.2423,2.3956 -0.01,356.25 -0.01,356.25 h 62 62 v -395.941 z m 500,-166.618 c 0,-449.7679 -0.2506,-562.4134 -1.25,-561.8328 -0.6875,0.3995 -19.9089,13.1385 -42.7143,28.3091 -22.8054,15.1705 -41.9304,27.8077 -42.5,28.0827 -0.5696,0.275 -16.5607,10.85 -35.5357,23.5 -18.975,12.65 -35.2817,23.45 -36.237,24 -0.9554,0.55 -8.1554,5.3252 -16,10.6115 -7.8447,5.2864 -35.863,23.9216 -62.263,41.4117 -26.4,17.49 -69.825,46.2751 -96.5,63.9668 -26.675,17.6917 -63.35,41.9709 -81.5,53.9538 -18.15,11.9828 -34.125,22.5614 -35.5,23.5079 -1.375,0.9465 -6.775,4.5794 -12,8.0732 -5.225,3.4937 -9.8306,6.8299 -10.2347,7.4136 -0.4041,0.5838 -0.7416,183.424 -0.75,406.3115 L 1899,2372 h 236.5 236.5 z m -627.7752,-250.2916 c 42.1198,-28.0818 85.3466,-56.733 86.2229,-57.1494 0.5788,-0.275 21.0773,-13.8175 45.5523,-30.0944 46.0078,-30.5971 117.786,-78.2146 183,-121.4018 20.625,-13.6587 61.35,-40.6607 90.5,-60.0046 110.0909,-73.056 179.638,-119.0523 201,-132.9353 8.25,-5.3617 16.4594,-10.7194 18.2432,-11.9062 l 3.2431,-2.1577 0.01,-25.75 0.01,-25.75 h -640 -640 v 25.4416 25.4417 l 13.75,9.2336 c 7.5625,5.0784 19.15,12.8262 25.75,17.2171 6.6,4.391 18.3,12.2277 26,17.4149 15.433,10.3965 38.4747,25.6564 60,39.7363 7.7,5.0367 19.4,12.6898 26,17.0069 6.6,4.3172 35.175,23.2255 63.5,42.0186 76.3517,50.6578 141.9222,94.1101 183,121.2706 20.075,13.2735 39.875,26.4206 44,29.2158 4.125,2.7952 25.05,16.6953 46.5,30.8892 96.4203,63.8032 129.6869,85.8645 139,92.1799 5.5,3.7297 11.0012,6.8156 12.2248,6.8575 1.2237,0.042 6.8487,-3.0065 12.5,-6.7743 z"
         id="path463" />
      <path
         style="fill:#000000;fill-opacity:1"
         d="m 1029,1732 v -703 h 703 703 v 703 703 h -703 -703 z m 552,239.2422 v -400.7578 l -25.75,-17.1123 c -14.1625,-9.4117 -36.4615,-24.2582 -49.5533,-32.9921 -13.0918,-8.734 -24.518,-16.33 -25.3916,-16.88 -4.3978,-2.7689 -47.9429,-31.5336 -48.8051,-32.2393 -0.55,-0.4502 -3.925,-2.6905 -7.5,-4.9785 -3.575,-2.2881 -8.525,-5.5541 -11,-7.2578 -2.475,-1.7038 -23.175,-15.4258 -46,-30.4934 -22.825,-15.0676 -43.525,-28.7968 -46,-30.5095 -2.475,-1.7126 -23.175,-15.4362 -46,-30.4967 -22.825,-15.0605 -43.525,-28.7774 -46,-30.4819 -17.5694,-12.1 -135.6999,-90.0429 -136.4692,-90.0429 -0.292,0 -0.5308,253.125 -0.5308,562.5 V 2372 h 244.5 244.5 z m 142,45.4553 v -355.3024 l -4.8734,-1.7525 c -4.4198,-1.5893 -27.6532,-15.9932 -35.7134,-22.141 -1.8039,-1.3759 -3.4688,-2.5016 -3.6999,-2.5016 -0.2311,0 -16.3116,-10.575 -35.7345,-23.5 -19.4229,-12.925 -35.6888,-23.5 -36.1466,-23.5 -0.4577,0 -0.8322,176.4 -0.8322,392 v 392 h 58.5 58.5 z M 1872,1975.5 c 0,-220.7975 -0.3813,-396.5 -0.8605,-396.5 -0.4732,0 -2.4289,1.0644 -4.3459,2.3653 -1.917,1.3009 -3.8923,2.5384 -4.3895,2.75 -0.4973,0.2116 -24.3041,15.9454 -52.9041,34.964 -28.6,19.0186 -54.1375,35.8239 -56.75,37.345 L 1748,1659.19 V 2015.595 2372 h 62 62 z m 500,-166.4053 v -562.9052 l -32.75,21.752 c -18.0125,11.9636 -54.35,36.0693 -80.75,53.5683 -70.6404,46.8231 -134.8223,89.3917 -170.4912,113.0781 -17.3201,11.5016 -32.2573,21.3621 -33.1938,21.9121 -0.9365,0.55 -6.7905,4.4253 -13.0089,8.6119 -6.2183,4.1865 -32.9061,21.9111 -59.3061,39.3879 -26.4,17.4769 -55.875,37.0152 -65.5,43.4186 l -17.5,11.6425 -0.2512,406.2195 L 1898.9976,2372 H 2135.4988 2372 Z m -637.6843,-243.2418 c 1.2014,-0.6309 17.2593,-11.1361 35.6843,-23.3448 78.6235,-52.0973 140.9211,-93.4235 175.4843,-116.4107 20.3414,-13.5286 37.4414,-24.8224 38,-25.0974 0.5586,-0.275 17.8859,-11.75 38.5051,-25.5 20.6191,-13.75 38.2684,-25.45 39.2206,-26 0.9521,-0.55 3.4319,-2.1878 5.5106,-3.6397 2.0787,-1.4518 24.0294,-16.0398 48.7794,-32.4177 24.75,-16.378 62.325,-41.2832 83.5,-55.3451 21.175,-14.0619 39.2529,-26.0239 40.1731,-26.5823 2.4548,-1.4896 19.6024,-12.8668 24.8269,-16.4724 2.475,-1.708 15.5474,-10.4039 29.0497,-19.3242 23.5315,-15.546 31.2983,-20.6384 64.2003,-42.0936 l 14.75,-9.6184 V 1118.0033 1092 h -640 -640 l 0.011,25.75 0.011,25.75 38.1637,25.5 c 70.9291,47.3929 103.1735,68.7209 109.6098,72.5014 0.9377,0.5508 13.1799,8.6165 27.2049,17.9238 14.025,9.3074 48.45,32.1196 76.5,50.6939 28.05,18.5743 53.025,35.1597 55.5,36.8564 7.8309,5.3685 80.454,53.5018 81.5117,54.0245 0.5565,0.275 19.0065,12.468 41,27.0956 21.9936,14.6276 63.1633,41.9332 91.4883,60.6791 28.325,18.7459 53.525,35.4859 56,37.2 11.9717,8.2914 61.5995,40.9182 62.3157,40.9683 0.4487,0.031 1.7987,-0.4592 3,-1.0901 z"
         id="path461" />
      <path
         style="fill:#000000;fill-opacity:1"
         d="m 1029,1732 v -703 h 703 703 v 703 703 h -703 -703 z m 552.3954,638.4121 c 0.3351,-0.8734 0.4958,-181.1424 0.357,-400.5979 l -0.2524,-399.0099 -2.5,-1.994 c -1.375,-1.0967 -22.3,-15.0738 -46.5,-31.0603 -49.5058,-32.7034 -121.506,-80.4366 -174.4626,-115.6615 -19.5045,-12.9737 -35.9272,-23.7753 -36.495,-24.0035 -0.5678,-0.2283 -3.2847,-1.9919 -6.0374,-3.9192 -2.7528,-1.9272 -6.13,-4.2867 -7.505,-5.2431 -1.375,-0.9565 -22.75,-15.1245 -47.5,-31.4845 -45.5756,-30.1259 -105.2673,-69.8158 -110.2688,-73.3193 -1.5022,-1.0523 -8.1312,-5.4065 -14.7312,-9.6761 -6.6,-4.2696 -18.525,-12.0988 -26.5,-17.3983 -7.975,-5.2995 -15.0625,-9.979 -15.75,-10.399 -0.9994,-0.6105 -1.25,112.1077 -1.25,562.2955 V 2372 h 244.393 c 222.3312,0 244.448,-0.1433 245.0024,-1.5879 z M 1723,2016.4786 v -355.5215 l -2.75,-1.0637 c -7.0197,-2.7153 -13.1924,-6.3501 -32.25,-18.9905 -67.1109,-44.5127 -79.9443,-52.9029 -80.919,-52.9029 -0.7728,0 -1.081,111.7519 -1.081,392 v 392 h 58.5 58.5 z M 1872,1975 c 0,-218.35 -0.2444,-397 -0.5432,-397 -0.4848,0 -69.2261,45.2959 -80.4568,53.0157 -2.475,1.7012 -13.1625,8.7796 -23.75,15.7296 L 1748,1659.3818 V 2015.6909 2372 h 62 62 z m 500,-166.059 c 0,-450.1922 -0.2506,-562.9043 -1.25,-562.2871 -2.582,1.5944 -35.4333,23.3797 -39.75,26.3602 -2.475,1.7088 -24.075,16.0608 -48,31.8932 -23.925,15.8325 -61.725,40.8875 -84,55.678 -22.275,14.7904 -41.2743,27.3468 -42.2206,27.9032 -0.9463,0.5563 -3.4213,2.1896 -5.5,3.6296 -2.0787,1.4399 -21.7794,14.5345 -43.7794,29.099 -22,14.5645 -64.3,42.597 -94,62.2944 -29.7,19.6974 -67.275,44.6049 -83.5,55.35 -16.225,10.7451 -29.8306,20.0095 -30.2347,20.5875 -0.4041,0.5781 -0.7416,183.6385 -0.75,406.801 L 1899,2372 h 236.5 236.5 z m -617.3297,-255.803 c 28.6115,-19.0407 119.7992,-79.4709 165.8297,-109.8954 20.9,-13.8141 40.025,-26.5149 42.5,-28.2239 2.475,-1.709 23.175,-15.434 46,-30.5001 22.825,-15.0661 43.525,-28.7898 46,-30.4971 2.475,-1.7073 22.05,-14.7161 43.5,-28.9083 21.45,-14.1922 60.375,-39.9784 86.5,-57.3026 110.6962,-73.4056 149.3343,-98.9203 168.5,-111.2694 6.6,-4.2526 13.4594,-8.7015 15.2432,-9.8866 l 3.2431,-2.1546 0.01,-26.25 0.01,-26.25 h -640 -640 v 25.9159 25.9159 l 35.75,23.884 c 19.6625,13.1362 43.4,29.0546 52.75,35.3743 14.9764,10.1227 38.5231,25.5679 43.3133,28.411 0.9277,0.5506 7.0867,4.599 13.6867,8.9964 6.6,4.3974 12.454,8.2219 13.0089,8.4989 0.5549,0.277 13.8299,9.0051 29.5,19.3959 15.6701,10.3907 30.9661,20.5081 33.9911,22.4831 3.025,1.975 5.95,3.9499 6.5,4.3887 0.55,0.4388 19.675,13.1346 42.5,28.2128 22.825,15.0783 43.525,28.8127 46,30.5211 2.475,1.7083 23.175,15.4398 46,30.5144 22.825,15.0746 43.525,28.7981 46,30.4967 2.475,1.6986 22.725,15.1507 45,29.8934 101.0491,66.8795 143.98,95.3616 163,108.1411 11.275,7.5756 21.4766,13.8149 22.6703,13.8651 1.2305,0.052 11.1904,-5.9115 23,-13.7707 z"
         id="path459" />
      <path
         style="fill:#000000;fill-opacity:1"
         d="m 1029,1732 v -703 h 703 703 v 703 703 h -703 -703 z m 553,240.2225 c 0,-351.1784 -0.1798,-400.0341 -1.4787,-401.8886 -0.8133,-1.1611 -4.0758,-3.8162 -7.25,-5.9001 -3.1742,-2.0839 -26.4713,-17.5067 -51.7713,-34.2728 -147.5948,-97.81 -156.5328,-103.7434 -161.4442,-107.173 -1.4057,-0.9816 -16.7308,-11.1282 -34.0558,-22.5481 -38.3765,-25.2961 -140.5151,-92.9577 -144.0645,-95.4353 -5.2493,-3.6644 -45.0488,-30.1194 -62.4355,-41.5014 -9.9,-6.4809 -19.9351,-13.0705 -22.3001,-14.6434 -2.3651,-1.5729 -4.5026,-2.8598 -4.75,-2.8598 -0.2475,0 -0.4499,253.35 -0.4499,563 v 563 h 245 245 z m 142,46.3426 c 0,-211.5606 -0.3676,-354.4019 -0.9159,-355.8438 -0.5209,-1.3701 -2.3538,-2.9459 -4.25,-3.6539 -6.6927,-2.499 -7.025,-2.712 -86.9565,-55.7342 -13.5424,-8.9833 -24.9049,-16.3332 -25.25,-16.3332 -0.3452,0 -0.6276,176.625 -0.6276,392.5 V 2372 h 59 59 z m 148,-43.6721 c 0,-367.2298 -0.1231,-397.0597 -1.6358,-396.4792 -0.8998,0.3452 -16.0873,10.2189 -33.75,21.9416 -54.2918,36.0329 -81.9684,54.2566 -85.3642,56.2081 l -3.25,1.8677 V 2015.2156 2372 h 62 62 z M 2372,1809 c 0,-309.65 -0.1931,-563 -0.4291,-563 -0.4778,0 -0.3164,-0.1062 -66.0709,43.4969 -100.7451,66.806 -138.1644,91.5911 -168,111.2765 -17.05,11.2496 -32.2382,21.3167 -33.7516,22.3713 -1.5133,1.0546 -8.2633,5.5674 -15,10.0284 -6.7366,4.461 -15.2826,10.1845 -18.9912,12.7189 -3.7085,2.5344 -7.5335,5.058 -8.5,5.608 -0.9664,0.55 -18.4072,12.0694 -38.7572,25.5987 -20.35,13.5292 -56.4625,37.5043 -80.25,53.2778 L 1899,1559.0557 V 1965.5278 2372 h 236.5 236.5 z m -622.0102,-252.3507 c 14.512,-9.6846 51.041,-33.9118 152.5102,-101.1494 23.1,-15.307 62.475,-41.406 87.5,-57.9977 25.025,-16.5917 65.75,-43.5927 90.5,-60.0022 24.75,-16.4094 66.825,-44.3104 93.5,-62.0021 112.8681,-74.8579 145.3349,-96.2896 182.9685,-120.7796 L 2372,1144.9365 V 1118.4683 1092 h -640.0166 -640.0166 l 0.2666,26.2208 0.2666,26.2208 24,16.2348 c 13.2,8.9292 25.8825,17.3812 28.1834,18.7823 2.3008,1.4011 10.1758,6.6824 17.5,11.7361 14.3257,9.8849 35.0806,23.6798 50.0294,33.2524 19.9889,12.8002 42.4786,27.6412 167.7872,110.724 26.125,17.3216 63.7,42.1938 83.5,55.2718 19.8,13.0779 37.1663,24.5891 38.5919,25.5805 5.3954,3.7523 15.6625,10.583 57.9081,38.5263 57.0985,37.7677 134.5363,89.1132 153.9918,102.1052 9.3316,6.2313 16.4851,10.345 17.9898,10.345 1.5041,0 8.6689,-4.1182 18.0082,-10.3507 z"
         id="path457" />
      <path
         style="fill:#000000;fill-opacity:1"
         d="m 1029,1732 v -703 h 703 703 v 703 703 h -703 -703 z m 553,240.0818 c 0,-219.955 -0.2802,-400.6485 -0.6227,-401.541 -0.3425,-0.8925 -9.905,-7.7554 -21.25,-15.2509 -24.0792,-15.9089 -84.6665,-56.0597 -160.1273,-106.1154 -29.425,-19.5186 -74.2,-49.2146 -99.5,-65.9912 -25.3,-16.7765 -73.225,-48.5831 -106.5,-70.6813 -63.7017,-42.3048 -98.6331,-65.4687 -100.7375,-66.8017 -1.0161,-0.6436 -1.2625,109.1838 -1.2625,562.75 V 2372 h 245 245 z m 142,45.3525 c 0,-232.4824 -0.3415,-355.2038 -0.9917,-356.4188 -0.5454,-1.0191 -2.4579,-2.1631 -4.25,-2.5421 -1.7921,-0.379 -4.8333,-1.6239 -6.7583,-2.7664 -3.4465,-2.0455 -95.9331,-63.0891 -101.2095,-66.8009 -1.4902,-1.0484 -3.1777,-1.9061 -3.75,-1.9061 -0.7189,0 -1.0405,121.3168 -1.0405,392.5 V 2372 h 59 59 z M 1872,1974.5 c 0,-218.625 -0.1562,-397.5 -0.3472,-397.5 -0.2723,0 -42.1484,27.5134 -48.6528,31.9658 -8.3258,5.6992 -64.8355,42.9684 -69.1339,45.5951 -3.2822,2.0057 -5.8853,4.3812 -6.2363,5.6909 -0.3314,1.2365 -0.6086,161.8857 -0.6161,356.9982 L 1747,2372 h 62.5 62.5 z m 500,-166.0497 c 0,-458.8681 -0.2388,-563.4011 -1.2854,-562.75 -0.707,0.4398 -20.1695,13.3596 -43.25,28.7106 -23.0805,15.351 -59.0646,39.2474 -79.9646,53.1031 -64.748,42.9248 -143.9714,95.4602 -191.5,126.9893 -25.025,16.6008 -66.425,44.0357 -92,60.9664 -64.4504,42.6663 -63.3567,41.9126 -64.7353,44.6117 -0.9742,1.9076 -1.2383,87.9404 -1.25,407.1686 L 1898,2372 h 237 237 z M 1738,1564.927 c 1.375,-0.9521 23.875,-15.8732 50,-33.158 26.125,-17.2849 63.7,-42.1904 83.5,-55.3456 19.8,-13.1553 36.7504,-24.3697 37.6677,-24.921 0.9172,-0.5513 5.3636,-3.4774 9.881,-6.5024 4.5173,-3.025 24.6919,-16.3971 44.8323,-29.7157 20.1405,-13.3187 39.994,-26.5003 44.119,-29.2926 4.125,-2.7923 26.625,-17.7334 50,-33.2025 23.375,-15.4691 62.525,-41.3976 87,-57.6189 172.5771,-114.3786 187.3288,-124.1171 216.2356,-142.7502 l 10.7356,-6.9201 0.014,-26.75 0.014,-26.75 h -640 -640 v 26.3333 26.3332 l 31.25,20.8347 c 17.1875,11.4591 33.05,22.0332 35.25,23.498 5.1995,3.462 11.3309,7.7155 20,13.8745 3.85,2.7352 10.375,7.115 14.5,9.7328 25.3174,16.067 58.062,37.4934 116,75.9046 101.579,67.344 140.2436,92.9864 168.9933,112.0767 17.3213,11.5017 32.2528,21.3622 33.1812,21.9122 2.3619,1.3993 37.3058,24.6921 42.7336,28.4852 1.4256,0.9962 19.4669,12.9607 40.0919,26.5878 20.625,13.627 57.975,38.3287 83,54.8925 55.0296,36.4236 51.1747,33.904 52.984,34.6297 1.9461,0.7804 4.919,-0.024 8.016,-2.1682 z"
         id="path455" />
      <path
         style="fill:#000000;fill-opacity:1"
         d="m 1029,1732 v -703 h 703 703 v 703 703 h -703 -703 z m 553,239.9343 c 0,-270.0393 -0.3315,-400.6852 -1.02,-401.9718 -0.8022,-1.4988 -42.4627,-30.0868 -50.2214,-34.4625 -0.9752,-0.55 -4.8073,-3.0829 -8.5158,-5.6286 -3.7086,-2.5457 -26.3178,-17.5742 -50.2428,-33.3967 -23.925,-15.8225 -64.65,-42.8113 -90.5,-59.9753 -25.85,-17.1639 -67.925,-45.0677 -93.5,-62.0083 -25.575,-16.9407 -67.7836,-45.0189 -93.7968,-62.3961 -26.0132,-17.3773 -48.0632,-32.0599 -49,-32.628 -2.2395,-1.3583 -25.6807,-16.7337 -40.1777,-26.3531 -6.311,-4.1877 -11.8235,-7.7639 -12.25,-7.9472 -0.4265,-0.1834 -0.7755,253.2791 -0.7755,563.25 V 2372 h 245 245 z m 142,45.5 c 0,-238.4176 -0.3331,-355.1883 -1.017,-356.4661 -0.5594,-1.0451 -2.6987,-2.3531 -4.7542,-2.9066 -4.2495,-1.1443 -3.7223,-0.8079 -65.6032,-41.8507 -34.959,-23.1867 -46.0791,-30.1033 -46.7347,-29.0686 -0.4765,0.7521 -0.8671,176.1036 -0.8756,393.1077 L 1605,2372 h 59.5 59.5 z M 1872.225,1983.5 c 0.1238,-213.675 0.2363,-392.4375 0.25,-397.25 0.021,-7.2187 -0.2412,-8.7324 -1.4958,-8.6493 -0.8365,0.055 -26.9365,16.9544 -58,37.5533 -31.0636,20.599 -58.2792,38.5299 -60.4792,39.8466 -2.2,1.3166 -4.3306,2.8676 -4.7347,3.4466 -0.4041,0.579 -0.7416,161.3653 -0.75,357.3028 L 1747,2372 h 62.5 62.5 z M 2372,1808.5 c 0,-309.925 -0.181,-563.5 -0.4021,-563.5 -0.2212,0 -17.8837,11.6165 -39.25,25.8144 -21.3664,14.1979 -54.8229,36.399 -74.3479,49.3359 -39.7643,26.3469 -109.4641,72.5569 -175.5,116.3538 -112.7355,74.7696 -146.379,97.0647 -164.1155,108.7576 -13.3841,8.8234 -19.3017,13.297 -19.7364,14.9201 -0.3414,1.275 -0.6269,184.4557 -0.6344,407.0682 L 1898,2372 h 237 237 z m -602.2084,-264.25 c 19.6396,-13.0625 36.1584,-23.975 36.7084,-24.25 1.1572,-0.5786 6.5286,-4.1152 8,-5.2673 0.55,-0.4307 19.9,-13.3021 43,-28.6031 23.1,-15.3011 60.9,-40.3384 84,-55.6386 23.1,-15.3001 63.825,-42.2964 90.5,-59.9918 66.2081,-43.9205 128.2046,-84.9933 166.5,-110.3066 17.6,-11.6336 37.4,-24.7736 44,-29.2001 22.9816,-15.4131 83.0092,-54.9549 104,-68.5076 4.95,-3.1959 12.7125,-8.2279 17.25,-11.1822 l 8.25,-5.3714 V 1118.9656 1092 h -640.0163 -640.0164 l 0.2664,26.7142 0.2663,26.7143 38.7264,26.0357 c 21.2995,14.3197 41.9086,28.2858 45.7979,31.0358 7.5765,5.3571 28.4959,19.0452 30.9757,20.2682 1.4488,0.7145 8.861,5.4845 23.5,15.1229 3.85,2.5349 7.45,4.8339 8,5.1089 0.55,0.275 9.775,6.3417 20.5,13.4816 10.725,7.1399 20.2804,13.4399 21.2342,14 0.9538,0.5601 5.4538,3.5419 10,6.6261 11.8173,8.0171 31.6303,21.2159 33.6136,22.3923 0.9273,0.55 11.5784,7.572 23.6691,15.6045 30.4558,20.2335 123.2598,81.7776 175.4831,116.374 23.925,15.8495 45.8914,30.4383 48.8142,32.4194 2.9228,1.9812 6.0728,4.055 7,4.6085 2.0914,1.2485 66.2638,43.7752 71.4873,47.3743 2.0909,1.4406 4.4992,3.0693 5.3519,3.6193 0.8527,0.55 17.592,11.6697 37.1985,24.7104 19.8277,13.1878 36.6651,23.7279 37.9397,23.75 1.3672,0.024 16.6964,-9.5412 38,-23.7104 z"
         id="path453" />
      <path
         style="fill:#000000;fill-opacity:1"
         d="m 1029,1732 v -703 h 703 703 v 703 703 h -703 -703 z m 553,239.1911 c 0,-319.1591 -0.2546,-401.1226 -1.25,-402.3488 -1.4892,-1.8348 -0.5477,-1.1986 -61.25,-41.3896 -26.4,-17.4795 -63.9537,-42.3946 -83.4527,-55.3668 -19.4989,-12.9723 -35.907,-23.7678 -36.4624,-23.99 -0.5553,-0.2223 -3.9685,-2.5154 -7.5849,-5.0959 -3.6164,-2.5805 -7.0083,-4.8736 -7.5376,-5.0959 -0.8983,-0.3772 -17.3899,-11.3125 -136.9624,-90.818 -25.3,-16.8224 -46.7638,-31.0361 -47.6974,-31.5861 -0.9336,-0.55 -17.5836,-11.6186 -37,-24.5968 -19.4164,-12.9783 -39.3526,-26.2027 -44.3026,-29.3877 -4.95,-3.1849 -12.6311,-8.2039 -17.0692,-11.1531 -4.438,-2.9493 -8.3755,-5.3624 -8.75,-5.3624 -0.3744,0 -0.6808,253.575 -0.6808,563.5 V 2372 h 245 245 z m 141.9847,45.5589 c -0.01,-197.5734 -0.3985,-355.8548 -0.8786,-356.6126 -0.4748,-0.7494 -3.0742,-2.111 -5.7764,-3.0258 -2.7022,-0.9148 -17.7193,-10.2016 -33.3714,-20.6374 C 1668.3062,1626.0384 1655.05,1617.275 1654.5,1617 c -0.55,-0.275 -6.9883,-4.55 -14.3074,-9.5 -7.319,-4.95 -14.069,-9.4532 -15,-10.007 -0.9309,-0.5539 -5.0258,-3.2032 -9.0997,-5.8873 -4.0739,-2.6842 -8.1239,-4.931 -9,-4.993 -1.4543,-0.1029 -1.6148,34.0637 -1.8442,392.6373 L 1604.9975,2372 H 1664.4987 1724 l -0.015,-355.25 z m 149,-41.5 c -0.01,-218.2125 -0.38,-397.3246 -0.8257,-398.027 -0.5896,-0.9291 -9.1914,4.3007 -31.5749,19.1968 -16.9205,11.2605 -31.0614,20.6101 -31.4243,20.7769 -0.3629,0.1668 -12.9738,8.5158 -28.0242,18.5533 -15.0504,10.0375 -27.6972,18.25 -28.104,18.25 -0.4067,0 -1.9303,1.1035 -3.3856,2.4523 l -2.646,2.4522 V 2015.4523 2372 h 63 63 l -0.015,-396.75 z M 2372,1807.878 c 0,-561.7937 -0.01,-564.1163 -1.9777,-562.75 -8.8325,6.1274 -21.7743,14.7696 -63.5223,42.4182 -70.6552,46.7932 -143.8497,95.3473 -187.4753,124.3633 -21.1614,14.0748 -38.9195,25.7724 -39.4624,25.9946 -0.5429,0.2223 -4.0431,2.5848 -7.7783,5.25 -3.7352,2.6653 -6.9357,4.8459 -7.1122,4.8459 -0.3228,0 -70.6703,46.5352 -84.6718,56.0108 -4.125,2.7916 -23.475,15.6314 -43,28.5328 -19.525,12.9015 -36.2875,24.4069 -37.25,25.5676 -1.6603,2.0022 -1.75,22.9091 -1.75,407.9996 V 2372 h 237 237 z m -623.4241,-249.0491 c 33.0727,-21.7834 115.226,-76.2926 124.2714,-82.4549 0.909,-0.6192 17.8527,-11.8289 37.6527,-24.9103 19.8,-13.0815 56.025,-37.0955 80.5,-53.3644 24.475,-16.269 45.2743,-30.0344 46.2206,-30.5897 0.9463,-0.5553 3.4213,-2.1939 5.5,-3.6414 2.0787,-1.4475 19.9794,-13.3342 39.7794,-26.4149 19.8,-13.0806 58.5,-38.7089 86,-56.9518 140.1761,-92.9894 153.5334,-101.7885 191.9256,-126.4305 L 2372,1146.6419 V 1119.321 1092 h -640 -640 v 26.7694 26.7693 l 14.75,9.9104 c 8.1125,5.4507 24.2,16.1993 35.75,23.8857 11.55,7.6864 23.602,15.968 26.7822,18.4035 6.4273,4.9222 23.2145,16.1044 35.6719,23.7617 16.907,10.3923 33.8447,21.4246 89.3798,58.2173 23.7414,15.7289 61.1661,40.5066 83.1661,55.0616 22,14.555 41.7007,27.6466 43.7794,29.0924 2.0787,1.4458 4.5537,3.0846 5.5,3.6419 0.9463,0.5572 21.2956,14.0193 45.2206,29.9157 23.925,15.8965 63.975,42.4761 89,59.0659 25.025,16.5898 66.2,43.8919 91.5,60.6714 75.9708,50.3855 76.6719,50.8338 79.5035,50.8338 1.6596,0 7.8461,-3.4236 16.5724,-9.1711 z"
         id="path451" />
      <path
         style="fill:#000000;fill-opacity:1"
         d="m 1029,1732 v -703 h 703 703 v 703 703 h -703 -703 z m 553,238.6743 v -401.3257 l -2.25,-2.0195 c -1.2375,-1.1107 -18.225,-12.59 -37.75,-25.5095 -33.1084,-21.9074 -130.6513,-86.5503 -134,-88.8035 -3.3648,-2.264 -85.6599,-56.7389 -115,-76.1238 -17.325,-11.4466 -33.525,-22.2073 -36,-23.9127 -2.475,-1.7054 -23.2277,-15.561 -46.1171,-30.7902 -22.8893,-15.2291 -50.1143,-33.3483 -60.5,-40.2648 -10.3856,-6.9164 -21.3579,-14.1628 -24.3829,-16.103 -3.025,-1.9403 -11.35,-7.3455 -18.5,-12.0116 -7.15,-4.6661 -13.5625,-8.8088 -14.25,-9.2059 -0.9994,-0.5774 -1.25,112.3712 -1.25,563.3369 V 2372 h 245 245 z m 141.9847,45.5757 c -0.01,-195.6625 -0.3504,-356.2768 -0.76,-356.9207 -0.4096,-0.6439 -2.0902,-1.5005 -3.7347,-1.9035 -5.3485,-1.3107 -2.8877,0.2373 -63.3391,-39.8443 -48.8841,-32.412 -49.5603,-32.8387 -50.5194,-31.8796 -0.3473,0.3473 -0.6315,177.4064 -0.6315,393.4648 V 2372 h 59.5 59.5 l -0.015,-355.75 z M 1873,1974 c 0,-317.7311 -0.2521,-398.0009 -1.25,-398.0043 -0.6875,0 -4.85,2.4103 -9.25,5.3614 -4.4,2.951 -29.6,19.6452 -56,37.0981 -26.4,17.453 -49.2193,32.5904 -50.7095,33.6387 -1.4902,1.0484 -3.0929,1.9061 -3.5614,1.9061 -0.4686,0 -1.8368,0.9175 -3.0405,2.039 L 1747,1658.0779 V 2015.039 2372 h 63 63 z m 499,-166 c 0,-310.2 -0.1726,-564 -0.3835,-564 -0.211,0 -15.3985,10.0125 -33.75,22.25 -18.3516,12.2375 -33.6378,22.3779 -33.9694,22.5343 -0.8151,0.3844 -91.22,60.2711 -96.8971,64.1874 -2.475,1.7073 -21.6,14.4113 -42.5,28.231 -20.9,13.8198 -55.1,36.462 -76,50.3161 -20.9,13.8541 -60.275,39.9463 -87.5,57.9826 -92.381,61.2018 -100.4989,66.6482 -101.75,68.2652 -0.9953,1.2865 -1.25,84.4058 -1.25,407.9245 V 2372 h 237 237 z m -606.6479,-259.6501 c 17.1313,-11.3575 34.1821,-22.72 37.8907,-25.25 3.7085,-2.5299 7.5335,-5.0499 8.5,-5.5999 0.9664,-0.55 18.4072,-12.0716 38.7572,-25.6036 20.35,-13.532 54.55,-36.1963 76,-50.3652 21.45,-14.1688 40.35,-26.708 42,-27.8649 1.65,-1.1569 5.25,-3.5747 8,-5.3729 2.75,-1.7982 5.675,-3.7356 6.5,-4.3052 2.739,-1.8913 84.4126,-55.9882 84.529,-55.9882 0.1745,0 90.9212,-60.2189 99.471,-66.0083 4.125,-2.7932 24.6,-16.3743 45.5,-30.1804 57.7428,-38.1434 60.9243,-40.2522 62,-41.093 2.6309,-2.0567 56.0746,-36.9812 69.2813,-45.2741 3.4547,-2.1693 8.8547,-5.6107 12,-7.6475 3.1453,-2.0368 8.0812,-5.1073 10.9687,-6.8234 l 5.25,-3.1201 V 1119.9266 1092 h -640.0161 -640.016 l 0.266,27.1611 0.2661,27.1612 17.5,11.867 c 9.625,6.5269 25.825,17.408 36,24.1802 10.175,6.7721 21.2,14.4216 24.5,16.9988 10.6211,8.2947 19.7392,14.6317 21.0533,14.6317 0.704,0 1.43,0.3488 1.6134,0.7752 0.1833,0.4263 5.0583,3.6044 10.8333,7.0623 5.775,3.4579 13.2,8.0561 16.5,10.2181 3.3,2.1621 6.6284,4.2324 7.3964,4.6009 0.768,0.3684 5.6317,3.5214 10.8083,7.0067 5.1765,3.4852 9.5572,6.3368 9.7347,6.3368 0.1776,0 9.2639,5.9625 20.1917,13.25 10.9279,7.2875 20.3189,13.475 20.8689,13.75 0.55,0.275 21.2418,14 45.9818,30.5 24.7399,16.5 45.423,30.1819 45.9624,30.4041 0.5393,0.2223 4.0366,2.5848 7.7718,5.25 3.7352,2.6653 6.9711,4.8459 7.1909,4.8459 0.2199,0 14.1043,9.1125 30.8544,20.25 16.7501,11.1375 31.1567,20.7 32.0147,21.25 0.858,0.55 4.1844,2.7671 7.392,4.9268 14.0082,9.4321 91.9272,61.1217 92.832,61.5825 0.819,0.4171 26.1081,17.2912 35.5,23.6873 6.0323,4.1081 55.6683,36.9003 57.2205,37.8029 0.9463,0.5503 5.4133,3.4755 9.9265,6.5005 50.3802,33.7672 67.6941,44.9361 69.7051,44.9656 1.4267,0.021 14.6059,-8.0895 33.5,-20.6157 z"
         id="path449" />
    </g>
  </g>
</svg>
