<?xml version="1.0" encoding="UTF-8" standalone="no"?>
<!-- Created with Inkscape (http://www.inkscape.org/) -->

<svg
   version="1.1"
   id="svg73"
   width="3464"
   height="3464"
   viewBox="0 0 3464 3464"
   sodipodi:docname="6000000.svg"
   inkscape:version="1.2.2 (732a01da63, 2022-12-09)"
   xmlns:inkscape="http://www.inkscape.org/namespaces/inkscape"
   xmlns:sodipodi="http://sodipodi.sourceforge.net/DTD/sodipodi-0.dtd"
   xmlns="http://www.w3.org/2000/svg"
   xmlns:svg="http://www.w3.org/2000/svg">
  <defs
     id="defs77" />
  <sodipodi:namedview
     id="namedview75"
     pagecolor="#ffffff"
     bordercolor="#000000"
     borderopacity="0.25"
     inkscape:showpageshadow="2"
     inkscape:pageopacity="0.0"
     inkscape:pagecheckerboard="0"
     inkscape:deskcolor="#d1d1d1"
     showgrid="false"
     inkscape:zoom="0.21911085"
     inkscape:cx="1729.7181"
     inkscape:cy="1732"
     inkscape:window-width="1920"
     inkscape:window-height="986"
     inkscape:window-x="-11"
     inkscape:window-y="-11"
     inkscape:window-maximized="1"
     inkscape:current-layer="g79" />
  <g
     inkscape:groupmode="layer"
     inkscape:label="Image"
     id="g79">
    <g
       id="g191"
       transform="matrix(1.7929041,0,0,2.1767682,-1568.2679,-1774.9744)"
       style="fill:#000000">
      <path
         style="fill:#000000;fill-opacity:1"
         d="m 1245,1759.7124 c 0,-16.2769 0.3559,-29.8144 0.791,-30.0832 0.435,-0.2689 15.8475,-0.749 34.25,-1.0668 18.4024,-0.3179 45.834,-0.8018 60.959,-1.0753 25.9262,-0.4688 50.9849,-0.7693 166.5,-1.9965 26.4,-0.2805 64.2,-0.7288 84,-0.9963 19.8,-0.2675 56.25,-0.7124 81,-0.9887 59.3246,-0.6622 122.5764,-1.4244 167,-2.0125 19.8,-0.2621 54.9,-0.7009 78,-0.9752 180.118,-2.1389 184.5207,-2.2053 185.1077,-2.7922 0.2719,-0.272 2.4692,-28.334 4.8828,-62.3601 2.4136,-34.0261 4.6337,-64.4531 4.9336,-67.6156 l 0.5452,-5.75 H 2004.9847 1897 v -15.5 -15.5 h 108.8835 108.8835 l 0.6152,-6.25 c 1.6231,-16.4884 5.7,-76.2257 5.427,-79.5193 -0.3034,-3.6605 -0.4032,-3.7438 -5.3092,-4.4296 -2.75,-0.3843 -11.3599,-1.1577 -19.1331,-1.7187 -7.7733,-0.5609 -16.0983,-1.4729 -18.5,-2.0267 -2.4018,-0.5537 -8.018,-1.0178 -12.4804,-1.0313 -4.4624,-0.013 -10.5374,-0.4904 -13.5,-1.0599 -5.0295,-0.9669 -10.1029,-1.4062 -45.4318,-3.9335 -7.4499,-0.5329 -13.9644,-1.228 -14.4766,-1.5445 -0.5122,-0.3166 -7.1293,-0.9988 -14.7047,-1.5161 -7.5754,-0.5174 -20.4462,-1.3926 -28.6018,-1.945 -8.1557,-0.5524 -15.2636,-1.2732 -15.7953,-1.6019 -0.5318,-0.3286 -7.359,-1.0109 -15.1716,-1.5162 -30.0651,-1.9444 -40.4704,-2.7865 -47.9624,-3.8818 -4.2667,-0.6237 -8.0961,-0.9249 -8.5098,-0.6692 -0.4136,0.2557 -4.1227,0.04 -8.2423,-0.4784 -4.1196,-0.5188 -13.5652,-1.3706 -20.9902,-1.8929 -7.425,-0.5223 -19.125,-1.3921 -26,-1.9329 -6.875,-0.5409 -18.8,-1.4327 -26.5,-1.982 -7.7,-0.5492 -17.0414,-1.4215 -20.7586,-1.9385 -3.7173,-0.5169 -7.5835,-0.7241 -8.5917,-0.4605 -1.0082,0.2637 -5.3918,-0.041 -9.7414,-0.6768 -4.3496,-0.6358 -14.2083,-1.5871 -21.9083,-2.1139 -7.7,-0.5268 -19.85,-1.3996 -27,-1.9396 -7.15,-0.54 -19.075,-1.412 -26.5,-1.9377 -7.425,-0.5258 -20.25,-1.4487 -28.5,-2.0511 -8.25,-0.6023 -18.9935,-1.2494 -23.8744,-1.4379 -4.8809,-0.1886 -12.5309,-0.8273 -17,-1.4194 -4.4691,-0.5921 -9.9256,-1.0097 -12.1256,-0.9279 -2.2,0.082 -11.65,-0.4134 -21,-1.1003 -9.35,-0.6869 -22.4,-1.6172 -29,-2.0673 -6.6,-0.45 -19.425,-1.362 -28.5,-2.0265 -9.075,-0.6645 -19.875,-1.3438 -24,-1.5096 -4.125,-0.1658 -14.7,-0.7858 -23.5,-1.3777 -26.978,-1.8146 -68.6414,-4.3633 -75.5,-4.6186 -3.575,-0.133 -20.675,-1.0239 -38,-1.9798 -17.325,-0.9558 -34.875,-1.8656 -39,-2.0218 -27.8805,-1.0556 -58.0544,-3.1181 -58.966,-4.0304 -0.7171,-0.7176 -0.9778,-10.8239 -0.7992,-30.9791 l 0.2652,-29.914 8.5,0.1919 c 12.4584,0.2813 72.9424,3.0769 84,3.8826 5.225,0.3806 12.875,0.78 17,0.8874 4.125,0.1074 20.1,0.9668 35.5,1.9098 15.4,0.9429 38.8,2.3516 52,3.1303 13.2,0.7788 30.75,1.8891 39,2.4675 8.25,0.5784 18.6,1.2655 23,1.527 34.1138,2.0273 78.9867,5.1428 136.5,9.4772 7.975,0.601 18.55,1.279 23.5,1.5067 4.95,0.2276 10.8,0.6864 13,1.0195 2.2,0.3331 10.075,1.0355 17.5,1.561 34.4097,2.4351 40.3824,2.8697 53.5,3.8933 17.0509,1.3305 34.1701,2.5779 53.7853,3.9189 8.132,0.556 15.2126,1.2749 15.7348,1.5976 0.5221,0.3227 7.8187,1.0523 16.2146,1.6214 8.3959,0.569 20.4403,1.4002 26.7653,1.847 6.325,0.4468 18.3694,1.2866 26.7653,1.8662 8.3959,0.5796 15.7345,1.3439 16.308,1.6983 0.5736,0.3545 7.2042,1.0408 14.7348,1.5252 28.7656,1.8502 42.4267,2.9566 43.3192,3.5082 0.509,0.3146 7.1011,0.989 14.6491,1.4988 29.076,1.9638 39.9349,2.8853 45.7236,3.8799 3.3,0.5671 9.15,1.0415 13,1.0543 3.85,0.013 11.05,0.6886 16,1.502 4.95,0.8133 11.9016,1.4804 15.4481,1.4825 3.5465,0 10.0715,0.4393 14.5,0.9716 16.675,2.0041 41.3809,4.1023 70.0519,5.9493 8.25,0.5314 19.5,1.6649 25,2.5187 5.5,0.8538 12.025,1.5661 14.5,1.5828 2.475,0.017 6.3531,0.4582 8.6181,0.9812 2.2649,0.5231 10.3649,1.4215 18,1.9965 7.635,0.575 16.3569,1.4532 19.3819,1.9516 3.025,0.4983 8.65,0.9478 12.5,0.9988 3.85,0.051 10.6,0.7431 15,1.5381 4.4,0.795 11.375,1.4617 15.5,1.4817 4.125,0.02 11.325,0.71 16,1.5335 4.675,0.8235 11.425,1.4985 15,1.5 3.575,0 10.325,0.6765 15,1.5 4.675,0.8235 11.65,1.4985 15.5,1.5 3.85,0 10.825,0.6765 15.5,1.5 4.675,0.8235 11.425,1.5307 15,1.5716 3.575,0.041 8.975,0.4682 12,0.9494 3.025,0.4813 10.225,1.3567 16,1.9455 15.6612,1.5967 16.3539,1.7782 22.3694,5.8609 6.537,4.4367 10.7021,9.815 12.9344,16.7017 1.382,4.2636 1.4731,7.0341 0.6404,19.4709 -2.0415,30.4891 -2.9353,41.7303 -3.8532,48.4602 -0.5221,3.8281 -0.74,7.2987 -0.4843,7.7125 0.2558,0.4138 -0.046,4.4817 -0.6718,9.0398 -0.6253,4.5581 -1.5067,13.6875 -1.9587,20.2875 -2.1339,31.1584 -3.0312,42.1176 -3.5619,43.5 -0.3167,0.825 -0.9727,7.35 -1.4577,14.5 -0.485,7.15 -1.332,19.6534 -1.8821,27.7853 -0.5501,8.132 -1.2619,15.2089 -1.5819,15.7266 -0.3199,0.5177 -1.0116,7.2518 -1.5371,14.9647 -2.461,36.1205 -2.9413,41.8766 -3.9143,46.9099 -0.5727,2.9626 -1.0491,8.5876 -1.0587,12.5 -0.022,9.1483 -2.2418,22.5881 -4.9011,29.6792 -2.8435,7.5824 -9.2686,13.3241 -18.3667,16.4129 -4.8126,1.634 -2.7145,1.5833 -126.2147,3.0495 -24.75,0.2939 -60.525,0.7315 -79.5,0.9725 -18.975,0.241 -54.975,0.6672 -80,0.9472 -25.025,0.28 -64.625,0.7457 -88,1.035 -23.375,0.2893 -63.425,0.7603 -89,1.0467 -25.575,0.2863 -61.8,0.7217 -80.5,0.9674 -33.9853,0.4465 -97.5242,1.1817 -171,1.9785 -21.45,0.2326 -61.95,0.7127 -90,1.0668 -28.05,0.3542 -63.6,0.8021 -79,0.9954 -15.4,0.1933 -80.7625,0.6705 -145.25,1.0603 l -117.25,0.7089 z m 1008,-43.252 c 59.2781,-0.6497 96.7325,-1.1692 98.2748,-1.363 1.7366,-0.2183 2.9352,-6.3295 3.8437,-19.5974 2.2887,-33.4245 2.7687,-39.3801 3.7072,-46 0.5458,-3.85 1.052,-10.5608 1.1249,-14.9128 0.073,-4.3521 0.4057,-8.3547 0.7394,-8.8947 0.3338,-0.54 0.9618,-6.6542 1.3956,-13.5872 2.0633,-32.9744 2.8654,-43.217 3.4597,-44.1786 0.3545,-0.5736 1.0429,-7.2042 1.5299,-14.7348 2.0478,-31.6667 2.899,-41.9847 3.8836,-47.0784 1.4142,-7.3161 1.3118,-16.3617 -0.2088,-18.4384 -1.3986,-1.9101 -12.2016,-3.7871 -32.25,-5.6035 -26.6164,-2.4114 -34.4749,-3.2191 -45,-4.6253 -6.05,-0.8082 -13.475,-1.466 -16.5,-1.4617 -3.025,0 -9.55,-0.6576 -14.5,-1.4709 -4.95,-0.8134 -12.15,-1.5023 -16,-1.5311 -3.85,-0.029 -10.6,-0.7028 -15,-1.4978 -4.4,-0.795 -11.375,-1.4622 -15.5,-1.4826 -4.125,-0.02 -11.55,-0.7025 -16.5,-1.5159 -4.95,-0.8133 -11.5551,-1.4804 -14.678,-1.4825 h -5.6781 l -0.5774,5.25 c -0.3175,2.8875 -1.7015,21.675 -3.0756,41.75 -1.374,20.075 -2.9625,42.8 -3.53,50.5 -6.4216,87.1316 -10.8613,151.8522 -10.4611,152.4997 0.271,0.4385 7.3569,0.6457 15.7465,0.4605 8.3895,-0.1852 42.4787,-0.6351 75.7537,-0.9998 z m 9,-57.8881 c -17.8403,-4.9512 -29.8233,-23.3436 -26.9506,-41.3658 3.2946,-20.6685 23.288,-35.1303 43.2006,-31.2482 16.3826,3.1939 28.0908,15.0104 30.6561,30.9395 4.2958,26.674 -20.7561,48.9318 -46.9061,41.6745 z"
         id="path205" />
      <path
         style="fill:#000000;fill-opacity:1"
         d="m 1245.75,1788.4256 c -0.9965,-1.0083 -0.9405,-55.5775 0.059,-57.1501 1.1511,-1.8118 39.6551,-2.5817 238.1914,-4.7627 54.4904,-0.5986 109.1189,-1.2647 165,-2.0119 20.075,-0.2684 58.775,-0.7195 86,-1.0024 27.225,-0.2828 65.7,-0.7352 85.5,-1.0051 19.8,-0.27 54.9,-0.7111 78,-0.9803 23.1,-0.2692 61.575,-0.7318 85.5,-1.0281 23.925,-0.2963 60.317,-0.7312 80.8711,-0.9663 20.5541,-0.2352 37.5922,-0.6487 37.8625,-0.919 0.4981,-0.4981 0.931,-6.1118 6.2542,-81.0997 1.6398,-23.1 3.2591,-45.0375 3.5983,-48.75 l 0.6169,-6.75 h -108.1276 -108.1275 l 0.2761,-15.25 0.276,-15.25 108.6894,-0.2544 108.6894,-0.2545 0.5318,-4.2455 c 1.7657,-14.0951 6.3487,-84.379 5.5541,-85.1769 -1.155,-1.1599 -9.8794,-2.3539 -25.4647,-3.4851 -6.6,-0.479 -17.175,-1.3901 -23.5,-2.0247 -6.325,-0.6346 -16.45,-1.5792 -22.5,-2.0991 -6.05,-0.5199 -15.725,-1.4236 -21.5,-2.0083 -5.775,-0.5846 -16.5215,-1.4763 -23.8812,-1.9815 -7.3596,-0.5051 -14.2249,-1.1863 -15.2563,-1.5136 -1.0313,-0.3274 -7.6098,-0.9967 -14.6188,-1.4873 -36.1376,-2.5299 -41.6933,-2.977 -43.2913,-3.4842 -0.9541,-0.3028 -8.4212,-1.0209 -16.5936,-1.5958 -47.2918,-3.3265 -66.6171,-4.8593 -68.4524,-5.4295 -0.8764,-0.2723 -8.0764,-0.9592 -16,-1.5265 -24.6789,-1.7669 -39.9583,-2.8946 -52.4064,-3.8677 -6.6,-0.516 -18.975,-1.4247 -27.5,-2.0194 -8.525,-0.5946 -16.2385,-1.313 -17.1412,-1.5964 -0.9026,-0.2834 -8.3276,-0.9673 -16.5,-1.5198 -8.1723,-0.5525 -20.9338,-1.4551 -28.3588,-2.0059 -7.425,-0.5507 -18.9,-1.401 -25.5,-1.8894 -6.6,-0.4884 -20.1,-1.3511 -30,-1.917 -9.9,-0.5659 -23.85,-1.4906 -31,-2.055 -7.15,-0.5644 -16.6,-1.2769 -21,-1.5834 -10.8979,-0.7592 -33.1829,-2.3237 -49.5,-3.4751 -7.425,-0.524 -24.525,-1.6297 -38,-2.4572 -13.475,-0.8275 -32.15,-1.9933 -41.5,-2.5907 -9.35,-0.5974 -20.15,-1.2301 -24,-1.406 -3.85,-0.1758 -19.15,-1.056 -34,-1.9558 -28.9093,-1.7518 -86.3266,-4.8796 -124.2729,-6.7697 -22.2744,-1.1095 -23.2948,-1.2487 -23.7806,-3.2419 -0.2791,-1.1455 -0.3813,-14.6827 -0.227,-30.0827 l 0.2805,-28 10.5,0.1588 c 15.4972,0.2343 96.2917,4.0487 112.5,5.3112 7.7,0.5998 22.55,1.5451 33,2.1008 24.8011,1.3188 62.8923,3.6073 83,4.9864 8.8,0.6036 19.375,1.2532 23.5,1.4434 4.125,0.1903 14.7,0.8478 23.5,1.461 8.8,0.6133 22.075,1.538 29.5,2.055 13.7624,0.9582 29.7216,2.0923 56.5,4.0147 8.25,0.5923 18.825,1.2402 23.5,1.4399 4.675,0.1996 12.1,0.8022 16.5,1.339 4.4,0.5368 10.7,1.03 14,1.096 3.3,0.066 9.5402,0.5581 13.8671,1.0935 4.3269,0.5355 8.1601,0.7925 8.5181,0.5713 0.358,-0.2213 4.2428,0.025 8.6329,0.5475 4.39,0.5224 14.2819,1.4037 21.9819,1.9584 18.3368,1.3209 37.0268,2.7038 52.5,3.8845 6.875,0.5246 18.8,1.3846 26.5,1.911 7.7,0.5265 15.125,1.223 16.5,1.5479 1.375,0.3249 9.025,1.0624 17,1.6389 7.975,0.5765 19.9,1.4544 26.5,1.9508 6.6,0.4965 18.6534,1.3556 26.7853,1.9091 8.132,0.5536 15.169,1.2436 15.6378,1.5334 0.7755,0.4793 10.2786,1.2751 41.5769,3.4816 10.0867,0.7111 15.3399,1.2071 43.5,4.1069 5.225,0.5381 11.975,0.9827 15,0.9881 3.025,0.01 10,0.6618 15.5,1.4586 5.5,0.7969 12.8881,1.4631 16.4181,1.4806 3.5299,0.017 9.1549,0.482 12.5,1.0324 6.0386,0.9935 19.353,2.1622 45.9329,4.0318 7.618,0.5359 14.2729,1.2351 14.7887,1.5538 0.5157,0.3188 7.1078,0.9928 14.649,1.498 7.5412,0.5051 20.2363,1.3524 28.2113,1.8829 7.975,0.5304 17.425,1.4495 21,2.0423 3.575,0.5928 10.775,1.4741 16,1.9584 9.5831,0.8884 22.1317,2.1592 40.5,4.1017 5.5,0.5816 14.725,1.4372 20.5,1.9012 15.0625,1.2103 31.681,2.8785 45.5,4.5676 6.6,0.8067 14.7,1.4766 18,1.4886 3.3,0.012 7.9327,0.4677 10.2949,1.0126 2.3622,0.5449 10.4622,1.4464 18,2.0033 7.5378,0.557 15.9551,1.4233 18.7051,1.9253 2.75,0.5019 7.475,0.9342 10.5,0.9606 3.025,0.026 10.45,0.7044 16.5,1.5068 6.05,0.8024 14.4798,1.8782 18.733,2.3906 6.3289,0.7624 8.7817,1.6106 13.5089,4.6714 6.1952,4.0114 11.1332,10.385 13.1725,17.0024 0.9598,3.1142 0.9862,7.5433 0.1195,20 -0.6123,8.8 -1.5123,21.85 -2,29 -0.4877,7.15 -1.1539,14.8 -1.4805,17 -0.6452,4.3461 -2.1848,21.9942 -3.5768,41 -0.4834,6.6 -1.3437,18.3 -1.9117,26 -0.5681,7.7 -1.4875,16.7 -2.0431,20 -0.5556,3.3 -1.0128,8.4543 -1.016,11.4539 -0.01,5.2122 -0.6729,13.4358 -3.1076,38.2961 -1.1393,11.6331 -2.3915,26.8514 -3.8466,46.75 -2.4773,33.8767 -4.7067,51.9991 -7.2293,58.7673 -3.0354,8.1441 -10.3166,14.7198 -19.2639,17.3975 -3.4474,1.0317 -23.4205,1.4922 -100.5584,2.3187 -29.425,0.3152 -68.575,0.7799 -87,1.0326 -18.425,0.2526 -54.875,0.6895 -81,0.9707 -26.125,0.2813 -63.025,0.7316 -82,1.0008 -18.975,0.2692 -56.55,0.7234 -83.5,1.0094 -26.95,0.2859 -68.35,0.7556 -92,1.0438 -23.65,0.2881 -58.525,0.713 -77.5,0.944 -18.975,0.2311 -59.925,0.6871 -91,1.0132 -31.075,0.3262 -69.325,0.7766 -85,1.0009 -15.675,0.2243 -53.925,0.6933 -85,1.0422 -31.075,0.3489 -62.575,0.8297 -70,1.0686 -26.4627,0.8512 -208.5137,1.5611 -209.25,0.8159 z m 983.25,-70.958 c 86.7831,-0.8256 122.0799,-1.399 123.0504,-1.9988 1.6878,-1.0431 2.9989,-8.3748 4.0532,-22.6655 0.5804,-7.8668 1.4255,-19.2533 1.8781,-25.3033 0.4527,-6.05 1.337,-18.163 1.9654,-26.9178 0.6283,-8.7549 1.3811,-16.3042 1.6729,-16.7764 0.2919,-0.4722 0.948,-7.0342 1.4582,-14.5822 0.5101,-7.548 1.3352,-18.8986 1.8334,-25.2236 0.4982,-6.325 1.4215,-18.25 2.0518,-26.5 0.6304,-8.25 1.5681,-17.7 2.0838,-21 0.5157,-3.3 0.9411,-8.8485 0.9452,-12.3299 0,-3.4815 0.7166,-11.7797 1.5831,-18.4406 1.6179,-12.436 1.3633,-17.7055 -0.9482,-19.6238 -1.7183,-1.4261 -17.6126,-3.4016 -61.1273,-7.5975 -23.4616,-2.2622 -35.4332,-3.5129 -48.5,-5.067 -6.875,-0.8176 -14.8011,-1.4764 -17.6135,-1.4639 -2.8124,0.013 -7.5374,-0.4433 -10.5,-1.0128 -2.9626,-0.5696 -11.2365,-1.4457 -18.3865,-1.947 -7.15,-0.5012 -17.6271,-1.4606 -23.2825,-2.1319 -7.8803,-0.9354 -10.5573,-0.9458 -11.4584,-0.045 -0.7656,0.7656 -2.4699,19.2302 -4.8844,52.9175 -2.0396,28.4579 -6.048,84.2436 -8.9075,123.9682 -2.8595,39.7247 -4.9192,72.956 -4.5771,73.8475 0.5129,1.3368 1.6286,1.5158 6.3659,1.0212 3.1592,-0.3298 30.719,-0.8373 61.244,-1.1277 z m 34,-58.7779 c -11.4273,-3.3073 -20.1432,-10.4923 -24.8118,-20.4539 -2.3561,-5.0271 -2.6882,-6.9714 -2.688,-15.7358 2e-4,-8.9263 0.3007,-10.6119 2.7984,-15.6989 7.1882,-14.6393 24.201,-23.6587 39.3456,-20.8591 17.9562,3.3194 30.1403,16.6214 31.1465,34.0043 1.2489,21.5723 -13.3405,38.1837 -34.7907,39.6127 -3.7278,0.2484 -8.4192,-0.1224 -11,-0.8693 z"
         id="path203" />
      <path
         style="fill:#000000;fill-opacity:1"
         d="m 1245.0137,1761.8409 c 0.01,-14.4875 0.2724,-27.3054 0.5887,-28.4843 0.538,-2.005 1.3923,-2.1826 13.2364,-2.7515 19.8621,-0.9539 114.4545,-2.3201 283.1612,-4.0896 27.775,-0.2913 65.8,-0.7498 84.5,-1.0189 18.7,-0.2692 55.6,-0.7198 82,-1.0015 26.4,-0.2816 64.65,-0.7318 85,-1.0002 20.35,-0.2685 56.35,-0.7276 80,-1.0202 23.65,-0.2926 58.525,-0.7269 77.5,-0.9652 18.975,-0.2382 59.7,-0.6922 90.5,-1.0088 30.8,-0.3166 57.2379,-0.8196 58.7509,-1.1178 1.7757,-0.35 2.9094,-1.3116 3.1977,-2.7126 0.3947,-1.9174 9.5951,-130.2648 9.5638,-133.4158 -0.01,-0.9847 -22.5801,-1.2988 -107.7624,-1.5 l -107.75,-0.2545 -0.2767,-14.75 -0.2768,-14.75 h 109.0077 109.0077 l 0.4463,-2.25 c 0.7218,-3.6384 5.9733,-75.6432 6.0352,-82.75 l 0.057,-6.5 -8,-1.2008 c -4.4,-0.6605 -13.85,-1.65 -21,-2.199 -7.15,-0.5489 -17.95,-1.4929 -24,-2.0977 -6.05,-0.6047 -15.95,-1.5143 -22,-2.0212 -6.05,-0.5069 -15.95,-1.4224 -22,-2.0345 -6.05,-0.6121 -16.625,-1.4917 -23.5,-1.9548 -6.875,-0.4631 -13.175,-1.0985 -14,-1.412 -0.825,-0.3136 -8.25,-1.0554 -16.5,-1.6486 -31.4857,-2.2637 -38.5231,-2.8168 -56,-4.4005 -20.3198,-1.8415 -35.4478,-3.0592 -56.3622,-4.5368 -7.8992,-0.5581 -14.7179,-1.2346 -15.1526,-1.5032 -0.4346,-0.2687 -7.9216,-0.9653 -16.6377,-1.5482 -8.7161,-0.5828 -21.2475,-1.4841 -27.8475,-2.0029 -6.6,-0.5188 -17.85,-1.3863 -25,-1.9278 -7.15,-0.5415 -18.625,-1.4124 -25.5,-1.9354 -6.875,-0.5229 -19.2701,-1.4078 -27.5446,-1.9663 -8.2746,-0.5585 -15.6996,-1.2455 -16.5,-1.5267 -0.8005,-0.2811 -6.1804,-0.7427 -11.9554,-1.0256 -5.775,-0.283 -16.8,-0.9853 -24.5,-1.5607 -7.7,-0.5755 -20.3,-1.4853 -28,-2.0218 -7.7,-0.5366 -20.3,-1.436 -28,-1.9989 -13.4048,-0.9798 -27.7153,-1.9904 -56,-3.9546 -7.15,-0.4965 -24.475,-1.634 -38.5,-2.5277 -14.025,-0.8937 -31.35,-2.0394 -38.5,-2.546 -7.15,-0.5066 -24.475,-1.5992 -38.5,-2.4281 -14.025,-0.8288 -36.75,-2.1717 -50.5,-2.9841 -13.75,-0.8125 -47.5,-2.6572 -75,-4.0994 -70.209,-3.6821 -67.919,-3.5224 -68.7347,-4.7926 -0.8195,-1.2762 -1.0591,-54.714 -0.2548,-56.8123 0.4975,-1.2977 11.9302,-0.9865 61.4895,1.6741 4.675,0.251 26.5,1.3967 48.5,2.5461 45.139,2.3582 81.3397,4.439 102,5.8629 7.7,0.5307 25.7,1.6919 40,2.5804 14.3,0.8885 31.625,2.0184 38.5,2.5108 6.875,0.4924 23.75,1.5989 37.5,2.4589 24.193,1.5131 34.8088,2.2496 65.5,4.5442 7.975,0.5962 20.575,1.5127 28,2.0367 7.425,0.5239 19.125,1.3833 26,1.9097 6.875,0.5263 19.1865,1.4119 27.3588,1.9679 8.1724,0.5559 15.5974,1.2436 16.5,1.528 0.9027,0.2845 8.3912,0.9962 16.6412,1.5816 8.25,0.5854 20.625,1.4907 27.5,2.0118 16.241,1.2311 34.8448,2.5964 53.3622,3.9164 8.1742,0.5827 15.2179,1.2792 15.6526,1.5478 0.4346,0.2687 7.9216,0.9793 16.6377,1.5793 37.4889,2.5804 65.1281,4.8647 71.8475,5.9381 3.3,0.5271 8.925,0.9652 12.5,0.9735 3.575,0.01 9.2,0.4483 12.5,0.9777 5.8365,0.9364 18.9856,2.0764 46.3812,4.021 7.3596,0.5224 14.2249,1.2176 15.2563,1.5449 1.0313,0.3274 7.6098,1.0003 14.6188,1.4955 24.1694,1.7076 38.764,2.9829 45.4353,3.9704 3.6803,0.5448 9.3053,0.9939 12.5,0.9981 3.1946,0 8.7334,0.4871 12.3084,1.0732 6.2216,1.0201 14.9759,1.7452 47,3.8932 7.975,0.5349 17.2,1.4524 20.5,2.0389 3.3,0.5865 10.725,1.4896 16.5,2.0068 5.775,0.5172 17.475,1.6188 26,2.448 8.525,0.8292 22.25,2.1591 30.5,2.9554 8.25,0.7963 19.725,1.9224 25.5,2.5025 5.775,0.5802 17.475,1.7368 26,2.5704 8.525,0.8336 19.775,2.0012 25,2.5947 5.225,0.5935 14.675,1.4797 21,1.9693 6.325,0.4895 14.2,1.3487 17.5,1.9093 3.3,0.5605 8.025,1.0191 10.5,1.0191 4.6988,0 25.6607,2.4116 34.7993,4.0035 10.8959,1.8981 19.7832,9.7368 23.2514,20.5081 1.4485,4.4988 1.3818,16.4128 -0.1681,30 -0.5646,4.95 -1.4236,14.4 -1.9089,21 -0.4853,6.6 -1.3151,17.85 -1.844,25 -0.9317,12.5957 -2.1418,25.7977 -4.1707,45.5 -0.5381,5.225 -0.9774,12.2 -0.9762,15.5 0,3.3 -0.4492,8.7808 -1.0009,12.1796 -0.5516,3.3988 -1.4705,12.3988 -2.0421,20 -2.2394,29.7815 -2.8137,37.3036 -3.8423,50.3204 -0.5867,7.425 -1.3348,15.0465 -1.6625,16.9367 -0.5637,3.2524 -1.0613,9.5046 -3.3873,42.5633 -1.5665,22.2641 -4.535,32.9643 -10.7061,38.5908 -8.022,7.3141 -13.6785,8.7083 -35.8416,8.8341 -9.35,0.053 -33.65,0.3093 -54,0.5696 -78.0068,0.9976 -120.6418,1.5137 -166.5,2.0155 -26.125,0.2859 -65.5,0.7508 -87.5,1.0331 -76.963,0.9876 -110.3916,1.3896 -160.5,1.9298 -27.775,0.2994 -67.15,0.7642 -87.5,1.0327 -20.35,0.2686 -57.7,0.7193 -83,1.0017 -25.3,0.2823 -64.9,0.7236 -88,0.9806 -70.8048,0.7877 -134.906,1.6591 -158,2.148 -12.1,0.2561 -70.2625,0.7087 -129.25,1.0057 l -107.25,0.5401 0.014,-26.3408 z M 2296.5,1717.4401 c 42.7235,-0.4601 55.2951,-0.8784 56.3221,-1.874 1.8103,-1.755 3.9285,-19.5404 6.2011,-52.0661 1.8441,-26.3934 3.06,-41.1114 3.5189,-42.5936 0.2713,-0.8764 0.9668,-8.0764 1.5454,-16 1.8836,-25.7945 2.7194,-36.1178 4.405,-54.4064 1.7981,-19.5104 3.1815,-37.2303 4.1421,-53.0561 0.4913,-8.0954 0.3249,-10.3415 -0.8535,-11.52 -1.4871,-1.487 -13.635,-3.1757 -45.7811,-6.3639 -8.525,-0.8455 -20,-2.0067 -25.5,-2.5806 -5.5,-0.5738 -14.5,-1.4774 -20,-2.0079 -5.5,-0.5306 -14.0082,-1.4634 -18.9071,-2.0729 -4.8989,-0.6095 -13.6739,-1.4707 -19.5,-1.9139 -15.0541,-1.145 -33.2548,-2.8523 -42.6448,-4.0003 -4.4285,-0.5414 -10.8207,-0.9844 -14.2047,-0.9844 h -6.1528 l -0.5537,3.25 c -0.5217,3.0622 -1.7892,20.1412 -6.5124,87.75 -1.095,15.675 -4.0235,56.3877 -6.5078,90.4726 -2.4842,34.0849 -4.5167,64.1518 -4.5167,66.8152 v 4.8427 l 40.25,-0.549 c 22.1375,-0.302 65,-0.8156 95.25,-1.1414 z m -33,-58.8491 c -11.0265,-2.7322 -20.1895,-10.1446 -25.1599,-20.353 -2.485,-5.1037 -2.7954,-6.8434 -2.8083,-15.738 -0.013,-9.0013 0.266,-10.5493 2.7929,-15.5 4.9932,-9.7829 14.0702,-17.4901 23.54,-19.9877 6.9494,-1.8329 17.0428,-1.393 23.5036,1.0243 7.4893,2.8021 16.2905,10.9373 20.1612,18.6356 2.65,5.2706 2.9321,6.784 2.9504,15.8278 0.018,8.878 -0.2847,10.6205 -2.696,15.5304 -5.4995,11.1979 -14.625,18.359 -26.5831,20.8609 -6.4677,1.3532 -9.2419,1.3001 -15.7008,-0.3003 z"
         id="path201" />
      <path
         style="fill:#000000;fill-opacity:1"
         d="m 1245,1763.125 c 0,-26.8327 0.3623,-30.8149 2.8691,-31.533 0.897,-0.2569 16.9309,-0.726 35.6309,-1.0424 92.4485,-1.564 94.7214,-1.5942 231,-3.06 24.75,-0.2662 61.65,-0.7092 82,-0.9844 20.35,-0.2751 58.6,-0.7333 85,-1.018 54.3148,-0.5859 105.2339,-1.205 161.5,-1.9636 21.175,-0.2855 58.075,-0.7425 82,-1.0155 23.925,-0.273 64.2,-0.7787 89.5,-1.1237 25.3,-0.345 54.325,-0.7263 64.5,-0.8474 24.2979,-0.289 23.7792,-0.2403 24.3725,-2.287 0.9462,-3.2641 9.9121,-134.0659 9.2992,-135.6632 -0.5509,-1.4355 -10.8651,-1.5868 -108.1403,-1.5868 H 1897 v -14.4956 -14.4956 l 109.25,-0.2544 109.25,-0.2544 3.1766,-40.5 c 3.6477,-46.505 3.8258,-50.9222 2.0734,-51.4125 -2.4867,-0.6958 -21.5064,-2.8053 -32.75,-3.6323 -6.325,-0.4652 -19.15,-1.5601 -28.5,-2.4331 -9.35,-0.873 -22.4399,-2.0142 -29.0886,-2.5359 -6.6488,-0.5218 -15.1988,-1.3982 -19,-1.9476 -3.8013,-0.5494 -9.6413,-1.0079 -12.9777,-1.0188 -3.3365,-0.011 -8.5115,-0.4374 -11.5,-0.9478 -2.9886,-0.5103 -10.8217,-1.2209 -17.407,-1.579 -6.5854,-0.3581 -12.307,-0.8572 -12.7147,-1.1092 -0.4077,-0.252 -7.3947,-0.9222 -15.5267,-1.4894 -39.7233,-2.7708 -55.6985,-4.1074 -70.8372,-5.9267 -4.4285,-0.5322 -10.5035,-0.9634 -13.5,-0.9581 -2.9965,0.01 -9.7231,-0.4384 -14.9481,-0.986 -12.9028,-1.3524 -31.9249,-3.0265 -47,-4.1363 -13.0941,-0.9639 -31.2709,-2.3359 -51.5,-3.8873 -21.945,-1.6829 -39.8494,-3.027 -54,-4.0537 -7.7,-0.5586 -19.85,-1.4399 -27,-1.9584 -7.15,-0.5184 -19.3,-1.4133 -27,-1.9886 -7.7,-0.5753 -20.3,-1.4872 -28,-2.0264 -7.7,-0.5393 -20.075,-1.4106 -27.5,-1.9363 -37.5247,-2.6567 -46.0605,-3.2359 -52.5,-3.5624 -3.85,-0.1951 -13.75,-0.8162 -22,-1.3802 -28.2763,-1.9328 -48.0053,-3.1933 -55.5,-3.5458 -4.125,-0.1941 -19.425,-1.0788 -34,-1.966 -42.2567,-2.5725 -79.8441,-4.7398 -88.5,-5.103 -4.4,-0.1847 -21.725,-1.1139 -38.5,-2.0651 -16.775,-0.9511 -32.8246,-1.6526 -35.6657,-1.5588 -8.5609,0.2823 -8.3366,1.0825 -8.319,-29.6767 0.01,-14.6732 0.3459,-27.1809 0.75,-27.7949 0.5377,-0.817 11.5949,-0.5814 41.2347,0.8788 22.275,1.0973 43.875,2.1247 48,2.2832 14.8743,0.5714 140.4029,8.0157 176,10.4374 7.425,0.5051 24.75,1.6242 38.5,2.487 28.1477,1.766 51.7624,3.4198 93.5,6.5481 7.425,0.5565 19.8,1.4725 27.5,2.0355 35.4115,2.5893 37.5022,2.7441 79.5,5.888 7.425,0.5559 14.8985,1.2547 16.6077,1.5531 1.7093,0.2983 9.5843,1.0043 17.5,1.5689 7.9158,0.5645 20.2423,1.4723 27.3923,2.0173 7.15,0.5449 18.4,1.4027 25,1.9062 6.6,0.5034 18.75,1.3895 27,1.969 8.25,0.5795 15.6451,1.294 16.4334,1.5878 0.7884,0.2937 7.7634,0.9864 15.5,1.5393 29.9704,2.1418 37.4515,2.7355 48.5666,3.8542 6.325,0.6366 16.45,1.5687 22.5,2.0713 6.05,0.5027 16.4,1.4426 23,2.0887 6.6,0.6461 16.725,1.5046 22.5,1.9076 14.0273,0.9791 33.7725,2.8304 43,4.0317 4.125,0.537 10.2,0.9822 13.5,0.9893 3.3,0.01 10.5,0.6648 16,1.4616 5.5,0.7969 12.7,1.4665 16,1.4881 3.3,0.022 8.8087,0.4951 12.2416,1.0522 6.5667,1.0657 22.5817,2.374 48.0048,3.9214 8.3855,0.5105 15.6765,1.1939 16.2022,1.5188 1.0445,0.6456 24.2662,3.0425 44.0514,4.547 6.875,0.5228 13.5983,1.2134 14.9407,1.5346 2.6519,0.6346 27.3793,3.0055 46.5593,4.4643 6.6,0.502 13.35,1.1796 15,1.5058 1.65,0.3261 9.75,1.2198 18,1.9858 26.5497,2.4652 36.7598,3.5238 48.5,5.0285 6.325,0.8106 13.6915,1.4721 16.3701,1.4698 2.6785,0 11.4535,0.9412 19.5,2.0965 17.1781,2.4663 23.973,5.3442 28.8734,12.2288 5.5086,7.7392 6.3982,12.4389 5.3398,28.2093 -0.9146,13.6296 -2.1217,27.2542 -4.1161,46.4614 -0.5426,5.225 -0.9911,12.2 -0.9967,15.5 -0.01,3.3 -0.4734,9.15 -1.0397,13 -0.9609,6.5332 -1.6994,14.9892 -3.9303,45 -2.5337,34.0861 -3.0592,40.1317 -3.9824,45.8204 -0.5517,3.3988 -1.002,8.8796 -1.0009,12.1796 0,3.3 -0.4418,10.275 -0.9844,15.5 -2.5677,24.728 -3.6459,37.3136 -5.9121,69.0106 -0.998,13.959 -3.0604,25.0644 -5.5302,29.779 -1.7972,3.4307 -7.1919,8.5351 -11.0905,10.4936 -6.5231,3.277 -11.5747,3.6624 -55,4.1956 -24.2,0.2971 -60.65,0.7562 -81,1.0201 -65.7938,0.8533 -117.9548,1.4793 -167,2.0042 -26.4,0.2825 -63.525,0.7352 -82.5,1.0059 -18.975,0.2708 -54.975,0.7154 -80,0.9879 -25.025,0.2726 -63.725,0.7168 -86,0.9871 -41.2036,0.5 -100.7383,1.1769 -179,2.0351 -23.925,0.2623 -59.475,0.693 -79,0.957 -19.525,0.2639 -59.575,0.7385 -89,1.0545 -29.425,0.316 -58.45,0.9971 -64.5,1.5134 -6.05,0.5164 -50.7125,0.9427 -99.25,0.9474 l -88.25,0.01 v -24.875 z m 1015.5,-44.6631 c 73.1651,-0.7795 91.1912,-1.153 92.4245,-1.9152 1.8951,-1.1713 3.1069,-8.0822 4.106,-23.4181 0.5508,-8.4542 1.2128,-15.7133 1.4711,-16.1312 0.4264,-0.69 1.2938,-11.3402 3.461,-42.4974 0.9685,-13.9223 2.7877,-33.647 4.0582,-44 0.54,-4.4 0.9768,-10.475 0.9708,-13.5 -0.01,-3.025 0.4296,-9.775 0.9679,-15 1.5135,-14.6897 3.2155,-33.4389 4.0849,-45 2.447,-32.5375 2.438,-29.5176 0.094,-31.8613 -1.5112,-1.5112 -3.3856,-2.1404 -6.3887,-2.1445 -2.3375,0 -6.95,-0.4601 -10.25,-1.0154 -3.3,-0.5553 -11.55,-1.4452 -18.3334,-1.9776 -6.7834,-0.5324 -16.0084,-1.4187 -20.5,-1.9694 -8.5997,-1.0545 -20.9925,-2.3261 -44.1666,-4.5319 -13.405,-1.2759 -23.0813,-2.2575 -45,-4.5646 -9.0138,-0.9488 -14.8099,-1.459 -40.696,-3.5824 -7.5236,-0.6171 -7.7081,-0.5777 -8.2356,1.7579 -0.2968,1.3141 -4.3638,56.3892 -9.0379,122.3892 -4.6741,66 -8.697,121.4298 -8.9398,123.1774 -0.2428,1.7476 -0.1983,4.1071 0.099,5.2434 0.5294,2.0243 0.966,2.0567 21.6754,1.6071 11.6243,-0.2523 46.7851,-0.732 78.1351,-1.066 z m 5.3706,-59.4794 c -11.5837,-1.9573 -22.5014,-10.4064 -27.4717,-21.2601 -2.46,-5.372 -2.8497,-7.4525 -2.851,-15.2224 0,-8.0932 0.3219,-9.6657 3.208,-15.6067 3.6496,-7.5127 9.4905,-13.4129 17.4039,-17.5807 4.8716,-2.5658 6.2615,-2.8126 15.8402,-2.8126 9.6243,0 10.9818,0.244 16.2776,2.9258 7.1309,3.6111 14.0055,10.8066 17.5373,18.3561 2.3302,4.9811 2.6679,6.9426 2.62,15.2181 -0.05,8.5921 -0.3499,10.0734 -3.1396,15.5 -5.8471,11.3739 -15.407,18.5011 -27.4334,20.4526 -3.499,0.5678 -6.5869,0.9828 -6.8619,0.9222 -0.275,-0.061 -2.5832,-0.462 -5.1294,-0.8923 z"
         id="path199" />
      <path
         style="fill:#000000;fill-opacity:1"
         d="m 1245.6667,1787.3333 c -0.844,-0.844 -0.8621,-42.0616 -0.022,-49.0592 0.4273,-3.5572 1.143,-5.3818 2.2413,-5.7139 0.8875,-0.2684 12.8636,-0.7245 26.6136,-1.0135 74.0141,-1.5558 74.8818,-1.5681 216,-3.0515 28.6,-0.3006 67.75,-0.7552 87,-1.0102 48.1403,-0.6377 107.6311,-1.3537 167,-2.0098 27.5,-0.3039 63.05,-0.7455 79,-0.9814 30.0605,-0.4445 83.1816,-1.1068 161.5,-2.0135 107.2262,-1.2415 116.4045,-1.4551 117.6506,-2.7382 1.1658,-1.2004 11.57,-136.2362 10.632,-137.9921 -0.2203,-0.4125 -48.9741,-0.75 -108.3416,-0.75 h -107.941 v -14.5 -14.5 h 109.0314 c 86.3217,0 109.1238,-0.2604 109.4752,-1.25 0.2442,-0.6875 1.3705,-13.85 2.5029,-29.25 1.1324,-15.4 2.6806,-34.9331 3.4404,-43.4068 0.7967,-8.8864 1.0257,-16.3423 0.541,-17.6172 -0.7406,-1.9479 -1.7694,-2.2748 -8.6656,-2.7534 -4.3039,-0.2987 -12.7753,-1.0553 -18.8253,-1.6814 -6.05,-0.626 -15.95,-1.5534 -22,-2.0608 -6.05,-0.5074 -15.725,-1.4118 -21.5,-2.0097 -5.775,-0.5979 -16.35,-1.4919 -23.5,-1.9867 -7.15,-0.4948 -15.7,-1.366 -19,-1.936 -3.3,-0.57 -8.475,-1.0347 -11.5,-1.0326 -3.025,0 -9.775,-0.4363 -15,-0.9744 -30.5288,-3.1437 -34.1479,-3.4502 -70.5,-5.9694 -7.15,-0.4955 -14.35,-1.1702 -16,-1.4994 -1.65,-0.3292 -9.3,-1.0691 -17,-1.6443 -7.7,-0.5751 -19.625,-1.4772 -26.5,-2.0046 -6.875,-0.5273 -18.125,-1.3692 -25,-1.8708 -22.6973,-1.6559 -38.4431,-2.9877 -42.5,-3.5947 -2.2,-0.3291 -10.3,-1.0358 -18,-1.5705 -7.7,-0.5346 -19.4,-1.3875 -26,-1.8953 -6.6,-0.5078 -18.525,-1.4043 -26.5,-1.9923 -19.5947,-1.4447 -38.9395,-2.8779 -54,-4.0008 -39.1528,-2.919 -96.7725,-6.8985 -108,-7.4591 -6.1249,-0.3057 -24.2123,-1.5491 -51.5,-3.54 -19.7932,-1.4441 -85.0598,-5.3273 -142,-8.4486 -44.7478,-2.453 -45.4603,-2.4925 -54.5,-3.0251 -4.675,-0.2754 -19.525,-1.017 -33,-1.6481 -13.475,-0.631 -24.725,-1.3489 -25,-1.5953 -0.6776,-0.607 -0.6408,-54.9725 0.038,-55.6525 0.9641,-0.9663 137.0951,5.7327 192.4623,9.471 8.8,0.5942 19.15,1.2278 23,1.408 6.591,0.3085 17.734,1.037 54.5,3.5631 8.525,0.5858 18.65,1.2214 22.5,1.4126 3.85,0.1911 14.425,0.8651 23.5,1.4978 9.075,0.6327 22.35,1.5511 29.5,2.041 7.15,0.4899 19.525,1.3774 27.5,1.9722 7.975,0.5948 20.125,1.4967 27,2.0041 6.875,0.5074 19.025,1.4074 27,2 7.975,0.5926 20.125,1.4926 27,2 29.8251,2.2013 42.2371,3.1247 53.5,3.9801 6.6,0.5013 18.3,1.3807 26,1.9544 7.7,0.5736 15.125,1.2812 16.5,1.5723 1.375,0.2911 9.025,0.9932 17,1.5601 7.975,0.5669 19.9,1.4392 26.5,1.9383 6.6,0.4991 18.5396,1.3536 26.5325,1.899 7.9928,0.5454 15.1928,1.2378 16,1.5388 1.331,0.4962 9.4248,1.1616 42.4675,3.4911 10.0867,0.7111 15.3399,1.2071 43.5,4.1069 5.225,0.5381 12.2511,0.974 15.6135,0.9686 3.3624,-0.01 8.5374,0.4564 11.5,1.0259 2.9626,0.5696 11.2365,1.4605 18.3865,1.9798 32.0618,2.3289 39.9103,3.0076 45.7584,3.9567 3.4329,0.5571 9.1666,1.0244 12.7416,1.0384 3.575,0.014 10.775,0.6843 16,1.4896 5.225,0.8053 12.2,1.4756 15.5,1.4896 3.3,0.014 8.7,0.4568 12,0.9839 5.8446,0.9337 21.0482,2.1973 48.5,4.0311 7.425,0.496 15.072,1.3729 16.9934,1.9486 1.9214,0.5758 6.4214,1.0495 10,1.0527 3.5786,0 10.9674,0.6782 16.4195,1.5 5.452,0.8218 11.977,1.4839 14.5,1.4714 2.5229,-0.013 10.2121,0.6469 17.0871,1.4654 18.1446,2.16 31.8173,3.5186 46,4.5708 6.875,0.5101 14.9239,1.3907 17.8865,1.9569 2.9626,0.5663 8.1376,1.0323 11.5,1.0355 3.3624,0 10.525,0.6708 15.9169,1.4836 5.3919,0.8127 14.1669,1.7437 19.5,2.0689 5.3331,0.3252 11.9943,1.026 14.8026,1.5574 2.8082,0.5314 10.9082,1.389 18,1.9058 17.0588,1.243 30.3279,3.4132 35.8765,5.8677 5.9204,2.6188 11.0396,8.2982 13.5945,15.082 1.8561,4.9286 1.9957,6.813 1.4066,19 -0.3597,7.4408 -1.0688,16.3068 -1.5757,19.7022 -0.9551,6.3962 -1.6985,15.6513 -5.85,72.8265 -0.599,8.25 -1.3383,15.7904 -1.6429,16.7563 -0.5238,1.6613 -1.1098,9.0462 -3.3744,42.529 -0.5315,7.857 -1.2064,14.674 -1.5,15.1491 -0.4989,0.8071 -1.2905,10.5429 -3.4775,42.7644 -0.4927,7.2594 -1.1483,14.0094 -1.4568,15 -0.546,1.7532 -1.8152,17.3743 -3.5588,43.8012 -1.3316,20.1825 -4.6181,27.9361 -14.5261,34.2702 -7.5972,4.8569 -1.127,4.5199 -109.0214,5.6777 -33,0.3541 -72.6,0.8303 -88,1.0583 -15.4,0.2279 -49.15,0.6572 -75,0.9539 -25.85,0.2967 -66.35,0.7741 -90,1.0608 -23.65,0.2867 -62.35,0.7401 -86,1.0075 -23.65,0.2675 -59.875,0.7009 -80.5,0.9632 -82.9776,1.0553 -123.1591,1.5137 -179.5,2.048 -32.45,0.3077 -70.7,0.7399 -85,0.9605 -14.3,0.2206 -49.175,0.6596 -77.5,0.9757 -77.1431,0.8608 -97.4533,1.3658 -100.4296,2.4974 -3.02,1.1482 -178.7638,1.5 -179.9037,0.3601 z M 2232.5,1719.4716 c 103.7041,-0.9757 119.7954,-1.3384 121.189,-2.732 1.8552,-1.8553 3.2964,-10.3979 4.3423,-25.7396 0.5062,-7.425 1.6329,-21.15 2.5038,-30.5 0.8709,-9.35 1.9797,-22.4 2.4642,-29 2.0888,-28.4588 3.0094,-39.1547 3.5717,-41.5 0.3296,-1.375 1.0301,-8.8 1.5566,-16.5 2.3278,-34.0465 3.1947,-44.3965 5.9052,-70.5 1.4535,-13.9971 1.3133,-15.7448 -1.4873,-18.5455 -2.0402,-2.0401 -3.4331,-2.4551 -8.25,-2.4583 -3.1875,0 -9.8455,-0.6692 -14.7955,-1.4825 -4.95,-0.8134 -11.7,-1.4884 -15,-1.5 -3.3,-0.012 -10.05,-0.6867 -15,-1.5 -4.95,-0.8134 -11.7,-1.4957 -15,-1.5163 -3.3,-0.021 -8.925,-0.4856 -12.5,-1.0332 -5.9413,-0.91 -17.3619,-2.0983 -47.5,-4.9427 -6.05,-0.571 -14.825,-1.4759 -19.5,-2.0109 -4.675,-0.535 -12.775,-1.2372 -18,-1.5604 -5.225,-0.3233 -11.9451,-1.0068 -14.9337,-1.519 -9.3977,-1.6106 -12.9497,-1.2651 -13.5571,1.3188 -0.2909,1.2375 -3.4611,43.2 -7.045,93.25 -3.5839,50.05 -7.6204,106.2866 -8.97,124.9701 -1.3496,18.6836 -2.1255,34.283 -1.7241,34.6654 1.2062,1.1488 5.4563,1.6726 10.2299,1.2607 2.475,-0.2135 30.15,-0.6296 61.5,-0.9246 z m 27.8242,-61.9111 c -9.1984,-2.8762 -17.697,-10.7256 -22.0679,-20.3823 -3.5026,-7.7384 -3.6682,-19.9983 -0.3833,-28.3798 3.1108,-7.9377 9.7712,-15.0056 17.9212,-19.0178 6.1195,-3.0127 7.443,-3.2806 16.2058,-3.2806 8.7628,0 10.0863,0.2679 16.2058,3.2806 13.261,6.5283 20.0456,17.7396 20.1598,33.313 0.057,7.7365 -0.26,9.2496 -3.1754,15.1717 -4.0624,8.2519 -12.0197,15.7789 -19.7311,18.6641 -6.4493,2.413 -18.4708,2.7148 -25.1349,0.6311 z"
         id="path197" />
      <path
         style="fill:#000000;fill-opacity:1"
         d="m 1246,1761.0674 c 0,-24.8229 0.1378,-26.9764 1.7588,-27.4908 2.6345,-0.8362 40.7672,-1.7429 128.2412,-3.0491 29.141,-0.4352 61.6394,-0.7954 185,-2.0505 25.575,-0.2602 58.425,-0.6866 73,-0.9475 14.575,-0.2608 52.6,-0.7183 84.5,-1.0166 31.9,-0.2983 71.95,-0.7575 89,-1.0206 46.8963,-0.7234 155.8761,-2.089 240.5,-3.0136 39.9398,-0.4364 53.812,-0.8923 54.7311,-1.7985 0.847,-0.8351 2.7646,-22.5827 6.1455,-69.697 2.7028,-37.6658 4.7098,-68.8207 4.4598,-69.2332 -0.2499,-0.4125 -49.0279,-0.75 -108.3954,-0.75 H 1897 v -14.5 -14.5 h 109.4147 109.4147 l 0.6166,-7.25 c 0.3392,-3.9875 1.5015,-18.95 2.583,-33.25 1.0815,-14.3 2.5095,-31.5411 3.1735,-38.3136 0.8547,-8.7185 0.8977,-12.8059 0.1474,-14 -0.8296,-1.3204 -3.2115,-1.8187 -10.975,-2.2961 -5.4535,-0.3353 -10.8598,-0.9094 -12.014,-1.2758 -1.1542,-0.3663 -8.3451,-1.1148 -15.9797,-1.6632 -34.411,-2.472 -39.2325,-2.8892 -44.8812,-3.8835 -3.3,-0.5809 -9.2011,-1.0588 -13.1135,-1.062 -3.9124,0 -9.5374,-0.4718 -12.5,-1.0413 -5.1101,-0.9824 -14.6631,-1.7976 -46.1599,-3.939 -7.5754,-0.515 -14.1624,-1.1768 -14.6378,-1.4706 -0.4754,-0.2938 -7.5524,-1.008 -15.7266,-1.587 -34.7543,-2.4618 -41.2138,-2.9857 -47.7413,-3.872 -3.7835,-0.5137 -7.4498,-0.7151 -8.1472,-0.4474 -0.6974,0.2676 -4.8018,-0.028 -9.1209,-0.6572 -4.319,-0.6291 -13.9278,-1.5818 -21.3528,-2.1172 -7.425,-0.5353 -18.9,-1.3737 -25.5,-1.8631 -6.6,-0.4893 -18.8341,-1.3229 -27.187,-1.8524 -8.3528,-0.5295 -15.6248,-1.2332 -16.1598,-1.5639 -0.5351,-0.3307 -7.876,-1.0696 -16.3131,-1.642 -8.437,-0.5723 -20.9651,-1.4807 -27.8401,-2.0185 -11.9435,-0.9343 -23.8173,-1.8171 -52.5,-3.9032 -7.15,-0.52 -19.525,-1.4339 -27.5,-2.031 -7.975,-0.5971 -20.35,-1.4951 -27.5,-1.9956 -7.15,-0.5005 -19.975,-1.4413 -28.5,-2.0906 -8.525,-0.6493 -18.65,-1.2981 -22.5,-1.4418 -3.85,-0.1437 -14.65,-0.7997 -24,-1.4579 -9.35,-0.6581 -22.4,-1.5648 -29,-2.0149 -6.6,-0.45 -19.425,-1.3823 -28.5,-2.0716 -9.075,-0.6894 -19.65,-1.3423 -23.5,-1.4509 -3.85,-0.1086 -15.1,-0.7773 -25,-1.486 -9.9,-0.7087 -21.15,-1.403 -25,-1.5429 -3.85,-0.1399 -15.325,-0.8289 -25.5,-1.531 -10.175,-0.7021 -21.65,-1.3655 -25.5,-1.4743 -3.85,-0.1087 -20.725,-0.9782 -37.5,-1.9322 -16.775,-0.954 -33.875,-1.8468 -38,-1.9842 -4.125,-0.1373 -14.925,-0.7455 -24,-1.3515 -9.075,-0.6061 -18.8696,-1.1182 -21.7658,-1.1382 l -5.2658,-0.036 0.2658,-27.75 c 0.2596,-27.1047 0.3123,-27.7433 2.2658,-27.4612 1.1,0.1589 6.95,0.4708 13,0.6931 6.05,0.2224 29.675,1.3862 52.5,2.5862 22.825,1.2001 44.875,2.2764 49,2.392 4.125,0.1155 19.875,0.9659 35,1.8898 57.794,3.5304 77.9245,4.7863 90.5,5.6463 7.15,0.489 24.7,1.61 39,2.4912 14.3,0.8811 31.85,2.0241 39,2.5399 7.15,0.5159 19.3,1.3881 27,1.9383 7.7,0.5503 20.075,1.4504 27.5,2.0003 7.425,0.5499 20.025,1.4749 28,2.0556 26.7292,1.9464 39.4104,2.8833 53.25,3.9343 7.5625,0.5743 19.9375,1.5141 27.5,2.0884 7.5625,0.5743 19.375,1.4504 26.25,1.9468 6.875,0.4965 18.8,1.3597 26.5,1.9183 7.7,0.5586 17.15,1.4526 21,1.9868 3.85,0.5341 10.2875,0.9899 14.3055,1.0128 4.018,0.023 7.7509,0.3169 8.2953,0.6534 0.5443,0.3364 7.6069,1.0521 15.6945,1.5903 30.6999,2.0431 39.0263,2.6739 49.7047,3.7653 25.6474,2.6215 31.3164,3.0932 37.1135,3.0878 3.3624,0 8.5374,0.4603 11.5,1.0298 5.1101,0.9824 14.6631,1.7976 46.1599,3.939 7.5754,0.515 14.1874,1.1923 14.6933,1.5049 0.506,0.3127 7.3579,1.0251 15.2266,1.583 32.5843,2.3106 39.5913,2.913 45.3067,3.895 3.3,0.5671 9.15,1.0415 13,1.0543 3.85,0.013 11.05,0.6886 16,1.502 4.95,0.8133 11.925,1.483 15.5,1.4883 3.575,0.01 9.2,0.4642 12.5,1.0198 5.7065,0.9608 17.2394,1.9161 47.5,3.9345 7.425,0.4953 15.072,1.3827 16.9934,1.9721 1.9214,0.5894 6.6464,1.0733 10.5,1.0754 3.8536,0 11.0566,0.6692 16.0066,1.4825 4.95,0.8134 11.925,1.4947 15.5,1.5142 3.575,0.019 10.775,0.6942 16,1.4995 5.225,0.8053 12.2,1.4739 15.5,1.4859 3.3,0.012 10.05,0.6871 15,1.5004 4.95,0.8134 11.925,1.4884 15.5,1.5 3.575,0.012 10.55,0.6867 15.5,1.5 4.95,0.8134 11.5905,1.4866 14.7566,1.4962 3.1661,0.01 10.1674,0.68 15.5583,1.4897 5.391,0.8097 15.6255,1.9519 22.7435,2.5381 7.1179,0.5863 15.1916,1.472 17.9416,1.9682 2.75,0.4963 7.925,0.9317 11.5,0.9676 9.1752,0.092 27.7221,3.3955 33.567,5.9782 10.1202,4.472 16.8995,18.0105 14.5363,29.0297 -0.6068,2.8294 -1.1067,8.6098 -1.1109,12.8452 0,4.2354 -0.4588,10.4816 -1.0105,13.8804 -0.5516,3.3988 -1.4726,12.3988 -2.0467,20 -2.4434,32.3534 -2.8983,38.5614 -3.8543,52.6057 -0.5536,8.132 -1.291,15.2456 -1.6386,15.8081 -0.3477,0.5625 -1.0305,7.1841 -1.5175,14.7147 -2.0991,32.4588 -2.8677,42.2905 -3.3699,43.1031 -0.4963,0.8031 -1.3162,10.9651 -3.5166,43.5888 -0.4822,7.15 -1.1327,13.675 -1.4454,14.5 -0.5436,1.4339 -1.6783,15.328 -3.5526,43.5 -1.0277,15.4472 -3.2173,22.3472 -8.7839,27.6806 -7.7112,7.3881 -13.2246,8.6704 -37.7564,8.7814 -10.45,0.047 -35.425,0.2857 -55.5,0.53 -20.075,0.2442 -58.775,0.6988 -86,1.01 -27.225,0.3113 -63.45,0.7745 -80.5,1.0293 -17.05,0.2548 -52.6,0.6847 -79,0.9553 -26.4,0.2706 -66.675,0.7202 -89.5,0.9989 -22.825,0.2788 -61.525,0.7389 -86,1.0224 -24.475,0.2835 -58.9,0.7212 -76.5,0.9726 -17.6,0.2513 -58.1,0.7061 -90,1.0104 -78.8432,0.7523 -140.1666,1.457 -175.5,2.0167 -16.225,0.257 -46.825,0.7154 -68,1.0186 -44.8011,0.6416 -52.182,0.9657 -54.8807,2.41 -1.3611,0.7284 -29.4388,1.0638 -89.0536,1.0638 H 1246 v -26.9326 z m 1046.5,-41.5562 c 15.95,-0.1635 35.8126,-0.3454 44.1392,-0.4042 19.2266,-0.1359 18.7504,0.1848 20.8334,-14.0331 0.8401,-5.7344 1.5308,-13.6094 1.535,-17.5 0,-3.8907 0.439,-9.7739 0.9665,-13.0739 0.5274,-3.3 1.2207,-11.1406 1.5407,-17.4236 0.3199,-6.2829 0.8277,-11.8216 1.1284,-12.308 0.3006,-0.4865 0.945,-7.0459 1.432,-14.5765 2.13,-32.937 2.8722,-42.2978 3.4248,-43.1919 0.324,-0.5242 1.0028,-7.1512 1.5086,-14.7266 2.5468,-38.1507 2.9565,-43.4079 3.4439,-44.1965 0.2897,-0.4689 0.9893,-7.3155 1.5545,-15.2147 0.5652,-7.8992 1.299,-16.9302 1.6306,-20.0689 0.5696,-5.3918 0.4349,-5.8746 -2.4404,-8.75 -2.837,-2.8369 -3.5403,-3.0434 -10.3703,-3.0447 -4.0298,-7e-4 -11.1519,-0.6751 -15.8269,-1.4986 -4.675,-0.8235 -11.65,-1.5067 -15.5,-1.5183 -3.85,-0.012 -10.6,-0.6715 -15,-1.4665 -4.4,-0.795 -11.375,-1.4807 -15.5,-1.5239 -4.125,-0.043 -9.525,-0.5036 -12,-1.0233 -2.475,-0.5197 -10.6649,-1.3932 -18.1998,-1.941 -7.5349,-0.5478 -15.6349,-1.4152 -18,-1.9275 -2.3651,-0.5123 -9.4752,-1.2308 -15.8002,-1.5967 -6.325,-0.3659 -13.3,-1.0677 -15.5,-1.5596 -2.2,-0.4919 -7.375,-0.907 -11.5,-0.9226 -4.125,-0.015 -11.55,-0.6936 -16.5,-1.5069 -11.555,-1.8986 -14.1431,-1.8862 -14.8943,0.071 -0.3345,0.8718 -4.434,54.9843 -9.1099,120.25 -4.676,65.2658 -8.7848,121.8981 -9.1308,125.8498 -0.346,3.9516 -0.3499,7.9122 -0.01,8.8014 0.5647,1.4716 5.2223,1.5586 51.8821,0.9695 28.1939,-0.356 64.3116,-0.781 80.2616,-0.9445 z m -31.6558,-61.8478 c -22.0321,-8.2141 -31.5493,-31.5247 -21.2051,-51.9379 8.0835,-15.9521 28.1745,-23.909 44.7046,-17.7049 9.0541,3.3981 15.469,9.2203 20.0563,18.2031 3.6237,7.0959 3.8977,8.2263 3.8671,15.9566 -0.059,14.8594 -6.6531,26.0028 -19.434,32.8408 -5.6291,3.0116 -7.3336,3.4226 -15.3331,3.6968 -5.8586,0.2008 -10.276,-0.1672 -12.6558,-1.0545 z"
         id="path195" />
      <path
         style="fill:#000000;fill-opacity:1"
         d="m 1246,1762.0352 c 0,-23.7124 0.1518,-26.0444 1.75,-26.8819 4.0184,-2.1057 95.4352,-3.8451 296.75,-5.6465 31.9,-0.2854 70.6,-0.7514 86,-1.0355 15.4,-0.2841 49.6,-0.7246 76,-0.9789 50.0649,-0.4823 108.5332,-1.1942 163,-1.9846 17.6,-0.2554 52.7,-0.705 78,-0.9991 25.3,-0.294 59.5,-0.7399 76,-0.9909 16.5,-0.251 40.8947,-0.5152 54.2105,-0.587 18.7702,-0.1013 24.458,-0.4289 25.3117,-1.4576 0.8143,-0.9811 10.8854,-128.8167 10.9679,-139.2187 0.01,-0.9849 -22.6435,-1.2988 -108.2401,-1.5 L 1897.5,1580.5 v -14 -14 l 109.1894,-0.2544 109.1894,-0.2544 0.5288,-4.2456 c 0.2908,-2.3351 1.253,-14.8206 2.1382,-27.7456 2.3214,-33.8934 3.7668,-44.0946 6.9019,-48.7083 3.2242,-4.7448 3.2524,-7.7869 0.091,-9.8581 -1.3536,-0.8869 -2.7339,-2.4723 -3.0674,-3.5231 -0.5327,-1.6784 -1.6141,-1.9105 -8.9025,-1.9105 -4.5629,0 -10.72,-0.474 -13.6826,-1.0534 -5.0672,-0.9909 -12.0933,-1.6107 -44.8865,-3.96 -7.425,-0.5319 -15.525,-1.4019 -18,-1.9333 -2.475,-0.5314 -8.1511,-0.9858 -12.6135,-1.0097 -4.4624,-0.024 -10.5374,-0.5201 -13.5,-1.1024 -2.9626,-0.5824 -11.4615,-1.4918 -18.8865,-2.0209 -7.425,-0.5291 -19.35,-1.3726 -26.5,-1.8744 -7.15,-0.5017 -15.5877,-1.3688 -18.7503,-1.9267 -3.1627,-0.558 -9.3172,-0.9911 -13.6767,-0.9625 -4.3594,0.029 -8.3988,-0.24 -8.9762,-0.5969 -1.0099,-0.6241 -13.5951,-1.6239 -43.7706,-3.4771 -7.7956,-0.4787 -14.6422,-1.1599 -15.2146,-1.5138 -0.5725,-0.3538 -7.6943,-1.1106 -15.8263,-1.6817 -55.3144,-3.885 -66.4852,-4.7652 -73.7853,-5.8137 -3.85,-0.5529 -8.35,-0.7672 -10,-0.4762 -1.65,0.2911 -5.925,0.022 -9.5,-0.5991 -3.575,-0.6205 -12.575,-1.5585 -20,-2.0844 -7.425,-0.5258 -19.4625,-1.3965 -26.75,-1.9349 -7.2875,-0.5384 -19.2125,-1.4096 -26.5,-1.9361 -7.2875,-0.5265 -19.775,-1.4463 -27.75,-2.0441 -64.5253,-4.8368 -71.1653,-5.3004 -79,-5.5163 -4.125,-0.1137 -14.925,-0.7594 -24,-1.435 -9.075,-0.6756 -21.9,-1.6073 -28.5,-2.0704 -6.6,-0.4631 -19.425,-1.3808 -28.5,-2.0394 -9.075,-0.6585 -19.875,-1.3013 -24,-1.4284 -4.125,-0.1271 -15.375,-0.8069 -25,-1.5108 -9.625,-0.7038 -21.1,-1.3764 -25.5,-1.4947 -4.4,-0.1182 -15.875,-0.7963 -25.5,-1.5068 -9.625,-0.7105 -20.875,-1.3918 -25,-1.5141 -7.5313,-0.2233 -76.1936,-3.9586 -100.5,-5.4674 -7.15,-0.4438 -15.3625,-0.8538 -18.25,-0.9112 L 1246,1393 v -27.1152 -27.1152 l 5.75,0.8165 c 3.1625,0.4491 10.025,0.9332 15.25,1.0759 16.7926,0.4586 74.2055,3.22 101.5,4.8819 4.95,0.3014 12.825,0.7458 17.5,0.9877 4.675,0.2418 16.375,0.9604 26,1.5969 9.625,0.6365 20.875,1.3176 25,1.5136 11.9937,0.5698 38.2096,2.2235 55,3.4693 8.525,0.6326 19.1,1.2615 23.5,1.3975 4.4,0.1361 15.2,0.7834 24,1.4386 8.8,0.6551 21.85,1.5983 29,2.096 7.15,0.4976 19.525,1.3814 27.5,1.964 7.975,0.5825 20.35,1.4868 27.5,2.0094 7.15,0.5227 19.3,1.4097 27,1.9711 7.7,0.5615 20.075,1.4764 27.5,2.0331 26.7776,2.0077 39.7413,2.9732 53.5,3.9844 7.7,0.566 19.625,1.4533 26.5,1.9718 6.875,0.5186 18.8,1.3655 26.5,1.882 7.7,0.5165 17.3139,1.4771 21.3642,2.1347 4.0504,0.6575 8.5475,0.9693 9.9937,0.6928 1.4462,-0.2764 5.1073,-0.083 8.1358,0.43 5.4883,0.9295 20.7812,2.1485 47.6801,3.8005 7.7956,0.4787 14.6422,1.1599 15.2146,1.5138 0.5725,0.3538 7.6943,1.0962 15.8263,1.6498 26.5908,1.8101 38.6508,2.8058 47.239,3.8998 4.6495,0.5923 9.0218,0.8589 9.7161,0.5925 0.6944,-0.2665 5.626,0.1706 10.9592,0.9712 5.3332,0.8006 12.937,1.4556 16.8974,1.4556 3.9603,0 9.6245,0.4899 12.5871,1.0887 2.9626,0.5987 11.0115,1.4808 17.8865,1.9601 6.875,0.4793 18.8,1.3106 26.5,1.8473 7.7,0.5367 16.4239,1.4547 19.3865,2.0399 2.9626,0.5852 8.8126,1.075 13,1.0884 4.1874,0.014 9.636,0.4905 12.1079,1.06 2.472,0.5695 10.572,1.4365 18,1.9265 7.4281,0.49 17.0965,1.3885 21.4854,1.9966 4.3889,0.6081 8.7982,0.8916 9.7984,0.63 1.0003,-0.2616 6.1844,0.1487 11.5203,0.9117 5.3358,0.7631 13.5265,1.407 18.2015,1.431 4.675,0.024 10.975,0.7079 14,1.5198 3.025,0.8119 9.1729,1.4816 13.662,1.4881 4.4891,0.01 11.6891,0.6868 16,1.5117 4.3109,0.8249 11.213,1.5156 15.338,1.5349 4.125,0.019 11.1,0.6855 15.5,1.4805 4.4,0.795 11.4479,1.4543 15.662,1.4651 4.2141,0.011 11.1891,0.6946 15.5,1.5195 4.3109,0.8249 11.213,1.5156 15.338,1.5349 4.125,0.019 11.1,0.6855 15.5,1.4805 4.4,0.795 10.772,1.4543 14.1599,1.4651 3.388,0.011 12.163,0.9168 19.5,2.0132 7.3371,1.0964 16.0401,2.0052 19.3401,2.0196 3.3,0.014 9.6,0.6767 14,1.4717 4.4,0.795 11.2397,1.4611 15.1992,1.4803 8.9895,0.044 27.0913,3.4695 32.6296,6.1755 5.3875,2.6322 10.0528,8.844 12.1854,16.2246 1.4368,4.9728 1.5266,6.9948 0.5902,13.2908 -0.6074,4.0841 -1.1154,10.8948 -1.1288,15.1348 -0.014,4.2401 -0.4642,9.6145 -1.0015,11.9433 -0.5374,2.3288 -1.1679,9.6301 -1.4012,16.2252 -0.2333,6.5951 -0.6994,12.4364 -1.0357,12.9806 -0.5754,0.9309 -1.5393,13.1574 -3.4441,43.6838 -0.4504,7.218 -1.1071,13.5899 -1.4593,14.1598 -0.3522,0.5699 -1.1195,7.9393 -1.7051,16.3764 -0.5856,8.437 -1.4526,20.9651 -1.9266,27.8401 -0.474,6.875 -1.3201,15.2 -1.8803,18.5 -0.5602,3.3 -1.0088,9.15 -0.9969,13 0.012,3.85 -0.4614,9.4239 -1.0517,12.3865 -0.5902,2.9626 -1.0842,9.2626 -1.0976,14 -0.014,4.7374 -0.4928,10.6385 -1.0652,13.1135 -0.5723,2.475 -1.1977,9.225 -1.3897,15 -0.1921,5.775 -0.8378,12.9239 -1.4349,15.8865 -0.5972,2.9626 -1.0858,9.0555 -1.0858,13.5399 0,4.4844 -0.6803,10.7651 -1.5117,13.9571 -2.7464,10.5443 -11.9994,18.6033 -22.9883,20.0221 -2.75,0.355 -27.05,0.8632 -54,1.1293 -60.7365,0.5996 -116.4585,1.2328 -175,1.9886 -24.75,0.3196 -62.55,0.7683 -84,0.9973 -21.45,0.2289 -55.875,0.647 -76.5,0.929 -20.625,0.2821 -61.125,0.7621 -90,1.0668 -28.875,0.3047 -67.575,0.7497 -86,0.9889 -48.7925,0.6336 -122.1732,1.4577 -180.5,2.0271 -28.05,0.2738 -65.85,0.7109 -84,0.9713 -18.15,0.2604 -50.325,0.6812 -71.5,0.935 -45.5519,0.5462 -60.7387,1.3116 -63.4725,3.1992 -1.6269,1.1233 -17.0007,1.3619 -87.75,1.3619 H 1246 Z m 1039.5,-41.491 c 54.9502,-0.5614 67.9478,-1.1349 69.8968,-3.0838 2.2622,-2.2622 3.7198,-15.4544 6.4159,-58.0675 0.4909,-7.7588 1.2039,-14.6108 1.5845,-15.2265 0.6635,-1.0736 1.7063,-14.0345 3.4818,-43.2735 0.4545,-7.4838 1.1433,-14.12 1.5309,-14.747 0.679,-1.0987 1.8219,-15.6639 3.4699,-44.2189 0.4309,-7.4651 1.0798,-14.0526 1.4421,-14.6388 0.3623,-0.5862 0.8752,-5.7284 1.1398,-11.427 0.2646,-5.6987 0.9845,-14.1862 1.5999,-18.8612 1.3675,-10.3904 0.4745,-13.4602 -4.5231,-15.5484 -1.9109,-0.7984 -6.5262,-1.4533 -10.2564,-1.4554 -3.7301,0 -10.8321,-0.6692 -15.7821,-1.4825 -4.95,-0.8134 -11.925,-1.4873 -15.5,-1.4976 -3.575,-0.01 -10.325,-0.6926 -15,-1.5161 -4.675,-0.8235 -11.65,-1.5067 -15.5,-1.5183 -3.85,-0.012 -10.6,-0.6715 -15,-1.4665 -4.4,-0.795 -11.15,-1.4617 -15,-1.4817 -3.85,-0.02 -10.825,-0.71 -15.5,-1.5335 -4.675,-0.8235 -11.65,-1.4985 -15.5,-1.5 -3.85,0 -10.825,-0.6765 -15.5,-1.5 -4.675,-0.8235 -11.5887,-1.4979 -15.3638,-1.4986 -3.775,-8e-4 -11.5699,-0.7631 -17.3218,-1.6941 -11.9876,-1.9403 -11.7889,-2.0358 -12.6821,6.0963 -1.6573,15.0883 -17.8455,249.5984 -17.3237,250.9583 0.5585,1.4552 4.3007,1.567 38.4051,1.1476 20.7825,-0.2556 59.8363,-0.69 86.7863,-0.9653 z m -24.9256,-63.1231 c -10.6168,-3.8891 -18.7219,-11.8667 -22.6242,-22.2686 -3.0003,-7.9974 -2.4835,-20.394 1.1736,-28.1525 7.3971,-15.6928 27.218,-24.6572 43.0426,-19.4669 15.9186,5.2212 25.9626,18.5131 26.0449,34.4669 0.042,8.1759 -1.2828,13.0443 -5.4336,19.9653 -3.8046,6.3439 -11.0387,12.205 -18.5652,15.0418 -6.3104,2.3784 -17.7294,2.5784 -23.6381,0.414 z"
         id="path193" />
    </g>
  </g>
</svg>
