<?xml version="1.0" encoding="UTF-8" standalone="no"?>
<!-- Created with Inkscape (http://www.inkscape.org/) -->

<svg
   version="1.1"
   id="svg9"
   width="3464"
   height="3464"
   viewBox="0 0 3464 3464"
   sodipodi:docname="11111111.svg"
   inkscape:version="1.2.2 (732a01da63, 2022-12-09)"
   xmlns:inkscape="http://www.inkscape.org/namespaces/inkscape"
   xmlns:sodipodi="http://sodipodi.sourceforge.net/DTD/sodipodi-0.dtd"
   xmlns="http://www.w3.org/2000/svg"
   xmlns:svg="http://www.w3.org/2000/svg">
  <defs
     id="defs13" />
  <sodipodi:namedview
     id="namedview11"
     pagecolor="#ffffff"
     bordercolor="#000000"
     borderopacity="0.25"
     inkscape:showpageshadow="2"
     inkscape:pageopacity="0.0"
     inkscape:pagecheckerboard="0"
     inkscape:deskcolor="#d1d1d1"
     showgrid="false"
     inkscape:zoom="0.21911085"
     inkscape:cx="903.65217"
     inkscape:cy="1732"
     inkscape:window-width="1920"
     inkscape:window-height="986"
     inkscape:window-x="-11"
     inkscape:window-y="-11"
     inkscape:window-maximized="1"
     inkscape:current-layer="g15" />
  <g
     inkscape:groupmode="layer"
     inkscape:label="Image"
     id="g15">
    <g
       id="g177"
       transform="matrix(2.669728,0,0,2.6720674,-2681.8959,-2627.2788)"
       style="fill:#000000">
      <path
         style="fill:#000000;fill-opacity:1"
         d="m 1629.7277,2012.2783 3.2277,-0.4017 3.7723,0.3936 3.7723,0.3936 -7,0.01 -7,0.01 3.2277,-0.4016 z m 34.5223,-0.013 4.75,-0.3746 4.75,0.3746 4.75,0.3745 h -9.5 -9.5 z m -60.4375,-0.9481 1.3125,-0.5252 0.6042,0.6041 0.6041,0.6042 -1.9166,-0.079 -1.9167,-0.079 1.3125,-0.5252 z m 96.4565,-0.01 1.7691,-0.461 1.2309,0.4981 1.231,0.498 -3,-0.037 -3,-0.037 1.769,-0.461 z m -113.519,-0.9693 1.25,-0.5044 1.25,0.5044 1.25,0.5044 h -2.5 -2.5 z m 129,0 1.25,-0.5044 1.25,0.5044 1.25,0.5044 h -2.5 -2.5 z m -159,-3 1.25,-0.5044 1.25,0.5044 1.25,0.5044 h -2.5 -2.5 z m 190,0 1.25,-0.5044 1.25,0.5044 1.25,0.5044 h -2.5 -2.5 z m -227.9375,-5.0208 1.3125,-0.5252 0.6042,0.6041 0.6041,0.6042 -1.9166,-0.079 -1.9167,-0.079 1.3125,-0.5252 z m 167.4565,-31.0099 1.7691,-0.461 1.2309,0.4981 1.231,0.498 -3,-0.037 -3,-0.037 1.769,-0.461 z m -89.4565,-0.9901 1.3125,-0.5252 0.6042,0.6041 0.6041,0.6042 -1.9166,-0.079 -1.9167,-0.079 1.3125,-0.5252 z m 114,0 1.3125,-0.5252 0.6042,0.6041 0.6041,0.6042 -1.9166,-0.079 -1.9167,-0.079 1.3125,-0.5252 z m -124,-1 1.3125,-0.5252 0.6042,0.6041 0.6041,0.6042 -1.9166,-0.079 -1.9167,-0.079 1.3125,-0.5252 z m 135.4375,-0.01 1.75,-0.4573 1.75,0.4573 1.75,0.4573 h -3.5 -3.5 z m 12.5625,-0.9938 1.3125,-0.5252 0.6042,0.6041 0.6041,0.6042 -1.9166,-0.079 -1.9167,-0.079 1.3125,-0.5252 z m -171,-1 1.3125,-0.5252 0.6042,0.6041 0.6041,0.6042 -1.9166,-0.079 -1.9167,-0.079 1.3125,-0.5252 z m 188,-1 1.3125,-0.5252 0.6042,0.6041 0.6041,0.6042 -1.9166,-0.079 -1.9167,-0.079 1.3125,-0.5252 z m -212,-2 1.3125,-0.5252 0.6042,0.6041 0.6041,0.6042 -1.9166,-0.079 -1.9167,-0.079 1.3125,-0.5252 z m 54.2664,-45.9002 0.079,-1.9167 0.5252,1.3125 0.5252,1.3125 -0.6041,0.6042 -0.6042,0.6041 0.079,-1.9166 z m -346.2065,-30.1667 -1.3724,-1.75 1.75,1.3724 1.75,1.3725 v 0.3775 0.3776 h -0.3776 -0.3775 z m 387.2065,-1.8333 0.079,-1.9167 0.5252,1.3125 0.5252,1.3125 -0.6041,0.6042 -0.6042,0.6041 0.079,-1.9166 z m -400.1327,-10.1667 -3.4462,-3.75 3.75,3.4462 3.75,3.4461 v 0.3039 0.3038 h -0.3038 -0.3039 z M 2029,1859.6224 v -0.3775 l 1.75,-1.3725 1.75,-1.3724 -1.3724,1.75 -1.3725,1.75 H 2029.3776 2029 Z m -755.1276,-2.3724 -1.3724,-1.75 1.75,1.3724 1.75,1.3725 v 0.3775 0.3776 h -0.3776 -0.3775 z m -22,-22 -1.3724,-1.75 1.75,1.3724 1.75,1.3725 v 0.3775 0.3776 h -0.3776 -0.3775 z M 2054,1834.6224 v -0.3775 l 1.75,-1.3725 1.75,-1.3724 -1.3724,1.75 -1.3725,1.75 H 2054.3776 2054 Z m -375.75,-3.3117 1.75,-0.4573 1.75,0.4573 1.75,0.4573 h -3.5 -3.5 z m -80.4375,-0.9938 1.3125,-0.5252 0.6042,0.6041 0.6041,0.6042 -1.9166,-0.079 -1.9167,-0.079 1.3125,-0.5252 z m -15.5435,-1.0099 1.7691,-0.461 1.2309,0.4981 1.231,0.498 -3,-0.037 -3,-0.037 1.769,-0.461 z m 138.481,0.031 1.25,-0.5044 1.25,0.5044 1.25,0.5044 h -2.5 -2.5 z m -159.9375,-2.0208 1.3125,-0.5252 0.6042,0.6041 0.6041,0.6042 -1.9166,-0.079 -1.9167,-0.079 1.3125,-0.5252 z m 182,0 1.3125,-0.5252 0.6042,0.6041 0.6041,0.6042 -1.9166,-0.079 -1.9167,-0.079 1.3125,-0.5252 z m -189,-1 1.3125,-0.5252 0.6042,0.6041 0.6041,0.6042 -1.9166,-0.079 -1.9167,-0.079 1.3125,-0.5252 z m 215,-2 1.3125,-0.5252 0.6042,0.6041 0.6041,0.6042 -1.9166,-0.079 -1.9167,-0.079 1.3125,-0.5252 z m -254,-3 1.3125,-0.5252 0.6042,0.6041 0.6041,0.6042 -1.9166,-0.079 -1.9167,-0.079 1.3125,-0.5252 z m 110.9375,-30.0541 5.25,-0.3673 5.25,0.3673 5.25,0.3672 h -10.5 -10.5 z m 44,0 5.25,-0.3673 5.25,0.3673 5.25,0.3672 h -10.5 -10.5 z m -61,-0.9251 1.25,-0.5044 1.25,0.5044 1.25,0.5044 h -2.5 -2.5 z m 86.0625,-0.021 1.3125,-0.5252 0.6042,0.6041 0.6041,0.6042 -1.9166,-0.079 -1.9167,-0.079 1.3125,-0.5252 z m -104,-1 1.3125,-0.5252 0.6042,0.6041 0.6041,0.6042 -1.9166,-0.079 -1.9167,-0.079 1.3125,-0.5252 z m 122.9375,0.021 1.25,-0.5044 1.25,0.5044 1.25,0.5044 h -2.5 -2.5 z m -133,-1 1.25,-0.5044 1.25,0.5044 1.25,0.5044 h -2.5 -2.5 z m -23,-2 1.25,-0.5044 1.25,0.5044 1.25,0.5044 h -2.5 -2.5 z m 189.0625,-0.021 1.3125,-0.5252 0.6042,0.6041 0.6041,0.6042 -1.9166,-0.079 -1.9167,-0.079 1.3125,-0.5252 z m -211,-3 1.3125,-0.5252 0.6042,0.6041 0.6041,0.6042 -1.9166,-0.079 -1.9167,-0.079 1.3125,-0.5252 z m 559.2664,-35.9002 0.079,-1.9167 0.5252,1.3125 0.5252,1.3125 -0.6041,0.6042 -0.6042,0.6041 0.079,-1.9166 z M 1210.232,1745 v -3.5 l 0.4573,1.75 0.4573,1.75 -0.4573,1.75 -0.4573,1.75 z m -40.7526,-95.5 -10e-5,-92 0.2704,45.6744 0.2704,45.6744 -0.2703,46.3256 -0.2703,46.3256 z m 966.7526,87.5 v -3.5 l 0.4573,1.75 0.4573,1.75 -0.4573,1.75 -0.4573,1.75 z m -892.827,-29.25 -1.905,-2.25 2.25,1.905 2.25,1.905 v 0.345 0.345 h -0.345 -0.345 z M 2073,1697.6224 v -0.3775 l 1.75,-1.3725 1.75,-1.3724 -1.3724,1.75 -1.3725,1.75 H 2073.3776 2073 Z m -854.1276,-14.3724 -1.3724,-1.75 1.75,1.3724 1.75,1.3725 v 0.3775 0.3776 h -0.3776 -0.3775 z M 2085,1684.6224 v -0.3775 l 1.75,-1.3725 1.75,-1.3724 -1.3724,1.75 -1.3725,1.75 H 2085.3776 2085 Z m -54,-3 v -0.3775 l 1.75,-1.3725 1.75,-1.3724 -1.3724,1.75 -1.3725,1.75 H 2031.3776 2031 Z m -771,-13.1224 -4.4164,-4.5 h 0.5 0.5 l 4.4164,4.5 4.4164,4.5 h -0.5 -0.5 z m 785.5,-0.5 3.9059,-4 h 0.5 0.5 l -3.9059,4 -3.9059,4 h -0.5 -0.5 z m -789.5,-5.3129 v -0.3129 l 3.25,-2.9371 3.25,-2.9371 -2.9371,3.25 -2.9371,3.25 H 1256.3129 1256 Z m 790.4371,-2.9371 -2.9371,-3.25 3.25,2.9371 3.25,2.9371 v 0.3129 0.3129 h -0.3129 -0.3129 z m -5.5647,-5.5 -1.3724,-1.75 1.75,1.3724 1.75,1.3725 v 0.3775 0.3776 h -0.3776 -0.3775 z m -16,-14 -1.3724,-1.75 1.75,1.3724 1.75,1.3725 v 0.3775 0.3776 h -0.3776 -0.3775 z M 1237,1624.5 l 2.3486,-2.5 h 0.5 0.5 l -2.3486,2.5 -2.3486,2.5 h -0.5 -0.5 z m 828.8724,-2.25 -1.3724,-1.75 1.75,1.3724 1.75,1.3725 v 0.3775 0.3776 h -0.3776 -0.3775 z M 1253,1610.6224 v -0.3775 l 1.75,-1.3725 1.75,-1.3724 -1.3724,1.75 -1.3725,1.75 H 1253.3776 1253 Z m 842.0789,-35.2057 0.079,-1.9167 0.5252,1.3125 0.5252,1.3125 -0.6041,0.6042 -0.6042,0.6041 0.079,-1.9166 z M 1210.1579,1574 v -2.5 l 0.5044,1.25 0.5044,1.25 -0.5044,1.25 -0.5044,1.25 z m 926.0741,-17 v -3.5 l 0.4573,1.75 0.4573,1.75 -0.4573,1.75 -0.4573,1.75 z m -926.0741,-6 v -2.5 l 0.5044,1.25 0.5044,1.25 -0.5044,1.25 -0.5044,1.25 z m 884.921,-0.5833 0.079,-1.9167 0.5252,1.3125 0.5252,1.3125 -0.6041,0.6042 -0.6042,0.6041 0.079,-1.9166 z m -584.2664,-4.0998 1.3125,-0.5252 0.6042,0.6041 0.6041,0.6042 -1.9166,-0.079 -1.9167,-0.079 1.3125,-0.5252 z m 56.4565,-8.0099 1.7691,-0.461 1.2309,0.4981 1.231,0.498 -3,-0.037 -3,-0.037 1.769,-0.461 z m 169.481,0.031 1.25,-0.5044 1.25,0.5044 1.25,0.5044 h -2.5 -2.5 z m -145.9375,-2.0208 1.3125,-0.5252 0.6042,0.6041 0.6041,0.6042 -1.9166,-0.079 -1.9167,-0.079 1.3125,-0.5252 z m 124,0 1.3125,-0.5252 0.6042,0.6041 0.6041,0.6042 -1.9166,-0.079 -1.9167,-0.079 1.3125,-0.5252 z m -114,-1 1.3125,-0.5252 0.6042,0.6041 0.6041,0.6042 -1.9166,-0.079 -1.9167,-0.079 1.3125,-0.5252 z m 102.9375,0.021 1.25,-0.5044 1.25,0.5044 1.25,0.5044 h -2.5 -2.5 z m -80.5,-1.027 1.75,-0.4573 1.75,0.4573 1.75,0.4573 h -3.5 -3.5 z m 57.019,0 1.7691,-0.461 1.2309,0.4981 1.231,0.498 -3,-0.037 -3,-0.037 1.769,-0.461 z m -138.519,-33.9693 1.25,-0.5044 1.25,0.5044 1.25,0.5044 h -2.5 -2.5 z m 219.0625,-0.021 1.3125,-0.5252 0.6042,0.6041 0.6041,0.6042 -1.9166,-0.079 -1.9167,-0.079 1.3125,-0.5252 z m -194,-3 1.3125,-0.5252 0.6042,0.6041 0.6041,0.6042 -1.9166,-0.079 -1.9167,-0.079 1.3125,-0.5252 z m 170,0 1.3125,-0.5252 0.6042,0.6041 0.6041,0.6042 -1.9166,-0.079 -1.9167,-0.079 1.3125,-0.5252 z m -139.5435,-2.0099 1.7691,-0.461 1.2309,0.4981 1.231,0.498 -3,-0.037 -3,-0.037 1.769,-0.461 z m 109,0 1.7691,-0.461 1.2309,0.4981 1.231,0.498 -3,-0.037 -3,-0.037 1.769,-0.461 z m -97.519,-0.9693 1.25,-0.5044 1.25,0.5044 1.25,0.5044 h -2.5 -2.5 z m 86.0625,-0.021 1.3125,-0.5252 0.6042,0.6041 0.6041,0.6042 -1.9166,-0.079 -1.9167,-0.079 1.3125,-0.5252 z m 360.0599,-26.0669 -1.3724,-1.75 1.75,1.3724 1.75,1.3725 v 0.3775 0.3776 h -0.3776 -0.3775 z M 1266,1452.6224 v -0.3775 l 1.75,-1.3725 1.75,-1.3724 -1.3724,1.75 -1.3725,1.75 H 1266.3776 1266 Z m -50,-8 v -0.3775 l 1.75,-1.3725 1.75,-1.3724 -1.3724,1.75 -1.3725,1.75 H 1216.3776 1216 Z m 871.8724,-1.3724 -1.3724,-1.75 1.75,1.3724 1.75,1.3725 v 0.3775 0.3776 h -0.3776 -0.3775 z m -14.4037,-15.5 -5.9687,-6.25 6.25,5.9687 6.25,5.9687 v 0.2813 0.2813 h -0.2813 -0.2813 z M 1229,1430.6224 v -0.3775 l 1.75,-1.3725 1.75,-1.3724 -1.3724,1.75 -1.3725,1.75 H 1229.3776 1229 Z m 830.8724,-15.3724 -1.3724,-1.75 1.75,1.3724 1.75,1.3725 v 0.3775 0.3776 h -0.3776 -0.3775 z m -542.0599,-70.9331 1.3125,-0.5252 0.6042,0.6041 0.6041,0.6042 -1.9166,-0.079 -1.9167,-0.079 1.3125,-0.5252 z m 35,-5 1.3125,-0.5252 0.6042,0.6041 0.6041,0.6042 -1.9166,-0.079 -1.9167,-0.079 1.3125,-0.5252 z m 198,0 1.3125,-0.5252 0.6042,0.6041 0.6041,0.6042 -1.9166,-0.079 -1.9167,-0.079 1.3125,-0.5252 z m -172.5435,-3.0099 1.7691,-0.461 1.2309,0.4981 1.231,0.498 -3,-0.037 -3,-0.037 1.769,-0.461 z m 146.481,0.031 1.25,-0.5044 1.25,0.5044 1.25,0.5044 h -2.5 -2.5 z m -133.9375,-1.0208 1.3125,-0.5252 0.6042,0.6041 0.6041,0.6042 -1.9166,-0.079 -1.9167,-0.079 1.3125,-0.5252 z m 18.4565,-1.0099 1.7691,-0.461 1.2309,0.4981 1.231,0.498 -3,-0.037 -3,-0.037 1.769,-0.461 z m 83.981,0 1.75,-0.4573 1.75,0.4573 1.75,0.4573 h -3.5 -3.5 z m -66.981,-1.0037 1.7691,-0.461 1.2309,0.4981 1.231,0.498 -3,-0.037 -3,-0.037 1.769,-0.461 z m 50,0 1.7691,-0.461 1.2309,0.4981 1.231,0.498 -3,-0.037 -3,-0.037 1.769,-0.461 z m -126.4565,-34.9901 1.3125,-0.5252 0.6042,0.6041 0.6041,0.6042 -1.9166,-0.079 -1.9167,-0.079 1.3125,-0.5252 z m 24,-2 1.3125,-0.5252 0.6042,0.6041 0.6041,0.6042 -1.9166,-0.079 -1.9167,-0.079 1.3125,-0.5252 z m 158,0 1.3125,-0.5252 0.6042,0.6041 0.6041,0.6042 -1.9166,-0.079 -1.9167,-0.079 1.3125,-0.5252 z m -151,-1 1.3125,-0.5252 0.6042,0.6041 0.6041,0.6042 -1.9166,-0.079 -1.9167,-0.079 1.3125,-0.5252 z m 143,0 1.3125,-0.5252 0.6042,0.6041 0.6041,0.6042 -1.9166,-0.079 -1.9167,-0.079 1.3125,-0.5252 z m -17,-1 1.3125,-0.5252 0.6042,0.6041 0.6041,0.6042 -1.9166,-0.079 -1.9167,-0.079 1.3125,-0.5252 z m -89.0446,-1.0416 3.2679,-0.4047 2.7321,0.4149 2.7321,0.4148 -6,-0.01 -6,-0.01 3.2679,-0.4046 z m 65.9821,0 3.25,-0.4033 3.25,0.4033 3.25,0.4033 h -6.5 -6.5 z"
         id="path197" />
      <path
         style="fill:#000000;fill-opacity:1"
         d="m 1644.75,2012.2628 5.25,-0.3673 5.25,0.3673 5.25,0.3672 h -10.5 -10.5 z m -38,-0.9251 1.25,-0.5044 1.25,0.5044 1.25,0.5044 h -2.5 -2.5 z m 89,0 1.25,-0.5044 1.25,0.5044 1.25,0.5044 h -2.5 -2.5 z m -104.5,-1.027 1.75,-0.4573 1.75,0.4573 1.75,0.4573 h -3.5 -3.5 z m 119,0 1.75,-0.4573 1.75,0.4573 1.75,0.4573 h -3.5 -3.5 z m 27.5625,-1.9938 1.3125,-0.5252 0.6042,0.6041 0.6041,0.6042 -1.9166,-0.079 -1.9167,-0.079 1.3125,-0.5252 z m -196,-3 1.3125,-0.5252 0.6042,0.6041 0.6041,0.6042 -1.9166,-0.079 -1.9167,-0.079 1.3125,-0.5252 z m 122.9375,-33.0403 3.25,-0.4033 3.25,0.4033 3.25,0.4033 h -6.5 -6.5 z m 26.519,-0.9696 1.7691,-0.461 1.2309,0.4981 1.231,0.498 -3,-0.037 -3,-0.037 1.769,-0.461 z m -97.4565,-0.9901 1.3125,-0.5252 0.6042,0.6041 0.6041,0.6042 -1.9166,-0.079 -1.9167,-0.079 1.3125,-0.5252 z m 120,0 1.3125,-0.5252 0.6042,0.6041 0.6041,0.6042 -1.9166,-0.079 -1.9167,-0.079 1.3125,-0.5252 z m -131.0625,-0.9792 1.25,-0.5044 1.25,0.5044 1.25,0.5044 h -2.5 -2.5 z m 145,0 1.25,-0.5044 1.25,0.5044 1.25,0.5044 h -2.5 -2.5 z m -133.5551,-54.8377 0.037,-3 0.461,1.769 0.461,1.7691 -0.4981,1.2309 -0.498,1.231 0.037,-3 z m -340.3225,-21.25 -1.3724,-1.75 1.75,1.3724 1.75,1.3725 v 0.3775 0.3776 h -0.3776 -0.3775 z m 340.2065,-2.8333 0.079,-1.9167 0.5252,1.3125 0.5252,1.3125 -0.6041,0.6042 -0.6042,0.6041 0.079,-1.9166 z M 2059,1886.6224 v -0.3775 l 1.75,-1.3725 1.75,-1.3724 -1.3724,1.75 -1.3725,1.75 H 2059.3776 2059 Z m -836.1276,-23.3724 -1.3724,-1.75 1.75,1.3724 1.75,1.3725 v 0.3775 0.3776 h -0.3776 -0.3775 z m 39.0934,-17 -5.4658,-5.75 5.75,5.4658 5.75,5.4659 v 0.2841 0.2842 h -0.2842 -0.2841 z m 782.9924,-1.5 4.4582,-4.75 h 0.2918 0.2918 v 0.2918 0.2918 l -4.75,4.4582 -4.75,4.4582 z m -374.2082,-13.4557 2.25,-0.4334 2.25,0.4334 2.25,0.4333 h -4.5 -4.5 z m -70,-0.9566 1.25,-0.5044 1.25,0.5044 1.25,0.5044 h -2.5 -2.5 z m 102,0 1.25,-0.5044 1.25,0.5044 1.25,0.5044 h -2.5 -2.5 z m -116,-1 1.25,-0.5044 1.25,0.5044 1.25,0.5044 h -2.5 -2.5 z m 130,0 1.25,-0.5044 1.25,0.5044 1.25,0.5044 h -2.5 -2.5 z m -178.9375,-5.0208 1.3125,-0.5252 0.6042,0.6041 0.6041,0.6042 -1.9166,-0.079 -1.9167,-0.079 1.3125,-0.5252 z m 228,0 1.3125,-0.5252 0.6042,0.6041 0.6041,0.6042 -1.9166,-0.079 -1.9167,-0.079 1.3125,-0.5252 z m -147,-33 1.3125,-0.5252 0.6042,0.6041 0.6041,0.6042 -1.9166,-0.079 -1.9167,-0.079 1.3125,-0.5252 z m 67,0 1.3125,-0.5252 0.6042,0.6041 0.6041,0.6042 -1.9166,-0.079 -1.9167,-0.079 1.3125,-0.5252 z m -80,-1 1.3125,-0.5252 0.6042,0.6041 0.6041,0.6042 -1.9166,-0.079 -1.9167,-0.079 1.3125,-0.5252 z m 91.9375,0.021 1.25,-0.5044 1.25,0.5044 1.25,0.5044 h -2.5 -2.5 z m -109.9375,-1.0208 1.3125,-0.5252 0.6042,0.6041 0.6041,0.6042 -1.9166,-0.079 -1.9167,-0.079 1.3125,-0.5252 z m 137.9375,-0.9792 1.25,-0.5044 1.25,0.5044 1.25,0.5044 h -2.5 -2.5 z m -192.9375,-5.0208 1.3125,-0.5252 0.6042,0.6041 0.6041,0.6042 -1.9166,-0.079 -1.9167,-0.079 1.3125,-0.5252 z m 239,0 1.3125,-0.5252 0.6042,0.6041 0.6041,0.6042 -1.9166,-0.079 -1.9167,-0.079 1.3125,-0.5252 z M 2136.4784,1647 v -87.5 l 0.2713,43.75 0.2713,43.75 -0.2713,43.75 -0.2713,43.75 z M 1265,1653.6224 v -0.3775 l 1.75,-1.3725 1.75,-1.3724 -1.3724,1.75 -1.3725,1.75 H 1265.3776 1265 Z m 772.8724,-2.3724 -1.3724,-1.75 1.75,1.3724 1.75,1.3725 v 0.3775 0.3776 h -0.3776 -0.3775 z M 1232.5,1629 l 1.81,-2 h 0.5 0.5 l -1.81,2 -1.81,2 h -0.5 -0.5 z m 836.3724,-3.75 -1.3724,-1.75 1.75,1.3724 1.75,1.3725 v 0.3775 0.3776 h -0.3776 -0.3775 z M 1244,1618.6224 v -0.3775 l 1.75,-1.3725 1.75,-1.3724 -1.3724,1.75 -1.3725,1.75 H 1244.3776 1244 Z m 496.8125,-80.3055 1.3125,-0.5252 0.6042,0.6041 0.6041,0.6042 -1.9166,-0.079 -1.9167,-0.079 1.3125,-0.5252 z m -153,-2 1.3125,-0.5252 0.6042,0.6041 0.6041,0.6042 -1.9166,-0.079 -1.9167,-0.079 1.3125,-0.5252 z m 130,0 1.3125,-0.5252 0.6042,0.6041 0.6041,0.6042 -1.9166,-0.079 -1.9167,-0.079 1.3125,-0.5252 z m -120,-1 1.3125,-0.5252 0.6042,0.6041 0.6041,0.6042 -1.9166,-0.079 -1.9167,-0.079 1.3125,-0.5252 z m 110,0 1.3125,-0.5252 0.6042,0.6041 0.6041,0.6042 -1.9166,-0.079 -1.9167,-0.079 1.3125,-0.5252 z m -89.0625,-0.9792 1.25,-0.5044 1.25,0.5044 1.25,0.5044 h -2.5 -2.5 z m 66,0 1.25,-0.5044 1.25,0.5044 1.25,0.5044 h -2.5 -2.5 z m -114.9375,-37.0208 1.3125,-0.5252 0.6042,0.6041 0.6041,0.6042 -1.9166,-0.079 -1.9167,-0.079 1.3125,-0.5252 z m 164,0 1.3125,-0.5252 0.6042,0.6041 0.6041,0.6042 -1.9166,-0.079 -1.9167,-0.079 1.3125,-0.5252 z m -31,-2 1.3125,-0.5252 0.6042,0.6041 0.6041,0.6042 -1.9166,-0.079 -1.9167,-0.079 1.3125,-0.5252 z m -90.0625,-0.9792 1.25,-0.5044 1.25,0.5044 1.25,0.5044 h -2.5 -2.5 z m 77.519,-0.031 1.7691,-0.461 1.2309,0.4981 1.231,0.498 -3,-0.037 -3,-0.037 1.769,-0.461 z M 1246,1472.6224 v -0.3775 l 1.75,-1.3725 1.75,-1.3724 -1.3724,1.75 -1.3725,1.75 H 1246.3776 1246 Z m 788.8724,-24.3724 -1.3724,-1.75 1.75,1.3724 1.75,1.3725 v 0.3775 0.3776 h -0.3776 -0.3775 z M 1241,1419.6224 v -0.3775 l 1.75,-1.3725 1.75,-1.3724 -1.3724,1.75 -1.3725,1.75 H 1241.3776 1241 Z m 8,-7 v -0.3775 l 1.75,-1.3725 1.75,-1.3724 -1.3724,1.75 -1.3725,1.75 H 1249.3776 1249 Z m 805.8724,-1.3724 -1.3724,-1.75 1.75,1.3724 1.75,1.3725 v 0.3775 0.3776 h -0.3776 -0.3775 z m -301.0599,-71.9331 1.3125,-0.5252 0.6042,0.6041 0.6041,0.6042 -1.9166,-0.079 -1.9167,-0.079 1.3125,-0.5252 z m -18,-2 1.3125,-0.5252 0.6042,0.6041 0.6041,0.6042 -1.9166,-0.079 -1.9167,-0.079 1.3125,-0.5252 z m -131.5435,-3.0099 1.7691,-0.461 1.2309,0.4981 1.231,0.498 -3,-0.037 -3,-0.037 1.769,-0.461 z m 94.481,0.031 1.25,-0.5044 1.25,0.5044 1.25,0.5044 h -2.5 -2.5 z m -77,-1 1.25,-0.5044 1.25,0.5044 1.25,0.5044 h -2.5 -2.5 z m 59,0 1.25,-0.5044 1.25,0.5044 1.25,0.5044 h -2.5 -2.5 z m 72.0625,-35.0208 1.3125,-0.5252 0.6042,0.6041 0.6041,0.6042 -1.9166,-0.079 -1.9167,-0.079 1.3125,-0.5252 z m -169,-3 1.3125,-0.5252 0.6042,0.6041 0.6041,0.6042 -1.9166,-0.079 -1.9167,-0.079 1.3125,-0.5252 z m 17,-1 1.3125,-0.5252 0.6042,0.6041 0.6041,0.6042 -1.9166,-0.079 -1.9167,-0.079 1.3125,-0.5252 z m 28.4375,-1.0454 3.75,-0.3922 3.75,0.3922 3.75,0.3923 h -7.5 -7.5 z m 42,0.012 2.75,-0.4165 2.75,0.4165 2.75,0.4166 h -5.5 -5.5 z"
         id="path195" />
      <path
         style="fill:#000000;fill-opacity:1"
         d="m 1610.8125,2011.3169 1.3125,-0.5252 0.6042,0.6041 0.6041,0.6042 -1.9166,-0.079 -1.9167,-0.079 1.3125,-0.5252 z m 80.9375,0.021 1.25,-0.5044 1.25,0.5044 1.25,0.5044 h -2.5 -2.5 z m -94.9375,-1.0208 1.3125,-0.5252 0.6042,0.6041 0.6041,0.6042 -1.9166,-0.079 -1.9167,-0.079 1.3125,-0.5252 z m 78.4375,-38.0062 1.75,-0.4573 1.75,0.4573 1.75,0.4573 h -3.5 -3.5 z m 21,-1 1.75,-0.4573 1.75,0.4573 1.75,0.4573 h -3.5 -3.5 z m 20.5625,-0.9938 1.3125,-0.5252 0.6042,0.6041 0.6041,0.6042 -1.9166,-0.079 -1.9167,-0.079 1.3125,-0.5252 z m -137,-1 1.3125,-0.5252 0.6042,0.6041 0.6041,0.6042 -1.9166,-0.079 -1.9167,-0.079 1.3125,-0.5252 z m 152,0 1.3125,-0.5252 0.6042,0.6041 0.6041,0.6042 -1.9166,-0.079 -1.9167,-0.079 1.3125,-0.5252 z m -137.7336,-58.9002 0.079,-1.9167 0.5252,1.3125 0.5252,1.3125 -0.6041,0.6042 -0.6042,0.6041 0.079,-1.9166 z m 0.079,-16.4167 v -2.5 l 0.5044,1.25 0.5044,1.25 -0.5044,1.25 -0.5044,1.25 z m -351.2336,-10.75 -2.4243,-2.75 2.75,2.4243 2.75,2.4243 v 0.3257 0.3257 h -0.3257 -0.3257 z M 2062,1883.6226 v -0.3775 l 1.75,-1.3725 1.75,-1.3724 -1.3724,1.75 -1.3725,1.75 H 2062.3776 2062 Z m -793.1276,-30.3724 -1.3724,-1.75 1.75,1.3724 1.75,1.3725 v 0.3775 0.3776 h -0.3776 -0.3775 z M 2035,1854.6226 v -0.3775 l 1.75,-1.3725 1.75,-1.3724 -1.3724,1.75 -1.3725,1.75 H 2035.3776 2035 Z m -780.1276,-15.3724 -1.3724,-1.75 1.75,1.3724 1.75,1.3725 v 0.3775 0.3776 h -0.3776 -0.3775 z M 2050,1839.6226 v -0.3775 l 1.75,-1.3725 1.75,-1.3724 -1.3724,1.75 -1.3725,1.75 H 2050.3776 2050 Z m -386.2383,-8.3297 2.2616,-0.4349 1.7384,0.4551 1.7383,0.4551 -4,-0.02 -4,-0.02 2.2617,-0.4349 z m -58.9492,-0.9758 1.3125,-0.5252 0.6042,0.6041 0.6041,0.6042 -1.9166,-0.079 -1.9167,-0.079 1.3125,-0.5252 z m -14,-1 1.3125,-0.5252 0.6042,0.6041 0.6041,0.6042 -1.9166,-0.079 -1.9167,-0.079 1.3125,-0.5252 z m 121.9375,0.021 1.25,-0.5044 1.25,0.5044 1.25,0.5044 h -2.5 -2.5 z m -146.9375,-2.0208 1.3125,-0.5252 0.6042,0.6041 0.6041,0.6042 -1.9166,-0.079 -1.9167,-0.079 1.3125,-0.5252 z m 48.9375,-35.9792 1.25,-0.5044 1.25,0.5044 1.25,0.5044 h -2.5 -2.5 z m 74.0625,-0.021 1.3125,-0.5252 0.6042,0.6041 0.6041,0.6042 -1.9166,-0.079 -1.9167,-0.079 1.3125,-0.5252 z m -86,-1 1.3125,-0.5252 0.6042,0.6041 0.6041,0.6042 -1.9166,-0.079 -1.9167,-0.079 1.3125,-0.5252 z m 99,0 1.3125,-0.5252 0.6042,0.6041 0.6041,0.6042 -1.9166,-0.079 -1.9167,-0.079 1.3125,-0.5252 z m -127.0625,-1.9792 1.25,-0.5044 1.25,0.5044 1.25,0.5044 h -2.5 -2.5 z m 155.0625,-0.021 1.3125,-0.5252 0.6042,0.6041 0.6041,0.6042 -1.9166,-0.079 -1.9167,-0.079 1.3125,-0.5252 z M 2135.1579,1744 v -2.5 l 0.5044,1.25 0.5044,1.25 -0.5044,1.25 -0.5044,1.25 z m -897.2855,-41.75 -1.3724,-1.75 1.75,1.3724 1.75,1.3725 v 0.3775 0.3776 h -0.3776 -0.3775 z m -14,-14 -1.3724,-1.75 1.75,1.3724 1.75,1.3725 v 0.3775 0.3776 h -0.3776 -0.3775 z M 2081.5,1688 l 1.81,-2 h 0.5 0.5 l -1.81,2 -1.81,2 h -0.5 -0.5 z m -865.6276,-8.75 -1.3724,-1.75 1.75,1.3724 1.75,1.3725 v 0.3775 0.3776 h -0.3776 -0.3775 z m 52.5326,-2.5 -1.905,-2.25 2.25,1.905 2.25,1.905 v 0.345 0.345 h -0.345 -0.345 z m 768.095,0.25 1.81,-2 h 0.5 0.5 l -1.81,2 -1.81,2 h -0.5 -0.5 z m -825.6276,-3.75 -1.3724,-1.75 1.75,1.3724 1.75,1.3725 v 0.3775 0.3776 h -0.3776 -0.3775 z M 2093,1674.6224 v -0.3775 l 1.75,-1.3725 1.75,-1.3724 -1.3724,1.75 -1.3725,1.75 H 2093.3776 2093 Z M 1269.5,1649 l 1.81,-2 h 0.5 0.5 l -1.81,2 -1.81,2 h -0.5 -0.5 z m -28.5,-27.3776 v -0.3775 l 1.75,-1.3725 1.75,-1.3724 -1.3724,1.75 -1.3725,1.75 H 1241.3776 1241 Z M 1170.1579,1554 v -2.5 l 0.5044,1.25 0.5044,1.25 -0.5044,1.25 -0.5044,1.25 z m 596.6546,-12.6831 1.3125,-0.5252 0.6042,0.6041 0.6041,0.6042 -1.9166,-0.079 -1.9167,-0.079 1.3125,-0.5252 z m -182,-5 1.3125,-0.5252 0.6042,0.6041 0.6041,0.6042 -1.9166,-0.079 -1.9167,-0.079 1.3125,-0.5252 z m 31,-2 1.3125,-0.5252 0.6042,0.6041 0.6041,0.6042 -1.9166,-0.079 -1.9167,-0.079 1.3125,-0.5252 z m 72.9375,0.021 1.25,-0.5044 1.25,0.5044 1.25,0.5044 h -2.5 -2.5 z m -40,-1.0699 4.25,-0.3828 4.25,0.3828 4.25,0.3828 h -8.5 -8.5 z m -75.9375,-35.9509 1.3125,-0.5252 0.6042,0.6041 0.6041,0.6042 -1.9166,-0.079 -1.9167,-0.079 1.3125,-0.5252 z m 158,0 1.3125,-0.5252 0.6042,0.6041 0.6041,0.6042 -1.9166,-0.079 -1.9167,-0.079 1.3125,-0.5252 z m -127,-2 1.3125,-0.5252 0.6042,0.6041 0.6041,0.6042 -1.9166,-0.079 -1.9167,-0.079 1.3125,-0.5252 z m 13.4375,-1.0062 1.75,-0.4573 1.75,0.4573 1.75,0.4573 h -3.5 -3.5 z m 68.019,0 1.7691,-0.461 1.2309,0.4981 1.231,0.498 -3,-0.037 -3,-0.037 1.769,-0.461 z m 373.136,-22.557 -1.905,-2.25 2.25,1.905 2.25,1.905 v 0.345 0.345 h -0.345 -0.345 z m -800.4468,-12 4.4582,-4.75 h 0.2918 0.2918 v 0.2918 0.2918 l -4.75,4.4582 -4.75,4.4582 z m 787.988,-1.5 -3.4462,-3.75 3.75,3.4462 3.75,3.4461 v 0.3039 0.3038 h -0.3038 -0.3039 z m -446.6772,-123.943 1.7691,-0.461 1.2309,0.4981 1.231,0.498 -3,-0.037 -3,-0.037 1.769,-0.461 z m 104,0 1.7691,-0.461 1.2309,0.4981 1.231,0.498 -3,-0.037 -3,-0.037 1.769,-0.461 z m -85.519,-0.9693 1.25,-0.5044 1.25,0.5044 1.25,0.5044 h -2.5 -2.5 z m 67,0 1.25,-0.5044 1.25,0.5044 1.25,0.5044 h -2.5 -2.5 z m -129.9375,-35.0208 1.3125,-0.5252 0.6042,0.6041 0.6041,0.6042 -1.9166,-0.079 -1.9167,-0.079 1.3125,-0.5252 z m 195,0 1.3125,-0.5252 0.6042,0.6041 0.6041,0.6042 -1.9166,-0.079 -1.9167,-0.079 1.3125,-0.5252 z m -163,-3 1.3125,-0.5252 0.6042,0.6041 0.6041,0.6042 -1.9166,-0.079 -1.9167,-0.079 1.3125,-0.5252 z m 132,0 1.3125,-0.5252 0.6042,0.6041 0.6041,0.6042 -1.9166,-0.079 -1.9167,-0.079 1.3125,-0.5252 z m -115.0625,-0.9792 1.25,-0.5044 1.25,0.5044 1.25,0.5044 h -2.5 -2.5 z m 97,0 1.25,-0.5044 1.25,0.5044 1.25,0.5044 h -2.5 -2.5 z m -57.5,-1.0662 3.75,-0.3922 3.75,0.3922 3.75,0.3923 h -7.5 -7.5 z m 15.4777,0.01 3.2277,-0.4017 3.7723,0.3936 3.7723,0.3936 -7,0.01 -7,0.01 3.2277,-0.4016 z"
         id="path193" />
      <path
         style="fill:#000000;fill-opacity:1"
         d="m 1613.75,2011.3377 1.25,-0.5044 1.25,0.5044 1.25,0.5044 h -2.5 -2.5 z m 75.0625,-0.021 1.3125,-0.5252 0.6042,0.6041 0.6041,0.6042 -1.9166,-0.079 -1.9167,-0.079 1.3125,-0.5252 z m -89,-1 1.3125,-0.5252 0.6042,0.6041 0.6041,0.6042 -1.9166,-0.079 -1.9167,-0.079 1.3125,-0.5252 z m 105,0 1.3125,-0.5252 0.6042,0.6041 0.6041,0.6042 -1.9166,-0.079 -1.9167,-0.079 1.3125,-0.5252 z m -23.5435,-38.0099 1.7691,-0.461 1.2309,0.4981 1.231,0.498 -3,-0.037 -3,-0.037 1.769,-0.461 z m -74.4565,-0.9901 1.3125,-0.5252 0.6042,0.6041 0.6041,0.6042 -1.9166,-0.079 -1.9167,-0.079 1.3125,-0.5252 z m 95.4375,-0.01 1.75,-0.4573 1.75,0.4573 1.75,0.4573 h -3.5 -3.5 z m -125.4375,-1.9938 1.3125,-0.5252 0.6042,0.6041 0.6041,0.6042 -1.9166,-0.079 -1.9167,-0.079 1.3125,-0.5252 z m 17.5156,-66.8169 0.01,-7 0.3936,3.7723 0.3936,3.7723 -0.4017,3.2277 -0.4016,3.2277 0.01,-7 z m -355.4557,-23.25 -1.3724,-1.75 1.75,1.3724 1.75,1.3725 v 0.3775 0.3776 h -0.3776 -0.3775 z M 2070,1875.5 l 5.4317,-5.5 h 0.5 0.5 l -5.4317,5.5 -5.4317,5.5 h -0.5 -0.5 z m -840.5629,-5.75 -2.9371,-3.25 3.25,2.9371 3.25,2.9371 v 0.3129 0.3129 h -0.3129 -0.3129 z M 2032.5,1857 l 1.81,-2 h 0.5 0.5 l -1.81,2 -1.81,2 h -0.5 -0.5 z m -760.6276,-0.75 -1.3724,-1.75 1.75,1.3724 1.75,1.3725 v 0.3775 0.3776 h -0.3776 -0.3775 z m 335.8776,-25.9123 1.25,-0.5044 1.25,0.5044 1.25,0.5044 h -2.5 -2.5 z m 89,0 1.25,-0.5044 1.25,0.5044 1.25,0.5044 h -2.5 -2.5 z m -102.9375,-1.0208 1.3125,-0.5252 0.6042,0.6041 0.6041,0.6042 -1.9166,-0.079 -1.9167,-0.079 1.3125,-0.5252 z m 142,-2 1.3125,-0.5252 0.6042,0.6041 0.6041,0.6042 -1.9166,-0.079 -1.9167,-0.079 1.3125,-0.5252 z m -124,-36 1.3125,-0.5252 0.6042,0.6041 0.6041,0.6042 -1.9166,-0.079 -1.9167,-0.079 1.3125,-0.5252 z m 80,0 1.3125,-0.5252 0.6042,0.6041 0.6041,0.6042 -1.9166,-0.079 -1.9167,-0.079 1.3125,-0.5252 z m 13,-1 1.3125,-0.5252 0.6042,0.6041 0.6041,0.6042 -1.9166,-0.079 -1.9167,-0.079 1.3125,-0.5252 z m 16,-1 1.3125,-0.5252 0.6042,0.6041 0.6041,0.6042 -1.9166,-0.079 -1.9167,-0.079 1.3125,-0.5252 z M 1170.1579,1742 v -2.5 l 0.5044,1.25 0.5044,1.25 -0.5044,1.25 -0.5044,1.25 z m 964.921,-1.5833 0.079,-1.9167 0.5252,1.3125 0.5252,1.3125 -0.6041,0.6042 -0.6042,0.6041 0.079,-1.9166 z M 2096.4496,1706 v -34.5 l 0.2988,17.25 0.2988,17.25 -0.2988,17.25 -0.2988,17.25 z m -887.0035,-1.5 8e-4,-32 0.3016,16.313 0.3016,16.3129 -0.3023,15.6871 -0.3024,15.687 z m 21.5197,-9.25 -5.4658,-5.75 5.75,5.4658 5.75,5.4659 v 0.2841 0.2842 h -0.2842 -0.2841 z m 841.0342,2.25 3.3923,-3.5 h 0.5 0.5 l -3.3923,3.5 -3.3923,3.5 h -0.5 -0.5 z m 5,-4.8776 v -0.3775 l 1.75,-1.3725 1.75,-1.3724 -1.3724,1.75 -1.3725,1.75 H 2077.3776 2077 Z m -32.0757,-35.3724 -2.4243,-2.75 2.75,2.4243 2.75,2.4243 v 0.3257 0.3257 h -0.3257 -0.3257 z M 1259,1658.6224 v -0.3775 l 1.75,-1.3725 1.75,-1.3724 -1.3724,1.75 -1.3725,1.75 H 1259.3776 1259 Z m 803.8724,-38.3724 -1.3724,-1.75 1.75,1.3724 1.75,1.3725 v 0.3775 0.3776 h -0.3776 -0.3775 z M 1209.2997,1563 v -5.5 l 0.4166,2.75 0.4165,2.75 -0.4165,2.75 -0.4166,2.75 z m 886.9863,0.5 0.014,-5 0.4179,2.7637 0.4179,2.7638 -0.4316,2.2362 -0.4315,2.2363 0.014,-5 z m -926.2071,-6.0833 0.079,-1.9167 0.5252,1.3125 0.5252,1.3125 -0.6041,0.6042 -0.6042,0.6041 0.079,-1.9166 z m 965,-4 0.079,-1.9167 0.5252,1.3125 0.5252,1.3125 -0.6041,0.6042 -0.6042,0.6041 0.079,-1.9166 z m -412.2664,-17.0998 1.3125,-0.5252 0.6042,0.6041 0.6041,0.6042 -1.9166,-0.079 -1.9167,-0.079 1.3125,-0.5252 z m -130,-1 1.3125,-0.5252 0.6042,0.6041 0.6041,0.6042 -1.9166,-0.079 -1.9167,-0.079 1.3125,-0.5252 z m 18.9375,-0.9792 1.25,-0.5044 1.25,0.5044 1.25,0.5044 h -2.5 -2.5 z m 81.0625,-0.021 1.3125,-0.5252 0.6042,0.6041 0.6041,0.6042 -1.9166,-0.079 -1.9167,-0.079 1.3125,-0.5252 z m -57.0625,-1.0403 3.25,-0.4033 3.25,0.4033 3.25,0.4033 h -6.5 -6.5 z m 28,0 3.25,-0.4033 3.25,0.4033 3.25,0.4033 h -6.5 -6.5 z m -87.9375,-35.9597 1.3125,-0.5252 0.6042,0.6041 0.6041,0.6042 -1.9166,-0.079 -1.9167,-0.079 1.3125,-0.5252 z m 11,-1 1.3125,-0.5252 0.6042,0.6041 0.6041,0.6042 -1.9166,-0.079 -1.9167,-0.079 1.3125,-0.5252 z m 20,-1 1.3125,-0.5252 0.6042,0.6041 0.6041,0.6042 -1.9166,-0.079 -1.9167,-0.079 1.3125,-0.5252 z m 89.9375,0.021 1.25,-0.5044 1.25,0.5044 1.25,0.5044 h -2.5 -2.5 z m -73,-1.0434 2.25,-0.4334 2.25,0.4334 2.25,0.4333 h -4.5 -4.5 z m 55.0117,0 2.2616,-0.4349 1.7384,0.4551 1.7383,0.4551 -4,-0.02 -4,-0.02 2.2617,-0.4349 z M 1251,1466.6224 v -0.3775 l 1.75,-1.3725 1.75,-1.3724 -1.3724,1.75 -1.3725,1.75 H 1251.3776 1251 Z m 12,-12 v -0.3775 l 1.75,-1.3725 1.75,-1.3724 -1.3724,1.75 -1.3725,1.75 H 1263.3776 1263 Z m 777.8724,-1.3724 -1.3724,-1.75 1.75,1.3724 1.75,1.3725 v 0.3775 0.3776 h -0.3776 -0.3775 z M 1226,1434.5 l 2.3486,-2.5 h 0.5 0.5 l -2.3486,2.5 -2.3486,2.5 h -0.5 -0.5 z m 853.8724,0.75 -1.3724,-1.75 1.75,1.3724 1.75,1.3725 v 0.3775 0.3776 h -0.3776 -0.3775 z M 1233.5,1427 l 3.9059,-4 h 0.5 0.5 l -3.9059,4 -3.9059,4 h -0.5 -0.5 z m 833.905,-4.25 -1.905,-2.25 2.25,1.905 2.25,1.905 v 0.345 0.345 h -0.345 -0.345 z m -503.5925,-85.4331 1.3125,-0.5252 0.6042,0.6041 0.6041,0.6042 -1.9166,-0.079 -1.9167,-0.079 1.3125,-0.5252 z m 32,-3 1.3125,-0.5252 0.6042,0.6041 0.6041,0.6042 -1.9166,-0.079 -1.9167,-0.079 1.3125,-0.5252 z m 112,0 1.3125,-0.5252 0.6042,0.6041 0.6041,0.6042 -1.9166,-0.079 -1.9167,-0.079 1.3125,-0.5252 z m -93,-1 1.3125,-0.5252 0.6042,0.6041 0.6041,0.6042 -1.9166,-0.079 -1.9167,-0.079 1.3125,-0.5252 z m 74,0 1.3125,-0.5252 0.6042,0.6041 0.6041,0.6042 -1.9166,-0.079 -1.9167,-0.079 1.3125,-0.5252 z m -99,-38 1.3125,-0.5252 0.6042,0.6041 0.6041,0.6042 -1.9166,-0.079 -1.9167,-0.079 1.3125,-0.5252 z m 126,0 1.3125,-0.5252 0.6042,0.6041 0.6041,0.6042 -1.9166,-0.079 -1.9167,-0.079 1.3125,-0.5252 z m -108.0625,-0.9792 1.25,-0.5044 1.25,0.5044 1.25,0.5044 h -2.5 -2.5 z m 89,0 1.25,-0.5044 1.25,0.5044 1.25,0.5044 h -2.5 -2.5 z"
         id="path191" />
      <path
         style="fill:#000000;fill-opacity:1"
         d="m 1618.269,2011.307 1.7691,-0.461 1.2309,0.4981 1.231,0.498 -3,-0.037 -3,-0.037 1.769,-0.461 z m 66,0 1.7691,-0.461 1.2309,0.4981 1.231,0.498 -3,-0.037 -3,-0.037 1.769,-0.461 z m 17.5435,-0.9901 1.3125,-0.5252 0.6042,0.6041 0.6041,0.6042 -1.9166,-0.079 -1.9167,-0.079 1.3125,-0.5252 z m 17,-1 1.3125,-0.5252 0.6042,0.6041 0.6041,0.6042 -1.9166,-0.079 -1.9167,-0.079 1.3125,-0.5252 z m -146,-1 1.3125,-0.5252 0.6042,0.6041 0.6041,0.6042 -1.9166,-0.079 -1.9167,-0.079 1.3125,-0.5252 z m 113,-36 1.3125,-0.5252 0.6042,0.6041 0.6041,0.6042 -1.9166,-0.079 -1.9167,-0.079 1.3125,-0.5252 z m -82,-1 1.3125,-0.5252 0.6042,0.6041 0.6041,0.6042 -1.9166,-0.079 -1.9167,-0.079 1.3125,-0.5252 z m 103.9375,0.021 1.25,-0.5044 1.25,0.5044 1.25,0.5044 h -2.5 -2.5 z m 14.0625,-1.0208 1.3125,-0.5252 0.6042,0.6041 0.6041,0.6042 -1.9166,-0.079 -1.9167,-0.079 1.3125,-0.5252 z m 22,-2 1.3125,-0.5252 0.6042,0.6041 0.6041,0.6042 -1.9166,-0.079 -1.9167,-0.079 1.3125,-0.5252 z M 1633.3201,1902 v -6.5 l 0.4033,3.25 0.4033,3.25 -0.4033,3.25 -0.4033,3.25 z m 423.1799,-14 1.81,-2 h 0.5 0.5 l -1.81,2 -1.81,2 h -0.5 -0.5 z m -808.6276,-0.75 -1.3724,-1.75 1.75,1.3724 1.75,1.3725 v 0.3775 0.3776 h -0.3776 -0.3775 z m -12,-11 -1.3724,-1.75 1.75,1.3724 1.75,1.3725 v 0.3775 0.3776 h -0.3776 -0.3775 z m 456.3966,-45.943 1.7691,-0.461 1.2309,0.4981 1.231,0.498 -3,-0.037 -3,-0.037 1.769,-0.461 z m -95.4565,-0.9901 1.3125,-0.5252 0.6042,0.6041 0.6041,0.6042 -1.9166,-0.079 -1.9167,-0.079 1.3125,-0.5252 z m 111,0 1.3125,-0.5252 0.6042,0.6041 0.6041,0.6042 -1.9166,-0.079 -1.9167,-0.079 1.3125,-0.5252 z m -137,-2 1.3125,-0.5252 0.6042,0.6041 0.6041,0.6042 -1.9166,-0.079 -1.9167,-0.079 1.3125,-0.5252 z m 38,-36 1.3125,-0.5252 0.6042,0.6041 0.6041,0.6042 -1.9166,-0.079 -1.9167,-0.079 1.3125,-0.5252 z m 85.9375,0.021 1.25,-0.5044 1.25,0.5044 1.25,0.5044 h -2.5 -2.5 z m -96.9375,-1.0208 1.3125,-0.5252 0.6042,0.6041 0.6041,0.6042 -1.9166,-0.079 -1.9167,-0.079 1.3125,-0.5252 z m 110,0 1.3125,-0.5252 0.6042,0.6041 0.6041,0.6042 -1.9166,-0.079 -1.9167,-0.079 1.3125,-0.5252 z m -537.6176,-52.8169 0.037,-3 0.461,1.769 0.461,1.7691 -0.4981,1.2309 -0.498,1.231 0.037,-3 z m 38.963,0.5 v -2.5 l 0.5044,1.25 0.5044,1.25 -0.5044,1.25 -0.5044,1.25 z m 925.921,-0.5833 0.079,-1.9167 0.5252,1.3125 0.5252,1.3125 -0.6041,0.6042 -0.6042,0.6041 0.079,-1.9166 z M 2060,1708.6224 v -0.3775 l 1.75,-1.3725 1.75,-1.3724 -1.3724,1.75 -1.3725,1.75 H 2060.3776 2060 Z m 25.5,-25.6224 1.81,-2 h 0.5 0.5 l -1.81,2 -1.81,2 h -0.5 -0.5 z m -866.6276,-0.75 -1.3724,-1.75 1.75,1.3724 1.75,1.3725 v 0.3775 0.3776 h -0.3776 -0.3775 z M 2043,1671.5 l 2.3486,-2.5 h 0.5 0.5 l -2.3486,2.5 -2.3486,2.5 h -0.5 -0.5 z m -786.595,-5.75 -1.905,-2.25 2.25,1.905 2.25,1.905 v 0.345 0.345 h -0.345 -0.345 z m 792.095,0.25 1.81,-2 h 0.5 0.5 l -1.81,2 -1.81,2 h -0.5 -0.5 z M 1262,1655.6224 v -0.3775 l 1.75,-1.3725 1.75,-1.3724 -1.3724,1.75 -1.3725,1.75 H 1262.3776 1262 Z m 778.405,-2.8724 -1.905,-2.25 2.25,1.905 2.25,1.905 v 0.345 0.345 h -0.345 -0.345 z M 1235,1627.5 l 3.3923,-3.5 h 0.5 0.5 l -3.3923,3.5 -3.3923,3.5 h -0.5 -0.5 z m -25.9211,-58.0833 0.079,-1.9167 0.5252,1.3125 0.5252,1.3125 -0.6041,0.6042 -0.6042,0.6041 0.079,-1.9166 z m 887,0 0.079,-1.9167 0.5252,1.3125 0.5252,1.3125 -0.6041,0.6042 -0.6042,0.6041 0.079,-1.9166 z M 1170.1579,1561 v -2.5 l 0.5044,1.25 0.5044,1.25 -0.5044,1.25 -0.5044,1.25 z m 965.037,-3.5 0.037,-3 0.461,1.769 0.461,1.7691 -0.4981,1.2309 -0.498,1.231 0.037,-3 z m -39.116,-0.083 0.079,-1.9167 0.5252,1.3125 0.5252,1.3125 -0.6041,0.6042 -0.6042,0.6041 0.079,-1.9166 z m -887,-1 0.079,-1.9167 0.5252,1.3125 0.5252,1.3125 -0.6041,0.6042 -0.6042,0.6041 0.079,-1.9166 z m 370.7336,-20.0998 1.3125,-0.5252 0.6042,0.6041 0.6041,0.6042 -1.9166,-0.079 -1.9167,-0.079 1.3125,-0.5252 z m 146,0 1.3125,-0.5252 0.6042,0.6041 0.6041,0.6042 -1.9166,-0.079 -1.9167,-0.079 1.3125,-0.5252 z m -117,-2 1.3125,-0.5252 0.6042,0.6041 0.6041,0.6042 -1.9166,-0.079 -1.9167,-0.079 1.3125,-0.5252 z m 86.9375,0.021 1.25,-0.5044 1.25,0.5044 1.25,0.5044 h -2.5 -2.5 z m -67.5,-1.027 1.75,-0.4573 1.75,0.4573 1.75,0.4573 h -3.5 -3.5 z m 46.5117,-0.018 2.2616,-0.4349 1.7384,0.4551 1.7383,0.4551 -4,-0.02 -4,-0.02 2.2617,-0.4349 z m 51.0508,-35.9758 1.3125,-0.5252 0.6042,0.6041 0.6041,0.6042 -1.9166,-0.079 -1.9167,-0.079 1.3125,-0.5252 z m -11,-1 1.3125,-0.5252 0.6042,0.6041 0.6041,0.6042 -1.9166,-0.079 -1.9167,-0.079 1.3125,-0.5252 z m -105,-1 1.3125,-0.5252 0.6042,0.6041 0.6041,0.6042 -1.9166,-0.079 -1.9167,-0.079 1.3125,-0.5252 z m 84,0 1.3125,-0.5252 0.6042,0.6041 0.6041,0.6042 -1.9166,-0.079 -1.9167,-0.079 1.3125,-0.5252 z m -62.0508,-1.0242 2.2616,-0.4349 1.7384,0.4551 1.7383,0.4551 -4,-0.02 -4,-0.02 2.2617,-0.4349 z m 38.9883,0 2.25,-0.4334 2.25,0.4334 2.25,0.4333 h -4.5 -4.5 z M 1266,1451.6213 v -0.3775 l 1.75,-1.3725 1.75,-1.3724 -1.3724,1.75 -1.3725,1.75 H 1266.3776 1266 Z m -49,-7 v -0.3775 l 1.75,-1.3725 1.75,-1.3724 -1.3724,1.75 -1.3725,1.75 H 1217.3776 1217 Z m 857.405,-14.8724 -1.905,-2.25 2.25,1.905 2.25,1.905 v 0.345 0.345 h -0.345 -0.345 z m -481.5925,-95.4331 1.3125,-0.5252 0.6042,0.6041 0.6041,0.6042 -1.9166,-0.079 -1.9167,-0.079 1.3125,-0.5252 z m 118,0 1.3125,-0.5252 0.6042,0.6041 0.6041,0.6042 -1.9166,-0.079 -1.9167,-0.079 1.3125,-0.5252 z m -100.0625,-0.9792 1.25,-0.5044 1.25,0.5044 1.25,0.5044 h -2.5 -2.5 z m 81.519,-0.031 1.7691,-0.461 1.2309,0.4981 1.231,0.498 -3,-0.037 -3,-0.037 1.769,-0.461 z m -41,-1 1.7691,-0.461 1.2309,0.4981 1.231,0.498 -3,-0.037 -3,-0.037 1.769,-0.461 z m -58.519,-36.9693 1.25,-0.5044 1.25,0.5044 1.25,0.5044 h -2.5 -2.5 z m 119,0 1.25,-0.5044 1.25,0.5044 1.25,0.5044 h -2.5 -2.5 z m -100,-1 1.25,-0.5044 1.25,0.5044 1.25,0.5044 h -2.5 -2.5 z m 82.0625,-0.021 1.3125,-0.5252 0.6042,0.6041 0.6041,0.6042 -1.9166,-0.079 -1.9167,-0.079 1.3125,-0.5252 z"
         id="path189" />
      <path
         style="fill:#000000;fill-opacity:1"
         d="m 1623.269,2011.307 1.7691,-0.461 1.2309,0.4981 1.231,0.498 -3,-0.037 -3,-0.037 1.769,-0.461 z m 57.5435,0.01 1.3125,-0.5252 0.6042,0.6041 0.6041,0.6042 -1.9166,-0.079 -1.9167,-0.079 1.3125,-0.5252 z m -76.0625,-0.9792 1.25,-0.5044 1.25,0.5044 1.25,0.5044 h -2.5 -2.5 z m 93,0 1.25,-0.5044 1.25,0.5044 1.25,0.5044 h -2.5 -2.5 z m -8.481,-38.0307 1.7691,-0.461 1.2309,0.4981 1.231,0.498 -3,-0.037 -3,-0.037 1.769,-0.461 z m -88.4565,-0.9901 1.3125,-0.5252 0.6042,0.6041 0.6041,0.6042 -1.9166,-0.079 -1.9167,-0.079 1.3125,-0.5252 z m 110.9375,0.021 1.25,-0.5044 1.25,0.5044 1.25,0.5044 h -2.5 -2.5 z m 13.519,-1.0307 1.7691,-0.461 1.2309,0.4981 1.231,0.498 -3,-0.037 -3,-0.037 1.769,-0.461 z m 21.5435,-1.9901 1.3125,-0.5252 0.6042,0.6041 0.6041,0.6042 -1.9166,-0.079 -1.9167,-0.079 1.3125,-0.5252 z m 130,-27 1.3125,-0.5252 0.6042,0.6041 0.6041,0.6042 -1.9166,-0.079 -1.9167,-0.079 1.3125,-0.5252 z M 1893,1936.6073 v -0.393 l 1.5519,-0.5956 1.552,-0.5955 -0.611,0.9886 -0.6109,0.9885 h -0.941 -0.941 z m -259.9211,-27.1903 0.079,-1.9167 0.5252,1.3125 0.5252,1.3125 -0.6041,0.6042 -0.6042,0.6041 0.079,-1.9166 z m 0,-15 0.079,-1.9167 0.5252,1.3125 0.5252,1.3125 -0.6041,0.6042 -0.6042,0.6041 0.079,-1.9166 z m -409.2065,-31.1667 -1.3724,-1.75 1.75,1.3724 1.75,1.3725 v 0.3775 0.3776 h -0.3776 -0.3775 z m 40.0738,-14 -3.4462,-3.75 3.75,3.4462 3.75,3.4461 v 0.3039 0.3038 h -0.3038 -0.3039 z M 2039,1851.6227 v -0.3775 l 1.75,-1.3725 1.75,-1.3724 -1.3724,1.75 -1.3725,1.75 H 2039.3776 2039 Z m 5,-4.9353 v -0.3129 l 3.25,-2.9371 3.25,-2.9371 -2.9371,3.25 -2.9371,3.25 H 2044.3129 2044 Z m -786.595,-3.9371 -1.905,-2.25 2.25,1.905 2.25,1.905 v 0.345 0.345 h -0.345 -0.345 z m 430.345,-12.4123 1.25,-0.5044 1.25,0.5044 1.25,0.5044 h -2.5 -2.5 z m -87.9375,-1.0208 1.3125,-0.5252 0.6042,0.6041 0.6041,0.6042 -1.9166,-0.079 -1.9167,-0.079 1.3125,-0.5252 z m 105,0 1.3125,-0.5252 0.6042,0.6041 0.6041,0.6042 -1.9166,-0.079 -1.9167,-0.079 1.3125,-0.5252 z m 26,-2 1.3125,-0.5252 0.6042,0.6041 0.6041,0.6042 -1.9166,-0.079 -1.9167,-0.079 1.3125,-0.5252 z m -91.0625,-35.0491 4.25,-0.3828 4.25,0.3828 4.25,0.3828 h -8.5 -8.5 z m 18,0 4.25,-0.3828 4.25,0.3828 4.25,0.3828 h -8.5 -8.5 z m -51.9375,-0.9509 1.3125,-0.5252 0.6042,0.6041 0.6041,0.6042 -1.9166,-0.079 -1.9167,-0.079 1.3125,-0.5252 z m 93,0 1.3125,-0.5252 0.6042,0.6041 0.6041,0.6042 -1.9166,-0.079 -1.9167,-0.079 1.3125,-0.5252 z m -104,-1 1.3125,-0.5252 0.6042,0.6041 0.6041,0.6042 -1.9166,-0.079 -1.9167,-0.079 1.3125,-0.5252 z m 501.2664,-46.9002 0.079,-1.9167 0.5252,1.3125 0.5252,1.3125 -0.6041,0.6042 -0.6042,0.6041 0.079,-1.9166 z m -886.921,-1.4167 v -2.5 l 0.5044,1.25 0.5044,1.25 -0.5044,1.25 -0.5044,1.25 z m 926.3208,-94 v -88.5 l 0.271,44.25 0.2711,44.25 -0.2711,44.25 -0.271,44.25 z m -965.0005,1 v -86.5 l 0.2715,43.25 0.2715,43.25 -0.2715,43.25 -0.2715,43.25 z m 70.9268,55.75 -1.905,-2.25 2.25,1.905 2.25,1.905 v 0.345 0.345 h -0.345 -0.345 z m 795.4674,-55.5 -1.3724,-1.75 1.75,1.3724 1.75,1.3725 v 0.3775 0.3776 h -0.3776 -0.3775 z m 31.5326,-23.5 -1.905,-2.25 2.25,1.905 2.25,1.905 v 0.345 0.345 h -0.345 -0.345 z m 27.6739,-71.3333 0.079,-1.9167 0.5252,1.3125 0.5252,1.3125 -0.6041,0.6042 -0.6042,0.6041 0.079,-1.9166 z m -519.2664,-18.0998 1.3125,-0.5252 0.6042,0.6041 0.6041,0.6042 -1.9166,-0.079 -1.9167,-0.079 1.3125,-0.5252 z m 29,-2 1.3125,-0.5252 0.6042,0.6041 0.6041,0.6042 -1.9166,-0.079 -1.9167,-0.079 1.3125,-0.5252 z m 94,0 1.3125,-0.5252 0.6042,0.6041 0.6041,0.6042 -1.9166,-0.079 -1.9167,-0.079 1.3125,-0.5252 z m -78.0508,-1.0242 2.2616,-0.4349 1.7384,0.4551 1.7383,0.4551 -4,-0.02 -4,-0.02 2.2617,-0.4349 z m 59.4883,0.018 1.75,-0.4573 1.75,0.4573 1.75,0.4573 h -3.5 -3.5 z m -100.4375,-35.9938 1.3125,-0.5252 0.6042,0.6041 0.6041,0.6042 -1.9166,-0.079 -1.9167,-0.079 1.3125,-0.5252 z m 142,0 1.3125,-0.5252 0.6042,0.6041 0.6041,0.6042 -1.9166,-0.079 -1.9167,-0.079 1.3125,-0.5252 z m -131,-1 1.3125,-0.5252 0.6042,0.6041 0.6041,0.6042 -1.9166,-0.079 -1.9167,-0.079 1.3125,-0.5252 z m 120,0 1.3125,-0.5252 0.6042,0.6041 0.6041,0.6042 -1.9166,-0.079 -1.9167,-0.079 1.3125,-0.5252 z m -99,-1 1.3125,-0.5252 0.6042,0.6041 0.6041,0.6042 -1.9166,-0.079 -1.9167,-0.079 1.3125,-0.5252 z m 78,0 1.3125,-0.5252 0.6042,0.6041 0.6041,0.6042 -1.9166,-0.079 -1.9167,-0.079 1.3125,-0.5252 z m -46.0625,-1.0609 8.25,-0.3369 8.25,0.3369 8.25,0.3369 h -16.5 -16.5 z m 69.0625,-159.9391 1.3125,-0.5252 0.6042,0.6041 0.6041,0.6042 -1.9166,-0.079 -1.9167,-0.079 1.3125,-0.5252 z m -17,-1 1.3125,-0.5252 0.6042,0.6041 0.6041,0.6042 -1.9166,-0.079 -1.9167,-0.079 1.3125,-0.5252 z m -58.0361,-1.0504 4.2765,-0.3841 3.7235,0.3907 3.7236,0.3907 -8,-0.01 -8,-0.01 4.2764,-0.3841 z m 18.9513,0.012 3.2277,-0.4017 3.7723,0.3936 3.7723,0.3936 -7,0.01 -7,0.01 3.2277,-0.4016 z m -96.9152,-33.9614 1.3125,-0.5252 0.6042,0.6041 0.6041,0.6042 -1.9166,-0.079 -1.9167,-0.079 1.3125,-0.5252 z m 36,-3 1.3125,-0.5252 0.6042,0.6041 0.6041,0.6042 -1.9166,-0.079 -1.9167,-0.079 1.3125,-0.5252 z m 110.9375,0.021 1.25,-0.5044 1.25,0.5044 1.25,0.5044 h -2.5 -2.5 z m -92,-1 1.25,-0.5044 1.25,0.5044 1.25,0.5044 h -2.5 -2.5 z m 73.519,-0.031 1.7691,-0.461 1.2309,0.4981 1.231,0.498 -3,-0.037 -3,-0.037 1.769,-0.461 z"
         id="path187" />
      <path
         style="fill:#000000;fill-opacity:1"
         d="m 1628.75,2011.2943 2.25,-0.4334 2.25,0.4334 2.25,0.4333 h -4.5 -4.5 z m 42,-0.018 3.25,-0.4033 3.25,0.4033 3.25,0.4033 h -6.5 -6.5 z m -61.9375,-0.9597 1.3125,-0.5252 0.6042,0.6041 0.6041,0.6042 -1.9166,-0.079 -1.9167,-0.079 1.3125,-0.5252 z m 84.9375,0.021 1.25,-0.5044 1.25,0.5044 1.25,0.5044 h -2.5 -2.5 z m -115.9375,-2.0208 1.3125,-0.5252 0.6042,0.6041 0.6041,0.6042 -1.9166,-0.079 -1.9167,-0.079 1.3125,-0.5252 z m 149,0 1.3125,-0.5252 0.6042,0.6041 0.6041,0.6042 -1.9166,-0.079 -1.9167,-0.079 1.3125,-0.5252 z m -32.5435,-36.0099 1.7691,-0.461 1.2309,0.4981 1.231,0.498 -3,-0.037 -3,-0.037 1.769,-0.461 z m -98,-1 1.7691,-0.461 1.2309,0.4981 1.231,0.498 -3,-0.037 -3,-0.037 1.769,-0.461 z m 119.481,0.031 1.25,-0.5044 1.25,0.5044 1.25,0.5044 h -2.5 -2.5 z m 14.5,-1.027 1.75,-0.4573 1.75,0.4573 1.75,0.4573 h -3.5 -3.5 z m 19.5625,-1.9938 1.3125,-0.5252 0.6042,0.6041 0.6041,0.6042 -1.9166,-0.079 -1.9167,-0.079 1.3125,-0.5252 z m 133,-28 1.3125,-0.5252 0.6042,0.6041 0.6041,0.6042 -1.9166,-0.079 -1.9167,-0.079 1.3125,-0.5252 z m 12.9208,-4.441 1.2334,-1.2426 0.5598,0.5598 0.5598,0.5598 -1.7932,0.6828 -1.7931,0.6828 z m -262.6544,-23.4592 0.079,-1.9167 0.5252,1.3125 0.5252,1.3125 -0.6041,0.6042 -0.6042,0.6041 0.079,-1.9166 z m 0,-21 0.079,-1.9167 0.5252,1.3125 0.5252,1.3125 -0.6041,0.6042 -0.6042,0.6041 0.079,-1.9166 z m -389.1546,-8.1667 -2.4243,-2.75 2.75,2.4243 2.75,2.4243 v 0.3257 0.3257 h -0.3257 -0.3257 z M 2061,1883.6226 v -0.3775 l 1.75,-1.3725 1.75,-1.3724 -1.3724,1.75 -1.3725,1.75 H 2061.3776 2061 Z m 24,-25 v -0.3775 l 1.75,-1.3725 1.75,-1.3724 -1.3724,1.75 -1.3725,1.75 H 2085.3776 2085 Z m -49,-4 v -0.3775 l 1.75,-1.3725 1.75,-1.3724 -1.3724,1.75 -1.3725,1.75 H 2036.3776 2036 Z m 14,-14 v -0.3775 l 1.75,-1.3725 1.75,-1.3724 -1.3724,1.75 -1.3725,1.75 H 2050.3776 2050 Z m 7,-8 v -0.3775 l 1.75,-1.3725 1.75,-1.3724 -1.3724,1.75 -1.3725,1.75 H 2057.3776 2057 Z m -374.75,-2.3117 1.75,-0.4573 1.75,0.4573 1.75,0.4573 h -3.5 -3.5 z m -79.4375,-0.9938 1.3125,-0.5252 0.6042,0.6041 0.6041,0.6042 -1.9166,-0.079 -1.9167,-0.079 1.3125,-0.5252 z m 99,0 1.3125,-0.5252 0.6042,0.6041 0.6041,0.6042 -1.9166,-0.079 -1.9167,-0.079 1.3125,-0.5252 z m -117,-1 1.3125,-0.5252 0.6042,0.6041 0.6041,0.6042 -1.9166,-0.079 -1.9167,-0.079 1.3125,-0.5252 z m 46.4375,-36.0062 1.75,-0.4573 1.75,0.4573 1.75,0.4573 h -3.5 -3.5 z m 40,0 1.75,-0.4573 1.75,0.4573 1.75,0.4573 h -3.5 -3.5 z m -80.5,-1.973 1.25,-0.5044 1.25,0.5044 1.25,0.5044 h -2.5 -2.5 z m 122,0 1.25,-0.5044 1.25,0.5044 1.25,0.5044 h -2.5 -2.5 z M 2066.5,1702 l 1.81,-2 h 0.5 0.5 l -1.81,2 -1.81,2 h -0.5 -0.5 z m -842.6276,-14.75 -1.3724,-1.75 1.75,1.3724 1.75,1.3725 v 0.3775 0.3776 h -0.3776 -0.3775 z M 2080,1688.6224 v -0.3775 l 1.75,-1.3725 1.75,-1.3724 -1.3724,1.75 -1.3725,1.75 H 2080.3776 2080 Z m -812.595,-11.8724 -1.905,-2.25 2.25,1.905 2.25,1.905 v 0.345 0.345 h -0.345 -0.345 z m 770.095,0.25 1.81,-2 h 0.5 0.5 l -1.81,2 -1.81,2 h -0.5 -0.5 z M 1267,1650.6224 v -0.3775 l 1.75,-1.3725 1.75,-1.3724 -1.3724,1.75 -1.3725,1.75 H 1267.3776 1267 Z M 1243.5,1620 l 1.81,-2 h 0.5 0.5 l -1.81,2 -1.81,2 h -0.5 -0.5 z m 816.3724,-1.75 -1.3724,-1.75 1.75,1.3724 1.75,1.3725 v 0.3775 0.3776 h -0.3776 -0.3775 z m -329.0599,-81.9331 1.3125,-0.5252 0.6042,0.6041 0.6041,0.6042 -1.9166,-0.079 -1.9167,-0.079 1.3125,-0.5252 z m -128,-2 1.3125,-0.5252 0.6042,0.6041 0.6041,0.6042 -1.9166,-0.079 -1.9167,-0.079 1.3125,-0.5252 z m 15,-1 1.3125,-0.5252 0.6042,0.6041 0.6041,0.6042 -1.9166,-0.079 -1.9167,-0.079 1.3125,-0.5252 z m 68.9375,0.021 1.25,-0.5044 1.25,0.5044 1.25,0.5044 h -2.5 -2.5 z m -70.9375,-38.0208 1.3125,-0.5252 0.6042,0.6041 0.6041,0.6042 -1.9166,-0.079 -1.9167,-0.079 1.3125,-0.5252 z m 72,0 1.3125,-0.5252 0.6042,0.6041 0.6041,0.6042 -1.9166,-0.079 -1.9167,-0.079 1.3125,-0.5252 z m 371.0599,-24.0669 -1.3724,-1.75 1.75,1.3724 1.75,1.3725 v 0.3775 0.3776 h -0.3776 -0.3775 z M 1257,1459.5 l 5.4317,-5.5 h 0.5 0.5 l -5.4317,5.5 -5.4317,5.5 h -0.5 -0.5 z m 776.8724,-13.25 -1.3724,-1.75 1.75,1.3724 1.75,1.3725 v 0.3775 0.3776 h -0.3776 -0.3775 z M 1222,1439.6224 v -0.3775 l 1.75,-1.3725 1.75,-1.3724 -1.3724,1.75 -1.3725,1.75 H 1222.3776 1222 Z m 335.8125,-102.3055 1.3125,-0.5252 0.6042,0.6041 0.6041,0.6042 -1.9166,-0.079 -1.9167,-0.079 1.3125,-0.5252 z m 30,-3 1.3125,-0.5252 0.6042,0.6041 0.6041,0.6042 -1.9166,-0.079 -1.9167,-0.079 1.3125,-0.5252 z m 129,0 1.3125,-0.5252 0.6042,0.6041 0.6041,0.6042 -1.9166,-0.079 -1.9167,-0.079 1.3125,-0.5252 z m -111,-1 1.3125,-0.5252 0.6042,0.6041 0.6041,0.6042 -1.9166,-0.079 -1.9167,-0.079 1.3125,-0.5252 z m 21.4375,-1.0332 2.75,-0.4165 2.75,0.4165 2.75,0.4166 h -5.5 -5.5 z m 43.5,-0.01 3.25,-0.4033 3.25,0.4033 3.25,0.4033 h -6.5 -6.5 z m 90.0625,-31.9597 1.3125,-0.5252 0.6042,0.6041 0.6041,0.6042 -1.9166,-0.079 -1.9167,-0.079 1.3125,-0.5252 z m -176,-4 1.3125,-0.5252 0.6042,0.6041 0.6041,0.6042 -1.9166,-0.079 -1.9167,-0.079 1.3125,-0.5252 z m 14.9375,-0.9792 1.25,-0.5044 1.25,0.5044 1.25,0.5044 h -2.5 -2.5 z m 104,0 1.25,-0.5044 1.25,0.5044 1.25,0.5044 h -2.5 -2.5 z m -84,-1 1.25,-0.5044 1.25,0.5044 1.25,0.5044 h -2.5 -2.5 z m 65,0 1.25,-0.5044 1.25,0.5044 1.25,0.5044 h -2.5 -2.5 z"
         id="path185" />
      <path
         style="fill:#000000;fill-opacity:1"
         d="m 1643.2991,2011.2547 8.7991,-0.334 8.2009,0.3361 8.2009,0.3361 h -17 -17 l 8.7991,-0.334 z m -31.5491,-0.917 1.25,-0.5044 1.25,0.5044 1.25,0.5044 h -2.5 -2.5 z m 78,0 1.25,-0.5044 1.25,0.5044 1.25,0.5044 h -2.5 -2.5 z m -108.9375,-2.0208 1.3125,-0.5252 0.6042,0.6041 0.6041,0.6042 -1.9166,-0.079 -1.9167,-0.079 1.3125,-0.5252 z m 141.9375,0.021 1.25,-0.5044 1.25,0.5044 1.25,0.5044 h -2.5 -2.5 z m -60,-35 1.25,-0.5044 1.25,0.5044 1.25,0.5044 h -2.5 -2.5 z m -54,-1 1.25,-0.5044 1.25,0.5044 1.25,0.5044 h -2.5 -2.5 z m 90.5,-0.027 1.75,-0.4573 1.75,0.4573 1.75,0.4573 h -3.5 -3.5 z m -107.5,-0.973 1.25,-0.5044 1.25,0.5044 1.25,0.5044 h -2.5 -2.5 z m 128,0 1.25,-0.5044 1.25,0.5044 1.25,0.5044 h -2.5 -2.5 z m -137.9375,-1.0208 1.3125,-0.5252 0.6042,0.6041 0.6041,0.6042 -1.9166,-0.079 -1.9167,-0.079 1.3125,-0.5252 z m 153.9375,0.021 1.25,-0.5044 1.25,0.5044 1.25,0.5044 h -2.5 -2.5 z m 21.0625,-3.0208 1.3125,-0.5252 0.6042,0.6041 0.6041,0.6042 -1.9166,-0.079 -1.9167,-0.079 1.3125,-0.5252 z m 125.6875,-26.2845 7,-1.8575 1.75,-0.6945 1.75,-0.6944 v 0.5668 0.5668 l -6.6053,2.0402 -6.6054,2.0402 -2.1446,-0.055 -2.1447,-0.055 7,-1.8575 z m 15.5,-5.5324 2.5,-1.4291 h 1 1 l -2.5,1.4291 -2.5,1.4291 h -1 -1 z m 5.7333,-2.6241 1.2334,-1.2426 0.5598,0.5598 0.5598,0.5598 -1.7932,0.6828 -1.7931,0.6828 z M 1951,1912.607 v -0.393 l 1.5519,-0.5956 1.552,-0.5955 -0.611,0.9886 -0.6109,0.9885 h -0.941 -0.941 z m -711.595,-33.857 -1.905,-2.25 2.25,1.905 2.25,1.905 v 0.345 0.345 h -0.345 -0.345 z m 826.595,-0.25 2.3486,-2.5 h 0.5 0.5 l -2.3486,2.5 -2.3486,2.5 h -0.5 -0.5 z m 7.5,-7.5 3.9059,-4 h 0.5 0.5 l -3.9059,4 -3.9059,4 h -0.5 -0.5 z m -844.0629,-2.25 -2.9371,-3.25 3.25,2.9371 3.25,2.9371 v 0.3129 0.3129 h -0.3129 -0.3129 z M 2033.5,1857 l 1.81,-2 h 0.5 0.5 l -1.81,2 -1.81,2 h -0.5 -0.5 z m -762.6276,-0.75 -1.3724,-1.75 1.75,1.3724 1.75,1.3725 v 0.3775 0.3776 h -0.3776 -0.3775 z m 398.904,-25.9835 4.2765,-0.3841 3.7235,0.3907 3.7236,0.3907 -8,-0.01 -8,-0.01 4.2764,-0.3841 z m -64.0264,-0.9288 1.25,-0.5044 1.25,0.5044 1.25,0.5044 h -2.5 -2.5 z m 93.0625,-0.021 1.3125,-0.5252 0.6042,0.6041 0.6041,0.6042 -1.9166,-0.079 -1.9167,-0.079 1.3125,-0.5252 z m -121,-2 1.3125,-0.5252 0.6042,0.6041 0.6041,0.6042 -1.9166,-0.079 -1.9167,-0.079 1.3125,-0.5252 z m 148,0 1.3125,-0.5252 0.6042,0.6041 0.6041,0.6042 -1.9166,-0.079 -1.9167,-0.079 1.3125,-0.5252 z m -171,-2 1.3125,-0.5252 0.6042,0.6041 0.6041,0.6042 -1.9166,-0.079 -1.9167,-0.079 1.3125,-0.5252 z m 192.9375,0.021 1.25,-0.5044 1.25,0.5044 1.25,0.5044 h -2.5 -2.5 z m -215.9375,-3.0208 1.3125,-0.5252 0.6042,0.6041 0.6041,0.6042 -1.9166,-0.079 -1.9167,-0.079 1.3125,-0.5252 z m 240,0 1.3125,-0.5252 0.6042,0.6041 0.6041,0.6042 -1.9166,-0.079 -1.9167,-0.079 1.3125,-0.5252 z m -146.5625,-30.0062 1.75,-0.4573 1.75,0.4573 1.75,0.4573 h -3.5 -3.5 z m 52,0 1.75,-0.4573 1.75,0.4573 1.75,0.4573 h -3.5 -3.5 z m -76.4375,-0.9938 1.3125,-0.5252 0.6042,0.6041 0.6041,0.6042 -1.9166,-0.079 -1.9167,-0.079 1.3125,-0.5252 z m 103,0 1.3125,-0.5252 0.6042,0.6041 0.6041,0.6042 -1.9166,-0.079 -1.9167,-0.079 1.3125,-0.5252 z m -116,-1 1.3125,-0.5252 0.6042,0.6041 0.6041,0.6042 -1.9166,-0.079 -1.9167,-0.079 1.3125,-0.5252 z m 128.9375,0.021 1.25,-0.5044 1.25,0.5044 1.25,0.5044 h -2.5 -2.5 z m -545.6711,-41.921 0.079,-1.9167 0.5252,1.3125 0.5252,1.3125 -0.6041,0.6042 -0.6042,0.6041 0.079,-1.9166 z m 926.37,-43.9167 7e-4,-34 0.2991,17.314 0.2991,17.314 -0.2998,16.686 -0.2998,16.686 z m -889.0028,-1 8e-4,-32 0.3016,16.313 0.3016,16.3129 -0.3023,15.6871 -0.3024,15.687 z m 44.4263,10.75 -1.3724,-1.75 1.75,1.3724 1.75,1.3725 v 0.3775 0.3776 h -0.3776 -0.3775 z M 2051,1715.6226 v -0.3775 l 1.75,-1.3725 1.75,-1.3724 -1.3724,1.75 -1.3725,1.75 H 2051.3776 2051 Z m -819.5313,-20.8724 -5.9687,-6.25 6.25,5.9687 6.25,5.9687 v 0.2813 0.2813 h -0.2813 -0.2813 z m 841.4895,1 4.4582,-4.75 h 0.2918 0.2918 v 0.2918 0.2918 l -4.75,4.4582 -4.75,4.4582 z m -28.0339,-39.5 -2.4243,-2.75 2.75,2.4243 2.75,2.4243 v 0.3257 0.3257 h -0.3257 -0.3257 z M 1259,1657.6226 v -0.3775 l 1.75,-1.3725 1.75,-1.3724 -1.3724,1.75 -1.3725,1.75 H 1259.3776 1259 Z m 11,-10 v -0.3775 l 1.75,-1.3725 1.75,-1.3724 -1.3724,1.75 -1.3725,1.75 H 1270.3776 1270 Z m -31,-23 v -0.3775 l 1.75,-1.3725 1.75,-1.3724 -1.3724,1.75 -1.3725,1.75 H 1239.3776 1239 Z m 824.405,-2.8724 -1.905,-2.25 2.25,1.905 2.25,1.905 v 0.345 0.345 h -0.345 -0.345 z m -855.173,-58.75 v -3.5 l 0.4573,1.75 0.4573,1.75 -0.4573,1.75 -0.4573,1.75 z m 888.9629,0.5 0.037,-3 0.461,1.769 0.461,1.7691 -0.4981,1.2309 -0.498,1.231 0.037,-3 z m -926.116,-15.0833 0.079,-1.9167 0.5252,1.3125 0.5252,1.3125 -0.6041,0.6042 -0.6042,0.6041 0.079,-1.9166 z m 587.7336,-9.0998 1.3125,-0.5252 0.6042,0.6041 0.6041,0.6042 -1.9166,-0.079 -1.9167,-0.079 1.3125,-0.5252 z m -160.5435,-5.0099 1.7691,-0.461 1.2309,0.4981 1.231,0.498 -3,-0.037 -3,-0.037 1.769,-0.461 z m 107,0 1.7691,-0.461 1.2309,0.4981 1.231,0.498 -3,-0.037 -3,-0.037 1.769,-0.461 z m -91.519,-0.9693 1.25,-0.5044 1.25,0.5044 1.25,0.5044 h -2.5 -2.5 z m 77.0625,-0.021 1.3125,-0.5252 0.6042,0.6041 0.6041,0.6042 -1.9166,-0.079 -1.9167,-0.079 1.3125,-0.5252 z m -128,-34 1.3125,-0.5252 0.6042,0.6041 0.6041,0.6042 -1.9166,-0.079 -1.9167,-0.079 1.3125,-0.5252 z m 178,0 1.3125,-0.5252 0.6042,0.6041 0.6041,0.6042 -1.9166,-0.079 -1.9167,-0.079 1.3125,-0.5252 z m -155,-2 1.3125,-0.5252 0.6042,0.6041 0.6041,0.6042 -1.9166,-0.079 -1.9167,-0.079 1.3125,-0.5252 z m 132,0 1.3125,-0.5252 0.6042,0.6041 0.6041,0.6042 -1.9166,-0.079 -1.9167,-0.079 1.3125,-0.5252 z m -121,-1 1.3125,-0.5252 0.6042,0.6041 0.6041,0.6042 -1.9166,-0.079 -1.9167,-0.079 1.3125,-0.5252 z m 110,0 1.3125,-0.5252 0.6042,0.6041 0.6041,0.6042 -1.9166,-0.079 -1.9167,-0.079 1.3125,-0.5252 z m -88.0625,-0.9792 1.25,-0.5044 1.25,0.5044 1.25,0.5044 h -2.5 -2.5 z m 66.0625,-0.021 1.3125,-0.5252 0.6042,0.6041 0.6041,0.6042 -1.9166,-0.079 -1.9167,-0.079 1.3125,-0.5252 z m 368.0599,-31.0669 -1.3724,-1.75 1.75,1.3724 1.75,1.3725 v 0.3775 0.3776 h -0.3776 -0.3775 z M 1263,1453.6224 v -0.3775 l 1.75,-1.3725 1.75,-1.3724 -1.3724,1.75 -1.3725,1.75 H 1263.3776 1263 Z m 817.8724,-16.3724 -1.3724,-1.75 1.75,1.3724 1.75,1.3725 v 0.3775 0.3776 h -0.3776 -0.3775 z M 1228,1433.6224 v -0.3775 l 1.75,-1.3725 1.75,-1.3724 -1.3724,1.75 -1.3725,1.75 H 1228.3776 1228 Z m 8.5,-8.6224 3.9059,-4 h 0.5 0.5 l -3.9059,4 -3.9059,4 h -0.5 -0.5 z m 829.905,-2.25 -1.905,-2.25 2.25,1.905 2.25,1.905 v 0.345 0.345 h -0.345 -0.345 z m -463.5925,-89.4331 1.3125,-0.5252 0.6042,0.6041 0.6041,0.6042 -1.9166,-0.079 -1.9167,-0.079 1.3125,-0.5252 z m 99,0 1.3125,-0.5252 0.6042,0.6041 0.6041,0.6042 -1.9166,-0.079 -1.9167,-0.079 1.3125,-0.5252 z m -82.0508,-1.0242 2.2616,-0.4349 1.7384,0.4551 1.7383,0.4551 -4,-0.02 -4,-0.02 2.2617,-0.4349 z m 61.4883,0.018 1.75,-0.4573 1.75,0.4573 1.75,0.4573 h -3.5 -3.5 z m -134.4375,-31.9938 1.3125,-0.5252 0.6042,0.6041 0.6041,0.6042 -1.9166,-0.079 -1.9167,-0.079 1.3125,-0.5252 z m 27,-3 1.3125,-0.5252 0.6042,0.6041 0.6041,0.6042 -1.9166,-0.079 -1.9167,-0.079 1.3125,-0.5252 z m 158,0 1.3125,-0.5252 0.6042,0.6041 0.6041,0.6042 -1.9166,-0.079 -1.9167,-0.079 1.3125,-0.5252 z m -127.5435,-2.0099 1.7691,-0.461 1.2309,0.4981 1.231,0.498 -3,-0.037 -3,-0.037 1.769,-0.461 z m 95,0 1.7691,-0.461 1.2309,0.4981 1.231,0.498 -3,-0.037 -3,-0.037 1.769,-0.461 z m -75.519,-0.9693 1.25,-0.5044 1.25,0.5044 1.25,0.5044 h -2.5 -2.5 z m 57,0 1.25,-0.5044 1.25,0.5044 1.25,0.5044 h -2.5 -2.5 z"
         id="path183" />
      <path
         style="fill:#000000;fill-opacity:1"
         d="m 1616.269,2010.307 1.7691,-0.461 1.2309,0.4981 1.231,0.498 -3,-0.037 -3,-0.037 1.769,-0.461 z m 69.481,0.031 1.25,-0.5044 1.25,0.5044 1.25,0.5044 h -2.5 -2.5 z m -92,-1 1.25,-0.5044 1.25,0.5044 1.25,0.5044 h -2.5 -2.5 z m 116.0625,-0.021 1.3125,-0.5252 0.6042,0.6041 0.6041,0.6042 -1.9166,-0.079 -1.9167,-0.079 1.3125,-0.5252 z m -126,-1 1.3125,-0.5252 0.6042,0.6041 0.6041,0.6042 -1.9166,-0.079 -1.9167,-0.079 1.3125,-0.5252 z m 136,0 1.3125,-0.5252 0.6042,0.6041 0.6041,0.6042 -1.9166,-0.079 -1.9167,-0.079 1.3125,-0.5252 z m -159,-2 1.3125,-0.5252 0.6042,0.6041 0.6041,0.6042 -1.9166,-0.079 -1.9167,-0.079 1.3125,-0.5252 z m 181.9375,0.021 1.25,-0.5044 1.25,0.5044 1.25,0.5044 h -2.5 -2.5 z m 24.0625,-3.0208 1.3125,-0.5252 0.6042,0.6041 0.6041,0.6042 -1.9166,-0.079 -1.9167,-0.079 1.3125,-0.5252 z m -97.0361,-30.0504 4.2765,-0.3841 3.7235,0.3907 3.7236,0.3907 -8,-0.01 -8,-0.01 4.2764,-0.3841 z m -63.9639,-0.9496 1.3125,-0.5252 0.6042,0.6041 0.6041,0.6042 -1.9166,-0.079 -1.9167,-0.079 1.3125,-0.5252 z m 99.4565,-0.01 1.7691,-0.461 1.2309,0.4981 1.231,0.498 -3,-0.037 -3,-0.037 1.769,-0.461 z m -116.4565,-0.9901 1.3125,-0.5252 0.6042,0.6041 0.6041,0.6042 -1.9166,-0.079 -1.9167,-0.079 1.3125,-0.5252 z m 136.9375,-0.04 3.25,-0.4033 3.25,0.4033 3.25,0.4033 h -6.5 -6.5 z m 14,-0.9389 1.25,-0.5044 1.25,0.5044 1.25,0.5044 h -2.5 -2.5 z m 5.519,-1.0307 1.7691,-0.461 1.2309,0.4981 1.231,0.498 -3,-0.037 -3,-0.037 1.769,-0.461 z m -185.4565,-0.9901 1.3125,-0.5252 0.6042,0.6041 0.6041,0.6042 -1.9166,-0.079 -1.9167,-0.079 1.3125,-0.5252 z m 200,-1 1.3125,-0.5252 0.6042,0.6041 0.6041,0.6042 -1.9166,-0.079 -1.9167,-0.079 1.3125,-0.5252 z m 108,-23 1.3125,-0.5252 0.6042,0.6041 0.6041,0.6042 -1.9166,-0.079 -1.9167,-0.079 1.3125,-0.5252 z m 4.9375,-1.0226 2.25,-0.4334 2.25,0.4334 2.25,0.4333 h -4.5 -4.5 z m 13.25,-2.1721 5.5,-1.7703 8.75,-4.1111 8.75,-4.1111 v 0.4226 0.4226 l -7.25,3.6517 -7.25,3.6518 -5.4066,1.8608 -5.4065,1.8608 -1.5935,-0.054 -1.5934,-0.054 5.5,-1.7702 z m 67,-28.472 v -0.4202 l 2.6231,-1.7187 2.6231,-1.7188 -0.6788,1.0984 -0.6788,1.0983 -1.9443,1.0406 -1.9443,1.0406 z m -704.1276,-25.4002 -1.3724,-1.75 1.75,1.3724 1.75,1.3725 v 0.3775 0.3776 h -0.3776 -0.3775 z m -13,-12 -1.3724,-1.75 1.75,1.3724 1.75,1.3725 v 0.3775 0.3776 h -0.3776 -0.3775 z m 38,-16 -1.3724,-1.75 1.75,1.3724 1.75,1.3725 v 0.3775 0.3776 h -0.3776 -0.3775 z M 2041,1850.6876 v -0.3129 l 3.25,-2.9371 3.25,-2.9371 -2.9371,3.25 -2.9371,3.25 H 2041.3129 2041 Z m -790.1276,-14.4371 -1.3724,-1.75 1.75,1.3724 1.75,1.3725 v 0.3775 0.3776 h -0.3776 -0.3775 z M 1656,1835.6229 v -0.3775 l 1.75,-1.3725 1.75,-1.3724 -1.3724,1.75 -1.3725,1.75 H 1656.3776 1656 Z m 6.75,-5.2847 1.25,-0.5044 1.25,0.5044 1.25,0.5044 h -2.5 -2.5 z m -52.9375,-1.0208 1.3125,-0.5252 0.6042,0.6041 0.6041,0.6042 -1.9166,-0.079 -1.9167,-0.079 1.3125,-0.5252 z m 84.4565,-0.01 1.7691,-0.461 1.2309,0.4981 1.231,0.498 -3,-0.037 -3,-0.037 1.769,-0.461 z m 20.5435,-0.9901 1.3125,-0.5252 0.6042,0.6041 0.6041,0.6042 -1.9166,-0.079 -1.9167,-0.079 1.3125,-0.5252 z m -157,-3 1.3125,-0.5252 0.6042,0.6041 0.6041,0.6042 -1.9166,-0.079 -1.9167,-0.079 1.3125,-0.5252 z m 187,0 1.3125,-0.5252 0.6042,0.6041 0.6041,0.6042 -1.9166,-0.079 -1.9167,-0.079 1.3125,-0.5252 z m 19,-2 1.3125,-0.5252 0.6042,0.6041 0.6041,0.6042 -1.9166,-0.079 -1.9167,-0.079 1.3125,-0.5252 z m -146.0625,-31.0226 2.25,-0.4334 2.25,0.4334 2.25,0.4333 h -4.5 -4.5 z m 66,0 2.25,-0.4334 2.25,0.4334 2.25,0.4333 h -4.5 -4.5 z m -100.481,-1.9873 1.7691,-0.461 1.2309,0.4981 1.231,0.498 -3,-0.037 -3,-0.037 1.769,-0.461 z m 137.5435,0.01 1.3125,-0.5252 0.6042,0.6041 0.6041,0.6042 -1.9166,-0.079 -1.9167,-0.079 1.3125,-0.5252 z m 30,-3 1.3125,-0.5252 0.6042,0.6041 0.6041,0.6042 -1.9166,-0.079 -1.9167,-0.079 1.3125,-0.5252 z M 2096.1579,1750 v -2.5 l 0.5044,1.25 0.5044,1.25 -0.5044,1.25 -0.5044,1.25 z m -887.079,-1.5833 0.079,-1.9167 0.5252,1.3125 0.5252,1.3125 -0.6041,0.6042 -0.6042,0.6041 0.079,-1.9166 z M 2134.232,1746 v -3.5 l 0.4573,1.75 0.4573,1.75 -0.4573,1.75 -0.4573,1.75 z m -963,-2 v -3.5 l 0.4573,1.75 0.4573,1.75 -0.4573,1.75 -0.4573,1.75 z m 925.9259,-4 v -2.5 l 0.5044,1.25 0.5044,1.25 -0.5044,1.25 -0.5044,1.25 z m -888.963,-2.5 0.037,-3 0.461,1.769 0.461,1.7691 -0.4981,1.2309 -0.498,1.231 0.037,-3 z m 35.6775,-31.25 -1.3724,-1.75 1.75,1.3724 1.75,1.3725 v 0.3775 0.3776 h -0.3776 -0.3775 z M 2060,1707.6224 v -0.3775 l 1.75,-1.3725 1.75,-1.3724 -1.3724,1.75 -1.3725,1.75 H 2060.3776 2060 Z m 25.5,-25.6224 1.81,-2 h 0.5 0.5 l -1.81,2 -1.81,2 h -0.5 -0.5 z m -42.5,-9.5 2.3486,-2.5 h 0.5 0.5 l -2.3486,2.5 -2.3486,2.5 h -0.5 -0.5 z m -786.595,-5.75 -1.905,-2.25 2.25,1.905 2.25,1.905 v 0.345 0.345 h -0.345 -0.345 z m 791.595,0.8724 v -0.3775 l 1.75,-1.3725 1.75,-1.3724 -1.3724,1.75 -1.3725,1.75 H 2048.3776 2048 Z m -792,-7 v -0.3775 l 1.75,-1.3725 1.75,-1.3724 -1.3724,1.75 -1.3725,1.75 H 1256.3776 1256 Z m 7.5,-7.6224 1.81,-2 h 0.5 0.5 l -1.81,2 -1.81,2 h -0.5 -0.5 z m 777.3724,-0.75 -1.3724,-1.75 1.75,1.3724 1.75,1.3725 v 0.3775 0.3776 h -0.3776 -0.3775 z m -10,-9 -1.3724,-1.75 1.75,1.3724 1.75,1.3725 v 0.3775 0.3776 h -0.3776 -0.3775 z M 1232,1631.6224 v -0.3775 l 1.75,-1.3725 1.75,-1.3724 -1.3724,1.75 -1.3725,1.75 H 1232.3776 1232 Z m 4,-4 v -0.3775 l 1.75,-1.3725 1.75,-1.3724 -1.3724,1.75 -1.3725,1.75 H 1236.3776 1236 Z m 860.0789,-49.2057 0.079,-1.9167 0.5252,1.3125 0.5252,1.3125 -0.6041,0.6042 -0.6042,0.6041 0.079,-1.9166 z M 1208.1579,1568 v -2.5 l 0.5044,1.25 0.5044,1.25 -0.5044,1.25 -0.5044,1.25 z m 889,0 v -2.5 l 0.5044,1.25 0.5044,1.25 -0.5044,1.25 -0.5044,1.25 z m 0,-9 v -2.5 l 0.5044,1.25 0.5044,1.25 -0.5044,1.25 -0.5044,1.25 z m -888.963,-1.5 0.037,-3 0.461,1.769 0.461,1.7691 -0.4981,1.2309 -0.498,1.231 0.037,-3 z m -36.9225,-3.5 v -4.5 l 0.4333,2.25 0.4334,2.25 -0.4334,2.25 -0.4333,2.25 z m 962.9596,-4 v -3.5 l 0.4573,1.75 0.4573,1.75 -0.4573,1.75 -0.4573,1.75 z m -540.963,-15.693 1.7691,-0.461 1.2309,0.4981 1.231,0.498 -3,-0.037 -3,-0.037 1.769,-0.461 z m 116.981,0 1.75,-0.4573 1.75,0.4573 1.75,0.4573 h -3.5 -3.5 z m -100.5,-0.973 1.25,-0.5044 1.25,0.5044 1.25,0.5044 h -2.5 -2.5 z m 84.519,-0.031 1.7691,-0.461 1.2309,0.4981 1.231,0.498 -3,-0.037 -3,-0.037 1.769,-0.461 z m 84.5435,-28.9901 1.3125,-0.5252 0.6042,0.6041 0.6041,0.6042 -1.9166,-0.079 -1.9167,-0.079 1.3125,-0.5252 z m -213,-5 1.3125,-0.5252 0.6042,0.6041 0.6041,0.6042 -1.9166,-0.079 -1.9167,-0.079 1.3125,-0.5252 z m 172,0 1.3125,-0.5252 0.6042,0.6041 0.6041,0.6042 -1.9166,-0.079 -1.9167,-0.079 1.3125,-0.5252 z m -164,-1 1.3125,-0.5252 0.6042,0.6041 0.6041,0.6042 -1.9166,-0.079 -1.9167,-0.079 1.3125,-0.5252 z m 15,-1 1.3125,-0.5252 0.6042,0.6041 0.6041,0.6042 -1.9166,-0.079 -1.9167,-0.079 1.3125,-0.5252 z m 126,0 1.3125,-0.5252 0.6042,0.6041 0.6041,0.6042 -1.9166,-0.079 -1.9167,-0.079 1.3125,-0.5252 z m -114.0508,-1.0242 2.2616,-0.4349 1.7384,0.4551 1.7383,0.4551 -4,-0.02 -4,-0.02 2.2617,-0.4349 z m 100,0 2.2616,-0.4349 1.7384,0.4551 1.7383,0.4551 -4,-0.02 -4,-0.02 2.2617,-0.4349 z m -77.4927,-0.9857 1.7691,-0.461 1.2309,0.4981 1.231,0.498 -3,-0.037 -3,-0.037 1.769,-0.461 z m 55.981,0 1.75,-0.4573 1.75,0.4573 1.75,0.4573 h -3.5 -3.5 z m 376.6224,-28.0607 -1.3724,-1.75 1.75,1.3724 1.75,1.3725 v 0.3775 0.3776 h -0.3776 -0.3775 z m -17,-17 -1.3724,-1.75 1.75,1.3724 1.75,1.3725 v 0.3775 0.3776 h -0.3776 -0.3775 z M 1267.5,1449 l 1.81,-2 h 0.5 0.5 l -1.81,2 -1.81,2 h -0.5 -0.5 z m 805.5,-19.5 -4.4164,-4.5 h 0.5 0.5 l 4.4164,4.5 4.4164,4.5 h -0.5 -0.5 z m -498.731,-94.193 1.7691,-0.461 1.2309,0.4981 1.231,0.498 -3,-0.037 -3,-0.037 1.769,-0.461 z m 154.481,0.031 1.25,-0.5044 1.25,0.5044 1.25,0.5044 h -2.5 -2.5 z m -115.5,-3.027 1.75,-0.4573 1.75,0.4573 1.75,0.4573 h -3.5 -3.5 z m 74.5,-0.016 2.25,-0.4334 2.25,0.4334 2.25,0.4333 h -4.5 -4.5 z m -155.9375,-29.9774 1.3125,-0.5252 0.6042,0.6041 0.6041,0.6042 -1.9166,-0.079 -1.9167,-0.079 1.3125,-0.5252 z m 241,0 1.3125,-0.5252 0.6042,0.6041 0.6041,0.6042 -1.9166,-0.079 -1.9167,-0.079 1.3125,-0.5252 z m -196.0625,-4.9792 1.25,-0.5044 1.25,0.5044 1.25,0.5044 h -2.5 -2.5 z m 150.519,-0.031 1.7691,-0.461 1.2309,0.4981 1.231,0.498 -3,-0.037 -3,-0.037 1.769,-0.461 z m -118.019,-1.9963 1.75,-0.4573 1.75,0.4573 1.75,0.4573 h -3.5 -3.5 z m 85.5,0.027 1.25,-0.5044 1.25,0.5044 1.25,0.5044 h -2.5 -2.5 z m -65,-1.0611 3.25,-0.4033 3.25,0.4033 3.25,0.4033 h -6.5 -6.5 z m 11.519,0.03 1.7691,-0.461 1.2309,0.4981 1.231,0.498 -3,-0.037 -3,-0.037 1.769,-0.461 z m 28.4587,-0.029 3.2277,-0.4017 3.7723,0.3936 3.7723,0.3936 -7,0.01 -7,0.01 3.2277,-0.4016 z"
         id="path181" />
      <path
         style="fill:#000000;fill-opacity:1"
         d="m 1613.5,2010.4168 -7,-0.3382 -15,-1.0999 -15,-1.0999 -17.5,-1.9375 -17.5,-1.9375 -16.5,-2.4545 -16.5,-2.4546 -15.5,-3.0874 -15.5,-3.0875 -14.5,-3.5398 -14.5,-3.5398 -12.5,-3.4989 -12.5,-3.4988 -13,-4.2892 -13,-4.2891 -12.5,-4.7515 -12.5,-4.7515 -4,-1.777 -4,-1.777 -6.5,-2.7052 -6.5,-2.7052 -16.5594,-8.2573 -16.5594,-8.2573 -12.9406,-7.7892 -12.9406,-7.7892 -7.5,-5.0437 -7.5,-5.0437 -8.5,-6.4582 -8.5,-6.4582 -9,-7.7524 -9,-7.7524 -10.0842,-10.3476 -10.0841,-10.3476 -7.4299,-9.5 -7.43,-9.5 -3.9615,-6 -3.9616,-6 -4.1037,-7.1212 -4.1037,-7.1212 -2.0554,-4.3788 -2.0555,-4.3788 -2.5215,-6 -2.5214,-6 -1.9667,-6 -1.9666,-6 -1.6946,-7 -1.6946,-7 -0.8786,-3.5 -0.8787,-3.5 -1.1357,-14.5 -1.1357,-14.5 0.4938,-93.5 0.4939,-93.5 0.9849,-6 0.9849,-6 1.5323,-6.5 1.5323,-6.5 2.4506,-7.5 2.4505,-7.5 2.1558,-5.5 2.1557,-5.5 4.1032,-8 4.1031,-8 6.5551,-10 6.555,-10 6.421,-8 6.421,-8 14.1454,-14 14.1454,-14 11.32,-8.7489 11.32,-8.7489 12.6699,-8.3759 12.6699,-8.3759 5,-2.792 5,-2.792 7,-3.9144 7,-3.9144 14.5,-6.9744 14.5,-6.9743 2,-0.8857 2,-0.8856 7,-2.9678 7,-2.9678 12.0371,-4.5632 12.0371,-4.5631 7.9629,-2.6276 7.9629,-2.6276 8,-2.4781 8,-2.4781 7,-2.0036 7,-2.0037 11.5,-2.9418 11.5,-2.9418 16.5,-3.4754 16.5,-3.4755 5,-0.9641 5,-0.9641 9.5,-1.5034 9.5,-1.5034 11.5,-1.5337 11.5,-1.5336 7,-0.9522 7,-0.9522 20,-1.5742 20,-1.5742 20.5,-0.8096 20.5,-0.8096 22.5,0.3137 22.5,0.3137 18.5,1.0294 18.5,1.0293 15.5,1.4903 15.5,1.4904 7.5,0.9725 7.5,0.9724 10.5,1.4814 10.5,1.4813 9,1.5138 9,1.5137 12.5,2.5294 12.5,2.5293 7,1.5992 7,1.5992 2.5,0.5172 2.5,0.5172 9,2.4035 9,2.4035 5.5,1.5834 5.5,1.5834 13,4.0167 13,4.0167 13.5,4.93 13.5,4.93 10,4.1104 10,4.1103 18,8.7108 18,8.7108 10,5.7505 10,5.7504 11.5,7.5179 11.5,7.518 12.3044,9.4559 12.3043,9.456 12.5883,12.1601 12.5883,12.1601 8.1371,10 8.137,10 2.5233,3.5 2.5234,3.5 4.1338,6.6255 4.1339,6.6256 4.462,8.8744 4.462,8.8745 3.4808,9.5 3.4807,9.5 1.1025,4 1.1024,4 1.4669,6.5 1.4669,6.5 1.051,10.2892 1.051,10.2892 -0.022,91.2108 -0.022,91.2108 -1.4406,12.5 -1.4406,12.5 -1.0083,5 -1.0082,5 -1.1584,4 -1.1585,4 -1.4762,4.5 -1.4763,4.5 -0.8666,2 -0.8666,2 -1.9356,5 -1.9356,5 -2.3697,5 -2.3698,5 -3.9367,7 -3.9367,7 -5.9059,8.5 -5.9059,8.5 -5.5771,6.941 -5.577,6.941 -10.0526,10.4374 -10.0526,10.4375 -9,7.6972 -9,7.6972 -6.5,4.9861 -6.5,4.9861 -11,7.5448 -11,7.5448 -11.5,6.7863 -11.5,6.7864 -16.5,8.2402 -16.5,8.2402 -6.5,2.7205 -6.5,2.7205 -4,1.777 -4,1.777 -12.5,4.7535 -12.5,4.7535 -13.5,4.4285 -13.5,4.4285 -14,3.8322 -14,3.8321 -10.5,2.5393 -10.5,2.5394 -7,1.5027 -7,1.5027 -13,2.4953 -13,2.4953 -10.5,1.5326 -10.5,1.5326 -11.5,1.5032 -11.5,1.5033 -12,1.0914 -12,1.0914 -10,1.01 -10,1.0099 -42,0.3082 -42,0.3082 -7,-0.3382 z m 93.5,-37.9002 33.5,-1.4018 18,-3.087 18,-3.0869 6,-0.9591 6,-0.9591 19.5,-4.1037 19.5,-4.1037 4,-0.8332 4,-0.8333 12.5,-3.5045 12.5,-3.5044 6,-0.9955 6,-0.9954 5.8326,-0.6568 5.8326,-0.6567 5.2948,-1.8217 5.2948,-1.8217 11.8726,-6.0495 11.8726,-6.0494 11,-4.8874 11,-4.8874 6.6844,-2.2189 6.6843,-2.2189 4.3157,-3.2482 4.3156,-3.2482 8.5,-4.813 8.5,-4.8131 9,-5.5944 9,-5.5943 7,-4.9298 7,-4.9297 8,-6.223 8,-6.2231 8.4745,-7.671 8.4745,-7.6711 7.3682,-8.2109 7.3682,-8.2108 5.7077,-7.5 5.7078,-7.5 4.2152,-6.7503 4.2153,-6.7504 3.8301,-7.8378 3.8301,-7.8377 2.5882,-7.4119 2.5881,-7.4119 1.2039,-4.5 1.2039,-4.5 1.4531,-6.5 1.4531,-6.5 0.5066,-39.3525 0.5065,-39.3525 -1.008,-1.008 -1.008,-1.008 -2.3395,2.796 -2.3395,2.796 -7.5909,8.5645 -7.5909,8.5645 -8.38,7.8797 -8.38,7.8798 -9.5291,7.6785 -9.5291,7.6785 -8.5,5.9913 -8.5,5.9912 -10.5,6.5669 -10.5,6.5669 -13,6.9983 -13,6.9982 -5.5,2.5199 -5.5,2.5199 -7,3.2333 -7,3.2334 -13,5.2735 -13,5.2735 -10,3.5479 -10,3.5478 -12,3.6274 -12,3.6274 -7.5,1.8785 -7.5,1.8784 -9.5,2.4879 -9.5,2.4879 -5.5,1.4694 -5.5,1.4693 -12,2.5663 -12,2.5663 -14.5,2.4836 -14.5,2.4836 -16.5,1.9827 -16.5,1.9826 -10.5,1.0528 -10.5,1.0528 -9.5,0.9912 -9.5,0.9912 -24.3198,0.6821 -24.3197,0.682 -2.2758,1.7901 -2.2758,1.7902 -5.5285,8.2989 -5.5285,8.2989 -2.5123,4.5819 -2.5122,4.5818 -2.6876,7.9182 -2.6876,7.9181 -1.0716,5 -1.0716,5 -0.419,15 -0.419,15 0.9568,3.5 0.9568,3.5 1.7179,7.5 1.7179,7.5 3.789,8.1733 3.789,8.1733 3.262,4.8267 3.262,4.8267 4.4161,5.25 4.4161,5.25 6.1727,-0.041 6.1727,-0.041 33.5,-1.4018 z m -94.6246,-0.3149 0.4933,-0.7983 -3.8074,-7.9517 -3.8073,-7.9517 -2.4852,-7.5 -2.4851,-7.5 -1.5684,-8 -1.5684,-8 -1.0735,-6.0602 -1.0734,-6.0602 v -9.8796 -9.8796 l 1.0679,-6.0602 1.0679,-6.0602 1.4976,-8 1.4977,-8 2.5464,-7.5 2.5465,-7.5 4.4043,-9.4309 4.4043,-9.4309 -1.2663,-0.8038 -1.2663,-0.8038 -8.3296,-0.015 -8.3295,-0.015 -9.1705,-0.96 -9.1704,-0.9601 -16,-1.5745 -16,-1.5744 -6.5,-0.9608 -6.5,-0.9608 -11,-1.5656 -11,-1.5655 -8,-1.5119 -8,-1.5119 -12.5,-2.4833 -12.5,-2.4834 -16,-3.9888 -16,-3.9889 -3,-0.9197 -3,-0.9197 -10.5,-3.1288 -10.5,-3.1288 -5.5,-1.8255 -5.5,-1.8255 -11,-3.9378 -11,-3.9377 -14.9186,-6.2109 -14.9185,-6.2108 -13.5815,-6.623 -13.5814,-6.623 -11.5,-6.4796 -11.5,-6.4795 -12,-7.9801 -12,-7.98 -8,-6.0435 -8,-6.0434 -10,-8.716 -10,-8.7161 -7.0534,-7.3403 -7.0535,-7.3404 -3.9465,-4.5597 -3.9466,-4.5597 -2.2791,-2.7313 -2.2791,-2.7314 -0.9709,0.6001 -0.9709,0.6 v 32.4804 32.4804 l 1.0585,9.7106 1.0584,9.7106 1.9983,8.5 1.9983,8.5 2.0675,6 2.0675,6 4.4953,9.5 4.4954,9.5 6.3077,9.5 6.3077,9.5 5.6071,7 5.6071,7 10.7156,10.8515 10.7156,10.8516 10.5,8.4667 10.5,8.4667 11.5,7.8057 11.5,7.8057 13.5,7.7764 13.5,7.7765 13,6.1959 13,6.1959 11.5,4.7316 11.5,4.7316 6,2.4112 6,2.4111 16.5,5.4428 16.5,5.4427 12.5,3.4794 12.5,3.4794 8.5,2.0717 8.5,2.0717 14.5,3.024 14.5,3.0239 12.5,2.0053 12.5,2.0052 6.5,0.996 6.5,0.996 12.5,1.4319 12.5,1.4319 12,1.088 12,1.0881 5,0.2917 5,0.2917 3.191,0.1803 3.191,0.1802 0.4934,-0.7983 z M 1700,1792.0156 l 16.5,-0.9751 11.5,-1.0615 11.5,-1.0615 13,-1.4943 13,-1.4943 10,-1.4997 10,-1.4997 5.5,-0.9455 5.5,-0.9454 13,-2.579 13,-2.579 6,-1.387 6,-1.387 9,-2.1719 9,-2.1719 13.5,-3.8235 13.5,-3.8236 11,-3.6154 11,-3.6154 9.5,-3.5377 9.5,-3.5376 8,-3.2991 8,-3.299 6.6636,-3.0547 6.6635,-3.0547 8.8365,-4.2358 8.8364,-4.2358 11.0751,-6.1954 11.0751,-6.1953 8.9249,-5.7841 8.9249,-5.7841 11,-8.1683 11,-8.1683 10.2449,-9.2237 10.2449,-9.2237 1.0513,-1.9645 1.0514,-1.9644 -0.6057,-0.98 -0.6057,-0.9801 -11.2335,-10.2493 -11.2336,-10.2493 -9.457,-7.1342 -9.457,-7.1341 -10,-6.4956 -10,-6.4956 -9.8884,-5.6797 -9.8884,-5.6797 -8.6116,-4.3246 -8.6116,-4.3246 -11.2317,-5.0673 -11.2318,-5.0672 -16.1687,-6.1168 -16.1688,-6.1168 -10.5995,-3.4867 -10.5995,-3.4868 -12,-3.3837 -12,-3.3838 -10.0291,-2.4699 -10.029,-2.4699 -5.971,-1.1876 -5.9709,-1.1877 -4,-0.9203 -4,-0.9202 -7.5,-1.3836 -7.5,-1.3836 -12.5,-2.0934 -12.5,-2.0933 -6.5,-0.9983 -6.5,-0.9984 -10,-1.0446 -10,-1.0447 -10,-0.9871 -10,-0.9871 -13,-0.9413 -13,-0.9412 h -40 -40 l -13,0.9394 -13,0.9395 -10.5,1.0031 -10.5,1.003 -9,0.993 -9,0.993 -7,1.0213 -7,1.0213 -10,1.5334 -10,1.5334 -4.5,0.9231 -4.5,0.923 -8.5,1.5633 -8.5,1.5632 -4,0.972 -4,0.972 -13,3.0671 -13,3.0671 -12,3.3903 -12,3.3904 -10.5,3.4466 -10.5,3.4467 -11,3.9782 -11,3.9782 -13.5,5.7603 -13.5,5.7602 -13.5,6.7338 -13.5,6.7338 -10,5.7672 -10,5.7671 -9,5.9791 -9,5.9791 -9.4493,7.1436 -9.4493,7.1436 -10.2829,9.2825 -10.283,9.2826 -1.0813,2.0204 -1.0813,2.0205 4.8136,4.8079 4.8135,4.8078 6.5,5.7682 6.5,5.7682 7.5,5.7218 7.5,5.7217 9.5698,6.4848 9.5698,6.4848 9.8363,5.789 9.8364,5.789 12.5938,6.294 12.5939,6.294 6.7173,3.0549 6.7173,3.055 5.7827,2.4262 5.7827,2.4263 12,4.5494 12,4.5494 10.5,3.458 10.5,3.458 10.5,3.0315 10.5,3.0315 11.5,2.9562 11.5,2.9561 12,2.5702 12,2.5702 13.5,2.4643 13.5,2.4642 10.5,1.5355 10.5,1.5354 8,1.0442 8,1.0441 10.5,1.0745 10.5,1.0744 19,1.2851 19,1.285 33.5,0.127 33.5,0.1269 z m -461,-166.6111 6.5,-6.2573 7.0127,-5.8236 7.0127,-5.8236 7.4873,-5.5878 7.4873,-5.5878 10.5,-6.9928 10.5,-6.9928 10.6322,-6.1027 10.6323,-6.1026 11.8677,-5.9466 11.8678,-5.9467 15,-6.4788 15,-6.4789 13.5,-5.0309 13.5,-5.0308 3.5,-1.1924 3.5,-1.1924 8,-2.5079 8,-2.5079 5,-1.4578 5,-1.4578 5,-1.374 5,-1.3739 11.5,-2.9698 11.5,-2.9699 8,-1.658 8,-1.658 4,-0.9212 4,-0.9213 13.5,-2.4413 13.5,-2.4412 11.5,-1.6516 11.5,-1.6516 6.5,-0.9393 6.5,-0.9393 10.5,-1.0028 10.5,-1.0029 21,-1.661 21,-1.661 37.5,-0.079 37.5,-0.079 17.5,1.2598 17.5,1.2599 10.5,1.0398 10.5,1.0399 12.5,1.4941 12.5,1.4942 10,1.4872 10,1.4871 6,1.0535 6,1.0535 7.5,1.4399 7.5,1.4398 5.5,1.0896 5.5,1.0896 18.5,4.4509 18.5,4.4508 10.5,3.021 10.5,3.021 14.5,4.8251 14.5,4.8252 7,2.5153 7,2.5152 16,6.6489 16,6.6488 16,7.98 16,7.9801 15.1208,9.0684 15.1208,9.0683 9.8792,7.0497 9.8792,7.0496 8.6383,7.0726 8.6383,7.0727 7.9735,7.2314 7.9736,7.2314 1.6131,-1.7825 1.6131,-1.7824 5.3892,-11.449 5.3891,-11.4489 0.5686,-2 0.5687,-2 1.5768,-5.5 1.5769,-5.5 1.6466,-7.5 1.6465,-7.5 0.057,-12.5 0.057,-12.5 -1.2591,-7 -1.2592,-7 -1.0807,-4 -1.0807,-4 -1.8975,-5.8225 -1.8975,-5.8225 -3.8769,-8.1775 -3.8768,-8.1775 -5.8495,-9.1439 -5.8494,-9.144 -4.4234,-5.856 -4.4233,-5.8561 -12.5767,-12.569 -12.5766,-12.569 -9.5,-7.5336 -9.5,-7.5335 -8,-5.5196 -8,-5.5195 -9,-5.4772 -9,-5.4772 -9,-4.9596 -9,-4.9595 -8.5,-4.1112 -8.5,-4.1112 -7,-3.1947 -7,-3.1948 -14.5,-5.773 -14.5,-5.773 -12.5,-4.1719 -12.5,-4.1719 -15,-4.3427 -15,-4.3426 -6.5,-1.564 -6.5,-1.564 -9,-2.1265 -9,-2.1264 -7,-1.4292 -7,-1.4293 -8.5,-1.4348 -8.5,-1.4349 -2,-0.4919 -2,-0.4918 -11.5,-1.5826 -11.5,-1.5826 -6,-0.9416 -6,-0.9417 -16,-1.4821 -16,-1.4822 -14.0522,-1.0448 -14.0523,-1.0449 -34.9477,-0.01 -34.9478,-0.01 -15,1.0761 -15,1.076 -19,1.972 -19,1.972 -10,1.4382 -10,1.4383 -6,0.9717 -6,0.9718 -8.5,1.5013 -8.5,1.5014 -12,2.6412 -12,2.6411 -4,0.8371 -4,0.837 -10,2.6408 -10,2.6408 -10,2.8937 -10,2.8937 -12.1499,3.9954 -12.15,3.9954 -12.85,4.9274 -12.8501,4.9273 -5.6859,2.6152 -5.6859,2.6151 h -0.6586 -0.6586 l -17.6555,8.8437 -17.6555,8.8437 -10,5.7823 -10,5.7824 -10.839,7.4176 -10.8389,7.4176 -1.1611,0.9367 -1.161,0.9366 -11,8.8694 -11,8.8693 -10.3131,10.7298 -10.313,10.7298 -5.857,7.8993 -5.857,7.8994 -4.9859,8.2712 -4.9859,8.2712 -3.1352,6.8648 -3.1351,6.8647 -1.8327,5.6353 -1.8327,5.6352 -1.1566,4 -1.1566,4 -1.4637,10 -1.4637,10 v 5 5 l 1.4637,10 1.4637,10 0.9706,3.5 0.9706,3.5 1.5984,5.5 1.5984,5.5 0.8772,2 0.8772,2 4.6545,9.9989 4.6544,9.9989 1.5634,1.7275 1.5634,1.7275 1.1163,-0.6454 1.1164,-0.6455 6.5,-6.2574 z"
         id="path179" />
    </g>
  </g>
</svg>
