<?xml version="1.0" encoding="UTF-8" standalone="no"?>
<!-- Created with Inkscape (http://www.inkscape.org/) -->

<svg
   version="1.1"
   id="svg4742"
   width="3464"
   height="3464"
   viewBox="0 0 3464 3464"
   sodipodi:docname="15 0000000.svg"
   inkscape:version="1.2.2 (732a01da63, 2022-12-09)"
   xmlns:inkscape="http://www.inkscape.org/namespaces/inkscape"
   xmlns:sodipodi="http://sodipodi.sourceforge.net/DTD/sodipodi-0.dtd"
   xmlns="http://www.w3.org/2000/svg"
   xmlns:svg="http://www.w3.org/2000/svg">
  <defs
     id="defs4746" />
  <sodipodi:namedview
     id="namedview4744"
     pagecolor="#ffffff"
     bordercolor="#000000"
     borderopacity="0.25"
     inkscape:showpageshadow="2"
     inkscape:pageopacity="0.0"
     inkscape:pagecheckerboard="0"
     inkscape:deskcolor="#d1d1d1"
     showgrid="false"
     inkscape:zoom="0.2289261"
     inkscape:cx="1729.8159"
     inkscape:cy="1736.3682"
     inkscape:window-width="1920"
     inkscape:window-height="986"
     inkscape:window-x="-11"
     inkscape:window-y="-11"
     inkscape:window-maximized="1"
     inkscape:current-layer="g4748" />
  <g
     inkscape:groupmode="layer"
     inkscape:label="Image"
     id="g4748">
    <path
       style="fill:#000000;stroke-width:1.4542"
       d="m 1121.0824,2819.4071 c -11.0569,-0.2997 -20.4924,-1.109 -20.9678,-1.7985 -2.3663,-3.4308 -0.9304,-89.9541 2.2644,-136.4488 0.655,-9.5338 2.037,-30.9846 3.0712,-47.6685 1.0338,-16.684 2.4284,-38.1349 3.0988,-47.6687 0.6703,-9.5338 1.6491,-29.5445 2.175,-44.4683 0.5259,-14.9237 1.3633,-28.0745 1.8609,-29.2239 0.854,-1.9724 1.8285,-22.042 3.9965,-82.3103 0.5144,-14.2999 1.6067,-31.7497 2.4271,-38.7774 0.8205,-7.028 1.2376,-15.1976 0.9266,-18.155 -0.311,-2.9572 -0.098,-10.8577 0.4727,-17.5566 0.571,-6.6989 1.5205,-22.7098 2.1105,-35.5799 0.5897,-12.8702 1.619,-30.4206 2.2872,-39.0011 0.668,-8.5806 2.0816,-30.0315 3.1415,-47.6688 1.0599,-17.6371 2.6947,-43.3782 3.6329,-57.2021 0.9385,-13.824 1.7189,-30.9841 1.7343,-38.1336 0.015,-7.1495 0.5765,-16.5098 1.2468,-20.8006 0.6702,-4.2908 1.7329,-20.6716 2.3615,-36.4014 0.6286,-15.73 1.6216,-38.74 2.2065,-51.1335 0.585,-12.3934 1.5544,-35.5122 2.154,-51.3752 0.5997,-15.8628 1.4788,-29.7384 1.9534,-30.8348 0.4746,-1.0963 1.31,-12.2982 1.8565,-24.893 1.0221,-23.5606 2.695,-51.8386 4.8106,-81.3154 0.6638,-9.248 1.7196,-28.1191 2.3464,-41.9361 0.6269,-13.817 1.6733,-29.1731 2.3253,-34.1246 0.6521,-4.9517 1.197,-16.1112 1.2107,-24.7987 0.014,-8.6874 0.5532,-19.3062 1.1989,-23.597 0.6457,-4.2909 1.6937,-20.2815 2.3289,-35.5348 0.6353,-15.2534 1.6887,-39.0435 2.3408,-52.8669 0.6522,-13.8234 1.697,-36.4436 2.3218,-50.2671 0.6247,-13.8233 1.6654,-28.6441 2.3126,-32.9348 0.6473,-4.291 1.1898,-13.9345 1.2056,-21.43 0.016,-7.4957 0.8102,-23.0958 1.7652,-34.6672 2.1365,-25.889 4.0085,-56.4396 5.4845,-89.5069 0.6171,-13.8235 1.6536,-29.3723 2.3035,-34.5533 0.6497,-5.1808 1.1655,-15.321 1.1462,-22.5337 -0.025,-7.2125 0.4983,-20.5243 1.1503,-29.5815 1.705,-23.6885 3.6807,-58.0653 4.8315,-84.0689 2.9418,-66.4746 3.5114,-76.9138 4.5864,-84.0685 0.6447,-4.2908 1.1818,-13.2611 1.1936,-19.9339 0.012,-6.6729 0.8142,-23.0531 1.7828,-36.4004 0.9687,-13.3475 2.3518,-34.0183 3.0735,-45.9354 0.7217,-11.917 2.0948,-34.1478 3.0513,-49.40171 1.6508,-26.32229 2.3387,-40.40994 5.0366,-103.13455 0.6355,-14.77665 1.6996,-30.85187 2.3645,-35.72267 0.6651,-4.87079 1.2281,-16.96101 1.2512,-26.86697 0.022,-9.90598 0.5678,-21.13145 1.2108,-24.94566 0.6431,-3.81421 1.1959,-12.78443 1.2287,-19.93406 0.032,-7.14951 0.5704,-18.84949 1.1947,-26.00005 0.6244,-7.15068 1.6405,-23.53125 2.2579,-36.40134 2.0741,-43.22729 9.7975,-64.41976 29.4695,-80.86202 16.0371,-13.40407 21.9906,-15.74131 45.8339,-17.99263 14.7139,-1.38932 26.277,-1.46454 38.9518,-0.25358 9.9141,0.94717 45.7537,2.16689 79.6433,2.71045 33.8898,0.54354 74.2464,1.26021 89.6815,1.59263 15.4351,0.33241 48.3793,0.98506 73.2095,1.45016 74.3368,1.39225 170.364,3.74229 240.9835,5.89731 36.575,1.11627 75.2843,1.78318 86.0209,1.48218 10.7364,-0.301 29.9544,0.30019 42.7064,1.33595 13.0028,1.05603 28.0071,1.29485 34.1642,0.54342 6.0384,-0.73674 18.6665,-0.78511 28.0625,-0.10752 62.0802,4.47735 60.6081,4.28983 71.393,9.09427 12.8437,5.7216 15.8962,7.90533 24.7126,17.67895 6.3376,7.02571 14.2779,19.93252 19.3886,31.51527 6.0503,13.71241 7.7065,33.6345 11.0233,132.60878 0.7028,20.97058 1.8727,47.09653 2.6002,58.05776 1.2403,18.69391 2.366,49.57066 5.1493,141.24673 0.6367,20.9707 1.751,49.0466 2.4763,62.391 1.9753,36.3514 4.5409,101.7917 4.7221,120.4491 0.087,9.0558 0.8852,33.2326 1.7718,53.7261 0.8866,20.4936 1.7536,45.0602 1.9269,54.5925 0.6491,35.7072 3.3181,107.9822 4.5163,122.3 0.6837,8.1662 1.2857,31.5634 1.3382,51.9937 0.053,20.8444 0.6754,40.1879 1.4169,44.0769 0.7269,3.8117 1.8678,29.5478 2.5351,57.1911 2.8656,118.7063 3.6207,142.5207 4.7407,149.5302 0.6515,4.0776 1.0445,22.8732 0.8733,41.7679 -0.171,18.8948 0.2269,38.9553 0.8843,44.5786 0.6573,5.6234 1.7844,32.8416 2.5046,60.4849 1.5773,60.5403 2.1419,78.9827 3.1836,103.9864 0.4367,10.4851 1.0432,34.6623 1.3477,53.7269 1.348,84.3807 2.7449,135.3699 3.7717,137.6611 0.6103,1.3618 1.0378,21.7682 0.9501,45.3475 -0.1036,27.8344 0.3445,45.8099 1.2775,51.249 0.8696,5.0703 1.5527,26.1679 1.7304,53.4403 0.1613,24.7845 1.0181,65.34 1.9039,90.1232 0.8858,24.7832 1.846,58.7089 2.1337,75.3904 0.2878,16.6816 1.1665,56.457 1.9528,88.3899 0.7863,31.9328 1.6597,74.4381 1.9409,94.456 0.2811,20.0181 1.099,41.0749 1.8176,46.7933 0.7185,5.7183 1.3417,26.2167 1.3851,45.5522 l 0.079,35.1554 -2.8745,1.559 c -3.2586,1.7675 -1013.7537,9.0297 -1064.6251,7.6513 z m 907.3701,-122.6513 5.3401,-1.0699 -0.967,-51.4215 c -0.5321,-28.2818 -1.571,-78.3285 -2.309,-111.2145 -0.7378,-32.8863 -1.5509,-78.2928 -1.8069,-100.9034 -0.256,-22.6107 -1.0379,-45.2277 -1.7377,-50.2597 -0.6997,-5.0324 -1.3226,-28.8923 -1.3842,-53.0223 -0.061,-24.1297 -0.3655,-44.4515 -0.6749,-45.1593 -0.3095,-0.708 -0.9038,-18.7913 -1.3207,-40.1853 -1.5733,-80.7321 -2.2726,-108.102 -2.7927,-109.2916 -0.295,-0.6747 -0.8375,-22.9379 -1.2054,-49.4735 -0.3681,-26.5357 -1.2421,-52.9255 -1.9424,-58.6438 -0.7003,-5.7184 -1.2658,-26.3858 -1.257,-45.9276 0.01,-19.5419 -0.5676,-40.2094 -1.2812,-45.9276 -0.7135,-5.7183 -1.3335,-28.8821 -1.3777,-51.475 -0.04,-22.5929 -0.605,-44.8202 -1.2462,-49.3941 -0.6411,-4.5738 -1.4582,-25.864 -1.8156,-47.3118 -0.3574,-21.4478 -1.5446,-67.4622 -2.6382,-102.2543 -2.1334,-67.8729 -2.2446,-71.08 -5.3776,-155.112 -1.1374,-30.5024 -2.5349,-74.5666 -3.1056,-97.9205 -0.5707,-23.3538 -1.6715,-47.8048 -2.446,-54.3352 -0.7837,-6.6064 -1.3602,-27.7498 -1.2993,-47.6609 0.069,-22.763 -0.4302,-38.9398 -1.3731,-44.4503 -0.8892,-5.1963 -1.6796,-26.6975 -1.975,-53.7259 -0.2833,-25.9237 -1.0625,-47.6327 -1.8347,-51.1147 -0.7834,-3.5321 -1.3683,-20.6081 -1.4047,-41.0084 -0.044,-24.4654 -0.6343,-39.0324 -1.9678,-48.5377 -1.3844,-9.8668 -1.9121,-24.2474 -1.9298,-52.5784 -0.016,-28.2529 -0.5331,-42.33868 -1.8703,-51.12551 -1.2319,-8.09421 -1.871,-22.2181 -1.9216,-42.46004 -0.042,-16.68235 -0.6644,-37.34997 -1.3839,-45.92811 -0.7197,-8.57803 -1.7368,-27.10554 -2.2605,-41.17213 -1.0984,-29.50979 -1.9368,-32.2913 -11.8742,-39.3961 -6.7684,-4.83909 2.5582,-4.24984 -90.8454,-5.74041 -25.1656,-0.40176 -59.0081,-1.2651 -75.2054,-1.91862 l -29.4495,-1.18823 -0.6844,33.62999 c -0.3762,18.4966 -1.0452,142.43249 -1.4864,275.41306 -0.8796,265.1144 -1.0201,276.989 -3.336,282.2823 -3.4002,7.7719 -2.7895,7.7365 -113.6346,6.5806 -113.8334,-1.187 -110.3188,-0.8617 -113.4301,-10.5028 -1.0747,-3.3301 -1.0876,-74.1548 -0.053,-292.6604 0.7508,-158.54701 1.1226,-290.57344 0.8263,-293.39215 l -0.5388,-5.12492 -26.4266,-1.4938 c -14.5346,-0.82137 -31.6417,-1.03393 -38.0158,-0.4719 -6.3741,0.56204 -25.8667,-0.0805 -43.3168,-1.42897 -44.3988,-3.42968 -66.2454,-0.22713 -70.1858,10.28896 -1.5815,4.22059 -2.9649,23.76019 -4.6543,65.74377 -0.5946,14.77658 -1.7143,31.5473 -2.4885,37.26829 -0.7782,5.7508 -1.0857,15.82616 -0.6879,22.53286 0.3958,6.67211 0.1572,15.64195 -0.5302,19.93278 -0.6874,4.29093 -1.7116,19.50158 -2.2761,33.80151 -0.5644,14.29997 -1.8534,39.65027 -2.8647,56.33407 -1.0111,16.6841 -2.3566,39.6946 -2.9898,51.135 -0.6332,11.4402 -1.942,31.7211 -2.9086,45.0684 -0.9665,13.3474 -2.5854,40.2582 -3.5973,59.8019 -1.0122,19.5437 -2.3771,41.3844 -3.0331,48.5351 -0.6563,7.1506 -1.1793,19.6305 -1.1627,27.7333 0.014,8.1027 -0.8343,21.7531 -1.8912,30.3344 -1.135,9.2154 -1.6632,20.2134 -1.2899,26.8669 0.3473,6.1956 0.1429,15.1654 -0.4558,19.9327 -0.5981,4.7673 -1.5905,20.7579 -2.2054,35.5345 -0.6148,14.7767 -1.9554,39.7373 -2.9791,55.4679 -1.0238,15.7307 -2.3375,37.5713 -2.9195,48.5349 -1.1247,21.1893 -2.578,43.6955 -5.5402,85.8034 -2.0124,28.6049 -3.5663,58.6582 -5.1535,99.6682 -0.572,14.7767 -1.5774,30.9149 -2.2343,35.8627 -0.6569,4.9479 -1.1917,17.4278 -1.1884,27.7333 0,10.3057 -0.5642,21.4629 -1.2612,24.7943 -0.6969,3.3314 -1.2567,11.8758 -1.244,18.9876 0.013,7.1118 -0.5025,21.1568 -1.1449,31.2111 -0.6424,10.0543 -1.9856,32.321 -2.9853,49.4815 -0.9996,17.1605 -2.6011,42.1215 -3.559,55.4687 -0.9579,13.3474 -2.0579,32.4579 -2.4442,42.4679 -0.3864,10.0099 -1.2416,23.2705 -1.9003,29.4679 -1.2471,11.7316 -2.8291,41.9988 -4.4394,84.9347 -0.5186,13.8233 -1.6036,31.3739 -2.4111,39.0014 -0.8077,7.6275 -1.1798,16.8972 -0.8269,20.5991 0.3527,3.7021 0.1703,11.1118 -0.4054,16.4661 -0.5758,5.3546 -1.303,18.3625 -1.6162,28.9067 -0.313,10.5443 -1.1243,25.7546 -1.8027,33.8006 -1.3885,16.4704 -3.2819,47.4905 -4.8486,79.4339 -0.5791,11.8083 -1.6138,27.019 -2.2994,33.8015 -0.6855,6.7824 -1.7834,24.0319 -2.4399,38.332 -0.6562,14.2999 -1.7554,31.0706 -2.4424,37.2682 -0.6869,6.1974 -0.9196,14.4786 -0.517,18.4029 0.4026,3.9243 -0.1,15.1767 -1.1168,25.0054 -1.017,9.8288 -1.8376,24.2562 -1.8237,32.0606 0.014,7.8048 -0.4872,18.0829 -1.1137,22.8403 -0.6266,4.7574 -1.2193,15.5891 -1.3173,24.0705 -0.098,8.4812 -0.9243,23.5521 -1.8361,33.4907 -0.9119,9.9383 -1.6522,23.5886 -1.6453,30.334 0.012,6.7451 -0.4836,16.9444 -1.0903,22.665 -0.6066,5.7207 -1.441,19.3642 -1.8542,30.3192 -0.4133,10.9546 -1.2543,23.7367 -1.8691,28.4044 -0.6145,4.6676 -1.1128,11.0746 -1.1072,14.2377 0.011,6.3807 1.381,7.1655 14.0456,8.047 13.3772,0.9316 755.6107,-1.7411 760.5893,-2.7384 z m -283.1958,-1364.7402 -0.4064,-45.4958 -54.9085,-1.8818 c -30.1998,-1.0349 -72.0674,-2.4433 -93.0395,-3.1297 l -38.1309,-1.2478 -0.2169,32.3269 c -0.1193,17.78 -0.2183,39.1515 -0.2203,47.4927 l -0,15.1654 54.9065,0.7956 c 30.1988,0.4376 72.3485,0.9474 93.6663,1.133 l 38.7596,0.3374 z m 1.286,-207.2053 c 1.0538,-233.47945 1.1121,-313.77085 0.2292,-315.02616 -1.3447,-1.91199 -183.1469,-5.59353 -184.5148,-3.73659 -1.3497,1.83249 -1.4891,15.0133 -2.6806,253.59255 -0.4948,99.0521 -0.608,180.507 -0.2516,181.0113 1.1395,1.613 184.1884,7.9647 185.4551,6.4354 0.7765,-0.9375 1.4151,-45.2294 1.7627,-122.2765 z"
       id="path4752" />
  </g>
</svg>
