<?xml version="1.0" encoding="UTF-8" standalone="no"?>
<!-- Created with Inkscape (http://www.inkscape.org/) -->

<svg
   version="1.1"
   id="svg484"
   width="3464"
   height="3464"
   viewBox="0 0 3464 3464"
   sodipodi:docname="500000000.svg"
   inkscape:version="1.2.2 (732a01da63, 2022-12-09)"
   xmlns:inkscape="http://www.inkscape.org/namespaces/inkscape"
   xmlns:sodipodi="http://sodipodi.sourceforge.net/DTD/sodipodi-0.dtd"
   xmlns="http://www.w3.org/2000/svg"
   xmlns:svg="http://www.w3.org/2000/svg">
  <defs
     id="defs488" />
  <sodipodi:namedview
     id="namedview486"
     pagecolor="#ffffff"
     bordercolor="#000000"
     borderopacity="0.25"
     inkscape:showpageshadow="2"
     inkscape:pageopacity="0.0"
     inkscape:pagecheckerboard="0"
     inkscape:deskcolor="#d1d1d1"
     showgrid="false"
     inkscape:zoom="0.2289261"
     inkscape:cx="939.16772"
     inkscape:cy="1736.3682"
     inkscape:window-width="1920"
     inkscape:window-height="986"
     inkscape:window-x="-11"
     inkscape:window-y="-11"
     inkscape:window-maximized="1"
     inkscape:current-layer="g490" />
  <g
     inkscape:groupmode="layer"
     inkscape:label="Image"
     id="g490">
    <g
       id="g494"
       style="fill:#000000"
       transform="matrix(1.8440429,0,0,1.7840399,-691.87062,-1194.3023)">
      <path
         style="fill:#000000;fill-opacity:1"
         d="m 801.59647,1640.2673 v -546 h 546.00003 546 v 546 546 h -546 -546.00003 z m 1043.00003,127 v -370 h -497 -497.00003 v 370 370 h 497.00003 497 z m 0,-521.5 v -102.5 h -497 -497.00003 v 102.5 102.5 h 497.00003 497 z"
         id="path538" />
      <path
         style="fill:#000000;fill-opacity:1"
         d="m 801.59647,1640.2673 v -546 h 546.00003 546 v 546 546 h -546 -546.00003 z m 1043.00003,127 v -370 h -497 -497.00003 v 370 370 h 497.00003 497 z m 0,-521.5 v -102.5 h -497 -497.00003 v 102.5 102.5 h 497.00003 497 z"
         id="path536" />
      <path
         style="fill:#000000;fill-opacity:1"
         d="m 801.59647,1640.2673 v -546 h 546.00003 546 v 546 546 h -546 -546.00003 z m 1043.00003,127 v -370 h -497 -497.00003 v 370 370 h 497.00003 497 z m 0,-521.5 v -102.5 h -497 -497.00003 v 102.5 102.5 h 497.00003 497 z"
         id="path534" />
      <path
         style="fill:#000000;fill-opacity:1"
         d="m 801.59647,1640.2673 v -546 h 546.00003 546 v 546 546 h -546 -546.00003 z m 1043.00003,127 v -370 h -497 -497.00003 v 370 370 h 497.00003 497 z m 0,-521.5 v -102.5 h -497 -497.00003 v 102.5 102.5 h 497.00003 497 z"
         id="path532" />
      <path
         style="fill:#000000;fill-opacity:1"
         d="m 801.59647,1640.2673 v -546 h 546.00003 546 v 546 546 h -546 -546.00003 z m 1043.00003,127 v -370 h -497 -497.00003 v 370 370 h 497.00003 497 z m 0,-521.5 v -102.5 h -497 -497.00003 v 102.5 102.5 h 497.00003 497 z"
         id="path530" />
      <path
         style="fill:#000000;fill-opacity:1"
         d="m 801.59647,1640.2673 v -546 h 546.00003 546 v 546 546 h -546 -546.00003 z m 1043.00003,127 v -370 h -497 -497.00003 v 370 370 h 497.00003 497 z m 0,-521.5 v -102.5 h -497 -497.00003 v 102.5 102.5 h 497.00003 497 z"
         id="path528" />
      <path
         style="fill:#000000;fill-opacity:1"
         d="m 801.59647,1640.2673 v -546 h 546.00003 546 v 546 546 h -546 -546.00003 z m 1043.00003,127 v -370 h -497 -497.00003 v 370 370 h 497.00003 497 z m 0,-521.5 v -102.5 h -497 -497.00003 v 102.5 102.5 h 497.00003 497 z"
         id="path526" />
      <path
         style="fill:#000000;fill-opacity:1"
         d="m 801.59647,1640.2673 v -546 h 546.00003 546 v 546 546 h -546 -546.00003 z m 1043.00003,127 v -370 h -497 -497.00003 v 370 370 h 497.00003 497 z m 0,-521.5 v -102.5 h -497 -497.00003 v 102.5 102.5 h 497.00003 497 z"
         id="path524" />
      <path
         style="fill:#000000;fill-opacity:1"
         d="m 801.59647,1640.2673 v -546 h 546.00003 546 v 546 546 h -546 -546.00003 z m 1043.00003,127 v -370 h -497 -497.00003 v 370 370 h 497.00003 497 z m 0,-521.5 v -102.5 h -497 -497.00003 v 102.5 102.5 h 497.00003 497 z"
         id="path522" />
      <path
         style="fill:#000000;fill-opacity:1"
         d="m 801.59647,1640.2673 v -546 h 546.00003 546 v 546 546 h -546 -546.00003 z m 1043.00003,127 v -370 h -497 -497.00003 v 370 370 h 497.00003 497 z m 0,-521.5 v -102.5 h -497 -497.00003 v 102.5 102.5 h 497.00003 497 z"
         id="path520" />
      <path
         style="fill:#000000;fill-opacity:1"
         d="m 801.59647,1640.2673 v -546 h 546.00003 546 v 546 546 h -546 -546.00003 z m 1043.00003,127 v -370 h -497 -497.00003 v 370 370 h 497.00003 497 z m 0,-521.5 v -102.5 h -497 -497.00003 v 102.5 102.5 h 497.00003 497 z"
         id="path518" />
      <path
         style="fill:#000000;fill-opacity:1"
         d="m 801.59647,1640.2673 v -546 h 546.00003 546 v 546 546 h -546 -546.00003 z m 1043.00403,496.5 c 0,-0.987 0,-735.8285 0,-738.25 0,-0.9983 -100.0698,-1.25 -497.002,-1.25 H 850.59847 v 370.25 370.25 h 497.00003 c 330.664,0 497.0013,-0.3347 497.004,-1 z m 0,-891 v -102.5 h -497 -497.00003 v 102.5 102.5 h 497.00003 497 z"
         id="path516" />
      <path
         style="fill:#000000;fill-opacity:1"
         d="m 801.59647,1640.2673 v -546 h 546.00003 546 v 546 546 h -546 -546.00003 z m 1043.75133,127.25 0.2514,-370.25 H 1348.0978 850.59647 v 370.501 370.501 l 497.25003,-0.251 497.25,-0.251 z m -0.7513,-521.75 v -102.5 h -497 -497.00003 v 102.5 102.5 h 497.00003 497 z"
         id="path514" />
      <path
         style="fill:#000000;fill-opacity:1"
         d="m 801.59647,1640.2673 v -546 h 546.00003 546 v 546 546 h -546 -546.00003 z m 1043.75133,127.25 0.2514,-370.25 h -497.5014 c -441.55613,0 -497.50153,0.1687 -497.50263,1.5 -8e-4,0.825 0,167.325 0,370 0,202.675 6e-4,368.7254 0,369.001 7e-4,0.2755 223.76383,0.388 497.25133,0.25 l 497.25,-0.251 z m -0.9966,-521.748 0.2547,-102.502 H 1349.183 c -272.4826,0 -496.13473,-0.2731 -497.00473,-0.607 -1.4361,-0.5511 -1.5818,8.8761 -1.5818,102.3333 0,56.6172 0.1875,103.1279 0.4167,103.357 0.2291,0.2292 223.76663,0.3051 496.75003,0.1687 l 496.3333,-0.2479 z"
         id="path512" />
      <path
         style="fill:#000000;fill-opacity:1"
         d="m 801.59647,1640.2673 v -546 h 546.00003 546 v 546 546 h -546 -546.00003 z m 1043.75133,127.25 0.2514,-370.25 H 1347.5978 849.59647 v 369.8333 c 0,203.4084 0.3004,370.1338 0.6677,370.501 0.3672,0.3672 224.35473,0.5547 497.75003,0.4167 l 497.0823,-0.251 z m -0.9966,-522 0.2546,-103.25 H 1347.6012 850.59647 v 102.8333 c 0,56.5584 0.3004,103.1338 0.6677,103.501 0.3672,0.3672 223.90473,0.5547 496.75003,0.4167 l 496.0823,-0.251 z"
         id="path510" />
      <path
         style="fill:#000000;fill-opacity:1"
         d="m 801.59647,1640.2673 v -546 h 546.00003 546 v 546 546 h -546 -546.00003 z m 1043.75133,127.25 0.2514,-370.25 H 1347.5978 849.59647 v 369.8333 c 0,203.4084 0.3004,370.1338 0.6677,370.501 0.3672,0.3672 224.35473,0.5547 497.75003,0.4167 l 497.0823,-0.251 z m -0.7513,-521.75 v -103.5 h -497 -497.00003 v 103.5 103.5 h 497.00003 497 z"
         id="path508" />
      <path
         style="fill:#000000;fill-opacity:1"
         d="m 801.59647,1640.2673 v -546 h 546.00003 546 v 546 546 h -546 -546.00003 z m 1043.75133,127.25 0.2514,-370.25 H 1347.5978 849.59647 v 369.8333 c 0,203.4084 0.3004,370.1338 0.6677,370.501 0.3672,0.3672 224.35473,0.5547 497.75003,0.4167 l 497.0823,-0.251 z m -0.7513,-521.75 v -103.5 h -497 -497.00003 v 103.5 103.5 h 497.00003 497 z"
         id="path506" />
      <path
         style="fill:#000000;fill-opacity:1"
         d="m 801.59647,1640.2673 v -546 h 546.00003 546 v 546 546 h -546 -546.00003 z m 1043.75133,127.25 0.2514,-370.25 H 1347.5978 849.59647 v 369.8333 c 0,203.4084 0.3004,370.1338 0.6677,370.501 0.3672,0.3672 224.35473,0.5547 497.75003,0.4167 l 497.0823,-0.251 z m -0.7513,-521.75 v -103.5 h -497 -497.00003 v 103.5 103.5 h 497.00003 497 z"
         id="path504" />
      <path
         style="fill:#000000;fill-opacity:1"
         d="m 801.59647,1640.2673 v -546 h 546.00003 546 v 546 546 h -546 -546.00003 z m 1043.75133,127.25 0.2514,-370.25 H 1347.5978 849.59647 v 369.8333 c 0,203.4084 0.3004,370.1338 0.6677,370.501 0.3672,0.3672 224.35473,0.5547 497.75003,0.4167 l 497.0823,-0.251 z m -0.5106,-521.3335 c 0.1426,-56.6959 0.072,-103.2709 -0.1574,-103.5 -0.2291,-0.2291 -223.9916,-0.4165 -497.25,-0.4165 H 850.59647 v 103.5 103.5 h 496.99073 496.9907 z"
         id="path502" />
      <path
         style="fill:#000000;fill-opacity:1"
         d="m 801.59647,1640.2673 v -546 h 546.00003 546 v 546 546 h -546 -546.00003 z m 1043.75133,127.25 0.2514,-370.25 H 1347.5978 849.59647 v 369.8333 c 0,203.4084 0.3004,370.1338 0.6677,370.501 0.3672,0.3672 224.35473,0.5547 497.75003,0.4167 l 497.0823,-0.251 z m -0.5106,-521 c 0.1426,-56.5125 0.1202,-103.0875 -0.05,-103.5 -0.17,-0.4125 -223.9325,-0.75 -497.25,-0.75 H 850.59617 v 103.5 103.5 h 496.99073 496.9907 l 0.2593,-102.75 z"
         id="path500" />
      <path
         style="fill:#000000;fill-opacity:1"
         d="m 801.59647,1640.2673 v -546 h 546.00003 546 v 546 546 h -546 -546.00003 z m 1044.00003,127.5 v -370.5 h -498 -498.00003 v 369.8333 c 0,203.4084 0.3,370.1334 0.6667,370.5 0.3666,0.3667 224.46663,0.6667 498.00003,0.6667 h 497.3333 z m -0.5,-522 v -103 l -496.5,-0.2557 c -273.075,-0.1406 -496.95003,-0.085 -497.50003,0.1226 -0.6601,0.2497 -0.9119,35.4344 -0.7407,103.5067 l 0.2593,103.1284 497.24073,-0.251 497.2407,-0.251 z"
         id="path498" />
      <path
         style="fill:#000000;fill-opacity:1"
         d="m 801.59647,1640.2673 v -546 h 546.00003 546 v 546 546 h -546 -546.00003 z m 1044.00003,127.5 v -370.5 h -498 -498.00003 v 370.5 370.5 h 498.00003 498 z m -0.5,-522 v -103 l -496.949,-0.251 c -273.3219,-0.1381 -497.19693,0.087 -497.50003,0.5 -0.303,0.413 -0.4343,46.9889 -0.2917,103.502 l 0.2593,102.751 497.24073,-0.251 497.2407,-0.251 z"
         id="path496" />
    </g>
  </g>
</svg>
