<?xml version="1.0" encoding="UTF-8" standalone="no"?>
<!-- Created with Inkscape (http://www.inkscape.org/) -->

<svg
   version="1.1"
   id="svg4691"
   width="3464"
   height="3464"
   viewBox="0 0 3464 3464"
   sodipodi:docname="1200000000.svg"
   inkscape:version="1.2.2 (732a01da63, 2022-12-09)"
   xmlns:inkscape="http://www.inkscape.org/namespaces/inkscape"
   xmlns:sodipodi="http://sodipodi.sourceforge.net/DTD/sodipodi-0.dtd"
   xmlns="http://www.w3.org/2000/svg"
   xmlns:svg="http://www.w3.org/2000/svg">
  <defs
     id="defs4695" />
  <sodipodi:namedview
     id="namedview4693"
     pagecolor="#ffffff"
     bordercolor="#000000"
     borderopacity="0.25"
     inkscape:showpageshadow="2"
     inkscape:pageopacity="0.0"
     inkscape:pagecheckerboard="0"
     inkscape:deskcolor="#d1d1d1"
     showgrid="false"
     inkscape:zoom="0.2289261"
     inkscape:cx="1729.8159"
     inkscape:cy="1736.3682"
     inkscape:window-width="1920"
     inkscape:window-height="986"
     inkscape:window-x="-11"
     inkscape:window-y="-11"
     inkscape:window-maximized="1"
     inkscape:current-layer="g4697" />
  <g
     inkscape:groupmode="layer"
     inkscape:label="Image"
     id="g4697">
    <path
       style="fill:#000000;stroke-width:1.95665"
       d="m 448.13232,2152.1953 0.49312,-69.059 21.53595,-1.361 c 28.84827,-1.8232 147.78213,-4.244 336.14937,-6.8423 82.6026,-1.1392 155.57839,-2.0028 337.08544,-3.9881 53.5591,-0.5857 121.819,-1.544 151.6885,-2.1293 29.8695,-0.5852 97.708,-1.5359 150.7522,-2.1122 156.0972,-1.696 247.7887,-2.8558 314.6132,-3.9796 34.5044,-0.5801 99.3934,-1.5314 144.1977,-2.1138 44.8043,-0.5824 114.3282,-1.5088 154.4975,-2.0585 95.9417,-1.3126 207.4927,-2.6996 318.227,-3.9567 50.6655,-0.5753 90.5074,-1.8371 91.4786,-2.8975 1.6074,-1.7546 16.6276,-257.9321 15.2234,-259.6483 -0.354,-0.4326 -53.9721,-3.846 -119.1512,-7.5856 -330.2419,-18.9468 -412.8307,-23.5848 -436.8666,-24.5339 -30.6215,-1.2092 -85.0822,-6.1402 -86.6437,-7.8452 -1.3112,-1.4313 14.8908,-241.7416 16.4888,-244.5639 0.7284,-1.2867 17.0729,-0.821 45.9427,1.3091 77.3895,5.7095 591.5747,34.9515 592.9453,33.7209 2.1301,-1.9124 7.7993,-114.7124 5.8712,-116.8172 -0.9441,-1.0308 -14.9422,-2.7389 -31.1061,-3.796 -16.1643,-1.0571 -30.156,-2.439 -31.0928,-3.0712 -0.9369,-0.632 -14.2218,-2.0954 -29.5219,-3.2517 -15.2998,-1.1563 -36.9062,-3.4616 -48.0139,-5.1225 -11.1076,-1.6609 -25.8553,-3.0363 -32.7722,-3.0564 -6.917,-0.02 -20.582,-1.3836 -30.3669,-3.0299 -9.7849,-1.6465 -24.5323,-3.0259 -32.7722,-3.0656 -8.2399,-0.041 -22.566,-1.4327 -31.8359,-3.0956 -9.2697,-1.6626 -23.1745,-3.0321 -30.8996,-3.0429 -7.7247,-0.02 -22.3987,-1.3942 -32.609,-3.0743 -10.2099,-1.68 -24.0709,-3.0544 -30.8018,-3.0544 -6.7307,0 -22.8158,-1.343 -35.7442,-2.9844 -29.5821,-3.7559 -64.6707,-7.0869 -98.4146,-9.3426 -14.4197,-0.9639 -30.7569,-2.7246 -36.305,-3.9125 -5.548,-1.188 -17.346,-2.1764 -26.2177,-2.1965 -8.8718,-0.02 -24.1362,-1.3836 -33.9211,-3.03 -9.7848,-1.6463 -24.5324,-3.0274 -32.7721,-3.0696 -8.24,-0.043 -23.4089,-1.4094 -33.7086,-3.0383 -10.2998,-1.6292 -25.4688,-2.9966 -33.7087,-3.0387 -8.2397,-0.043 -20.0377,-1.0236 -26.2177,-2.1812 -6.1799,-1.1576 -23.877,-3.0089 -39.3267,-4.1144 -15.4496,-1.1053 -40.3098,-2.8739 -55.2446,-3.9298 -14.9346,-1.0561 -32.6317,-2.8607 -39.3266,-4.0102 -6.6949,-1.1496 -19.4313,-2.1086 -28.303,-2.1313 -8.8717,-0.022 -20.2729,-0.8987 -25.336,-1.9467 -5.0628,-1.0483 -20.1359,-2.4797 -33.4959,-3.1812 -13.3598,-0.7014 -28.8696,-2.1438 -34.4662,-3.2051 -5.5967,-1.0615 -17.3947,-1.9352 -26.2177,-1.9417 -8.8231,0 -21.0986,-0.9417 -27.2784,-2.078 -6.1799,-1.1364 -21.7701,-2.5319 -34.6449,-3.1012 -12.8748,-0.5695 -25.5155,-1.5538 -28.0906,-2.1875 -2.5748,-0.6338 -17.3223,-1.962 -32.7721,-2.9515 -15.4498,-0.9897 -42.2322,-2.7135 -59.5163,-3.8308 -17.2843,-1.1172 -32.1764,-2.5378 -33.0937,-3.1566 -0.9173,-0.6189 -16.2708,-2.1023 -34.1187,-3.2964 -55.2858,-3.6987 -119.3584,-8.1812 -172.903,-12.0962 -14.4197,-1.0542 -39.701,-2.8702 -56.1809,-4.0358 -16.4797,-1.1652 -43.02518,-3.0508 -58.98997,-4.19 -15.96479,-1.1395 -42.08874,-2.9365 -58.05364,-3.9939 -15.96468,-1.0577 -44.19555,-2.9846 -62.73541,-4.2827 -18.53953,-1.298 -40.87149,-2.6116 -49.62652,-2.9192 -8.75469,-0.3074 -31.08663,-1.5957 -49.62646,-2.8626 -78.96135,-5.3957 -103.89511,-6.9216 -118.9161,-7.2771 -8.75501,-0.2073 -32.77233,-1.5867 -53.37198,-3.0654 -20.59967,-1.4787 -45.4597,-2.9542 -55.2446,-3.2793 -9.78474,-0.3251 -29.16718,-1.3488 -43.07193,-2.275 l -25.28145,-1.6842 v -70.5307 -70.5308 l 4.68164,0.5139 c 2.5751,0.2822 15.21568,0.8969 28.09051,1.3655 34.49345,1.2554 220.43456,11.4934 279.96829,15.4151 65.88199,4.3397 100.24043,6.4843 115.17099,7.1888 14.67239,0.6925 32.58385,1.9065 106.74374,7.2349 69.13829,4.9676 134.72099,9.5125 173.76779,12.0424 17.8085,1.1536 33.1004,2.5845 33.982,3.1793 0.8821,0.595 14.1109,1.6276 29.3977,2.2945 15.2868,0.667 28.4545,1.6584 29.2616,2.2028 0.8068,0.5443 14.9322,1.8431 31.3901,2.8864 16.4577,1.0431 43.3879,2.7501 59.8458,3.7931 16.4577,1.0433 30.7495,2.4542 31.7599,3.1359 1.01,0.6816 9.2446,1.2647 18.2989,1.2955 9.0542,0.031 22.7825,0.9977 30.5075,2.1483 7.7248,1.1505 25.8431,2.8943 40.2628,3.8753 14.4201,0.9807 39.7012,2.7124 56.181,3.8478 16.4797,1.1356 34.5023,3.0153 40.0505,4.1769 5.5481,1.1613 17.863,2.1118 27.3666,2.1118 9.5038,0 21.8187,0.9535 27.3668,2.1189 5.548,1.1652 23.1491,3.0181 39.1141,4.1173 69.6475,4.795 83.9728,6.0055 94.5711,7.9906 6.1799,1.1575 18.0515,2.1098 26.381,2.1164 8.3298,0 23.4986,1.3862 33.7085,3.0663 10.2101,1.6801 25.379,3.06 33.7087,3.0665 8.3296,0 23.4986,1.3866 33.7085,3.0666 10.21,1.6801 24.9576,3.0601 32.772,3.0665 7.8149,0 22.5623,1.3866 32.7725,3.0666 10.2099,1.6801 24.9573,3.0601 32.772,3.0666 7.8148,0 22.5622,1.3865 32.7722,3.0665 10.2102,1.6801 24.8843,3.0891 32.6091,3.1314 7.7249,0.043 22.4725,1.4098 32.7722,3.0389 10.2998,1.629 25.0473,2.9963 32.7722,3.0383 7.7249,0.043 22.0512,1.4234 31.8358,3.0697 9.7849,1.6464 24.1111,3.0262 31.836,3.0666 7.725,0.041 22.0511,1.4201 31.8357,3.0665 9.7851,1.6464 24.1111,3.0264 31.836,3.0666 7.7251,0.041 22.0509,1.4202 31.8358,3.0665 9.785,1.6463 24.1111,3.015 31.8359,3.0419 7.7249,0.026 19.1015,0.9773 25.2815,2.1129 6.1799,1.1353 26.4048,3.458 44.9446,5.1613 18.5397,1.7035 38.7649,3.9114 44.9449,4.9065 6.1798,0.9952 17.5565,1.8906 25.2813,1.9898 7.7249,0.1004 21.6297,1.5406 30.8996,3.2034 9.2699,1.6628 23.3908,3.0391 31.3799,3.0587 7.9892,0.02 22.7367,1.328 32.7723,2.9074 10.0355,1.5792 27.2352,3.4756 38.2213,4.214 10.9861,0.7384 27.8406,2.6495 37.454,4.2469 9.6136,1.5977 23.3782,2.9247 30.5878,2.9492 7.2101,0.025 20.6934,1.3929 29.9635,3.0409 9.2696,1.6479 26.5453,3.576 38.3901,4.2844 11.8448,0.7087 29.1205,2.5732 38.3902,4.1431 9.2699,1.5701 22.332,2.8647 29.0269,2.8774 6.6948,0.02 20.1783,1.4038 29.9631,3.0922 9.7848,1.6881 30.0621,3.9388 45.0608,5.0015 14.9985,1.0626 31.2481,2.9055 36.1101,4.0949 4.8621,1.1895 17.872,2.6954 28.9108,3.3465 11.039,0.6509 31.4474,2.9354 45.3522,5.0763 13.9048,2.141 30.7592,3.9004 37.454,3.9103 6.6948,0 19.3356,1.331 28.0905,2.9365 8.7548,1.6054 21.1662,3.5302 27.5806,4.2777 18.096,2.1081 35.7787,12.3154 46.0258,26.5679 13.0067,18.091 15.0242,29.1915 12.6256,69.4649 -1.0714,17.9894 -2.7595,39.6078 -3.7513,48.0408 -0.9918,8.433 -2.3068,25.9124 -2.9217,38.843 -0.6151,12.9307 -1.8762,27.6501 -2.8032,32.71 -0.9265,5.0598 -1.7379,17.0193 -1.8027,26.5768 -0.065,9.5574 -1.3391,26.5767 -2.8312,37.8207 -1.4923,11.2441 -2.7565,27.3435 -2.8091,35.7766 -0.053,8.433 -1.3169,24.5324 -2.8091,35.7764 -1.4922,11.2441 -2.755,27.8035 -2.8061,36.7987 -0.051,8.9953 -1.3268,25.0947 -2.8349,35.7765 -1.5081,10.6817 -2.7723,26.7813 -2.8091,35.7765 -0.036,8.9952 -1.3009,25.0947 -2.809,35.7765 -1.508,10.6818 -2.7719,27.2412 -2.8082,36.7985 -0.035,9.5575 -1.3123,25.6569 -2.8355,35.7766 -1.5231,10.1197 -2.7991,25.759 -2.8357,34.7542 -0.035,8.9953 -1.2875,25.5548 -2.7799,36.7988 -1.4921,11.244 -2.7563,27.3434 -2.809,35.7764 -0.053,8.433 -1.3167,24.5325 -2.8092,35.7765 -1.492,11.244 -2.7295,27.4719 -2.7495,36.0616 -0.04,17.3737 -4.2085,44.4244 -8.6804,56.3341 -3.376,8.9913 -15.4269,23.4158 -25.4191,30.4254 -9.5017,6.6656 -29.613,11.2659 -46.4629,10.6278 -7.7248,-0.2925 -62.5012,0.1963 -121.7253,1.0866 -59.224,0.8903 -140.1245,1.9889 -179.779,2.4415 -39.6544,0.4527 -94.852,1.3657 -122.6616,2.029 -27.8096,0.6631 -102.3898,1.6148 -165.7338,2.1146 -63.3441,0.4999 -142.6408,1.3714 -176.2151,1.9368 -59.7565,1.0066 -161.7602,2.355 -311.6226,4.1195 -41.1994,0.4851 -108.6164,1.3846 -149.816,1.9989 -75.2829,1.1226 -165.4655,2.2317 -338.9582,4.1685 -51.4993,0.5749 -122.2872,1.4839 -157.3065,2.0197 -35.0193,0.5359 -97.3802,1.4465 -138.5796,2.0236 -41.1995,0.5772 -109.0379,1.5282 -150.75227,2.1137 -41.7142,0.5853 -84.69272,2.1035 -95.50747,3.3738 -12.87514,1.5122 -89.00867,2.5779 -220.53505,3.0868 l -200.87195,0.7776 z M 2682.7536,2050.3395 c 173.1908,-1.8303 239.4326,-2.9341 242.6309,-4.0422 6.287,-2.1784 7.6215,-9.9254 13.0218,-75.6014 1.1096,-13.4928 2.8018,-37.872 3.761,-54.1758 0.959,-16.3038 2.6053,-34.5987 3.6581,-40.6553 1.0534,-6.0566 1.9313,-18.4762 1.9513,-27.599 0.021,-9.1229 1.2575,-25.7866 2.7495,-37.0308 1.4925,-11.244 2.7435,-27.8033 2.78,-36.7986 0.035,-8.9952 1.3126,-24.6347 2.8356,-34.7543 1.5234,-10.1197 2.8012,-25.7591 2.8396,-34.7543 0.039,-8.9953 0.932,-22.3347 1.985,-29.6434 1.0531,-7.3086 2.6634,-26.6279 3.5783,-42.9318 2.2704,-40.4599 5.2576,-77.5369 8.8774,-110.1907 4.6082,-41.5716 0.9813,-49.0863 -23.809,-49.329 -6.6949,-0.065 -15.9649,-0.9726 -20.5998,-2.0157 -4.6349,-1.043 -20.6476,-2.8457 -35.5838,-4.006 -14.9364,-1.1601 -34.3189,-3.4852 -43.0722,-5.1669 -8.7534,-1.6815 -21.8143,-3.076 -29.024,-3.0987 -7.2099,-0.022 -24.4856,-1.8466 -38.3903,-4.0531 -13.9049,-2.2066 -31.1804,-4.0304 -38.3902,-4.0531 -7.2101,-0.022 -20.272,-1.4363 -29.0267,-3.1412 -8.755,-1.705 -25.188,-3.6001 -36.5179,-4.2109 -11.3297,-0.6108 -28.6053,-2.3784 -38.3902,-3.9279 -22.8208,-3.6139 -67.4171,-5.7536 -67.4171,-3.2347 0,1.0406 -7.1632,134.4576 -15.9179,296.4821 -16.194,299.6994 -16.9873,317.186 -14.5135,319.9026 0.7724,0.8482 9.4103,0.9971 19.1953,0.3306 9.7848,-0.6667 64.1397,-1.7017 120.7888,-2.3005 z m 30.8995,-174.0738 c -20.1236,-3.6734 -43.321,-18.1643 -54.901,-34.2954 -28.7468,-40.0453 -23.1317,-101.5706 12.04,-131.9209 15.1005,-13.0307 37.9241,-22.4987 54.2351,-22.4987 32.1134,0 65.8134,22.8909 79.2093,53.8035 15.7805,36.4149 10.1256,75.9839 -15.1112,105.7418 -18.8689,22.2491 -49.1884,33.9674 -75.4722,29.1697 z M 2489.0236,1711.572 c 0.053,-3.6543 1.2255,-25.9634 2.6082,-49.576 1.3828,-23.6124 1.9724,-43.5269 1.3105,-44.254 -1.2382,-1.3601 -444.0053,-27.1804 -444.8851,-25.9438 -1.2035,1.6922 -6.1429,98.9548 -5.0821,100.0788 1.0011,1.0612 406.8311,25.3363 436.1226,26.0871 l 9.8318,0.2521 0.093,-6.6442 z m -476.3922,-55.7349 c 1.197,-19.1008 2.637,-41.7427 3.2005,-50.3156 l 1.0243,-15.5873 -14.4368,-1.2454 c -7.94,-0.685 -25.6024,-1.8501 -39.2498,-2.5894 l -24.8131,-1.3437 -0.02,7.9546 c 0,4.3751 -0.7945,20.3742 -1.7459,35.5536 -0.9512,15.1795 -1.9969,34.4989 -2.3245,42.9318 l -0.5948,15.3327 35.5811,2.2512 c 19.5699,1.238 36.8454,2.1464 38.3903,2.0185 2.2855,-0.19 3.2146,-6.7069 4.9855,-34.961 z"
       id="path4701"
       inkscape:transform-center-x="818.03588"
       inkscape:transform-center-y="258.97764" />
  </g>
</svg>
