<?xml version="1.0" encoding="UTF-8" standalone="no"?>
<!-- Created with Inkscape (http://www.inkscape.org/) -->

<svg
   version="1.1"
   id="svg259"
   width="3464"
   height="3464"
   viewBox="0 0 3464 3464"
   sodipodi:docname="30000000000.svg"
   inkscape:version="1.2.2 (732a01da63, 2022-12-09)"
   xmlns:inkscape="http://www.inkscape.org/namespaces/inkscape"
   xmlns:sodipodi="http://sodipodi.sourceforge.net/DTD/sodipodi-0.dtd"
   xmlns="http://www.w3.org/2000/svg"
   xmlns:svg="http://www.w3.org/2000/svg">
  <defs
     id="defs263" />
  <sodipodi:namedview
     id="namedview261"
     pagecolor="#ffffff"
     bordercolor="#000000"
     borderopacity="0.25"
     inkscape:showpageshadow="2"
     inkscape:pageopacity="0.0"
     inkscape:pagecheckerboard="0"
     inkscape:deskcolor="#d1d1d1"
     showgrid="false"
     inkscape:zoom="0.2289261"
     inkscape:cx="939.16772"
     inkscape:cy="1736.3682"
     inkscape:window-width="1920"
     inkscape:window-height="986"
     inkscape:window-x="-11"
     inkscape:window-y="-11"
     inkscape:window-maximized="1"
     inkscape:current-layer="g265" />
  <g
     inkscape:groupmode="layer"
     inkscape:label="Image"
     id="g265">
    <g
       id="g269"
       transform="matrix(1.8320372,0,0,1.8516171,-1403.9524,-1424.8915)"
       style="fill:#000000">
      <path
         style="fill:#000000;fill-opacity:1"
         d="m 1708,2272.8668 c -14.025,-0.441 -27.9376,-1.2665 -30.9168,-1.8343 -2.9792,-0.5679 -8.1542,-1.0313 -11.5,-1.0299 -5.8787,0 -24.1929,-1.9883 -37.5832,-4.0854 -3.575,-0.5599 -10.775,-1.6445 -16,-2.4103 -14.6137,-2.1418 -21.7304,-3.4539 -24.5518,-4.5266 -1.4181,-0.5392 -4.0948,-0.9803 -5.9482,-0.9803 -1.8534,0 -4.6366,-0.4935 -6.1849,-1.0967 -1.5483,-0.6032 -5.0651,-1.4733 -7.8151,-1.9336 -2.75,-0.4603 -7.7,-1.5769 -11,-2.4814 -3.3,-0.9045 -7.125,-1.8559 -8.5,-2.1143 -1.375,-0.2584 -4.75,-1.1017 -7.5,-1.8739 -2.75,-0.7723 -7.7,-2.1351 -11,-3.0285 -3.3,-0.8934 -6.9,-1.9912 -8,-2.4396 -1.8723,-0.7632 -13.2598,-4.2014 -20,-6.0386 -3.7868,-1.0322 -9.9348,-3.1837 -18,-6.2991 -2.2,-0.8498 -7.375,-2.7457 -11.5,-4.2132 -29.1931,-10.3856 -91.8751,-39.6394 -111,-51.8039 -1.925,-1.2244 -5.1875,-3.105 -7.25,-4.1791 -2.0625,-1.0741 -3.75,-2.3006 -3.75,-2.7255 0,-0.4249 -0.434,-0.7726 -0.9645,-0.7726 -2.1906,0 -46.9654,-29.0536 -53.0355,-34.4139 -1.375,-1.2142 -6.55,-5.0817 -11.5,-8.5944 -4.95,-3.5128 -9.225,-6.6424 -9.5,-6.9546 -0.275,-0.3123 -6.8,-5.7178 -14.5,-12.0122 -7.7,-6.2944 -14.225,-11.6875 -14.5,-11.9846 -0.275,-0.2972 -3.2,-3.0085 -6.5,-6.0252 -4.9347,-4.5111 -10.2139,-12.1457 -29.7338,-43 L 1186.0323,2006.5 1186.0162,1596.25 1186,1186 h 546 546 v 415.6358 415.6359 l -5.8395,8.1141 c -15.7548,21.892 -42.1231,57.7117 -43.3156,58.8415 -15.7222,14.8967 -39.3465,34.0574 -62.975,51.0763 -14.0197,10.098 -41.0841,27.9347 -50.0876,33.0101 -2.3553,1.3276 -9.2323,5.3186 -15.2823,8.8688 -11.0217,6.4676 -46.423,24.4614 -60.5,30.751 -13.4108,5.992 -44.2214,18.2178 -56,22.2212 -6.325,2.1498 -12.4,4.3262 -13.5,4.8363 -3.0562,1.4175 -14.6565,5.009 -16.1787,5.009 -0.7417,0 -2.1298,0.4061 -3.0849,0.9025 -0.955,0.4964 -3.7614,1.4613 -6.2364,2.1442 -2.475,0.6829 -6.3,1.8078 -8.5,2.4997 -20.3758,6.4083 -72.961,17.3397 -99,20.5801 -4.4,0.5476 -10.925,1.3928 -14.5,1.8784 -3.575,0.4856 -12.2842,1.3604 -19.3539,1.9442 -7.0696,0.5837 -13.1905,1.2693 -13.602,1.5237 -0.4115,0.2543 -11.0523,0.7135 -23.6462,1.0204 -12.5938,0.307 -25.1479,0.697 -27.8979,0.8667 -2.75,0.1698 -16.475,-0.052 -30.5,-0.4931 z m 61.5,-49.912 c 18.4387,-1.0199 46.116,-3.4159 56.5,-4.891 3.575,-0.5079 9.875,-1.3939 14,-1.9689 4.125,-0.575 9.975,-1.529 13,-2.1201 3.025,-0.5911 7.75,-1.4814 10.5,-1.9785 13.5564,-2.4505 21.813,-4.2212 32.5,-6.9698 1.925,-0.4951 5.75,-1.407 8.5,-2.0265 5.7354,-1.2919 11.8789,-2.8821 15.5,-4.0121 1.375,-0.429 5.875,-1.756 10,-2.9488 7.3391,-2.1222 36.596,-11.8251 48.5,-16.0847 6.4219,-2.2979 30.0676,-11.8658 37.5,-15.1739 11.5268,-5.1304 47.5301,-23.1841 56.5,-28.3317 5.5,-3.1563 12.475,-7.1642 15.5,-8.9066 29.626,-17.0638 73.4011,-48.7645 98.0685,-71.0185 3.0627,-2.763 7.7877,-6.8896 10.5,-9.1702 2.7123,-2.2805 11.1299,-10.1555 18.7057,-17.5 l 13.7742,-13.3535 -0.024,-263.75 L 2229,1489 h -497 -497 v 262.7946 262.7947 l 14.25,13.9696 c 22.1261,21.6908 38.48,35.9022 61.1254,53.1176 4.4685,3.3971 9.4528,7.2221 11.0762,8.5 14.2759,11.2382 48.6234,33.1746 74.5484,47.6112 25.1539,14.0072 69.6971,34.2988 95.75,43.6187 17.7736,6.3582 21.5197,7.6194 34.25,11.5304 7.425,2.2811 15.075,4.557 17,5.0577 1.925,0.5006 5.975,1.5669 9,2.3695 6.1988,1.6447 16.7478,4.3602 22,5.6632 1.925,0.4776 6.875,1.5355 11,2.3509 4.125,0.8155 9.975,2.0144 13,2.6644 8.4354,1.8127 20.6493,3.8517 29.5,4.925 4.4,0.5335 9.8,1.4234 12,1.9774 2.2,0.5541 5.9431,1.0181 8.3181,1.0312 2.375,0.013 9.125,0.7148 15,1.5591 21.088,3.0309 73.9546,4.2299 106.6819,2.4196 z M 2229,1337.5 V 1235 h -497 -497 v 102.5 102.5 h 497 497 z"
         id="path299" />
      <path
         style="fill:#000000;fill-opacity:1"
         d="m 1692,2271.9836 c -29.1271,-2.0845 -40.7362,-3.1443 -54,-4.9295 -22.3139,-3.0034 -37.3166,-5.3835 -48.5,-7.6944 -3.85,-0.7955 -10.15,-2.0991 -14,-2.8968 -7.8154,-1.6194 -29.3157,-6.7988 -37,-8.9133 -2.75,-0.7567 -7.475,-2.0577 -10.5,-2.8912 -3.025,-0.8335 -9.325,-2.7162 -14,-4.1837 -4.675,-1.4676 -10.3,-3.1369 -12.5,-3.7097 -2.2,-0.5727 -4.4275,-1.4292 -4.95,-1.9032 -0.5225,-0.474 -1.638,-0.8618 -2.4788,-0.8618 -1.3841,0 -8.8658,-2.5591 -19.5712,-6.6943 -2.2,-0.8498 -4.9,-1.8789 -6,-2.2868 -1.1,-0.4079 -3.7028,-1.4791 -5.7839,-2.3803 -2.0812,-0.9012 -4.2236,-1.6386 -4.7609,-1.6386 -0.5374,0 -2.8846,-0.863 -5.2161,-1.9178 -2.3315,-1.0548 -7.308,-3.3048 -11.0589,-5 -3.7508,-1.6952 -7.2444,-3.0822 -7.7635,-3.0822 -0.5191,0 -1.7252,-0.4422 -2.6803,-0.9827 -0.955,-0.5405 -6.6864,-3.2783 -12.7364,-6.084 -40.6532,-18.8532 -79.2917,-41.0819 -113.5,-65.2964 -22.592,-15.9919 -49.3431,-37.1759 -63.2046,-50.0514 -3.8994,-3.622 -7.3611,-6.6041 -7.6926,-6.6269 -0.3315,-0.023 -11.2903,-17.1039 -24.3528,-37.9581 L 1186,2006.0837 V 1596.0419 1186 h 546 546 v 415.6255 415.6255 l -14.6908,20.1245 c -8.08,11.0685 -18.7675,25.7538 -23.75,32.634 -8.3145,11.4812 -11.8267,15.3359 -21.478,23.5728 -1.8803,1.6047 -5.9907,5.1831 -9.1342,7.9518 -12.6226,11.1179 -49.353,38.6207 -65.447,49.0051 -3.3,2.1292 -9.6,6.2124 -14,9.0737 -13.4988,8.7783 -38.2222,22.7104 -58.0846,32.7318 -18.4761,9.322 -35.8787,17.6553 -36.87,17.6553 -0.2724,0 -3.3191,1.2884 -6.7704,2.8632 -3.4512,1.5747 -7.4,3.2084 -8.775,3.6304 -1.375,0.422 -4.525,1.661 -7,2.7532 -2.475,1.0923 -5.918,2.6086 -7.6511,3.3696 -1.7332,0.761 -3.4651,1.3836 -3.8489,1.3836 -0.3838,0 -2.1157,0.6484 -3.8489,1.4408 -1.7331,0.7925 -6.5261,2.5625 -10.6511,3.9333 -4.125,1.3709 -11.325,3.8294 -16,5.4635 -7.9265,2.7705 -16.9983,5.617 -26.5,8.315 -2.2,0.6246 -5.8,1.6974 -8,2.3838 -8.1552,2.5446 -42.1399,10.5755 -57,13.4697 -3.3,0.6427 -7.125,1.3937 -8.5,1.6688 -8.1824,1.6371 -21.6837,3.7866 -33.5,5.3334 -26.393,3.4549 -25.9307,3.406 -48.5,5.1401 -17.3847,1.3358 -81.2415,1.8913 -96,0.8352 z m 80.5,-48.8355 c 26.5151,-1.3864 44.3493,-3.1763 61.5602,-6.1783 3.0581,-0.5334 6.8309,-0.9698 8.384,-0.9698 1.5531,0 4.451,-0.4146 6.4398,-0.9214 1.9888,-0.5067 6.766,-1.4266 10.616,-2.0441 3.85,-0.6175 8.575,-1.5188 10.5,-2.0028 1.925,-0.484 8.225,-1.8484 14,-3.0321 5.775,-1.1837 11.85,-2.5531 13.5,-3.0432 1.65,-0.4901 7.05,-1.8497 12,-3.0214 4.95,-1.1717 11.475,-2.9261 14.5,-3.8987 3.025,-0.9726 7.525,-2.3269 10,-3.0095 15.8113,-4.3607 61.1072,-20.7523 78,-28.2265 10.1316,-4.4828 24.9794,-11.5042 32.5,-15.3691 4.4,-2.2613 12.275,-6.2953 17.5,-8.9646 5.225,-2.6693 11.075,-5.827 13,-7.0173 1.925,-1.1902 8,-4.7972 13.5,-8.0156 42.9341,-25.1232 86.8686,-58.7984 125.75,-96.3855 L 2229,2016.7891 V 1752.8946 1489 h -497 -497 v 263.0979 263.0979 l 10.3443,10.1521 c 48.0461,47.1535 96.9678,83.4477 156.1557,115.8492 13.1191,7.1819 56.3892,27.8029 58.3402,27.8029 0.432,0 3.1175,1.125 5.9677,2.5 2.8503,1.375 5.6406,2.5 6.2008,2.5 0.5601,0 1.7998,0.4517 2.7549,1.0038 2.0319,1.1746 18.0905,7.2668 26.7364,10.1431 3.3,1.0978 6.9,2.3568 8,2.7976 1.1,0.4409 6.725,2.256 12.5,4.0337 5.775,1.7776 11.175,3.4616 12,3.7422 0.825,0.2805 2.85,0.8599 4.5,1.2874 1.65,0.4275 5.7,1.528 9,2.4457 3.3,0.9176 9.6,2.5531 14,3.6343 4.4,1.0812 9.5799,2.3896 11.5108,2.9075 9.41,2.5239 41.3478,8.5878 52.6401,9.9945 3.9329,0.49 9.7829,1.357 13,1.9266 3.217,0.5697 10.5741,1.5089 16.3491,2.087 5.775,0.5781 15,1.502 20.5,2.0531 9.8548,0.9875 58.3105,2.5994 70,2.3286 3.3,-0.076 15.45,-0.6331 27,-1.237 z M 2229,1337.5 V 1235 h -497 -497 v 102.5 102.5 h 497 497 z"
         id="path297" />
      <path
         style="fill:#000000;fill-opacity:1"
         d="m 1702,2272.3878 c -0.825,-0.1771 -11.7801,-1.0127 -24.3446,-1.8568 -33.9192,-2.2789 -58.7486,-5.6676 -96.6554,-13.1918 -4.125,-0.8188 -9.6474,-1.8795 -12.2719,-2.3572 -2.6246,-0.4776 -6.2246,-1.336 -8,-1.9075 -3.2872,-1.058 -16.9839,-4.5012 -24.2281,-6.0905 -2.2,-0.4827 -6.7,-1.7497 -10,-2.8156 -3.3,-1.066 -8.7,-2.7333 -12,-3.7053 -26.8141,-7.8979 -65.2683,-22.4346 -92,-34.7783 -10.116,-4.6712 -46.4903,-22.9936 -53.7057,-27.0525 -37.1595,-20.9034 -74.7402,-46.639 -107.1521,-73.3785 -24.6277,-20.3177 -28.4596,-24.2945 -37.8943,-39.3282 -4.634,-7.3841 -15.023,-23.8863 -23.0867,-36.6717 L 1186,2006.0079 V 1596.0039 1186 h 546 546 v 415.5716 415.5715 l -14.3217,19.6785 c -7.877,10.8231 -18.5645,25.4946 -23.75,32.6032 -10.2618,14.0674 -19.692,23.0299 -47.4283,45.0757 -48.0313,38.1771 -106.459,73.1678 -162,97.0173 -11.9647,5.1377 -36.5425,14.8406 -43.0877,17.0102 -4.3518,1.4426 -12.1873,4.1207 -17.4123,5.9514 -5.225,1.8307 -12.875,4.3341 -17,5.563 -4.125,1.229 -9.975,3.0081 -13,3.9537 -3.025,0.9456 -13.15,3.6002 -22.5,5.8992 -9.35,2.299 -18.575,4.5721 -20.5,5.0513 -4.4477,1.1072 -11.7097,2.5736 -20,4.0385 -3.575,0.6317 -8.3,1.5384 -10.5,2.0149 -5.604,1.2138 -14.6164,2.7095 -24,3.9832 -4.4,0.5973 -10.925,1.5246 -14.5,2.0608 -19.8611,2.9789 -68.8012,5.794 -99.5,5.7234 -13.75,-0.032 -25.675,-0.2024 -26.5,-0.3796 z m 67.9393,-48.8782 c 29.5847,-1.7251 38.0731,-2.5671 67.0607,-6.652 16.8908,-2.3802 42.8427,-7.32 57,-10.8495 20.2523,-5.0491 28.4917,-7.1903 32.3179,-8.3989 2.3002,-0.7264 6.2071,-1.8996 8.6821,-2.6071 19.6212,-5.6082 63.5914,-21.8301 83,-30.6211 25.4648,-11.5341 66.0133,-33.0839 82.5,-43.8452 2.75,-1.795 7.7,-4.9759 11,-7.0687 34.3436,-21.7795 85.0708,-63.0142 111.2441,-90.4272 l 6.2442,-6.5399 0.01,-263.75 0.01,-263.75 h -497 -497 v 263.4157 263.4157 l 16.75,15.9532 c 46.4689,44.2584 91.2339,77.2672 145.75,107.4728 21.7915,12.074 68.4013,33.3123 90.5845,41.2759 13.7987,4.9537 32.3711,11.1982 41.4155,13.9251 14.7616,4.4506 17.5225,5.2254 28.5,7.9985 5.775,1.4588 12.975,3.2857 16,4.0597 9.8484,2.5198 38.4571,7.9232 50,9.4435 3.575,0.4708 9.65,1.3439 13.5,1.94 21.2954,3.2975 49.2409,5.3544 87,6.4035 5.5,0.1528 12.2227,0.372 14.9393,0.4871 2.7166,0.1151 16.4416,-0.4614 30.5,-1.2811 z M 2229,1337.5 V 1235 h -497 -497 v 102.5 102.5 h 497 497 z"
         id="path295" />
      <path
         style="fill:#000000;fill-opacity:1"
         d="m 1698.5,2271.8745 c -3.3,-0.4182 -14.1,-1.2475 -24,-1.8428 -16.9774,-1.0208 -23.6217,-1.7444 -51.5,-5.6088 -14.5519,-2.0171 -35.6358,-5.831 -54.5,-9.8586 -6.5272,-1.3936 -14.245,-3.3106 -34,-8.4452 -14.4253,-3.7493 -49.2542,-15.1243 -64.4435,-21.0469 -5.7439,-2.2397 -10.7941,-4.0722 -11.2226,-4.0722 -0.4286,0 -3.379,-1.1716 -6.5566,-2.6035 -3.1775,-1.4319 -6.6773,-2.9812 -7.7773,-3.443 -1.1,-0.4617 -4.6008,-1.9901 -7.7796,-3.3965 -3.1788,-1.4063 -5.9585,-2.557 -6.177,-2.557 -0.8768,0 -17.0186,-7.6731 -33.7535,-16.045 -17.7199,-8.8646 -36.6533,-19.2719 -46.5593,-25.5927 -2.8982,-1.8493 -5.5216,-3.3623 -5.8298,-3.3623 -0.3081,0 -8.2869,-5.0463 -17.7305,-11.214 -29.5109,-19.2738 -58.5605,-41.3329 -82.9369,-62.9788 -10.3587,-9.1984 -11.5238,-10.6458 -22.1445,-27.5082 -6.1658,-9.7895 -16.6957,-26.5068 -23.3997,-37.1497 L 1186,2005.7986 V 1595.8993 1186 h 546 546 v 415.5704 415.5704 l -5.9929,8.1796 c -3.2961,4.4988 -14.0381,19.2046 -23.871,32.6796 -16.0446,21.9874 -18.9938,25.478 -28.7571,34.0366 -44.6638,39.1525 -94.9114,73.0201 -148.8811,100.3479 -9.9011,5.0135 -20.0261,9.9847 -22.5,11.0471 -3.9976,1.7168 -9.1675,4.0353 -23.737,10.6452 -2.3315,1.0578 -4.829,1.9232 -5.55,1.9232 -0.721,0 -1.7384,0.3935 -2.2609,0.8744 -0.5225,0.4808 -4.775,2.3217 -9.45,4.0908 -4.675,1.7691 -9.85,3.8091 -11.5,4.5333 -4.3845,1.9244 -37.2924,12.9365 -49.5,16.5644 -14.1731,4.2121 -22.5102,6.4189 -37.5,9.9262 -4.95,1.1582 -10.575,2.5148 -12.5,3.0145 -3.8676,1.004 -10.136,2.2538 -20,3.9876 -3.575,0.6283 -8.3,1.5323 -10.5,2.0088 -5.4053,1.1707 -14.4366,2.6817 -23.5,3.9317 -4.125,0.5689 -10.65,1.4852 -14.5,2.0363 -3.85,0.551 -13.2544,1.4734 -20.8987,2.0498 -7.6442,0.5764 -14.1692,1.2109 -14.5,1.41 -2.2098,1.3308 -84.4832,2.6024 -93.6013,1.4467 z m 86,-48.8738 c 36.7167,-3.4852 38.7169,-3.726 63.5,-7.644 38.9809,-6.1627 76.6571,-15.8417 119.5,-30.6995 6.7143,-2.3286 28.8389,-10.809 33,-12.649 1.1,-0.4865 5.6,-2.4237 10,-4.305 45.4866,-19.4487 86.86,-43.0393 131.8922,-75.2032 10.5451,-7.5318 38.0018,-29.5391 40.6078,-32.5484 0.275,-0.3176 4.55,-4.002 9.5,-8.1877 4.95,-4.1856 15.1981,-13.6073 22.7736,-20.9371 l 13.7735,-13.3268 -0.023,-264.25 L 2229,1489 h -497 -497 v 263.2936 263.2936 l 13.25,12.9868 c 23.7198,23.2485 41.0387,38.1148 68.25,58.585 14.4934,10.9029 49.4872,34.841 50.9322,34.841 0.3243,0 4.0723,2.1763 8.3287,4.8361 36.7842,22.9865 105.9384,54.1322 144.7391,65.1879 1.65,0.4701 6.825,2.0252 11.5,3.4557 4.675,1.4305 12.775,3.7119 18,5.0698 5.225,1.3579 11.075,2.8791 13,3.3803 10.4386,2.7179 16.3371,4.0894 24,5.5805 4.675,0.9096 10.3,2.0596 12.5,2.5555 2.2,0.4959 8.5,1.5934 14,2.4388 5.5,0.8454 14.05,2.1899 19,2.9877 4.95,0.7979 11.475,1.6784 14.5,1.9568 3.025,0.2784 11.8,1.2035 19.5,2.0559 28.3903,3.1427 92.1368,3.9507 118,1.4957 z M 2229,1337.5 V 1235 h -497 -497 v 102.5 102.5 h 497 497 z"
         id="path293" />
      <path
         style="fill:#000000;fill-opacity:1"
         d="m 1702,2271.8111 c -4.675,-0.3789 -15.925,-1.1487 -25,-1.7106 -17.2039,-1.0652 -37.1445,-3.1796 -52.5,-5.5669 -4.95,-0.7695 -13.725,-2.1272 -19.5,-3.0171 -5.775,-0.8898 -13.2,-2.2169 -16.5,-2.949 -3.3,-0.7322 -8.7,-1.8715 -12,-2.5317 -3.3,-0.6603 -8.025,-1.6717 -10.5,-2.2475 -2.475,-0.5759 -6.075,-1.3873 -8,-1.8031 -1.925,-0.4159 -8.9,-2.2048 -15.5,-3.9754 -6.6,-1.7707 -13.35,-3.5794 -15,-4.0194 -1.65,-0.44 -7.5,-2.2247 -13,-3.9659 -5.5,-1.7412 -11.35,-3.5466 -13,-4.0122 -4.1029,-1.1575 -7.565,-2.3481 -17.5,-6.018 -4.675,-1.7269 -10.525,-3.8279 -13,-4.6689 -2.475,-0.841 -12.15,-4.6911 -21.5,-8.5559 -78.293,-32.362 -145.0649,-73.7554 -207.5,-128.6341 -8.2385,-7.2414 -9.2306,-8.6252 -32.25,-44.9842 L 1186,2005.6383 V 1595.8191 1186 h 546 546 v 415.4574 415.4573 l -23.9213,32.7927 c -23.3627,32.0269 -24.2058,33.0378 -36.1062,43.2926 -28.2788,24.3685 -54.5685,44.0171 -84.9725,63.5075 -12.7572,8.1779 -13.9876,8.9464 -18.1862,11.3596 -1.8226,1.0476 -8.4888,4.9371 -14.8138,8.6435 -28.0039,16.4098 -83.5121,41.5851 -119,53.9716 -9.5808,3.344 -42.2873,13.6133 -49.5,15.5422 -11.2032,2.9961 -15.0524,3.958 -23.5,5.873 -5.225,1.1845 -11.075,2.5724 -13,3.0842 -3.2814,0.8725 -6.3677,1.5111 -20,4.1383 -16.5349,3.1867 -24.8395,4.5858 -35,5.8968 -4.675,0.6032 -11.425,1.5224 -15,2.0427 -25.3348,3.6873 -100.3684,6.586 -123,4.7517 z m 85.5,-48.75 c 23.2178,-2.2937 54.3983,-6.1652 65,-8.0708 22.4636,-4.0376 29.7739,-5.5984 52,-11.1022 33.509,-8.2979 85.581,-26.2194 113,-38.8911 19.7989,-9.15 48.3285,-23.6346 60.5,-30.7161 1.925,-1.1199 6.2,-3.5832 9.5,-5.4738 8.034,-4.6028 19.2843,-11.6684 23.0944,-14.5041 1.7019,-1.2666 3.3739,-2.303 3.7154,-2.303 1.3403,0 30.9832,-21.3383 49.1896,-35.4091 10.9568,-8.4678 33.776,-28.4885 48.7506,-42.7717 L 2229,2017.8425 V 1753.4212 1489 h -497 -497 v 263.2634 263.2634 l 13.75,13.5685 c 24.0523,23.7347 41.8461,39.0522 68.0722,58.599 64.9905,48.4383 138.7302,85.323 217.1778,108.6325 12.3241,3.6619 39.3881,10.4688 52,13.0785 4.675,0.9674 10.3,2.1827 12.5,2.7007 5.2744,1.2418 33.7382,5.6915 44.5,6.9565 4.675,0.5496 11.65,1.4588 15.5,2.0205 3.85,0.5616 16.225,1.4693 27.5,2.0171 11.275,0.5477 20.95,1.1565 21.5,1.3528 2.3718,0.8465 69.0926,-0.3142 80,-1.3918 z M 2229,1337.5 V 1235 h -497 -497 v 102.5 102.5 h 497 497 z"
         id="path291" />
      <path
         style="fill:#000000;fill-opacity:1"
         d="m 1695.5,2271.3783 c -41.315,-2.1476 -89.1234,-8.58 -125.5,-16.8855 -4.125,-0.9418 -9.075,-2.0636 -11,-2.4928 -23.713,-5.2876 -64.4644,-17.78 -88.2938,-27.0666 -5.5512,-2.1634 -10.4583,-3.9334 -10.9046,-3.9334 -0.4463,0 -3.1434,-1.125 -5.9937,-2.5 -2.8502,-1.375 -5.5357,-2.5 -5.9677,-2.5 -0.432,0 -3.1603,-1.0908 -6.0629,-2.4241 -2.9025,-1.3333 -8.8773,-3.9823 -13.2773,-5.8867 -44.6965,-19.3458 -97.5292,-50.2226 -139.1733,-81.3365 -9.8959,-7.3936 -36.0818,-28.2567 -39.9416,-31.8227 -0.6132,-0.5665 -3.3132,-3.0757 -6,-5.5761 -2.6868,-2.5004 -5.9591,-5.2858 -7.2717,-6.1898 -1.3127,-0.9041 -13.1195,-18.6583 -26.2375,-39.4539 L 1186.0251,2005.5 1186.0126,1595.75 1186,1186 h 546 546 v 415.5386 415.5386 l -6.8509,9.2114 c -3.7679,5.0663 -14.1625,19.3364 -23.0989,31.7114 -8.9364,12.375 -17.2713,23.4 -18.5219,24.5 -35.849,31.5318 -62.0602,51.659 -94.0283,72.2028 -35.4419,22.7762 -73.1432,42.771 -109,57.8079 -4.95,2.0758 -10.35,4.3483 -12,5.0498 -13.9653,5.938 -50.5825,19.044 -60,21.4751 -1.65,0.426 -8.4,2.3955 -15,4.3768 -11.0564,3.3191 -19.7249,5.5553 -41,10.5768 -4.4,1.0386 -10.25,2.3253 -13,2.8596 -2.75,0.5342 -7.475,1.4632 -10.5,2.0644 -17.3019,3.4387 -22.8416,4.2978 -45.0776,6.9913 -13.4323,1.627 -29.3724,3.4767 -35.4224,4.1104 -10.5326,1.1032 -84.4275,2.1208 -99,1.3634 z m 93.5,-48.3416 c 44.8834,-4.4263 70.0129,-8.2688 101,-15.4436 19.2996,-4.4688 24.1999,-5.7337 37.2475,-9.6152 87.322,-25.9772 164.2165,-65.003 231.2525,-117.366 22.2962,-17.416 38.4399,-31.578 59.25,-51.977 L 2229,2017.6071 V 1753.3036 1489 h -497 -497 v 263.5488 263.5488 l 9.808,9.7012 c 50.9328,50.3782 109.068,92.3533 171.192,123.6048 17.1852,8.6451 42.9045,20.5964 44.3235,20.5964 0.3395,0 3.2181,1.1507 6.3969,2.557 9.1023,4.027 9.0638,4.0116 23.2796,9.2957 17.045,6.3356 42.9817,14.6418 58,18.5742 51.0438,13.3656 92.7738,20.1773 144,23.5057 17.6851,1.1491 82.3164,0.5521 97,-0.8959 z M 2229,1337.5 V 1235 h -497 -497 v 102.5 102.5 h 497 497 z"
         id="path289" />
      <path
         style="fill:#000000;fill-opacity:1"
         d="m 1684,2270.5141 c -21.241,-1.4855 -43.3765,-3.7965 -57.5,-6.0033 -4.95,-0.7734 -11.25,-1.6918 -14,-2.0409 -20.8059,-2.6412 -69.2906,-13.8835 -97,-22.4918 -5.5,-1.7086 -11.35,-3.4809 -13,-3.9383 -1.65,-0.4574 -8.175,-2.7203 -14.5,-5.0286 -6.325,-2.3084 -12.625,-4.5723 -14,-5.031 -21.1132,-7.0434 -62.2663,-25.4901 -92.5,-41.4625 -30.2302,-15.9707 -63.0919,-36.7516 -91.4541,-57.8333 -15.5265,-11.5409 -44.6539,-35.5279 -50.4988,-41.5868 -2.1742,-2.2537 -4.4242,-4.1188 -5,-4.1448 -0.5759,-0.026 -11.7346,-17.0582 -24.7971,-37.8495 L 1186,2005.3011 V 1595.6505 1186 h 546 546 v 415.3478 415.3477 l -23.5445,32.3444 c -12.9495,17.7894 -25.437,33.9357 -27.75,35.8806 -2.313,1.9448 -4.4305,3.7717 -4.7055,4.0597 -2.0207,2.1162 -22.6852,19.3535 -32.5,27.1099 -21.8824,17.2932 -60.4869,43.714 -78,53.3831 -2.75,1.5183 -9.5,5.3483 -15,8.5111 -19.2131,11.0486 -45.6562,24.0547 -68.5,33.6919 -5.775,2.4363 -11.4,4.8122 -12.5,5.2797 -7.1251,3.0284 -26.2025,10.3261 -32.5,12.4323 -4.125,1.3795 -10.2,3.4855 -13.5,4.68 -15.1451,5.4819 -61.095,17.9338 -80.9248,21.9296 -22.3924,4.5123 -30.5684,6.0004 -41.0752,7.4762 -6.05,0.8498 -13.925,1.9613 -17.5,2.4701 -3.575,0.5088 -11.9,1.4233 -18.5,2.0322 -6.6,0.6089 -15.825,1.5635 -20.5,2.1215 -14.1582,1.6897 -84.8584,1.9648 -107,0.4163 z m 92.5,-46.5954 c 18.2296,-1.1436 37.2052,-2.8032 45,-3.9356 3.85,-0.5594 10.375,-1.4825 14.5,-2.0514 10.4391,-1.4397 17.1816,-2.6113 33.75,-5.8643 16.8994,-3.318 45.5204,-10.3477 61.25,-15.0436 25.6991,-7.6724 65.3376,-22.052 82.5,-29.9284 3.3,-1.5145 9.375,-4.2727 13.5,-6.1294 42.5402,-19.1472 93.4516,-50.3502 135.2374,-82.8854 12.619,-9.8254 43.499,-37.0855 56.0126,-49.4465 L 2229,2018.0152 V 1753.5076 1489 h -497 -497 v 263.8524 263.8525 l 13.2659,12.8975 c 29.5339,28.7139 65.8572,58.1799 97.1409,78.8022 15.9457,10.5115 25.5329,16.5954 26.1515,16.5954 0.2958,0 3.1037,1.6421 6.2397,3.649 3.1361,2.007 11.552,6.8475 18.702,10.7566 62.039,33.9186 129.8098,58.638 197.6374,72.0882 29.8051,5.9103 68.1479,10.8854 95.8626,12.4383 17.9747,1.0072 70.3608,0.9991 86.5,-0.013 z M 2229,1337.5 V 1235 h -497 -497 v 102.5 102.5 h 497 497 z"
         id="path287" />
      <path
         style="fill:#000000;fill-opacity:1"
         d="m 1703.9422,2271.6294 c -0.2432,-0.232 -9.4422,-0.9335 -20.4422,-1.5591 -31.4729,-1.7898 -62.1934,-5.8148 -100,-13.1019 -51.7493,-9.9745 -113.6794,-30.2135 -163,-53.269 -11.392,-5.3253 -43.9812,-21.7382 -51,-25.6851 -44.0425,-24.7664 -91.1789,-58.1976 -126.7043,-89.8641 -9.6809,-8.6293 -9.7611,-8.7399 -33.25,-45.8162 L 1186,2005.168 V 1595.584 1186 h 546 546 v 415.3174 415.3174 l -23.75,32.5268 -23.75,32.5267 -14.5074,12.4059 c -64.4843,55.1428 -130.7863,95.0491 -210.4926,126.6927 -12.2035,4.8448 -39.8172,14.4625 -55,19.1562 -30.3214,9.3738 -75.9007,19.6502 -104.5,23.5608 -6.325,0.8649 -14.2,1.9798 -17.5,2.4775 -3.3,0.4978 -11.4,1.3974 -18,1.9992 -6.6,0.6019 -16.725,1.5749 -22.5,2.1625 -10.2149,1.0392 -83.1738,2.3293 -84.0578,1.4863 z M 1798,2222.6146 c 9.075,-0.8543 19.65,-2.0033 23.5,-2.5533 3.85,-0.55 10.825,-1.5016 15.5,-2.1145 4.675,-0.613 10.3,-1.4967 12.5,-1.9638 2.2,-0.4672 6.7,-1.3275 10,-1.9118 3.3,-0.5844 9.6,-1.7553 14,-2.6021 6.9985,-1.3468 12.1866,-2.5278 33.5,-7.6256 28.271,-6.762 77.817,-23.8478 109,-37.5883 8.1294,-3.5822 47.9575,-23.282 52.5767,-26.0056 2.7656,-1.6307 7.0297,-4.0975 9.4758,-5.4819 15.7064,-8.8893 19.8802,-11.3434 23.4475,-13.7868 2.2,-1.5068 8.725,-5.7875 14.5,-9.5126 30.7436,-19.8309 65.5172,-47.6933 98.25,-78.7229 L 2229,2018.7629 V 1753.8815 1489 h -497 -497 v 263.8248 263.8248 l 13.75,13.4381 c 80.7696,78.9373 179.4657,136.0621 290.75,168.2844 14.8493,4.2997 33.2781,8.9075 44.5,11.1266 4.675,0.9245 11.2,2.2806 14.5,3.0135 19.5728,4.3471 64.0456,10.0384 89.5,11.4536 23.4668,1.3046 90.5415,0.4808 110,-1.3512 z M 2229,1337.5 V 1235 h -497 -497 v 102.5 102.5 h 497 497 z"
         id="path285" />
      <path
         style="fill:#000000;fill-opacity:1"
         d="m 1705.783,2271.4497 c -0.1917,-0.1917 -8.8838,-0.8147 -19.3158,-1.3843 -20.2769,-1.1071 -42.3507,-3.2551 -56.9672,-5.5432 -4.95,-0.7749 -11.025,-1.6534 -13.5,-1.9521 -2.475,-0.2988 -9.45,-1.4642 -15.5,-2.5899 -6.05,-1.1256 -13.25,-2.4586 -16,-2.9622 -29.4022,-5.3845 -78.0311,-19.1199 -108,-30.5049 -3.85,-1.4626 -8.1337,-3.0152 -9.5193,-3.4502 -3.2161,-1.0097 -36.8938,-15.13 -45.6396,-19.1357 -19.8301,-9.0823 -51.0126,-25.2925 -63.6703,-33.0988 -4.3061,-2.6556 -7.9829,-4.8284 -8.1708,-4.8284 -0.7726,0 -17.9405,-10.9288 -31.5,-20.0523 -26.5142,-17.8402 -55.296,-40.053 -74.2713,-57.3203 -4.2743,-3.8895 -8.4018,-7.4246 -9.1723,-7.8558 -0.7705,-0.4312 -2.4296,-2.4687 -3.6869,-4.5278 -1.2573,-2.0591 -11.8672,-18.9472 -23.5777,-37.5291 L 1186,2004.9293 V 1595.4647 1186 h 546 546 v 415.299 415.2989 l -23.7071,32.4511 c -13.0389,17.848 -24.6264,33.192 -25.75,34.0976 -1.1236,0.9057 -3.3929,2.8469 -5.0429,4.3139 -56.4088,50.152 -129.5844,96.4112 -197,124.5367 -5.5,2.2946 -11.418,4.8089 -13.1511,5.5874 -1.7332,0.7785 -3.4651,1.4154 -3.8489,1.4154 -0.3838,0 -2.1157,0.6424 -3.8489,1.4276 -7.0073,3.1746 -42.8715,15.8642 -50.6674,17.9273 -3.016,0.7982 -7.5087,2.1103 -9.9837,2.9159 -23.3795,7.6094 -74.2615,18.8282 -103,22.71 -42.308,5.7147 -62.2074,7.16 -103.6842,7.5302 -17.7013,0.158 -32.3411,0.1304 -32.5328,-0.061 z M 1767,2224.5824 c 18.7481,-0.8131 46.3486,-3.0779 56,-4.5953 3.575,-0.562 11,-1.6713 16.5,-2.465 5.5,-0.7938 12.7,-1.9299 16,-2.5247 3.3,-0.5948 8.475,-1.5162 11.5,-2.0476 9.3386,-1.6403 41.2407,-9.0439 51,-11.8358 1.925,-0.5507 5.075,-1.4396 7,-1.9753 27.4843,-7.6491 75.2677,-25.0443 94.1748,-34.2837 4.3388,-2.1202 8.1468,-3.855 8.4622,-3.855 2.8288,0 59.5055,-30.497 73.363,-39.4757 21.0712,-13.6527 39.5275,-26.5258 56.5254,-39.426 13.0398,-9.8963 41.9323,-34.914 56.4746,-48.901 l 15.5,-14.908 0.2592,-264.6446 L 2230.0184,1489 H 1732.5092 1235 v 263.7639 263.7639 l 13.25,13.0598 c 19.0625,18.7889 35.7443,33.4456 59.75,52.4967 20.637,16.3777 55.7335,39.2965 89,58.119 31.2753,17.6959 88.9295,42.2555 124,52.8217 4.125,1.2428 10.875,3.3073 15,4.5877 8.5739,2.6614 40.5418,10.6686 49.5,12.3985 3.3,0.6373 8.925,1.7959 12.5,2.5748 22.805,4.9684 63.6221,9.9582 93.9693,11.4877 11.2582,0.5674 20.5585,1.1204 20.6674,1.229 0.4548,0.4531 39.1177,-0.059 54.3633,-0.7203 z M 2229,1337.5 V 1235 h -497 -497 v 102.5 102.5 h 497 497 z"
         id="path283" />
      <path
         style="fill:#000000;fill-opacity:1"
         d="m 1723,2271.349 c -27.2641,-0.8626 -56.6826,-2.5796 -66,-3.8518 -5.775,-0.7886 -12.525,-1.4451 -15,-1.4589 -2.475,-0.014 -8.325,-0.6823 -13,-1.4857 -4.675,-0.8034 -13.225,-2.1884 -19,-3.0778 -5.775,-0.8894 -13.425,-2.2115 -17,-2.9379 -3.575,-0.7265 -10.325,-2.1016 -15,-3.0559 -23.492,-4.7953 -60.8021,-14.8638 -82,-22.1285 -32.6013,-11.1729 -80.6479,-31.2299 -100,-41.7448 -1.375,-0.7471 -7.8857,-4.1773 -14.4682,-7.6227 -39.1619,-20.4978 -78.3104,-46.5883 -116.5318,-77.6628 -31.2794,-25.4305 -30.4039,-24.4916 -46.1788,-49.5252 -7.7278,-12.2633 -18.2739,-28.9682 -23.4358,-37.1219 L 1186,2004.8503 V 1595.4251 1186 h 546 546 l -0.024,415.25 -0.024,415.25 -22.9542,31.5 c -22.3571,30.6807 -24.8008,33.5971 -36.0299,43 -2.9556,2.475 -8.545,7.2234 -12.4209,10.552 -17.7609,15.2534 -53.1874,41.468 -71.1286,52.6333 -4.6971,2.9231 -11.3253,7.0469 -14.7292,9.1641 -3.404,2.1171 -7.9891,4.8733 -10.1891,6.1247 -14.5868,8.2975 -18.6227,10.5763 -23.6685,13.3638 -6.6951,3.6987 -39.4942,20.1621 -40.1679,20.1621 -0.2557,0 -4.2222,1.7427 -8.8143,3.8727 -21.656,10.0447 -66.1176,26.6142 -88.8493,33.1114 -2.475,0.7075 -5.85,1.6719 -7.5,2.1432 -1.65,0.4714 -5.025,1.4915 -7.5,2.267 -3.9427,1.2353 -10.3471,2.8447 -36.5,9.1725 -15.7729,3.8164 -47.1912,9.2627 -71.5,12.3944 -29.2971,3.7744 -76.2947,6.2328 -103,5.3878 z m 60,-47.2855 c 17.9186,-1.3642 32.4719,-2.8001 41,-4.0453 3.575,-0.522 10.1,-1.4478 14.5,-2.0574 4.4,-0.6096 10.025,-1.4911 12.5,-1.9589 2.475,-0.4678 7.425,-1.3714 11,-2.008 10.2721,-1.8291 25.0352,-5.0019 37,-7.9518 10.0595,-2.4802 29.2918,-7.6022 35,-9.3213 10.556,-3.179 50.16,-16.8486 54.5,-18.811 2.2,-0.9947 8.5,-3.5876 14,-5.762 16.8576,-6.6644 51.1603,-23.1446 69.0853,-33.191 26.3127,-14.7475 60.0311,-36.5934 77.9147,-50.4804 27.704,-21.5128 45.2386,-36.5337 65,-55.6816 l 15,-14.5344 0.2556,-264.6302 0.2555,-264.6302 h -498.0017 -498.0016 l 0.2461,263.8015 0.2461,263.8016 14,13.5531 c 26.3644,25.5228 44.4771,40.9537 71.5361,60.944 14.0585,10.3861 48.9981,33.8998 50.3725,33.8998 0.3125,0 4.5108,2.4261 9.3297,5.3913 12.3825,7.6193 25.2085,14.4823 44.2617,23.6838 9.075,4.3826 17.2362,8.3804 18.136,8.884 0.8998,0.5035 10.3498,4.5013 21,8.884 27.1153,11.1582 43.3048,16.9243 71.614,25.5063 14.0851,4.2699 36.1566,9.9339 47.25,12.1253 4.675,0.9235 11.425,2.3199 15,3.1032 6.6349,1.4537 16.3228,3.0554 35,5.7865 21.1536,3.0931 26.7902,3.6992 43.9742,4.7282 9.6392,0.5771 20.6758,1.3765 24.5258,1.7763 10.0152,1.0401 65.3559,0.4998 82.5,-0.8054 z m 445.7547,-886.8095 0.2546,-103.2461 -497.0046,-0.01 -497.0047,-0.01 v 102.8353 c 0,56.5594 0.2995,103.1348 0.6656,103.5009 0.3661,0.3661 223.9036,0.5536 496.75,0.4167 l 496.0844,-0.249 0.2547,-103.246 z"
         id="path281" />
      <path
         style="fill:#000000;fill-opacity:1"
         d="m 1687.6237,2269.9661 c -26.9987,-1.3107 -68.7636,-6.4284 -93.6237,-11.4721 -3.575,-0.7253 -10.325,-2.085 -15,-3.0214 -8.899,-1.7826 -39.3323,-8.9977 -44.5,-10.5501 -1.65,-0.4956 -7.725,-2.3108 -13.5,-4.0336 -23.8775,-7.1234 -24.8962,-7.4679 -56,-18.938 -8.1337,-2.9994 -12.6167,-4.8446 -20.7796,-8.5526 -2.9038,-1.3191 -5.531,-2.3983 -5.8383,-2.3983 -0.3072,0 -3.4753,-1.35 -7.0401,-3 -3.5649,-1.65 -6.6238,-3 -6.7977,-3 -2.0431,0 -51.4484,-25.2669 -63.5443,-32.4979 -30.46,-18.2091 -46.3922,-28.6477 -68.5,-44.8804 -16.446,-12.0755 -41.6312,-32.5857 -50.9158,-41.4645 -3.2537,-3.1115 -6.3203,-5.6572 -6.8148,-5.6572 -0.4944,0 -11.6698,-17.0805 -24.8342,-37.9568 L 1186,2004.5865 V 1595.2932 1186 h 546 546 v 415.1129 415.1129 l -23.431,32.1371 -23.431,32.1371 -15.1283,12.864 c -22.2924,18.9558 -39.6644,32.4506 -61.6012,47.8528 -21.0271,14.7635 -54.8722,35.0053 -80.9085,48.3891 -13.6464,7.0149 -20.9012,10.4582 -44,20.8836 -1.65,0.7448 -9.975,4.1171 -18.5,7.4942 -8.525,3.3771 -16.4,6.5373 -17.5,7.0227 -4.4529,1.9649 -32.8506,11.4224 -45.5,15.1532 -22.0454,6.502 -52.6249,14.0229 -70.5,17.3393 -4.95,0.9183 -12.3518,2.3292 -16.4486,3.1351 -19.0605,3.75 -56.3677,7.9769 -82.5048,9.3478 -21.1182,1.1077 -67.9497,1.0997 -90.9229,-0.016 z m 88.8763,-45.4545 c 23.7816,-1.4995 35.9462,-2.6229 48.5,-4.4788 3.575,-0.5285 10.1,-1.4603 14.5,-2.0706 4.4,-0.6103 10.025,-1.4925 12.5,-1.9603 2.475,-0.4678 7.425,-1.3714 11,-2.008 60.6373,-10.7971 128.0696,-33.7112 187.1763,-63.6041 13.6461,-6.9014 47.1318,-25.8204 53.7997,-30.3961 1.3882,-0.9527 5.899,-3.8904 10.024,-6.5284 13.1326,-8.3983 34.043,-23.4957 48.9492,-35.3417 30.0953,-23.9167 63.8353,-54.9991 66.149,-60.9387 0.5276,-1.3544 0.9018,-111.4244 0.9018,-265.25 V 1489 h -498.0074 -498.0074 l 0.2574,264.0432 0.2574,264.0432 11,10.7627 c 53.5657,52.4098 112.9712,94.4357 179,126.6321 24.0798,11.7415 32.3237,15.5188 33.8698,15.5188 0.6766,0 1.6577,0.3779 2.1802,0.8397 0.5225,0.4619 2.525,1.4294 4.45,2.15 1.925,0.7207 4.85,1.8962 6.5,2.6123 6.058,2.6291 18.231,7.2582 25.5285,9.7079 4.1229,1.384 8.6156,2.9789 9.9838,3.5441 1.3682,0.5652 6.0877,2.12 10.4877,3.4551 4.4,1.335 11.825,3.6001 16.5,5.0335 9.2982,2.851 39.9509,10.6574 49.5,12.6063 3.3,0.6736 8.925,1.8529 12.5,2.6208 24.0711,5.1703 59.3536,9.7013 89.5,11.4935 10.45,0.6212 19.1243,1.2479 19.2762,1.3927 1.0185,0.9704 52.0015,0.2992 71.7238,-0.9443 z M 2229,1337.5 V 1234 h -497 -497 v 103.5 103.5 h 497 497 z"
         id="path279" />
      <path
         style="fill:#000000;fill-opacity:1"
         d="m 1687.5,2269.9099 c -8.8,-0.4336 -21.625,-1.468 -28.5,-2.2988 -6.875,-0.8307 -15.425,-1.7868 -19,-2.1246 -3.575,-0.3378 -8.975,-1.0055 -12,-1.4838 -3.025,-0.4783 -10.225,-1.6128 -16,-2.5212 -5.775,-0.9084 -13.425,-2.2489 -17,-2.9789 -3.575,-0.7301 -10.325,-2.0941 -15,-3.0312 -13.1753,-2.6411 -48.4691,-11.4133 -58.75,-14.6022 -21.2915,-6.6043 -28.3366,-8.9159 -39.25,-12.879 -6.325,-2.2968 -12.625,-4.5393 -14,-4.9833 -5.0933,-1.6448 -41.1396,-16.9875 -51.1476,-21.7704 -5.6938,-2.7211 -12.1524,-5.783 -14.3524,-6.8043 -7.6673,-3.5592 -36.046,-18.7318 -42.3091,-22.6206 -3.47,-2.1544 -8.42,-5.0828 -11,-6.5075 -8.8822,-4.9046 -38.7203,-24.7536 -53.6909,-35.7165 -18.7793,-13.752 -39.2354,-30.2077 -51.174,-41.1665 -5.0457,-4.6316 -9.5457,-8.427 -10,-8.4341 -0.4543,-0.01 -3.976,-5.0624 -7.826,-11.2337 -3.85,-6.1714 -14.5345,-23.153 -23.7433,-37.737 l -16.7434,-26.5163 -0.01,-409.25 -0.01,-409.25 h 546 546 v 415.0374 415.0375 l -23.0779,31.7125 c -22.6428,31.1147 -23.3168,31.9196 -35.75,42.6919 -54.4232,47.1531 -116.2699,86.9817 -177.6721,114.4188 -6.6,2.9492 -14.3758,6.4286 -17.2796,7.732 -2.9038,1.3035 -5.56,2.3699 -5.9026,2.3699 -0.3425,0 -6.0667,2.2121 -12.7203,4.9159 -17.6413,7.1686 -47.3336,17.2328 -68.3475,23.1664 -1.7875,0.5047 -4.7125,1.3319 -6.5,1.8381 -9.0002,2.5489 -38.2083,9.5892 -45.75,11.0276 -3.025,0.5769 -10,1.908 -15.5,2.9579 -5.5,1.0499 -13.6,2.4291 -18,3.0648 -4.4,0.6357 -10.7,1.5619 -14,2.0582 -7.2834,1.0954 -19.5792,2.5895 -33,4.0099 -25.3891,2.6873 -82.0444,3.5933 -117,1.8711 z m 91.5,-45.2089 c 1.375,-0.2423 7.675,-0.7398 14,-1.1055 10.7798,-0.6234 17.1601,-1.3186 33,-3.5955 3.575,-0.5139 10.1,-1.4296 14.5,-2.0349 20.9204,-2.8779 59.7859,-11.2969 83.5,-18.0877 13.4698,-3.8573 13.6504,-3.9136 32,-9.9833 15.8272,-5.2352 24.7687,-8.4666 35,-12.6483 1.375,-0.562 6.775,-2.7298 12,-4.8174 20.6071,-8.2332 56.9079,-26.245 80.349,-39.8677 50.1611,-29.151 90.5417,-60.1285 139.151,-106.7481 l 7,-6.7135 0.2574,-265.0495 L 2230.0147,1489 H 1732 1233.9852 l 0.2574,263.9764 0.2574,263.9765 8,8.1202 c 9.8738,10.0221 32.6345,30.7108 46,41.8123 5.5,4.5684 10.9,9.0581 12,9.9773 9.0843,7.5906 46.6921,34.2126 59.0759,41.8191 13.3739,8.2146 34.2613,20.3677 43.4241,25.2657 11.1638,5.9676 14.9887,7.8641 35,17.3539 23.6963,11.2372 62.8122,26.1899 89.5,34.2127 4.95,1.4881 10.125,3.0927 11.5,3.5658 3.456,1.1891 36.1616,9.3558 43.5,10.8621 3.3,0.6773 8.925,1.8598 12.5,2.6277 22.5952,4.8533 57.233,9.4515 86,11.4165 8.525,0.5823 17.3,1.2222 19.5,1.422 5.3366,0.4846 75.3139,-0.1458 78.5,-0.7072 z M 2229,1337.5 V 1234 h -497 -497 v 103.5 103.5 h 497 497 z"
         id="path277" />
      <path
         style="fill:#000000;fill-opacity:1"
         d="m 1683.9172,2269.4369 c -11.3205,-0.6625 -21.8955,-1.4736 -23.5,-1.8025 -1.6044,-0.3289 -7.8672,-1.0695 -13.9172,-1.6458 -6.05,-0.5762 -13.475,-1.4564 -16.5,-1.9558 -3.025,-0.4994 -10.45,-1.6494 -16.5,-2.5555 -15.4515,-2.3143 -42.4558,-7.6371 -56,-11.038 -11.9382,-2.9977 -33.235,-8.7 -36.6615,-9.8163 -2.3862,-0.7774 -9.0635,-2.8499 -14.8385,-4.6056 -11.1595,-3.3928 -21.5829,-6.9975 -29.0743,-10.055 -2.5159,-1.0267 -6.7909,-2.6147 -9.5,-3.5288 -25.2162,-8.508 -80.9514,-35.2377 -112.4824,-53.9448 -26.3928,-15.6586 -64.7956,-41.8501 -80.536,-54.927 -3.351,-2.784 -9.1659,-7.5368 -12.9219,-10.5618 -3.756,-3.025 -11.1393,-9.4319 -16.4073,-14.2375 -5.2679,-4.8056 -10.0281,-8.7565 -10.5781,-8.7798 -0.55,-0.023 -2.8507,-3.0664 -5.1127,-6.7625 -2.2621,-3.6961 -12.9496,-20.7638 -23.75,-37.9283 L 1186,2004.0839 V 1595.0419 1186 h 546 546 v 415.0036 415.0036 l -23.0817,31.7464 c -22.7713,31.3194 -23.2521,31.8929 -35.75,42.6412 -36.7421,31.5985 -80.392,62.9091 -111.6683,80.1012 -3.85,2.1163 -8.125,4.6058 -9.5,5.5323 -6.3672,4.2904 -59.4202,30.9717 -61.5839,30.9717 -0.1963,0 -2.7327,1.081 -5.6365,2.4023 -2.9038,1.3212 -11.1296,4.7406 -18.2796,7.5987 -7.15,2.858 -14.35,5.7927 -16,6.5216 -10.5562,4.663 -61.72,20.5398 -81.75,25.3682 -18.5724,4.4769 -25.4435,6.055 -30.75,7.0622 -3.025,0.5742 -10,1.903 -15.5,2.9529 -5.5,1.0499 -13.6,2.4237 -18,3.0528 -4.4,0.6292 -10.475,1.5411 -13.5,2.0264 -38.6507,6.2011 -101.8311,8.4512 -153.0828,5.4518 z m 92.5828,-44.4448 c 19.8428,-1.3679 35.9457,-2.8296 43.5,-3.9486 3.575,-0.5296 10.325,-1.4353 15,-2.0128 19.2908,-2.3828 71.3854,-13.3936 87.723,-18.5412 2.6274,-0.8279 6.127,-1.8908 7.777,-2.3622 1.65,-0.4713 5.025,-1.4385 7.5,-2.1493 38.2186,-10.9764 98.769,-36.6236 134.2323,-56.8566 1.7972,-1.0254 7.9927,-4.5611 13.7677,-7.8572 40.9179,-23.3537 90.1431,-60.7747 129,-98.0657 l 14.5,-13.9157 0.2555,-265.1414 L 2230.0111,1489 H 1732 1233.9889 l 0.2555,263.9812 0.2556,263.9812 10,10.111 c 40.648,41.099 94.3829,81.4378 149.4576,112.1976 10.6264,5.935 46.3007,23.5807 55.0424,27.2258 3.575,1.4907 8.3878,3.5638 10.6951,4.6068 2.3074,1.043 4.4315,1.8964 4.7204,1.8964 0.2889,0 2.9011,1.0661 5.8049,2.3691 5.1065,2.2915 16.7833,6.7598 31.2796,11.9699 13.1292,4.7187 42.5852,13.5104 58,17.3112 3.3,0.8137 7.35,1.8876 9,2.3864 2.6032,0.7871 20.8417,4.6193 33,6.9339 28.8347,5.4893 68.9204,10.2629 95.5,11.3727 17.367,0.7252 67.0717,0.5057 79.5,-0.3511 z m 452.7407,-887.0756 c 0.1426,-56.6959 0.072,-103.2709 -0.1574,-103.5 -0.2291,-0.2291 -223.9916,-0.4165 -497.25,-0.4165 H 1235 v 103.5 103.5 h 496.9907 496.9907 z"
         id="path275" />
      <path
         style="fill:#000000;fill-opacity:1"
         d="m 1693,2269.8198 c -9.075,-0.4494 -22.35,-1.4787 -29.5,-2.2873 -7.15,-0.8086 -15.925,-1.7167 -19.5,-2.0179 -8.4335,-0.7105 -26.5129,-3.4144 -48,-7.1788 -16.4651,-2.8846 -37.9223,-7.7865 -61,-13.9356 -10.5068,-2.7995 -35.7894,-10.6175 -45.25,-13.9923 -3.7125,-1.3243 -10.0125,-3.5665 -14,-4.9825 -8.5837,-3.0483 -13.7995,-5.0658 -19.25,-7.4462 -2.2,-0.9608 -9.175,-3.8719 -15.5,-6.4692 -23.4927,-9.6471 -65.9398,-30.7887 -80.702,-40.1953 -2.861,-1.8231 -5.4146,-3.3147 -5.6746,-3.3147 -0.934,0 -25.2804,-15.4107 -39.0357,-24.7089 -23.2019,-15.6836 -54.1956,-39.6022 -69.0545,-53.2911 -3.8806,-3.575 -8.6936,-7.85 -10.6956,-9.5 -2.3518,-1.9382 -11.8153,-16.0096 -26.7388,-39.7583 L 1186,2003.9833 V 1594.9917 1186 h 546 546 v 415.0389 415.0388 l -10.8045,14.7112 c -5.9425,8.0911 -16.7065,22.8111 -23.9201,32.7111 -7.2136,9.9 -14.6141,19 -16.4455,20.2221 -1.8315,1.2222 -4.4577,3.2472 -5.8362,4.5 -1.3784,1.2529 -6.5103,5.6529 -11.4042,9.7779 -44.312,37.3498 -87.9735,66.4014 -138.5895,92.2149 -18.3052,9.3354 -51.9523,24.7851 -53.9783,24.7851 -0.5768,0 -1.8302,0.4328 -2.7853,0.9617 -2.8512,1.5792 -22.1333,9.0228 -30.2142,11.6638 -4.1372,1.3521 -8.4222,2.8537 -9.5222,3.3368 -7.9647,3.4984 -50.6407,15.8514 -69.5,20.1175 -2.475,0.5599 -6.075,1.3918 -8,1.8487 -3.7389,0.8873 -15.9742,3.3914 -25,5.1164 -3.025,0.5781 -7.525,1.4436 -10,1.9233 -2.475,0.4797 -8.1,1.3849 -12.5,2.0115 -4.4,0.6266 -10.7,1.5481 -14,2.0479 -3.3,0.4998 -8.25,1.1563 -11,1.4591 -2.75,0.3027 -6.8,0.7524 -9,0.9994 -2.2,0.2469 -10.0329,0.9305 -17.4064,1.5191 -7.3735,0.5885 -13.7466,1.2803 -14.1624,1.5373 -1.4159,0.8751 -74.3672,1.0975 -90.9312,0.2773 z m 74.5,-44.2806 c 20.54,-0.714 35.7001,-2.1872 72.5,-7.0456 14.093,-1.8606 37.9025,-6.3963 50,-9.5251 1.925,-0.4978 7.55,-1.8379 12.5,-2.978 18.3047,-4.2157 63.1159,-18.2483 80.5,-25.2086 10.5443,-4.2216 10.817,-4.3285 17.5,-6.8571 10.0972,-3.8203 28.383,-12.2902 50,-23.1598 59.1733,-29.7536 116.3572,-70.6075 164.2735,-117.3619 l 15.2736,-14.9031 -0.024,-264.75 L 2230,1489 h -498.0056 -498.0055 l 0.2555,264.25 0.2556,264.25 14,13.6271 c 55.8446,54.3574 116.0659,96.0359 187,129.4208 11.7227,5.5173 40.5232,17.867 45.5,19.5105 1.375,0.454 6.325,2.2164 11,3.9163 20.9279,7.6098 41.9419,14.3 58.5255,18.6325 15.3825,4.0187 14.165,3.74 43.4745,9.9532 4.125,0.8744 9.075,1.9828 11,2.463 1.925,0.4802 5.975,1.145 9,1.4774 3.025,0.3324 9.55,1.2485 14.5,2.0358 16.202,2.5771 31.729,4.3444 48,5.4636 8.8,0.6053 20.05,1.4154 25,1.8002 9.924,0.7714 39.6807,0.6537 66,-0.2612 z m 462,-888.0392 v -103 l -497.25,-0.251 -497.25,-0.251 v 103.502 103.502 l 497.25,-0.251 497.25,-0.251 z"
         id="path273" />
      <path
         style="fill:#000000;fill-opacity:1"
         d="m 1706,2269.9252 c -13.475,-0.4752 -29.225,-1.3587 -35,-1.9633 -5.775,-0.6045 -16.8,-1.7179 -24.5,-2.4741 -13.4411,-1.3201 -21.8409,-2.5127 -42.5,-6.034 -5.225,-0.8906 -11.75,-2.0013 -14.5,-2.4682 -2.75,-0.4669 -9.275,-1.8277 -14.5,-3.024 -5.225,-1.1963 -11.3,-2.5484 -13.5,-3.0047 -2.2,-0.4563 -6.7,-1.567 -10,-2.4682 -3.3,-0.9013 -7.575,-2.0022 -9.5,-2.4465 -12.7903,-2.9518 -45.2054,-13.0793 -63,-19.6831 -31.6878,-11.7598 -46.5367,-18.1416 -76.5,-32.8788 -29.6715,-14.5937 -51.8789,-27.2959 -80.5,-46.0446 -23.7698,-15.5707 -62.4206,-45.4105 -78.4393,-60.5579 -4.4334,-4.1922 -8.4575,-7.5672 -8.9426,-7.5 -0.485,0.067 -11.6225,-16.903 -24.75,-37.7116 L 1186,2003.8324 V 1594.9162 1186 h 546 546 v 415.0427 415.0427 l -4.2351,5.7073 c -2.3293,3.139 -12.8888,17.5831 -23.4655,32.0979 -10.5768,14.5148 -20.1152,26.8898 -21.1964,27.5 -1.0813,0.6102 -8.224,6.5094 -15.8727,13.1094 -34.4537,29.7297 -67.8994,53.5257 -108.2303,77.004 -16.4611,9.5826 -54.7792,29.3224 -65.5,33.7426 -3.6651,1.5111 -20.2576,8.6165 -25,10.7057 -13.829,6.0921 -47.0083,17.5253 -73.5,25.3272 -26.2573,7.7329 -46.5172,12.4536 -80,18.6408 -13.7744,2.5453 -35.8256,5.4526 -53.5,7.0536 -6.6,0.5978 -16.275,1.5107 -21.5,2.0285 -14.5554,1.4427 -52.762,1.8833 -80,0.9228 z m 77,-44.9945 c 6.875,-0.5439 17.225,-1.3875 23,-1.8747 10.855,-0.9156 37.0948,-4.4242 45,-6.0171 2.475,-0.4987 7.65,-1.4386 11.5,-2.0887 3.85,-0.65 8.3047,-1.5798 9.8992,-2.0661 1.5946,-0.4862 4.0376,-0.8841 5.429,-0.8841 1.3914,0 3.9118,-0.4195 5.6008,-0.9322 4.4029,-1.3366 9.8051,-2.7096 20.071,-5.1011 29.6733,-6.9128 82.3291,-24.7477 109,-36.9191 3.3,-1.506 8.925,-4.0213 12.5,-5.5895 3.575,-1.5683 15.05,-7.1987 25.5,-12.512 63.9237,-32.5022 120.5535,-73.5428 173,-125.3759 l 6,-5.9299 0.2555,-265.3201 L 2230.0111,1489 H 1732.0055 1234 v 264.2067 264.2067 l 11.2529,11.0433 c 59.041,57.9415 126.2107,103.8764 200.2471,136.9416 3.3,1.4738 6.7814,3.1121 7.7364,3.6406 0.9551,0.5286 2.1803,0.9611 2.7227,0.9611 0.5424,0 3.361,1.0938 6.2636,2.4306 13.9107,6.4071 39.8354,15.8523 63.2773,23.0539 4.95,1.5207 10.1429,3.1742 11.5397,3.6744 3.0756,1.1014 20.784,5.6729 26.7771,6.9127 2.3743,0.4911 4.6963,1.1275 5.16,1.4141 0.881,0.5444 16.7485,3.831 35.5232,7.3578 25.2065,4.7349 47.6034,7.729 69,9.224 8.8,0.6149 19.6,1.4587 24,1.8752 10.2892,0.9739 69.2159,0.2764 85.5,-1.012 z M 2229.5,1337.5 v -103 l -496.5,-0.2557 c -273.075,-0.1406 -496.95,-0.085 -497.5,0.1226 -0.6601,0.2497 -0.9119,35.4344 -0.7407,103.5067 l 0.2593,103.1284 497.2407,-0.251 497.2407,-0.251 z"
         id="path271" />
    </g>
  </g>
</svg>
