<?xml version="1.0" encoding="UTF-8" standalone="no"?>
<!-- Created with Inkscape (http://www.inkscape.org/) -->

<svg
   version="1.1"
   id="svg4708"
   width="3464"
   height="3464"
   viewBox="0 0 3464 3464"
   sodipodi:docname="130000000000.svg"
   inkscape:version="1.2.2 (732a01da63, 2022-12-09)"
   xmlns:inkscape="http://www.inkscape.org/namespaces/inkscape"
   xmlns:sodipodi="http://sodipodi.sourceforge.net/DTD/sodipodi-0.dtd"
   xmlns="http://www.w3.org/2000/svg"
   xmlns:svg="http://www.w3.org/2000/svg">
  <defs
     id="defs4712" />
  <sodipodi:namedview
     id="namedview4710"
     pagecolor="#ffffff"
     bordercolor="#000000"
     borderopacity="0.25"
     inkscape:showpageshadow="2"
     inkscape:pageopacity="0.0"
     inkscape:pagecheckerboard="0"
     inkscape:deskcolor="#d1d1d1"
     showgrid="false"
     inkscape:zoom="0.2289261"
     inkscape:cx="1729.8159"
     inkscape:cy="1736.3682"
     inkscape:window-width="1920"
     inkscape:window-height="986"
     inkscape:window-x="-11"
     inkscape:window-y="-11"
     inkscape:window-maximized="1"
     inkscape:current-layer="g4714" />
  <g
     inkscape:groupmode="layer"
     inkscape:label="Image"
     id="g4714">
    <path
       style="fill:#000000;stroke-width:1.98124"
       d="m 601.0033,2278.5928 0.47368,-73.7083 20.68823,-1.4527 c 28.24231,-1.9831 140.07663,-4.5134 322.91639,-7.3069 80.5856,-1.2313 142.2484,-2.0406 323.8158,-4.2502 52.4403,-0.6385 118.0129,-1.6595 145.7172,-2.2694 27.7044,-0.6096 91.6578,-1.61 142.1191,-2.2228 140.9249,-1.7114 236.9042,-3.0671 304.0272,-4.2942 33.6408,-0.6151 97.1898,-1.6357 141.2196,-2.2677 44.03,-0.6321 109.6026,-1.5956 145.7171,-2.1412 101.8435,-1.5382 225.8994,-3.2525 304.8458,-4.2123 66.2131,-0.805 72.0623,-1.1783 74.2079,-4.7376 1.2812,-2.1253 2.3321,-6.3768 2.3355,-9.4474 0,-3.0708 1.2147,-27.6762 2.692,-54.6784 2.9253,-53.4742 14.9784,-286.74 15.728,-304.3892 0.4335,-10.2061 0.1726,-10.9459 -4.034,-11.4697 -12.7402,-1.5857 -429.8089,-41.9892 -433.4364,-41.9892 h -4.2561 l 1.2272,-24.5079 c 0.675,-13.4792 1.8509,-25.2646 2.6136,-26.1895 1.461,-1.7724 21.7297,0.062 278.8335,25.2478 90.8731,8.9015 161.1322,14.8973 161.6921,13.7985 1.0966,-2.1524 1.91,-15.5898 8.5916,-141.9453 2.5316,-47.8747 4.1258,-88.8689 3.5422,-91.0984 -0.9295,-3.5523 -3.1022,-4.065 -17.5799,-4.1484 -9.0856,-0.053 -20.1622,-1.0009 -24.6147,-2.1083 -4.4526,-1.1074 -19.8336,-3.051 -34.1806,-4.3188 -14.3469,-1.2681 -34.8156,-3.756 -45.486,-5.5285 -10.6706,-1.7727 -24.8374,-3.241 -31.4821,-3.2625 -6.6449,-0.022 -19.7719,-1.4767 -29.1716,-3.2338 -9.3994,-1.7573 -23.5664,-3.2294 -31.482,-3.2719 -7.9155,-0.045 -21.6777,-1.5292 -30.5826,-3.304 -8.905,-1.7744 -22.2623,-3.236 -29.683,-3.2477 -7.4209,-0.022 -21.5173,-1.488 -31.3256,-3.2814 -9.8079,-1.7933 -23.1232,-3.2598 -29.5894,-3.2598 -6.4657,0 -21.9175,-1.4336 -34.3371,-3.1855 -28.4174,-4.009 -62.1246,-7.5639 -94.5401,-9.9714 -13.8522,-1.0288 -29.5462,-2.9082 -34.8759,-4.1759 -5.3296,-1.2681 -16.2584,-2.3243 -24.2861,-2.3478 -8.0276,-0.024 -22.6915,-1.4653 -32.5858,-3.2037 -9.8943,-1.739 -24.8709,-3.2102 -33.2809,-3.2698 -8.4105,-0.058 -22.9822,-1.5459 -32.3818,-3.3031 -9.3996,-1.7572 -23.5666,-3.2182 -31.482,-3.2467 -7.9156,-0.029 -19.2492,-1.0624 -25.1858,-2.2978 -5.9365,-1.2354 -22.937,-3.2114 -37.7784,-4.3913 -14.8416,-1.1798 -38.723,-3.0675 -53.0699,-4.1944 -14.3468,-1.1274 -31.3471,-3.0532 -37.7784,-4.2802 -6.4316,-1.2268 -18.6284,-2.2506 -27.104,-2.2746 -8.4758,-0.024 -19.8094,-0.9931 -25.1858,-2.1533 -9.7625,-2.1068 -44.893,-5.3963 -92.6123,-8.6724 -13.8987,-0.9543 -26.8514,-2.3368 -28.7836,-3.072 -1.9326,-0.7354 -17.2758,-2.4122 -34.0962,-3.7258 -16.8205,-1.3137 -41.1066,-3.2136 -53.9693,-4.2222 -12.8627,-1.0086 -37.3837,-2.8644 -54.4913,-4.124 -17.1072,-1.26 -31.8109,-2.8204 -32.6743,-3.4678 -0.8635,-0.6474 -16.0101,-2.2397 -33.6589,-3.5387 -17.6488,-1.299 -43.0172,-3.2214 -56.3748,-4.2722 -13.3574,-1.0511 -37.6435,-2.9597 -53.9692,-4.2415 -16.3259,-1.2817 -41.0168,-3.2507 -54.8689,-4.376 -13.8521,-1.1254 -38.1382,-3.0636 -53.9693,-4.3078 -15.8311,-1.2435 -41.3314,-3.2526 -56.6678,-4.464 -15.3362,-1.2114 -40.0271,-3.1159 -54.8688,-4.2319 -14.8414,-1.116 -41.9611,-3.1793 -60.26571,-4.5853 -18.30463,-1.4059 -40.16212,-2.8218 -48.5723,-3.1464 -8.41018,-0.325 -29.86308,-1.697 -47.67296,-3.0493 -75.8531,-5.759 -99.80517,-7.3874 -114.23499,-7.7669 -8.41032,-0.2213 -31.48214,-1.6935 -51.27089,-3.2718 -19.78874,-1.5782 -43.67016,-3.1532 -53.06982,-3.5001 -9.39965,-0.3468 -28.01905,-1.4397 -41.37647,-2.4279 l -24.28618,-1.7978 v -75.2789 -75.2791 l 4.49743,0.5484 c 2.4736,0.3013 14.6167,0.9538 26.98465,1.4494 22.56908,0.9046 91.77536,5.0072 190.69154,11.3039 51.13663,3.2553 62.56795,4.0464 137.62191,9.5232 18.79929,1.3717 41.06149,2.8405 49.47169,3.2638 8.4103,0.4236 29.4582,1.8993 46.7735,3.2795 17.3151,1.3805 43.2203,3.4227 57.5674,4.5387 14.3467,1.1159 39.0377,3.0411 54.8686,4.2783 42.7411,3.3395 77.2317,5.9839 112.1766,8.6002 17.1725,1.2854 31.8717,2.8238 32.6648,3.4186 0.7932,0.5947 13.4188,1.6343 28.0567,2.3111 14.6379,0.6765 27.2781,1.7276 28.0891,2.3356 0.8113,0.6084 14.4102,2.0166 30.2201,3.1301 15.8098,1.1132 41.6801,2.9353 57.4898,4.0484 15.8098,1.1136 29.5391,2.6196 30.5096,3.3469 0.9704,0.7276 8.8808,1.35 17.5786,1.383 8.6977,0.032 21.8857,1.0647 29.3065,2.2927 7.4208,1.228 24.8259,3.0892 38.6781,4.136 13.852,1.0469 38.1384,2.8953 53.9692,4.1072 15.8309,1.2121 33.1443,3.2183 38.4738,4.4581 5.3296,1.2395 17.1598,2.2539 26.2894,2.2539 9.1296,0 20.9598,1.0177 26.2893,2.2614 5.3298,1.2438 21.8334,3.1919 36.6749,4.3291 66.383,5.0868 79.8654,6.3514 90.8483,8.522 6.4314,1.2708 18.2402,2.318 26.2418,2.3272 8.002,0 22.5737,1.4831 32.3817,3.2766 9.8083,1.7931 24.3799,3.266 32.3816,3.2729 8.0018,0 22.5736,1.4799 32.3814,3.2731 9.8083,1.7932 24.7143,3.3088 33.1245,3.368 8.4102,0.058 18.9342,1.0153 23.3866,2.1239 4.4525,1.1087 17.81,2.6198 29.6832,3.3579 11.8732,0.7378 29.787,2.7335 39.8083,4.4348 10.0214,1.7012 24.1884,3.1243 31.4821,3.1623 7.294,0.035 21.357,1.4917 31.2514,3.2306 9.8942,1.7386 24.0612,3.198 31.4821,3.243 7.4207,0.045 21.1828,1.519 30.5826,3.2763 9.3996,1.7571 23.1618,3.2299 30.5825,3.273 7.4208,0.044 21.1831,1.5158 30.5826,3.273 9.3997,1.7569 23.1618,3.2298 30.5825,3.2731 7.4209,0.044 21.1831,1.5157 30.5827,3.2728 9.3997,1.7571 22.7572,3.2112 29.6832,3.2311 6.926,0.022 21.9026,1.4841 33.2811,3.2533 11.3785,1.7693 31.2121,4.2647 44.075,5.5449 12.8626,1.2805 28.2439,3.1879 34.1803,4.2389 5.9367,1.0508 16.8655,1.9973 24.2863,2.103 7.4208,0.1068 20.7782,1.6443 29.6831,3.4189 8.905,1.7747 23.0719,3.2478 31.4821,3.2738 8.4103,0.026 22.5772,1.4254 31.4822,3.1105 8.9049,1.6848 24.6909,3.7108 35.0801,4.5021 10.389,0.7914 26.7768,2.8457 36.4173,4.5647 9.6405,1.7194 22.9979,3.1294 29.6831,3.1341 6.6851,0 19.4408,1.459 28.3458,3.2319 8.9048,1.7732 25.0958,3.8012 35.9796,4.5069 10.8837,0.7055 27.5759,2.6879 37.0935,4.4047 9.5179,1.7172 22.4705,3.1274 28.7837,3.1339 6.3134,0 22.4074,1.8818 35.7648,4.1667 13.3574,2.2853 33.1912,4.7389 44.0748,5.4534 10.8839,0.7139 23.0272,2.2512 26.9848,3.4153 3.9579,1.1644 16.1009,2.7006 26.9847,3.4136 10.8839,0.7133 27.8842,2.7701 37.7786,4.5703 9.8942,1.8007 28.5137,4.1719 41.3766,5.2695 61.5273,5.2504 84.0668,13.4874 98.6722,36.0579 12.6099,19.487 14.2275,30.0743 11.89,77.8159 -1.0657,21.7723 -2.3356,40.3667 -2.8217,41.3207 -0.4863,0.9539 -1.633,18.1944 -2.5487,38.3124 -3.1012,68.1399 -5.1205,101.9911 -6.9333,116.2207 -0.9938,7.8007 -2.3132,36.7666 -2.9318,64.3688 -0.6453,28.7882 -1.9596,52.2572 -3.0827,55.0439 -1.4118,3.5021 -1.4103,9.59 0,21.8199 1.7294,14.9376 1.5752,18.028 -1.2907,25.8908 -4.3936,12.0525 -26.6344,49.3218 -39.6883,66.5064 -1.4842,1.9538 -4.2256,5.9092 -6.092,8.7898 -32.9381,50.8363 -143.8161,189.7276 -185.3573,232.1878 -10.3422,10.5711 -14.0327,14.4863 -25.3275,26.8701 -2.9684,3.2545 -11.0637,11.7906 -17.9899,18.9694 -6.926,7.1786 -12.9973,13.5957 -13.4923,14.2601 -4.0841,5.4849 -54.1914,52.2512 -55.9837,52.2512 -0.7456,0 -1.6093,3.0889 -1.9191,6.8643 -0.4975,6.0573 -1.5121,7.2025 -8.6279,9.7386 -8.9717,3.1977 -101.6142,5.8136 -182.6275,5.1567 -89.6395,-0.7267 -218.2463,-0.2612 -300.429,1.0872 -86.8259,1.4251 -168.5006,2.6105 -300.4293,4.3608 -43.5353,0.5773 -110.3221,1.5588 -148.4156,2.1812 -87.955,1.4367 -203.5999,3.0367 -322.9163,4.4678 -51.4507,0.6171 -120.6664,1.584 -153.8125,2.1487 -64.7554,1.1032 -158.1204,2.5928 -276.143,4.406 -40.5668,0.6231 -82.2582,2.2426 -92.6473,3.5988 -12.37332,1.6152 -85.45562,2.7521 -211.85355,3.2956 l -192.96435,0.8296 0.47385,-73.7082 z m 2114.637,-108.7306 c 14.5416,-2.3411 25.4179,-11.6059 75.1917,-64.0519 11.8732,-12.5107 28.391,-30.1944 36.7061,-39.2973 18.2823,-20.0142 92.4178,-109.1229 107.3182,-128.9932 5.878,-7.8393 15.9496,-21.1777 22.3811,-29.6413 28.9654,-38.1182 48.9013,-68.9691 52.7581,-81.6439 1.7985,-5.9101 3.0241,-16.4501 3.045,-26.1839 0.019,-8.9607 1.208,-26.1112 2.6414,-38.1122 1.4336,-12.001 2.6321,-29.7607 2.6637,-39.466 0.03,-9.7056 1.2664,-27.3798 2.7448,-39.2761 1.4784,-11.8963 2.6785,-28.5033 2.6669,-36.904 -0.019,-8.4005 1.3558,-27.4056 3.038,-42.2331 2.697,-23.7676 2.7539,-28.0238 0.4813,-35.9499 -3.2445,-11.3161 -8.2355,-14.4514 -23.2658,-14.6149 -6.4317,-0.069 -15.3364,-1.0331 -19.7891,-2.1403 -4.4522,-1.1075 -19.8335,-3.058 -34.1802,-4.3343 -14.3469,-1.2765 -32.9664,-3.7613 -41.3766,-5.5219 -8.4102,-1.7601 -20.958,-3.2222 -27.8841,-3.2486 -6.926,-0.027 -23.5217,-1.975 -36.879,-4.3299 -13.3574,-2.3552 -29.9528,-4.302 -36.8791,-4.3261 -6.9262,-0.024 -19.474,-1.5239 -27.8842,-3.3326 -8.41,-1.8088 -27.4344,-4.2644 -42.276,-5.4566 -14.8414,-1.192 -30.6275,-3.105 -35.08,-4.2501 -4.4524,-1.1456 -14.9765,-2.129 -23.3867,-2.1859 -8.4101,-0.057 -22.5771,-1.5551 -31.482,-3.3297 -23.3794,-4.6594 -23.9419,-4.5748 -25.1339,3.7884 -0.5559,3.9006 -3.0405,45.8767 -5.521,93.2806 -2.4809,47.404 -7.3021,139.7026 -10.7139,205.1078 -3.4121,65.4057 -7.904,150.8309 -9.9824,189.8342 -5.9472,111.6103 -8.0574,157.7553 -7.4859,163.6939 l 0.5296,5.4987 59.7362,-0.5813 c 32.855,-0.3197 63.139,-1.1293 67.2978,-1.7986 z m -18.6713,-194.2547 c -9.7072,-4.3438 -23.0488,-18.6503 -28.0714,-30.1012 -3.1761,-7.2414 -3.9508,-12.6444 -3.9508,-27.5547 0,-22.1747 3.431,-31.7896 16.2154,-45.4385 24.6398,-26.3067 63.0027,-17.4997 77.1773,17.718 6.3184,15.6987 7.4793,28.6769 3.9005,43.6091 -6.2093,25.9057 -23.8461,43.0144 -45.7509,44.3802 -7.7786,0.4848 -14.6539,-0.4353 -19.5201,-2.6129 z"
       id="path4718" />
  </g>
</svg>
