<?xml version="1.0" encoding="UTF-8" standalone="no"?>
<!-- Created with Inkscape (http://www.inkscape.org/) -->

<svg
   version="1.1"
   id="svg221"
   width="3464"
   height="3464"
   viewBox="0 0 3464 3464"
   sodipodi:docname="2000000000000.svg"
   inkscape:version="1.2.2 (732a01da63, 2022-12-09)"
   xmlns:inkscape="http://www.inkscape.org/namespaces/inkscape"
   xmlns:sodipodi="http://sodipodi.sourceforge.net/DTD/sodipodi-0.dtd"
   xmlns="http://www.w3.org/2000/svg"
   xmlns:svg="http://www.w3.org/2000/svg">
  <defs
     id="defs225" />
  <sodipodi:namedview
     id="namedview223"
     pagecolor="#ffffff"
     bordercolor="#000000"
     borderopacity="0.25"
     inkscape:showpageshadow="2"
     inkscape:pageopacity="0.0"
     inkscape:pagecheckerboard="0"
     inkscape:deskcolor="#d1d1d1"
     showgrid="false"
     inkscape:zoom="0.2289261"
     inkscape:cx="939.16772"
     inkscape:cy="1736.3682"
     inkscape:window-width="1920"
     inkscape:window-height="986"
     inkscape:window-x="-11"
     inkscape:window-y="-11"
     inkscape:window-maximized="1"
     inkscape:current-layer="g227" />
  <g
     inkscape:groupmode="layer"
     inkscape:label="Image"
     id="g227">
    <g
       id="g231"
       transform="matrix(2.5905296,0,0,2.6256501,-1682.4532,-2676.4962)"
       style="fill:#000000">
      <path
         style="fill:#000000;fill-opacity:1"
         d="m 1328.5641,1986.1076 1.3125,-0.5252 0.6042,0.6041 0.6041,0.6042 -1.9166,-0.079 -1.9167,-0.079 1.3125,-0.5252 z m -43.0625,-0.9792 1.25,-0.5044 1.25,0.5044 1.25,0.5044 h -2.5 -2.5 z m 84.519,-0.031 1.7691,-0.461 1.2309,0.4981 1.231,0.498 -3,-0.037 -3,-0.037 1.769,-0.461 z m -99,-1 1.7691,-0.461 1.2309,0.4981 1.231,0.498 -3,-0.037 -3,-0.037 1.769,-0.461 z m 114,0 1.7691,-0.461 1.2309,0.4981 1.231,0.498 -3,-0.037 -3,-0.037 1.769,-0.461 z m 15.5435,-0.9901 1.3125,-0.5252 0.6042,0.6041 0.6041,0.6042 -1.9166,-0.079 -1.9167,-0.079 1.3125,-0.5252 z m -157.0625,-0.9792 1.25,-0.5044 1.25,0.5044 1.25,0.5044 h -2.5 -2.5 z m -23.9375,-3.0208 1.3125,-0.5252 0.6042,0.6041 0.6041,0.6042 -1.9166,-0.079 -1.9167,-0.079 1.3125,-0.5252 z m 218,0 1.3125,-0.5252 0.6042,0.6041 0.6041,0.6042 -1.9166,-0.079 -1.9167,-0.079 1.3125,-0.5252 z m -87.5625,-33.0062 1.75,-0.4573 1.75,0.4573 1.75,0.4573 h -3.5 -3.5 z m 20.5,-1.0164 2.25,-0.4334 2.25,0.4334 2.25,0.4333 h -4.5 -4.5 z m -100.9375,-0.9774 1.3125,-0.5252 0.6042,0.6041 0.6041,0.6042 -1.9166,-0.079 -1.9167,-0.079 1.3125,-0.5252 z m 123,0 1.3125,-0.5252 0.6042,0.6041 0.6041,0.6042 -1.9166,-0.079 -1.9167,-0.079 1.3125,-0.5252 z m -135.0625,-0.9792 1.25,-0.5044 1.25,0.5044 1.25,0.5044 h -2.5 -2.5 z m 150,0 1.25,-0.5044 1.25,0.5044 1.25,0.5044 h -2.5 -2.5 z m 8.0625,-1.0208 1.3125,-0.5252 0.6042,0.6041 0.6041,0.6042 -1.9166,-0.079 -1.9167,-0.079 1.3125,-0.5252 z m -185,-2 1.3125,-0.5252 0.6042,0.6041 0.6041,0.6042 -1.9166,-0.079 -1.9167,-0.079 1.3125,-0.5252 z m 40.3824,-53.8169 0.037,-3 0.461,1.769 0.461,1.7691 -0.4981,1.2309 -0.498,1.231 0.037,-3 z m 0,-20 0.037,-3 0.461,1.769 0.461,1.7691 -0.4981,1.2309 -0.498,1.231 0.037,-3 z m -350.27061,-8.25 -2.4243,-2.75 2.75,2.4243 2.75,2.4243 v 0.3257 0.3257 h -0.3257 -0.3257 z m 818.57571,-1.2497 1.81,-2 h 0.5 0.5 l -1.81,2 -1.81,2 h -0.5 -0.5 z m -837.62761,-17.75 -1.3724,-1.75 1.75,1.3724 1.75,1.3725 v 0.3775 0.3776 h -0.3776 -0.3775 z m 812.12761,-12.75 2.3486,-2.5 h 0.5 0.5 l -2.3486,2.5 -2.3486,2.5 h -0.5 -0.5 z m -769.59501,-0.75 -1.905,-2.25 2.25,1.905 2.25,1.905 v 0.345 0.345 h -0.345 -0.345 z m -9.9521,-10 -3.9529,-4.25 4.25,3.9529 4.25,3.953 v 0.297 0.2971 h -0.2971 -0.297 z m 787.54711,2.8724 v -0.3775 l 1.75,-1.3725 1.75,-1.3724 -1.3724,1.75 -1.3725,1.75 h -0.3775 -0.3776 z m 4,-4 v -0.3775 l 1.75,-1.3725 1.75,-1.3724 -1.3724,1.75 -1.3725,1.75 h -0.3775 -0.3776 z m -383.2321,-9.3471 3.2679,-0.4047 2.7321,0.4149 2.7321,0.4148 -6,-0.01 -6,-0.01 3.2679,-0.4046 z m -63.0179,-0.9376 1.25,-0.5044 1.25,0.5044 1.25,0.5044 h -2.5 -2.5 z m 98,0 1.25,-0.5044 1.25,0.5044 1.25,0.5044 h -2.5 -2.5 z m -112,-1 1.25,-0.5044 1.25,0.5044 1.25,0.5044 h -2.5 -2.5 z m 125.519,-0.031 1.7691,-0.461 1.2309,0.4981 1.231,0.498 -3,-0.037 -3,-0.037 1.769,-0.461 z m 13.5435,-0.9901 1.3125,-0.5252 0.6042,0.6041 0.6041,0.6042 -1.9166,-0.079 -1.9167,-0.079 1.3125,-0.5252 z m -163,-1 1.3125,-0.5252 0.6042,0.6041 0.6041,0.6042 -1.9166,-0.079 -1.9167,-0.079 1.3125,-0.5252 z m 174,0 1.3125,-0.5252 0.6042,0.6041 0.6041,0.6042 -1.9166,-0.079 -1.9167,-0.079 1.3125,-0.5252 z m -200.0625,-2.9792 1.25,-0.5044 1.25,0.5044 1.25,0.5044 h -2.5 -2.5 z m 225.0625,-0.021 1.3125,-0.5252 0.6042,0.6041 0.6041,0.6042 -1.9166,-0.079 -1.9167,-0.079 1.3125,-0.5252 z m -148.0625,-32.9792 1.25,-0.5044 1.25,0.5044 1.25,0.5044 h -2.5 -2.5 z m 72,0 1.25,-0.5044 1.25,0.5044 1.25,0.5044 h -2.5 -2.5 z m -84,-1 1.25,-0.5044 1.25,0.5044 1.25,0.5044 h -2.5 -2.5 z m 96.519,-0.031 1.7691,-0.461 1.2309,0.4981 1.231,0.498 -3,-0.037 -3,-0.037 1.769,-0.461 z m -124.519,-1.9693 1.25,-0.5044 1.25,0.5044 1.25,0.5044 h -2.5 -2.5 z m 152,0 1.25,-0.5044 1.25,0.5044 1.25,0.5044 h -2.5 -2.5 z m -161.9375,-1.0208 1.3125,-0.5252 0.6042,0.6041 0.6041,0.6042 -1.9166,-0.079 -1.9167,-0.079 1.3125,-0.5252 z m -395.73361,-41.9002 0.079,-1.9167 0.5252,1.3125 0.5252,1.3125 -0.6041,0.6042 -0.6042,0.6041 0.079,-1.9166 z m 965.07901,-0.4167 v -2.5 l 0.5044,1.25 0.5044,1.25 -0.5044,1.25 -0.5044,1.25 z m -79.1579,-32.3768 v -0.3775 l 1.75,-1.3725 1.75,-1.3724 -1.3724,1.75 -1.3725,1.75 h -0.3775 -0.3776 z m -817.12761,-9.3724 -1.3724,-1.75 1.75,1.3724 1.75,1.3725 v 0.3775 0.3776 h -0.3776 -0.3775 z m 827.62761,-0.25 1.81,-2 h 0.5 0.5 l -1.81,2 -1.81,2 h -0.5 -0.5 z m 15,-15 1.81,-2 h 0.5 0.5 l -1.81,2 -1.81,2 h -0.5 -0.5 z m -858.62761,-0.75 -1.3724,-1.75 1.75,1.3724 1.75,1.3725 v 0.3775 0.3776 h -0.3776 -0.3775 z m 44.5326,-11.5 -1.905,-2.25 2.25,1.905 2.25,1.905 v 0.345 0.345 h -0.345 -0.345 z m 770.09501,0.25 1.81,-2 h 0.5 0.5 l -1.81,2 -1.81,2 h -0.5 -0.5 z m -826.62761,-2.75 -1.3724,-1.75 1.75,1.3724 1.75,1.3725 v 0.3775 0.3776 h -0.3776 -0.3775 z m 57.6276,-23.25 1.81,-2 h 0.5 0.5 l -1.81,2 -1.81,2 h -0.5 -0.5 z m 766.90501,-1.25 -1.905,-2.25 2.25,1.905 2.25,1.905 v 0.345 0.345 h -0.345 -0.345 z m 36.0321,-21 -2.9371,-3.25 3.25,2.9371 3.25,2.9371 v 0.3129 0.3129 h -0.3129 -0.3129 z m -828.43711,-8.25 2.3486,-2.5 h 0.5 0.5 l -2.3486,2.5 -2.3486,2.5 h -0.5 -0.5 z m 816.87241,-2.25 -1.3724,-1.75 1.75,1.3724 1.75,1.3725 v 0.3775 0.3776 h -0.3776 -0.3775 z m -6,-5 -1.3724,-1.75 1.75,1.3724 1.75,1.3725 v 0.3775 0.3776 h -0.3776 -0.3775 z m -883.79351,-58.8333 0.079,-1.9167 0.5252,1.3125 0.5252,1.3125 -0.6041,0.6042 -0.6042,0.6041 0.079,-1.9166 z m 965.00001,-3 0.079,-1.9167 0.5252,1.3125 0.5252,1.3125 -0.6041,0.6042 -0.6042,0.6041 0.079,-1.9166 z m -369.2664,-9.0998 1.3125,-0.5252 0.6042,0.6041 0.6041,0.6042 -1.9166,-0.079 -1.9167,-0.079 1.3125,-0.5252 z m -16,-2 1.3125,-0.5252 0.6042,0.6041 0.6041,0.6042 -1.9166,-0.079 -1.9167,-0.079 1.3125,-0.5252 z m -187,-1 1.3125,-0.5252 0.6042,0.6041 0.6041,0.6042 -1.9166,-0.079 -1.9167,-0.079 1.3125,-0.5252 z m 179,0 1.3125,-0.5252 0.6042,0.6041 0.6041,0.6042 -1.9166,-0.079 -1.9167,-0.079 1.3125,-0.5252 z m -156.0625,-1.9792 1.25,-0.5044 1.25,0.5044 1.25,0.5044 h -2.5 -2.5 z m 133,0 1.25,-0.5044 1.25,0.5044 1.25,0.5044 h -2.5 -2.5 z m -122.9375,-1.0208 1.3125,-0.5252 0.6042,0.6041 0.6041,0.6042 -1.9166,-0.079 -1.9167,-0.079 1.3125,-0.5252 z m 112.9375,0.021 1.25,-0.5044 1.25,0.5044 1.25,0.5044 h -2.5 -2.5 z m -92,-1 1.25,-0.5044 1.25,0.5044 1.25,0.5044 h -2.5 -2.5 z m 70.519,-0.031 1.7691,-0.461 1.2309,0.4981 1.231,0.498 -3,-0.037 -3,-0.037 1.769,-0.461 z m -36.019,-0.9963 1.75,-0.4573 1.75,0.4573 1.75,0.4573 h -3.5 -3.5 z m 141.5625,-27.9938 1.3125,-0.5252 0.6042,0.6041 0.6041,0.6042 -1.9166,-0.079 -1.9167,-0.079 1.3125,-0.5252 z m -264,-3 1.3125,-0.5252 0.6042,0.6041 0.6041,0.6042 -1.9166,-0.079 -1.9167,-0.079 1.3125,-0.5252 z m 41.9375,-4.9792 1.25,-0.5044 1.25,0.5044 1.25,0.5044 h -2.5 -2.5 z m 161.0625,-0.021 1.3125,-0.5252 0.6042,0.6041 0.6041,0.6042 -1.9166,-0.079 -1.9167,-0.079 1.3125,-0.5252 z m -148,-1 1.3125,-0.5252 0.6042,0.6041 0.6041,0.6042 -1.9166,-0.079 -1.9167,-0.079 1.3125,-0.5252 z m 19,-1 1.3125,-0.5252 0.6042,0.6041 0.6041,0.6042 -1.9166,-0.079 -1.9167,-0.079 1.3125,-0.5252 z m 97.9375,0.021 1.25,-0.5044 1.25,0.5044 1.25,0.5044 h -2.5 -2.5 z m -84.481,-1.0307 1.7691,-0.461 1.2309,0.4981 1.231,0.498 -3,-0.037 -3,-0.037 1.769,-0.461 z m 69.981,0 1.75,-0.4573 1.75,0.4573 1.75,0.4573 h -3.5 -3.5 z m -440.25001,-21.6883 v -0.3775 l 1.75,-1.3725 1.75,-1.3724 -1.3724,1.75 -1.3725,1.75 h -0.3775 -0.3776 z m 811.87241,-1.3724 -1.3724,-1.75 1.75,1.3724 1.75,1.3725 v 0.3775 0.3776 h -0.3776 -0.3775 z m -799.87241,-11.7462 3.3923,-3.5 h 0.5 0.5 l -3.3923,3.5 -3.3923,3.5 h -0.5 -0.5 z m -37,-19.8776 v -0.3775 l 1.75,-1.3725 1.75,-1.3724 -1.3724,1.75 -1.3725,1.75 h -0.3775 -0.3776 z m 841.87241,-21.3724 -1.3724,-1.75 1.75,1.3724 1.75,1.3725 v 0.3775 0.3776 h -0.3776 -0.3775 z m -815.87241,-3.6276 v -0.3775 l 1.75,-1.3725 1.75,-1.3724 -1.3724,1.75 -1.3725,1.75 h -0.3775 -0.3776 z m 528.81251,-72.3055 1.3125,-0.5252 0.6042,0.6041 0.6041,0.6042 -1.9166,-0.079 -1.9167,-0.079 1.3125,-0.5252 z m -227,-3 1.3125,-0.5252 0.6042,0.6041 0.6041,0.6042 -1.9166,-0.079 -1.9167,-0.079 1.3125,-0.5252 z m 206,0 1.3125,-0.5252 0.6042,0.6041 0.6041,0.6042 -1.9166,-0.079 -1.9167,-0.079 1.3125,-0.5252 z m -188,-2 1.3125,-0.5252 0.6042,0.6041 0.6041,0.6042 -1.9166,-0.079 -1.9167,-0.079 1.3125,-0.5252 z m 171,0 1.3125,-0.5252 0.6042,0.6041 0.6041,0.6042 -1.9166,-0.079 -1.9167,-0.079 1.3125,-0.5252 z m -8,-1 1.3125,-0.5252 0.6042,0.6041 0.6041,0.6042 -1.9166,-0.079 -1.9167,-0.079 1.3125,-0.5252 z m -142,-1 1.3125,-0.5252 0.6042,0.6041 0.6041,0.6042 -1.9166,-0.079 -1.9167,-0.079 1.3125,-0.5252 z m 129,0 1.3125,-0.5252 0.6042,0.6041 0.6041,0.6042 -1.9166,-0.079 -1.9167,-0.079 1.3125,-0.5252 z m -115.5435,-1.0099 1.7691,-0.461 1.2309,0.4981 1.231,0.498 -3,-0.037 -3,-0.037 1.769,-0.461 z m 99.981,0 1.75,-0.4573 1.75,0.4573 1.75,0.4573 h -3.5 -3.5 z m -81.981,-1.0037 1.7691,-0.461 1.2309,0.4981 1.231,0.498 -3,-0.037 -3,-0.037 1.769,-0.461 z m 64,0 1.7691,-0.461 1.2309,0.4981 1.231,0.498 -3,-0.037 -3,-0.037 1.769,-0.461 z m -129.4565,-34.9901 1.3125,-0.5252 0.6042,0.6041 0.6041,0.6042 -1.9166,-0.079 -1.9167,-0.079 1.3125,-0.5252 z m 197,0 1.3125,-0.5252 0.6042,0.6041 0.6041,0.6042 -1.9166,-0.079 -1.9167,-0.079 1.3125,-0.5252 z m -9,-1 1.3125,-0.5252 0.6042,0.6041 0.6041,0.6042 -1.9166,-0.079 -1.9167,-0.079 1.3125,-0.5252 z m -156.5435,-2.0099 1.7691,-0.461 1.2309,0.4981 1.231,0.498 -3,-0.037 -3,-0.037 1.769,-0.461 z m 133.481,0.031 1.25,-0.5044 1.25,0.5044 1.25,0.5044 h -2.5 -2.5 z m -116,-1 1.25,-0.5044 1.25,0.5044 1.25,0.5044 h -2.5 -2.5 z m 99.0625,-0.021 1.3125,-0.5252 0.6042,0.6041 0.6041,0.6042 -1.9166,-0.079 -1.9167,-0.079 1.3125,-0.5252 z m -62.0625,-1.0403 3.25,-0.4033 3.25,0.4033 3.25,0.4033 h -6.5 -6.5 z m 21.9777,0 3.2277,-0.4017 3.7723,0.3936 3.7723,0.3936 -7,0.01 -7,0.01 3.2277,-0.4016 z"
         id="path245" />
      <path
         style="fill:#000000;fill-opacity:1"
         d="m 1290.0206,1985.0977 1.7691,-0.461 1.2309,0.4981 1.231,0.498 -3,-0.037 -3,-0.037 1.769,-0.461 z m 75.481,0.031 1.25,-0.5044 1.25,0.5044 1.25,0.5044 h -2.5 -2.5 z m -90,-1 1.25,-0.5044 1.25,0.5044 1.25,0.5044 h -2.5 -2.5 z m 106.0625,-0.021 1.3125,-0.5252 0.6042,0.6041 0.6041,0.6042 -1.9166,-0.079 -1.9167,-0.079 1.3125,-0.5252 z m -122,-1 1.3125,-0.5252 0.6042,0.6041 0.6041,0.6042 -1.9166,-0.079 -1.9167,-0.079 1.3125,-0.5252 z m 151,-1 1.3125,-0.5252 0.6042,0.6041 0.6041,0.6042 -1.9166,-0.079 -1.9167,-0.079 1.3125,-0.5252 z m -54.0508,-36.0242 2.2616,-0.4349 1.7384,0.4551 1.7383,0.4551 -4,-0.02 -4,-0.02 2.2617,-0.4349 z m -72.9492,-0.9758 1.3125,-0.5252 0.6042,0.6041 0.6041,0.6042 -1.9166,-0.079 -1.9167,-0.079 1.3125,-0.5252 z m 94.9492,-0.024 2.2616,-0.4349 1.7384,0.4551 1.7383,0.4551 -4,-0.02 -4,-0.02 2.2617,-0.4349 z m -111.9492,-0.9758 1.3125,-0.5252 0.6042,0.6041 0.6041,0.6042 -1.9166,-0.079 -1.9167,-0.079 1.3125,-0.5252 z m 129,0 1.3125,-0.5252 0.6042,0.6041 0.6041,0.6042 -1.9166,-0.079 -1.9167,-0.079 1.3125,-0.5252 z m -142.0625,-0.9792 1.25,-0.5044 1.25,0.5044 1.25,0.5044 h -2.5 -2.5 z m 181.0625,-3.0208 1.3125,-0.5252 0.6042,0.6041 0.6041,0.6042 -1.9166,-0.079 -1.9167,-0.079 1.3125,-0.5252 z m -163.4697,-63.8169 0.01,-8 0.3841,4.2764 0.3841,4.2765 -0.3907,3.7235 -0.3907,3.7236 0.01,-8 z m 133.9072,4.8107 1.75,-0.4573 1.75,0.4573 1.75,0.4573 h -3.5 -3.5 z m -488.84501,-27.5607 -1.905,-2.25 2.25,1.905 2.25,1.905 v 0.345 0.345 h -0.345 -0.345 z m 832.09501,-5.75 6.9464,-7 h 0.5 0.5 l -6.9464,7 -6.9464,7 h -0.5 -0.5 z m -842.06291,-4.25 -2.9371,-3.25 3.25,2.9371 3.25,2.9371 v 0.3129 0.3129 h -0.3129 -0.3129 z m -10.5647,-11.5 -1.3724,-1.75 1.75,1.3724 1.75,1.3725 v 0.3775 0.3776 h -0.3776 -0.3775 z m 813.62761,-1.2503 1.81,-2 h 0.5 0.5 l -1.81,2 -1.81,2 h -0.5 -0.5 z m -761.09501,-1.25 -1.905,-2.25 2.25,1.905 2.25,1.905 v 0.345 0.345 h -0.345 -0.345 z m 335.86401,-25.443 1.7691,-0.461 1.2309,0.4981 1.231,0.498 -3,-0.037 -3,-0.037 1.769,-0.461 z m 89.481,0.031 1.25,-0.5044 1.25,0.5044 1.25,0.5044 h -2.5 -2.5 z m -104,-1 1.25,-0.5044 1.25,0.5044 1.25,0.5044 h -2.5 -2.5 z m 117,0 1.25,-0.5044 1.25,0.5044 1.25,0.5044 h -2.5 -2.5 z m -141.9375,-2.0208 1.3125,-0.5252 0.6042,0.6041 0.6041,0.6042 -1.9166,-0.079 -1.9167,-0.079 1.3125,-0.5252 z m 168,0 1.3125,-0.5252 0.6042,0.6041 0.6041,0.6042 -1.9166,-0.079 -1.9167,-0.079 1.3125,-0.5252 z m 9,-1 1.3125,-0.5252 0.6042,0.6041 0.6041,0.6042 -1.9166,-0.079 -1.9167,-0.079 1.3125,-0.5252 z m -133.0625,-34.9792 1.25,-0.5044 1.25,0.5044 1.25,0.5044 h -2.5 -2.5 z m 80.0625,-0.021 1.3125,-0.5252 0.6042,0.6041 0.6041,0.6042 -1.9166,-0.079 -1.9167,-0.079 1.3125,-0.5252 z m -91,-1 1.3125,-0.5252 0.6042,0.6041 0.6041,0.6042 -1.9166,-0.079 -1.9167,-0.079 1.3125,-0.5252 z m 104,0 1.3125,-0.5252 0.6042,0.6041 0.6041,0.6042 -1.9166,-0.079 -1.9167,-0.079 1.3125,-0.5252 z m 16,-1 1.3125,-0.5252 0.6042,0.6041 0.6041,0.6042 -1.9166,-0.079 -1.9167,-0.079 1.3125,-0.5252 z m -148,-1 1.3125,-0.5252 0.6042,0.6041 0.6041,0.6042 -1.9166,-0.079 -1.9167,-0.079 1.3125,-0.5252 z m 159,0 1.3125,-0.5252 0.6042,0.6041 0.6041,0.6042 -1.9166,-0.079 -1.9167,-0.079 1.3125,-0.5252 z m -561.65461,-46.317 v -2.5 l 0.5044,1.25 0.5044,1.25 -0.5044,1.25 -0.5044,1.25 z m 965.00001,-1 v -2.5 l 0.5044,1.25 0.5044,1.25 -0.5044,1.25 -0.5044,1.25 z m -38.7083,-35 v -34.5 l 0.2988,17.25 0.2988,17.25 -0.2988,17.25 -0.2988,17.25 z m -887.00351,-1.5 8e-4,-32 0.3016,16.313 0.3016,16.3129 -0.3023,15.6871 -0.3024,15.687 z m 21.525,-9.25 -6.4711,-6.75 6.75,6.4711 6.75,6.4711 v 0.2789 0.2789 h -0.2789 -0.2789 z m 843.02891,0.25 5.4317,-5.5 h 0.5 0.5 l -5.4317,5.5 -5.4317,5.5 h -0.5 -0.5 z m -29.0757,-38.25 -2.4243,-2.75 2.75,2.4243 2.75,2.4243 v 0.3257 0.3257 h -0.3257 -0.3257 z m -785.92431,1.3724 v -0.3775 l 1.75,-1.3725 1.75,-1.3724 -1.3724,1.75 -1.3725,1.75 h -0.3775 -0.3776 z m 803.87241,-38.3724 -1.3724,-1.75 1.75,1.3724 1.75,1.3725 v 0.3775 0.3776 h -0.3776 -0.3775 z m -853.57271,-57.25 v -5.5 l 0.4166,2.75 0.4165,2.75 -0.4165,2.75 -0.4166,2.75 z m 886.98631,0.5 0.014,-5 0.4179,2.7637 0.4179,2.7638 -0.4316,2.2362 -0.4315,2.2363 0.014,-5 z m -926.12811,-6.5 v -2.5 l 0.5044,1.25 0.5044,1.25 -0.5044,1.25 -0.5044,1.25 z m 964.92101,-3.5833 0.079,-1.9167 0.5252,1.3125 0.5252,1.3125 -0.6041,0.6042 -0.6042,0.6041 0.079,-1.9166 z m -390.2664,-15.0998 1.3125,-0.5252 0.6042,0.6041 0.6041,0.6042 -1.9166,-0.079 -1.9167,-0.079 1.3125,-0.5252 z m -162,-2 1.3125,-0.5252 0.6042,0.6041 0.6041,0.6042 -1.9166,-0.079 -1.9167,-0.079 1.3125,-0.5252 z m 140,0 1.3125,-0.5252 0.6042,0.6041 0.6041,0.6042 -1.9166,-0.079 -1.9167,-0.079 1.3125,-0.5252 z m -130,-1 1.3125,-0.5252 0.6042,0.6041 0.6041,0.6042 -1.9166,-0.079 -1.9167,-0.079 1.3125,-0.5252 z m 19.4565,-1.0099 1.7691,-0.461 1.2309,0.4981 1.231,0.498 -3,-0.037 -3,-0.037 1.769,-0.461 z m 79.481,0.031 1.25,-0.5044 1.25,0.5044 1.25,0.5044 h -2.5 -2.5 z m -54.4698,-1.074 4.7801,-0.3757 4.2199,0.3813 4.2198,0.3813 -9,-0.01 -9,-0.01 4.7802,-0.3758 z m 23,0 4.7801,-0.3757 4.2199,0.3813 4.2198,0.3813 -9,-0.01 -9,-0.01 4.7802,-0.3758 z m -94.4677,-34.9468 1.3125,-0.5252 0.6042,0.6041 0.6041,0.6042 -1.9166,-0.079 -1.9167,-0.079 1.3125,-0.5252 z m 8.9375,-0.9792 1.25,-0.5044 1.25,0.5044 1.25,0.5044 h -2.5 -2.5 z m 154.0625,-0.021 1.3125,-0.5252 0.6042,0.6041 0.6041,0.6042 -1.9166,-0.079 -1.9167,-0.079 1.3125,-0.5252 z m -142,-1 1.3125,-0.5252 0.6042,0.6041 0.6041,0.6042 -1.9166,-0.079 -1.9167,-0.079 1.3125,-0.5252 z m 131,0 1.3125,-0.5252 0.6042,0.6041 0.6041,0.6042 -1.9166,-0.079 -1.9167,-0.079 1.3125,-0.5252 z m -112.0625,-0.9792 1.25,-0.5044 1.25,0.5044 1.25,0.5044 h -2.5 -2.5 z m 91,0 1.25,-0.5044 1.25,0.5044 1.25,0.5044 h -2.5 -2.5 z m -74.5,-1.054 2.75,-0.4165 2.75,0.4165 2.75,0.4166 h -5.5 -5.5 z m 56.5,0.011 2.25,-0.4334 2.25,0.4334 2.25,0.4333 h -4.5 -4.5 z m -426.25001,-29.2948 1.81,-2 h 0.5 0.5 l -1.81,2 -1.81,2 h -0.5 -0.5 z m 796.96241,-3.25 -4.9624,-5.25 5.25,4.9624 5.25,4.9624 v 0.2876 0.2876 h -0.2876 -0.2876 z m -785.96241,-7.75 1.81,-2 h 0.5 0.5 l -1.81,2 -1.81,2 h -0.5 -0.5 z m 777.90501,-0.25 -1.905,-2.25 2.25,1.905 2.25,1.905 v 0.345 0.345 h -0.345 -0.345 z m 39.5193,-17.5 -2.4243,-2.75 2.75,2.4243 2.75,2.4243 v 0.3257 0.3257 h -0.3257 -0.3257 z m -854.92431,-1.75 2.3486,-2.5 h 0.5 0.5 l -2.3486,2.5 -2.3486,2.5 h -0.5 -0.5 z m 8.5,-8.5 4.9248,-5 h 0.5 0.5 l -4.9248,5 -4.9248,5 h -0.5 -0.5 z m 832.42431,-3.75 -2.4243,-2.75 2.75,2.4243 2.75,2.4243 v 0.3257 0.3257 h -0.3257 -0.3257 z m -503.1118,-84.9331 1.3125,-0.5252 0.6042,0.6041 0.6041,0.6042 -1.9166,-0.079 -1.9167,-0.079 1.3125,-0.5252 z m 32.4565,-3.0099 1.7691,-0.461 1.2309,0.4981 1.231,0.498 -3,-0.037 -3,-0.037 1.769,-0.461 z m 110.481,0.031 1.25,-0.5044 1.25,0.5044 1.25,0.5044 h -2.5 -2.5 z m -92,-1 1.25,-0.5044 1.25,0.5044 1.25,0.5044 h -2.5 -2.5 z m 73,0 1.25,-0.5044 1.25,0.5044 1.25,0.5044 h -2.5 -2.5 z m -130.9375,-35.0208 1.3125,-0.5252 0.6042,0.6041 0.6041,0.6042 -1.9166,-0.079 -1.9167,-0.079 1.3125,-0.5252 z m 191,0 1.3125,-0.5252 0.6042,0.6041 0.6041,0.6042 -1.9166,-0.079 -1.9167,-0.079 1.3125,-0.5252 z m -182,-1 1.3125,-0.5252 0.6042,0.6041 0.6041,0.6042 -1.9166,-0.079 -1.9167,-0.079 1.3125,-0.5252 z m 24,-2 1.3125,-0.5252 0.6042,0.6041 0.6041,0.6042 -1.9166,-0.079 -1.9167,-0.079 1.3125,-0.5252 z m 126,0 1.3125,-0.5252 0.6042,0.6041 0.6041,0.6042 -1.9166,-0.079 -1.9167,-0.079 1.3125,-0.5252 z m -108.5435,-1.0099 1.7691,-0.461 1.2309,0.4981 1.231,0.498 -3,-0.037 -3,-0.037 1.769,-0.461 z m 90,0 1.7691,-0.461 1.2309,0.4981 1.231,0.498 -3,-0.037 -3,-0.037 1.769,-0.461 z m -46.019,-1.0233 2.75,-0.4165 2.75,0.4165 2.75,0.4166 h -5.5 -5.5 z"
         id="path243" />
      <path
         style="fill:#000000;fill-opacity:1"
         d="m 1295.0016,1985.1014 1.75,-0.4573 1.75,0.4573 1.75,0.4573 h -3.5 -3.5 z m 66.019,0 1.7691,-0.461 1.2309,0.4981 1.231,0.498 -3,-0.037 -3,-0.037 1.769,-0.461 z m -81.4565,-0.9901 1.3125,-0.5252 0.6042,0.6041 0.6041,0.6042 -1.9166,-0.079 -1.9167,-0.079 1.3125,-0.5252 z m 97.9375,0.021 1.25,-0.5044 1.25,0.5044 1.25,0.5044 h -2.5 -2.5 z m 18.0625,-1.0208 1.3125,-0.5252 0.6042,0.6041 0.6041,0.6042 -1.9166,-0.079 -1.9167,-0.079 1.3125,-0.5252 z m -146,-1 1.3125,-0.5252 0.6042,0.6041 0.6041,0.6042 -1.9166,-0.079 -1.9167,-0.079 1.3125,-0.5252 z m 112.9375,-35.9792 1.25,-0.5044 1.25,0.5044 1.25,0.5044 h -2.5 -2.5 z m -83,-1 1.25,-0.5044 1.25,0.5044 1.25,0.5044 h -2.5 -2.5 z m 105.519,-0.031 1.7691,-0.461 1.2309,0.4981 1.231,0.498 -3,-0.037 -3,-0.037 1.769,-0.461 z m 13.481,-0.9693 1.25,-0.5044 1.25,0.5044 1.25,0.5044 h -2.5 -2.5 z m 15.0625,-1.0208 1.3125,-0.5252 0.6042,0.6041 0.6041,0.6042 -1.9166,-0.079 -1.9167,-0.079 1.3125,-0.5252 z m 6.9375,-0.9792 1.25,-0.5044 1.25,0.5044 1.25,0.5044 h -2.5 -2.5 z m -35.6711,-41.921 0.079,-1.9167 0.5252,1.3125 0.5252,1.3125 -0.6041,0.6042 -0.6042,0.6041 0.079,-1.9166 z m -74.7427,-24.4203 v -7.5 l 0.3923,3.75 0.3922,3.75 -0.3922,3.75 -0.3923,3.75 z m 415.6638,-7.3776 v -0.3775 l 1.75,-1.3725 1.75,-1.3724 -1.3724,1.75 -1.3725,1.75 h -0.3775 -0.3776 z m 7.5,-6.6224 1.81,-2 h 0.5 0.5 l -1.81,2 -1.81,2 h -0.5 -0.5 z m -808.62761,-0.75 -1.3724,-1.75 1.75,1.3724 1.75,1.3725 v 0.3775 0.3776 h -0.3776 -0.3775 z m -12,-11 -1.3724,-1.75 1.75,1.3724 1.75,1.3725 v 0.3775 0.3776 h -0.3776 -0.3775 z m 806.62761,-28.25 1.81,-2 h 0.5 0.5 l -1.81,2 -1.81,2 h -0.5 -0.5 z m 11.5,-12.3776 v -0.3775 l 1.75,-1.3725 1.75,-1.3724 -1.3724,1.75 -1.3725,1.75 h -0.3775 -0.3776 z m -362.75,-5.3117 1.75,-0.4573 1.75,0.4573 1.75,0.4573 h -3.5 -3.5 z m -94.5,-0.973 1.25,-0.5044 1.25,0.5044 1.25,0.5044 h -2.5 -2.5 z m 110.0625,-0.021 1.3125,-0.5252 0.6042,0.6041 0.6041,0.6042 -1.9166,-0.079 -1.9167,-0.079 1.3125,-0.5252 z m -126,-1 1.3125,-0.5252 0.6042,0.6041 0.6041,0.6042 -1.9166,-0.079 -1.9167,-0.079 1.3125,-0.5252 z m -10,-1 1.3125,-0.5252 0.6042,0.6041 0.6041,0.6042 -1.9166,-0.079 -1.9167,-0.079 1.3125,-0.5252 z m 162,0 1.3125,-0.5252 0.6042,0.6041 0.6041,0.6042 -1.9166,-0.079 -1.9167,-0.079 1.3125,-0.5252 z m -82.5625,-35.0332 2.75,-0.4165 2.75,0.4165 2.75,0.4166 h -5.5 -5.5 z m -41.4375,-0.9668 1.3125,-0.5252 0.6042,0.6041 0.6041,0.6042 -1.9166,-0.079 -1.9167,-0.079 1.3125,-0.5252 z m 86.4565,-0.01 1.7691,-0.461 1.2309,0.4981 1.231,0.498 -3,-0.037 -3,-0.037 1.769,-0.461 z m -98.519,-0.9693 1.25,-0.5044 1.25,0.5044 1.25,0.5044 h -2.5 -2.5 z m 111.0625,-0.021 1.3125,-0.5252 0.6042,0.6041 0.6041,0.6042 -1.9166,-0.079 -1.9167,-0.079 1.3125,-0.5252 z m -126,-1 1.3125,-0.5252 0.6042,0.6041 0.6041,0.6042 -1.9166,-0.079 -1.9167,-0.079 1.3125,-0.5252 z m 514.2664,-47.9002 0.079,-1.9167 0.5252,1.3125 0.5252,1.3125 -0.6041,0.6042 -0.6042,0.6041 0.079,-1.9166 z m -886.88401,-2.9167 0.037,-3 0.461,1.769 0.461,1.7691 -0.4981,1.2309 -0.498,1.231 0.037,-3 z m -38.7157,-89 1e-4,-91 0.2705,45.8255 0.2705,45.8255 -0.2706,45.1745 -0.2706,45.1745 z m 964.71571,87 0.037,-3 0.461,1.769 0.461,1.7691 -0.4981,1.2309 -0.498,1.231 0.037,-3 z m -892.27061,-30.25 -2.4243,-2.75 2.75,2.4243 2.75,2.4243 v 0.3257 0.3257 h -0.3257 -0.3257 z m 817.07571,2.3724 v -0.3775 l 1.75,-1.3725 1.75,-1.3724 -1.3724,1.75 -1.3725,1.75 h -0.3775 -0.3776 z m -840.59501,-25.8724 -1.905,-2.25 2.25,1.905 2.25,1.905 v 0.345 0.345 h -0.345 -0.345 z m 866.09501,0.25 1.81,-2 h 0.5 0.5 l -1.81,2 -1.81,2 h -0.5 -0.5 z m -812.62761,-1.75 -1.3724,-1.75 1.75,1.3724 1.75,1.3725 v 0.3775 0.3776 h -0.3776 -0.3775 z m 758.12761,1.3724 v -0.3775 l 1.75,-1.3725 1.75,-1.3724 -1.3724,1.75 -1.3725,1.75 h -0.3775 -0.3776 z m 9,-7.9353 v -0.3129 l 3.25,-2.9371 3.25,-2.9371 -2.9371,3.25 -2.9371,3.25 h -0.3129 -0.3129 z m -783.59501,-8.9371 -1.905,-2.25 2.25,1.905 2.25,1.905 v 0.345 0.345 h -0.345 -0.345 z m 792.09501,0.25 1.81,-2 h 0.5 0.5 l -1.81,2 -1.81,2 h -0.5 -0.5 z m -786.50001,-10.3776 v -0.3775 l 1.75,-1.3725 1.75,-1.3724 -1.3724,1.75 -1.3725,1.75 h -0.3775 -0.3776 z m 778.40501,-2.8724 -1.905,-2.25 2.25,1.905 2.25,1.905 v 0.345 0.345 h -0.345 -0.345 z m -805.40501,-25.2495 3.3923,-3.5 h 0.5 0.5 l -3.3923,3.5 -3.3923,3.5 h -0.5 -0.5 z m 830.87241,-4.25 -1.3724,-1.75 1.75,1.3724 1.75,1.3725 v 0.3775 0.3776 h -0.3776 -0.3775 z m -15,-13 -1.3724,-1.75 1.75,1.3724 1.75,1.3725 v 0.3775 0.3776 h -0.3776 -0.3775 z m -841.79351,-40.8333 0.079,-1.9167 0.5252,1.3125 0.5252,1.3125 -0.6041,0.6042 -0.6042,0.6041 0.079,-1.9166 z m 887.00001,0 0.079,-1.9167 0.5252,1.3125 0.5252,1.3125 -0.6041,0.6042 -0.6042,0.6041 0.079,-1.9166 z m 39.116,-11.9167 0.037,-3 0.461,1.769 0.461,1.7691 -0.4981,1.2309 -0.498,1.231 0.037,-3 z m -39.037,-0.5 v -2.5 l 0.5044,1.25 0.5044,1.25 -0.5044,1.25 -0.5044,1.25 z m -887.00001,-1 v -2.5 l 0.5044,1.25 0.5044,1.25 -0.5044,1.25 -0.5044,1.25 z m 369.59211,-19.6623 1.25,-0.5044 1.25,0.5044 1.25,0.5044 h -2.5 -2.5 z m 147.0625,-0.021 1.3125,-0.5252 0.6042,0.6041 0.6041,0.6042 -1.9166,-0.079 -1.9167,-0.079 1.3125,-0.5252 z m -11,-1 1.3125,-0.5252 0.6042,0.6041 0.6041,0.6042 -1.9166,-0.079 -1.9167,-0.079 1.3125,-0.5252 z m -107.0625,-0.9792 1.25,-0.5044 1.25,0.5044 1.25,0.5044 h -2.5 -2.5 z m 88,0 1.25,-0.5044 1.25,0.5044 1.25,0.5044 h -2.5 -2.5 z m -69,-1.0434 2.25,-0.4334 2.25,0.4334 2.25,0.4333 h -4.5 -4.5 z m 48.5137,-0.012 2.7638,-0.4179 2.2362,0.4316 2.2363,0.4315 -5,-0.014 -5,-0.014 2.7637,-0.4179 z m -96.4512,-35.9655 1.3125,-0.5252 0.6042,0.6041 0.6041,0.6042 -1.9166,-0.079 -1.9167,-0.079 1.3125,-0.5252 z m 145.9375,0.021 1.25,-0.5044 1.25,0.5044 1.25,0.5044 h -2.5 -2.5 z m -134.9375,-1.0208 1.3125,-0.5252 0.6042,0.6041 0.6041,0.6042 -1.9166,-0.079 -1.9167,-0.079 1.3125,-0.5252 z m 125,0 1.3125,-0.5252 0.6042,0.6041 0.6041,0.6042 -1.9166,-0.079 -1.9167,-0.079 1.3125,-0.5252 z m -105.0625,-0.9792 1.25,-0.5044 1.25,0.5044 1.25,0.5044 h -2.5 -2.5 z m 84.0625,-0.021 1.3125,-0.5252 0.6042,0.6041 0.6041,0.6042 -1.9166,-0.079 -1.9167,-0.079 1.3125,-0.5252 z m -61.0625,-1.0403 3.25,-0.4033 3.25,0.4033 3.25,0.4033 h -6.5 -6.5 z m 33.9777,0 3.2277,-0.4017 3.7723,0.3936 3.7723,0.3936 -7,0.01 -7,0.01 3.2277,-0.4016 z m -400.72771,-42.6539 v -0.3775 l 1.75,-1.3725 1.75,-1.3724 -1.3724,1.75 -1.3725,1.75 h -0.3775 -0.3776 z m 771.87241,-1.3724 -1.3724,-1.75 1.75,1.3724 1.75,1.3725 v 0.3775 0.3776 h -0.3776 -0.3775 z m -819.37241,-7.25 1.81,-2 h 0.5 0.5 l -1.81,2 -1.81,2 h -0.5 -0.5 z m 868.37241,0.25 -1.3724,-1.75 1.75,1.3724 1.75,1.3725 v 0.3775 0.3776 h -0.3776 -0.3775 z m -12.4674,-13.5 -1.905,-2.25 2.25,1.905 2.25,1.905 v 0.345 0.345 h -0.345 -0.345 z m -481.5925,-95.4331 1.3125,-0.5252 0.6042,0.6041 0.6041,0.6042 -1.9166,-0.079 -1.9167,-0.079 1.3125,-0.5252 z m 118,0 1.3125,-0.5252 0.6042,0.6041 0.6041,0.6042 -1.9166,-0.079 -1.9167,-0.079 1.3125,-0.5252 z m -100.0625,-0.9792 1.25,-0.5044 1.25,0.5044 1.25,0.5044 h -2.5 -2.5 z m 81.519,-0.031 1.7691,-0.461 1.2309,0.4981 1.231,0.498 -3,-0.037 -3,-0.037 1.769,-0.461 z m -45.019,-1.0355 3.75,-0.3922 3.75,0.3922 3.75,0.3923 h -7.5 -7.5 z m -66.4375,-35.9546 1.3125,-0.5252 0.6042,0.6041 0.6041,0.6042 -1.9166,-0.079 -1.9167,-0.079 1.3125,-0.5252 z m 12.4565,-1.0099 1.7691,-0.461 1.2309,0.4981 1.231,0.498 -3,-0.037 -3,-0.037 1.769,-0.461 z m 118,0 1.7691,-0.461 1.2309,0.4981 1.231,0.498 -3,-0.037 -3,-0.037 1.769,-0.461 z m -99,-1 1.7691,-0.461 1.2309,0.4981 1.231,0.498 -3,-0.037 -3,-0.037 1.769,-0.461 z m 80.481,0.031 1.25,-0.5044 1.25,0.5044 1.25,0.5044 h -2.5 -2.5 z"
         id="path241" />
      <path
         style="fill:#000000;fill-opacity:1"
         d="m 1301.5133,1985.0834 2.2616,-0.4349 1.7384,0.4551 1.7383,0.4551 -4,-0.02 -4,-0.02 2.2617,-0.4349 z m 51.9883,0 2.25,-0.4334 2.25,0.4334 2.25,0.4333 h -4.5 -4.5 z m -70.481,-0.9873 1.7691,-0.461 1.2309,0.4981 1.231,0.498 -3,-0.037 -3,-0.037 1.769,-0.461 z m 90.481,0.031 1.25,-0.5044 1.25,0.5044 1.25,0.5044 h -2.5 -2.5 z m -108.9375,-1.0208 1.3125,-0.5252 0.6042,0.6041 0.6041,0.6042 -1.9166,-0.079 -1.9167,-0.079 1.3125,-0.5252 z m 128,0 1.3125,-0.5252 0.6042,0.6041 0.6041,0.6042 -1.9166,-0.079 -1.9167,-0.079 1.3125,-0.5252 z m -140.0625,-0.9792 1.25,-0.5044 1.25,0.5044 1.25,0.5044 h -2.5 -2.5 z m 152,0 1.25,-0.5044 1.25,0.5044 1.25,0.5044 h -2.5 -2.5 z m 44.0625,-5.0208 1.3125,-0.5252 0.6042,0.6041 0.6041,0.6042 -1.9166,-0.079 -1.9167,-0.079 1.3125,-0.5252 z m -112.9401,-32.0669 -1.3724,-1.75 1.75,1.3724 1.75,1.3725 v 0.3775 0.3776 h -0.3776 -0.3775 z m 31.8893,1.0427 2.2616,-0.4349 1.7384,0.4551 1.7383,0.4551 -4,-0.02 -4,-0.02 2.2617,-0.4349 z m -92.4927,-0.9857 1.7691,-0.461 1.2309,0.4981 1.231,0.498 -3,-0.037 -3,-0.037 1.769,-0.461 z m 115,0 1.7691,-0.461 1.2309,0.4981 1.231,0.498 -3,-0.037 -3,-0.037 1.769,-0.461 z m -128.4565,-0.9901 1.3125,-0.5252 0.6042,0.6041 0.6041,0.6042 -1.9166,-0.079 -1.9167,-0.079 1.3125,-0.5252 z m 141.9375,-0.023 2.25,-0.4334 2.25,0.4334 2.25,0.4333 h -4.5 -4.5 z m -154.9375,-0.9774 1.3125,-0.5252 0.6042,0.6041 0.6041,0.6042 -1.9166,-0.079 -1.9167,-0.079 1.3125,-0.5252 z m 176,-1 1.3125,-0.5252 0.6042,0.6041 0.6041,0.6042 -1.9166,-0.079 -1.9167,-0.079 1.3125,-0.5252 z m -16.5625,-22.0062 1.75,-0.4573 1.75,0.4573 1.75,0.4573 h -3.5 -3.5 z m 146.5625,-4.9938 1.3125,-0.5252 0.6042,0.6041 0.6041,0.6042 -1.9166,-0.079 -1.9167,-0.079 1.3125,-0.5252 z m 4,-1 1.3125,-0.5252 0.6042,0.6041 0.6041,0.6042 -1.9166,-0.079 -1.9167,-0.079 1.3125,-0.5252 z m 11.1875,-3.8152 2.5,-1.4291 h 1 1 l -2.5,1.4291 -2.5,1.4291 h -1 -1 z m -180,-21.8776 v -0.3775 l 1.75,-1.3725 1.75,-1.3724 -1.3724,1.75 -1.3725,1.75 h -0.3775 -0.3776 z m -79.8421,-3.6224 v -2.5 l 0.5044,1.25 0.5044,1.25 -0.5044,1.25 -0.5044,1.25 z m 0,-18 v -2.5 l 0.5044,1.25 0.5044,1.25 -0.5044,1.25 -0.5044,1.25 z m -388.28551,-8.75 -1.3724,-1.75 1.75,1.3724 1.75,1.3725 v 0.3775 0.3776 h -0.3776 -0.3775 z m 815.62761,-0.25 1.81,-2 h 0.5 0.5 l -1.81,2 -1.81,2 h -0.5 -0.5 z m -464.4211,-3.5833 0.079,-1.9167 0.5252,1.3125 0.5252,1.3125 -0.6041,0.6042 -0.6042,0.6041 0.079,-1.9166 z m 117.7935,-3.1667 -1.3724,-1.75 1.75,1.3724 1.75,1.3725 v 0.3775 0.3776 h -0.3776 -0.3775 z m -490.00001,-14 -1.3724,-1.75 1.75,1.3724 1.75,1.3725 v 0.3775 0.3776 h -0.3776 -0.3775 z m 803.12761,-0.6276 v -0.3775 l 1.75,-1.3725 1.75,-1.3724 -1.3724,1.75 -1.3725,1.75 h -0.3775 -0.3776 z m -766.02891,-16.3724 -6.4711,-6.75 6.75,6.4711 6.75,6.4711 v 0.2789 0.2789 h -0.2789 -0.2789 z m 777.02891,6.3724 v -0.3775 l 1.75,-1.3725 1.75,-1.3724 -1.3724,1.75 -1.3725,1.75 h -0.3775 -0.3776 z m 10,-10.1224 3.3923,-3.5 h 0.5 0.5 l -3.3923,3.5 -3.3923,3.5 h -0.5 -0.5 z m -800.12761,-10.25 -1.3724,-1.75 1.75,1.3724 1.75,1.3725 v 0.3775 0.3776 h -0.3776 -0.3775 z m 437.37761,-1.9393 1.75,-0.4573 1.75,0.4573 1.75,0.4573 h -3.5 -3.5 z m -84.5,-0.973 1.25,-0.5044 1.25,0.5044 1.25,0.5044 h -2.5 -2.5 z m 102,0 1.25,-0.5044 1.25,0.5044 1.25,0.5044 h -2.5 -2.5 z m -118.9375,-1.0208 1.3125,-0.5252 0.6042,0.6041 0.6041,0.6042 -1.9166,-0.079 -1.9167,-0.079 1.3125,-0.5252 z m 137,0 1.3125,-0.5252 0.6042,0.6041 0.6041,0.6042 -1.9166,-0.079 -1.9167,-0.079 1.3125,-0.5252 z m -147,-1 1.3125,-0.5252 0.6042,0.6041 0.6041,0.6042 -1.9166,-0.079 -1.9167,-0.079 1.3125,-0.5252 z m 156,0 1.3125,-0.5252 0.6042,0.6041 0.6041,0.6042 -1.9166,-0.079 -1.9167,-0.079 1.3125,-0.5252 z m 45,-5 1.3125,-0.5252 0.6042,0.6041 0.6041,0.6042 -1.9166,-0.079 -1.9167,-0.079 1.3125,-0.5252 z m -138.0361,-30.0504 4.2765,-0.3841 3.7235,0.3907 3.7236,0.3907 -8,-0.01 -8,-0.01 4.2764,-0.3841 z m 25,0 4.2765,-0.3841 3.7235,0.3907 3.7236,0.3907 -8,-0.01 -8,-0.01 4.2764,-0.3841 z m -57.0264,-0.9288 1.25,-0.5044 1.25,0.5044 1.25,0.5044 h -2.5 -2.5 z m 95.0625,-0.021 1.3125,-0.5252 0.6042,0.6041 0.6041,0.6042 -1.9166,-0.079 -1.9167,-0.079 1.3125,-0.5252 z m -107.0625,-0.9792 1.25,-0.5044 1.25,0.5044 1.25,0.5044 h -2.5 -2.5 z m 118,0 1.25,-0.5044 1.25,0.5044 1.25,0.5044 h -2.5 -2.5 z m 15.0625,-1.0208 1.3125,-0.5252 0.6042,0.6041 0.6041,0.6042 -1.9166,-0.079 -1.9167,-0.079 1.3125,-0.5252 z m -158,-1 1.3125,-0.5252 0.6042,0.6041 0.6041,0.6042 -1.9166,-0.079 -1.9167,-0.079 1.3125,-0.5252 z m 169,0 1.3125,-0.5252 0.6042,0.6041 0.6041,0.6042 -1.9166,-0.079 -1.9167,-0.079 1.3125,-0.5252 z m 359.2664,-43.9002 0.079,-1.9167 0.5252,1.3125 0.5252,1.3125 -0.6041,0.6042 -0.6042,0.6041 0.079,-1.9166 z m -886.92101,-1.4167 v -2.5 l 0.5044,1.25 0.5044,1.25 -0.5044,1.25 -0.5044,1.25 z m 926.32051,-96 v -87.5 l 0.2713,43.75 0.2713,43.75 -0.2713,43.75 -0.2713,43.75 z m -70.4784,56.5 2.3486,-2.5 h 0.5 0.5 l -2.3486,2.5 -2.3486,2.5 h -0.5 -0.5 z m -842.12761,-17.25 -1.3724,-1.75 1.75,1.3724 1.75,1.3725 v 0.3775 0.3776 h -0.3776 -0.3775 z m 44.0519,-10 -2.4243,-2.75 2.75,2.4243 2.75,2.4243 v 0.3257 0.3257 h -0.3257 -0.3257 z m 770.07571,1.3724 v -0.3775 l 1.75,-1.3725 1.75,-1.3724 -1.3724,1.75 -1.3725,1.75 h -0.3775 -0.3776 z m -770.00001,-27.1224 2.3486,-2.5 h 0.5 0.5 l -2.3486,2.5 -2.3486,2.5 h -0.5 -0.5 z m 769.87241,-1.25 -1.3724,-1.75 1.75,1.3724 1.75,1.3725 v 0.3775 0.3776 h -0.3776 -0.3775 z m 34.0738,-21 -3.4462,-3.75 3.75,3.4462 3.75,3.4461 v 0.3039 0.3038 h -0.3038 -0.3039 z m -826.94621,-8.6274 v -0.3775 l 1.75,-1.3725 1.75,-1.3724 -1.3724,1.75 -1.3725,1.75 h -0.3775 -0.3776 z m 814.87241,-2.3724 -1.3724,-1.75 1.75,1.3724 1.75,1.3725 v 0.3775 0.3776 h -0.3776 -0.3775 z m 37.2065,-44.8333 0.079,-1.9167 0.5252,1.3125 0.5252,1.3125 -0.6041,0.6042 -0.6042,0.6041 0.079,-1.9166 z m 0,-19 0.079,-1.9167 0.5252,1.3125 0.5252,1.3125 -0.6041,0.6042 -0.6042,0.6041 0.079,-1.9166 z m -546.2664,-14.0998 1.3125,-0.5252 0.6042,0.6041 0.6041,0.6042 -1.9166,-0.079 -1.9167,-0.079 1.3125,-0.5252 z m 26,-3 1.3125,-0.5252 0.6042,0.6041 0.6041,0.6042 -1.9166,-0.079 -1.9167,-0.079 1.3125,-0.5252 z m 152.9375,0.021 1.25,-0.5044 1.25,0.5044 1.25,0.5044 h -2.5 -2.5 z m -140.9375,-1.0208 1.3125,-0.5252 0.6042,0.6041 0.6041,0.6042 -1.9166,-0.079 -1.9167,-0.079 1.3125,-0.5252 z m 15.9375,-0.9792 1.25,-0.5044 1.25,0.5044 1.25,0.5044 h -2.5 -2.5 z m 96,0 1.25,-0.5044 1.25,0.5044 1.25,0.5044 h -2.5 -2.5 z m -79.5,-1.027 1.75,-0.4573 1.75,0.4573 1.75,0.4573 h -3.5 -3.5 z m 63,0 1.75,-0.4573 1.75,0.4573 1.75,0.4573 h -3.5 -3.5 z m -124.4375,-33.9938 1.3125,-0.5252 0.6042,0.6041 0.6041,0.6042 -1.9166,-0.079 -1.9167,-0.079 1.3125,-0.5252 z m 186,0 1.3125,-0.5252 0.6042,0.6041 0.6041,0.6042 -1.9166,-0.079 -1.9167,-0.079 1.3125,-0.5252 z m -163,-2 1.3125,-0.5252 0.6042,0.6041 0.6041,0.6042 -1.9166,-0.079 -1.9167,-0.079 1.3125,-0.5252 z m 140,0 1.3125,-0.5252 0.6042,0.6041 0.6041,0.6042 -1.9166,-0.079 -1.9167,-0.079 1.3125,-0.5252 z m -129,-1 1.3125,-0.5252 0.6042,0.6041 0.6041,0.6042 -1.9166,-0.079 -1.9167,-0.079 1.3125,-0.5252 z m 117.9375,0.021 1.25,-0.5044 1.25,0.5044 1.25,0.5044 h -2.5 -2.5 z m -96.9375,-1.0208 1.3125,-0.5252 0.6042,0.6041 0.6041,0.6042 -1.9166,-0.079 -1.9167,-0.079 1.3125,-0.5252 z m 75.9375,0.021 1.25,-0.5044 1.25,0.5044 1.25,0.5044 h -2.5 -2.5 z m -42.5,-1.0767 5.75,-0.3608 5.75,0.3608 5.75,0.3608 h -11.5 -11.5 z m -378.25001,-45.6386 v -0.3775 l 1.75,-1.3725 1.75,-1.3724 -1.3724,1.75 -1.3725,1.75 h -0.3775 -0.3776 z m 765.87241,-1.3724 -1.3724,-1.75 1.75,1.3724 1.75,1.3725 v 0.3775 0.3776 h -0.3776 -0.3775 z m -793.87241,-26.6282 v -0.3775 l 1.75,-1.3725 1.75,-1.3724 -1.3724,1.75 -1.3725,1.75 h -0.3775 -0.3776 z m 8,-7 v -0.3775 l 1.75,-1.3725 1.75,-1.3724 -1.3724,1.75 -1.3725,1.75 h -0.3775 -0.3776 z m 805.87241,-1.3724 -1.3724,-1.75 1.75,1.3724 1.75,1.3725 v 0.3775 0.3776 h -0.3776 -0.3775 z m -496.0599,-74.9331 1.3125,-0.5252 0.6042,0.6041 0.6041,0.6042 -1.9166,-0.079 -1.9167,-0.079 1.3125,-0.5252 z m 186,0 1.3125,-0.5252 0.6042,0.6041 0.6041,0.6042 -1.9166,-0.079 -1.9167,-0.079 1.3125,-0.5252 z m -164,-2 1.3125,-0.5252 0.6042,0.6041 0.6041,0.6042 -1.9166,-0.079 -1.9167,-0.079 1.3125,-0.5252 z m 9,-1 1.3125,-0.5252 0.6042,0.6041 0.6041,0.6042 -1.9166,-0.079 -1.9167,-0.079 1.3125,-0.5252 z m 123.9375,0.021 1.25,-0.5044 1.25,0.5044 1.25,0.5044 h -2.5 -2.5 z m -107,-1 1.25,-0.5044 1.25,0.5044 1.25,0.5044 h -2.5 -2.5 z m 90,0 1.25,-0.5044 1.25,0.5044 1.25,0.5044 h -2.5 -2.5 z m -63.9736,-1.0712 4.2765,-0.3841 3.7235,0.3907 3.7236,0.3907 -8,-0.01 -8,-0.01 4.2764,-0.3841 z m 29.4736,0 4.75,-0.3746 4.75,0.3746 4.75,0.3745 h -9.5 -9.5 z m -100.4375,-33.9481 1.3125,-0.5252 0.6042,0.6041 0.6041,0.6042 -1.9166,-0.079 -1.9167,-0.079 1.3125,-0.5252 z m 22,-2 1.3125,-0.5252 0.6042,0.6041 0.6041,0.6042 -1.9166,-0.079 -1.9167,-0.079 1.3125,-0.5252 z m 138,0 1.3125,-0.5252 0.6042,0.6041 0.6041,0.6042 -1.9166,-0.079 -1.9167,-0.079 1.3125,-0.5252 z m -124.0625,-0.9792 1.25,-0.5044 1.25,0.5044 1.25,0.5044 h -2.5 -2.5 z m 108.519,-0.031 1.7691,-0.461 1.2309,0.4981 1.231,0.498 -3,-0.037 -3,-0.037 1.769,-0.461 z m -89,-1 1.7691,-0.461 1.2309,0.4981 1.231,0.498 -3,-0.037 -3,-0.037 1.769,-0.461 z m 71,0 1.7691,-0.461 1.2309,0.4981 1.231,0.498 -3,-0.037 -3,-0.037 1.769,-0.461 z"
         id="path239" />
      <path
         style="fill:#000000;fill-opacity:1"
         d="m 1318.058,1985.0434 11.8064,-0.3171 11.1936,0.3184 11.1936,0.3185 h -23 -23 l 11.8064,-0.3172 z m -30.5564,-0.915 1.25,-0.5044 1.25,0.5044 1.25,0.5044 h -2.5 -2.5 z m 80.5,-0.027 1.75,-0.4573 1.75,0.4573 1.75,0.4573 h -3.5 -3.5 z m 21.5625,-0.9938 1.3125,-0.5252 0.6042,0.6041 0.6041,0.6042 -1.9166,-0.079 -1.9167,-0.079 1.3125,-0.5252 z m -133,-1 1.3125,-0.5252 0.6042,0.6041 0.6041,0.6042 -1.9166,-0.079 -1.9167,-0.079 1.3125,-0.5252 z m 143.9375,0.021 1.25,-0.5044 1.25,0.5044 1.25,0.5044 h -2.5 -2.5 z m -188.9375,-5.0208 1.3125,-0.5252 0.6042,0.6041 0.6041,0.6042 -1.9166,-0.079 -1.9167,-0.079 1.3125,-0.5252 z m 75,-31 1.3125,-0.5252 0.6042,0.6041 0.6041,0.6042 -1.9166,-0.079 -1.9167,-0.079 1.3125,-0.5252 z m 87.4375,-0.01 1.75,-0.4573 1.75,0.4573 1.75,0.4573 h -3.5 -3.5 z m -103.981,-1.0037 1.7691,-0.461 1.2309,0.4981 1.231,0.498 -3,-0.037 -3,-0.037 1.769,-0.461 z m 125,0 1.7691,-0.461 1.2309,0.4981 1.231,0.498 -3,-0.037 -3,-0.037 1.769,-0.461 z m 15.981,-0.9963 1.75,-0.4573 1.75,0.4573 1.75,0.4573 h -3.5 -3.5 z m 7.5625,-0.9938 1.3125,-0.5252 0.6042,0.6041 0.6041,0.6042 -1.9166,-0.079 -1.9167,-0.079 1.3125,-0.5252 z m 9,-1 1.3125,-0.5252 0.6042,0.6041 0.6041,0.6042 -1.9166,-0.079 -1.9167,-0.079 1.3125,-0.5252 z m 5,-1 1.3125,-0.5252 0.6042,0.6041 0.6041,0.6042 -1.9166,-0.079 -1.9167,-0.079 1.3125,-0.5252 z m 14,-2 1.3125,-0.5252 0.6042,0.6041 0.6041,0.6042 -1.9166,-0.079 -1.9167,-0.079 1.3125,-0.5252 z m 105.9375,-22.9792 1.25,-0.5044 1.25,0.5044 1.25,0.5044 h -2.5 -2.5 z m 11.75,-3.1082 8,-2.891 2,-0.6806 2,-0.6806 -6.0648,2.9313 -6.0648,2.9313 -3.9352,0.6403 -3.9352,0.6403 z m 14.5,-5.6225 v -0.393 l 1.5519,-0.5956 1.552,-0.5955 -0.611,0.9886 -0.6109,0.9885 h -0.941 -0.941 z m 5.7333,-2.7311 1.2334,-1.2426 0.5598,0.5598 0.5598,0.5598 -1.7932,0.6828 -1.7931,0.6828 z m -274.6544,-16.4592 0.079,-1.9167 0.5252,1.3125 0.5252,1.3125 -0.6041,0.6042 -0.6042,0.6041 0.079,-1.9166 z m 113.7935,-0.1667 -1.3724,-1.75 1.75,1.3724 1.75,1.3725 v 0.3775 0.3776 h -0.3776 -0.3775 z m 202.8609,-1.3741 1.2334,-1.2426 0.5598,0.5598 0.5598,0.5598 -1.7932,0.6828 -1.7931,0.6828 z m -691.86091,-17.6259 -1.3724,-1.75 1.75,1.3724 1.75,1.3725 v 0.3775 0.3776 h -0.3776 -0.3775 z m 472.87761,-10.9123 1.25,-0.5044 1.25,0.5044 1.25,0.5044 h -2.5 -2.5 z m -489.82571,-4.0877 -2.4243,-2.75 2.75,2.4243 2.75,2.4243 v 0.3257 0.3257 h -0.3257 -0.3257 z m 823.57571,-0.2464 1.81,-2 h 0.5 0.5 l -1.81,2 -1.81,2 h -0.5 -0.5 z m 10,-10 4.9248,-5 h 0.5 0.5 l -4.9248,5 -4.9248,5 h -0.5 -0.5 z m -845.55381,-1.75 -3.4462,-3.75 3.75,3.4462 3.75,3.4461 v 0.3039 0.3038 h -0.3038 -0.3039 z m 855.05381,-8.6276 v -0.3775 l 1.75,-1.3725 1.75,-1.3724 -1.3724,1.75 -1.3725,1.75 h -0.3775 -0.3776 z m -865.12761,-2.3724 -1.3724,-1.75 1.75,1.3724 1.75,1.3725 v 0.3775 0.3776 h -0.3776 -0.3775 z m 51.0519,-2 -2.4243,-2.75 2.75,2.4243 2.75,2.4243 v 0.3257 0.3257 h -0.3257 -0.3257 z m 763.07571,2.3724 v -0.3775 l 1.75,-1.3725 1.75,-1.3724 -1.3724,1.75 -1.3725,1.75 h -0.3775 -0.3776 z m 19,-19 v -0.3775 l 1.75,-1.3725 1.75,-1.3724 -1.3724,1.75 -1.3725,1.75 h -0.3775 -0.3776 z m -379.2236,-8.3559 4.2765,-0.3841 3.7235,0.3907 3.7236,0.3907 -8,-0.01 -8,-0.01 4.2764,-0.3841 z m -68.0264,-0.9288 1.25,-0.5044 1.25,0.5044 1.25,0.5044 h -2.5 -2.5 z m 95.0625,-0.021 1.3125,-0.5252 0.6042,0.6041 0.6041,0.6042 -1.9166,-0.079 -1.9167,-0.079 1.3125,-0.5252 z m -123,-2 1.3125,-0.5252 0.6042,0.6041 0.6041,0.6042 -1.9166,-0.079 -1.9167,-0.079 1.3125,-0.5252 z m 150,0 1.3125,-0.5252 0.6042,0.6041 0.6041,0.6042 -1.9166,-0.079 -1.9167,-0.079 1.3125,-0.5252 z m -162,-1 1.3125,-0.5252 0.6042,0.6041 0.6041,0.6042 -1.9166,-0.079 -1.9167,-0.079 1.3125,-0.5252 z m 183.9375,-0.9792 1.25,-0.5044 1.25,0.5044 1.25,0.5044 h -2.5 -2.5 z m -217.9375,-3.0208 1.3125,-0.5252 0.6042,0.6041 0.6041,0.6042 -1.9166,-0.079 -1.9167,-0.079 1.3125,-0.5252 z m 96.9492,-30.0242 2.2616,-0.4349 1.7384,0.4551 1.7383,0.4551 -4,-0.02 -4,-0.02 2.2617,-0.4349 z m 47,0 2.2616,-0.4349 1.7384,0.4551 1.7383,0.4551 -4,-0.02 -4,-0.02 2.2617,-0.4349 z m -72.9492,-0.9758 1.3125,-0.5252 0.6042,0.6041 0.6041,0.6042 -1.9166,-0.079 -1.9167,-0.079 1.3125,-0.5252 z m 101,0 1.3125,-0.5252 0.6042,0.6041 0.6041,0.6042 -1.9166,-0.079 -1.9167,-0.079 1.3125,-0.5252 z m -114.5435,-1.0099 1.7691,-0.461 1.2309,0.4981 1.231,0.498 -3,-0.037 -3,-0.037 1.769,-0.461 z m 127,0 1.7691,-0.461 1.2309,0.4981 1.231,0.498 -3,-0.037 -3,-0.037 1.769,-0.461 z m -138.4565,-0.9901 1.3125,-0.5252 0.6042,0.6041 0.6041,0.6042 -1.9166,-0.079 -1.9167,-0.079 1.3125,-0.5252 z m -37,-4 1.3125,-0.5252 0.6042,0.6041 0.6041,0.6042 -1.9166,-0.079 -1.9167,-0.079 1.3125,-0.5252 z m 225,0 1.3125,-0.5252 0.6042,0.6041 0.6041,0.6042 -1.9166,-0.079 -1.9167,-0.079 1.3125,-0.5252 z m -593.73361,-35.9002 0.079,-1.9167 0.5252,1.3125 0.5252,1.3125 -0.6041,0.6042 -0.6042,0.6041 0.079,-1.9166 z m 926.36721,-44.9167 8e-4,-32 0.3016,16.313 0.3016,16.3129 -0.3023,15.6871 -0.3024,15.687 z m -889.00391,0.5 v -29.5 l 0.3057,14.75 0.3056,14.75 -0.3056,14.75 -0.3057,14.75 z m 44.4302,9.25 -1.3724,-1.75 1.75,1.3724 1.75,1.3725 v 0.3775 0.3776 h -0.3776 -0.3775 z m 798.12761,1.3724 v -0.3775 l 1.75,-1.3725 1.75,-1.3724 -1.3724,1.75 -1.3725,1.75 h -0.3775 -0.3776 z m -819.52681,-20.8724 -6.9732,-7.25 7.25,6.9732 7.25,6.9732 v 0.2768 0.2768 h -0.2768 -0.2768 z m 843.02681,-0.7498 6.9464,-7 h 0.5 0.5 l -6.9464,7 -6.9464,7 h -0.5 -0.5 z m -28.6276,-36.75 -1.3724,-1.75 1.75,1.3724 1.75,1.3725 v 0.3775 0.3776 h -0.3776 -0.3775 z m -12,-11 -1.3724,-1.75 1.75,1.3724 1.75,1.3725 v 0.3775 0.3776 h -0.3776 -0.3775 z m -792.37241,-24.25 1.81,-2 h 0.5 0.5 l -1.81,2 -1.81,2 h -0.5 -0.5 z m 820.37241,-1.75 -1.3724,-1.75 1.75,1.3724 1.75,1.3725 v 0.3775 0.3776 h -0.3776 -0.3775 z m -852.79351,-45.8333 0.079,-1.9167 0.5252,1.3125 0.5252,1.3125 -0.6041,0.6042 -0.6042,0.6041 0.079,-1.9166 z m -1,-11 0.079,-1.9167 0.5252,1.3125 0.5252,1.3125 -0.6041,0.6042 -0.6042,0.6041 0.079,-1.9166 z m 889.00001,0 0.079,-1.9167 0.5252,1.3125 0.5252,1.3125 -0.6041,0.6042 -0.6042,0.6041 0.079,-1.9166 z m -1,-13 0.079,-1.9167 0.5252,1.3125 0.5252,1.3125 -0.6041,0.6042 -0.6042,0.6041 0.079,-1.9166 z m -925.00001,-3 0.079,-1.9167 0.5252,1.3125 0.5252,1.3125 -0.6041,0.6042 -0.6042,0.6041 0.079,-1.9166 z m 375.73361,-8.0998 1.3125,-0.5252 0.6042,0.6041 0.6041,0.6042 -1.9166,-0.079 -1.9167,-0.079 1.3125,-0.5252 z m 211,0 1.3125,-0.5252 0.6042,0.6041 0.6041,0.6042 -1.9166,-0.079 -1.9167,-0.079 1.3125,-0.5252 z m -185,-3 1.3125,-0.5252 0.6042,0.6041 0.6041,0.6042 -1.9166,-0.079 -1.9167,-0.079 1.3125,-0.5252 z m 147,-1 1.3125,-0.5252 0.6042,0.6041 0.6041,0.6042 -1.9166,-0.079 -1.9167,-0.079 1.3125,-0.5252 z m -120.5435,-1.0099 1.7691,-0.461 1.2309,0.4981 1.231,0.498 -3,-0.037 -3,-0.037 1.769,-0.461 z m 105,0 1.7691,-0.461 1.2309,0.4981 1.231,0.498 -3,-0.037 -3,-0.037 1.769,-0.461 z m -89,-1 1.7691,-0.461 1.2309,0.4981 1.231,0.498 -3,-0.037 -3,-0.037 1.769,-0.461 z m 74,0 1.7691,-0.461 1.2309,0.4981 1.231,0.498 -3,-0.037 -3,-0.037 1.769,-0.461 z m -185.4565,-25.9901 1.3125,-0.5252 0.6042,0.6041 0.6041,0.6042 -1.9166,-0.079 -1.9167,-0.079 1.3125,-0.5252 z m 58,-8 1.3125,-0.5252 0.6042,0.6041 0.6041,0.6042 -1.9166,-0.079 -1.9167,-0.079 1.3125,-0.5252 z m 180,0 1.3125,-0.5252 0.6042,0.6041 0.6041,0.6042 -1.9166,-0.079 -1.9167,-0.079 1.3125,-0.5252 z m -157,-2 1.3125,-0.5252 0.6042,0.6041 0.6041,0.6042 -1.9166,-0.079 -1.9167,-0.079 1.3125,-0.5252 z m 134,0 1.3125,-0.5252 0.6042,0.6041 0.6041,0.6042 -1.9166,-0.079 -1.9167,-0.079 1.3125,-0.5252 z m -123,-1 1.3125,-0.5252 0.6042,0.6041 0.6041,0.6042 -1.9166,-0.079 -1.9167,-0.079 1.3125,-0.5252 z m 112,0 1.3125,-0.5252 0.6042,0.6041 0.6041,0.6042 -1.9166,-0.079 -1.9167,-0.079 1.3125,-0.5252 z m -90.5435,-1.0099 1.7691,-0.461 1.2309,0.4981 1.231,0.498 -3,-0.037 -3,-0.037 1.769,-0.461 z m 68.481,0.031 1.25,-0.5044 1.25,0.5044 1.25,0.5044 h -2.5 -2.5 z m 374.1224,-23.0877 -1.3724,-1.75 1.75,1.3724 1.75,1.3725 v 0.3775 0.3776 h -0.3776 -0.3775 z m -806.87241,-8.7503 2.3486,-2.5 h 0.5 0.5 l -2.3486,2.5 -2.3486,2.5 h -0.5 -0.5 z m 798.92431,-0.25 -2.4243,-2.75 2.75,2.4243 2.75,2.4243 v 0.3257 0.3257 h -0.3257 -0.3257 z m -7.4714,-7.5 -3.9529,-4.25 4.25,3.9529 4.25,3.953 v 0.297 0.2971 h -0.2971 -0.297 z m -780.95291,-2.75 1.81,-2 h 0.5 0.5 l -1.81,2 -1.81,2 h -0.5 -0.5 z m 817.90501,-15.25 -1.905,-2.25 2.25,1.905 2.25,1.905 v 0.345 0.345 h -0.345 -0.345 z m -856.90501,-0.75 1.81,-2 h 0.5 0.5 l -1.81,2 -1.81,2 h -0.5 -0.5 z m 13.5,-13.5 2.3486,-2.5 h 0.5 0.5 l -2.3486,2.5 -2.3486,2.5 h -0.5 -0.5 z m 827.43711,-1.75 -2.9371,-3.25 3.25,2.9371 3.25,2.9371 v 0.3129 0.3129 h -0.3129 -0.3129 z m -265.6246,-76.4331 1.3125,-0.5252 0.6042,0.6041 0.6041,0.6042 -1.9166,-0.079 -1.9167,-0.079 1.3125,-0.5252 z m -264,-5 1.3125,-0.5252 0.6042,0.6041 0.6041,0.6042 -1.9166,-0.079 -1.9167,-0.079 1.3125,-0.5252 z m 51,-6 1.3125,-0.5252 0.6042,0.6041 0.6041,0.6042 -1.9166,-0.079 -1.9167,-0.079 1.3125,-0.5252 z m 131,0 1.3125,-0.5252 0.6042,0.6041 0.6041,0.6042 -1.9166,-0.079 -1.9167,-0.079 1.3125,-0.5252 z m -114,-1 1.3125,-0.5252 0.6042,0.6041 0.6041,0.6042 -1.9166,-0.079 -1.9167,-0.079 1.3125,-0.5252 z m 97,0 1.3125,-0.5252 0.6042,0.6041 0.6041,0.6042 -1.9166,-0.079 -1.9167,-0.079 1.3125,-0.5252 z m -79.5625,-1.0332 2.75,-0.4165 2.75,0.4165 2.75,0.4166 h -5.5 -5.5 z m 57.0137,0 2.7638,-0.4179 2.2362,0.4316 2.2363,0.4315 -5,-0.014 -5,-0.014 2.7637,-0.4179 z m -132.4512,-31.9655 1.3125,-0.5252 0.6042,0.6041 0.6041,0.6042 -1.9166,-0.079 -1.9167,-0.079 1.3125,-0.5252 z m 212.9375,0.021 1.25,-0.5044 1.25,0.5044 1.25,0.5044 h -2.5 -2.5 z m -185.9375,-3.0208 1.3125,-0.5252 0.6042,0.6041 0.6041,0.6042 -1.9166,-0.079 -1.9167,-0.079 1.3125,-0.5252 z m 158.9375,0.021 1.25,-0.5044 1.25,0.5044 1.25,0.5044 h -2.5 -2.5 z m -129.5,-2.027 1.75,-0.4573 1.75,0.4573 1.75,0.4573 h -3.5 -3.5 z m 98,0 1.75,-0.4573 1.75,0.4573 1.75,0.4573 h -3.5 -3.5 z m -77.981,-1.0037 1.7691,-0.461 1.2309,0.4981 1.231,0.498 -3,-0.037 -3,-0.037 1.769,-0.461 z m 59.4927,-0.014 2.2616,-0.4349 1.7384,0.4551 1.7383,0.4551 -4,-0.02 -4,-0.02 2.2617,-0.4349 z"
         id="path237" />
      <path
         style="fill:#000000;fill-opacity:1"
         d="m 1292.0016,1984.1014 1.75,-0.4573 1.75,0.4573 1.75,0.4573 h -3.5 -3.5 z m 71.019,0 1.7691,-0.461 1.2309,0.4981 1.231,0.498 -3,-0.037 -3,-0.037 1.769,-0.461 z m -93,-1 1.7691,-0.461 1.2309,0.4981 1.231,0.498 -3,-0.037 -3,-0.037 1.769,-0.461 z m 116.5435,0.01 1.3125,-0.5252 0.6042,0.6041 0.6041,0.6042 -1.9166,-0.079 -1.9167,-0.079 1.3125,-0.5252 z m -127.0625,-0.9792 1.25,-0.5044 1.25,0.5044 1.25,0.5044 h -2.5 -2.5 z m 137,0 1.25,-0.5044 1.25,0.5044 1.25,0.5044 h -2.5 -2.5 z m -160,-2 1.25,-0.5044 1.25,0.5044 1.25,0.5044 h -2.5 -2.5 z m 183.519,-0.031 1.7691,-0.461 1.2309,0.4981 1.231,0.498 -3,-0.037 -3,-0.037 1.769,-0.461 z m 23.5435,-2.9901 1.3125,-0.5252 0.6042,0.6041 0.6041,0.6042 -1.9166,-0.079 -1.9167,-0.079 1.3125,-0.5252 z m -263,-5 1.3125,-0.5252 0.6042,0.6041 0.6041,0.6042 -1.9166,-0.079 -1.9167,-0.079 1.3125,-0.5252 z m 163.4375,-25.0519 4.75,-0.3746 4.75,0.3746 4.75,0.3745 h -9.5 -9.5 z m -61.5,-0.9273 1.25,-0.5044 1.25,0.5044 1.25,0.5044 h -2.5 -2.5 z m 98.0117,-0.045 2.2616,-0.4349 1.7384,0.4551 1.7383,0.4551 -4,-0.02 -4,-0.02 2.2617,-0.4349 z m -115.0117,-0.955 1.25,-0.5044 1.25,0.5044 1.25,0.5044 h -2.5 -2.5 z m 135.9777,-0.059 3.2277,-0.4017 3.7723,0.3936 3.7723,0.3936 -7,0.01 -7,0.01 3.2277,-0.4016 z m -144.9152,-0.9614 1.3125,-0.5252 0.6042,0.6041 0.6041,0.6042 -1.9166,-0.079 -1.9167,-0.079 1.3125,-0.5252 z m 159.9375,0.021 1.25,-0.5044 1.25,0.5044 1.25,0.5044 h -2.5 -2.5 z m 5.519,-1.0307 1.7691,-0.461 1.2309,0.4981 1.231,0.498 -3,-0.037 -3,-0.037 1.769,-0.461 z m -185.519,-0.9693 1.25,-0.5044 1.25,0.5044 1.25,0.5044 h -2.5 -2.5 z m 194.0625,-0.021 1.3125,-0.5252 0.6042,0.6041 0.6041,0.6042 -1.9166,-0.079 -1.9167,-0.079 1.3125,-0.5252 z m 4.9375,-0.9792 1.25,-0.5044 1.25,0.5044 1.25,0.5044 h -2.5 -2.5 z m -215.9375,-1.0208 1.3125,-0.5252 0.6042,0.6041 0.6041,0.6042 -1.9166,-0.079 -1.9167,-0.079 1.3125,-0.5252 z m 241,-3 1.3125,-0.5252 0.6042,0.6041 0.6041,0.6042 -1.9166,-0.079 -1.9167,-0.079 1.3125,-0.5252 z m 82.9375,-18.9792 1.25,-0.5044 1.25,0.5044 1.25,0.5044 h -2.5 -2.5 z m 9.75,-1.3598 6,-0.9411 4.7967,-1.554 4.7966,-1.554 6.7034,-3.2618 6.7033,-3.2619 1.75,-0.6712 1.75,-0.6711 v 0.456 0.4561 l -7.25,3.6517 -7.25,3.6518 -5.3577,1.844 -5.3576,1.844 -6.6424,0.4763 -6.6423,0.4763 z m 73.5833,-29.2972 0.4167,-0.3194 3.75,-2.1469 3.75,-2.1469 v 0.4809 0.481 l -3.25,1.9816 -3.25,1.9815 h -0.9167 -0.9166 l 0.4166,-0.3193 z m -701.21091,-26.4307 -1.3724,-1.75 1.75,1.3724 1.75,1.3725 v 0.3775 0.3776 h -0.3776 -0.3775 z m 384.20651,0.1667 0.079,-1.9167 0.5252,1.3125 0.5252,1.3125 -0.6041,0.6042 -0.6042,0.6041 0.079,-1.9166 z m 421.9211,1.2057 v -0.3775 l 1.75,-1.3725 1.75,-1.3724 -1.3724,1.75 -1.3725,1.75 h -0.3775 -0.3776 z m -458.9211,-4.2057 0.079,-1.9167 0.5252,1.3125 0.5252,1.3125 -0.6041,0.6042 -0.6042,0.6041 0.079,-1.9166 z m -359.67391,-8.6667 -1.905,-2.25 2.25,1.905 2.25,1.905 v 0.345 0.345 h -0.345 -0.345 z m 844.59501,-13.1276 v -0.3775 l 1.75,-1.3725 1.75,-1.3724 -1.3724,1.75 -1.3725,1.75 h -0.3775 -0.3776 z m -807.12761,-3.3724 -1.3724,-1.75 1.75,1.3724 1.75,1.3725 v 0.3775 0.3776 h -0.3776 -0.3775 z m 756.12761,1.3724 v -0.3775 l 1.75,-1.3725 1.75,-1.3724 -1.3724,1.75 -1.3725,1.75 h -0.3775 -0.3776 z m 11,-9.9353 v -0.3129 l 3.25,-2.9371 3.25,-2.9371 -2.9371,3.25 -2.9371,3.25 h -0.3129 -0.3129 z m -790.12761,-14.4371 -1.3724,-1.75 1.75,1.3724 1.75,1.3725 v 0.3775 0.3776 h -0.3776 -0.3775 z m 405.12761,-0.6276 v -0.3775 l 1.75,-1.3725 1.75,-1.3724 -1.3724,1.75 -1.3725,1.75 h -0.3775 -0.3776 z m 7.7617,-5.3297 2.2616,-0.4349 1.7384,0.4551 1.7383,0.4551 -4,-0.02 -4,-0.02 2.2617,-0.4349 z m -55.0117,-0.955 1.25,-0.5044 1.25,0.5044 1.25,0.5044 h -2.5 -2.5 z m 85.5,-0.027 1.75,-0.4573 1.75,0.4573 1.75,0.4573 h -3.5 -3.5 z m -105.4375,-0.9938 1.3125,-0.5252 0.6042,0.6041 0.6041,0.6042 -1.9166,-0.079 -1.9167,-0.079 1.3125,-0.5252 z m 125.9375,0.021 1.25,-0.5044 1.25,0.5044 1.25,0.5044 h -2.5 -2.5 z m -134.9375,-1.0208 1.3125,-0.5252 0.6042,0.6041 0.6041,0.6042 -1.9166,-0.079 -1.9167,-0.079 1.3125,-0.5252 z m 144,0 1.3125,-0.5252 0.6042,0.6041 0.6041,0.6042 -1.9166,-0.079 -1.9167,-0.079 1.3125,-0.5252 z m 13,-1 1.3125,-0.5252 0.6042,0.6041 0.6041,0.6042 -1.9166,-0.079 -1.9167,-0.079 1.3125,-0.5252 z m -180.0625,-0.9792 1.25,-0.5044 1.25,0.5044 1.25,0.5044 h -2.5 -2.5 z m 188,0 1.25,-0.5044 1.25,0.5044 1.25,0.5044 h -2.5 -2.5 z m 19.0625,-2.0208 1.3125,-0.5252 0.6042,0.6041 0.6041,0.6042 -1.9166,-0.079 -1.9167,-0.079 1.3125,-0.5252 z m -230,-1 1.3125,-0.5252 0.6042,0.6041 0.6041,0.6042 -1.9166,-0.079 -1.9167,-0.079 1.3125,-0.5252 z m 334,-20 1.3125,-0.5252 0.6042,0.6041 0.6041,0.6042 -1.9166,-0.079 -1.9167,-0.079 1.3125,-0.5252 z m -249.5625,-10.0332 2.75,-0.4165 2.75,0.4165 2.75,0.4166 h -5.5 -5.5 z m 64.5179,-0.01 3.2679,-0.4047 2.7321,0.4149 2.7321,0.4148 -6,-0.01 -6,-0.01 3.2679,-0.4046 z m -83.9554,-0.9584 1.3125,-0.5252 0.6042,0.6041 0.6041,0.6042 -1.9166,-0.079 -1.9167,-0.079 1.3125,-0.5252 z m 107,0 1.3125,-0.5252 0.6042,0.6041 0.6041,0.6042 -1.9166,-0.079 -1.9167,-0.079 1.3125,-0.5252 z m -122.5435,-1.0099 1.7691,-0.461 1.2309,0.4981 1.231,0.498 -3,-0.037 -3,-0.037 1.769,-0.461 z m 136.481,0.031 1.25,-0.5044 1.25,0.5044 1.25,0.5044 h -2.5 -2.5 z m -156.9375,-2.0208 1.3125,-0.5252 0.6042,0.6041 0.6041,0.6042 -1.9166,-0.079 -1.9167,-0.079 1.3125,-0.5252 z m 179,0 1.3125,-0.5252 0.6042,0.6041 0.6041,0.6042 -1.9166,-0.079 -1.9167,-0.079 1.3125,-0.5252 z m -187,-1 1.3125,-0.5252 0.6042,0.6041 0.6041,0.6042 -1.9166,-0.079 -1.9167,-0.079 1.3125,-0.5252 z m 194.9375,0.021 1.25,-0.5044 1.25,0.5044 1.25,0.5044 h -2.5 -2.5 z m 37.0625,-5.0208 1.3125,-0.5252 0.6042,0.6041 0.6041,0.6042 -1.9166,-0.079 -1.9167,-0.079 1.3125,-0.5252 z m 309.3454,-32.3199 v -2.5 l 0.5044,1.25 0.5044,1.25 -0.5044,1.25 -0.5044,1.25 z m -887.07901,-1.5833 0.079,-1.9167 0.5252,1.3125 0.5252,1.3125 -0.6041,0.6042 -0.6042,0.6041 0.079,-1.9166 z m 925.17331,-1.9167 0.02,-4 0.4349,2.2617 0.4349,2.2616 -0.4551,1.7384 -0.4551,1.7383 0.02,-4 z m -963.00001,-2 0.02,-4 0.4349,2.2617 0.4349,2.2616 -0.4551,1.7384 -0.4551,1.7383 0.02,-4 z m 925.97981,-5.5 v -3.5 l 0.4573,1.75 0.4573,1.75 -0.4573,1.75 -0.4573,1.75 z m -889.00001,-2 v -3.5 l 0.4573,1.75 0.4573,1.75 -0.4573,1.75 -0.4573,1.75 z m 36.173,-30.25 -1.905,-2.25 2.25,1.905 2.25,1.905 v 0.345 0.345 h -0.345 -0.345 z m 815.59501,0.8724 v -0.3775 l 1.75,-1.3725 1.75,-1.3724 -1.3724,1.75 -1.3725,1.75 h -0.3775 -0.3776 z m -840.59501,-25.8724 -1.905,-2.25 2.25,1.905 2.25,1.905 v 0.345 0.345 h -0.345 -0.345 z m 866.09501,0.25 1.81,-2 h 0.5 0.5 l -1.81,2 -1.81,2 h -0.5 -0.5 z m -813.62761,-0.75 -1.3724,-1.75 1.75,1.3724 1.75,1.3725 v 0.3775 0.3776 h -0.3776 -0.3775 z m 760.12761,1.3724 v -0.3775 l 1.75,-1.3725 1.75,-1.3724 -1.3724,1.75 -1.3725,1.75 h -0.3775 -0.3776 z m 13.5,-12.6224 4.9248,-5 h 0.5 0.5 l -4.9248,5 -4.9248,5 h -0.5 -0.5 z m 51.0643,1.2931 -0.6828,-1.7931 1.2426,1.2333 1.2426,1.2334 -0.5598,0.5598 -0.5598,0.5598 z m -838.61811,-3.0431 -3.4462,-3.75 3.75,3.4462 3.75,3.4461 v 0.3039 0.3038 h -0.3038 -0.3039 z m -1.4462,-8.25 1.81,-2 h 0.5 0.5 l -1.81,2 -1.81,2 h -0.5 -0.5 z m 3.5,-3.3129 v -0.3129 l 3.25,-2.9371 3.25,-2.9371 -2.9371,3.25 -2.9371,3.25 h -0.3129 -0.3129 z m 780.87241,-4.4371 -1.3724,-1.75 1.75,1.3724 1.75,1.3725 v 0.3775 0.3776 h -0.3776 -0.3775 z m -768.87241,-6.6276 v -0.3775 l 1.75,-1.3725 1.75,-1.3724 -1.3724,1.75 -1.3725,1.75 h -0.3775 -0.3776 z m 758.87241,-2.3724 -1.3724,-1.75 1.75,1.3724 1.75,1.3725 v 0.3775 0.3776 h -0.3776 -0.3775 z m -798.87241,-11.6276 v -0.3775 l 1.75,-1.3725 1.75,-1.3724 -1.3724,1.75 -1.3725,1.75 h -0.3775 -0.3776 z m 5.5,-5.6224 1.81,-2 h 0.5 0.5 l -1.81,2 -1.81,2 h -0.5 -0.5 z m 827.90501,-2.25 -1.905,-2.25 2.25,1.905 2.25,1.905 v 0.345 0.345 h -0.345 -0.345 z m 30.7529,-45.75 v -2.5 l 0.5044,1.25 0.5044,1.25 -0.5044,1.25 -0.5044,1.25 z m -887.96301,-10.5 0.037,-3 0.461,1.769 0.461,1.7691 -0.4981,1.2309 -0.498,1.231 0.037,-3 z m 889.00001,0 0.037,-3 0.461,1.769 0.461,1.7691 -0.4981,1.2309 -0.498,1.231 0.037,-3 z m -888.94271,-9 0.02,-4 0.4349,2.2617 0.4349,2.2616 -0.4551,1.7384 -0.4551,1.7383 0.02,-4 z m 888.94271,1 0.037,-3 0.461,1.769 0.461,1.7691 -0.4981,1.2309 -0.498,1.231 0.037,-3 z m -925.90891,-6 0.014,-5 0.4179,2.7637 0.4179,2.7638 -0.4316,2.2362 -0.4315,2.2363 0.014,-5 z m 962.94601,-3.5 v -3.5 l 0.4573,1.75 0.4573,1.75 -0.4573,1.75 -0.4573,1.75 z m -925.15311,-1.5833 0.079,-1.9167 0.5252,1.3125 0.5252,1.3125 -0.6041,0.6042 -0.6042,0.6041 0.079,-1.9166 z m 551.73361,-9.0998 1.3125,-0.5252 0.6042,0.6041 0.6041,0.6042 -1.9166,-0.079 -1.9167,-0.079 1.3125,-0.5252 z m -197,-2 1.3125,-0.5252 0.6042,0.6041 0.6041,0.6042 -1.9166,-0.079 -1.9167,-0.079 1.3125,-0.5252 z m 171,-1 1.3125,-0.5252 0.6042,0.6041 0.6041,0.6042 -1.9166,-0.079 -1.9167,-0.079 1.3125,-0.5252 z m -141.5625,-2.0062 1.75,-0.4573 1.75,0.4573 1.75,0.4573 h -3.5 -3.5 z m 116.5117,-0.018 2.2616,-0.4349 1.7384,0.4551 1.7383,0.4551 -4,-0.02 -4,-0.02 2.2617,-0.4349 z m -99.4927,-0.9857 1.7691,-0.461 1.2309,0.4981 1.231,0.498 -3,-0.037 -3,-0.037 1.769,-0.461 z m 84,0 1.7691,-0.461 1.2309,0.4981 1.231,0.498 -3,-0.037 -3,-0.037 1.769,-0.461 z m -199.4565,-23.9901 1.3125,-0.5252 0.6042,0.6041 0.6041,0.6042 -1.9166,-0.079 -1.9167,-0.079 1.3125,-0.5252 z m 29,-5 1.3125,-0.5252 0.6042,0.6041 0.6041,0.6042 -1.9166,-0.079 -1.9167,-0.079 1.3125,-0.5252 z m 255,0 1.3125,-0.5252 0.6042,0.6041 0.6041,0.6042 -1.9166,-0.079 -1.9167,-0.079 1.3125,-0.5252 z m -21,-3 1.3125,-0.5252 0.6042,0.6041 0.6041,0.6042 -1.9166,-0.079 -1.9167,-0.079 1.3125,-0.5252 z m -193.0625,-1.9792 1.25,-0.5044 1.25,0.5044 1.25,0.5044 h -2.5 -2.5 z m 173,0 1.25,-0.5044 1.25,0.5044 1.25,0.5044 h -2.5 -2.5 z m -163.9375,-1.0208 1.3125,-0.5252 0.6042,0.6041 0.6041,0.6042 -1.9166,-0.079 -1.9167,-0.079 1.3125,-0.5252 z m 156,0 1.3125,-0.5252 0.6042,0.6041 0.6041,0.6042 -1.9166,-0.079 -1.9167,-0.079 1.3125,-0.5252 z m -142.0625,-0.9792 1.25,-0.5044 1.25,0.5044 1.25,0.5044 h -2.5 -2.5 z m 127,0 1.25,-0.5044 1.25,0.5044 1.25,0.5044 h -2.5 -2.5 z m -115,-1.0434 2.25,-0.4334 2.25,0.4334 2.25,0.4333 h -4.5 -4.5 z m 101,0 2.25,-0.4334 2.25,0.4334 2.25,0.4333 h -4.5 -4.5 z m -78.5,-0.9836 1.75,-0.4573 1.75,0.4573 1.75,0.4573 h -3.5 -3.5 z m 57.5117,-0.018 2.2616,-0.4349 1.7384,0.4551 1.7383,0.4551 -4,-0.02 -4,-0.02 2.2617,-0.4349 z m -431.76171,-26.6703 v -0.3775 l 1.75,-1.3725 1.75,-1.3724 -1.3724,1.75 -1.3725,1.75 h -0.3775 -0.3776 z m 807.87241,-1.3724 -1.3724,-1.75 1.75,1.3724 1.75,1.3725 v 0.3775 0.3776 h -0.3776 -0.3775 z m -17,-17 -1.3724,-1.75 1.75,1.3724 1.75,1.3725 v 0.3775 0.3776 h -0.3776 -0.3775 z m -771.37241,-1.25 1.81,-2 h 0.5 0.5 l -1.81,2 -1.81,2 h -0.5 -0.5 z m 819.37241,-4.75 -1.3724,-1.75 1.75,1.3724 1.75,1.3725 v 0.3775 0.3776 h -0.3776 -0.3775 z m -12.9066,-14 -5.4658,-5.75 5.75,5.4658 5.75,5.4659 v 0.2841 0.2842 h -0.2842 -0.2841 z m -842.46581,-0.25 1.81,-2 h 0.5 0.5 l -1.81,2 -1.81,2 h -0.5 -0.5 z m 539.31251,-89.6831 1.3125,-0.5252 0.6042,0.6041 0.6041,0.6042 -1.9166,-0.079 -1.9167,-0.079 1.3125,-0.5252 z m -21,-3 1.3125,-0.5252 0.6042,0.6041 0.6041,0.6042 -1.9166,-0.079 -1.9167,-0.079 1.3125,-0.5252 z m -175.5435,-2.0099 1.7691,-0.461 1.2309,0.4981 1.231,0.498 -3,-0.037 -3,-0.037 1.769,-0.461 z m 154,0 1.7691,-0.461 1.2309,0.4981 1.231,0.498 -3,-0.037 -3,-0.037 1.769,-0.461 z m -144.4565,-0.9901 1.3125,-0.5252 0.6042,0.6041 0.6041,0.6042 -1.9166,-0.079 -1.9167,-0.079 1.3125,-0.5252 z m 137,0 1.3125,-0.5252 0.6042,0.6041 0.6041,0.6042 -1.9166,-0.079 -1.9167,-0.079 1.3125,-0.5252 z m -120,-1 1.3125,-0.5252 0.6042,0.6041 0.6041,0.6042 -1.9166,-0.079 -1.9167,-0.079 1.3125,-0.5252 z m 103,0 1.3125,-0.5252 0.6042,0.6041 0.6041,0.6042 -1.9166,-0.079 -1.9167,-0.079 1.3125,-0.5252 z m -90.0508,-1.0242 2.2616,-0.4349 1.7384,0.4551 1.7383,0.4551 -4,-0.02 -4,-0.02 2.2617,-0.4349 z m 73.502,-0.01 2.7638,-0.4179 2.2362,0.4316 2.2363,0.4315 -5,-0.014 -5,-0.014 2.7637,-0.4179 z m 105.5488,-26.9655 1.3125,-0.5252 0.6042,0.6041 0.6041,0.6042 -1.9166,-0.079 -1.9167,-0.079 1.3125,-0.5252 z m -261,-3 1.3125,-0.5252 0.6042,0.6041 0.6041,0.6042 -1.9166,-0.079 -1.9167,-0.079 1.3125,-0.5252 z m 241,0 1.3125,-0.5252 0.6042,0.6041 0.6041,0.6042 -1.9166,-0.079 -1.9167,-0.079 1.3125,-0.5252 z m -224,-2 1.3125,-0.5252 0.6042,0.6041 0.6041,0.6042 -1.9166,-0.079 -1.9167,-0.079 1.3125,-0.5252 z m 27.4565,-3.0099 1.7691,-0.461 1.2309,0.4981 1.231,0.498 -3,-0.037 -3,-0.037 1.769,-0.461 z m 151,0 1.7691,-0.461 1.2309,0.4981 1.231,0.498 -3,-0.037 -3,-0.037 1.769,-0.461 z m -138.4565,-0.9901 1.3125,-0.5252 0.6042,0.6041 0.6041,0.6042 -1.9166,-0.079 -1.9167,-0.079 1.3125,-0.5252 z m 128,0 1.3125,-0.5252 0.6042,0.6041 0.6041,0.6042 -1.9166,-0.079 -1.9167,-0.079 1.3125,-0.5252 z m -108.0508,-1.0242 2.2616,-0.4349 1.7384,0.4551 1.7383,0.4551 -4,-0.02 -4,-0.02 2.2617,-0.4349 z m 86.5073,0.014 1.7691,-0.461 1.2309,0.4981 1.231,0.498 -3,-0.037 -3,-0.037 1.769,-0.461 z m -66.5413,-1.0287 3.2277,-0.4017 3.7723,0.3936 3.7723,0.3936 -7,0.01 -7,0.01 3.2277,-0.4016 z m 12.5413,0.029 1.7691,-0.461 1.2309,0.4981 1.231,0.498 -3,-0.037 -3,-0.037 1.769,-0.461 z m 28.4587,-0.029 3.2277,-0.4017 3.7723,0.3936 3.7723,0.3936 -7,0.01 -7,0.01 3.2277,-0.4016 z"
         id="path235" />
      <path
         style="fill:#000000;fill-opacity:1"
         d="m 1290.2516,1984.2075 -7,-0.3382 -15,-1.0999 -15,-1.0999 -17.5,-1.9375 -17.5,-1.9375 -16.5,-2.4545 -16.5,-2.4546 -15.5,-3.0874 -15.5,-3.0875 -14.5,-3.5398 -14.5,-3.5398 -12.5,-3.4989 -12.5,-3.4988 -13,-4.2892 -13,-4.2891 -12.5,-4.7515 -12.5,-4.7515 -4,-1.777 -4,-1.777 -6.5,-2.7052 -6.5,-2.7052 -16.5594,-8.2573 -16.55941,-8.2573 -12.9406,-7.7892 -12.9406,-7.7892 -7.5,-5.0437 -7.5,-5.0437 -8.5,-6.4582 -8.5,-6.4582 -9,-7.7524 -9,-7.7524 -10.0842,-10.3476 -10.0841,-10.3476 -7.4299,-9.5 -7.43,-9.5 -3.9615,-6 -3.9616,-6 -4.1037,-7.1212 -4.1037,-7.1212 -2.0554,-4.3788 -2.0555,-4.3788 -2.5215,-6 -2.5214,-6 -1.9667,-6 -1.9666,-6 -1.6946,-7 -1.6946,-7 -0.8786,-3.5 -0.8787,-3.5 -1.1357,-14.5 -1.1357,-14.5 0.4938,-93.5 0.4939,-93.5 0.9849,-6 0.9849,-6 1.5323,-6.5 1.5323,-6.5 2.4506,-7.5 2.4505,-7.5 2.1558,-5.5 2.1557,-5.5 4.1032,-8 4.1031,-8 6.5551,-10 6.555,-10 6.421,-8 6.421,-8 14.1454,-14 14.1454,-14 11.32,-8.7489 11.32,-8.7489 12.6699,-8.3759 12.6699,-8.3759 5,-2.792 5,-2.792 7,-3.9144 7,-3.9144 14.50001,-6.9744 14.5,-6.9743 2,-0.8857 2,-0.8856 7,-2.9678 7,-2.9678 12.0371,-4.5632 12.0371,-4.5631 7.9629,-2.6276 7.9629,-2.6276 8,-2.4781 8,-2.4781 7,-2.0036 7,-2.0037 11.5,-2.9464 11.5,-2.9464 14,-3.0418 14,-3.0418 5,-0.8891 5,-0.8891 11.5,-1.9437 11.5,-1.9438 12.5,-1.6111 12.5,-1.6111 6.5,-0.945 6.5,-0.9451 20,-1.5676 20,-1.5676 20.5,-0.8096 20.5,-0.8096 22.5,0.3137 22.5,0.3137 18.5,1.0294 18.5,1.0293 15.5,1.4903 15.5,1.4904 7.5,0.9725 7.5,0.9724 10.5,1.4814 10.5,1.4813 9,1.5138 9,1.5137 12.5,2.5294 12.5,2.5293 7,1.5992 7,1.5992 2.5,0.5172 2.5,0.5172 9,2.4035 9,2.4035 5.5,1.5834 5.5,1.5834 13,4.0167 13,4.0167 13.5,4.93 13.5,4.93 10,4.1104 10,4.1103 18,8.7108 18,8.7108 10,5.7505 10,5.7504 11.5,7.5179 11.5,7.518 12.3044,9.4559 12.3043,9.456 12.5883,12.1601 12.5883,12.1601 8.1371,10 8.137,10 2.5233,3.5 2.5234,3.5 4.1338,6.6255 4.1339,6.6256 4.462,8.8744 4.462,8.8745 3.4808,9.5 3.4807,9.5 1.1025,4 1.1024,4 1.4669,6.5 1.4669,6.5 1.051,10.2892 1.051,10.2892 -0.022,91.2108 -0.022,91.2108 -1.4406,12.5 -1.4406,12.5 -1.0083,5 -1.0082,5 -1.1584,4 -1.1585,4 -1.4762,4.5 -1.4763,4.5 -0.8666,2 -0.8666,2 -1.9356,5 -1.9356,5 -2.3697,5 -2.3698,5 -3.9367,7 -3.9367,7 -5.9059,8.5 -5.9059,8.5 -5.5771,6.941 -5.577,6.941 -10.0526,10.4374 -10.0526,10.4375 -9,7.6972 -9,7.6972 -6.5,4.9861 -6.5,4.9861 -11,7.5448 -11,7.5448 -11.5,6.7863 -11.5,6.7864 -16.5,8.2402 -16.5,8.2402 -6.5,2.7205 -6.5,2.7205 -4,1.777 -4,1.777 -12.5,4.7535 -12.5,4.7535 -13.5,4.4285 -13.5,4.4285 -14,3.8322 -14,3.8321 -10.5,2.5393 -10.5,2.5394 -7,1.5027 -7,1.5027 -13,2.4953 -13,2.4953 -10.5,1.5326 -10.5,1.5326 -11.5,1.5032 -11.5,1.5033 -12,1.0914 -12,1.0914 -10,1.01 -10,1.0099 -42,0.3082 -42,0.3082 -7,-0.3382 z m 93.5,-37.9002 33.5,-1.4018 18,-3.087 18,-3.0869 6,-0.9591 6,-0.9591 19.5,-4.1037 19.5,-4.1037 4,-0.8332 4,-0.8333 12.5,-3.5045 12.5,-3.5044 6,-0.9955 6,-0.9954 5.8326,-0.6568 5.8326,-0.6567 5.2948,-1.8217 5.2948,-1.8217 11.8726,-6.0495 11.8726,-6.0494 11,-4.8874 11,-4.8874 6.6844,-2.2189 6.6843,-2.2189 4.3157,-3.2482 4.3156,-3.2482 8.5,-4.813 8.5,-4.8131 9,-5.5944 9,-5.5943 7,-4.9298 7,-4.9297 8,-6.223 8,-6.2231 9.1408,-8.3819 9.1408,-8.3819 8.3908,-9.5 8.3907,-9.5 4.0139,-5.5 4.0139,-5.5 4.2202,-6.7503 4.2203,-6.7504 3.8301,-7.8378 3.8301,-7.8377 2.5882,-7.4119 2.5881,-7.4119 1.2039,-4.5 1.2039,-4.5 1.4531,-6.5 1.4531,-6.5 0.5066,-39.3525 0.5065,-39.3525 -1.008,-1.008 -1.008,-1.008 -2.3395,2.796 -2.3395,2.796 -7.5909,8.5645 -7.5909,8.5645 -8.38,7.8797 -8.38,7.8798 -9.5291,7.6785 -9.5291,7.6785 -8.5,5.9913 -8.5,5.9912 -10.5,6.5669 -10.5,6.5669 -13,6.9983 -13,6.9982 -5.5,2.5199 -5.5,2.5199 -7,3.2333 -7,3.2334 -13,5.2735 -13,5.2735 -10,3.5479 -10,3.5478 -12,3.6274 -12,3.6274 -7.5,1.8785 -7.5,1.8784 -9.5,2.4879 -9.5,2.4879 -5.5,1.4694 -5.5,1.4693 -12,2.5663 -12,2.5663 -14.5,2.4836 -14.5,2.4836 -16.5,1.9827 -16.5,1.9826 -10.5,1.0528 -10.5,1.0528 -9.5,0.9912 -9.5,0.9912 -24.3198,0.6821 -24.3197,0.682 -2.2758,1.7901 -2.2758,1.7902 -5.5285,8.2989 -5.5285,8.2989 -2.5123,4.5819 -2.5122,4.5818 -2.6876,7.9182 -2.6876,7.9181 -1.0716,5 -1.0716,5 -0.419,15 -0.419,15 0.9568,3.5 0.9568,3.5 1.7179,7.5 1.7179,7.5 3.789,8.1733 3.789,8.1733 3.262,4.8267 3.262,4.8267 4.4161,5.25 4.4161,5.25 6.1727,-0.041 6.1727,-0.041 33.5,-1.4018 z m 17.9935,-27.4509 -2.5064,-0.7625 -3.1245,-1.6157 -3.1244,-1.6157 -2.5331,-3.0105 -2.5332,-3.0105 -1.1974,-3.628 -1.1973,-3.628 0.6578,-4.1139 0.6579,-4.1139 2.5115,-3.2927 2.5115,-3.2928 4.192,-2.2166 4.1921,-2.2166 7,0.042 7,0.042 4,2.0919 4,2.0918 2.8291,2.9789 2.8291,2.9788 1.318,3.834 1.3181,3.834 -0.4295,3.4631 -0.4296,3.4631 -1.9037,3.0804 -1.9038,3.0804 -2.8139,2.0629 -2.8138,2.0629 -3.3992,1.1724 -3.3992,1.1723 -4.6008,-0.086 -4.6008,-0.086 -2.5065,-0.7624 z m -0.4935,-61.7076 -2,-0.4686 -3.9866,-2.7339 -3.9865,-2.7339 -2.2391,-3.3226 -2.2391,-3.3226 -0.6537,-3.4847 -0.6538,-3.4847 1.129,-3.7682 1.1289,-3.7681 2.095,-2.6633 2.095,-2.6633 4.1554,-2.198 4.1555,-2.1979 7,0.042 7,0.042 4,2.0919 4,2.0918 2.8291,2.9789 2.8291,2.9788 1.3236,3.8503 1.3237,3.8502 -0.3169,3.41 -0.317,3.4099 -2.8358,4.0135 -2.8358,4.0135 -4,2.0689 -4,2.0688 -6.5,0.1835 -6.5,0.1835 -2,-0.4685 z m -112.1246,88.8436 0.4933,-0.7983 -3.8074,-7.9517 -3.8073,-7.9517 -2.4852,-7.5 -2.4851,-7.5 -1.5684,-8 -1.5684,-8 -1.0735,-6.0602 -1.0734,-6.0602 v -9.8796 -9.8796 l 1.0679,-6.0602 1.0679,-6.0602 1.4976,-8 1.4977,-8 2.5464,-7.5 2.5465,-7.5 4.4043,-9.4309 4.4043,-9.4309 -1.2663,-0.8038 -1.2663,-0.8038 -8.3296,-0.015 -8.3295,-0.015 -9.1705,-0.96 -9.1704,-0.9601 -16,-1.5745 -16,-1.5744 -6.5,-0.9608 -6.5,-0.9608 -11,-1.5656 -11,-1.5655 -8,-1.5119 -8,-1.5119 -12.5,-2.4833 -12.5,-2.4834 -16,-3.9888 -16,-3.9889 -3,-0.9197 -3,-0.9197 -10.5,-3.1288 -10.5,-3.1288 -5.5,-1.8255 -5.5,-1.8255 -11,-3.9378 -11,-3.9377 -14.9186,-6.2109 -14.9185,-6.2108 -13.5815,-6.623 -13.58141,-6.623 -11.5,-6.4796 -11.5,-6.4795 -12,-7.9801 -12,-7.98 -8,-6.0435 -8,-6.0434 -10,-8.716 -10,-8.7161 -7.0534,-7.3403 -7.0535,-7.3404 -3.9465,-4.5597 -3.9466,-4.5597 -2.2791,-2.7313 -2.2791,-2.7314 -0.9709,0.6001 -0.9709,0.6 v 32.4804 32.4804 l 1.0585,9.7106 1.0584,9.7106 1.9983,8.5 1.9983,8.5 2.0675,6 2.0675,6 4.4953,9.5 4.4954,9.5 6.3077,9.5 6.3077,9.5 5.6071,7 5.6071,7 10.7156,10.8515 10.7156,10.8516 10.5,8.4667 10.5,8.4667 11.5,7.8057 11.5,7.8057 13.50001,7.7764 13.5,7.7765 13,6.1959 13,6.1959 11.5,4.7316 11.5,4.7316 6,2.4112 6,2.4111 16.5,5.4428 16.5,5.4427 12.5,3.4794 12.5,3.4794 8.5,2.0717 8.5,2.0717 14.5,3.024 14.5,3.0239 12.5,2.0053 12.5,2.0052 6.5,0.996 6.5,0.996 12.5,1.4319 12.5,1.4319 12,1.088 12,1.0881 5,0.2917 5,0.2917 3.191,0.1803 3.191,0.1802 0.4934,-0.7983 z m 88.1417,-180.1877 15.9829,-0.986 11.5,-1.0552 11.5,-1.0553 13,-1.4943 13,-1.4943 10,-1.4997 10,-1.4997 5.5,-0.9455 5.5,-0.9454 13,-2.579 13,-2.579 6,-1.387 6,-1.387 9,-2.1719 9,-2.1719 13.5,-3.8235 13.5,-3.8236 11,-3.6154 11,-3.6154 9.5,-3.5377 9.5,-3.5376 8,-3.2991 8,-3.299 6.6636,-3.0547 6.6635,-3.0547 8.8365,-4.2358 8.8364,-4.2358 11.0751,-6.1954 11.0751,-6.1953 8.9249,-5.7841 8.9249,-5.7841 11,-8.1683 11,-8.1683 10.2449,-9.2237 10.2449,-9.2237 1.0513,-1.9645 1.0514,-1.9644 -0.6057,-0.98 -0.6057,-0.9801 -11.2335,-10.2493 -11.2336,-10.2493 -9.457,-7.1342 -9.457,-7.1341 -10,-6.4956 -10,-6.4956 -9.8884,-5.6797 -9.8884,-5.6797 -8.6116,-4.3246 -8.6116,-4.3246 -11.2317,-5.0673 -11.2318,-5.0672 -16.1687,-6.1168 -16.1688,-6.1168 -10.5995,-3.4867 -10.5995,-3.4868 -12,-3.3837 -12,-3.3838 -10.0291,-2.4699 -10.029,-2.4699 -5.971,-1.1876 -5.9709,-1.1877 -4,-0.9203 -4,-0.9202 -7.5,-1.3836 -7.5,-1.3836 -12.5,-2.0934 -12.5,-2.0933 -6.5,-0.9983 -6.5,-0.9984 -10,-1.0446 -10,-1.0447 -10,-0.9871 -10,-0.9871 -13,-0.9413 -13,-0.9412 h -40 -40 l -13,0.9394 -13,0.9395 -10.5,1.0031 -10.5,1.003 -9,0.993 -9,0.993 -7,1.0213 -7,1.0213 -10,1.5334 -10,1.5334 -4.5,0.9231 -4.5,0.923 -8.5,1.5633 -8.5,1.5632 -4,0.972 -4,0.972 -13,3.0671 -13,3.0671 -12,3.3903 -12,3.3904 -10.5,3.4466 -10.5,3.4467 -11,3.9782 -11,3.9782 -13.5,5.7603 -13.5,5.7602 -13.5,6.7338 -13.5,6.7338 -10,5.7672 -10.00001,5.7671 -9,5.9791 -9,5.9791 -9.4493,7.1436 -9.4493,7.1436 -10.2829,9.2825 -10.283,9.2826 -1.0813,2.0204 -1.0813,2.0205 4.8136,4.8079 4.8135,4.8078 6.5,5.7682 6.5,5.7682 7.5,5.7218 7.5,5.7217 9.5698,6.4848 9.5698,6.4848 9.8363,5.789 9.83641,5.789 12.5938,6.294 12.5939,6.294 6.7173,3.0549 6.7173,3.055 5.7827,2.4262 5.7827,2.4263 12,4.5494 12,4.5494 10.5,3.458 10.5,3.458 10.5,3.0315 10.5,3.0315 11.5,2.9562 11.5,2.9561 12,2.5702 12,2.5702 13.5,2.4643 13.5,2.4642 10.5,1.5355 10.5,1.5354 8,1.0442 8,1.0441 10.5,1.0745 10.5,1.0744 19,1.2851 19,1.285 34.0171,0.1316 34.017,0.1316 z m -461.51711,-166.6095 6.5,-6.2573 7.0127,-5.8236 7.0127,-5.8236 7.4873,-5.5878 7.4873,-5.5878 10.5,-6.9928 10.5,-6.9928 10.6322,-6.1027 10.6323,-6.1026 11.86771,-5.9466 11.8678,-5.9467 15,-6.4788 15,-6.4789 13.5,-5.0309 13.5,-5.0308 3.5,-1.1924 3.5,-1.1924 8,-2.5079 8,-2.5079 5,-1.4578 5,-1.4578 5,-1.374 5,-1.3739 11.5,-2.9698 11.5,-2.9699 8,-1.658 8,-1.658 4,-0.9212 4,-0.9213 13.5,-2.4413 13.5,-2.4412 11.5,-1.6516 11.5,-1.6516 6.5,-0.9393 6.5,-0.9393 10.5,-1.0028 10.5,-1.0029 21,-1.661 21,-1.661 37.5,-0.079 37.5,-0.079 17.5,1.2598 17.5,1.2599 10.5,1.0398 10.5,1.0399 12.5,1.4941 12.5,1.4942 10,1.4872 10,1.4871 6,1.0535 6,1.0535 7.5,1.4399 7.5,1.4398 5.5,1.0896 5.5,1.0896 18.5,4.4509 18.5,4.4508 10.5,3.021 10.5,3.021 14.5,4.8251 14.5,4.8252 7,2.5153 7,2.5152 16,6.6489 16,6.6488 16,7.98 16,7.9801 15.1208,9.0684 15.1208,9.0683 9.8792,7.0497 9.8792,7.0496 8.6383,7.0726 8.6383,7.0727 7.9735,7.2314 7.9736,7.2314 1.6131,-1.7825 1.6131,-1.7824 5.3892,-11.449 5.3891,-11.4489 0.5686,-2 0.5687,-2 1.5768,-5.5 1.5769,-5.5 1.6466,-7.5 1.6465,-7.5 0.057,-12.5 0.057,-12.5 -1.2591,-7 -1.2592,-7 -1.0807,-4 -1.0807,-4 -1.8975,-5.8225 -1.8975,-5.8225 -3.8769,-8.1775 -3.8768,-8.1775 -5.8495,-9.1439 -5.8494,-9.144 -4.4234,-5.856 -4.4233,-5.8561 -12.5767,-12.569 -12.5766,-12.569 -9.5,-7.5336 -9.5,-7.5335 -8,-5.5196 -8,-5.5195 -9,-5.4772 -9,-5.4772 -9,-4.9596 -9,-4.9595 -8.5,-4.1112 -8.5,-4.1112 -7,-3.1947 -7,-3.1948 -14.5,-5.773 -14.5,-5.773 -12.5,-4.1719 -12.5,-4.1719 -15,-4.3427 -15,-4.3426 -6.5,-1.564 -6.5,-1.564 -9,-2.1265 -9,-2.1264 -7,-1.4292 -7,-1.4293 -8.5,-1.4348 -8.5,-1.4349 -2,-0.4919 -2,-0.4918 -11.5,-1.5826 -11.5,-1.5826 -6,-0.9416 -6,-0.9417 -16,-1.4821 -16,-1.4822 -14.0522,-1.0448 -14.0523,-1.0449 -34.9477,-0.01 -34.9478,-0.01 -15,1.0761 -15,1.076 -19,1.972 -19,1.972 -10,1.4382 -10,1.4383 -6,0.9717 -6,0.9718 -8.5,1.5013 -8.5,1.5014 -12,2.6412 -12,2.6411 -4,0.8371 -4,0.837 -10,2.6408 -10,2.6408 -10,2.8937 -10,2.8937 -12.1499,3.9954 -12.15,3.9954 -12.85,4.9274 -12.8501,4.9273 -5.6859,2.6152 -5.6859,2.6151 h -0.6586 -0.6586 l -17.6555,8.8437 -17.6555,8.8437 -10.00001,5.7823 -10,5.7824 -10.839,7.4176 -10.8389,7.4176 -1.1611,0.9367 -1.161,0.9366 -11,8.8694 -11,8.8693 -10.3131,10.7298 -10.313,10.7298 -5.857,7.8993 -5.857,7.8994 -4.9859,8.2712 -4.9859,8.2712 -3.1352,6.8648 -3.1351,6.8647 -1.8327,5.6353 -1.8327,5.6352 -1.1566,4 -1.1566,4 -1.4637,10 -1.4637,10 v 5 5 l 1.4637,10 1.4637,10 0.9706,3.5 0.9706,3.5 1.5984,5.5 1.5984,5.5 0.8772,2 0.8772,2 4.6545,9.9989 4.6544,9.9989 1.5634,1.7275 1.5634,1.7275 1.1163,-0.6454 1.1164,-0.6455 6.5,-6.2574 z"
         id="path233" />
    </g>
  </g>
</svg>
