<?xml version="1.0" encoding="UTF-8" standalone="no"?>
<!-- Created with Inkscape (http://www.inkscape.org/) -->

<svg
   version="1.1"
   id="svg4759"
   width="3464"
   height="3464"
   viewBox="0 0 3464 3464"
   sodipodi:docname="16 0000000000.svg"
   inkscape:version="1.2.2 (732a01da63, 2022-12-09)"
   xmlns:inkscape="http://www.inkscape.org/namespaces/inkscape"
   xmlns:sodipodi="http://sodipodi.sourceforge.net/DTD/sodipodi-0.dtd"
   xmlns="http://www.w3.org/2000/svg"
   xmlns:svg="http://www.w3.org/2000/svg">
  <defs
     id="defs4763" />
  <sodipodi:namedview
     id="namedview4761"
     pagecolor="#ffffff"
     bordercolor="#000000"
     borderopacity="0.25"
     inkscape:showpageshadow="2"
     inkscape:pageopacity="0.0"
     inkscape:pagecheckerboard="0"
     inkscape:deskcolor="#d1d1d1"
     showgrid="false"
     inkscape:zoom="0.2289261"
     inkscape:cx="1729.8159"
     inkscape:cy="1736.3682"
     inkscape:window-width="1920"
     inkscape:window-height="986"
     inkscape:window-x="-11"
     inkscape:window-y="-11"
     inkscape:window-maximized="1"
     inkscape:current-layer="g4765" />
  <g
     inkscape:groupmode="layer"
     inkscape:label="Image"
     id="g4765">
    <path
       style="fill:#000000;stroke-width:1.63571"
       d="m 1712.7818,2467.1949 c -60.4666,-31.7528 -121.5123,-63.9963 -135.6573,-71.6528 -39.3217,-21.2837 -126.2194,-73.3248 -134.1018,-80.3104 -3.6655,-3.2486 -3.674,-5.3124 -3.674,-883.9071 V 550.67366 l 4.3216,-8.49411 c 5.3188,-10.45421 13.5153,-18.06567 23.2177,-21.5603 7.039,-2.53531 22.7672,-2.65375 356.466,-2.68433 l 349.1021,-0.0322 8.1967,3.27707 c 8.728,3.48957 18.1676,13.05465 22.3839,22.68124 1.891,4.31779 2.436,177.88949 2.8109,895.49147 l 0.4653,890.1354 -24.3464,12.6216 c -31.5237,16.3426 -144.0469,74.4739 -167.6982,86.6355 -10.0677,5.177 -42.2782,21.8499 -71.5784,37.0506 -78.3535,40.6495 -115.1407,59.1312 -117.6986,59.1312 -1.2488,0 -51.743,-25.9794 -112.2095,-57.7319 z m 188.3502,-67.4338 c 28.919,-15.7503 93.2992,-50.7796 143.0674,-77.8431 l 90.4871,-49.2065 -0.4738,-86.1737 -0.4736,-86.1736 h -310.4552 -310.4548 l -0.4742,83.0622 -0.4741,83.0622 5.9853,2.726 c 5.7224,2.6066 111.2258,54.4817 258.3989,127.0528 37.7921,18.6351 69.517,33.488 70.5001,33.0063 0.9831,-0.4816 25.4482,-13.7622 54.3669,-29.5126 z M 2133.7391,1307.3129 V 603.10679 l -310.9143,-0.36833 -310.9142,-0.36832 v 704.94276 704.9428 l 310.9142,-0.3684 310.9143,-0.3682 z"
       id="path4769" />
  </g>
</svg>
