<?xml version="1.0" encoding="UTF-8" standalone="no"?>
<!-- Created with Inkscape (http://www.inkscape.org/) -->

<svg
   version="1.1"
   id="svg4776"
   width="3464"
   height="3464"
   viewBox="0 0 3464 3464"
   sodipodi:docname="17 00000000.svg"
   inkscape:version="1.2.2 (732a01da63, 2022-12-09)"
   xmlns:inkscape="http://www.inkscape.org/namespaces/inkscape"
   xmlns:sodipodi="http://sodipodi.sourceforge.net/DTD/sodipodi-0.dtd"
   xmlns="http://www.w3.org/2000/svg"
   xmlns:svg="http://www.w3.org/2000/svg">
  <defs
     id="defs4780" />
  <sodipodi:namedview
     id="namedview4778"
     pagecolor="#ffffff"
     bordercolor="#000000"
     borderopacity="0.25"
     inkscape:showpageshadow="2"
     inkscape:pageopacity="0.0"
     inkscape:pagecheckerboard="0"
     inkscape:deskcolor="#d1d1d1"
     showgrid="false"
     inkscape:zoom="0.2289261"
     inkscape:cx="1729.8159"
     inkscape:cy="1736.3682"
     inkscape:window-width="1920"
     inkscape:window-height="986"
     inkscape:window-x="-11"
     inkscape:window-y="-11"
     inkscape:window-maximized="1"
     inkscape:current-layer="g4782" />
  <g
     inkscape:groupmode="layer"
     inkscape:label="Image"
     id="g4782">
    <path
       style="fill:#000000;stroke-width:1.43009"
       d="m 1289.1851,2803.1883 c -0.3126,-0.6651 -0.7207,-14.2679 -0.9069,-30.2286 -0.3887,-33.3225 1.893,-82.5722 6.3487,-137.036 3.708,-45.3233 5.4368,-69.8368 6.3905,-90.6123 0.5781,-12.5954 1.4574,-23.7364 1.9541,-24.7576 0.4967,-1.0213 0.8538,-9.4831 0.7937,-18.8037 -0.061,-9.3207 0.7006,-21.8409 1.6906,-27.8222 1.0008,-6.0462 1.7856,-19.5528 1.7674,-30.417 -0.018,-10.7479 0.3811,-20.3928 0.8871,-21.4334 0.506,-1.0404 1.3894,-12.115 1.9632,-24.6099 1.8434,-40.1471 3.3514,-65.8907 4.7307,-80.7568 0.7405,-7.9803 2.2624,-27.5684 3.3821,-43.529 1.1198,-15.9607 2.8449,-39.539 3.8335,-52.3961 0.9886,-12.8572 2.133,-31.3571 2.543,-41.1109 0.41,-9.7537 1.2607,-20.636 1.8905,-24.1826 0.6298,-3.547 1.1591,-14.1147 1.1762,-23.4837 0.016,-9.3691 0.659,-21.3398 1.4266,-26.6011 0.7675,-5.2615 1.5604,-16.4584 1.7618,-24.8821 0.6158,-25.7552 3.114,-69.7146 4.3977,-77.3848 0.6679,-3.9903 1.2425,-12.6959 1.2768,-19.3463 0.034,-6.6504 0.6443,-16.4443 1.3552,-21.7645 0.711,-5.3203 1.8193,-19.4673 2.4632,-31.4378 0.6439,-11.9705 1.7853,-29.7448 2.5365,-39.4985 0.7511,-9.7537 1.9738,-25.7145 2.7169,-35.4681 0.7431,-9.7538 1.8105,-28.017 2.3718,-40.5848 0.5615,-12.568 1.4613,-23.7566 1.9996,-24.8635 0.5383,-1.1073 1.4465,-13.3142 2.0179,-27.1272 0.5717,-13.8127 1.6104,-35.6337 2.3082,-48.4909 0.698,-12.8571 1.7818,-34.3725 2.4086,-47.8122 0.6268,-13.4395 1.5522,-25.2839 2.0566,-26.3209 0.5043,-1.0371 1.3731,-12.1682 1.9306,-24.7362 0.5576,-12.568 1.6525,-30.8311 2.433,-40.5848 0.7805,-9.7538 2.2384,-28.9791 3.2395,-42.723 1.0013,-13.744 2.4799,-33.6948 3.2859,-44.3351 0.806,-10.6406 1.9393,-29.1404 2.5184,-41.1108 2.8549,-59.0036 3.6211,-72.6325 4.1465,-73.7518 0.3137,-0.6683 0.952,-10.9637 1.4185,-22.8786 0.4663,-11.9154 1.1795,-22.3458 1.5846,-23.1788 0.4052,-0.8332 1.1854,-12.1236 1.7338,-25.0896 1.1587,-27.3954 4.7499,-83.6331 5.5696,-87.2187 0.3089,-1.3506 0.9022,-9.7107 1.3186,-18.5777 0.8253,-17.5725 1.3302,-24.391 3.1636,-42.723 0.6651,-6.6502 1.2517,-17.1697 1.3037,-23.3766 0.052,-6.2068 0.6382,-14.55 1.3031,-18.5401 0.6647,-3.9901 1.8136,-19.2253 2.5531,-33.856 0.7394,-14.6306 1.9014,-36.3952 2.5821,-48.3656 0.6808,-11.9706 1.6512,-32.28414 2.1565,-45.14127 0.5051,-12.85725 1.3595,-24.24757 1.8983,-25.31167 0.5388,-1.06454 1.5336,-13.39772 2.2107,-27.40728 3.2824,-67.91913 3.9063,-73.76523 9.6597,-90.51809 4.3175,-12.57168 11.8759,-23.09522 22.8058,-31.75284 15.5627,-12.32743 23.6662,-15.13504 49.0436,-16.99229 12.0144,-0.87929 23.8424,-1.23525 26.2844,-0.79109 8.6032,1.56511 72.6178,3.12845 264.4951,6.45938 23.7221,0.41193 52.8355,1.15288 64.6966,1.6467 11.861,0.49382 60.9544,1.61896 109.0963,2.50019 86.171,1.57751 136.3615,3.0575 137.6715,4.05964 0.3668,0.2805 7.217,-0.0532 15.2228,-0.74033 9.4433,-0.81124 23.9127,-0.46414 41.1956,0.98843 20.9015,1.7565 29.9958,1.84692 42.2198,0.41966 8.569,-1.00052 16.4117,-1.41341 17.4284,-0.91765 1.0165,0.49574 15.6979,1.67102 32.6252,2.61174 43.2655,2.40442 57.8525,6.55837 73.3165,20.87815 7.9737,7.38366 21.5827,28.27067 24.8041,38.06905 3.5143,10.68898 5.3297,35.87994 8.0687,111.96178 0.6543,18.17734 1.785,41.75559 2.5125,52.39589 1.2776,18.6839 2.5644,51.5589 5.1433,131.3934 0.673,20.8376 1.7929,46.955 2.4886,58.0387 1.8267,29.106 4.3592,89.7946 4.6082,110.4348 0.3521,29.1784 3.0692,105.2939 4.3449,121.7202 1.6185,20.8407 4.0451,88.7213 4.9563,138.648 0.4127,22.611 1.2036,42 1.7575,43.0866 0.5538,1.0867 1.2347,21.0376 1.5127,44.335 0.2781,23.2978 1.0844,45.6243 1.7919,49.6143 0.7075,3.9902 1.3112,22.5725 1.3415,41.2938 0.03,18.7214 0.6917,37.9468 1.4696,42.7231 0.8362,5.1351 1.3201,22.9926 1.1838,43.6967 -0.1708,25.9695 0.3157,39.4381 1.8836,52.1456 1.1626,9.4228 1.846,19.4215 1.5186,22.2198 -0.3274,2.7978 0.2282,31.2047 1.2347,63.1259 1.0065,31.9213 2.0797,75.4503 2.3849,96.7312 0.3052,21.2809 0.8938,40.1436 1.3082,41.9168 0.4144,1.7734 1.2859,23.538 1.9368,48.3657 0.6509,24.8277 1.7499,65.8175 2.4422,91.0886 1.6836,61.452 3.1305,121.2865 4.8148,199.105 0.7678,35.4681 1.9169,71.0168 2.5539,78.9973 0.6369,7.9802 0.9028,28.6354 0.5909,45.9003 -0.3288,18.1975 0,35.815 0.7762,41.917 0.739,5.7892 1.6599,25.3985 2.0466,43.5759 0.3866,18.1774 1.106,50.4614 1.5986,71.7422 0.4927,21.281 0.676,40.3326 0.4075,42.3372 -0.2844,2.1237 -1.6165,3.9493 -3.192,4.3745 -3.3438,0.9021 -757.2775,4.1108 -960.7101,4.0885 -81.7651,-0.016 -148.9196,-0.5602 -149.2322,-1.2253 z m 952.574,-110.0801 3.4364,-1.6606 -0.7758,-32.5983 c -0.4266,-17.9293 -1.0885,-44.2062 -1.471,-58.3935 -0.3823,-14.1873 -0.8882,-42.4813 -1.1242,-62.8753 -0.6008,-51.9321 -2.8546,-131.5684 -3.8327,-135.4237 -0.4498,-1.7736 -1.0901,-23.5381 -1.4227,-48.3658 -0.3326,-24.8277 -0.8974,-54.9353 -1.255,-66.9058 -2.7133,-90.8343 -3.485,-121.9057 -3.904,-157.1881 -0.2632,-22.1676 -0.857,-41.7557 -1.3196,-43.5291 -0.8566,-3.2837 -2.2049,-49.232 -3.9505,-134.6175 -0.5347,-26.1578 -1.411,-48.4191 -1.9473,-49.4696 -0.5363,-1.0505 -1.1661,-16.2856 -1.3996,-33.8558 -0.6397,-48.129 -4.4816,-173.2323 -5.8826,-191.5526 -0.6782,-8.8669 -1.5445,-32.9174 -1.9252,-53.4454 -0.3808,-20.528 -1.2392,-41.567 -1.9075,-46.7535 -0.6684,-5.1864 -1.2285,-23.2141 -1.2447,-40.0614 -0.019,-19.6431 -0.7159,-35.8365 -1.9428,-45.1412 -1.3546,-10.2724 -1.851,-24.6321 -1.6998,-49.1717 0.1382,-22.4174 -0.3261,-37.5097 -1.3143,-42.7229 -0.903,-4.7643 -1.7115,-24.5451 -1.9767,-48.3656 -0.2469,-22.1676 -1.043,-43.5694 -1.7693,-47.5596 -0.7261,-3.9901 -1.3551,-21.7644 -1.3975,-39.4986 -0.053,-21.9982 -0.6749,-35.8294 -1.9582,-43.5283 -1.3333,-7.9995 -1.8937,-21.8455 -1.9253,-47.5596 -0.03,-25.3008 -0.5933,-39.445 -1.8583,-46.754 -1.2065,-6.9713 -1.8426,-21.0033 -1.8998,-41.917 -0.047,-17.2907 -0.658,-36.516 -1.3571,-42.7228 -0.6991,-6.207 -1.6948,-21.586 -2.2128,-34.1756 -0.8745,-21.25772 -1.1654,-23.19915 -4.0788,-27.22301 -6.8389,-9.44587 -11.0976,-10.50393 -45.3843,-11.27598 -17.2311,-0.38803 -52.451,-1.20349 -78.2662,-1.81231 -25.8152,-0.6086 -64.6332,-1.14691 -86.2622,-1.19614 l -39.3254,-0.0907 -0.9788,13.70358 c -0.5384,7.53694 -4.1273,100.76186 -7.9753,207.16596 -3.8481,106.4044 -7.5386,207.2468 -8.201,224.094 -0.6625,16.8474 -1.2123,32.9895 -1.2218,35.8712 l -0.018,5.2396 h -29.299 -29.2991 l 0.8145,-16.5248 c 2.3496,-47.6799 17.1079,-466.53084 16.5211,-468.8807 -0.5923,-2.37135 -3.2142,-2.88709 -18.7213,-3.68388 -14.6229,-0.75122 -144.7876,-3.11846 -201.3399,-3.66185 -7.3261,-0.0713 -23.9502,-0.96165 -36.9429,-1.98062 -24.2598,-1.90299 -44.4545,-0.56272 -54.2724,3.60139 -9.0317,3.83071 -9.6567,7.25018 -12.8582,70.34966 -0.6524,12.8572 -1.6946,27.3669 -2.3162,32.2437 -0.6214,4.877 -0.8406,13.9732 -0.4869,20.214 0.4221,7.4495 -0.068,15.3115 -1.4227,22.8889 -1.1362,6.3482 -2.0656,17.8947 -2.0656,25.6591 0,7.7645 -0.5566,21.7683 -1.2372,31.1194 -0.6803,9.3513 -1.8418,25.3454 -2.5812,35.5424 -0.7391,10.1971 -1.6305,24.3441 -1.9806,31.4376 -0.3501,7.0937 -1.1954,18.7015 -1.8784,25.795 -1.8823,19.5482 -5.0777,65.0601 -6.2822,89.4765 -0.5905,11.9704 -1.7473,27.7896 -2.5706,35.1537 -0.8235,7.3641 -1.2158,15.7071 -0.872,18.5401 0.3439,2.8329 -0.1568,11.3177 -1.1127,18.8545 -0.9557,7.5371 -1.7477,21.0409 -1.7599,30.0085 -0.013,8.9676 -0.6629,20.2126 -1.4457,24.9888 -0.783,4.7763 -1.5505,16.3019 -1.7052,25.6122 -0.1549,9.3102 -0.9341,25.2709 -1.7315,35.4679 -0.7974,10.1972 -2.0208,26.8835 -2.7183,37.0805 -2.521,36.8521 -5.1167,72.2299 -7.0971,96.7312 -2.2126,27.3757 -3.8787,56.6217 -5.423,95.1997 -0.5519,13.7882 -1.4708,26.0302 -2.042,27.2048 -0.5713,1.1744 -1.5547,13.8342 -2.1858,28.1327 -2.0041,45.4185 -5.2695,102.0818 -7.2641,126.0514 -3.2614,39.1947 -7.0719,94.9698 -9.0076,131.8431 -0.6908,13.1587 -1.621,24.6756 -2.0671,25.5928 -0.4461,0.9174 -1.3327,14.092 -1.9703,29.2772 -0.6375,15.1851 -1.6729,37.0405 -2.301,48.5676 -0.6279,11.5272 -1.7039,31.8408 -2.391,45.1413 -0.6872,13.3005 -1.8574,28.0906 -2.6007,32.8668 -0.7432,4.7763 -1.3628,13.8448 -1.3769,20.1524 -0.014,6.3074 -0.5976,16.184 -1.2968,21.9475 -0.6992,5.7636 -1.7921,19.5479 -2.4288,30.6316 -1.2226,21.2884 -3.0693,47.7377 -5.2904,75.7729 -0.7377,9.3102 -1.7983,27.4474 -2.357,40.3045 -0.5587,12.8572 -1.6921,29.1282 -2.5188,36.1579 -0.8268,7.0294 -1.177,15.0096 -0.7784,17.734 0.3985,2.7241 0.1256,9.306 -0.6078,14.6262 -0.7329,5.32 -1.8616,20.1925 -2.5083,33.0497 -2.9263,58.1844 -3.7051,70.7434 -4.9486,79.8032 -0.7301,5.3204 -1.3511,15.1143 -1.3799,21.7646 -0.029,6.6502 -0.8348,18.6208 -1.7912,26.6011 -1.1995,10.0078 -1.334,15.135 -0.434,16.5249 1.7109,2.6423 789.1179,2.9939 794.5795,0.355 z"
       id="path4786" />
  </g>
</svg>
