<?xml version="1.0" encoding="UTF-8" standalone="no"?>
<!-- Created with Inkscape (http://www.inkscape.org/) -->

<svg
   version="1.1"
   id="svg4793"
   width="3464"
   height="3464"
   viewBox="0 0 3464 3464"
   sodipodi:docname="18 000000.svg"
   inkscape:version="1.2.2 (732a01da63, 2022-12-09)"
   xmlns:inkscape="http://www.inkscape.org/namespaces/inkscape"
   xmlns:sodipodi="http://sodipodi.sourceforge.net/DTD/sodipodi-0.dtd"
   xmlns="http://www.w3.org/2000/svg"
   xmlns:svg="http://www.w3.org/2000/svg">
  <defs
     id="defs4797" />
  <sodipodi:namedview
     id="namedview4795"
     pagecolor="#ffffff"
     bordercolor="#000000"
     borderopacity="0.25"
     inkscape:showpageshadow="2"
     inkscape:pageopacity="0.0"
     inkscape:pagecheckerboard="0"
     inkscape:deskcolor="#d1d1d1"
     showgrid="false"
     inkscape:zoom="0.2289261"
     inkscape:cx="1729.8159"
     inkscape:cy="1736.3682"
     inkscape:window-width="1920"
     inkscape:window-height="986"
     inkscape:window-x="-11"
     inkscape:window-y="-11"
     inkscape:window-maximized="1"
     inkscape:current-layer="g4799" />
  <g
     inkscape:groupmode="layer"
     inkscape:label="Image"
     id="g4799">
    <g
       id="g4803"
       transform="matrix(1.9500819,0,0,1.6277099,-1718.4946,-572.37718)"
       style="fill:#000000">
      <path
         style="fill:#000000;fill-opacity:1"
         d="m 1613.8724,1955.25 c -1.2438,-1.5861 -1.2085,-1.6214 0.3776,-0.3776 1.6657,1.3064 2.1955,2.1276 1.3724,2.1276 -0.2076,0 -0.9951,-0.7875 -1.75,-1.75 z m -4,-3 c -1.2438,-1.5861 -1.2085,-1.6214 0.3776,-0.3776 0.9625,0.7549 1.75,1.5424 1.75,1.75 0,0.8231 -0.8212,0.2933 -2.1276,-1.3724 z m -17,-13 c -1.2438,-1.5861 -1.2085,-1.6214 0.3776,-0.3776 0.9625,0.7549 1.75,1.5424 1.75,1.75 0,0.8231 -0.8212,0.2933 -2.1276,-1.3724 z m -4,-3 c -1.2438,-1.5861 -1.2085,-1.6214 0.3776,-0.3776 0.9625,0.7549 1.75,1.5424 1.75,1.75 0,0.8231 -0.8212,0.2933 -2.1276,-1.3724 z m 349.4375,-105.75 c 0.01,-3.3 0.1923,-4.5294 0.4148,-2.7321 0.2226,1.7974 0.218,4.4974 -0.01,6 -0.2281,1.5027 -0.4102,0.032 -0.4046,-3.2679 z m -20.152,-1.5 c 0,-1.375 0.227,-1.9375 0.5044,-1.25 0.2774,0.6875 0.2774,1.8125 0,2.5 -0.2774,0.6875 -0.5044,0.125 -0.5044,-1.25 z m -1.079,-35.5833 c 0.048,-1.165 0.285,-1.4019 0.6042,-0.6042 0.2889,0.7219 0.2534,1.5844 -0.079,1.9167 -0.3323,0.3323 -0.5687,-0.2584 -0.5253,-1.3125 z m 35.689,-10.1414 c 1.7974,-0.2226 4.4974,-0.218 6,0.01 1.5027,0.2281 0.032,0.4102 -3.2679,0.4046 -3.3,-0.01 -4.5294,-0.1923 -2.7321,-0.4148 z m -6.5179,-61.0038 c 2.0625,-0.2157 5.4375,-0.2157 7.5,0 2.0625,0.2158 0.375,0.3923 -3.75,0.3923 -4.125,0 -5.8125,-0.1765 -3.75,-0.3923 z M 1677.4959,1239 c 0,-265.925 0.1143,-374.7125 0.2541,-241.75 0.1397,132.9625 0.1397,350.5375 0,483.5 -0.1398,132.9625 -0.2541,24.175 -0.2541,-241.75 z m 260,0 c 0,-265.925 0.1143,-374.7125 0.2541,-241.75 0.1397,132.9625 0.1397,350.5375 0,483.5 -0.1398,132.9625 -0.2541,24.175 -0.2541,-241.75 z m -190.417,343.4167 c 0.048,-1.165 0.285,-1.4019 0.6042,-0.6042 0.2889,0.7219 0.2534,1.5844 -0.079,1.9167 -0.3323,0.3323 -0.5687,-0.2584 -0.5253,-1.3125 z m 45.7336,-141.0998 c 0.7219,-0.2889 1.5844,-0.2534 1.9167,0.079 0.3323,0.3323 -0.2584,0.5687 -1.3125,0.5253 -1.165,-0.048 -1.4019,-0.285 -0.6042,-0.6042 z M 1755.5,1357 c 0.9955,-1.1 2.035,-2 2.31,-2 0.275,0 -0.3145,0.9 -1.31,2 -0.9955,1.1 -2.035,2 -2.31,2 -0.275,0 0.3145,-0.9 1.31,-2 z m 69.5,-107.3776 c 0,-0.2076 0.7875,-0.9951 1.75,-1.75 1.5861,-1.2438 1.6214,-1.2085 0.3776,0.3776 -1.3064,1.6657 -2.1276,2.1955 -2.1276,1.3724 z m -31.1875,-84.3055 c 0.7219,-0.2889 1.5844,-0.2534 1.9167,0.079 0.3323,0.3323 -0.2584,0.5687 -1.3125,0.5253 -1.165,-0.048 -1.4019,-0.285 -0.6042,-0.6042 z M 1825.5,1055 c 0.9955,-1.1 2.035,-2 2.31,-2 0.275,0 -0.3145,0.9 -1.31,2 -0.9955,1.1 -2.035,2 -2.31,2 -0.275,0 0.3145,-0.9 1.31,-2 z m -31.6875,-83.68311 c 0.7219,-0.28887 1.5844,-0.25335 1.9167,0.0789 0.3323,0.33229 -0.2584,0.56864 -1.3125,0.52522 -1.165,-0.048 -1.4019,-0.28494 -0.6042,-0.60416 z m -46.7336,-108.90022 c 0.048,-1.16495 0.285,-1.4019 0.6042,-0.60417 0.2889,0.72187 0.2534,1.58438 -0.079,1.91667 -0.3323,0.33229 -0.5687,-0.25834 -0.5253,-1.3125 z M 1602.8125,696.31689 c 0.7219,-0.28887 1.5844,-0.25335 1.9167,0.0789 0.3323,0.33229 -0.2584,0.56864 -1.3125,0.52522 -1.165,-0.048 -1.4019,-0.28494 -0.6042,-0.60416 z"
         id="path4817" />
      <path
         style="fill:#000000;fill-opacity:1"
         d="m 1598.8724,1943.25 c -1.2438,-1.5861 -1.2085,-1.6214 0.3776,-0.3776 0.9625,0.7549 1.75,1.5424 1.75,1.75 0,0.8231 -0.8212,0.2933 -2.1276,-1.3724 z m -4,-3 c -1.2438,-1.5861 -1.2085,-1.6214 0.3776,-0.3776 1.6657,1.3064 2.1955,2.1276 1.3724,2.1276 -0.2076,0 -0.9951,-0.7875 -1.75,-1.75 z m 406.4638,-8.25 c 0,-4.125 0.1765,-5.8125 0.3923,-3.75 0.2157,2.0625 0.2157,5.4375 0,7.5 -0.2158,2.0625 -0.3923,0.375 -0.3923,-3.75 z m -415.4638,1.25 c -1.2438,-1.5861 -1.2085,-1.6214 0.3776,-0.3776 1.6657,1.3064 2.1955,2.1276 1.3724,2.1276 -0.2076,0 -0.9951,-0.7875 -1.75,-1.75 z m 375.5478,-79.75 c -9e-4,-11 0.1452,-15.6364 0.3247,-10.3032 0.1794,5.3332 0.1801,14.3332 0,20 -0.1786,5.6668 -0.3254,1.3032 -0.3263,-9.6968 z m -23.168,-14 c 0.011,-2.2 0.2159,-2.9823 0.4551,-1.7383 0.2392,1.2439 0.2301,3.0439 -0.02,4 -0.2503,0.956 -0.446,-0.062 -0.4349,-2.2617 z m -20.1733,-14.0833 c 0.048,-1.165 0.285,-1.4019 0.6042,-0.6042 0.2889,0.7219 0.2534,1.5844 -0.079,1.9167 -0.3323,0.3323 -0.5687,-0.2584 -0.5253,-1.3125 z M 1917.1579,1790 c 0,-1.375 0.227,-1.9375 0.5044,-1.25 0.2774,0.6875 0.2774,1.8125 0,2.5 -0.2774,0.6875 -0.5044,0.125 -0.5044,-1.25 z m 24.61,-6.7247 c 1.7974,-0.2226 4.4974,-0.218 6,0.01 1.5027,0.2281 0.032,0.4102 -3.2679,0.4046 -3.3,-0.01 -4.5294,-0.1923 -2.7321,-0.4148 z M 1632.75,1722.2549 c 5.0875,-0.1815 13.4125,-0.1815 18.5,0 5.0875,0.1815 0.925,0.33 -9.25,0.33 -10.175,0 -14.3375,-0.1485 -9.25,-0.33 z m 105.5774,0 c 33.455,-0.1461 87.905,-0.1461 121,1e-4 33.0949,0.1461 5.7226,0.2657 -60.8274,0.2656 -66.55,0 -93.6277,-0.1196 -60.1726,-0.2657 z M 1747.1579,1579 c 0,-1.375 0.227,-1.9375 0.5044,-1.25 0.2774,0.6875 0.2774,1.8125 0,2.5 -0.2774,0.6875 -0.5044,0.125 -0.5044,-1.25 z m 48.0921,-48.6893 c 0.9625,-0.2516 2.5375,-0.2516 3.5,0 0.9625,0.2515 0.175,0.4573 -1.75,0.4573 -1.925,0 -2.7125,-0.2058 -1.75,-0.4573 z m -6.5,-88.973 c 0.6875,-0.2774 1.8125,-0.2774 2.5,0 0.6875,0.2774 0.125,0.5044 -1.25,0.5044 -1.375,0 -1.9375,-0.227 -1.25,-0.5044 z m -33.345,-14.5877 -1.905,-2.25 2.25,1.905 c 2.1144,1.7902 2.7052,2.595 1.905,2.595 -0.1898,0 -1.2023,-1.0125 -2.25,-2.25 z M 1741.1579,1392 c 0,-1.375 0.227,-1.9375 0.5044,-1.25 0.2774,0.6875 0.2774,1.8125 0,2.5 -0.2774,0.6875 -0.5044,0.125 -0.5044,-1.25 z m 0,-178 c 0,-1.375 0.227,-1.9375 0.5044,-1.25 0.2774,0.6875 0.2774,1.8125 0,2.5 -0.2774,0.6875 -0.5044,0.125 -0.5044,-1.25 z m 48.1111,-48.693 c 0.973,-0.2535 2.323,-0.2369 3,0.037 0.6771,0.2739 -0.119,0.4813 -1.769,0.461 -1.65,-0.02 -2.2039,-0.2445 -1.231,-0.4981 z M 1741.1949,1020.5 c 0.02,-1.65 0.2445,-2.2039 0.4981,-1.231 0.2535,0.973 0.2369,2.323 -0.037,3 -0.2739,0.6771 -0.4813,-0.119 -0.461,-1.769 z m 48.0741,-49.19299 c 0.973,-0.25354 2.323,-0.23687 3,0.0371 0.6771,0.27393 -0.119,0.48137 -1.769,0.46099 -1.65,-0.0204 -2.2039,-0.2445 -1.231,-0.49804 z M 1747.1579,859 c 0,-1.375 0.227,-1.9375 0.5044,-1.25 0.2774,0.6875 0.2774,1.8125 0,2.5 -0.2774,0.6875 -0.5044,0.125 -0.5044,-1.25 z m 48.0921,-48.68933 c 0.9625,-0.25152 2.5375,-0.25152 3.5,0 0.9625,0.25153 0.175,0.45733 -1.75,0.45733 -1.925,0 -2.7125,-0.2058 -1.75,-0.45733 z m -162.5,-55.05574 c 5.0875,-0.18149 13.4125,-0.18149 18.5,0 5.0875,0.18149 0.925,0.32999 -9.25,0.32999 -10.175,0 -14.3375,-0.1485 -9.25,-0.32999 z m 105.5774,-0.005 c 33.455,-0.14612 87.905,-0.14609 121,6e-5 33.0949,0.14615 5.7226,0.2657 -60.8274,0.26567 -66.55,-4e-5 -93.6277,-0.11962 -60.1726,-0.26573 z m 205.4618,0.008 c 3.459,-0.19583 8.859,-0.19422 12,0.004 3.1409,0.19781 0.3108,0.35803 -6.2892,0.35606 -6.6,-0.002 -9.1699,-0.16382 -5.7108,-0.35965 z M 2001.232,729 c 0,-1.925 0.2058,-2.7125 0.4573,-1.75 0.2516,0.9625 0.2516,2.5375 0,3.5 -0.2515,0.9625 -0.4573,0.175 -0.4573,-1.75 z m -302.4026,-32.74995 c 51.8812,-0.14315 136.4812,-0.14314 188,3e-5 51.5188,0.14316 9.0706,0.26029 -94.3294,0.26027 -103.4,-10e-6 -145.5518,-0.11715 -93.6706,-0.2603 z"
         id="path4815" />
      <path
         style="fill:#000000;fill-opacity:1"
         d="m 1617.8724,1957.25 c -1.2438,-1.5861 -1.2085,-1.6214 0.3776,-0.3776 1.6657,1.3064 2.1955,2.1276 1.3724,2.1276 -0.2076,0 -0.9951,-0.7875 -1.75,-1.75 z m -4,-3 c -1.2438,-1.5861 -1.2085,-1.6214 0.3776,-0.3776 1.6657,1.3064 2.1955,2.1276 1.3724,2.1276 -0.2076,0 -0.9951,-0.7875 -1.75,-1.75 z m -27.4353,-21.5 -2.9371,-3.25 3.25,2.9371 c 1.7875,1.6154 3.25,3.0779 3.25,3.25 0,0.7726 -0.8251,0.092 -3.5629,-2.9371 z m 415.0596,-602.25 c 0,-327.25 0.114,-460.97556 0.2533,-297.1679 0.1393,163.8076 0.1393,431.5576 0,595 -0.1393,163.4423 -0.2533,29.4179 -0.2533,-297.8321 z m -40.0993,556.5 c 0,-7.975 0.1553,-11.2375 0.3451,-7.25 0.1898,3.9875 0.1898,10.5125 0,14.5 -0.1898,3.9875 -0.3451,0.725 -0.3451,-7.25 z m -285.3185,-20.5833 c 0.048,-1.165 0.285,-1.4019 0.6042,-0.6042 0.2889,0.7219 0.2534,1.5844 -0.079,1.9167 -0.3323,0.3323 -0.5687,-0.2584 -0.5253,-1.3125 z m 0.1935,-6.4167 c 0,-2.475 0.195,-3.4875 0.4333,-2.25 0.2384,1.2375 0.2384,3.2625 0,4.5 -0.2383,1.2375 -0.4333,0.225 -0.4333,-2.25 z m 285.1623,-51 c 0,-14.025 0.1406,-19.7625 0.3125,-12.75 0.1719,7.0125 0.1719,18.4875 0,25.5 -0.1719,7.0125 -0.3125,1.275 -0.3125,-12.75 z m -43.3558,13.4167 c 0.048,-1.165 0.285,-1.4019 0.6042,-0.6042 0.2889,0.7219 0.2534,1.5844 -0.079,1.9167 -0.3323,0.3323 -0.5687,-0.2584 -0.5253,-1.3125 z m -257.8802,-30.1441 -0.1987,-8.2275 -18.25,-0.2965 -18.25,-0.2966 18.2814,-0.226 c 14.5405,-0.1798 18.3869,0.049 18.797,1.1176 0.2835,0.739 0.3588,4.6765 0.1673,8.75 l -0.3483,7.4064 z m 256.8802,-5.8559 c 0.048,-1.165 0.285,-1.4019 0.6042,-0.6042 0.2889,0.7219 0.2534,1.5844 -0.079,1.9167 -0.3323,0.3323 -0.5687,-0.2584 -0.5253,-1.3125 z m -180.3289,-3.1666 c 33.1375,-0.1461 87.3625,-0.1461 120.5,0 33.1375,0.1462 6.025,0.2658 -60.25,0.2658 -66.275,0 -93.3875,-0.1196 -60.25,-0.2658 z M 1660.4959,1239 c 0,-265.925 0.1143,-374.7125 0.2541,-241.75 0.1397,132.9625 0.1397,350.5375 0,483.5 -0.1398,132.9625 -0.2541,24.175 -0.2541,-241.75 z m 301,0 c 0,-265.925 0.1143,-374.7125 0.2541,-241.75 0.1397,132.9625 0.1397,350.5375 0,483.5 -0.1398,132.9625 -0.2541,24.175 -0.2541,-241.75 z m -137.0909,117.75 -1.905,-2.25 2.25,1.905 c 2.1144,1.7902 2.7052,2.595 1.905,2.595 -0.1898,0 -1.2023,-1.0125 -2.25,-2.25 z M 1755.5,1180 c 0.9955,-1.1 2.035,-2 2.31,-2 0.275,0 -0.3145,0.9 -1.31,2 -0.9955,1.1 -2.035,2 -2.31,2 -0.275,0 0.3145,-0.9 1.31,-2 z m 0,-194 c 0.9955,-1.1 2.035,-2 2.31,-2 0.275,0 -0.3145,0.9 -1.31,2 -0.9955,1.1 -2.035,2 -2.31,2 -0.275,0 0.3145,-0.9 1.31,-2 z m 245.5789,-252.58333 c 0.048,-1.16495 0.285,-1.4019 0.6042,-0.60417 0.2889,0.72187 0.2534,1.58438 -0.079,1.91667 -0.3323,0.33229 -0.5687,-0.25834 -0.5253,-1.3125 z M 1591.5,703 c 0.9955,-1.1 2.035,-2 2.31,-2 0.275,0 -0.3145,0.9 -1.31,2 -0.9955,1.1 -2.035,2 -2.31,2 -0.275,0 0.3145,-0.9 1.31,-2 z"
         id="path4813" />
      <path
         style="fill:#000000;fill-opacity:1"
         d="m 1619.8724,1958.25 c -1.2438,-1.5861 -1.2085,-1.6214 0.3776,-0.3776 1.6657,1.3064 2.1955,2.1276 1.3724,2.1276 -0.2076,0 -0.9951,-0.7875 -1.75,-1.75 z m -17,-13 c -1.2438,-1.5861 -1.2085,-1.6214 0.3776,-0.3776 1.6657,1.3064 2.1955,2.1276 1.3724,2.1276 -0.2076,0 -0.9951,-0.7875 -1.75,-1.75 z m -4,-3 c -1.2438,-1.5861 -1.2085,-1.6214 0.3776,-0.3776 0.9625,0.7549 1.75,1.5424 1.75,1.75 0,0.8231 -0.8212,0.2933 -2.1276,-1.3724 z m -9,-7 c -1.2438,-1.5861 -1.2085,-1.6214 0.3776,-0.3776 0.9625,0.7549 1.75,1.5424 1.75,1.75 0,0.8231 -0.8212,0.2933 -2.1276,-1.3724 z m 86.5347,-95.25 c 0,-9.075 0.1516,-12.7875 0.3369,-8.25 0.1853,4.5375 0.1853,11.9625 0,16.5 -0.1853,4.5375 -0.3369,0.825 -0.3369,-8.25 z m 261.6718,6.4167 c 0.048,-1.165 0.285,-1.4019 0.6042,-0.6042 0.2889,0.7219 0.2534,1.5844 -0.079,1.9167 -0.3323,0.3323 -0.5687,-0.2584 -0.5253,-1.3125 z M 1660.3854,1812 c 0,-6.875 0.1597,-9.6875 0.355,-6.25 0.1953,3.4375 0.1953,9.0625 0,12.5 -0.1953,3.4375 -0.355,0.625 -0.355,-6.25 z m 257.6935,7.4167 c 0.048,-1.165 0.285,-1.4019 0.6042,-0.6042 0.2889,0.7219 0.2534,1.5844 -0.079,1.9167 -0.3323,0.3323 -0.5687,-0.2584 -0.5253,-1.3125 z m 39.1901,-37.1097 c 0.973,-0.2535 2.323,-0.2369 3,0.037 0.6771,0.2739 -0.119,0.4813 -1.769,0.461 -1.65,-0.02 -2.2039,-0.2445 -1.231,-0.4981 z M 1955,1723.6094 c 0,-0.2148 1.5434,-0.5708 3.4299,-0.791 1.8864,-0.2202 3.2098,-0.045 2.9409,0.3906 -0.4839,0.783 -6.3708,1.153 -6.3708,0.4004 z m -131,-295.987 c 0,-0.2076 0.7875,-0.9951 1.75,-1.75 1.5861,-1.2438 1.6214,-1.2085 0.3776,0.3776 -1.3064,1.6657 -2.1276,2.1955 -2.1276,1.3724 z"
         id="path4811" />
      <path
         style="fill:#000000;fill-opacity:1"
         d="m 1633.8724,1968.25 c -1.2438,-1.5861 -1.2085,-1.6214 0.3776,-0.3776 1.6657,1.3064 2.1955,2.1276 1.3724,2.1276 -0.2076,0 -0.9951,-0.7875 -1.75,-1.75 z m -8,-6 c -1.2438,-1.5861 -1.2085,-1.6214 0.3776,-0.3776 0.9625,0.7549 1.75,1.5424 1.75,1.75 0,0.8231 -0.8212,0.2933 -2.1276,-1.3724 z m -4,-3 c -1.2438,-1.5861 -1.2085,-1.6214 0.3776,-0.3776 0.9625,0.7549 1.75,1.5424 1.75,1.75 0,0.8231 -0.8212,0.2933 -2.1276,-1.3724 z m -13,-10 c -1.2438,-1.5861 -1.2085,-1.6214 0.3776,-0.3776 0.9625,0.7549 1.75,1.5424 1.75,1.75 0,0.8231 -0.8212,0.2933 -2.1276,-1.3724 z m -4,-3 c -1.2438,-1.5861 -1.2085,-1.6214 0.3776,-0.3776 0.9625,0.7549 1.75,1.5424 1.75,1.75 0,0.8231 -0.8212,0.2933 -2.1276,-1.3724 z m -9,-7 c -1.2438,-1.5861 -1.2085,-1.6214 0.3776,-0.3776 0.9625,0.7549 1.75,1.5424 1.75,1.75 0,0.8231 -0.8212,0.2933 -2.1276,-1.3724 z m -4,-3 c -1.2438,-1.5861 -1.2085,-1.6214 0.3776,-0.3776 1.6657,1.3064 2.1955,2.1276 1.3724,2.1276 -0.2076,0 -0.9951,-0.7875 -1.75,-1.75 z m -5,-4 c -1.2438,-1.5861 -1.2085,-1.6214 0.3776,-0.3776 1.6657,1.3064 2.1955,2.1276 1.3724,2.1276 -0.2076,0 -0.9951,-0.7875 -1.75,-1.75 z M 1583.4967,1326 c 0,-329.725 0.114,-464.6125 0.2533,-299.75 0.1393,164.8625 0.1393,434.6375 0,599.5 -0.1393,164.8625 -0.2533,29.975 -0.2533,-299.75 z m 38.9709,514 c 0,-31.075 0.1268,-43.7875 0.2818,-28.25 0.1549,15.5375 0.1549,40.9625 0,56.5 -0.155,15.5375 -0.2818,2.825 -0.2818,-28.25 z m 296.6903,14 c 0,-1.375 0.227,-1.9375 0.5044,-1.25 0.2774,0.6875 0.2774,1.8125 0,2.5 -0.2774,0.6875 -0.5044,0.125 -0.5044,-1.25 z m 19.1145,-2 c 0,-2.475 0.195,-3.4875 0.4333,-2.25 0.2384,1.2375 0.2384,3.2625 0,4.5 -0.2383,1.2375 -0.4333,0.225 -0.4333,-2.25 z m -277.8942,-17 c 0,-6.325 0.1623,-8.9125 0.3608,-5.75 0.1984,3.1625 0.1984,8.3375 0,11.5 -0.1985,3.1625 -0.3608,0.575 -0.3608,-5.75 z m 16.035,-28.5 c 10e-4,-9.9 0.1507,-13.8147 0.3325,-8.6994 0.1819,5.1153 0.181,13.2153 0,18 -0.1829,4.7847 -0.3317,0.5994 -0.3306,-9.3006 z m 241.6657,9.9167 c 0.048,-1.165 0.285,-1.4019 0.6042,-0.6042 0.2889,0.7219 0.2534,1.5844 -0.079,1.9167 -0.3323,0.3323 -0.5687,-0.2584 -0.5253,-1.3125 z m 32.6828,-34.124 c 1.2439,-0.2392 3.0439,-0.2301 4,0.02 0.956,0.2503 -0.062,0.446 -2.2617,0.4349 -2.2,-0.011 -2.9823,-0.2159 -1.7383,-0.4551 z M 1957.5,1725 c -0.3399,-0.55 0.3085,-1 1.441,-1 1.1324,0 2.059,0.45 2.059,1 0,0.55 -0.6484,1 -1.441,1 -0.7925,0 -1.7191,-0.45 -2.059,-1 z m -7.25,-1.6893 c 0.9625,-0.2516 2.5375,-0.2516 3.5,0 0.9625,0.2515 0.175,0.4573 -1.75,0.4573 -1.925,0 -2.7125,-0.2058 -1.75,-0.4573 z M 1622.4959,1239 c 0,-265.925 0.1143,-374.7125 0.2541,-241.75 0.1397,132.9625 0.1397,350.5375 0,483.5 -0.1398,132.9625 -0.2541,24.175 -0.2541,-241.75 z m 298,0 c 0,-265.925 0.1143,-374.7125 0.2541,-241.75 0.1397,132.9625 0.1397,350.5375 0,483.5 -0.1398,132.9625 -0.2541,24.175 -0.2541,-241.75 z M 1794.75,1628.3377 c 0.6875,-0.2774 1.8125,-0.2774 2.5,0 0.6875,0.2774 0.125,0.5044 -1.25,0.5044 -1.375,0 -1.9375,-0.227 -1.25,-0.5044 z m -33.345,-14.5877 -1.905,-2.25 2.25,1.905 c 2.1144,1.7902 2.7052,2.595 1.905,2.595 -0.1898,0 -1.2023,-1.0125 -2.25,-2.25 z m 27.3567,-270.4573 c 1.2439,-0.2392 3.0439,-0.2301 4,0.02 0.956,0.2503 -0.062,0.446 -2.2617,0.4349 -2.2,-0.011 -2.9823,-0.2159 -1.7383,-0.4551 z m -0.012,-79.955 c 0.6875,-0.2774 1.8125,-0.2774 2.5,0 0.6875,0.2774 0.125,0.5044 -1.25,0.5044 -1.375,0 -1.9375,-0.227 -1.25,-0.5044 z m -33.8776,-15.0877 c -1.2438,-1.5861 -1.2085,-1.6214 0.3776,-0.3776 0.9625,0.7549 1.75,1.5424 1.75,1.75 0,0.8231 -0.8212,0.2933 -2.1276,-1.3724 z m 33.8776,-178.9123 c 0.6875,-0.2774 1.8125,-0.2774 2.5,0 0.6875,0.2774 0.125,0.5044 -1.25,0.5044 -1.375,0 -1.9375,-0.227 -1.25,-0.5044 z m 6,-160.99998 c 0.6875,-0.27741 1.8125,-0.27741 2.5,0 0.6875,0.27741 0.125,0.50439 -1.25,0.50439 -1.375,0 -1.9375,-0.22698 -1.25,-0.50439 z m -33.345,-14.58772 -1.905,-2.25 2.25,1.90499 c 2.1144,1.79022 2.7052,2.59501 1.905,2.59501 -0.1898,0 -1.2023,-1.0125 -2.25,-2.25 z M 1593,702.62244 c 0,-0.20765 0.7875,-0.99515 1.75,-1.75 1.5861,-1.24387 1.6214,-1.2085 0.3776,0.37756 -1.3064,1.66575 -2.1276,2.19548 -2.1276,1.37244 z"
         id="path4809" />
      <path
         style="fill:#000000;fill-opacity:1"
         d="m 1635.8724,1969.25 c -1.2438,-1.5861 -1.2085,-1.6214 0.3776,-0.3776 1.6657,1.3064 2.1955,2.1276 1.3724,2.1276 -0.2076,0 -0.9951,-0.7875 -1.75,-1.75 z m -8,-6 c -1.2438,-1.5861 -1.2085,-1.6214 0.3776,-0.3776 0.9625,0.7549 1.75,1.5424 1.75,1.75 0,0.8231 -0.8212,0.2933 -2.1276,-1.3724 z m -13,-10 c -1.2438,-1.5861 -1.2085,-1.6214 0.3776,-0.3776 0.9625,0.7549 1.75,1.5424 1.75,1.75 0,0.8231 -0.8212,0.2933 -2.1276,-1.3724 z m -4,-3 c -1.2438,-1.5861 -1.2085,-1.6214 0.3776,-0.3776 1.6657,1.3064 2.1955,2.1276 1.3724,2.1276 -0.2076,0 -0.9951,-0.7875 -1.75,-1.75 z m -9,-7 c -1.2438,-1.5861 -1.2085,-1.6214 0.3776,-0.3776 1.6657,1.3064 2.1955,2.1276 1.3724,2.1276 -0.2076,0 -0.9951,-0.7875 -1.75,-1.75 z m -4,-3 c -1.2438,-1.5861 -1.2085,-1.6214 0.3776,-0.3776 1.6657,1.3064 2.1955,2.1276 1.3724,2.1276 -0.2076,0 -0.9951,-0.7875 -1.75,-1.75 z m -10.4353,-8.5 -2.9371,-3.25 3.25,2.9371 c 1.7875,1.6154 3.25,3.0779 3.25,3.25 0,0.7726 -0.8251,0.092 -3.5629,-2.9371 z m 72.9234,-76.75 c 0,-5.225 0.1685,-7.3625 0.3745,-4.75 0.206,2.6125 0.206,6.8875 0,9.5 -0.206,2.6125 -0.3745,0.475 -0.3745,-4.75 z m 277.9119,5 c 0,-2.475 0.195,-3.4875 0.4333,-2.25 0.2384,1.2375 0.2384,3.2625 0,4.5 -0.2383,1.2375 -0.4333,0.225 -0.4333,-2.25 z m -19.1935,-9.5833 c 0.048,-1.165 0.285,-1.4019 0.6042,-0.6042 0.2889,0.7219 0.2534,1.5844 -0.079,1.9167 -0.3323,0.3323 -0.5687,-0.2584 -0.5253,-1.3125 z m -1,-37 c 0.048,-1.165 0.285,-1.4019 0.6042,-0.6042 0.2889,0.7219 0.2534,1.5844 -0.079,1.9167 -0.3323,0.3323 -0.5687,-0.2584 -0.5253,-1.3125 z m 27.4211,-31.5718 c 11.3054,-1.9401 15.183,-2.1144 15.7115,-0.7063 0.4097,1.0913 -1.5939,1.3815 -10.1002,1.4628 -8.9087,0.085 -9.8091,-0.036 -5.6113,-0.7565 z M 1955,1726 c -1.7534,-1.3716 -2.0369,-1.9622 -0.9494,-1.9778 2.0129,-0.029 6.9315,2.2583 6.9416,3.2278 0.015,1.4301 -3.5045,0.6959 -5.9922,-1.25 z m -12.25,-2.7057 c 1.2375,-0.2384 3.2625,-0.2384 4.5,0 1.2375,0.2383 0.225,0.4333 -2.25,0.4333 -2.475,0 -3.4875,-0.195 -2.25,-0.4333 z M 1936.4959,1239 c 0,-265.925 0.1143,-374.7125 0.2541,-241.75 0.1397,132.9625 0.1397,350.5375 0,483.5 -0.1398,132.9625 -0.2541,24.175 -0.2541,-241.75 z m -97.417,152.4167 c 0.048,-1.165 0.285,-1.4019 0.6042,-0.6042 0.2889,0.7219 0.2534,1.5844 -0.079,1.9167 -0.3323,0.3323 -0.5687,-0.2584 -0.5253,-1.3125 z M 1632.75,754.25493 c 5.0875,-0.18149 13.4125,-0.18149 18.5,0 5.0875,0.18149 0.925,0.32999 -9.25,0.32999 -10.175,0 -14.3375,-0.1485 -9.25,-0.32999 z m 105.5774,-0.005 c 33.455,-0.14612 87.905,-0.14609 121,6e-5 33.0949,0.14615 5.7226,0.2657 -60.8274,0.26567 -66.55,-4e-5 -93.6277,-0.11962 -60.1726,-0.26573 z m 205.4618,0.008 c 3.459,-0.19583 8.859,-0.19422 12,0.004 3.1409,0.19781 0.3108,0.35803 -6.2892,0.35606 -6.6,-0.002 -9.1699,-0.16382 -5.7108,-0.35965 z m -338.9767,-56.9417 c 0.7219,-0.28887 1.5844,-0.25335 1.9167,0.0789 0.3323,0.33229 -0.2584,0.56864 -1.3125,0.52522 -1.165,-0.048 -1.4019,-0.28494 -0.6042,-0.60416 z m 374,0 c 0.7219,-0.28887 1.5844,-0.25335 1.9167,0.0789 0.3323,0.33229 -0.2584,0.56864 -1.3125,0.52522 -1.165,-0.048 -1.4019,-0.28494 -0.6042,-0.60416 z"
         id="path4807" />
      <path
         style="fill:#000000;fill-opacity:1"
         d="m 1754.7823,2049.9083 c -61.7127,-40.9777 -99.0232,-66.052 -105.2823,-70.7545 -30.8746,-23.1963 -57.7579,-44.1317 -61.2541,-47.7019 l -4.2541,-4.3441 0.2541,-604.3039 0.2541,-604.3039 2.8919,-6.2618 c 3.4059,-7.37503 8.9796,-12.80569 14.2984,-13.93169 2.0954,-0.44358 88.67,-0.80651 192.3882,-0.80651 h 188.5785 l 4.9215,3.03868 c 3.9031,2.4099 5.5997,4.37571 8.199,9.5 1.8026,3.55373 3.7125,9.16132 4.2442,12.46132 1.1421,7.08857 1.3536,1215.3624 0.213,1217.1541 -0.4041,0.6347 -17.1597,11.8376 -37.2347,24.8954 -42.5488,27.6757 -140.4074,91.3929 -156.7835,102.0841 -6.2059,4.0515 -12.1539,7.3664 -13.2177,7.3664 -1.0639,0 -18.2613,-10.8413 -38.2165,-24.0917 z m 83.92,-63.1748 c 17.8491,-12.2284 52.7805,-36.1877 77.6253,-53.2429 l 45.1724,-31.0095 0.2763,-58.9905 c 0.152,-32.4448 0.031,-60.0031 -0.269,-61.2406 -0.4503,-1.8574 -1.2286,-2.25 -4.4613,-2.25 -2.1537,0 -5.0339,0.4251 -6.4004,0.9446 -1.3665,0.5196 -4.7808,1.0821 -7.5872,1.25 l -5.1026,0.3054 0.075,44.5293 c 0.042,24.4911 -0.2291,45.3228 -0.6012,46.2926 -0.3722,0.9698 -2.3248,2.6041 -4.3391,3.6317 -2.0144,1.0277 -8.8214,5.5856 -15.1267,10.1286 -6.3053,4.5431 -24.7392,17.7823 -40.9642,29.4204 -41.2577,29.594 -58.6959,42.1605 -64.5,46.4807 -2.75,2.047 -5.4751,3.9856 -6.0558,4.3082 -2.2212,1.2339 -13.3079,-5.0781 -121.0311,-68.9072 -4.9979,-2.9614 -9.3612,-5.3843 -9.6965,-5.3843 -1.7773,0 -12.8666,-7.397 -13.9267,-9.2898 -0.9502,-1.6965 -1.1608,-13.6629 -0.9058,-51.4822 l 0.3322,-49.2719 -19.3582,0.2719 -19.3581,0.272 -0.2582,56.7215 -0.2583,56.7216 2.2583,1.4048 c 1.242,0.7727 15.3082,9.4966 31.2582,19.3865 52.7632,32.7164 143.9663,89.4482 146,90.8176 1.1,0.7408 2.6186,1.1372 3.3747,0.8809 0.7561,-0.2562 15.9785,-10.4709 33.8276,-22.6994 z m 6.3548,-71.2335 c 16.5804,-12.65 39.213,-29.8806 50.2946,-38.2903 27.9118,-21.1818 24.9557,-17.7659 24.2655,-28.0399 -0.3203,-4.7684 -0.8705,-21.6091 -1.2227,-37.4238 l -0.6404,-28.754 -120.6271,0.254 -120.627,0.254 v 43.3917 43.3916 l 15.5,9.2132 c 20.619,12.2561 102.3072,60.4627 107.9705,63.7167 l 4.4705,2.5686 5.235,-3.6409 c 2.8792,-2.0025 18.8007,-13.9909 35.3811,-26.6409 z m 116.4198,-191.75 c 0.3296,-2.3375 0.4697,-221.375 0.3112,-486.75 l -0.2881,-482.5 -11.3569,-0.28375 c -7.5173,-0.18782 -11.8278,0.10714 -12.75,0.87244 -1.9675,1.63289 -2.1101,966.13291 -0.1431,967.59651 0.6875,0.5116 4.4,1.0625 8.25,1.2243 4.9199,0.2068 7.7429,0.8488 9.5,2.1607 4.1366,3.0883 5.798,2.4931 6.4769,-2.3202 z m -300.7259,-485 -0.251,-484.25 -17.8691,-0.27356 c -12.3317,-0.18879 -18.2971,0.0816 -19.25,0.87245 -1.171,0.97182 -1.3809,74.51234 -1.3809,483.85691 0,265.491 0.3,483.0109 0.6667,483.3775 0.3666,0.3667 9.1421,0.6667 19.501,0.6667 h 18.8343 z m 260.249,0.2691 v -483.981 l -2.25,-0.54329 c -1.2375,-0.29881 -56.025,-0.41988 -121.75,-0.26905 l -119.5,0.27424 -0.251,484.25 -0.251,484.25 H 1798.999 1921 Z m -136.3724,387.8706 c -11.52,-2.7052 -25.6005,-13.9826 -31.1625,-24.9586 -9.7178,-19.1771 -6.2316,-41.2318 8.9016,-56.3142 30.6036,-30.5012 82.6333,-9.1668 82.6333,33.8831 0,22.143 -14.6618,41.5303 -35.5154,46.962 -6.4071,1.6688 -18.6731,1.8799 -24.857,0.4277 z m -2.5602,-187.0247 C 1760.2766,1436.2504 1742,1414.658 1742,1392.5286 c 0,-22.2971 15.9929,-42.3602 37.8812,-47.522 7.4289,-1.7519 21.084,-0.8126 28.3618,1.9511 12.0783,4.5865 23.2283,15.7675 27.8457,27.9231 2.7166,7.1518 3.642,20.871 1.9047,28.238 -4.4226,18.7537 -20.7441,33.7868 -39.9934,36.8363 -7.3621,1.1664 -8.3934,1.1605 -15.9326,-0.09 z m -3.4398,-177.9753 c -7.5602,-1.7753 -17.4663,-7.907 -23.615,-14.6172 -17.7719,-19.3949 -17.1954,-48.1018 1.3379,-66.626 22.3032,-22.2922 57.6448,-18.4525 75.3249,8.1837 9.1053,13.7178 9.7501,34.4269 1.5417,49.5141 -5.8576,10.7662 -19.4204,21.0277 -31.2171,23.6185 -5.486,1.2048 -18.0985,1.1654 -23.3724,-0.073 z m -0.7158,-194.3342 c -16.5568,-4.5674 -30.9346,-19.6679 -34.8324,-36.5833 -6.064,-26.3163 12.5519,-53.61903 39.6566,-58.16176 24.4892,-4.10435 48.4435,11.40636 54.8654,35.52596 1.8226,6.8453 1.7616,17.8497 -0.1394,25.1482 -4.2668,16.3812 -19.2087,30.9087 -35.462,34.4782 -6.1183,1.3437 -18.4995,1.1343 -24.0882,-0.4073 z m 6.7158,-160.66576 c -11.52,-2.70522 -25.6005,-13.98262 -31.1625,-24.95866 -9.7178,-19.17707 -6.2316,-41.23175 8.9016,-56.31422 C 1792.9703,795.1157 1845,816.45005 1845,859.5 c 0,22.14301 -14.6618,41.53033 -35.5154,46.962 -6.4071,1.66884 -18.6731,1.87991 -24.857,0.42774 z"
         id="path4805" />
    </g>
  </g>
</svg>
