<?xml version="1.0" encoding="UTF-8" standalone="no"?>
<!-- Created with Inkscape (http://www.inkscape.org/) -->

<svg
   version="1.1"
   id="svg4831"
   width="3464"
   height="3464"
   viewBox="0 0 3464 3464"
   sodipodi:docname="19 000000.svg"
   inkscape:version="1.2.2 (732a01da63, 2022-12-09)"
   xmlns:inkscape="http://www.inkscape.org/namespaces/inkscape"
   xmlns:sodipodi="http://sodipodi.sourceforge.net/DTD/sodipodi-0.dtd"
   xmlns="http://www.w3.org/2000/svg"
   xmlns:svg="http://www.w3.org/2000/svg">
  <defs
     id="defs4835" />
  <sodipodi:namedview
     id="namedview4833"
     pagecolor="#ffffff"
     bordercolor="#000000"
     borderopacity="0.25"
     inkscape:showpageshadow="2"
     inkscape:pageopacity="0.0"
     inkscape:pagecheckerboard="0"
     inkscape:deskcolor="#d1d1d1"
     showgrid="false"
     inkscape:zoom="0.2289261"
     inkscape:cx="1729.8159"
     inkscape:cy="1736.3682"
     inkscape:window-width="1920"
     inkscape:window-height="986"
     inkscape:window-x="-11"
     inkscape:window-y="-11"
     inkscape:window-maximized="1"
     inkscape:current-layer="g4837" />
  <g
     inkscape:groupmode="layer"
     inkscape:label="Image"
     id="g4837">
    <g
       id="g4841"
       style="fill:#000000"
       transform="matrix(2.4804936,0,0,1.6462366,-2789.0406,-633.29183)">
      <path
         style="fill:#000000;fill-opacity:1"
         d="m 1748.8399,2046.851 c -23.287,-15.4819 -50.6649,-33.6488 -60.8399,-40.3708 -48.0771,-31.7615 -96.5746,-66.6207 -102.5269,-73.6945 L 1583,1929.8465 V 1325.5286 721.21067 l 2.0708,-6.7045 c 1.4374,-4.65381 3.2968,-8.03448 6.0789,-11.05275 7.5447,-8.18508 -10.6966,-7.53514 202.8503,-7.22769 189.9251,0.27344 190.5105,0.28045 193.9853,2.32176 4.6207,2.71445 9.5487,9.32479 11.7391,15.74664 1.6921,4.96098 1.7876,33.89148 2.0305,615.01257 0.1622,388.2838 -0.094,610.4584 -0.7054,611.6008 -0.5281,0.9868 -8.6378,6.6988 -18.0215,12.6933 -9.3838,5.9946 -23.9163,15.4037 -32.2947,20.9091 -8.3783,5.5055 -27.3833,17.9305 -42.2333,27.6111 -14.85,9.6807 -44.55,29.0485 -66,43.0397 -47.2939,30.8482 -45.6446,29.8393 -48.7782,29.8393 -1.6598,0 -17.2366,-9.7695 -44.8819,-28.149 z m 96.6601,-65.3527 c 21.45,-14.744 55.425,-38.0514 75.5,-51.794 20.075,-13.7427 37.2875,-25.6679 38.25,-26.5005 1.6297,-1.4097 1.75,-5.5593 1.75,-60.3588 V 1784 h -169 -169 v 56.5246 56.5246 l 4.5473,2.7254 c 7.9059,4.7383 126.9209,78.8369 151.4527,94.2942 14.0677,8.8639 24.3028,14.6927 25.5,14.522 1.1,-0.1568 19.55,-12.3484 41,-27.0925 z m 115.251,-742.2649 0.2511,-483.2392 -168.7511,0.2529 -168.751,0.2529 -0.251,482.7471 -0.2511,482.7471 167.2511,0.2637 c 91.988,0.145 167.926,0.2527 168.751,0.2392 1.3309,-0.022 1.5283,-54.5087 1.751,-483.2637 z M 1785,1627.3918 c -9.9497,-2.6712 -15.8924,-6.076 -22.9118,-13.1271 -7.7579,-7.793 -11.4214,-14.5704 -13.6697,-25.2883 -4.3927,-20.9419 6.5074,-43.254 25.9645,-53.1479 32.9681,-16.7644 71.617,7.3034 71.617,44.5979 0,6.93 -2.3778,15.6233 -6.2812,22.9641 -10.1885,19.1609 -33.9411,29.5795 -54.7188,24.0013 z m -4.7373,-186.9059 c -13.6488,-2.9653 -27.1448,-13.4071 -33.1838,-25.6741 -1.7424,-3.5393 -3.8939,-10.1198 -4.7812,-14.6234 -1.4843,-7.5339 -1.4843,-8.8429 0,-16.3768 3.3586,-17.0475 12.3106,-28.8368 27.3919,-36.0733 7.6541,-3.6727 9.3435,-4.0924 18.1889,-4.5183 15.7051,-0.7563 27.0465,3.5069 37.6685,14.1593 19.762,19.8186 19.2591,51.4765 -1.1206,70.5407 -7.3101,6.8382 -16.6274,11.5823 -25.6103,13.04 -7.938,1.2881 -10.7762,1.2156 -18.5534,-0.4741 z m -2.4378,-178.4071 c -24.0005,-6.4753 -39.5973,-30.2031 -35.8268,-54.5044 4.7902,-30.874 36.6978,-49.9524 65.4456,-39.1318 8.511,3.2035 13.0668,6.244 19.3548,12.9172 11.2275,11.9152 15.7557,29.4139 11.6703,45.0986 -7.0321,26.998 -33.9657,42.818 -60.6439,35.6204 z M 1779,1068.4085 c -9.3472,-2.481 -16.1508,-6.4133 -23.073,-13.3355 -7.7071,-7.7071 -11.3373,-14.5492 -13.596,-25.6251 -7.4489,-36.5269 30.0484,-68.20349 65.1127,-55.00532 8.511,3.20352 13.0668,6.24404 19.3548,12.91726 13.7595,14.60226 16.8817,36.14676 7.9608,54.93176 -9.7733,20.5797 -33.9527,31.905 -55.7593,26.1169 z m 6,-161.0167 c -9.9497,-2.67118 -15.8924,-6.07601 -22.9118,-13.12711 -7.7579,-7.79303 -11.4214,-14.57039 -13.6697,-25.28832 -4.3927,-20.94183 6.5074,-43.25394 25.9645,-53.14791 32.9681,-16.76437 71.617,7.3034 71.617,44.59793 0,6.92997 -2.3778,15.62328 -6.2812,22.96409 -10.1885,19.16092 -33.9411,29.57949 -54.7188,24.00132 z"
         id="path4855" />
      <path
         style="fill:#000000;fill-opacity:1"
         d="m 1786.5,2071.3779 c -10.1974,-6.1472 -138.2286,-91.6218 -152.074,-101.5257 -25.7327,-18.4072 -49.2,-36.8921 -50.3337,-39.6471 -0.8142,-1.9788 -1.0432,-165.0064 -0.8527,-607.2051 l 0.2604,-604.5 2.3805,-5.90685 c 3.3859,-8.4015 9.3351,-14.0818 16.2468,-15.51265 3.8593,-0.79893 58.3298,-1.03735 193.3727,-0.84637 l 188,0.26587 4.2942,2.45897 c 4.8698,2.78863 9.438,9.0798 11.9779,16.49579 1.6285,4.75514 1.7443,39.97691 2.0124,612.54524 0.1565,334.125 0.036,608.8977 -0.2683,610.6059 -0.4841,2.7204 -2.4437,4.3276 -15.7845,12.9464 -8.3774,5.4122 -21.7567,14.0956 -29.7317,19.2965 -7.975,5.2008 -28,18.2291 -44.5,28.9516 -16.5,10.7226 -42.8778,27.9434 -58.6173,38.2684 -43.445,28.4998 -56.8467,36.9314 -58.6961,36.9286 -0.9276,0 -4.3866,-1.6302 -7.6866,-3.6195 z m 107.2803,-122.8779 67.166,-46 0.027,-59.8982 0.027,-59.8982 -8.25,0.6422 c -4.5375,0.3532 -80.5912,0.6449 -169.0083,0.6482 l -160.7582,0.01 0.2582,56.624 0.2583,56.624 57,35.4839 c 31.35,19.516 72.0456,44.8353 90.4348,56.2648 l 33.4348,20.7811 11.1223,-7.6389 c 6.1173,-4.2014 41.3471,-28.3389 78.2884,-53.6389 z M 1961,1239.5 V 756 h -169 -169 v 482.9969 482.9969 l 158.75,0.2562 c 87.3125,0.1409 163.3625,0.3673 169,0.5031 L 1961,1723 Z m -173.5,388.4801 c -23.3412,-4.6725 -39.7293,-24.6124 -39.7019,-48.3063 0.029,-24.8097 17.7309,-45.2032 42.2571,-48.6816 26.085,-3.6995 51.0869,14.9387 55.0866,41.0654 5.1211,33.4522 -24.8137,62.4942 -57.6418,55.9225 z m -4.1533,-187.086 c -26.5321,-4.3752 -45.0066,-29.047 -41.3078,-55.1648 1.7431,-12.3089 6.1894,-20.872 15.3222,-29.5095 19.0725,-18.038 49.2424,-17.5913 67.8577,1.0049 19.3356,19.3157 19.479,50.1904 0.3224,69.4018 -11.3702,11.4027 -27.1698,16.7452 -42.1945,14.2676 z M 1781.5,1262.978 c -23.0491,-4.6264 -39.7289,-24.9187 -39.7019,-48.3005 0.042,-36.3777 37.0811,-59.7582 69.9968,-44.1849 24.8018,11.7345 35.037,41.3318 22.8101,65.9605 -9.7189,19.5769 -32.0789,30.7452 -53.105,26.5249 z m -2.5,-194.5695 c -22.3777,-5.9397 -37.118,-24.9368 -37.1732,-47.9085 -0.088,-36.6284 37.6164,-59.79718 70.807,-43.50972 24.2397,11.89498 34.0571,41.15632 21.9634,65.46282 -10.1712,20.4427 -34.165,31.6442 -55.5972,25.9554 z m 8.5,-160.42837 c -23.3412,-4.67252 -39.7293,-24.6124 -39.7019,-48.30637 0.029,-24.80963 17.7309,-45.20315 42.2571,-48.68159 26.085,-3.69951 51.0869,14.9387 55.0866,41.06538 5.1211,33.45224 -24.8137,62.49423 -57.6418,55.92258 z"
         id="path4853" />
      <path
         style="fill:#000000;fill-opacity:1"
         d="m 1787,2071.6722 c -10.9295,-6.6027 -140.8041,-93.4949 -153,-102.3641 -23.367,-16.9933 -48.4577,-36.8418 -49.7162,-39.3291 -1.7263,-3.4118 -1.8869,-1201.64228 -0.1622,-1210.23005 1.8076,-9.001 5.7207,-15.77342 11.2665,-19.49895 l 4.8379,-3.25 h 191.4191 c 159.807,0 191.9606,0.22623 194.6977,1.36988 4.862,2.03148 10.392,9.12536 12.9313,16.5883 l 2.2259,6.54182 0.3109,593.5 c 0.1709,326.425 0.01,600.8521 -0.3604,609.8381 l -0.6712,16.338 -3.6396,2.5216 c -2.0019,1.3869 -27.7147,18.1886 -57.1397,37.3371 -29.425,19.1485 -60.925,39.6586 -70,45.5781 -55.6191,36.279 -74.6323,48.3868 -75.9798,48.3845 -0.8361,0 -3.9952,-1.4977 -7.0202,-3.3252 z m 101,-119.1735 c 32.725,-22.4518 62.5352,-42.8863 66.245,-45.4101 l 6.7449,-4.5886 0.01,-59.9085 0.01,-59.9084 -19.6608,0.6584 c -10.8135,0.3622 -86.8672,0.6585 -169.0083,0.6585 h -149.3474 l 0.2582,56.6919 0.2583,56.6919 18,11.1881 c 9.9,6.1535 50.5969,31.4642 90.4376,56.2461 l 72.4375,45.058 12.0625,-8.2779 c 6.6343,-4.5529 38.8374,-26.6476 71.5624,-49.0994 z m 73,-713.5016 V 754.9942 l -168.75,0.2529 -168.75,0.2529 -0.2557,482.5 c -0.1406,265.375 -0.042,483.0625 0.2186,483.75 0.3769,0.9932 35.1002,1.25 169.0057,1.25 H 1961 Z m -174.5891,388.519 c -22.766,-4.9534 -38.4109,-24.4795 -38.4109,-47.9399 0,-17.3265 8.2315,-32.4107 22.7086,-41.6135 8.2736,-5.2594 16.9013,-7.2867 28.7648,-6.7591 9.2573,0.4118 11.0442,0.8202 17.9618,4.1053 19.8972,9.4491 31.0166,30.4678 27.6104,52.1911 -3.0911,19.7141 -19.7747,36.7605 -39.5574,40.4176 -7.343,1.3574 -11.3845,1.2723 -19.0773,-0.4015 z m -7.6568,-187.6001 c -10.372,-2.4451 -23.4649,-12.0673 -29.6416,-21.7842 -11.492,-18.0784 -9.0712,-43.1204 5.7267,-59.2423 26.8086,-29.207 75.5462,-15.6295 83.8008,23.3456 5.2237,24.664 -9.2941,49.3269 -33.4232,56.7797 -6.8584,2.1183 -19.477,2.5481 -26.4627,0.9012 z m 1.53,-177.4257 c -17.1982,-3.7373 -31.2683,-16.7509 -36.4089,-33.6752 -2.7656,-9.1051 -2.3016,-23.444 1.0372,-32.0581 4.6204,-11.9202 15.7586,-23.0749 27.8957,-27.9369 4.8501,-1.9429 7.5407,-2.2831 18.1919,-2.3001 12.326,-0.02 12.6044,0.03 20,3.5913 20.5743,9.9068 31.4604,30.2381 28.0509,52.3887 -3.0343,19.7127 -19.7367,36.8092 -39.4846,40.4162 -7.461,1.3628 -11.457,1.2745 -19.2822,-0.4259 z m 0.1177,-193.976 C 1757.6836,1063.5717 1742,1043.9622 1742,1020.5 c 0,-15.6456 6.6199,-29.30403 18.6958,-38.57393 9.9867,-7.66608 15.5165,-9.38247 30.3042,-9.4061 12.326,-0.0197 12.6044,0.0303 20,3.59138 25.7523,12.40005 35.8465,41.22425 23.3347,66.63275 -6.4059,13.0088 -20.4082,23.5492 -34.7684,26.1721 -7.4382,1.3586 -11.46,1.2743 -19.1645,-0.4019 z m 6.0091,-160.99817 C 1763.6449,902.56266 1748,883.03661 1748,859.57617 c 0,-17.32648 8.2315,-32.41071 22.7086,-41.61347 8.2736,-5.25938 16.9013,-7.28669 28.7648,-6.75906 9.2573,0.41172 11.0442,0.82012 17.9618,4.10526 19.8972,9.44913 31.0166,30.46784 27.6104,52.1911 -3.0911,19.71413 -19.7747,36.76052 -39.5574,40.41755 -7.343,1.35742 -11.3845,1.27238 -19.0773,-0.40142 z"
         id="path4851" />
      <path
         style="fill:#000000;fill-opacity:1"
         d="m 1790.5,2073.7861 c -4.1449,-2.3896 -124.6206,-82.4879 -138.5,-92.0818 -17.5761,-12.1491 -61.3372,-45.3561 -65.5,-49.703 l -3,-3.1326 V 1324.1843 719.5 l 2.3708,-5.88083 c 2.7484,-6.81759 8.2369,-13.34205 12.8471,-15.27204 2.6605,-1.11378 36.1789,-1.34333 193.5,-1.32517 183.683,0.0212 190.4248,0.0868 194.3982,1.89116 4.6285,2.10191 8.2415,6.34937 11.6039,13.64193 l 2.28,4.94495 v 611.9296 611.9296 l -25.5404,16.5704 c -22.4188,14.545 -91.1632,59.3395 -157.7086,102.7642 -11.963,7.8066 -22.426,14.2054 -23.251,14.2196 -0.825,0.014 -2.4,-0.4931 -3.5,-1.1273 z m 52.1684,-90.0817 c 20.2574,-13.9031 54.8316,-37.59 76.8316,-52.6376 22,-15.0475 40.5661,-28.0592 41.2579,-28.9149 0.9852,-1.2185 1.202,-14.2481 1,-60.1038 L 1961.5,1783.5 h -169 -169 l -0.2208,57 -0.2208,57 11.7208,7.1107 c 6.4464,3.9108 47.2346,29.2027 90.6404,56.2042 43.4058,27.0014 79.2565,48.8853 79.6683,48.6307 0.4119,-0.2545 17.323,-11.838 37.5805,-25.7412 z M 1961.5,1239 V 755.5 L 1792.25,755.24711 1623,754.99422 V 1239 1723.0058 l 169.25,-0.2529 169.25,-0.2529 z m -175.0982,388.5617 c -17.2474,-3.8865 -30.896,-16.4385 -36.3632,-33.4417 -1.9691,-6.1239 -2.2304,-8.5782 -1.7981,-16.8924 0.9974,-19.1858 10.1931,-33.0223 27.5732,-41.4883 7.5674,-3.6863 9.189,-4.0919 18.0648,-4.5193 15.6587,-0.754 26.716,3.3745 37.2495,13.908 19.3244,19.3244 19.1764,50.7541 -0.3274,69.5071 -11.7681,11.3151 -29.1248,16.3684 -44.3988,12.9266 z m -8.1373,-188.1033 c -8.4568,-2.2775 -15.2925,-6.3012 -21.8571,-12.8658 -16.5648,-16.5648 -19.257,-41.5904 -6.5837,-61.1985 10.1467,-15.6989 29.556,-24.4019 48.0243,-21.5339 26.9359,4.1831 45.2993,28.9875 41.1918,55.6398 -2.9653,19.2406 -18.5185,36.1413 -37.2316,40.4574 -6.0777,1.4018 -17.3747,1.1624 -23.5437,-0.499 z m 2.1373,-176.9441 c -16.9395,-3.6854 -31.3266,-16.8182 -36.3925,-33.2197 -2.2138,-7.1674 -2.6374,-18.858 -0.9488,-26.1828 3.0775,-13.3489 13.211,-25.6718 26.5435,-32.2784 7.6908,-3.8109 9.1237,-4.1728 18.2676,-4.6131 8.1937,-0.3945 11.1369,-0.1088 16.8953,1.6403 27.0153,8.2056 41.2766,37.0901 31.706,64.2163 -5.4052,15.3199 -21.4252,28.1775 -38.4729,30.8782 -8.0357,1.2731 -9.9396,1.2254 -17.5982,-0.4408 z M 1782,1068.902 c -11.6021,-2.0102 -24.6552,-10.3992 -31.385,-20.1705 -7.5429,-10.9519 -10.5561,-26.6081 -7.5927,-39.4497 3.0929,-13.40208 13.307,-25.87049 26.5817,-32.44836 7.6908,-3.81095 9.1237,-4.17281 18.2676,-4.61312 12.1603,-0.58555 20.7129,1.65106 29.9819,7.84066 14.0124,9.35712 21.4924,23.43122 21.4924,40.43902 0,26.1834 -19.0903,46.7433 -45.3459,48.8367 -3.575,0.2851 -8.975,0.09 -12,-0.4347 z m 4.4018,-161.3403 c -17.2474,-3.8865 -30.896,-16.43852 -36.3632,-33.44174 -1.9691,-6.12385 -2.2304,-8.57817 -1.7981,-16.8924 0.9974,-19.18577 10.1931,-33.02223 27.5732,-41.48831 7.5674,-3.68621 9.189,-4.09186 18.0648,-4.51926 15.6587,-0.75402 26.716,3.37453 37.2495,13.90803 19.3244,19.3244 19.1764,50.7541 -0.3274,69.50704 -11.7681,11.3151 -29.1248,16.36846 -44.3988,12.92664 z"
         id="path4849" />
      <path
         style="fill:#000000;fill-opacity:1"
         d="m 1792.6138,2074.2245 c -1.0374,-0.233 -4.4124,-2.0323 -7.5,-3.9984 -11.5134,-7.3315 -134.1787,-89.2091 -139.784,-93.3041 -23.0467,-16.8368 -59.1756,-45.2653 -60.3754,-47.5072 -1.2679,-2.3692 -1.4544,-79.9768 -1.4544,-605.3162 0,-593.82927 0.028,-602.6848 1.9413,-608.52173 2.5277,-7.71189 6.9944,-13.52395 12.5554,-16.33694 l 4.468,-2.26008 191.091,0.26008 191.0911,0.26007 3.7065,2.5 c 4.8515,3.27222 9.1694,10.07001 11.0969,17.46999 1.3916,5.34285 1.5482,68.01504 1.5345,613.99011 -0.01,334.4219 -0.3459,608.5183 -0.75,609.1031 -0.4041,0.5848 -8.6097,6.1797 -18.2347,12.4332 -9.625,6.2535 -23.125,15.0379 -30,19.521 -6.875,4.4831 -21.5,14.0068 -32.5,21.1638 -11,7.157 -36.425,23.7337 -56.5,36.8372 -35.4378,23.1313 -65.4622,42.5255 -67.5,43.6016 -0.55,0.2905 -1.8488,0.3375 -2.8862,0.1045 z M 1838,1986.9872 c 17.875,-12.2461 38.125,-26.1296 45,-30.8521 6.875,-4.7225 27.35,-18.7734 45.5,-31.2241 l 33,-22.6377 0.2392,-58.8867 c 0.1316,-32.3876 -0.093,-59.3366 -0.5,-59.8866 -0.4891,-0.6616 -57.8413,-0.9106 -169.4892,-0.7358 l -168.75,0.2643 v 57.3903 57.3903 l 5.3908,3.0424 c 5.4027,3.0491 130.4864,80.7778 159.6092,99.1834 8.525,5.3877 15.95,9.6659 16.5,9.507 0.55,-0.159 15.625,-10.3086 33.5,-22.5547 z M 1961.5,1239.5 v -484 L 1792.25,755.24711 1623,754.99422 v 483.99998 483.9999 l 166.25,0.2775 c 91.4375,0.1527 167.6,0.2665 169.25,0.253 l 3,-0.025 v -484 z m -172.1533,388.3941 c -24.2729,-4.0027 -41.2937,-23.9585 -41.3348,-48.4626 -0.021,-12.484 4.4278,-23.4719 13.4479,-33.2148 22.3202,-24.1084 62.9454,-18.675 78.2429,10.4645 5.708,10.8729 7.24,25.1243 3.9262,36.5233 -6.7442,23.1992 -30.7869,38.564 -54.2822,34.6896 z M 1782,1440.2995 c -8.6179,-1.4758 -19.9523,-7.5416 -26.1533,-13.9966 -18.5595,-19.3195 -18.496,-49.6536 0.143,-68.2926 16.0552,-16.0552 40.8101,-19.1213 60.1002,-7.4439 22.1469,13.4068 29.8823,42.3414 17.3594,64.9336 -10.0631,18.1546 -31.0839,28.287 -51.4493,24.7995 z m 0,-177.6894 c -38.8182,-7.0231 -53.5599,-55.7872 -25.0777,-82.9546 12.5387,-11.9599 29.8532,-16.4697 46.5427,-12.1226 14.7949,3.8536 28.2334,16.2052 33.1466,30.4658 12.2803,35.6438 -17.8289,71.2663 -54.6116,64.6114 z m 0,-194 c -38.8029,-7.0203 -53.5486,-55.7979 -25.0777,-82.95459 19.56,-18.65709 49.3831,-18.32378 68.4484,0.76501 9.2942,9.30564 14.1,21.54758 13.8771,35.34938 -0.2144,13.276 -4.6849,23.7369 -14.2605,33.3695 -11.2566,11.3235 -27.2149,16.3243 -42.9873,13.4707 z m 7.3467,-160.71603 c -24.2729,-4.00264 -41.2937,-23.95844 -41.3348,-48.46257 -0.021,-12.48404 4.4278,-23.47192 13.4479,-33.21478 22.3202,-24.10843 62.9454,-18.67506 78.2429,10.46449 5.708,10.87291 7.24,25.12425 3.9262,36.52334 -6.7442,23.1992 -30.7869,38.56392 -54.2822,34.68952 z"
         id="path4847" />
      <path
         style="fill:#000000;fill-opacity:1"
         d="m 1789.5,2072.7975 c -11.3737,-6.4927 -139.8594,-93.0921 -154.1572,-103.902 -34.052,-25.7451 -48.4018,-37.0559 -49.8863,-39.3216 -1.2807,-1.9545 -1.4315,-77.6358 -1.2098,-607.1534 L 1584.5,717.5 l 2.6014,-5.5 c 2.8121,-5.94556 6.6011,-10.22243 11.3778,-12.84285 2.7776,-1.52371 18.228,-1.67811 191.8758,-1.91741 136.1382,-0.18761 190.0073,0.05 192.9829,0.85124 5.6381,1.51818 11.7691,7.91714 14.7638,15.40902 l 2.3983,6 0.2549,610.2837 0.2548,610.2837 -23.9991,15.7163 c -13.1995,8.644 -29.2892,19.1548 -35.7549,23.3574 -17.636,11.4631 -58.0005,37.7408 -82.2557,53.5492 -23.8968,15.5748 -44.6422,29.073 -56,36.4369 -7.7216,5.0063 -10.0504,5.6395 -13.5,3.6703 z m 29.319,-72.5475 c 7.7811,-5.3625 26.9865,-18.525 42.6788,-29.25 15.6922,-10.725 35.3873,-24.2441 43.7668,-30.0424 8.3795,-5.7984 23.7854,-16.3309 34.2354,-23.4055 10.45,-7.0747 19.791,-13.541 20.7578,-14.3696 1.6459,-1.4107 1.7414,-5.2878 1.5,-60.9177 l -0.2578,-59.4111 -168.9028,0.1085 c -92.8965,0.06 -169.284,0.3442 -169.75,0.6322 -0.4659,0.288 -0.8406,25.5846 -0.8325,56.2146 0.015,57.0109 0.2816,61.2032 3.8409,60.433 0.6557,-0.1418 8.9439,4.5212 18.4183,10.3623 22.2291,13.7046 105.4095,65.506 135.7261,84.5247 12.925,8.1083 23.7636,14.7713 24.0858,14.8067 0.3222,0.035 6.9522,-4.3232 14.7332,-9.6857 z m 142.5507,-276.5 c 0.3317,-1.2375 0.6091,-219.7138 0.6166,-485.5029 L 1962,754.99424 1792.25,755.24712 1622.5,755.5 v 483.5 483.5 l 166.7002,0.5 c 131.488,0.3944 166.9642,0.764 167.95,1.75 1.8948,1.8951 3.5487,1.5032 4.2195,-1 z M 1782,1626.0987 c -8.6853,-3.0899 -14.2678,-6.6503 -20.2324,-12.9035 -8.9229,-9.3547 -13.7676,-21.0258 -13.7676,-33.1666 0,-27.3683 21.8901,-49.0933 49.3865,-49.0138 20.7321,0.06 40.0695,14.7501 46.0529,34.9852 1.9275,6.5187 2.1595,18.6592 0.4884,25.5651 -3.2293,13.3455 -13.7901,26.0936 -26.6926,32.221 -7.0454,3.3458 -8.3543,3.6218 -18.6561,3.9338 -9.0576,0.2743 -12.0826,-0.022 -16.5791,-1.6212 z m -0.3348,-186.1455 c -13.6817,-2.2968 -28.3113,-13.4608 -34.4329,-26.2762 -4.0043,-8.3831 -5.1798,-13.2867 -5.196,-21.677 -0.032,-16.4587 9.8907,-33.7534 23.8437,-41.5588 9.4242,-5.272 15.6413,-6.6947 27.222,-6.2296 9.6798,0.3887 11.2722,0.7441 18.3084,4.0856 17.6146,8.3651 28.1703,25.5474 27.7964,45.2462 -0.562,29.6107 -27.6184,51.4329 -57.5416,46.4098 z m -4.2181,-178.2959 C 1756.4336,1254.7621 1742,1235.7755 1742,1215.0286 c 0,-12.9278 4.4242,-24.0523 13.4373,-33.7875 15.3975,-16.6311 42.0692,-20.0226 61.0472,-7.7625 26.6525,17.218 30.6489,53.3237 8.3735,75.6504 -3.6323,3.6407 -8.3782,7.0073 -13.3236,9.4515 -7.3091,3.6123 -8.2237,3.8112 -18.858,4.1015 -7.3795,0.2015 -12.5533,-0.1466 -15.2293,-1.0247 z m 1.307,-193.6811 c -16.0058,-4.0304 -30.2405,-18.1634 -35.1587,-34.9077 -6.1217,-20.8414 4.8105,-45.45404 24.6185,-55.42578 33.1005,-16.66347 71.2016,6.55026 70.9397,43.22128 -0.1391,19.4794 -10.878,35.8942 -29.0933,44.4702 -5.7028,2.6849 -7.6484,3.0636 -17,3.3086 -5.8082,0.1522 -12.2459,-0.1478 -14.3062,-0.6666 z M 1782,906.0987 c -8.6853,-3.08994 -14.2678,-6.65026 -20.2324,-12.90354 C 1752.8447,883.8405 1748,872.16938 1748,860.0286 c 0,-27.36834 21.8901,-49.0933 49.3865,-49.01382 20.7321,0.0599 40.0695,14.75012 46.0529,34.98522 1.9275,6.51874 2.1595,18.65917 0.4884,25.5651 -3.2293,13.34554 -13.7901,26.09359 -26.6926,32.22096 -7.0454,3.34586 -8.3543,3.62186 -18.6561,3.93383 -9.0576,0.2743 -12.0826,-0.0215 -16.5791,-1.62119 z"
         id="path4845" />
      <path
         style="fill:#000000;fill-opacity:1"
         d="m 1754.7823,2049.9083 c -61.7127,-40.9777 -99.0232,-66.052 -105.2823,-70.7545 -30.8746,-23.1963 -57.7579,-44.1317 -61.2541,-47.7019 l -4.2541,-4.3441 0.2541,-604.3039 0.2541,-604.3039 2.8919,-6.2618 c 3.4059,-7.37503 8.9796,-12.80569 14.2984,-13.93169 C 1603.7857,697.86293 1690.325,697.5 1794,697.5 h 188.5 l 4.5785,2.69165 c 5.0372,2.96133 8.5761,7.67032 11.5045,15.30835 1.8808,4.9056 1.9215,16.4984 2.155,614 0.1309,334.95 -0.094,609.5193 -0.5,610.1541 -0.4059,0.6347 -17.163,11.8376 -37.238,24.8954 -42.5488,27.6757 -140.4074,91.3929 -156.7835,102.0841 -6.2059,4.0515 -12.1539,7.3664 -13.2177,7.3664 -1.0639,0 -18.2613,-10.8413 -38.2165,-24.0917 z m 84.3207,-63.4668 c 18.9183,-12.9572 54.2847,-37.1447 78.5919,-53.75 l 44.1948,-30.1915 0.055,-59.6682 c 0.03,-32.8175 -0.218,-60.38 -0.5519,-61.25 -0.748,-1.9493 -7.0127,-2.1369 -11.0779,-0.3318 -2.1991,0.9765 -38.3716,1.3594 -165.3151,1.75 l -162.5,0.5 v 59.5 c 0,32.725 0.3826,60.4 0.8502,61.5 0.8117,1.9096 0.8979,1.8869 1.9062,-0.5 0.5808,-1.375 0.9811,-2.8515 0.8895,-3.281 -0.3428,-1.6075 0.7152,-0.9626 103.8541,63.3018 20.075,12.5084 44.825,27.9468 55,34.3075 10.175,6.3607 18.7713,11.5889 19.103,11.6183 0.3316,0.029 16.0816,-10.5479 35,-23.5051 z M 1961.4769,1723.75 c 0.3296,-2.3375 0.4697,-221.375 0.3112,-486.75 L 1961.5,754.5 1792.8748,754.24711 c -140.9753,-0.21143 -168.8097,-0.0304 -169.751,1.1037 -0.8318,1.0023 -1.0603,127.47144 -0.8748,484.25289 l 0.251,482.8963 164.5217,0.5 164.5216,0.5 2.9784,2.2183 c 4.6225,3.443 6.2572,2.9804 6.9552,-1.9683 z m -176.8493,-96.8603 c -11.52,-2.7052 -25.6005,-13.9826 -31.1625,-24.9586 -9.7178,-19.1771 -6.2316,-41.2318 8.9016,-56.3142 30.6036,-30.5012 82.6333,-9.1668 82.6333,33.8831 0,22.143 -14.6618,41.5303 -35.5154,46.962 -6.4071,1.6688 -18.6731,1.8799 -24.857,0.4277 z m -2.5602,-187.0247 C 1760.2766,1436.2504 1742,1414.658 1742,1392.5286 c 0,-22.2971 15.9929,-42.3602 37.8812,-47.522 7.4289,-1.7519 21.084,-0.8126 28.3618,1.9511 12.0783,4.5865 23.2283,15.7675 27.8457,27.9231 2.7166,7.1518 3.642,20.871 1.9047,28.238 -4.4226,18.7537 -20.7441,33.7868 -39.9934,36.8363 -7.3621,1.1664 -8.3934,1.1605 -15.9326,-0.09 z m -3.4398,-177.9753 c -7.5602,-1.7753 -17.4663,-7.907 -23.615,-14.6172 -17.7719,-19.3949 -17.1954,-48.1018 1.3379,-66.626 22.3032,-22.2922 57.6448,-18.4525 75.3249,8.1837 9.1053,13.7178 9.7501,34.4269 1.5417,49.5141 -5.8576,10.7662 -19.4204,21.0277 -31.2171,23.6185 -5.486,1.2048 -18.0985,1.1654 -23.3724,-0.073 z m -0.7158,-194.3342 c -16.5568,-4.5674 -30.9346,-19.6679 -34.8324,-36.5833 -5.8771,-25.5055 11.2747,-52.02252 37.303,-57.67086 25.275,-5.48489 50.5511,9.99162 57.219,35.03506 1.8226,6.8453 1.7616,17.8497 -0.1394,25.1482 -4.2425,16.2881 -19.3011,30.929 -35.462,34.4782 -6.1183,1.3437 -18.4995,1.1343 -24.0882,-0.4073 z m 6.7158,-160.66576 c -11.52,-2.70522 -25.6005,-13.98262 -31.1625,-24.95866 -9.7178,-19.17707 -6.2316,-41.23175 8.9016,-56.31422 C 1792.9703,795.1157 1845,816.45005 1845,859.5 c 0,22.14301 -14.6618,41.53033 -35.5154,46.962 -6.4071,1.66884 -18.6731,1.87991 -24.857,0.42774 z"
         id="path4843" />
    </g>
  </g>
</svg>
