<?xml version="1.0" encoding="UTF-8" standalone="no"?>
<!-- Created with Inkscape (http://www.inkscape.org/) -->

<svg
   version="1.1"
   id="svg4907"
   width="3464"
   height="3464"
   viewBox="0 0 3464 3464"
   sodipodi:docname="21 ,0000000000.svg"
   inkscape:version="1.2.2 (732a01da63, 2022-12-09)"
   xmlns:inkscape="http://www.inkscape.org/namespaces/inkscape"
   xmlns:sodipodi="http://sodipodi.sourceforge.net/DTD/sodipodi-0.dtd"
   xmlns="http://www.w3.org/2000/svg"
   xmlns:svg="http://www.w3.org/2000/svg">
  <defs
     id="defs4911" />
  <sodipodi:namedview
     id="namedview4909"
     pagecolor="#ffffff"
     bordercolor="#000000"
     borderopacity="0.25"
     inkscape:showpageshadow="2"
     inkscape:pageopacity="0.0"
     inkscape:pagecheckerboard="0"
     inkscape:deskcolor="#d1d1d1"
     showgrid="false"
     inkscape:zoom="0.2289261"
     inkscape:cx="1729.8159"
     inkscape:cy="1736.3682"
     inkscape:window-width="1920"
     inkscape:window-height="986"
     inkscape:window-x="-11"
     inkscape:window-y="-11"
     inkscape:window-maximized="1"
     inkscape:current-layer="g4913" />
  <g
     inkscape:groupmode="layer"
     inkscape:label="Image"
     id="g4913">
    <path
       style="fill:#000000;stroke-width:1.28647"
       d="m 2087.3091,2409.1772 c -0.4459,-4.4355 -0.8104,-107.1852 -0.8104,-228.3328 0,-191.4528 -0.2398,-220.3638 -1.8336,-220.9999 -1.0082,-0.4025 -176.8325,8.1974 -390.7205,19.1109 -375.0354,19.1361 -450.9426,23.0138 -758.479,38.7475 -269.89157,13.8079 -325.56172,16.5909 -347.06632,17.3497 l -21.62363,0.763 -1.08167,-15.6022 c -0.59491,-8.5811 -1.08166,-202.762 -1.08166,-431.5128 v -415.9107 l 2.95088,-7.6054 c 5.80493,-14.9617 22.09332,-27.7938 40.41374,-31.8388 7.14229,-1.5769 183.09513,-1.8455 1213.91946,-1.8537 l 1205.5663,-0.013 2.0557,3.2631 c 1.9316,3.0661 1.8593,3.9948 -1.1985,15.4055 -1.7898,6.6784 -3.9132,15.0947 -4.7191,18.7028 -0.8056,3.6079 -3.6011,11.3775 -6.2121,17.2652 -2.7915,6.2952 -6.4139,18.186 -8.7935,28.8646 -2.6238,11.7755 -5.4827,20.9264 -8.1325,26.0314 -4.9962,9.6251 -7.2487,16.7316 -11.2296,35.4294 -1.7301,8.1254 -5.3599,19.7178 -8.3028,26.5163 -3.2983,7.6189 -6.8164,19.2441 -9.5278,31.4837 -4.757,21.4735 -6.4245,26.9448 -11.2011,36.7492 -3.5558,7.2982 -6.5449,19.2282 -11.5984,46.2882 -1.8191,9.7417 -5.7751,24.7971 -8.791,33.4564 -7.2549,20.8309 -9.825,31.0589 -14.5061,57.7289 -4.973,28.331 -8.0084,42.593 -12.566,59.041 -1.9996,7.2162 -4.2727,16.8482 -5.0516,21.4046 -0.7788,4.5565 -3.0932,14.2983 -5.1427,21.6485 -2.0499,7.3501 -6.0089,26.6317 -8.798,42.8478 -2.7889,16.2162 -5.8839,32.7478 -6.8779,36.7369 -1.6563,6.6485 -9.4087,53.6329 -13.8456,83.9144 -1.012,6.9053 -3.509,23.7731 -5.5492,37.4838 -2.0402,13.7105 -4.0706,28.4708 -4.512,32.8004 -0.4413,4.3298 -2.1641,18.4996 -3.8281,31.4885 -4.97,38.7941 -8.1255,70.4314 -10.1416,101.6817 -1.0476,16.2363 -3.0142,42.5095 -4.3704,58.3849 -1.3561,15.8754 -2.4828,36.0873 -2.5038,44.9153 -0.022,8.8277 -0.8707,25.6544 -1.8883,37.3925 -1.831,21.1203 -4.2263,149.8571 -3.1681,170.2562 0.7415,14.2889 0.7179,107.2592 -0.028,107.9677 -0.3468,0.3298 -59.0968,2.1719 -130.5555,4.0933 -357.7144,9.6186 -428.2457,11.5407 -534.8301,14.577 -37.4604,1.0671 -71.5794,1.9401 -75.8199,1.9401 h -7.7103 l -0.8103,-8.0645 z m 136.0522,-66.7344 c 16.1653,-0.971 146.3969,-3.9629 252.9119,-5.8102 50.2148,-0.871 92.4368,-1.6843 149.4765,-2.8795 22.2008,-0.465 61.1789,-0.8105 86.6179,-0.7676 33.4546,0.056 46.8037,-0.3467 48.2437,-1.4574 3.1827,-2.4554 4.9249,-15.7685 3.8921,-29.7441 -1.8477,-25.0013 -0.4509,-167.5744 1.8447,-188.2751 0.8001,-7.216 1.4464,-21.3859 1.4362,-31.4884 -0.012,-10.1027 1.0623,-29.8812 2.3836,-43.9527 1.3214,-14.0714 3.0116,-35.326 3.7558,-47.2327 0.7443,-11.9067 1.8862,-29.9877 2.5375,-40.1803 1.1275,-17.6471 3.5241,-38.6185 8.902,-77.9017 1.3337,-9.7417 3.3026,-26.5456 4.3749,-37.3417 1.6287,-16.3948 6.9845,-53.2191 18.899,-129.9408 1.0083,-6.4947 2.4245,-17.9874 3.1468,-25.5394 0.7222,-7.5524 2.9926,-20.0254 5.0454,-27.718 2.0528,-7.6925 6.8889,-33.6206 10.7469,-57.6181 9.0824,-56.4937 11.9973,-70.5437 20.3685,-98.1802 3.9338,-12.9874 9.033,-34.0092 11.8278,-48.7629 3.3614,-17.7438 6.5662,-30.4353 10.148,-40.188 7.0044,-19.0718 8.1502,-23.2656 12.56,-45.9718 4.3221,-22.2542 6.4434,-29.6425 11.4251,-39.788 3.8066,-7.7524 5.7144,-14.5774 10.5608,-37.781 1.9453,-9.3132 4.9649,-18.8751 8.126,-25.7316 5.1497,-11.1697 10.8916,-31.3826 9.5541,-33.6335 -0.4738,-0.7973 -374.3285,-1.2553 -1024.9333,-1.2553 H 873.026 l -0.22076,24.9284 c -0.12107,13.7106 -0.32,26.7919 -0.44152,29.0695 -0.12107,2.2777 -0.59627,31.3554 -1.05525,64.6171 -0.45909,33.2617 -1.12193,73.1697 -1.47315,88.6843 -0.35123,15.5146 -1.18941,64.5186 -1.86266,108.8978 -0.67324,44.3791 -1.50974,95.7446 -1.85896,114.1456 -0.34909,18.4013 -0.92981,53.8257 -1.29043,78.7213 -0.36052,24.8956 -0.92758,57.9586 -1.25978,73.4733 -0.33243,15.5146 -0.96361,51.0868 -1.40289,79.0493 l -0.79857,50.8408 h 5.11913 c 4.05493,0 315.17164,-15.7283 531.92054,-26.8908 20.8132,-1.0719 89.7805,-4.5997 153.2608,-7.8396 63.4803,-3.2399 191.1976,-9.8566 283.8163,-14.7037 l 168.3978,-8.8132 78.4757,-0.068 c 68.1508,-0.06 78.7198,0.19 80.33,1.8991 1.5451,1.6397 1.9723,10.8307 2.5625,55.1049 0.9593,71.9769 1.8373,162.3871 2.6314,270.9323 0.3643,49.7912 0.9959,101.2788 1.4035,114.417 l 0.7409,23.8877 8.3799,0.5371 c 4.6089,0.2953 12.6372,0.2611 17.8404,-0.076 5.2034,-0.337 17.4074,-1.0901 27.1204,-1.6736 z M 729.82375,1942.8267 c 22.87661,-1.1313 42.03421,-2.3401 42.57246,-2.6863 0.53837,-0.3458 0.98213,-12.55 0.98617,-27.12 0,-14.5701 0.82698,-74.6094 1.82877,-133.4206 1.00194,-58.8115 2.13986,-126.4134 2.52887,-150.2266 0.38903,-23.8131 0.98012,-57.7617 1.31351,-75.4411 0.33338,-17.6795 0.89838,-52.2184 1.2556,-76.7533 0.3571,-24.5348 0.92436,-58.1881 1.26052,-74.7853 0.33616,-16.597 0.90583,-50.5455 1.26608,-75.4411 0.36014,-24.8956 0.9955,-58.4013 1.41189,-74.4571 l 0.75697,-29.1925 h -56.1361 c -50.0251,0 -56.21939,0.2259 -56.90169,2.0753 -1.00616,2.7272 -0.99836,716.0667 0.008,718.7942 0.63331,1.7166 2.17686,1.9712 8.51454,1.4041 4.25749,-0.3811 26.45811,-1.6183 49.3346,-2.7497 z"
       id="path4917" />
  </g>
</svg>
