<?xml version="1.0" encoding="UTF-8" standalone="no"?>
<!-- Created with Inkscape (http://www.inkscape.org/) -->

<svg
   version="1.1"
   id="svg4924"
   width="3464"
   height="3464"
   viewBox="0 0 3464 3464"
   sodipodi:docname="22 00000000000000.svg"
   inkscape:version="1.2.2 (732a01da63, 2022-12-09)"
   xmlns:inkscape="http://www.inkscape.org/namespaces/inkscape"
   xmlns:sodipodi="http://sodipodi.sourceforge.net/DTD/sodipodi-0.dtd"
   xmlns="http://www.w3.org/2000/svg"
   xmlns:svg="http://www.w3.org/2000/svg">
  <defs
     id="defs4928" />
  <sodipodi:namedview
     id="namedview4926"
     pagecolor="#ffffff"
     bordercolor="#000000"
     borderopacity="0.25"
     inkscape:showpageshadow="2"
     inkscape:pageopacity="0.0"
     inkscape:pagecheckerboard="0"
     inkscape:deskcolor="#d1d1d1"
     showgrid="false"
     inkscape:zoom="0.2289261"
     inkscape:cx="1729.8159"
     inkscape:cy="1736.3682"
     inkscape:window-width="1920"
     inkscape:window-height="986"
     inkscape:window-x="-11"
     inkscape:window-y="-11"
     inkscape:window-maximized="1"
     inkscape:current-layer="g4930" />
  <g
     inkscape:groupmode="layer"
     inkscape:label="Image"
     id="g4930">
    <g
       id="g4934"
       transform="matrix(1.3539967,0,0,1.3364932,-463.12378,-434.97794)"
       style="fill:#000000">
      <path
         style="fill:#000000;fill-opacity:1"
         d="m 1924.3429,1927.8048 c -0.4636,-0.7176 -1.0679,-79.3546 -1.3429,-174.7489 l -0.5,-173.444 -6,0.2438 c -3.3,0.1341 -221.325,10.8073 -484.5,23.7183 -412.38,20.2309 -575.72093,28.2095 -687.74971,33.5943 -13.33734,0.6411 -24.58734,0.8299 -25,0.4196 -0.41266,-0.4103 -1.11518,-5.7729 -1.56116,-11.9169 -1.37512,-18.9445 -2.00397,-638.15151 -0.65519,-645.13767 2.91345,-15.09046 13.59818,-25.82465 31.22199,-31.36649 4.85114,-1.52546 75.71425,-1.69105 945.74407,-2.2101 705.9274,-0.42115 942.7447,-0.85102 949.5,-1.72352 4.95,-0.63933 11.581,-1.68847 14.7356,-2.33142 6.3127,-1.28661 11.9963,-0.85515 16.3968,1.24474 4.2911,2.04766 4.4644,8.10978 0.4799,16.78106 -1.6611,3.61482 -4.2106,11.7474 -5.6656,18.0724 -1.455,6.325 -3.8833,13.75 -5.3961,16.5 -3.2892,5.9791 -6.2879,15.1015 -8.5465,26 -1.0108,4.8774 -3.4148,11.4751 -6.1588,16.903 -2.8603,5.658 -5.2198,12.2187 -6.4735,18 -3.537,16.311 -4.9524,20.9586 -9.3182,30.597 -2.8315,6.2511 -5.0482,13.2618 -6.4818,20.5 -3.0003,15.1474 -4.7002,20.8105 -8.5371,28.4403 -3.9266,7.808 -5.7929,14.4677 -8.5641,30.5597 -2.777,16.1257 -5.3753,26.0437 -9.9553,38 -5.3974,14.0901 -5.4249,14.2009 -10.5392,42.5 -2.5347,14.025 -5.6664,30 -6.9595,35.5 -1.2931,5.5 -3.1067,13.8119 -4.0301,18.4709 -0.9235,4.6589 -3.2123,12.1747 -5.0862,16.7017 -2.4833,5.9991 -4.3596,13.599 -6.9198,28.0291 -1.9319,10.8891 -4.396,24.3852 -5.4757,29.9914 -1.6987,8.8194 -11.2678,67.8738 -15.6056,96.3069 -5.2872,34.6566 -7.6477,53.5095 -8.4515,67.5 -0.5055,8.8 -1.373,18.7 -1.9276,22 -0.5547,3.3 -1.0111,8.9794 -1.0143,12.6209 -0.01,5.9348 -2.3384,29.6382 -4.9099,49.8791 -0.524,4.125 -1.2444,18.075 -1.6008,31 -0.3564,12.925 -1.3469,29.125 -2.2011,36 -1.426,11.4767 -2.0215,31.0373 -2.6793,88 -0.1175,10.175 -0.521,29.975 -0.8968,44 -0.3757,14.025 -0.9328,39.8794 -1.2381,57.4543 -0.3052,17.5748 -0.7464,32.1456 -0.9803,32.3795 -0.2339,0.234 -14.7295,0.8269 -32.2124,1.3177 -26.2221,0.7361 -443.9614,11.5094 -517.2871,13.3405 -11.825,0.2953 -26.7457,0.7801 -33.1571,1.0773 -8.9626,0.4154 -11.852,0.2387 -12.5,-0.7645 z M 2038,1870.0076 c 14.025,-0.5453 79.95,-1.8816 146.5,-2.9695 66.55,-1.0878 129.325,-2.2071 139.5,-2.4872 10.175,-0.2801 43.475,-0.77 74,-1.0887 30.525,-0.3186 56.472,-0.7764 57.6599,-1.0172 1.9341,-0.3921 2.2326,-1.31 2.8547,-8.7786 0.4508,-5.4107 0.2611,-10.4178 -0.5398,-14.2535 -0.8457,-4.0505 -1.0367,-10.48 -0.6065,-20.4129 0.3454,-7.975 0.2489,-18.1 -0.2143,-22.5 -0.5085,-4.8296 -0.4087,-14.7371 0.2518,-25 0.6018,-9.35 0.7774,-21.275 0.3903,-26.5 -0.3872,-5.225 -0.2606,-14.675 0.2812,-21 0.5419,-6.325 1.3898,-24.325 1.8843,-40 0.4945,-15.675 1.6158,-33.4172 2.4919,-39.427 0.8761,-6.0099 2.027,-22.4349 2.5576,-36.5 1.0591,-28.076 1.769,-34.938 8.3967,-81.1568 3.8117,-26.5811 4.4805,-33.5709 4.3454,-45.4162 -0.1398,-12.2572 0.3556,-17.0499 3.9793,-38.5 2.2765,-13.475 5.7681,-34.85 7.7592,-47.5 7.1694,-45.5486 8.5031,-52.8367 9.9641,-54.4511 3.0936,-3.4185 4.6081,-9.7217 9.5279,-39.6539 9.4499,-57.4934 12.6096,-72.1258 19.0881,-88.395 2.6871,-6.7482 4.8113,-15.0245 7.3331,-28.5718 3.813,-20.4842 6.1538,-29.1749 10.6221,-39.4377 2.8939,-6.6466 4.8326,-13.9796 9.483,-35.8689 1.8426,-8.6729 3.9359,-15.1088 6.9932,-21.5 3.2395,-6.7721 5.038,-12.4701 6.9824,-22.1216 3.1417,-15.595 4.7762,-20.8766 9.1221,-29.4769 3.3815,-6.6917 6.2047,-15.544 5.259,-16.4897 -0.292,-0.292 -364.994,-0.5332 -810.4488,-0.5359 H 963.5 l -0.63785,3.2538 c -0.35082,1.7895 -0.91775,24.8537 -1.25985,51.2537 -0.34209,26.4 -0.86182,57.45 -1.15494,69 -0.29312,11.55 -1.63911,88.05 -2.9911,170 -1.35199,81.95 -2.89777,171.2475 -3.43506,198.4388 -0.5373,27.1914 -0.87437,49.5382 -0.74905,49.6596 0.12532,0.1215 17.32785,-0.628 38.22785,-1.6654 20.9,-1.0374 111.8,-5.4953 202,-9.9066 90.2,-4.4112 182,-8.9199 204,-10.0193 22,-1.0994 77.125,-3.8116 122.5,-6.0272 45.375,-2.2156 141.675,-6.9253 214,-10.466 126.8167,-6.2084 133.6052,-6.4442 190.6101,-6.6212 32.5106,-0.101 59.5877,0.1115 60.1715,0.4723 1.8429,1.139 2.1606,11.3182 2.7041,86.635 0.2916,40.425 0.7476,88.125 1.0133,106 0.2656,17.875 0.7604,61.3 1.0995,96.5 0.3391,35.2 0.8197,64.3375 1.0681,64.75 0.6163,1.0239 16.9143,0.9404 47.3334,-0.2424 z m -973.4586,-538.577 c -17.758,-3.5254 -34.5614,-16.162 -41.7945,-31.4306 -10.6155,-22.4085 -6.6149,-46.2288 10.6667,-63.5103 11.6308,-11.6309 25.9294,-17.5037 42.5465,-17.4749 17.7272,0.031 30.1599,5.1265 42.6323,17.4739 12.0351,11.9144 16.3946,22.3029 16.3713,39.0113 -0.016,11.2507 -1.1033,16.0485 -5.7678,25.4453 -7.5222,15.1534 -23.4139,26.8585 -41.4037,30.4961 -9.1399,1.8482 -13.8982,1.8459 -23.2508,-0.011 z m 163.9586,0.087 c -20.3315,-4.4833 -34.1765,-14.91 -42.5314,-32.0306 -14.7634,-30.2527 0.4808,-65.6844 33.2246,-77.2231 9.6745,-3.4092 25.3432,-4.2519 34.8193,-1.8727 21.6591,5.4381 38.5862,22.0775 43.4501,42.7116 7.2788,30.8792 -13.8591,61.8429 -46.6704,68.3648 -9.1569,1.8201 -14.2136,1.8315 -22.2922,0.05 z m 147.0158,-0.1773 c -43.4244,-9.3039 -61.7509,-57.3398 -34.6909,-90.9289 5.9826,-7.4261 14.4765,-13.479 24.6751,-17.5842 7.542,-3.0358 8.7442,-3.2232 21,-3.2738 11.1708,-0.046 14.0482,0.2896 20.4497,2.3859 14.0113,4.5884 27.2993,15.7247 33.6006,28.1596 3.5119,6.9305 6.4497,18.5003 6.4497,25.4008 0,20.4036 -13.226,41.1534 -32.0856,50.338 -8.6926,4.2333 -20.5707,7.2239 -28.1222,7.0805 -2.3607,-0.045 -7.4351,-0.7549 -11.2764,-1.5779 z m 143.9842,0.018 c -30.6335,-6.4709 -50.9881,-34.2204 -46.6969,-63.6621 3.0617,-21.0066 18.4759,-38.9528 39.3212,-45.7804 6.3186,-2.0696 9.2389,-2.4081 20.3757,-2.3621 12.2619,0.051 13.4671,0.2388 21.2263,3.3136 18.4616,7.3157 31.4245,22.0354 35.7211,40.562 2.9842,12.8676 1.7293,22.9286 -4.5457,36.444 -7.349,15.8289 -23.407,27.8771 -42.1095,31.5946 -9.3235,1.8532 -14.1066,1.8307 -23.2922,-0.1096 z m -673.74623,234.7643 c 19.38958,-0.9882 35.48128,-2.0243 35.75935,-2.3024 0.27806,-0.278 1.38228,-51.7639 2.45382,-114.4129 2.24604,-131.3184 2.8703,-166.1791 3.53503,-197.4073 0.26342,-12.375 0.71493,-40.95 1.00335,-63.5 0.28842,-22.55 0.73144,-46.85 0.98448,-54 0.25303,-7.15 0.75873,-36.0625 1.12377,-64.25 l 0.6637,-51.25 H 847.13863 803 v 274.5 274.5 l 3.75,-0.04 c 2.0625,-0.022 19.6142,-0.8488 39.00377,-1.8371 z"
         id="path4948" />
      <path
         style="fill:#000000;fill-opacity:1"
         d="m 1924.9658,1927.4606 c -1.4196,-1.7135 -1.8331,-45.372 -1.9011,-200.734 l -0.065,-147.7734 -7.75,0.5615 c -4.2625,0.3088 -58.375,3.0166 -120.25,6.0173 -61.875,3.0007 -162.9,7.93 -224.5,10.9539 -61.6,3.0239 -162.625,7.981 -224.5,11.0158 -61.875,3.0348 -176.625,8.6704 -255,12.5236 -243.0476,11.9491 -322.51224,15.805 -349.95382,16.981 -11.7996,0.5057 -21.66035,0.7129 -21.91278,0.4604 -0.25242,-0.2524 -1.03211,-13.1732 -1.73264,-28.7128 -1.61884,-35.9105 -2.01472,-612.67174 -0.42905,-625.08784 2.23325,-17.48677 13.89308,-29.58269 33.52829,-34.78227 4.12931,-1.09348 166.7742,-1.35989 934,-1.52989 510.95,-0.11321 936.65,-0.43568 946,-0.71659 9.35,-0.28092 21.8243,-1.07887 27.7207,-1.77323 9.6339,-1.1345 11.0784,-1.09187 14.25,0.42054 4.6722,2.22802 5.1919,7.53608 1.455,14.86096 -1.0708,2.099 -3.304,9.52828 -4.9625,16.50951 -1.7479,7.3571 -4.2151,14.82699 -5.8687,17.76903 -3.311,5.89058 -5.0637,11.28528 -8.0889,24.89788 -1.4548,6.5459 -3.6205,12.5497 -6.4932,18 -3.4114,6.4723 -4.9518,11.1776 -7.3858,22.56 -2.2135,10.3509 -4.3192,17.0779 -7.5128,24 -3.1422,6.811 -5.3629,13.8498 -7.6092,24.118 -1.7445,7.975 -4.2593,17.0875 -5.5882,20.25 -1.329,3.1625 -3.543,8.4098 -4.92,11.6606 -1.377,3.2508 -3.139,9.2133 -3.9156,13.25 -0.7765,4.0367 -2.3925,12.5144 -3.5909,18.8394 -1.1985,6.325 -3.7426,16 -5.6537,21.5 -7.4675,21.4912 -9.3817,28.8037 -13.3504,51 -2.2618,12.65 -5.2307,27.5 -6.5977,33 -1.3669,5.5 -3.3659,14.3406 -4.4422,19.6458 -1.0763,5.3052 -3.543,14.0278 -5.4817,19.3834 -2.3505,6.4933 -4.6891,16.4399 -7.0192,29.8542 -1.9218,11.0641 -4.5842,25.7416 -5.9162,32.6166 -3.2421,16.7325 -16.5758,101.8761 -20.3584,130 -2.8085,20.8824 -3.6839,29.5916 -6.1815,61.5 -2.5112,32.0823 -3.2103,39.8854 -4.5691,51 -0.8068,6.6 -1.7122,21.675 -2.012,33.5 -0.2998,11.825 -1.4344,29.9944 -2.5215,40.3764 -1.3982,13.3549 -1.9061,24.4701 -1.7362,38 0.1321,10.518 -0.037,33.9736 -0.377,52.1236 -0.3394,18.15 -0.8682,53.8935 -1.1751,79.43 -0.3069,25.5365 -0.9205,46.7925 -1.3636,47.2356 -0.8616,0.8616 -32.4049,1.9185 -129.7344,4.3468 -33.55,0.837 -77.875,1.9667 -98.5,2.5104 -20.625,0.5437 -63.15,1.6569 -94.5,2.4737 -31.35,0.8167 -92.325,2.4078 -135.5,3.5357 -136.3353,3.5614 -135.1136,3.5396 -136.0342,2.4284 z m 117.5342,-57.388 c 13.2,-0.5818 80.025,-1.9503 148.5,-3.041 68.475,-1.0908 132.375,-2.2133 142,-2.4945 9.625,-0.2812 41.35,-0.7769 70.5,-1.1015 29.15,-0.3245 53.4929,-0.7395 54.0952,-0.9221 1.3494,-0.409 1.7811,-4.4788 1.6455,-15.5135 -1.0819,-88.0526 0.7014,-170.9101 4.3477,-202 0.8063,-6.875 1.9042,-22.625 2.4399,-35 1.4505,-33.5131 3.4667,-52.404 10.086,-94.5 1.1243,-7.15 2.4365,-21.1 2.916,-31 0.4796,-9.9 1.3412,-20.4094 1.9147,-23.3542 1.1757,-6.037 10.1515,-63.2852 10.5276,-67.1458 0.134,-1.375 0.7411,-4.3 1.3493,-6.5 0.6081,-2.2 1.3422,-9.1456 1.6313,-15.4346 0.6769,-14.7231 2.1067,-22.4158 5.0064,-26.9365 3.822,-5.9588 5.2041,-11.9432 11.4815,-49.7172 8.6678,-52.1578 10.5138,-60.2559 19.3551,-84.9117 1.3806,-3.85 3.7313,-13.75 5.2238,-22 3.5845,-19.8135 5.565,-27.3533 10.4298,-39.7054 2.2299,-5.662 5.2054,-15.6946 6.6122,-22.2946 4.9654,-23.2954 6.6053,-29.0854 10.6073,-37.4511 2.6536,-5.5472 4.8808,-12.4196 6.4816,-20 3.794,-17.9661 5.3005,-23.2098 8.0069,-27.8697 2.7448,-4.7259 7.3422,-17.4592 7.3422,-20.3353 0,-1.0456 -0.9472,-2.0338 -2.25,-2.3473 -1.2375,-0.2978 -366.3,-0.4189 -811.25,-0.2691 l -809,0.2725 -1.12598,64.5 c -0.61929,35.475 -1.41808,81.375 -1.77509,102 -0.35701,20.625 -1.08818,62.25 -1.62482,92.5 -0.53664,30.25 -1.63615,93.925 -2.44335,141.5 -0.8072,47.575 -1.75599,98.9875 -2.1084,114.25 -0.36656,15.8746 -0.26273,27.75 0.24261,27.75 0.48586,0 14.1475,-0.6748 30.35921,-1.4996 16.21172,-0.8247 112.27582,-5.5555 213.47582,-10.5127 101.2,-4.9572 271.075,-13.2859 377.5,-18.5081 106.425,-5.2222 216.2515,-10.6104 244.0589,-11.9738 40.6288,-1.992 61.6621,-2.4873 107.0906,-2.5221 31.0924,-0.024 57.236,0.227 58.0968,0.5573 2.3581,0.9049 2.5794,9.5919 3.73,146.459 1.4174,168.6071 2.0519,207.3142 3.4148,208.3114 1.1258,0.8237 8.2062,0.6521 51.1089,-1.2388 z M 1066,1331.5011 c -19.6329,-3.9597 -33.8707,-14.2114 -42.4735,-30.5827 -19.1371,-36.4179 6.5135,-79.1092 49.0585,-81.65 17.9052,-1.0693 33.6059,4.7837 46.0151,17.1539 11.2753,11.2398 16.3999,23.7402 16.3999,40.0041 0,26.2519 -19.0631,48.4722 -46.8587,54.6193 -9.9487,2.2002 -13.1627,2.2663 -22.1413,0.4554 z m 162.5607,-0.091 c -14.7274,-3.2855 -23.3429,-8.1467 -33.2964,-18.7871 -6.6422,-7.1004 -11.5353,-16.1257 -13.3629,-24.6474 -1.6904,-7.8823 -0.6669,-25.2365 1.873,-31.7571 8.1231,-20.854 28.484,-35.3689 51.8137,-36.9369 11.3635,-0.7638 20.2482,1.0136 30.9649,6.1945 7.4335,3.5936 10.2959,5.6903 16,11.7201 8.2537,8.7249 11.7971,14.9426 14.4689,25.3889 2.3644,9.2448 2.4752,15.6732 0.4211,24.4146 -4.8769,20.7541 -20.09,36.7222 -40.6628,42.6809 -10.7378,3.1101 -19.5971,3.6531 -28.2195,1.7295 z m 148,-0.061 c -26.7018,-5.723 -44.0592,-23.6708 -47.8154,-49.4419 -0.9192,-6.3068 -0.8323,-9.0676 0.4981,-15.8204 4.103,-20.8264 17.1936,-35.9589 37.7566,-43.646 6.6881,-2.5002 8.8532,-2.8112 20,-2.8725 13.5882,-0.075 17.8741,0.8996 29.5,6.7064 8.4231,4.2072 20.2646,16.27 24.271,24.7248 3.5168,7.4217 6.229,18.0892 6.229,24.5 0,12.4861 -6.9172,29.0419 -15.9314,38.1309 -10.0462,10.1295 -18.7435,14.7751 -33.2835,17.7785 -9.2033,1.9009 -12.1146,1.8928 -21.2244,-0.06 z m 142.899,-0.2752 c -13.262,-3.0989 -20.8221,-7.2565 -29.983,-16.4887 -12.5552,-12.653 -16.4767,-22.0994 -16.4767,-39.6905 0,-11.7495 2.2602,-19.934 7.8616,-28.4673 7.4946,-11.4177 18.6872,-20.0318 32.0131,-24.6379 5.5916,-1.9327 8.5756,-2.2793 19.1253,-2.2212 11.1469,0.061 13.3048,0.3713 19.9349,2.8632 11.9652,4.4972 20.2654,10.5728 27.6365,20.2295 5.0041,6.5557 7.2272,11.2887 9.4558,20.132 2.3616,9.371 2.4582,14.9631 0.4127,23.8944 -4.8117,21.0094 -19.9215,36.9864 -40.6597,42.993 -11.339,3.2842 -19.5576,3.6748 -29.3205,1.3935 z M 844.5,1566.3749 c 19.8,-0.9246 36.36459,-1.9994 36.81021,-2.3882 0.74376,-0.6491 1.95551,-58.7519 4.64005,-222.4867 0.55909,-34.1 1.24533,-71.9 1.52499,-84 0.27965,-12.1 0.77839,-39.1 1.10831,-60 0.32992,-20.9 1.17354,-69.5 1.87471,-108 0.70118,-38.5 0.97006,-70.3423 0.59753,-70.7608 -0.37253,-0.4184 -20.22498,-0.6434 -44.11656,-0.5 L 803.5,1018.5 l -0.2518,274.75 -0.25179,274.75 2.75179,0.028 c 1.51349,0.015 18.9518,-0.7284 38.7518,-1.6531 z"
         id="path4946" />
      <path
         style="fill:#000000;fill-opacity:1"
         d="m 1924.5136,1925.75 c -0.3959,-1.2375 -0.9459,-79.65 -1.2223,-174.25 -0.2764,-94.6 -0.6058,-172.1133 -0.732,-172.2517 -0.1886,-0.207 -78.1893,3.5163 -183.0593,8.738 -11,0.5478 -112.025,5.5072 -224.5,11.021 -270.5592,13.2635 -565.57499,27.7549 -590.5,29.0058 -141.61637,7.1073 -205.42704,9.8621 -205.54695,8.8738 -0.0258,-0.2128 -0.58832,-13.6619 -1.25,-29.8869 -0.89909,-22.0467 -1.07672,-105.2965 -0.70305,-329.5 l 0.5,-300 2.75724,-5.61179 c 4.63689,-9.43745 15.09668,-17.8926 27.24276,-22.02166 3.35551,-1.1407 157.30796,-1.47211 955.5,-2.05691 523.325,-0.38341 955.5423,-0.83493 960.483,-1.00337 l 8.9829,-0.30627 1.424,2.96361 c 1.2982,2.70186 1.1929,3.62924 -1.193,10.5 -1.4394,4.14501 -3.514,11.42096 -4.6103,16.16877 -1.0963,4.7478 -3.7685,12.3978 -5.9383,17 -2.4686,5.23598 -4.9274,12.85872 -6.5697,20.36762 -1.8287,8.3613 -3.9635,14.729 -7.0402,21 -4.6499,9.4773 -5.141,11.0188 -8.6018,27 -1.2146,5.6085 -4.0531,14.1719 -6.4636,19.5 -2.954,6.5293 -5.414,14.462 -7.8669,25.3678 -2.3632,10.5074 -4.9017,18.7839 -7.5144,24.5 -4.8669,10.6478 -6.26,15.6348 -9.6393,34.507 -1.465,8.1812 -3.9322,18.5312 -5.4827,23 -1.5505,4.4689 -4.2045,12.1025 -5.8979,16.9636 -1.7238,4.9484 -5.2946,20.5728 -8.1132,35.5 -2.7689,14.6639 -6.197,30.9366 -7.6179,36.1616 -1.421,5.225 -3.3888,13.55 -4.3728,18.5 -0.984,4.95 -3.3911,13.95 -5.3491,20 -1.958,6.05 -4.7118,17.975 -6.1196,26.5 -1.4077,8.525 -4.1011,23.15 -5.9852,32.5 -3.5229,17.4826 -16.1605,96.2443 -19.0137,118.5 -0.8814,6.875 -2.2391,16.7814 -3.017,22.0142 -0.7779,5.2328 -2.1398,17.1446 -3.0263,26.4707 -0.8865,9.3261 -1.7782,17.2258 -1.9816,17.5549 -0.2034,0.3292 -0.8668,9.3424 -1.4743,20.0293 -0.6074,10.687 -1.7663,25.5059 -2.5754,32.9309 -2.1364,19.606 -4.3946,52.8637 -4.4134,65 -0.01,5.775 -0.7191,17.025 -1.5782,25 -0.953,8.847 -1.4789,21.5176 -1.349,32.5 0.1172,9.9 -0.09,33.75 -0.4611,53 -0.3707,19.25 -0.6386,35.9 -0.5952,37 0.4388,11.1341 -0.2605,87.1302 -0.8067,87.672 -0.7034,0.6975 -50.5797,2.1066 -330.2221,9.3295 -74.525,1.9249 -160.1913,4.1746 -190.3695,4.9992 -74.581,2.0379 -73.2205,2.0517 -74.1169,-0.7507 z m 113.2078,-55.1978 c 15.2782,-0.7963 59.7286,-1.9225 98.7786,-2.5027 39.05,-0.5802 79.325,-1.2744 89.5,-1.5426 10.175,-0.2682 36.5,-0.7238 58.5,-1.0124 22,-0.2886 47.875,-0.7552 57.5,-1.0368 15.2755,-0.447 91.6166,-1.4577 110.1042,-1.4577 h 6.6129 l 1.2853,-7.514 c 0.8535,-4.9896 1.0219,-9.9452 0.5014,-14.75 -1.5979,-14.7479 -0.5904,-123.0027 1.3701,-147.236 0.5785,-7.15 1.0685,-18.6421 1.0889,-25.538 0.021,-6.8959 0.6826,-17.7409 1.4715,-24.0999 0.7888,-6.3591 1.9159,-20.067 2.5046,-30.462 2.0067,-35.4352 3.24,-50.8913 5.0989,-63.9001 4.908,-34.3483 7.8833,-57.8974 8.465,-67 0.5783,-9.0502 3.7519,-30.8464 11.0658,-76 4.4658,-27.5704 5.3919,-34.786 5.412,-42.1669 0.016,-5.8047 0.7814,-9.294 4.0283,-18.3581 3.3076,-9.2331 4.9704,-16.9408 9.5043,-44.054 7.9868,-47.7623 10.9131,-61.4751 17.0551,-79.921 3.4042,-10.2235 6.6266,-22.5438 8.4713,-32.3883 3.8752,-20.68 5.1008,-25.2429 10.4656,-38.9634 2.9564,-7.5608 5.5021,-16.6495 7.5054,-26.7951 3.8516,-19.5063 5.3354,-24.6045 9.6616,-33.1952 2.1368,-4.2431 4.4492,-11.2951 5.9218,-18.0597 4.0455,-18.5832 5.5907,-23.7821 9.4435,-31.7744 2.0352,-4.2219 4.5115,-10.6726 5.5029,-14.335 1.5428,-5.6995 1.5977,-6.7886 0.381,-7.5586 -0.8388,-0.531 -333.5135,-0.906 -811.7028,-0.915 -647.3602,-0.012 -810.36013,0.236 -810.67308,1.2347 -0.21544,0.6875 -0.88051,33.2 -1.47793,72.25 -0.59741,39.05 -1.32777,81.575 -1.62303,94.5 -0.29525,12.925 -1.41337,75.7 -2.48472,139.5 -1.07134,63.8 -2.43693,142.7011 -3.03464,175.3359 -0.59772,32.6347 -0.85018,59.5725 -0.56103,59.8616 0.28915,0.2892 10.338,0.022 22.33078,-0.5941 24.80735,-1.2741 71.30185,-3.565 245.80505,-12.1117 67.65,-3.3133 163.95,-8.0349 214,-10.4925 50.05,-2.4576 132.4,-6.5002 183,-8.9834 50.6,-2.4833 128.6672,-6.3152 173.4826,-8.5154 73.7953,-3.623 86.6314,-4.0004 136.0589,-4.0004 42.1189,0 54.9509,0.2853 56.2176,1.25 2.0487,1.5603 2.3897,17.0558 3.7461,170.25 0.5308,59.95 1.2509,125.9875 1.6002,146.75 l 0.635,37.75 h 9.8512 c 5.4182,0 22.3516,-0.6515 37.6298,-1.4478 z M 1062.4886,1330.532 c -20.9947,-4.5718 -38.1493,-21.1556 -43.4919,-42.0449 -2.5055,-9.7962 -2.5198,-16.1219 -0.058,-25.7462 4.3504,-17.0098 14.426,-29.3072 30.5616,-37.3009 27.9167,-13.8301 62.4084,-3.8327 78.3469,22.7089 6.2711,10.4429 8.7921,27.863 5.7671,39.8511 -3.8594,15.2954 -14.9509,29.7083 -28.3,36.7746 -12.4815,6.607 -28.8304,8.8049 -42.8254,5.7574 z m 161.8841,-0.5107 c -11.0936,-2.9085 -18.9927,-7.4198 -26.9835,-15.4105 C 1186.1315,1303.3531 1181,1291.1073 1181,1275.5 c 0,-15.3525 5.1614,-27.884 15.8845,-38.5662 7.6243,-7.5953 12.857,-10.8878 23.2214,-14.6113 10.1396,-3.6428 26.8376,-3.9049 37.3941,-0.5868 19.971,6.2771 34.3229,21.5222 39.5681,42.0307 2.3516,9.1945 2.4088,13.2083 0.321,22.5362 -7.2436,32.363 -40.4633,52.2533 -73.0164,43.7187 z M 1377,1331.3744 c -22.3703,-4.3282 -42.3061,-22.3998 -46.9574,-42.5662 -1.296,-5.6187 -1.2747,-21.0888 0.037,-26.7804 2.8398,-12.3241 13.7123,-26.9057 25.2384,-33.8486 24.1796,-14.5647 54.8573,-11.175 74.103,8.188 8.2587,8.3091 12.7907,16.2509 15.5717,27.2874 2.478,9.8344 2.4785,13.8544 0,23.6784 -5.1334,20.3727 -18.3713,34.5994 -38.973,41.884 -5.4635,1.9319 -23.3255,3.2596 -29.0225,2.1574 z m 139.3727,-1.2864 c -11.214,-3.0451 -19.0403,-7.5341 -26.9835,-15.4772 C 1478.1315,1303.3531 1473,1291.1073 1473,1275.5 c 0,-15.3525 5.1614,-27.884 15.8845,-38.5662 7.6332,-7.6042 12.9565,-10.9519 22.987,-14.4564 15.0908,-5.2724 32.2599,-4.1172 47.1285,3.1711 9.5832,4.6975 20.3609,15.1549 24.9093,24.1692 3.6072,7.1487 7.06,19.7092 7.06,25.6823 0,5.9704 -3.4525,18.5332 -7.0538,25.6674 -6.2741,12.4289 -20.1642,23.8301 -34.6357,28.4294 -7.9445,2.525 -24.5071,2.7722 -32.9071,0.4912 z m -658.21567,235.7508 23.65704,-1.1927 0.5677,-13.0731 c 0.31223,-7.1901 0.81764,-30.848 1.12313,-52.573 0.30549,-21.725 1.19771,-76.4 1.9827,-121.5 0.785,-45.1 1.67315,-97.075 1.97367,-115.5 0.30051,-18.425 0.77719,-44.525 1.05929,-58 0.49398,-23.5967 2.16352,-125.7436 2.71319,-166 l 0.26625,-19.5 -44.25,-0.2604 -44.25,-0.2604 v 275.167 275.1669 l 15.75,-0.6408 c 8.6625,-0.3525 26.39567,-1.1776 39.40703,-1.8335 z"
         id="path4944" />
      <path
         style="fill:#000000;fill-opacity:1"
         d="m 1924.6398,1922.592 c -0.3689,-3.1381 -0.6607,-81.518 -0.6485,-174.1776 0.02,-148.7683 -0.1531,-168.5393 -1.4764,-169.047 -1.3017,-0.4996 -32.2919,0.8545 -106.5149,4.6539 -10.725,0.5491 -51.675,2.5668 -91,4.4839 -102.732,5.0081 -250.5324,12.249 -285.5,13.9869 -16.5,0.82 -53.175,2.6242 -81.5,4.0093 -28.325,1.3851 -74.225,3.6394 -102,5.0097 -27.775,1.3703 -105.85,5.1799 -173.5,8.4658 -67.65,3.2859 -127.05,6.2318 -132,6.5465 -15.6018,0.9918 -195.17491,9.5388 -213.64218,10.1685 l -17.64218,0.6016 -0.85782,-11.8967 C 717.88602,1618.8535 717.5,1470.6156 717.5,1295.9791 V 978.45824 l 3.28057,-6.66394 c 5.5605,-11.29521 16.69166,-19.30591 31.04576,-22.34251 5.7196,-1.20997 143.34407,-1.41644 962.67367,-1.44422 899.4133,-0.0305 956.074,0.0684 957.25,1.67113 0.6875,0.93696 1.25,2.31683 1.25,3.06639 0,3.63656 -8.3069,31.92049 -10.8637,36.98939 -3.2871,6.51688 -4.1461,9.28562 -7.6667,24.71362 -1.6356,7.1674 -4.0479,14.0741 -6.9852,20 -3.111,6.2761 -5.1051,12.1184 -6.5029,19.0519 -2.5109,12.4548 -3.2853,14.9289 -7.9854,25.5117 -2.0792,4.6815 -4.7779,12.7815 -5.9971,18 -4.9702,21.2734 -6.237,25.5889 -9.6505,32.8748 -3.871,8.2625 -5.7159,15.133 -9.8144,36.5489 -1.6432,8.5859 -4.5093,18.9508 -7.4661,27 -5.1142,13.9221 -7.6596,23.8149 -11.0803,43.0646 -2.8473,16.0233 -7.3638,36.1748 -10.3097,46 -1.3193,4.4 -2.7307,10.2487 -3.1366,12.997 -0.4059,2.7484 -2.2449,10.1824 -4.0867,16.52 -1.8417,6.3377 -5.1499,21.414 -7.3515,33.503 -2.2016,12.089 -5.1243,27.38 -6.4948,33.98 -3.0913,14.8861 -16.6134,99.5417 -18.0497,113 -0.3522,3.3 -1.7127,14.1 -3.0234,24 -3.519,26.58 -6.3267,54.1955 -8.0322,79 -0.832,12.1 -2.4068,32.125 -3.4997,44.5 -1.0929,12.375 -1.9961,27.9 -2.0071,34.5 -0.011,6.6 -0.6746,19.0758 -1.4746,27.724 -1.6431,17.7615 -1.8906,37.9166 -1.6362,133.276 0.098,36.85 -0.085,69.2977 -0.4073,72.106 l -0.5861,5.106 -24.1961,0.673 c -13.3078,0.3701 -110.821,2.9093 -216.696,5.6427 -213.7172,5.5175 -293.9437,7.6153 -329.0948,8.6054 l -23.5949,0.6645 z m 105.1158,-51.6051 c 15.9501,-0.8628 118.5781,-3.0414 231.7444,-4.9195 34.1,-0.5659 73.6341,-1.3107 87.8535,-1.6553 14.2194,-0.3445 43.9169,-0.6311 65.9945,-0.6369 22.0775,-0.01 41.1105,-0.3792 42.2955,-0.8298 2.9947,-1.1386 4.9039,-12.5094 3.8476,-22.9164 -0.6869,-6.7675 -0.7757,-24.1579 -0.5007,-98.029 0.046,-12.375 0.5476,-28.125 1.1145,-35 0.5669,-6.875 1.421,-23.3 1.8982,-36.5 0.4771,-13.2 1.5456,-30.525 2.3745,-38.5 0.8288,-7.975 2.2229,-26.425 3.098,-41 1.525,-25.4019 2.6056,-35.4976 8.0812,-75.5 1.3552,-9.9 3.129,-24.4108 3.9419,-32.2461 0.8129,-7.8354 2.3532,-19.7604 3.4229,-26.5 9.0452,-56.9875 11.2198,-70.4489 11.5916,-71.7539 0.2351,-0.825 1.1184,-8.1498 1.963,-16.2774 0.98,-9.4312 2.6128,-18.4758 4.5132,-25 1.6378,-5.6224 5.2482,-23.9476 8.0232,-40.7226 7.1435,-43.1819 10.145,-57.1483 16.5543,-77.0301 3.1027,-9.6246 6.9066,-24.206 8.4705,-32.4699 4.1328,-21.8379 4.5039,-23.2553 9.9172,-37.8774 2.883,-7.7872 6.2237,-19.5296 8.0311,-28.2282 4.4081,-21.2159 5.4962,-25.0047 9.8981,-34.4654 2.6365,-5.6665 5.0946,-13.6294 7.5003,-24.2968 2.4124,-10.6966 4.8886,-18.7115 7.5982,-24.5938 4.0973,-8.8947 8.4367,-23.5514 7.447,-25.1528 -0.317,-0.513 -342.1149,-0.8856 -812.3567,-0.8856 H 962.26326 l -0.64658,42.25 c -0.35562,23.2375 -0.85967,49.225 -1.12012,57.75 -0.26044,8.525 -0.71919,32.375 -1.01944,53 -0.30025,20.625 -0.97524,61.575 -1.49997,91 -3.76234,210.9786 -5.09962,298.2109 -4.5796,298.7309 0.33052,0.3305 16.23879,-0.1681 35.3517,-1.1081 19.11295,-0.94 57.02575,-2.8104 84.25075,-4.1564 27.225,-1.346 81.9,-4.0282 121.5,-5.9605 39.6,-1.9324 90,-4.4074 112,-5.5001 22,-1.0926 67.9,-3.3517 102,-5.0201 34.1,-1.6684 84.5,-4.1429 112,-5.4988 27.5,-1.3559 96.35,-4.7302 153,-7.4984 56.65,-2.7682 120.325,-5.9781 141.5,-7.1332 45.7578,-2.496 160.7643,-3.8417 167.0623,-1.9548 l 3.6776,1.1019 0.6343,32.2488 c 0.3489,17.7368 1.0878,88.2738 1.6422,156.7488 0.5543,68.475 1.2763,133.5963 1.6044,144.7139 l 0.5966,20.2139 9.1413,0.3357 c 5.0277,0.1846 10.3813,0.1645 11.8969,-0.045 1.5155,-0.2091 9.8405,-0.7635 18.5,-1.232 z m -964.4089,-540.0817 c -21.7205,-3.6288 -41.7821,-22.0372 -46.3812,-42.5591 -1.4068,-6.2774 -1.4346,-19.6382 -0.053,-25.6081 4.224,-18.2567 19.391,-34.1644 38.5095,-40.39 10.293,-3.3517 25.6994,-3.776 35.0784,-0.9662 21.3852,6.4069 36.872,22.6995 41.1263,43.2665 4.3904,21.2244 -4.2737,43.1496 -22.0692,55.8482 -13.421,9.577 -29.5045,13.1998 -46.2104,10.4087 z m 162.7949,0.038 c -22.0981,-3.9506 -41.5045,-22.3964 -46.0205,-43.7424 -5.9665,-28.2022 9.9991,-55.0336 38.6005,-64.8713 6.617,-2.276 9.4208,-2.6721 18.7784,-2.6532 9.141,0.018 12.352,0.4665 19,2.6506 15.1463,4.9761 27.492,15.5784 33.9703,29.1731 4.0264,8.4492 5.5297,15.2022 5.5297,24.8391 0,23.7208 -16.5016,45.4814 -39.994,52.74 -7.5615,2.3364 -22.1347,3.246 -29.8644,1.8641 z m 148.0324,0 c -13.0286,-2.332 -26.9801,-10.7011 -35.223,-21.1291 -8.3088,-10.5115 -11.951,-20.9704 -11.951,-34.3188 0,-24.5249 15.0606,-44.771 39.5,-53.1004 10.1089,-3.4453 25.4119,-3.8903 35,-1.0178 25.6297,7.6784 42.5,29.1606 42.5,54.1182 0,14.5155 -5.6064,28.0341 -16,38.5803 -7.4134,7.5223 -13.0664,11.0999 -22.9942,14.5525 -7.9645,2.7697 -22.2843,3.845 -30.8318,2.3151 z m 144,0 c -19.1056,-3.4197 -37.3603,-18.5515 -44.1632,-36.6077 -3.0479,-8.0901 -3.7736,-22.507 -1.5975,-31.7372 4.4063,-18.6891 18.4356,-33.4382 38.3083,-40.2735 6.591,-2.267 9.4576,-2.6754 18.7784,-2.6754 9.2416,0 12.1989,0.4143 18.5,2.5919 10.9709,3.7914 16.6873,7.3037 24.1702,14.8509 13.5428,13.6591 18.7946,32.7001 14.29,51.81 -4.3032,18.2557 -19.7038,34.3405 -38.4542,40.1624 -7.5482,2.3437 -22.1103,3.2607 -29.832,1.8786 z m -672.1912,235.464 c 18.41554,-0.8699 33.82804,-1.795 34.25,-2.0558 0.42196,-0.2608 0.76982,-9.7851 0.77303,-21.1651 0.003,-11.3801 0.656,-57.366 1.45065,-102.191 0.79466,-44.825 1.6975,-96.8 2.00631,-115.5 0.30881,-18.7 0.77651,-44.575 1.03933,-57.5 0.26282,-12.925 0.71041,-39.25 0.99465,-58.5 0.28424,-19.25 0.73348,-44.45 0.99831,-56 0.26483,-11.55 0.71533,-36.75 1.00112,-56 0.28579,-19.25 0.79045,-45.0125 1.12146,-57.25 l 0.60185,-22.25 H 847.60975 803 v 274.8333 c 0,151.1584 0.29563,275.129 0.65696,275.4903 0.36132,0.3613 2.94882,0.4349 5.75,0.1635 2.80117,-0.2714 20.1603,-1.2052 38.57584,-2.0752 z"
         id="path4942" />
      <path
         style="fill:#000000;fill-opacity:1"
         d="m 1924.657,1920.471 c -0.3613,-4.275 -0.657,-82.8549 -0.657,-174.6219 V 1579 h -5.2674 c -2.8971,0 -41.7096,1.7914 -86.25,3.9809 -44.5404,2.1895 -209.6826,10.2944 -366.9826,18.0108 -157.3,7.7165 -354.4,17.3904 -438,21.4976 -259.84334,12.766 -279.61051,13.6976 -294,13.8563 l -14,0.1544 -0.82726,-8 c -1.37653,-13.3116 -1.99877,-639.89792 -0.64252,-647 3.23696,-16.95049 17.74606,-29.46207 37.69997,-32.50969 4.64393,-0.70928 300.69561,-0.86645 942.76981,-0.50053 514.8,0.29339 942.525,0.51136 950.5,0.48437 16.7372,-0.0566 20.6195,0.4464 21.8992,2.83757 1.2886,2.40766 -5.1212,26.60288 -9.5639,36.1011 -2.0638,4.41233 -4.6846,12.91248 -6.4748,20.99998 -2.1863,9.8772 -4.2146,16.0447 -7.4284,22.5872 -3.1112,6.3337 -5.2895,12.8513 -7.353,22 -1.7067,7.5665 -4.8039,17.3886 -7.4104,23.5 -2.7476,6.4423 -5.6831,15.8855 -7.5962,24.436 -1.7149,7.6648 -4.7282,17.7898 -6.6963,22.5 -5.4073,12.9413 -7.0042,18.4864 -10.3559,35.9583 -2.0318,10.5913 -4.9449,21.3572 -8.6064,31.8065 -4.2783,12.2097 -6.7639,21.926 -10.9484,42.7975 -2.9775,14.8509 -6.3342,30.3767 -7.4595,34.5017 -6.702,24.5685 -14.8585,59.9216 -17.5343,76 -1.4187,8.525 -3.6569,19.775 -4.9736,25 -2.3788,9.4393 -4.4401,20.6019 -8.402,45.5 -1.1377,7.15 -3.8689,24.322 -6.0693,38.16 -2.2004,13.838 -4.9077,33.188 -6.0161,43 -1.1084,9.812 -2.4351,20.315 -2.9482,23.34 -0.513,3.025 -1.2171,8.425 -1.5647,12 -0.3476,3.575 -1.4971,13.475 -2.5546,22 -1.0574,8.525 -2.6116,25.9772 -3.4537,38.7827 -0.8421,12.8055 -2.2236,31.0305 -3.07,40.5 -0.8464,9.4695 -1.9459,27.5673 -2.4434,40.2173 -0.4974,12.65 -1.3968,28.4 -1.9986,35 -1.4468,15.8668 -2.0711,165.5191 -0.6978,167.2684 1.2288,1.5653 0.4118,34.9807 -0.8837,36.1447 -0.4928,0.4428 -74.471,2.6919 -164.396,4.9981 -277.9972,7.1295 -386.6833,9.9697 -408.093,10.6644 l -20.5929,0.6682 z m 112.843,-49.4597 c 15.5661,-1.0327 80.853,-2.5579 148,-3.4577 24.2,-0.3242 48.5,-0.7998 54,-1.0567 5.5,-0.2569 33.175,-0.7549 61.5,-1.1065 28.325,-0.3517 53.525,-0.7709 56,-0.9315 9.8653,-0.6403 63.5707,-0.5668 80.5459,0.1102 20.2183,0.8064 21.6147,0.5044 23.4554,-5.0732 1.2611,-3.8209 1.3187,-7.024 1.0523,-58.4959 -0.2544,-49.1614 0.5867,-95.8535 1.9364,-107.5 0.6374,-5.5 1.3176,-17.875 1.5115,-27.5 0.1939,-9.625 1.2958,-27.625 2.4487,-40 1.1529,-12.375 2.7474,-32.9271 3.5432,-45.6712 0.7959,-12.7442 2.1076,-27.8192 2.9149,-33.5 0.8073,-5.6809 1.7554,-13.2538 2.1068,-16.8288 0.3515,-3.575 1.4889,-12.35 2.5277,-19.5 1.0387,-7.15 2.374,-17.725 2.9671,-23.5 0.5932,-5.775 4.2441,-30.525 8.113,-55 8.3328,-52.7128 8.5598,-54.2329 9.9264,-66.4891 0.5833,-5.231 2.3706,-14.8758 3.9718,-21.4329 1.6012,-6.5572 5.1532,-25.3447 7.8934,-41.75 6.5866,-39.4334 9.0097,-50.5397 16.1603,-74.0703 3.3022,-10.8667 7.1225,-25.8112 8.4896,-33.2099 3.6725,-19.8749 4.9422,-24.7641 9.2623,-35.6633 4.1246,-10.4061 5.8294,-16.5199 9.1694,-32.8845 2.9172,-14.2931 5.6742,-23.9136 8.3995,-29.3093 3.4782,-6.8865 5.3412,-12.9247 8.6296,-27.9698 1.9524,-8.9331 4.3458,-16.5136 7.1042,-22.5018 4.0825,-8.8625 9.2426,-26.3082 8.2544,-27.9071 -0.276,-0.4466 -366.0433,-0.812 -812.8161,-0.812 H 962.25339 l -0.63494,32.25 c -0.77055,39.138 -1.67706,90.2384 -3.11777,175.75 -0.28262,16.775 -0.74435,42.425 -1.02605,57 -0.2817,14.575 -0.96551,54.175 -1.51957,88 -0.55407,33.825 -1.44263,83.775 -1.97459,111 -0.53195,27.225 -0.97018,56.1375 -0.97383,64.25 L 953,1561 h 6.7842 c 3.73132,0 19.81882,-0.6685 35.75,-1.4855 15.9312,-0.817 66.0908,-3.2866 111.4658,-5.4881 84.7366,-4.1111 109.1619,-5.3155 143,-7.0514 10.725,-0.5502 56.4,-2.7975 101.5,-4.994 70.3737,-3.4274 222.2484,-10.8757 468.8238,-22.9922 49.781,-2.4462 69.3888,-2.9809 108,-2.9452 44.4254,0.041 54.6374,0.5069 56.6989,2.5868 0.8531,0.8607 2.3293,110.7781 3.6041,268.3696 0.3627,44.825 1.059,82.5786 1.5474,83.8969 l 0.888,2.3969 16.2189,-0.6768 c 8.9204,-0.3723 22.5189,-1.0948 30.2189,-1.6057 z m -971.342,-540.1332 c -6.2736,-1.043 -16.9951,-5.1559 -22.658,-8.6918 -10.611,-6.6256 -20.7903,-20.5248 -23.9688,-32.7279 -1.9608,-7.5281 -1.9608,-20.3887 0,-27.9168 4.8517,-18.6271 20.4235,-33.9521 40.264,-39.626 10.0882,-2.885 24.7965,-2.6438 34.9816,0.5737 27.4257,8.6638 44.114,35.6924 38.8128,62.8618 -5.981,30.653 -35.8003,50.7857 -67.4316,45.527 z m 165.342,0.4882 c -12.5485,-1.9313 -25.215,-8.2665 -33.9074,-16.9589 -29.8828,-29.8828 -17.2828,-78.9936 23.5785,-91.9016 15.2943,-4.8315 33.4863,-3.0697 47.9599,4.6447 13.0734,6.9681 25.2366,23.4339 27.8752,37.736 5.2899,28.6722 -12.0866,56.0372 -40.9746,64.5281 -5.6797,1.6694 -19.3164,2.7543 -24.5316,1.9517 z m 148,0 c -5.7509,-0.8851 -13.9345,-3.5569 -19.4996,-6.3661 -27.3275,-13.7949 -38.6929,-46.5519 -25.5017,-73.5002 6.5443,-13.3693 19.4962,-24.2001 34.6724,-28.9942 14.8548,-4.6927 32.7601,-3.1188 47.1105,4.1409 7.5559,3.8225 18.9022,15.2716 23.1552,23.3649 16.5161,31.4303 -0.2697,69.0758 -35.4052,79.403 -5.6797,1.6694 -19.3164,2.7543 -24.5316,1.9517 z m 140,-0.8683 c -36.3463,-7.4955 -56.5308,-45.7809 -41.1215,-77.998 7.0287,-14.6954 18.981,-24.9994 34.7926,-29.9942 14.3361,-4.5288 32.8505,-3.1151 45.8547,3.5012 23.0011,11.7026 35.2288,37.3224 29.4702,61.7466 -4.6494,19.7197 -20.1655,35.6946 -40.4644,41.661 -7.9121,2.3256 -20.2386,2.7936 -28.5316,1.0834 z m -677.0907,236.531 c 21.40012,-1.0712 39.21892,-2.3034 39.59734,-2.7383 0.37842,-0.4349 1.66643,-62.2157 2.86224,-137.2907 1.19582,-75.075 2.38391,-144.375 2.64021,-154 0.2563,-9.625 0.69985,-32.8 0.98566,-51.5 0.28582,-18.7 0.76118,-47.05 1.05636,-63 0.29518,-15.95 0.96302,-51.95 1.48409,-80 0.52108,-28.05 0.95132,-53.1421 0.95611,-55.7603 l 0.009,-4.7603 -44.75,0.2603 -44.75,0.2603 -0.25611,274 c -0.14087,150.7 -0.0425,274.5625 0.21861,275.25 0.2611,0.6875 0.60135,1.2447 0.75612,1.2383 0.15476,-0.01 17.79057,-0.8881 39.19068,-1.9593 z"
         id="path4940" />
      <path
         style="fill:#000000;fill-opacity:1"
         d="m 1924.7925,1927.8307 c -0.1142,-0.1819 -0.4517,-78.8557 -0.75,-174.8307 l -0.5425,-174.5 -7,0.2825 c -9.9719,0.4025 -247.9799,11.9651 -272,13.214 -11,0.572 -52.175,2.6053 -91.5,4.5186 -39.325,1.9132 -108.4,5.2883 -153.5,7.5002 -45.1,2.2119 -109.45,5.3601 -143,6.9961 -33.55,1.6359 -74.5,3.655 -91,4.4869 -70.0072,3.5295 -378.49316,18.5473 -418.5,20.3736 -9.625,0.4393 -19.75,0.5354 -22.5,0.2135 l -5,-0.5854 -0.81224,-9.5 c -1.22643,-14.3443 -1.9684,-629.47782 -0.7722,-640.19193 2.08619,-18.68559 13.62669,-30.85459 34.08444,-35.94069 4.63205,-1.15159 152.57834,-1.36738 937.5,-1.36738 896.9346,0 932.2403,0.0682 938.3873,1.81297 5.5035,1.56209 8.6169,1.72161 22.5,1.15276 21.7846,-0.89261 21.0956,-1.46718 16.8263,14.03073 -1.7733,6.43683 -4.7358,15.14587 -6.5836,19.35343 -1.8477,4.20756 -4.8035,14.17511 -6.5685,22.15011 -2.2288,10.0711 -4.4008,16.9435 -7.1108,22.5 -2.3942,4.909 -5.2277,13.4093 -7.3335,22 -1.8874,7.7 -5.1149,17.8242 -7.1722,22.4981 -2.0573,4.674 -5.4959,15.6683 -7.6413,24.4318 -2.1454,8.7634 -5.6358,20.2392 -7.7565,25.5018 -5.1369,12.7473 -5.4419,13.8304 -9.5788,34.0048 -1.9665,9.5901 -5.1888,21.7401 -7.1607,27 -5.2737,14.067 -6.8272,20.0167 -12.2884,47.0635 -2.7208,13.475 -6.5474,30.125 -8.5036,37 -1.9562,6.875 -4.8552,18.575 -6.4424,26 -1.5871,7.425 -3.8001,17.1 -4.9177,21.5 -1.1176,4.4 -3.3974,15.9636 -5.0661,25.6968 -1.6687,9.7333 -4.3895,22.9177 -6.0463,29.2987 -1.6568,6.381 -3.9027,16.8674 -4.9909,23.3032 -4.8884,28.9113 -13.9883,88.3998 -14.5629,95.2013 -0.3485,4.125 -1.7136,16.05 -3.0335,26.5 -7.0939,56.163 -7.6058,61.2371 -9.979,98.9199 -0.8632,13.7059 -2.2223,31.7059 -3.0202,40 -0.7979,8.294 -1.4588,19.8051 -1.4686,25.5801 -0.01,5.775 -0.4907,17.025 -1.0688,25 -0.5781,7.975 -1.197,48.7755 -1.3753,90.6678 -0.1784,41.8922 -0.644,76.685 -1.0348,77.3173 -0.4257,0.6887 0.1316,1.3697 1.3902,1.6988 1.9318,0.5052 2.1006,1.251 2.1006,9.2791 0,4.8014 -0.2911,12.8312 -0.647,17.8441 l -0.6469,9.1144 -4.1031,0.4901 c -2.2566,0.2696 -42.578,1.4267 -89.603,2.5714 -138.4692,3.3707 -465.0801,11.8453 -483.25,12.5389 -9.2125,0.3517 -16.8434,0.4907 -16.9575,0.3088 z M 2030.5,1872.008 c 39.3625,-2.4294 56.8515,-2.984 125,-3.9636 40.7,-0.5851 80.975,-1.2753 89.5,-1.5339 59.9334,-1.8181 171.6685,-2.4113 197.2024,-1.047 l 14.7024,0.7855 2.9387,-2.9387 c 2.7693,-2.7693 2.9816,-3.5686 3.6836,-13.8666 0.4676,-6.8613 0.3301,-13.7218 -0.3697,-18.4358 -0.8017,-5.4007 -0.85,-19.8571 -0.172,-51.5079 0.5183,-24.2 0.949,-50.975 0.957,-59.5 0.01,-8.525 0.6904,-22.025 1.5164,-30 0.8259,-7.975 1.5242,-20.35 1.5517,-27.5 0.028,-7.15 0.9258,-22.9 1.9963,-35 1.0705,-12.1 2.6367,-31.45 3.4805,-43 0.8438,-11.55 2.0103,-25.275 2.5924,-30.5 0.582,-5.225 1.6991,-15.8 2.4824,-23.5 0.7834,-7.7 1.6488,-15.125 1.9234,-16.5 0.2745,-1.375 1.8475,-13.1965 3.4956,-26.2701 1.6481,-13.0736 6.1249,-43.4486 9.9485,-67.5 3.8235,-24.0514 7.4805,-48.2299 8.1265,-53.7299 0.6461,-5.5 2.4488,-15.625 4.006,-22.5 1.5572,-6.875 3.7311,-17.9 4.8309,-24.5 8.1141,-48.6934 11.5749,-65.5123 16.9804,-82.5207 4.2799,-13.4666 8.6903,-30.9091 10.6146,-41.9793 2.4074,-13.8494 5.1645,-24.1269 8.9477,-33.3537 1.837,-4.4804 4.7849,-14.4463 6.5508,-22.1463 6.5403,-28.5189 7.9435,-33.5931 11.4154,-41.2827 1.9808,-4.3871 5.2996,-15.1469 7.5075,-24.3401 2.2099,-9.2014 5.6054,-20.2083 7.6897,-24.9271 4.7467,-10.7462 9.7668,-28.9842 8.3641,-30.3869 -1.1065,-1.1065 -1621.26966,-2.1503 -1624.14637,-1.0464 -1.74475,0.6695 -2.21173,12.6275 -3.31878,84.9832 -0.28611,18.7 -0.7535,45.7 -1.03864,60 -0.28515,14.3 -1.18037,65.375 -1.98939,113.5 -0.80902,48.125 -1.90971,112.475 -2.44597,143 -0.53626,30.525 -1.2396,72.6 -1.56298,93.5 -0.32338,20.9 -0.78105,40.338 -1.01705,43.1956 -0.23599,2.8576 -0.0429,5.4343 0.42919,5.726 0.47205,0.2918 13.63118,-0.131 29.24253,-0.9396 15.61134,-0.8085 51.55926,-2.6004 79.88426,-3.982 28.325,-1.3815 65,-3.1834 81.5,-4.0042 16.5,-0.8208 71.625,-3.5253 122.5,-6.0101 50.875,-2.4848 106,-5.1817 122.5,-5.9932 16.5,-0.8115 71.4,-3.4988 122,-5.9719 50.6,-2.473 105.5,-5.1766 122,-6.0079 16.5,-0.8312 53.4,-2.6481 82,-4.0375 28.6,-1.3894 74.275,-3.6964 101.5,-5.1267 50.1133,-2.6328 156.7612,-4.5074 160.7442,-2.8255 0.9657,0.4078 2.8419,0.8841 4.1693,1.0584 1.3274,0.1744 2.9714,0.9024 3.6533,1.6178 1.2236,1.2839 2.248,73.6711 4.0021,282.8008 0.3068,36.575 0.7628,67.5125 1.0135,68.75 0.4458,2.201 0.7438,2.2486 13.6867,2.186 7.277,-0.035 19.5309,-0.4528 27.2309,-0.928 z M 1061,1329.3918 c -18.6758,-5.0139 -32.8573,-17.5563 -39.7226,-35.1314 -2.2866,-5.8538 -2.6499,-8.3026 -2.7091,-18.2604 -0.061,-10.1864 0.248,-12.3596 2.7011,-19.0251 11.8623,-32.2321 51.3689,-46.5513 83.2306,-30.1668 13.0713,6.7217 24.307,20.6749 27.9688,34.7335 1.9598,7.5242 1.9611,20.3877 0,27.9061 -4.9919,19.1653 -21.0557,34.8674 -40.9317,40.0102 -7.4955,1.9394 -23.1964,1.9054 -30.5399,-0.066 z m 163.0716,0.017 c -10.29,-2.7663 -18.1256,-7.3817 -26.092,-15.3689 -4.1362,-4.1471 -8.7585,-9.8691 -10.2718,-12.7156 -3.4513,-6.4918 -6.7078,-19.0291 -6.7078,-25.8245 0,-6.8002 3.258,-19.337 6.7111,-25.8245 4.066,-7.6392 15.4387,-18.5637 23.7889,-22.8516 17.413,-8.9417 37.7748,-9.1471 55.3541,-0.5582 8.0134,3.9152 20.407,15.7826 24.4477,23.4098 3.446,6.5045 6.6982,19.0432 6.6982,25.8245 0,7.1633 -3.2631,19.2376 -7.1615,26.4994 -6.8677,12.7931 -21.2039,23.6486 -36.2986,27.4856 -7.4871,1.9031 -23.2527,1.8639 -30.4683,-0.076 z m 151.4284,0.9114 c -30.8659,-6.9081 -50.5237,-34.5363 -45.5508,-64.0195 4.4987,-26.6712 28.8979,-46.3009 57.5508,-46.3009 27.678,0 51.5124,18.6878 57.0272,44.7131 1.8331,8.6512 1.8273,12.434 -0.033,21.4715 -4.2915,20.8478 -20.8125,37.8963 -41.9542,43.2938 -5.5478,1.4163 -22.162,1.9337 -27.0399,0.842 z m 140.5,-0.9031 c -10.1586,-2.6801 -17.8989,-7.2472 -25.9711,-15.324 -4.1739,-4.1763 -8.8227,-9.9223 -10.3307,-12.7688 -3.446,-6.5045 -6.6982,-19.0432 -6.6982,-25.8245 0,-6.8002 3.258,-19.337 6.7111,-25.8245 1.5151,-2.8465 5.9124,-8.3649 9.7718,-12.2631 11.2532,-11.3662 25.8773,-17.4272 41.9772,-17.3976 16.927,0.031 29.8003,5.2805 41.6357,16.9779 8.663,8.562 13.0519,16.4049 15.3933,27.5073 1.9839,9.4078 1.8825,14.727 -0.455,23.8665 -5.2933,20.6967 -20.3394,35.595 -41.4942,41.0864 -7.4529,1.9346 -23.1414,1.9164 -30.5399,-0.036 z m -675,238.0591 c 18.425,-0.8513 35.34525,-1.7742 37.60055,-2.051 l 4.10055,-0.5031 0.67836,-42.7112 c 0.3731,-23.4911 1.09933,-66.7861 1.61385,-96.2111 0.51452,-29.425 1.18081,-67.9 1.48065,-85.5 0.29984,-17.6 0.76443,-43.925 1.03243,-58.5 0.268,-14.575 0.71938,-39.1 1.00308,-54.5 2.50007,-135.7133 3.57277,-207.8433 3.10897,-209.0519 -0.46824,-1.2203 -7.06363,-1.4294 -43.65463,-1.3847 -23.70668,0.029 -43.74673,0.2998 -44.53343,0.6017 -1.2357,0.4742 -1.43038,37.9397 -1.43038,275.2752 0,151.0995 0.3,275.0264 0.66667,275.393 0.89135,0.8914 0.12276,0.9086 38.33333,-0.8569 z"
         id="path4938" />
      <path
         style="fill:#000000;fill-opacity:1"
         d="m 1925.2735,1926.6926 c -0.4254,-0.6559 -0.9099,-79.0426 -1.0765,-174.1926 -0.1667,-95.15 -0.6167,-173.3121 -1,-173.6936 -0.3834,-0.3814 -73.372,2.8792 -162.197,7.2458 -581.6765,28.5953 -905.31096,44.428 -949.5,46.4509 -18.15,0.8309 -40.21205,1.9576 -49.02677,2.5038 -8.81472,0.5462 -21.96865,0.9931 -29.23095,0.9931 -12.88791,0 -13.21538,-0.054 -13.6721,-2.25 C 717.90443,1625.7403 717.55753,1547.8073 718,1281 l 0.5,-301.5 2.87417,-6.22237 c 4.96787,-10.75512 14.82005,-18.36058 29.96451,-23.13134 4.747,-1.49539 78.53108,-1.64862 919.16132,-1.90883 580.5184,-0.1797 920.0202,0.0701 930.5,0.68476 10.9499,0.64219 18.0137,1.53659 21,2.65899 5.788,2.17536 23.6751,3.02896 32.2352,1.53829 3.5611,-0.62013 7.89,-0.84447 9.6197,-0.49851 2.9303,0.58606 3.1451,0.91706 3.1451,4.84746 0,5.01907 -2.8199,13.63 -6.9769,21.30512 -2.0912,3.86095 -3.7872,9.55425 -5.5537,18.64245 -3.8092,19.59748 -4.3134,21.41598 -8.1492,29.39078 -1.9452,4.0442 -5.0093,13.3039 -6.8093,20.577 -1.7999,7.2731 -5.1624,17.9111 -7.4721,23.6401 -2.3098,5.729 -5.7745,16.9488 -7.6992,24.9329 -1.9248,7.9841 -5.4532,19.4726 -7.8409,25.5299 -4.8853,12.3935 -6.289,17.444 -10.0089,36.0133 -1.4323,7.15 -3.9634,16.825 -5.6245,21.5 -6.1646,17.3486 -7.9852,23.998 -12.3212,45 -5.5489,26.8769 -6.6392,31.5096 -11.0614,47 -1.9627,6.875 -5.1133,19.925 -7.0014,29 -1.888,9.075 -4.0966,19.65 -4.9079,23.5 -0.8114,3.85 -2.6401,13.525 -4.064,21.5 -1.4238,7.975 -4.1364,20.125 -6.0281,27 -3.0971,11.2564 -6.2529,28.635 -12.5295,69 -1.1546,7.425 -2.9679,19.0868 -4.0295,25.9152 -1.0617,6.8283 -2.6208,20.1033 -3.4647,29.5 -0.8439,9.3966 -1.731,17.7598 -1.9712,18.5848 -0.654,2.2456 -7.2347,57.7812 -8.4132,71 -0.5639,6.325 -1.7548,23.65 -2.6465,38.5 -0.8917,14.85 -1.805,27.2986 -2.0295,27.6635 -0.6636,1.0783 -3.6322,66.5187 -4.0754,89.8365 -0.9769,51.396 -1.0029,91.3607 -0.067,102.5 0.8963,10.6658 0.3154,23.3875 -1.347,29.5 -0.278,1.0225 0.4676,1.6007 2.3421,1.8164 2.6461,0.3045 2.75,0.5347 2.75,6.093 0,3.1771 -0.2921,11.2085 -0.649,17.8475 l -0.6491,12.071 -10.1009,0.5767 c -5.5556,0.3172 -29.676,1.0366 -53.601,1.5987 -54.7045,1.2851 -228.1709,5.7253 -253.5,6.4888 -17.9331,0.5406 -123.3536,3.244 -214,5.4878 -22.55,0.5582 -45.6019,1.2153 -51.2265,1.4601 -7.2488,0.3156 -10.4516,0.098 -11,-0.7474 z m 112.8502,-54.5681 c 7.493,-0.4677 14.0596,-1.1198 14.5925,-1.4491 0.5329,-0.3293 26.8022,-1.0521 58.3763,-1.6062 31.5741,-0.554 69.5575,-1.2436 84.4075,-1.5324 14.85,-0.2888 42.975,-0.7581 62.5,-1.0428 19.525,-0.2848 44.05,-0.7298 54.5,-0.989 10.45,-0.2592 39.25,-0.763 64,-1.1197 39.4962,-0.5691 45.5656,-0.4555 49.6245,0.9287 5.9142,2.0169 29.3022,2.6071 32.6255,0.8233 1.2375,-0.6642 3.0375,-2.4095 4,-3.8785 1.7256,-2.6336 1.9273,-11.2484 1.0657,-45.5088 -0.073,-2.8875 0.1811,-22.575 0.5639,-43.75 0.3828,-21.175 0.6483,-44.125 0.59,-51 -0.058,-6.875 0.5897,-20.6 1.4398,-30.5 0.8502,-9.9 2.0282,-28.35 2.6178,-41 0.5896,-12.65 1.9551,-32 3.0344,-43 1.0794,-11 2.625,-28.55 3.4348,-39 3.69,-47.6186 9.2792,-90.2129 22.8977,-174.5 1.3774,-8.525 3.0277,-20.225 3.6673,-26 0.6395,-5.775 2.2513,-15.45 3.5817,-21.5 1.3304,-6.05 3.7823,-18.875 5.4487,-28.5 1.6664,-9.625 4.0844,-23.575 5.3734,-31 2.6854,-15.4686 6.5363,-32.0037 10.0855,-43.3046 3.6324,-11.5657 8.9324,-33.2042 12.3023,-50.2267 1.6367,-8.2673 3.9633,-17.7173 5.1703,-21 6.1309,-16.6744 8.0628,-23.0061 10.5168,-34.4687 4.7551,-22.211 6.284,-27.6887 10.4809,-37.5493 2.2685,-5.3299 5.435,-15.3742 7.0366,-22.3207 3.6677,-15.9075 3.9419,-16.8087 8.2898,-27.247 5.0037,-12.0125 10.0532,-30.8824 8.6418,-32.2938 -0.7834,-0.7834 -229.3044,-1.1601 -813.9272,-1.3416 l -812.83806,-0.2525 -0.60464,23.2525 c -0.33256,12.7888 -0.84167,37.4274 -1.13136,54.7524 -0.2897,17.325 -0.73314,43.425 -0.98544,58 -0.2523,14.575 -0.69614,40.225 -0.98633,57 -0.29018,16.775 -0.76743,43.1 -1.06055,58.5 -0.29313,15.4 -1.18147,66.925 -1.9741,114.5 -0.79262,47.575 -1.68924,101.35 -1.99249,119.5 -0.30324,18.15 -0.7521,38.7555 -0.99746,45.7901 -0.35028,10.0426 -0.16017,12.8998 0.88502,13.3009 0.73213,0.281 19.7344,-0.4151 42.22727,-1.5467 22.49284,-1.1317 73.07114,-3.6289 112.39614,-5.5494 94.0212,-4.5917 334.0505,-16.3634 448.5,-21.9957 232.1843,-11.4262 297.573,-14.6145 318,-15.5055 28.3832,-1.238 100.797,-1.2881 102.05,-0.071 0.5225,0.5076 2.2896,1.0701 3.9268,1.25 1.8742,0.2058 3.388,1.1562 4.0868,2.5659 0.7592,1.5316 1.3183,23.4909 1.7696,69.5 0.3629,36.9936 1.1307,114.961 1.7063,173.261 0.5756,58.3 1.2769,107.077 1.5585,108.3933 l 0.512,2.3933 17.195,-0.6559 c 9.4573,-0.3608 23.3256,-1.0386 30.8187,-1.5062 z m -975.706,-542.607 c -19.9975,-4.3514 -37.3197,-21.0845 -42.4034,-40.9615 -2.5326,-9.9024 -2.5413,-16.1755 -0.036,-25.9706 2.7336,-10.688 6.3114,-16.8973 14.5048,-25.173 29.989,-30.2902 82.5633,-19.0959 96.6898,20.5876 2.8184,7.9173 3.4978,21.8803 1.4519,29.8407 -3.9047,15.1925 -14.5375,29.1841 -27.3106,35.9377 -12.5153,6.6171 -28.83,8.7999 -42.8963,5.7391 z m 161.784,-0.4729 c -19.7216,-5.3472 -35.0503,-20.0605 -40.6063,-38.9761 -2.1009,-7.1524 -2.0926,-22.0296 0.016,-29.137 4.3295,-14.5921 14.7879,-27.407 27.8885,-34.1725 22.7189,-11.7325 51.8747,-7.3919 69.6858,10.3746 10.8857,10.8584 15.8142,22.8153 15.8142,38.3664 0,15.7053 -5.0462,27.847 -16.0898,38.7136 -11.1709,10.9919 -22.216,15.6347 -38.9102,16.3561 -8.3848,0.3623 -11.9702,0.055 -17.7983,-1.5251 z m 148,0 c -10.7161,-2.9055 -18.7478,-7.5796 -26.7017,-15.5394 -10.931,-10.9391 -15.3891,-21.8305 -15.5775,-38.0568 -0.202,-17.3936 7.5893,-33.1165 21.5024,-43.3919 11.6338,-8.5921 21.1774,-11.5854 36.5751,-11.4713 12.5577,0.093 20.9637,2.2733 30.6502,7.9499 11.024,6.4605 21.5507,20.46 24.8186,33.0065 1.9455,7.4693 1.9651,20.3724 0.042,27.7552 -4.677,17.9563 -19.7108,33.4153 -38.2143,39.295 -8.0376,2.5541 -24.5136,2.7795 -33.0949,0.4528 z m 144,0 c -10.5368,-2.8569 -18.769,-7.5972 -26.2053,-15.0899 C 1478.9085,1302.7828 1474,1290.9829 1474,1275.5 c 0,-13.6851 3.9241,-24.7965 12.3068,-34.8476 10.0023,-11.9931 24.8631,-19.2314 41.6932,-20.3075 27.5908,-1.7641 52.8337,15.7227 59.4688,41.1967 1.9455,7.4693 1.9651,20.3724 0.042,27.7552 -4.7554,18.2571 -19.4577,33.3167 -38.4249,39.3584 -7.8407,2.4975 -24.3865,2.6935 -32.8843,0.3894 z M 846.5,1567.3853 c 19.25,-0.9087 35.29035,-1.9295 35.64523,-2.2687 0.35488,-0.3391 1.14682,-30.9916 1.75986,-68.1166 0.61304,-37.125 1.32797,-77.625 1.58873,-90 0.44125,-20.9406 0.72333,-37.0695 2.01999,-115.5 0.27279,-16.5 0.71492,-41.025 0.9825,-54.5 0.26759,-13.475 0.72121,-41.15 1.00804,-61.5 0.28683,-20.35 0.73501,-44.65 0.99594,-54 0.26094,-9.35 0.76321,-36.6922 1.11616,-60.7604 l 0.64173,-43.7604 -44.87909,0.2604 -44.87909,0.2604 -0.25179,275.75 -0.25179,275.75 4.75179,0.019 c 2.61349,0.01 20.50179,-0.7247 39.75179,-1.6333 z"
         id="path4936" />
    </g>
  </g>
</svg>
